<?xml version="1.0" standalone="no"?><!DOCTYPE svg PUBLIC "-//W3C//DTD SVG 1.1//EN" "http://www.w3.org/Graphics/SVG/1.1/DTD/svg11.dtd"><svg xmlns="http://www.w3.org/2000/svg" version="1.1" width="126px" height="65.3px" viewBox="0 -1 126 65.3" style="top:-1px">  <desc>Lounge in luxurious, crushed velvet</desc>  <defs/>  <g id="Polygon41740">    <path d="M 5.6 54.5 C 6.3 54.5 7 54.3 7.6 53.8 C 7.6 53.8 8.4 54.8 8.4 54.8 C 7.6 55.4 6.6 55.7 5.6 55.7 C 2.9 55.7 0.7 53.9 0.7 51 C 0.7 48.3 2.9 46.3 5.6 46.3 C 6.6 46.3 7.4 46.6 8.2 47.1 C 8.2 47.1 7.5 48.1 7.5 48.1 C 6.9 47.8 6.3 47.6 5.6 47.6 C 3.7 47.6 2.2 49 2.2 51 C 2.2 53.1 3.6 54.5 5.6 54.5 Z M 13.1 46.5 C 14.5 46.5 16.2 47.2 16.2 49.1 C 16.2 50.6 15.2 51.4 14.1 51.7 C 14.08 51.67 16.9 55.6 16.9 55.6 L 15.2 55.6 L 12.5 51.8 L 11.7 51.8 L 11.7 55.6 L 10.3 55.6 L 10.3 46.5 C 10.3 46.5 13.08 46.47 13.1 46.5 Z M 11.7 50.6 C 11.7 50.6 12.77 50.56 12.8 50.6 C 13.9 50.6 14.8 50.1 14.8 49.2 C 14.8 48.3 14.1 47.7 13 47.7 C 13.01 47.69 11.7 47.7 11.7 47.7 L 11.7 50.6 Z M 25.7 51.3 C 25.7 54.2 24.6 55.7 22.1 55.7 C 19.6 55.7 18.6 54.2 18.6 51.3 C 18.58 51.3 18.6 46.5 18.6 46.5 L 20 46.5 C 20 46.5 19.97 51.6 20 51.6 C 20 53.5 20.8 54.5 22.1 54.5 C 23.5 54.5 24.3 53.5 24.3 51.6 C 24.3 51.6 24.3 46.5 24.3 46.5 L 25.7 46.5 C 25.7 46.5 25.69 51.3 25.7 51.3 Z M 31.3 47.6 C 30.4 47.6 29.8 48 29.8 48.7 C 29.8 49.5 30.6 49.8 31.6 50.1 C 32.8 50.5 34.4 51.1 34.4 52.9 C 34.4 54.9 32.5 55.7 31.1 55.7 C 29.8 55.7 28.7 55.3 27.8 54.3 C 27.8 54.3 28.7 53.4 28.7 53.4 C 29.6 54.2 30.2 54.5 31.1 54.5 C 32 54.5 32.9 54.1 32.9 53 C 32.9 52.1 31.9 51.7 30.9 51.4 C 29.7 50.9 28.4 50.3 28.4 48.8 C 28.4 47.1 29.7 46.3 31.2 46.3 C 32.3 46.3 33.2 46.6 34 47.3 C 34 47.3 33.2 48.3 33.2 48.3 C 32.7 47.9 32 47.6 31.3 47.6 Z M 42.5 55.6 L 42.5 51.5 L 38 51.5 L 38 55.6 L 36.6 55.6 L 36.6 46.5 L 38 46.5 L 38 50.3 L 42.5 50.3 L 42.5 46.5 L 43.9 46.5 L 43.9 55.6 L 42.5 55.6 Z M 46.7 55.6 L 46.7 46.5 L 52.2 46.5 L 52.2 47.7 L 48.1 47.7 L 48.1 50.3 L 52.2 50.3 L 52.2 51.5 L 48.1 51.5 L 48.1 54.4 L 52.2 54.4 L 52.2 55.6 L 46.7 55.6 Z M 54.6 46.5 C 54.6 46.5 57.12 46.47 57.1 46.5 C 59.4 46.5 62 47.7 62 51 C 62 54.4 59.5 55.6 57 55.6 C 57 55.57 54.6 55.6 54.6 55.6 L 54.6 46.5 Z M 56.9 47.7 C 56.9 47.69 56 47.7 56 47.7 L 56 54.4 C 56 54.4 56.39 54.35 56.4 54.4 C 58.9 54.4 60.6 53.5 60.6 51.1 C 60.6 48.9 59.2 47.7 56.9 47.7 Z M 71.5 55.6 L 70.3 55.6 L 66.9 46.5 L 68.5 46.5 L 71 53.4 L 71 53.4 L 73.6 46.5 L 75.1 46.5 L 71.5 55.6 Z M 76.8 55.6 L 76.8 46.5 L 82.4 46.5 L 82.4 47.7 L 78.2 47.7 L 78.2 50.3 L 82.4 50.3 L 82.4 51.5 L 78.2 51.5 L 78.2 54.4 L 82.4 54.4 L 82.4 55.6 L 76.8 55.6 Z M 84.7 55.6 L 84.7 46.5 L 86.1 46.5 L 86.1 54.4 L 90 54.4 L 90 55.6 L 84.7 55.6 Z M 94.5 55.6 L 93.4 55.6 L 89.9 46.5 L 91.5 46.5 L 94 53.4 L 94 53.4 L 96.6 46.5 L 98.1 46.5 L 94.5 55.6 Z M 99.8 55.6 L 99.8 46.5 L 105.4 46.5 L 105.4 47.7 L 101.2 47.7 L 101.2 50.3 L 105.4 50.3 L 105.4 51.5 L 101.2 51.5 L 101.2 54.4 L 105.4 54.4 L 105.4 55.6 L 99.8 55.6 Z M 110.4 47.7 L 110.4 55.6 L 109.1 55.6 L 109.1 47.7 L 106.8 47.7 L 106.8 46.5 L 112.7 46.5 L 112.7 47.7 L 110.4 47.7 Z " stroke="none" fill="#fff"/>  </g>  <g id="Polygon41739">    <path d="M 1.2 41.6 L 1.2 32.5 L 2.6 32.5 L 2.6 40.4 L 6.5 40.4 L 6.5 41.6 L 1.2 41.6 Z M 14.9 37.3 C 14.9 40.2 13.8 41.7 11.3 41.7 C 8.9 41.7 7.8 40.2 7.8 37.3 C 7.8 37.3 7.8 32.5 7.8 32.5 L 9.2 32.5 C 9.2 32.5 9.19 37.6 9.2 37.6 C 9.2 39.5 10 40.5 11.3 40.5 C 12.7 40.5 13.5 39.5 13.5 37.6 C 13.52 37.6 13.5 32.5 13.5 32.5 L 14.9 32.5 C 14.9 32.5 14.91 37.3 14.9 37.3 Z M 21.7 37 L 25 41.6 L 23.2 41.6 L 20.7 38.1 L 18.2 41.6 L 16.5 41.6 L 19.8 37 L 16.6 32.5 L 18.4 32.5 L 20.8 35.9 L 23.2 32.5 L 25 32.5 L 21.7 37 Z M 33.7 37.3 C 33.7 40.2 32.6 41.7 30.1 41.7 C 27.7 41.7 26.6 40.2 26.6 37.3 C 26.6 37.3 26.6 32.5 26.6 32.5 L 28 32.5 C 28 32.5 27.99 37.6 28 37.6 C 28 39.5 28.8 40.5 30.1 40.5 C 31.5 40.5 32.3 39.5 32.3 37.6 C 32.32 37.6 32.3 32.5 32.3 32.5 L 33.7 32.5 C 33.7 32.5 33.71 37.3 33.7 37.3 Z M 39.2 32.5 C 40.6 32.5 42.3 33.2 42.3 35.1 C 42.3 36.6 41.2 37.4 40.2 37.7 C 40.16 37.67 43 41.6 43 41.6 L 41.3 41.6 L 38.6 37.8 L 37.8 37.8 L 37.8 41.6 L 36.4 41.6 L 36.4 32.5 C 36.4 32.5 39.16 32.47 39.2 32.5 Z M 37.8 36.6 C 37.8 36.6 38.84 36.56 38.8 36.6 C 40 36.6 40.8 36.1 40.8 35.2 C 40.8 34.3 40.1 33.7 39.1 33.7 C 39.09 33.69 37.8 33.7 37.8 33.7 L 37.8 36.6 Z M 44.8 41.6 L 44.8 32.5 L 46.2 32.5 L 46.2 41.6 L 44.8 41.6 Z M 53.2 33.6 C 51.4 33.6 50 35.1 50 37 C 50 39 51.4 40.5 53.2 40.5 C 55.1 40.5 56.5 39 56.5 37 C 56.5 35.1 55.1 33.6 53.2 33.6 Z M 53.2 41.7 C 50.6 41.7 48.5 39.6 48.5 37 C 48.5 34.4 50.6 32.3 53.2 32.3 C 55.9 32.3 58 34.4 58 37 C 58 39.6 55.9 41.7 53.2 41.7 Z M 67.3 37.3 C 67.3 40.2 66.3 41.7 63.7 41.7 C 61.3 41.7 60.2 40.2 60.2 37.3 C 60.22 37.3 60.2 32.5 60.2 32.5 L 61.6 32.5 C 61.6 32.5 61.61 37.6 61.6 37.6 C 61.6 39.5 62.4 40.5 63.8 40.5 C 65.1 40.5 65.9 39.5 65.9 37.6 C 65.94 37.6 65.9 32.5 65.9 32.5 L 67.3 32.5 C 67.3 32.5 67.33 37.3 67.3 37.3 Z M 72.9 33.6 C 72 33.6 71.4 34 71.4 34.7 C 71.4 35.5 72.3 35.8 73.2 36.1 C 74.5 36.5 76 37.1 76 38.9 C 76 40.9 74.2 41.7 72.7 41.7 C 71.4 41.7 70.4 41.3 69.4 40.3 C 69.4 40.3 70.4 39.4 70.4 39.4 C 71.2 40.2 71.8 40.5 72.8 40.5 C 73.6 40.5 74.5 40.1 74.5 39 C 74.5 38.1 73.6 37.7 72.6 37.4 C 71.3 36.9 70 36.3 70 34.8 C 70 33.1 71.3 32.3 72.8 32.3 C 73.9 32.3 74.8 32.6 75.7 33.3 C 75.7 33.3 74.8 34.3 74.8 34.3 C 74.4 33.9 73.6 33.6 72.9 33.6 Z M 78.6 43.3 L 77.4 43.3 L 78 40 L 79.5 40 L 78.6 43.3 Z " stroke="none" fill="#fff"/>  </g>  <g id="Polygon41738">    <path d="M 1.2 27.6 L 1.2 18.5 L 2.6 18.5 L 2.6 26.4 L 6.5 26.4 L 6.5 27.6 L 1.2 27.6 Z M 12 19.6 C 10.1 19.6 8.8 21.1 8.8 23 C 8.8 25 10.1 26.5 12 26.5 C 13.9 26.5 15.2 25 15.2 23 C 15.2 21.1 13.9 19.6 12 19.6 Z M 12 27.7 C 9.3 27.7 7.3 25.6 7.3 23 C 7.3 20.4 9.3 18.3 12 18.3 C 14.7 18.3 16.7 20.4 16.7 23 C 16.7 25.6 14.7 27.7 12 27.7 Z M 26.1 23.3 C 26.1 26.2 25 27.7 22.5 27.7 C 20 27.7 19 26.2 19 23.3 C 18.95 23.3 19 18.5 19 18.5 L 20.3 18.5 C 20.3 18.5 20.34 23.6 20.3 23.6 C 20.3 25.5 21.2 26.5 22.5 26.5 C 23.9 26.5 24.7 25.5 24.7 23.6 C 24.67 23.6 24.7 18.5 24.7 18.5 L 26.1 18.5 C 26.1 18.5 26.06 23.3 26.1 23.3 Z M 35 27.6 L 30.2 21 L 30.2 27.6 L 28.8 27.6 L 28.8 18.5 L 30 18.5 L 34.8 25 L 34.8 18.5 L 36.2 18.5 L 36.2 27.6 L 35 27.6 Z M 43.5 23.7 L 43.5 22.5 L 47.2 22.5 C 47.2 22.5 47.18 25.96 47.2 26 C 46.3 27.1 44.9 27.7 43.4 27.7 C 40.6 27.7 38.5 25.8 38.5 23 C 38.5 20.3 40.7 18.3 43.4 18.3 C 44.8 18.3 46.1 18.9 47 20 C 47 20 46 20.8 46 20.8 C 45.4 20.1 44.4 19.6 43.4 19.6 C 41.4 19.6 40 21 40 23 C 40 25.1 41.4 26.5 43.4 26.5 C 44.3 26.5 45.2 26.2 45.8 25.6 C 45.79 25.56 45.8 23.7 45.8 23.7 L 43.5 23.7 Z M 49.8 27.6 L 49.8 18.5 L 55.3 18.5 L 55.3 19.7 L 51.1 19.7 L 51.1 22.3 L 55.3 22.3 L 55.3 23.5 L 51.1 23.5 L 51.1 26.4 L 55.3 26.4 L 55.3 27.6 L 49.8 27.6 Z M 61.3 27.6 L 61.3 18.5 L 62.7 18.5 L 62.7 27.6 L 61.3 27.6 Z M 71.7 27.6 L 66.9 21 L 66.9 27.6 L 65.5 27.6 L 65.5 18.5 L 66.7 18.5 L 71.5 25 L 71.5 18.5 L 72.9 18.5 L 72.9 27.6 L 71.7 27.6 Z " stroke="none" fill="#fff"/>  </g></svg>