<?xml version="1.0" standalone="no"?><!DOCTYPE svg PUBLIC "-//W3C//DTD SVG 1.1//EN" "http://www.w3.org/Graphics/SVG/1.1/DTD/svg11.dtd"><svg xmlns="http://www.w3.org/2000/svg" version="1.1" width="119px" height="50px" viewBox="0 -4 119 50" style="top:-4px">  <desc>There are too many reasons to love these Mid-Century boho vibes</desc>  <defs/>  <g id="Polygon39472">    <path d="M 3.8 24 L 2.2 28 L 1.6 28 L 0.1 24 L 0.9 24 L 1.9 27.1 L 2 27.1 L 3 24 L 3.8 24 Z M 4.5 28 L 4.5 24 L 5.2 24 L 5.2 28 L 4.5 28 Z M 4.5 23.2 L 4.5 22.4 L 5.2 22.4 L 5.2 23.2 L 4.5 23.2 Z M 7.3 22 C 7.3 22 7.3 24.54 7.3 24.5 C 7.6 24.1 8.1 23.9 8.6 23.9 C 9.7 23.9 10.6 24.8 10.6 26 C 10.6 27.1 9.8 28.1 8.6 28.1 C 8.1 28.1 7.6 27.9 7.3 27.6 C 7.3 27.57 7.3 28 7.3 28 L 6.6 28 L 6.6 22 L 7.3 22 Z M 7.3 26.8 C 7.6 27.2 8 27.4 8.5 27.4 C 9.4 27.4 9.8 26.7 9.8 26 C 9.8 25.2 9.3 24.6 8.5 24.6 C 8 24.6 7.5 24.8 7.3 25.3 C 7.3 25.3 7.3 26.8 7.3 26.8 Z M 12 26.2 C 12 26.9 12.5 27.5 13.3 27.5 C 13.8 27.5 14.2 27.3 14.5 26.8 C 14.5 26.8 15 27.2 15 27.2 C 14.6 27.8 14 28.1 13.2 28.1 C 12 28.1 11.2 27.2 11.2 26 C 11.2 24.8 12.1 23.9 13.2 23.9 C 14.3 23.9 15.1 24.7 15.1 25.8 C 15.1 25.9 15 26.1 15 26.2 C 15 26.2 12 26.2 12 26.2 Z M 12 25.6 C 12 25.6 14.3 25.6 14.3 25.6 C 14.3 25 13.8 24.5 13.2 24.5 C 12.6 24.5 12.2 25 12 25.6 Z M 18 24.8 C 17.8 24.6 17.5 24.5 17.2 24.5 C 16.9 24.5 16.6 24.7 16.6 25 C 16.6 25.3 17 25.5 17.4 25.6 C 17.9 25.8 18.6 26.1 18.6 26.8 C 18.6 27.7 17.9 28.1 17.1 28.1 C 16.6 28.1 16 27.9 15.7 27.5 C 15.7 27.5 16.2 27.1 16.2 27.1 C 16.5 27.3 16.8 27.5 17.1 27.5 C 17.5 27.5 17.8 27.3 17.8 26.9 C 17.8 26.6 17.5 26.4 17.1 26.3 C 16.5 26 15.9 25.8 15.9 25.1 C 15.9 24.3 16.6 23.9 17.2 23.9 C 17.7 23.9 18.1 24.1 18.4 24.3 C 18.4 24.3 18 24.8 18 24.8 Z M 19.6 28 L 19.6 27.1 L 20.4 27.1 L 20.4 28 L 19.6 28 Z " stroke="none" fill="#fff"/>  </g>  <g id="Polygon39471">    <path d="M 1.4 17 L 0.7 17 L 0.7 11 L 1.4 11 L 1.4 17 Z M 6.5 15 C 6.5 16.2 5.6 17.1 4.4 17.1 C 3.3 17.1 2.4 16.2 2.4 15 C 2.4 13.8 3.3 12.9 4.4 12.9 C 5.6 12.9 6.5 13.8 6.5 15 Z M 4.4 13.6 C 3.7 13.6 3.2 14.2 3.2 15 C 3.2 15.8 3.7 16.4 4.4 16.4 C 5.2 16.4 5.7 15.8 5.7 15 C 5.7 14.2 5.2 13.6 4.4 13.6 Z M 10.6 13 L 9.1 17 L 8.4 17 L 6.9 13 L 7.7 13 L 8.8 16.1 L 8.8 16.1 L 9.8 13 L 10.6 13 Z M 11.7 15.2 C 11.8 15.9 12.2 16.5 13 16.5 C 13.5 16.5 14 16.3 14.2 15.8 C 14.2 15.8 14.7 16.2 14.7 16.2 C 14.3 16.8 13.8 17.1 13 17.1 C 11.7 17.1 11 16.2 11 15 C 11 13.8 11.9 12.9 13 12.9 C 14 12.9 14.8 13.7 14.8 14.8 C 14.8 14.9 14.8 15.1 14.8 15.2 C 14.8 15.2 11.7 15.2 11.7 15.2 Z M 11.8 14.6 C 11.8 14.6 14 14.6 14 14.6 C 14 14 13.6 13.5 13 13.5 C 12.3 13.5 11.9 14 11.8 14.6 Z M 18.6 13.6 C 18.6 13.6 18.58 15.45 18.6 15.4 C 18.6 15.6 18.6 15.6 18.6 15.8 C 18.6 16.2 18.7 16.4 19.1 16.4 C 19.3 16.4 19.5 16.4 19.6 16.3 C 19.6 16.3 19.8 16.9 19.8 16.9 C 19.6 17 19.3 17.1 19 17.1 C 18.5 17.1 18.1 16.8 18 16.5 C 17.9 16.2 17.8 15.9 17.8 15.6 C 17.85 15.62 17.8 13.6 17.8 13.6 L 17.3 13.6 L 17.3 13 L 17.8 13 L 17.8 12 L 18.6 12 L 18.6 13 L 19.7 13 L 19.7 13.6 L 18.6 13.6 Z M 21.3 13.7 C 21.6 13.2 22.1 12.9 22.6 12.9 C 23.2 12.9 23.5 13.1 23.8 13.4 C 24 13.8 24.1 14.3 24.1 14.9 C 24.13 14.92 24.1 17 24.1 17 L 23.4 17 C 23.4 17 23.4 15 23.4 15 C 23.4 14.6 23.4 14.2 23.2 13.9 C 23.1 13.7 22.8 13.6 22.5 13.6 C 22 13.6 21.6 13.9 21.3 14.3 C 21.3 14.34 21.3 17 21.3 17 L 20.6 17 L 20.6 11 L 21.3 11 C 21.3 11 21.3 13.66 21.3 13.7 Z M 25.8 15.2 C 25.9 15.9 26.3 16.5 27.1 16.5 C 27.6 16.5 28.1 16.3 28.3 15.8 C 28.3 15.8 28.8 16.2 28.8 16.2 C 28.4 16.8 27.9 17.1 27.1 17.1 C 25.8 17.1 25.1 16.2 25.1 15 C 25.1 13.8 26 12.9 27.1 12.9 C 28.1 12.9 28.9 13.7 28.9 14.8 C 28.9 14.9 28.9 15.1 28.9 15.2 C 28.9 15.2 25.8 15.2 25.8 15.2 Z M 25.9 14.6 C 25.9 14.6 28.1 14.6 28.1 14.6 C 28.1 14 27.7 13.5 27.1 13.5 C 26.4 13.5 26 14 25.9 14.6 Z M 31.9 13.8 C 31.7 13.6 31.3 13.5 31.1 13.5 C 30.7 13.5 30.5 13.7 30.5 14 C 30.5 14.3 30.8 14.5 31.2 14.6 C 31.8 14.8 32.4 15.1 32.4 15.8 C 32.4 16.7 31.7 17.1 31 17.1 C 30.4 17.1 29.9 16.9 29.6 16.5 C 29.6 16.5 30.1 16.1 30.1 16.1 C 30.4 16.3 30.6 16.5 31 16.5 C 31.4 16.5 31.7 16.3 31.7 15.9 C 31.7 15.6 31.3 15.4 30.9 15.3 C 30.4 15 29.8 14.8 29.8 14.1 C 29.8 13.3 30.4 12.9 31.1 12.9 C 31.5 12.9 32 13.1 32.3 13.3 C 32.3 13.3 31.9 13.8 31.9 13.8 Z M 33.9 15.2 C 34 15.9 34.4 16.5 35.2 16.5 C 35.7 16.5 36.1 16.3 36.4 15.8 C 36.4 15.8 36.9 16.2 36.9 16.2 C 36.5 16.8 36 17.1 35.2 17.1 C 33.9 17.1 33.2 16.2 33.2 15 C 33.2 13.8 34 12.9 35.2 12.9 C 36.2 12.9 37 13.7 37 14.8 C 37 14.9 37 15.1 37 15.2 C 37 15.2 33.9 15.2 33.9 15.2 Z M 34 14.6 C 34 14.6 36.2 14.6 36.2 14.6 C 36.2 14 35.8 13.5 35.2 13.5 C 34.5 13.5 34.1 14 34 14.6 Z M 43.3 17 L 42.7 17 L 40.8 12.3 L 40.8 17 L 40.1 17 L 40.1 11.4 L 41.3 11.4 L 43 15.8 L 44.7 11.4 L 45.9 11.4 L 45.9 17 L 45.2 17 L 45.2 12.3 L 43.3 17 Z M 47.4 17 L 47.4 13 L 48.1 13 L 48.1 17 L 47.4 17 Z M 47.4 12.2 L 47.4 11.4 L 48.1 11.4 L 48.1 12.2 L 47.4 12.2 Z M 49.1 15 C 49.1 13.9 49.9 12.9 51.1 12.9 C 51.6 12.9 52.1 13.1 52.4 13.4 C 52.38 13.44 52.4 11 52.4 11 L 53.1 11 L 53.1 17 L 52.4 17 C 52.4 17 52.38 16.46 52.4 16.5 C 52.1 16.9 51.6 17.1 51.1 17.1 C 50 17.1 49.1 16.2 49.1 15 Z M 52.4 15.7 C 52.4 15.7 52.4 14.2 52.4 14.2 C 52.1 13.8 51.6 13.6 51.2 13.6 C 50.3 13.6 49.9 14.3 49.9 15 C 49.9 15.8 50.4 16.4 51.2 16.4 C 51.6 16.4 52.2 16.2 52.4 15.7 Z M 54.6 15.1 L 54.6 14.4 L 56.7 14.4 L 56.7 15.1 L 54.6 15.1 Z M 61.1 17.1 C 59.4 17.1 58.1 16 58.1 14.2 C 58.1 12.5 59.4 11.3 61.1 11.3 C 61.6 11.3 62.1 11.5 62.6 11.7 C 62.6 11.7 62.2 12.3 62.2 12.3 C 61.9 12.1 61.5 12 61.1 12 C 59.8 12 58.9 12.9 58.9 14.2 C 58.9 15.6 59.8 16.4 61.1 16.4 C 61.5 16.4 61.9 16.3 62.3 16 C 62.3 16 62.7 16.6 62.7 16.6 C 62.2 16.9 61.7 17.1 61.1 17.1 Z M 63.9 15.2 C 64 15.9 64.4 16.5 65.2 16.5 C 65.7 16.5 66.2 16.3 66.4 15.8 C 66.4 15.8 66.9 16.2 66.9 16.2 C 66.5 16.8 66 17.1 65.2 17.1 C 63.9 17.1 63.2 16.2 63.2 15 C 63.2 13.8 64.1 12.9 65.2 12.9 C 66.2 12.9 67 13.7 67 14.8 C 67 14.9 67 15.1 67 15.2 C 67 15.2 63.9 15.2 63.9 15.2 Z M 64 14.6 C 64 14.6 66.2 14.6 66.2 14.6 C 66.2 14 65.8 13.5 65.2 13.5 C 64.5 13.5 64.1 14 64 14.6 Z M 68.7 13 C 68.7 13 68.73 13.66 68.7 13.7 C 69 13.2 69.5 12.9 70 12.9 C 70.6 12.9 71 13.1 71.2 13.4 C 71.5 13.8 71.6 14.3 71.6 14.9 C 71.56 14.92 71.6 17 71.6 17 L 70.8 17 C 70.8 17 70.83 15 70.8 15 C 70.8 14.6 70.8 14.2 70.6 13.9 C 70.5 13.7 70.3 13.6 69.9 13.6 C 69.5 13.6 69 13.9 68.7 14.3 C 68.73 14.34 68.7 17 68.7 17 L 68 17 L 68 13 L 68.7 13 Z M 73.6 13.6 C 73.6 13.6 73.62 15.45 73.6 15.4 C 73.6 15.6 73.6 15.6 73.6 15.8 C 73.7 16.2 73.8 16.4 74.2 16.4 C 74.4 16.4 74.5 16.4 74.6 16.3 C 74.6 16.3 74.8 16.9 74.8 16.9 C 74.6 17 74.4 17.1 74.1 17.1 C 73.5 17.1 73.2 16.8 73 16.5 C 72.9 16.2 72.9 15.9 72.9 15.6 C 72.9 15.62 72.9 13.6 72.9 13.6 L 72.4 13.6 L 72.4 13 L 72.9 13 L 72.9 12 L 73.6 12 L 73.6 13 L 74.7 13 L 74.7 13.6 L 73.6 13.6 Z M 78.4 16.3 C 78.1 16.8 77.6 17.1 77.1 17.1 C 76.5 17.1 76.2 16.9 75.9 16.6 C 75.7 16.2 75.6 15.7 75.6 15.1 C 75.58 15.08 75.6 13 75.6 13 L 76.3 13 C 76.3 13 76.3 15 76.3 15 C 76.3 15.4 76.3 15.8 76.5 16.1 C 76.6 16.3 76.9 16.4 77.2 16.4 C 77.7 16.4 78.1 16.1 78.4 15.7 C 78.4 15.66 78.4 13 78.4 13 L 79.1 13 L 79.1 17 L 78.4 17 C 78.4 17 78.4 16.34 78.4 16.3 Z M 81.2 13.7 C 81.4 13.2 81.8 12.9 82.2 12.9 C 82.4 12.9 82.5 12.9 82.7 13 C 82.7 13 82.5 13.7 82.5 13.7 C 82.4 13.7 82.3 13.6 82.2 13.6 C 81.7 13.6 81.4 13.9 81.2 14.3 C 81.2 14.32 81.2 17 81.2 17 L 80.5 17 L 80.5 13 L 81.2 13 C 81.2 13 81.2 13.66 81.2 13.7 Z M 83.7 13 L 84.7 16 L 84.7 16 L 85.8 13 L 86.6 13 L 84.3 18.8 L 83.7 18.6 L 84.3 16.9 L 82.9 13 L 83.7 13 Z M 90 11 C 90 11 90.03 13.54 90 13.5 C 90.3 13.1 90.8 12.9 91.3 12.9 C 92.5 12.9 93.3 13.8 93.3 15 C 93.3 16.1 92.5 17.1 91.3 17.1 C 90.8 17.1 90.4 16.9 90 16.6 C 90.03 16.57 90 17 90 17 L 89.3 17 L 89.3 11 L 90 11 Z M 90 15.8 C 90.3 16.2 90.8 16.4 91.2 16.4 C 92.1 16.4 92.6 15.7 92.6 15 C 92.6 14.2 92 13.6 91.2 13.6 C 90.8 13.6 90.2 13.8 90 14.3 C 90 14.3 90 15.8 90 15.8 Z M 98.1 15 C 98.1 16.2 97.2 17.1 96 17.1 C 94.8 17.1 94 16.2 94 15 C 94 13.8 94.8 12.9 96 12.9 C 97.2 12.9 98.1 13.8 98.1 15 Z M 96 13.6 C 95.3 13.6 94.7 14.2 94.7 15 C 94.7 15.8 95.3 16.4 96 16.4 C 96.8 16.4 97.3 15.8 97.3 15 C 97.3 14.2 96.8 13.6 96 13.6 Z M 99.8 13.7 C 100.1 13.2 100.6 12.9 101.1 12.9 C 101.7 12.9 102 13.1 102.3 13.4 C 102.5 13.8 102.6 14.3 102.6 14.9 C 102.61 14.92 102.6 17 102.6 17 L 101.9 17 C 101.9 17 101.89 15 101.9 15 C 101.9 14.6 101.9 14.2 101.7 13.9 C 101.6 13.7 101.3 13.6 101 13.6 C 100.5 13.6 100.1 13.9 99.8 14.3 C 99.79 14.34 99.8 17 99.8 17 L 99.1 17 L 99.1 11 L 99.8 11 C 99.8 11 99.79 13.66 99.8 13.7 Z M 107.7 15 C 107.7 16.2 106.8 17.1 105.6 17.1 C 104.4 17.1 103.6 16.2 103.6 15 C 103.6 13.8 104.4 12.9 105.6 12.9 C 106.8 12.9 107.7 13.8 107.7 15 Z M 105.6 13.6 C 104.9 13.6 104.3 14.2 104.3 15 C 104.3 15.8 104.9 16.4 105.6 16.4 C 106.4 16.4 106.9 15.8 106.9 15 C 106.9 14.2 106.4 13.6 105.6 13.6 Z " stroke="none" fill="#fff"/>  </g>  <g id="Polygon39470">    <path d="M 2.3 1.1 L 2.3 6 L 1.6 6 L 1.6 1.1 L 0.2 1.1 L 0.2 0.4 L 3.7 0.4 L 3.7 1.1 L 2.3 1.1 Z M 5.3 2.7 C 5.6 2.2 6.1 1.9 6.6 1.9 C 7.2 1.9 7.5 2.1 7.8 2.4 C 8 2.8 8.1 3.3 8.1 3.9 C 8.13 3.92 8.1 6 8.1 6 L 7.4 6 C 7.4 6 7.4 4 7.4 4 C 7.4 3.6 7.4 3.2 7.2 2.9 C 7.1 2.7 6.8 2.6 6.5 2.6 C 6 2.6 5.6 2.9 5.3 3.3 C 5.3 3.34 5.3 6 5.3 6 L 4.6 6 L 4.6 0 L 5.3 0 C 5.3 0 5.3 2.66 5.3 2.7 Z M 9.8 4.2 C 9.9 4.9 10.3 5.5 11.1 5.5 C 11.6 5.5 12.1 5.3 12.3 4.8 C 12.3 4.8 12.8 5.2 12.8 5.2 C 12.4 5.8 11.9 6.1 11.1 6.1 C 9.8 6.1 9.1 5.2 9.1 4 C 9.1 2.8 10 1.9 11.1 1.9 C 12.1 1.9 12.9 2.7 12.9 3.8 C 12.9 3.9 12.9 4.1 12.9 4.2 C 12.9 4.2 9.8 4.2 9.8 4.2 Z M 9.9 3.6 C 9.9 3.6 12.1 3.6 12.1 3.6 C 12.1 3 11.7 2.5 11.1 2.5 C 10.4 2.5 10 3 9.9 3.6 Z M 14.6 2.7 C 14.9 2.2 15.2 1.9 15.7 1.9 C 15.8 1.9 15.9 1.9 16.1 2 C 16.1 2 16 2.7 16 2.7 C 15.8 2.7 15.7 2.6 15.6 2.6 C 15.2 2.6 14.9 2.9 14.6 3.3 C 14.63 3.32 14.6 6 14.6 6 L 13.9 6 L 13.9 2 L 14.6 2 C 14.6 2 14.63 2.66 14.6 2.7 Z M 17.2 4.2 C 17.2 4.9 17.7 5.5 18.4 5.5 C 19 5.5 19.4 5.3 19.6 4.8 C 19.6 4.8 20.2 5.2 20.2 5.2 C 19.8 5.8 19.2 6.1 18.4 6.1 C 17.1 6.1 16.4 5.2 16.4 4 C 16.4 2.8 17.3 1.9 18.4 1.9 C 19.5 1.9 20.2 2.7 20.2 3.8 C 20.2 3.9 20.2 4.1 20.2 4.2 C 20.2 4.2 17.2 4.2 17.2 4.2 Z M 17.2 3.6 C 17.2 3.6 19.5 3.6 19.5 3.6 C 19.4 3 19 2.5 18.4 2.5 C 17.8 2.5 17.4 3 17.2 3.6 Z M 25.6 6 C 25.6 6 25.62 5.58 25.6 5.6 C 25.3 5.9 24.9 6.1 24.4 6.1 C 23.7 6.1 23 5.7 23 4.9 C 23 3.9 23.9 3.6 24.8 3.6 C 25 3.6 25.2 3.6 25.6 3.6 C 25.6 3.6 25.6 3.5 25.6 3.5 C 25.6 2.9 25.3 2.5 24.6 2.5 C 24.2 2.5 23.7 2.7 23.4 2.9 C 23.4 2.9 23.2 2.3 23.2 2.3 C 23.6 2.1 24.2 1.9 24.7 1.9 C 25.9 1.9 26.3 2.5 26.3 3.6 C 26.31 3.57 26.3 6 26.3 6 L 25.6 6 Z M 25.6 4.2 C 25.3 4.1 25.1 4.1 24.9 4.1 C 24.4 4.1 23.7 4.2 23.7 4.8 C 23.7 5.3 24.1 5.5 24.5 5.5 C 24.9 5.5 25.3 5.3 25.6 5 C 25.6 5 25.6 4.2 25.6 4.2 Z M 28.3 2.7 C 28.6 2.2 28.9 1.9 29.4 1.9 C 29.5 1.9 29.6 1.9 29.8 2 C 29.8 2 29.7 2.7 29.7 2.7 C 29.5 2.7 29.4 2.6 29.3 2.6 C 28.9 2.6 28.6 2.9 28.3 3.3 C 28.34 3.32 28.3 6 28.3 6 L 27.6 6 L 27.6 2 L 28.3 2 C 28.3 2 28.34 2.66 28.3 2.7 Z M 30.9 4.2 C 30.9 4.9 31.4 5.5 32.1 5.5 C 32.7 5.5 33.1 5.3 33.3 4.8 C 33.3 4.8 33.9 5.2 33.9 5.2 C 33.5 5.8 32.9 6.1 32.1 6.1 C 30.8 6.1 30.1 5.2 30.1 4 C 30.1 2.8 31 1.9 32.1 1.9 C 33.2 1.9 33.9 2.7 33.9 3.8 C 33.9 3.9 33.9 4.1 33.9 4.2 C 33.9 4.2 30.9 4.2 30.9 4.2 Z M 30.9 3.6 C 30.9 3.6 33.2 3.6 33.2 3.6 C 33.2 3 32.7 2.5 32.1 2.5 C 31.5 2.5 31.1 3 30.9 3.6 Z M 37.7 2.6 C 37.7 2.6 37.71 4.45 37.7 4.4 C 37.7 4.6 37.7 4.6 37.7 4.8 C 37.7 5.2 37.9 5.4 38.3 5.4 C 38.4 5.4 38.6 5.4 38.7 5.3 C 38.7 5.3 38.9 5.9 38.9 5.9 C 38.7 6 38.4 6.1 38.2 6.1 C 37.6 6.1 37.3 5.8 37.1 5.5 C 37 5.2 37 4.9 37 4.6 C 36.98 4.62 37 2.6 37 2.6 L 36.4 2.6 L 36.4 2 L 37 2 L 37 1 L 37.7 1 L 37.7 2 L 38.8 2 L 38.8 2.6 L 37.7 2.6 Z M 43.5 4 C 43.5 5.2 42.6 6.1 41.4 6.1 C 40.2 6.1 39.4 5.2 39.4 4 C 39.4 2.8 40.2 1.9 41.4 1.9 C 42.6 1.9 43.5 2.8 43.5 4 Z M 41.4 2.6 C 40.7 2.6 40.1 3.2 40.1 4 C 40.1 4.8 40.7 5.4 41.4 5.4 C 42.2 5.4 42.7 4.8 42.7 4 C 42.7 3.2 42.2 2.6 41.4 2.6 Z M 48.2 4 C 48.2 5.2 47.3 6.1 46.2 6.1 C 45 6.1 44.1 5.2 44.1 4 C 44.1 2.8 45 1.9 46.2 1.9 C 47.3 1.9 48.2 2.8 48.2 4 Z M 46.2 2.6 C 45.4 2.6 44.9 3.2 44.9 4 C 44.9 4.8 45.4 5.4 46.2 5.4 C 46.9 5.4 47.5 4.8 47.5 4 C 47.5 3.2 46.9 2.6 46.2 2.6 Z M 56.5 6 C 56.5 6 56.54 4 56.5 4 C 56.5 3.6 56.5 3.2 56.4 2.9 C 56.2 2.7 56 2.6 55.7 2.6 C 55.3 2.6 54.9 2.8 54.6 3.2 C 54.6 3.4 54.6 3.7 54.6 3.9 C 54.61 3.92 54.6 6 54.6 6 L 53.9 6 C 53.9 6 53.88 4 53.9 4 C 53.9 3.6 53.9 3.2 53.7 2.9 C 53.5 2.7 53.4 2.6 53 2.6 C 52.6 2.6 52.2 2.9 51.9 3.3 C 51.94 3.31 51.9 6 51.9 6 L 51.2 6 L 51.2 2 L 51.9 2 C 51.9 2 51.94 2.61 51.9 2.6 C 52.2 2.2 52.7 1.9 53.2 1.9 C 53.7 1.9 54.1 2.1 54.3 2.5 C 54.4 2.5 54.4 2.6 54.4 2.6 C 54.8 2.2 55.3 1.9 55.8 1.9 C 56.3 1.9 56.7 2.1 56.9 2.4 C 57.2 2.7 57.3 3.3 57.3 3.9 C 57.27 3.92 57.3 6 57.3 6 L 56.5 6 Z M 60.9 6 C 60.9 6 60.94 5.58 60.9 5.6 C 60.6 5.9 60.3 6.1 59.7 6.1 C 59 6.1 58.3 5.7 58.3 4.9 C 58.3 3.9 59.2 3.6 60.1 3.6 C 60.3 3.6 60.6 3.6 60.9 3.6 C 60.9 3.6 60.9 3.5 60.9 3.5 C 60.9 2.9 60.6 2.5 60 2.5 C 59.5 2.5 59 2.7 58.7 2.9 C 58.7 2.9 58.5 2.3 58.5 2.3 C 58.9 2.1 59.5 1.9 60.1 1.9 C 61.2 1.9 61.6 2.5 61.6 3.6 C 61.64 3.57 61.6 6 61.6 6 L 60.9 6 Z M 60.9 4.2 C 60.6 4.1 60.4 4.1 60.2 4.1 C 59.7 4.1 59 4.2 59 4.8 C 59 5.3 59.4 5.5 59.8 5.5 C 60.2 5.5 60.6 5.3 60.9 5 C 60.9 5 60.9 4.2 60.9 4.2 Z M 63.7 2 C 63.7 2 63.66 2.66 63.7 2.7 C 64 2.2 64.4 1.9 65 1.9 C 65.5 1.9 65.9 2.1 66.1 2.4 C 66.4 2.8 66.5 3.3 66.5 3.9 C 66.49 3.92 66.5 6 66.5 6 L 65.8 6 C 65.8 6 65.76 4 65.8 4 C 65.8 3.6 65.7 3.2 65.6 2.9 C 65.4 2.7 65.2 2.6 64.9 2.6 C 64.4 2.6 64 2.9 63.7 3.3 C 63.66 3.34 63.7 6 63.7 6 L 62.9 6 L 62.9 2 L 63.7 2 Z M 68 2 L 69 5 L 69 5 L 70.1 2 L 70.9 2 L 68.6 7.8 L 68 7.6 L 68.6 5.9 L 67.2 2 L 68 2 Z M 74.3 2.7 C 74.6 2.2 74.9 1.9 75.4 1.9 C 75.5 1.9 75.6 1.9 75.8 2 C 75.8 2 75.7 2.7 75.7 2.7 C 75.5 2.7 75.4 2.6 75.3 2.6 C 74.9 2.6 74.6 2.9 74.3 3.3 C 74.33 3.32 74.3 6 74.3 6 L 73.6 6 L 73.6 2 L 74.3 2 C 74.3 2 74.33 2.66 74.3 2.7 Z M 76.8 4.2 C 76.9 4.9 77.4 5.5 78.1 5.5 C 78.7 5.5 79.1 5.3 79.3 4.8 C 79.3 4.8 79.9 5.2 79.9 5.2 C 79.5 5.8 78.9 6.1 78.1 6.1 C 76.8 6.1 76.1 5.2 76.1 4 C 76.1 2.8 77 1.9 78.1 1.9 C 79.2 1.9 79.9 2.7 79.9 3.8 C 79.9 3.9 79.9 4.1 79.9 4.2 C 79.9 4.2 76.8 4.2 76.8 4.2 Z M 76.9 3.6 C 76.9 3.6 79.2 3.6 79.2 3.6 C 79.1 3 78.7 2.5 78.1 2.5 C 77.5 2.5 77 3 76.9 3.6 Z M 83.3 6 C 83.3 6 83.31 5.58 83.3 5.6 C 83 5.9 82.6 6.1 82.1 6.1 C 81.4 6.1 80.7 5.7 80.7 4.9 C 80.7 3.9 81.6 3.6 82.5 3.6 C 82.7 3.6 82.9 3.6 83.3 3.6 C 83.3 3.6 83.3 3.5 83.3 3.5 C 83.3 2.9 83 2.5 82.3 2.5 C 81.9 2.5 81.4 2.7 81.1 2.9 C 81.1 2.9 80.8 2.3 80.8 2.3 C 81.3 2.1 81.9 1.9 82.4 1.9 C 83.6 1.9 84 2.5 84 3.6 C 84.01 3.57 84 6 84 6 L 83.3 6 Z M 83.3 4.2 C 83 4.1 82.8 4.1 82.6 4.1 C 82.1 4.1 81.4 4.2 81.4 4.8 C 81.4 5.3 81.8 5.5 82.2 5.5 C 82.6 5.5 83 5.3 83.3 5 C 83.3 5 83.3 4.2 83.3 4.2 Z M 87.3 2.8 C 87.1 2.6 86.7 2.5 86.5 2.5 C 86.1 2.5 85.9 2.7 85.9 3 C 85.9 3.3 86.2 3.5 86.6 3.6 C 87.2 3.8 87.8 4.1 87.8 4.8 C 87.8 5.7 87.1 6.1 86.4 6.1 C 85.8 6.1 85.3 5.9 85 5.5 C 85 5.5 85.5 5.1 85.5 5.1 C 85.8 5.3 86 5.5 86.4 5.5 C 86.8 5.5 87.1 5.3 87.1 4.9 C 87.1 4.6 86.7 4.4 86.3 4.3 C 85.8 4 85.2 3.8 85.2 3.1 C 85.2 2.3 85.8 1.9 86.5 1.9 C 86.9 1.9 87.4 2.1 87.7 2.3 C 87.7 2.3 87.3 2.8 87.3 2.8 Z M 92.7 4 C 92.7 5.2 91.8 6.1 90.6 6.1 C 89.4 6.1 88.6 5.2 88.6 4 C 88.6 2.8 89.4 1.9 90.6 1.9 C 91.8 1.9 92.7 2.8 92.7 4 Z M 90.6 2.6 C 89.9 2.6 89.3 3.2 89.3 4 C 89.3 4.8 89.9 5.4 90.6 5.4 C 91.4 5.4 91.9 4.8 91.9 4 C 91.9 3.2 91.4 2.6 90.6 2.6 Z M 94.4 2 C 94.4 2 94.39 2.66 94.4 2.7 C 94.7 2.2 95.2 1.9 95.7 1.9 C 96.3 1.9 96.6 2.1 96.9 2.4 C 97.1 2.8 97.2 3.3 97.2 3.9 C 97.21 3.92 97.2 6 97.2 6 L 96.5 6 C 96.5 6 96.49 4 96.5 4 C 96.5 3.6 96.5 3.2 96.3 2.9 C 96.2 2.7 95.9 2.6 95.6 2.6 C 95.1 2.6 94.7 2.9 94.4 3.3 C 94.39 3.34 94.4 6 94.4 6 L 93.7 6 L 93.7 2 L 94.4 2 Z M 100.5 2.8 C 100.3 2.6 99.9 2.5 99.7 2.5 C 99.3 2.5 99.1 2.7 99.1 3 C 99.1 3.3 99.5 3.5 99.8 3.6 C 100.4 3.8 101 4.1 101 4.8 C 101 5.7 100.3 6.1 99.6 6.1 C 99 6.1 98.5 5.9 98.2 5.5 C 98.2 5.5 98.7 5.1 98.7 5.1 C 99 5.3 99.2 5.5 99.6 5.5 C 100 5.5 100.3 5.3 100.3 4.9 C 100.3 4.6 99.9 4.4 99.5 4.3 C 99 4 98.4 3.8 98.4 3.1 C 98.4 2.3 99 1.9 99.7 1.9 C 100.1 1.9 100.6 2.1 100.9 2.3 C 100.9 2.3 100.5 2.8 100.5 2.8 Z M 104.9 2.6 C 104.9 2.6 104.89 4.45 104.9 4.4 C 104.9 4.6 104.9 4.6 104.9 4.8 C 104.9 5.2 105.1 5.4 105.5 5.4 C 105.6 5.4 105.8 5.4 105.9 5.3 C 105.9 5.3 106.1 5.9 106.1 5.9 C 105.9 6 105.6 6.1 105.4 6.1 C 104.8 6.1 104.5 5.8 104.3 5.5 C 104.2 5.2 104.2 4.9 104.2 4.6 C 104.16 4.62 104.2 2.6 104.2 2.6 L 103.6 2.6 L 103.6 2 L 104.2 2 L 104.2 1 L 104.9 1 L 104.9 2 L 106 2 L 106 2.6 L 104.9 2.6 Z M 110.6 4 C 110.6 5.2 109.8 6.1 108.6 6.1 C 107.4 6.1 106.6 5.2 106.6 4 C 106.6 2.8 107.4 1.9 108.6 1.9 C 109.8 1.9 110.6 2.8 110.6 4 Z M 108.6 2.6 C 107.8 2.6 107.3 3.2 107.3 4 C 107.3 4.8 107.8 5.4 108.6 5.4 C 109.3 5.4 109.9 4.8 109.9 4 C 109.9 3.2 109.3 2.6 108.6 2.6 Z " stroke="none" fill="#fff"/>  </g></svg>