<?xml version="1.0" standalone="no"?><!DOCTYPE svg PUBLIC "-//W3C//DTD SVG 1.1//EN" "http://www.w3.org/Graphics/SVG/1.1/DTD/svg11.dtd"><svg xmlns="http://www.w3.org/2000/svg" version="1.1" width="51px" height="13.8px" viewBox="0 -3 51 13.8" style="top:-3px">  <desc>A1000422</desc>  <defs/>  <g id="Polygon42749">    <path d="M 13 5.2 L 12.6 4.2 L 10.5 4.2 L 10.1 5.2 L 9.4 5.2 L 11.3 0.4 L 11.9 0.4 L 13.8 5.2 L 13 5.2 Z M 10.7 3.6 L 12.4 3.6 L 11.6 1.4 L 11.5 1.4 L 10.7 3.6 Z M 15.3 5.2 C 15.3 5.2 15.29 1.4 15.3 1.4 C 15.1 1.5 14.8 1.6 14.6 1.7 C 14.6 1.7 14.6 1.1 14.6 1.1 C 14.9 1 15.2 0.8 15.5 0.6 C 15.52 0.6 15.9 0.6 15.9 0.6 L 15.9 5.2 L 15.3 5.2 Z M 20.5 2.9 C 20.5 4.4 19.9 5.3 18.9 5.3 C 17.8 5.3 17.2 4.4 17.2 2.9 C 17.2 1.4 17.8 0.5 18.9 0.5 C 19.9 0.5 20.5 1.4 20.5 2.9 Z M 17.9 2.9 C 17.9 4.1 18.3 4.7 18.9 4.7 C 19.5 4.7 19.9 4.1 19.9 2.9 C 19.9 1.7 19.5 1.1 18.9 1.1 C 18.3 1.1 17.9 1.7 17.9 2.9 Z M 24.8 2.9 C 24.8 4.4 24.2 5.3 23.2 5.3 C 22.1 5.3 21.5 4.4 21.5 2.9 C 21.5 1.4 22.1 0.5 23.2 0.5 C 24.2 0.5 24.8 1.4 24.8 2.9 Z M 22.2 2.9 C 22.2 4.1 22.6 4.7 23.2 4.7 C 23.8 4.7 24.2 4.1 24.2 2.9 C 24.2 1.7 23.8 1.1 23.2 1.1 C 22.6 1.1 22.2 1.7 22.2 2.9 Z M 29.1 2.9 C 29.1 4.4 28.5 5.3 27.5 5.3 C 26.4 5.3 25.9 4.4 25.9 2.9 C 25.9 1.4 26.4 0.5 27.5 0.5 C 28.5 0.5 29.1 1.4 29.1 2.9 Z M 26.5 2.9 C 26.5 4.1 26.9 4.7 27.5 4.7 C 28.1 4.7 28.5 4.1 28.5 2.9 C 28.5 1.7 28.1 1.1 27.5 1.1 C 26.9 1.1 26.5 1.7 26.5 2.9 Z M 32.1 5.2 L 32.1 4.1 L 30 4.1 C 30 4.1 30.03 3.37 30 3.4 C 30.6 2.6 31.5 1.5 32.1 0.6 C 32.09 0.6 32.8 0.6 32.8 0.6 L 32.8 3.5 L 33.5 3.5 L 33.5 4.1 L 32.8 4.1 L 32.8 5.2 L 32.1 5.2 Z M 32.1 3.5 C 32.1 3.5 32.13 1.53 32.1 1.5 C 31.7 2.2 31.1 3 30.7 3.5 C 30.73 3.49 32.1 3.5 32.1 3.5 Z M 34.4 5.2 C 34.4 5.2 34.37 4.66 34.4 4.7 C 34.9 4.1 35.6 3.4 36 2.7 C 36.2 2.5 36.4 2.1 36.4 1.8 C 36.4 1.3 36 1.1 35.7 1.1 C 35.3 1.1 34.9 1.4 34.9 1.8 C 34.9 1.8 34.3 1.7 34.3 1.7 C 34.3 1 35 0.5 35.7 0.5 C 36.4 0.5 37.1 1 37.1 1.8 C 37.1 2.2 36.9 2.7 36.6 3 C 36.2 3.6 35.7 4.2 35.2 4.7 C 35.25 4.66 37.3 4.7 37.3 4.7 L 37.3 5.2 L 34.4 5.2 Z M 38.3 5.2 C 38.3 5.2 38.28 4.66 38.3 4.7 C 38.8 4.1 39.5 3.4 39.9 2.7 C 40.1 2.5 40.3 2.1 40.3 1.8 C 40.3 1.3 40 1.1 39.6 1.1 C 39.2 1.1 38.9 1.4 38.8 1.8 C 38.8 1.8 38.2 1.7 38.2 1.7 C 38.3 1 38.9 0.5 39.6 0.5 C 40.3 0.5 41 1 41 1.8 C 41 2.2 40.8 2.7 40.5 3 C 40.1 3.6 39.6 4.2 39.2 4.7 C 39.16 4.66 41.2 4.7 41.2 4.7 L 41.2 5.2 L 38.3 5.2 Z " stroke="none" fill="#535a5d"/>  </g></svg>