<?xml version="1.0" standalone="no"?><!DOCTYPE svg PUBLIC "-//W3C//DTD SVG 1.1//EN" "http://www.w3.org/Graphics/SVG/1.1/DTD/svg11.dtd"><svg xmlns="http://www.w3.org/2000/svg" version="1.1" width="123.5px" height="65.3px" viewBox="0 -1 123.5 65.3" style="top:-1px">  <desc>Where pattern and simplicity converge</desc>  <defs/>  <g id="Polygon39420">    <path d="M 5.6 54.5 C 6.3 54.5 7 54.3 7.6 53.8 C 7.6 53.8 8.4 54.8 8.4 54.8 C 7.6 55.4 6.6 55.7 5.6 55.7 C 2.9 55.7 0.7 53.9 0.7 51 C 0.7 48.3 2.9 46.3 5.6 46.3 C 6.6 46.3 7.4 46.6 8.2 47.1 C 8.2 47.1 7.5 48.1 7.5 48.1 C 6.9 47.8 6.3 47.6 5.6 47.6 C 3.7 47.6 2.2 49 2.2 51 C 2.2 53.1 3.6 54.5 5.6 54.5 Z M 14.3 47.6 C 12.4 47.6 11 49.1 11 51 C 11 53 12.4 54.5 14.3 54.5 C 16.1 54.5 17.5 53 17.5 51 C 17.5 49.1 16.1 47.6 14.3 47.6 Z M 14.3 55.7 C 11.6 55.7 9.6 53.6 9.6 51 C 9.6 48.4 11.6 46.3 14.3 46.3 C 16.9 46.3 19 48.4 19 51 C 19 53.6 16.9 55.7 14.3 55.7 Z M 27.7 55.6 L 22.9 49 L 22.9 55.6 L 21.6 55.6 L 21.6 46.5 L 22.8 46.5 L 27.6 53 L 27.6 46.5 L 29 46.5 L 29 55.6 L 27.7 55.6 Z M 35.5 55.6 L 34.3 55.6 L 30.8 46.5 L 32.4 46.5 L 34.9 53.4 L 35 53.4 L 37.5 46.5 L 39 46.5 L 35.5 55.6 Z M 41 55.6 L 41 46.5 L 46.6 46.5 L 46.6 47.7 L 42.4 47.7 L 42.4 50.3 L 46.6 50.3 L 46.6 51.5 L 42.4 51.5 L 42.4 54.4 L 46.6 54.4 L 46.6 55.6 L 41 55.6 Z M 51.9 46.5 C 53.4 46.5 55.1 47.2 55.1 49.1 C 55.1 50.6 54 51.4 52.9 51.7 C 52.94 51.67 55.8 55.6 55.8 55.6 L 54.1 55.6 L 51.4 51.8 L 50.6 51.8 L 50.6 55.6 L 49.2 55.6 L 49.2 46.5 C 49.2 46.5 51.93 46.47 51.9 46.5 Z M 50.6 50.6 C 50.6 50.6 51.62 50.56 51.6 50.6 C 52.8 50.6 53.6 50.1 53.6 49.2 C 53.6 48.3 52.9 47.7 51.9 47.7 C 51.87 47.69 50.6 47.7 50.6 47.7 L 50.6 50.6 Z M 62.2 51.7 L 62.2 50.5 L 65.9 50.5 C 65.9 50.5 65.91 53.96 65.9 54 C 65 55.1 63.6 55.7 62.1 55.7 C 59.3 55.7 57.2 53.8 57.2 51 C 57.2 48.3 59.4 46.3 62.1 46.3 C 63.6 46.3 64.8 46.9 65.7 48 C 65.7 48 64.7 48.8 64.7 48.8 C 64.1 48.1 63.2 47.6 62.1 47.6 C 60.2 47.6 58.7 49 58.7 51 C 58.7 53.1 60.1 54.5 62.1 54.5 C 63 54.5 63.9 54.2 64.5 53.6 C 64.52 53.56 64.5 51.7 64.5 51.7 L 62.2 51.7 Z M 68.7 55.6 L 68.7 46.5 L 74.3 46.5 L 74.3 47.7 L 70.1 47.7 L 70.1 50.3 L 74.3 50.3 L 74.3 51.5 L 70.1 51.5 L 70.1 54.4 L 74.3 54.4 L 74.3 55.6 L 68.7 55.6 Z " stroke="none" fill="#fff"/>  </g>  <g id="Polygon39419">    <path d="M 6.1 39.7 L 2.4 39.7 L 1.7 41.6 L 0.2 41.6 L 3.8 32.5 L 4.9 32.5 L 8.4 41.6 L 6.8 41.6 L 6.1 39.7 Z M 2.8 38.5 L 5.7 38.5 L 4.3 34.6 L 4.3 34.6 L 2.8 38.5 Z M 16.7 41.6 L 11.9 35 L 11.9 41.6 L 10.5 41.6 L 10.5 32.5 L 11.7 32.5 L 16.5 39 L 16.5 32.5 L 17.9 32.5 L 17.9 41.6 L 16.7 41.6 Z M 20.9 32.5 C 20.9 32.5 23.44 32.47 23.4 32.5 C 25.8 32.5 28.4 33.7 28.4 37 C 28.4 40.4 25.8 41.6 23.3 41.6 C 23.32 41.57 20.9 41.6 20.9 41.6 L 20.9 32.5 Z M 23.2 33.7 C 23.22 33.69 22.3 33.7 22.3 33.7 L 22.3 40.4 C 22.3 40.4 22.71 40.35 22.7 40.4 C 25.2 40.4 26.9 39.5 26.9 37.1 C 26.9 34.9 25.5 33.7 23.2 33.7 Z M 37.7 33.6 C 36.8 33.6 36.2 34 36.2 34.7 C 36.2 35.5 37 35.8 38 36.1 C 39.3 36.5 40.8 37.1 40.8 38.9 C 40.8 40.9 39 41.7 37.5 41.7 C 36.2 41.7 35.2 41.3 34.2 40.3 C 34.2 40.3 35.2 39.4 35.2 39.4 C 36 40.2 36.6 40.5 37.6 40.5 C 38.4 40.5 39.3 40.1 39.3 39 C 39.3 38.1 38.4 37.7 37.3 37.4 C 36.1 36.9 34.8 36.3 34.8 34.8 C 34.8 33.1 36.1 32.3 37.6 32.3 C 38.7 32.3 39.6 32.6 40.5 33.3 C 40.5 33.3 39.6 34.3 39.6 34.3 C 39.2 33.9 38.4 33.6 37.7 33.6 Z M 43.3 41.6 L 43.3 32.5 L 44.7 32.5 L 44.7 41.6 L 43.3 41.6 Z M 53 41.6 L 52 41.6 L 49.1 34.1 L 49.1 41.6 L 47.7 41.6 L 47.7 32.5 L 49.8 32.5 L 52.5 39.4 L 55.3 32.5 L 57.4 32.5 L 57.4 41.6 L 56 41.6 L 56 34.1 L 53 41.6 Z M 63.2 32.5 C 64.7 32.5 66.4 33.2 66.4 35.2 C 66.4 37.2 64.7 38 63.2 38 C 63.18 37.98 61.8 38 61.8 38 L 61.8 41.6 L 60.4 41.6 L 60.4 32.5 C 60.4 32.5 63.18 32.47 63.2 32.5 Z M 61.8 36.8 C 61.8 36.8 62.87 36.76 62.9 36.8 C 64.1 36.8 65 36.4 65 35.3 C 65 34.3 64.2 33.7 63.1 33.7 C 63.11 33.69 61.8 33.7 61.8 33.7 L 61.8 36.8 Z M 68.5 41.6 L 68.5 32.5 L 69.9 32.5 L 69.9 40.4 L 73.8 40.4 L 73.8 41.6 L 68.5 41.6 Z M 75.7 41.6 L 75.7 32.5 L 77.1 32.5 L 77.1 41.6 L 75.7 41.6 Z M 84.6 40.5 C 85.3 40.5 85.9 40.3 86.6 39.8 C 86.6 39.8 87.3 40.8 87.3 40.8 C 86.5 41.4 85.6 41.7 84.5 41.7 C 81.8 41.7 79.7 39.9 79.7 37 C 79.7 34.3 81.9 32.3 84.6 32.3 C 85.5 32.3 86.3 32.6 87.1 33.1 C 87.1 33.1 86.4 34.1 86.4 34.1 C 85.9 33.8 85.2 33.6 84.6 33.6 C 82.6 33.6 81.2 35 81.2 37 C 81.2 39.1 82.5 40.5 84.6 40.5 Z M 89.5 41.6 L 89.5 32.5 L 90.9 32.5 L 90.9 41.6 L 89.5 41.6 Z M 96.6 33.7 L 96.6 41.6 L 95.2 41.6 L 95.2 33.7 L 93 33.7 L 93 32.5 L 98.9 32.5 L 98.9 33.7 L 96.6 33.7 Z M 103.4 41.6 L 103.4 37.6 L 100.5 32.5 L 102.2 32.5 L 104.1 36.2 L 104.2 36.2 L 106.1 32.5 L 107.7 32.5 L 104.8 37.7 L 104.8 41.6 L 103.4 41.6 Z " stroke="none" fill="#fff"/>  </g>  <g id="Polygon39418">    <path d="M 8.3 25.1 L 8.3 25.1 L 10.1 18.5 L 11.6 18.5 L 9 27.6 L 7.6 27.6 L 5.9 20.9 L 5.8 20.9 L 3.9 27.6 L 2.6 27.6 L 0.1 18.5 L 1.6 18.5 L 3.4 25.1 L 3.4 25.1 L 5.2 18.5 L 6.5 18.5 L 8.3 25.1 Z M 19.6 27.6 L 19.6 23.5 L 15.1 23.5 L 15.1 27.6 L 13.7 27.6 L 13.7 18.5 L 15.1 18.5 L 15.1 22.3 L 19.6 22.3 L 19.6 18.5 L 21 18.5 L 21 27.6 L 19.6 27.6 Z M 24.1 27.6 L 24.1 18.5 L 29.6 18.5 L 29.6 19.7 L 25.4 19.7 L 25.4 22.3 L 29.6 22.3 L 29.6 23.5 L 25.4 23.5 L 25.4 26.4 L 29.6 26.4 L 29.6 27.6 L 24.1 27.6 Z M 35 18.5 C 36.4 18.5 38.1 19.2 38.1 21.1 C 38.1 22.6 37.1 23.4 36 23.7 C 35.98 23.67 38.8 27.6 38.8 27.6 L 37.1 27.6 L 34.4 23.8 L 33.6 23.8 L 33.6 27.6 L 32.2 27.6 L 32.2 18.5 C 32.2 18.5 34.98 18.47 35 18.5 Z M 33.6 22.6 C 33.6 22.6 34.67 22.56 34.7 22.6 C 35.8 22.6 36.7 22.1 36.7 21.2 C 36.7 20.3 36 19.7 34.9 19.7 C 34.92 19.69 33.6 19.7 33.6 19.7 L 33.6 22.6 Z M 40.9 27.6 L 40.9 18.5 L 46.5 18.5 L 46.5 19.7 L 42.3 19.7 L 42.3 22.3 L 46.5 22.3 L 46.5 23.5 L 42.3 23.5 L 42.3 26.4 L 46.5 26.4 L 46.5 27.6 L 40.9 27.6 Z M 55.8 18.5 C 57.3 18.5 59 19.2 59 21.2 C 59 23.2 57.3 24 55.8 24 C 55.77 23.98 54.4 24 54.4 24 L 54.4 27.6 L 53 27.6 L 53 18.5 C 53 18.5 55.77 18.47 55.8 18.5 Z M 54.4 22.8 C 54.4 22.8 55.46 22.76 55.5 22.8 C 56.7 22.8 57.6 22.4 57.6 21.3 C 57.6 20.3 56.8 19.7 55.7 19.7 C 55.7 19.69 54.4 19.7 54.4 19.7 L 54.4 22.8 Z M 65.6 25.7 L 61.9 25.7 L 61.2 27.6 L 59.7 27.6 L 63.2 18.5 L 64.4 18.5 L 67.9 27.6 L 66.3 27.6 L 65.6 25.7 Z M 62.3 24.5 L 65.2 24.5 L 63.8 20.6 L 63.7 20.6 L 62.3 24.5 Z M 72.1 19.7 L 72.1 27.6 L 70.7 27.6 L 70.7 19.7 L 68.4 19.7 L 68.4 18.5 L 74.3 18.5 L 74.3 19.7 L 72.1 19.7 Z M 79.5 19.7 L 79.5 27.6 L 78.1 27.6 L 78.1 19.7 L 75.8 19.7 L 75.8 18.5 L 81.7 18.5 L 81.7 19.7 L 79.5 19.7 Z M 83.8 27.6 L 83.8 18.5 L 89.3 18.5 L 89.3 19.7 L 85.2 19.7 L 85.2 22.3 L 89.3 22.3 L 89.3 23.5 L 85.2 23.5 L 85.2 26.4 L 89.3 26.4 L 89.3 27.6 L 83.8 27.6 Z M 94.7 18.5 C 96.1 18.5 97.9 19.2 97.9 21.1 C 97.9 22.6 96.8 23.4 95.7 23.7 C 95.73 23.67 98.6 27.6 98.6 27.6 L 96.8 27.6 L 94.2 23.8 L 93.4 23.8 L 93.4 27.6 L 92 27.6 L 92 18.5 C 92 18.5 94.73 18.47 94.7 18.5 Z M 93.4 22.6 C 93.4 22.6 94.42 22.56 94.4 22.6 C 95.6 22.6 96.4 22.1 96.4 21.2 C 96.4 20.3 95.7 19.7 94.7 19.7 C 94.66 19.69 93.4 19.7 93.4 19.7 L 93.4 22.6 Z M 106.9 27.6 L 102.1 21 L 102.1 27.6 L 100.7 27.6 L 100.7 18.5 L 101.9 18.5 L 106.7 25 L 106.7 18.5 L 108.1 18.5 L 108.1 27.6 L 106.9 27.6 Z " stroke="none" fill="#fff"/>  </g></svg>