<?xml version="1.0" standalone="no"?><!DOCTYPE svg PUBLIC "-//W3C//DTD SVG 1.1//EN" "http://www.w3.org/Graphics/SVG/1.1/DTD/svg11.dtd"><svg xmlns="http://www.w3.org/2000/svg" version="1.1" width="150px" height="23.8px" viewBox="0 -4 150 23.8" style="top:-4px">  <desc>Briarson A3000247</desc>  <defs/>  <g id="Polygon40348">    <path d="M 62.1 15 L 61.7 14 L 59.6 14 L 59.2 15 L 58.5 15 L 60.4 10.1 L 61 10.1 L 62.9 15 L 62.1 15 Z M 59.8 13.4 L 61.5 13.4 L 60.7 11.1 L 60.6 11.1 L 59.8 13.4 Z M 64.4 12.3 C 64.7 12.3 64.9 12.3 65 12.2 C 65.4 12.1 65.7 11.9 65.7 11.5 C 65.7 11.1 65.4 10.9 64.9 10.9 C 64.6 10.9 64.2 11 64.1 11.4 C 64.1 11.4 63.6 11.1 63.6 11.1 C 63.8 10.6 64.3 10.3 64.9 10.3 C 65.8 10.3 66.3 10.8 66.3 11.5 C 66.3 11.9 66.1 12.3 65.8 12.5 C 66.2 12.7 66.6 13.1 66.6 13.6 C 66.6 14.6 65.9 15.1 65 15.1 C 64.4 15.1 63.8 14.8 63.6 14.3 C 63.6 14.3 64.1 14 64.1 14 C 64.3 14.4 64.6 14.5 65 14.5 C 65.5 14.5 65.9 14.2 65.9 13.7 C 65.9 13.2 65.5 12.9 64.9 12.9 C 64.8 12.9 64.6 12.9 64.4 13 C 64.4 13 64.4 12.3 64.4 12.3 Z M 70.9 12.7 C 70.9 14.2 70.3 15.1 69.3 15.1 C 68.2 15.1 67.7 14.2 67.7 12.7 C 67.7 11.2 68.2 10.3 69.3 10.3 C 70.3 10.3 70.9 11.2 70.9 12.7 Z M 68.3 12.7 C 68.3 13.9 68.7 14.5 69.3 14.5 C 69.9 14.5 70.3 13.9 70.3 12.7 C 70.3 11.5 69.9 10.9 69.3 10.9 C 68.7 10.9 68.3 11.5 68.3 12.7 Z M 75.2 12.7 C 75.2 14.2 74.7 15.1 73.6 15.1 C 72.6 15.1 72 14.2 72 12.7 C 72 11.2 72.6 10.3 73.6 10.3 C 74.7 10.3 75.2 11.2 75.2 12.7 Z M 72.6 12.7 C 72.6 13.9 73 14.5 73.6 14.5 C 74.2 14.5 74.6 13.9 74.6 12.7 C 74.6 11.5 74.2 10.9 73.6 10.9 C 73 10.9 72.6 11.5 72.6 12.7 Z M 79.6 12.7 C 79.6 14.2 79 15.1 77.9 15.1 C 76.9 15.1 76.3 14.2 76.3 12.7 C 76.3 11.2 76.9 10.3 77.9 10.3 C 79 10.3 79.6 11.2 79.6 12.7 Z M 76.9 12.7 C 76.9 13.9 77.3 14.5 77.9 14.5 C 78.5 14.5 78.9 13.9 78.9 12.7 C 78.9 11.5 78.5 10.9 77.9 10.9 C 77.3 10.9 76.9 11.5 76.9 12.7 Z M 80.6 15 C 80.6 15 80.59 14.41 80.6 14.4 C 81.1 13.8 81.8 13.1 82.2 12.5 C 82.4 12.2 82.7 11.8 82.7 11.5 C 82.7 11.1 82.3 10.9 81.9 10.9 C 81.5 10.9 81.2 11.1 81.2 11.6 C 81.2 11.6 80.5 11.4 80.5 11.4 C 80.6 10.7 81.3 10.3 81.9 10.3 C 82.6 10.3 83.3 10.8 83.3 11.5 C 83.3 11.9 83.1 12.4 82.8 12.8 C 82.4 13.3 82 13.9 81.5 14.4 C 81.47 14.41 83.5 14.4 83.5 14.4 L 83.5 15 L 80.6 15 Z M 86.4 15 L 86.4 13.8 L 84.3 13.8 C 84.3 13.8 84.28 13.12 84.3 13.1 C 84.9 12.4 85.7 11.2 86.3 10.4 C 86.34 10.35 87 10.4 87 10.4 L 87 13.2 L 87.7 13.2 L 87.7 13.8 L 87 13.8 L 87 15 L 86.4 15 Z M 86.4 13.2 C 86.4 13.2 86.38 11.28 86.4 11.3 C 85.9 11.9 85.3 12.8 85 13.2 C 84.98 13.24 86.4 13.2 86.4 13.2 Z M 91.2 10.8 C 90.7 12 89.8 13.9 89.3 15.2 C 89.3 15.2 88.7 14.9 88.7 14.9 C 89.3 13.4 90.1 11.8 90.5 11 C 90.51 10.95 88.3 11 88.3 11 L 88.3 10.4 L 91.2 10.4 C 91.2 10.4 91.23 10.83 91.2 10.8 Z " stroke="none" fill="#535a5d"/>  </g>  <g id="Polygon40347">    <path d="M 54 0.4 C 54 0.4 55.46 0.4 55.5 0.4 C 56 0.4 56.6 0.5 57 0.8 C 57.4 1 57.6 1.5 57.6 2 C 57.6 2.4 57.4 2.8 56.8 3.1 C 57.5 3.3 57.8 3.7 57.8 4.4 C 57.8 5 57.5 5.5 56.9 5.8 C 56.4 6 55.9 6 55.4 6 C 55.39 6 54 6 54 6 L 54 0.4 Z M 55 5.2 C 55 5.2 55.37 5.15 55.4 5.2 C 55.8 5.2 56.1 5.1 56.4 5 C 56.6 4.9 56.8 4.7 56.8 4.4 C 56.8 3.9 56.4 3.5 55.8 3.5 C 55.79 3.54 55 3.5 55 3.5 L 55 5.2 Z M 55 2.7 C 55 2.7 55.44 2.74 55.4 2.7 C 56.2 2.7 56.6 2.5 56.6 2 C 56.6 1.7 56.5 1.5 56.3 1.4 C 56.1 1.3 55.7 1.2 55.3 1.2 C 55.32 1.25 55 1.2 55 1.2 L 55 2.7 Z M 61.1 0.4 C 62 0.4 63.1 0.9 63.1 2 C 63.1 3 62.5 3.4 61.8 3.6 C 61.81 3.62 63.5 6 63.5 6 L 62.3 6 L 60.7 3.7 L 60.4 3.7 L 60.4 6 L 59.4 6 L 59.4 0.4 C 59.4 0.4 61.1 0.4 61.1 0.4 Z M 60.9 2.9 C 61.6 2.9 62 2.6 62 2.1 C 62 1.6 61.7 1.2 61.1 1.2 C 61.08 1.25 60.4 1.2 60.4 1.2 L 60.4 2.9 C 60.4 2.9 60.92 2.86 60.9 2.9 Z M 64.8 6 L 64.8 0.4 L 65.8 0.4 L 65.8 6 L 64.8 6 Z M 69.2 0.4 L 70.1 0.4 L 72.2 6 L 71 6 L 70.6 4.9 L 68.5 4.9 L 68.1 6 L 67 6 L 69.2 0.4 Z M 68.8 4.1 L 70.3 4.1 L 69.6 1.9 L 69.6 1.9 L 68.8 4.1 Z M 75.1 0.4 C 76 0.4 77.1 0.9 77.1 2 C 77.1 3 76.5 3.4 75.8 3.6 C 75.84 3.62 77.6 6 77.6 6 L 76.3 6 L 74.7 3.7 L 74.4 3.7 L 74.4 6 L 73.4 6 L 73.4 0.4 C 73.4 0.4 75.12 0.4 75.1 0.4 Z M 74.9 2.9 C 75.6 2.9 76.1 2.6 76.1 2.1 C 76.1 1.6 75.7 1.2 75.1 1.2 C 75.1 1.25 74.4 1.2 74.4 1.2 L 74.4 2.9 C 74.4 2.9 74.94 2.86 74.9 2.9 Z M 80.7 1.2 C 80.2 1.2 79.8 1.4 79.8 1.8 C 79.8 2.3 80.4 2.4 80.8 2.6 C 81.7 2.9 82.6 3.2 82.6 4.4 C 82.6 5.6 81.5 6.1 80.5 6.1 C 79.7 6.1 79 5.8 78.4 5.2 C 78.4 5.2 79.1 4.6 79.1 4.6 C 79.6 5 80 5.2 80.5 5.2 C 81 5.2 81.5 5 81.5 4.4 C 81.5 3.9 81 3.7 80.4 3.5 C 79.6 3.2 78.8 2.8 78.8 1.9 C 78.8 0.8 79.7 0.3 80.6 0.3 C 81.3 0.3 81.9 0.5 82.4 0.9 C 82.4 0.9 81.8 1.6 81.8 1.6 C 81.5 1.4 81.1 1.2 80.7 1.2 Z M 86.6 1.2 C 85.6 1.2 84.8 2.1 84.8 3.2 C 84.8 4.3 85.6 5.2 86.6 5.2 C 87.7 5.2 88.5 4.3 88.5 3.2 C 88.5 2.1 87.7 1.2 86.6 1.2 Z M 86.6 6.1 C 85 6.1 83.7 4.8 83.7 3.2 C 83.7 1.6 85 0.3 86.6 0.3 C 88.3 0.3 89.6 1.6 89.6 3.2 C 89.6 4.8 88.3 6.1 86.6 6.1 Z M 94.8 6 L 92.1 2.2 L 92.1 6 L 91.1 6 L 91.1 0.4 L 91.9 0.4 L 94.7 4.2 L 94.7 0.4 L 95.7 0.4 L 95.7 6 L 94.8 6 Z " stroke="none" fill="#535a5d"/>  </g></svg>