<?xml version="1.0" standalone="no"?><!DOCTYPE svg PUBLIC "-//W3C//DTD SVG 1.1//EN" "http://www.w3.org/Graphics/SVG/1.1/DTD/svg11.dtd"><svg xmlns="http://www.w3.org/2000/svg" version="1.1" width="123.5px" height="65.3px" viewBox="0 -1 123.5 65.3" style="top:-1px">  <desc>Mid-century inspired classics</desc>  <defs/>  <g id="Polygon39265">    <path d="M 5.6 54.5 C 6.3 54.5 7 54.3 7.6 53.8 C 7.6 53.8 8.4 54.8 8.4 54.8 C 7.6 55.4 6.6 55.7 5.6 55.7 C 2.9 55.7 0.7 53.9 0.7 51 C 0.7 48.3 2.9 46.3 5.6 46.3 C 6.6 46.3 7.4 46.6 8.2 47.1 C 8.2 47.1 7.5 48.1 7.5 48.1 C 6.9 47.8 6.3 47.6 5.6 47.6 C 3.7 47.6 2.2 49 2.2 51 C 2.2 53.1 3.6 54.5 5.6 54.5 Z M 10.6 55.6 L 10.6 46.5 L 12 46.5 L 12 54.4 L 15.9 54.4 L 15.9 55.6 L 10.6 55.6 Z M 23.1 53.7 L 19.4 53.7 L 18.7 55.6 L 17.2 55.6 L 20.7 46.5 L 21.9 46.5 L 25.4 55.6 L 23.8 55.6 L 23.1 53.7 Z M 19.8 52.5 L 22.7 52.5 L 21.3 48.6 L 21.3 48.6 L 19.8 52.5 Z M 30.5 47.6 C 29.6 47.6 28.9 48 28.9 48.7 C 28.9 49.5 29.8 49.8 30.7 50.1 C 32 50.5 33.5 51.1 33.5 52.9 C 33.5 54.9 31.7 55.7 30.3 55.7 C 28.9 55.7 27.9 55.3 26.9 54.3 C 26.9 54.3 27.9 53.4 27.9 53.4 C 28.7 54.2 29.4 54.5 30.3 54.5 C 31.2 54.5 32 54.1 32 53 C 32 52.1 31.1 51.7 30.1 51.4 C 28.8 50.9 27.5 50.3 27.5 48.8 C 27.5 47.1 28.8 46.3 30.3 46.3 C 31.4 46.3 32.4 46.6 33.2 47.3 C 33.2 47.3 32.4 48.3 32.4 48.3 C 31.9 47.9 31.2 47.6 30.5 47.6 Z M 39 47.6 C 38.1 47.6 37.5 48 37.5 48.7 C 37.5 49.5 38.3 49.8 39.3 50.1 C 40.6 50.5 42.1 51.1 42.1 52.9 C 42.1 54.9 40.3 55.7 38.8 55.7 C 37.5 55.7 36.5 55.3 35.5 54.3 C 35.5 54.3 36.5 53.4 36.5 53.4 C 37.3 54.2 37.9 54.5 38.9 54.5 C 39.7 54.5 40.6 54.1 40.6 53 C 40.6 52.1 39.7 51.7 38.6 51.4 C 37.4 50.9 36.1 50.3 36.1 48.8 C 36.1 47.1 37.4 46.3 38.9 46.3 C 40 46.3 40.9 46.6 41.8 47.3 C 41.8 47.3 40.9 48.3 40.9 48.3 C 40.5 47.9 39.7 47.6 39 47.6 Z M 44.6 55.6 L 44.6 46.5 L 46 46.5 L 46 55.6 L 44.6 55.6 Z M 53.4 54.5 C 54.1 54.5 54.8 54.3 55.4 53.8 C 55.4 53.8 56.2 54.8 56.2 54.8 C 55.4 55.4 54.4 55.7 53.4 55.7 C 50.7 55.7 48.5 53.9 48.5 51 C 48.5 48.3 50.7 46.3 53.4 46.3 C 54.3 46.3 55.2 46.6 55.9 47.1 C 55.9 47.1 55.3 48.1 55.3 48.1 C 54.7 47.8 54.1 47.6 53.4 47.6 C 51.4 47.6 50 49 50 51 C 50 53.1 51.4 54.5 53.4 54.5 Z M 61.3 47.6 C 60.4 47.6 59.8 48 59.8 48.7 C 59.8 49.5 60.6 49.8 61.5 50.1 C 62.8 50.5 64.3 51.1 64.3 52.9 C 64.3 54.9 62.5 55.7 61.1 55.7 C 59.7 55.7 58.7 55.3 57.8 54.3 C 57.8 54.3 58.7 53.4 58.7 53.4 C 59.6 54.2 60.2 54.5 61.1 54.5 C 62 54.5 62.9 54.1 62.9 53 C 62.9 52.1 61.9 51.7 60.9 51.4 C 59.7 50.9 58.4 50.3 58.4 48.8 C 58.4 47.1 59.7 46.3 61.2 46.3 C 62.3 46.3 63.2 46.6 64 47.3 C 64 47.3 63.2 48.3 63.2 48.3 C 62.7 47.9 62 47.6 61.3 47.6 Z " stroke="none" fill="#ffffff"/>  </g>  <g id="Polygon39264">    <path d="M 1.2 41.6 L 1.2 32.5 L 2.6 32.5 L 2.6 41.6 L 1.2 41.6 Z M 11.8 41.6 L 7 35 L 7 41.6 L 5.6 41.6 L 5.6 32.5 L 6.8 32.5 L 11.6 39 L 11.6 32.5 L 13 32.5 L 13 41.6 L 11.8 41.6 Z M 18.9 33.6 C 18 33.6 17.4 34 17.4 34.7 C 17.4 35.5 18.3 35.8 19.2 36.1 C 20.5 36.5 22 37.1 22 38.9 C 22 40.9 20.2 41.7 18.7 41.7 C 17.4 41.7 16.4 41.3 15.4 40.3 C 15.4 40.3 16.4 39.4 16.4 39.4 C 17.2 40.2 17.8 40.5 18.8 40.5 C 19.6 40.5 20.5 40.1 20.5 39 C 20.5 38.1 19.6 37.7 18.6 37.4 C 17.3 36.9 16 36.3 16 34.8 C 16 33.1 17.3 32.3 18.8 32.3 C 19.9 32.3 20.8 32.6 21.7 33.3 C 21.7 33.3 20.8 34.3 20.8 34.3 C 20.4 33.9 19.6 33.6 18.9 33.6 Z M 27.2 32.5 C 28.7 32.5 30.5 33.2 30.5 35.2 C 30.5 37.2 28.7 38 27.2 38 C 27.22 37.98 25.9 38 25.9 38 L 25.9 41.6 L 24.5 41.6 L 24.5 32.5 C 24.5 32.5 27.22 32.47 27.2 32.5 Z M 25.9 36.8 C 25.9 36.8 26.91 36.76 26.9 36.8 C 28.1 36.8 29 36.4 29 35.3 C 29 34.3 28.2 33.7 27.2 33.7 C 27.16 33.69 25.9 33.7 25.9 33.7 L 25.9 36.8 Z M 32.6 41.6 L 32.6 32.5 L 34 32.5 L 34 41.6 L 32.6 41.6 Z M 39.7 32.5 C 41.1 32.5 42.9 33.2 42.9 35.1 C 42.9 36.6 41.8 37.4 40.7 37.7 C 40.72 37.67 43.6 41.6 43.6 41.6 L 41.8 41.6 L 39.2 37.8 L 38.4 37.8 L 38.4 41.6 L 37 41.6 L 37 32.5 C 37 32.5 39.71 32.47 39.7 32.5 Z M 38.4 36.6 C 38.4 36.6 39.4 36.56 39.4 36.6 C 40.5 36.6 41.4 36.1 41.4 35.2 C 41.4 34.3 40.7 33.7 39.6 33.7 C 39.65 33.69 38.4 33.7 38.4 33.7 L 38.4 36.6 Z M 45.7 41.6 L 45.7 32.5 L 51.2 32.5 L 51.2 33.7 L 47 33.7 L 47 36.3 L 51.2 36.3 L 51.2 37.5 L 47 37.5 L 47 40.4 L 51.2 40.4 L 51.2 41.6 L 45.7 41.6 Z M 53.8 32.5 C 53.8 32.5 56.34 32.47 56.3 32.5 C 58.7 32.5 61.3 33.7 61.3 37 C 61.3 40.4 58.7 41.6 56.2 41.6 C 56.22 41.57 53.8 41.6 53.8 41.6 L 53.8 32.5 Z M 56.1 33.7 C 56.12 33.69 55.2 33.7 55.2 33.7 L 55.2 40.4 C 55.2 40.4 55.61 40.35 55.6 40.4 C 58.1 40.4 59.8 39.5 59.8 37.1 C 59.8 34.9 58.4 33.7 56.1 33.7 Z " stroke="none" fill="#ffffff"/>  </g>  <g id="Polygon39263">    <path d="M 6.5 27.6 L 5.5 27.6 L 2.6 20.1 L 2.6 27.6 L 1.2 27.6 L 1.2 18.5 L 3.3 18.5 L 6 25.4 L 8.8 18.5 L 10.9 18.5 L 10.9 27.6 L 9.5 27.6 L 9.5 20.1 L 6.5 27.6 Z M 13.9 27.6 L 13.9 18.5 L 15.3 18.5 L 15.3 27.6 L 13.9 27.6 Z M 18.3 18.5 C 18.3 18.5 20.84 18.47 20.8 18.5 C 23.2 18.5 25.8 19.7 25.8 23 C 25.8 26.4 23.2 27.6 20.7 27.6 C 20.72 27.57 18.3 27.6 18.3 27.6 L 18.3 18.5 Z M 20.6 19.7 C 20.62 19.69 19.7 19.7 19.7 19.7 L 19.7 26.4 C 19.7 26.4 20.11 26.35 20.1 26.4 C 22.6 26.4 24.3 25.5 24.3 23.1 C 24.3 20.9 22.9 19.7 20.6 19.7 Z M 28.6 23.8 L 28.6 22.6 L 32 22.6 L 32 23.8 L 28.6 23.8 Z M 39.8 26.5 C 40.5 26.5 41.1 26.3 41.7 25.8 C 41.7 25.8 42.5 26.8 42.5 26.8 C 41.7 27.4 40.7 27.7 39.7 27.7 C 37 27.7 34.9 25.9 34.9 23 C 34.9 20.3 37.1 18.3 39.8 18.3 C 40.7 18.3 41.5 18.6 42.3 19.1 C 42.3 19.1 41.6 20.1 41.6 20.1 C 41.1 19.8 40.4 19.6 39.8 19.6 C 37.8 19.6 36.3 21 36.3 23 C 36.3 25.1 37.7 26.5 39.8 26.5 Z M 44.7 27.6 L 44.7 18.5 L 50.3 18.5 L 50.3 19.7 L 46.1 19.7 L 46.1 22.3 L 50.3 22.3 L 50.3 23.5 L 46.1 23.5 L 46.1 26.4 L 50.3 26.4 L 50.3 27.6 L 44.7 27.6 Z M 59.1 27.6 L 54.3 21 L 54.3 27.6 L 52.9 27.6 L 52.9 18.5 L 54.1 18.5 L 58.9 25 L 58.9 18.5 L 60.3 18.5 L 60.3 27.6 L 59.1 27.6 Z M 66 19.7 L 66 27.6 L 64.6 27.6 L 64.6 19.7 L 62.4 19.7 L 62.4 18.5 L 68.3 18.5 L 68.3 19.7 L 66 19.7 Z M 77.4 23.3 C 77.4 26.2 76.3 27.7 73.8 27.7 C 71.4 27.7 70.3 26.2 70.3 23.3 C 70.3 23.3 70.3 18.5 70.3 18.5 L 71.7 18.5 C 71.7 18.5 71.69 23.6 71.7 23.6 C 71.7 25.5 72.5 26.5 73.9 26.5 C 75.2 26.5 76 25.5 76 23.6 C 76.02 23.6 76 18.5 76 18.5 L 77.4 18.5 C 77.4 18.5 77.41 23.3 77.4 23.3 Z M 83.1 18.5 C 84.5 18.5 86.3 19.2 86.3 21.1 C 86.3 22.6 85.2 23.4 84.1 23.7 C 84.12 23.67 87 27.6 87 27.6 L 85.2 27.6 L 82.6 23.8 L 81.8 23.8 L 81.8 27.6 L 80.4 27.6 L 80.4 18.5 C 80.4 18.5 83.12 18.47 83.1 18.5 Z M 81.8 22.6 C 81.8 22.6 82.81 22.56 82.8 22.6 C 84 22.6 84.8 22.1 84.8 21.2 C 84.8 20.3 84.1 19.7 83.1 19.7 C 83.06 19.69 81.8 19.7 81.8 19.7 L 81.8 22.6 Z M 90.6 27.6 L 90.6 23.6 L 87.7 18.5 L 89.5 18.5 L 91.4 22.2 L 91.4 22.2 L 93.4 18.5 L 95 18.5 L 92 23.7 L 92 27.6 L 90.6 27.6 Z " stroke="none" fill="#ffffff"/>  </g></svg>