<?xml version="1.0" standalone="no"?><!DOCTYPE svg PUBLIC "-//W3C//DTD SVG 1.1//EN" "http://www.w3.org/Graphics/SVG/1.1/DTD/svg11.dtd"><svg xmlns="http://www.w3.org/2000/svg" version="1.1" width="133px" height="23.8px" viewBox="0 -4 133 23.8" style="top:-4px">  <desc>Jeanay A3000279</desc>  <defs/>  <g id="Polygon39987">    <path d="M 53.7 15 L 53.3 14 L 51.2 14 L 50.8 15 L 50.1 15 L 52 10.1 L 52.6 10.1 L 54.4 15 L 53.7 15 Z M 51.4 13.4 L 53.1 13.4 L 52.2 11.1 L 52.2 11.1 L 51.4 13.4 Z M 56 12.3 C 56.3 12.3 56.5 12.3 56.6 12.2 C 57 12.1 57.3 11.9 57.3 11.5 C 57.3 11.1 56.9 10.9 56.5 10.9 C 56.1 10.9 55.8 11 55.7 11.4 C 55.7 11.4 55.2 11.1 55.2 11.1 C 55.3 10.6 55.8 10.3 56.5 10.3 C 57.4 10.3 57.9 10.8 57.9 11.5 C 57.9 11.9 57.7 12.3 57.4 12.5 C 57.8 12.7 58.2 13.1 58.2 13.6 C 58.2 14.6 57.5 15.1 56.6 15.1 C 56 15.1 55.4 14.8 55.1 14.3 C 55.1 14.3 55.7 14 55.7 14 C 55.9 14.4 56.2 14.5 56.6 14.5 C 57 14.5 57.5 14.2 57.5 13.7 C 57.5 13.2 57.1 12.9 56.5 12.9 C 56.3 12.9 56.2 12.9 56 13 C 56 13 56 12.3 56 12.3 Z M 62.5 12.7 C 62.5 14.2 61.9 15.1 60.9 15.1 C 59.8 15.1 59.2 14.2 59.2 12.7 C 59.2 11.2 59.8 10.3 60.9 10.3 C 61.9 10.3 62.5 11.2 62.5 12.7 Z M 59.9 12.7 C 59.9 13.9 60.3 14.5 60.9 14.5 C 61.5 14.5 61.9 13.9 61.9 12.7 C 61.9 11.5 61.5 10.9 60.9 10.9 C 60.3 10.9 59.9 11.5 59.9 12.7 Z M 66.8 12.7 C 66.8 14.2 66.2 15.1 65.2 15.1 C 64.1 15.1 63.5 14.2 63.5 12.7 C 63.5 11.2 64.1 10.3 65.2 10.3 C 66.2 10.3 66.8 11.2 66.8 12.7 Z M 64.2 12.7 C 64.2 13.9 64.6 14.5 65.2 14.5 C 65.8 14.5 66.2 13.9 66.2 12.7 C 66.2 11.5 65.8 10.9 65.2 10.9 C 64.6 10.9 64.2 11.5 64.2 12.7 Z M 71.1 12.7 C 71.1 14.2 70.5 15.1 69.5 15.1 C 68.4 15.1 67.8 14.2 67.8 12.7 C 67.8 11.2 68.4 10.3 69.5 10.3 C 70.5 10.3 71.1 11.2 71.1 12.7 Z M 68.5 12.7 C 68.5 13.9 68.9 14.5 69.5 14.5 C 70.1 14.5 70.5 13.9 70.5 12.7 C 70.5 11.5 70.1 10.9 69.5 10.9 C 68.9 10.9 68.5 11.5 68.5 12.7 Z M 72.2 15 C 72.2 15 72.18 14.41 72.2 14.4 C 72.7 13.8 73.4 13.1 73.8 12.5 C 74 12.2 74.2 11.8 74.2 11.5 C 74.2 11.1 73.9 10.9 73.5 10.9 C 73.1 10.9 72.7 11.1 72.7 11.6 C 72.7 11.6 72.1 11.4 72.1 11.4 C 72.1 10.7 72.8 10.3 73.5 10.3 C 74.2 10.3 74.9 10.8 74.9 11.5 C 74.9 11.9 74.7 12.4 74.4 12.8 C 74 13.3 73.5 13.9 73.1 14.4 C 73.06 14.41 75.1 14.4 75.1 14.4 L 75.1 15 L 72.2 15 Z M 78.8 10.8 C 78.2 12 77.3 13.9 76.8 15.2 C 76.8 15.2 76.2 14.9 76.2 14.9 C 76.9 13.4 77.7 11.8 78 11 C 78.05 10.95 75.8 11 75.8 11 L 75.8 10.4 L 78.8 10.4 C 78.8 10.4 78.78 10.83 78.8 10.8 Z M 80.2 14.7 C 81.1 14.3 81.8 13.8 82 12.9 C 81.8 13.1 81.4 13.3 81 13.3 C 80.2 13.3 79.6 12.6 79.6 11.8 C 79.6 10.9 80.2 10.3 81.1 10.3 C 82.2 10.3 82.8 11.1 82.8 12.1 C 82.8 13.6 81.8 14.7 80.5 15.3 C 80.5 15.3 80.2 14.7 80.2 14.7 Z M 82.1 12.1 C 82.1 11.5 81.9 10.9 81.1 10.9 C 80.6 10.9 80.3 11.3 80.3 11.8 C 80.3 12.3 80.6 12.7 81.1 12.7 C 81.5 12.7 81.9 12.5 82.1 12.1 Z " stroke="none" fill="#535a5d"/>  </g>  <g id="Polygon39986">    <path d="M 53.2 4.5 C 53.2 5 53.2 5.4 52.9 5.7 C 52.7 6 52.4 6.1 51.8 6.1 C 51.6 6.1 51.2 6 50.9 5.9 C 50.9 5.9 51.2 5.1 51.2 5.1 C 51.4 5.2 51.5 5.2 51.7 5.2 C 51.9 5.2 52.1 5.2 52.2 5 C 52.2 4.9 52.3 4.7 52.3 4.4 C 52.26 4.42 52.3 0.4 52.3 0.4 L 53.2 0.4 C 53.2 0.4 53.25 4.54 53.2 4.5 Z M 55 6 L 55 0.4 L 58.5 0.4 L 58.5 1.2 L 56 1.2 L 56 2.7 L 58.5 2.7 L 58.5 3.5 L 56 3.5 L 56 5.2 L 58.5 5.2 L 58.5 6 L 55 6 Z M 61.8 0.4 L 62.6 0.4 L 64.7 6 L 63.6 6 L 63.2 4.9 L 61.1 4.9 L 60.7 6 L 59.6 6 L 61.8 0.4 Z M 61.4 4.1 L 62.9 4.1 L 62.2 1.9 L 62.1 1.9 L 61.4 4.1 Z M 69.7 6 L 67 2.2 L 67 6 L 66 6 L 66 0.4 L 66.8 0.4 L 69.6 4.2 L 69.6 0.4 L 70.6 0.4 L 70.6 6 L 69.7 6 Z M 74.1 0.4 L 74.9 0.4 L 77 6 L 75.9 6 L 75.5 4.9 L 73.3 4.9 L 72.9 6 L 71.8 6 L 74.1 0.4 Z M 73.6 4.1 L 75.2 4.1 L 74.4 1.9 L 74.4 1.9 L 73.6 4.1 Z M 79 6 L 79 3.6 L 77.2 0.4 L 78.5 0.4 L 79.6 2.6 L 79.6 2.6 L 80.7 0.4 L 81.9 0.4 L 80 3.7 L 80 6 L 79 6 Z " stroke="none" fill="#535a5d"/>  </g></svg>