<?xml version="1.0" standalone="no"?><!DOCTYPE svg PUBLIC "-//W3C//DTD SVG 1.1//EN" "http://www.w3.org/Graphics/SVG/1.1/DTD/svg11.dtd"><svg xmlns="http://www.w3.org/2000/svg" version="1.1" width="108px" height="23.8px" viewBox="0 -4 108 23.8" style="top:-4px">  <desc>Janesley A3000141</desc>  <defs/>  <g id="Polygon41637">    <path d="M 42.1 15 L 41.8 14 L 39.7 14 L 39.3 15 L 38.6 15 L 40.5 10.1 L 41.1 10.1 L 42.9 15 L 42.1 15 Z M 39.9 13.4 L 41.5 13.4 L 40.7 11.1 L 40.7 11.1 L 39.9 13.4 Z M 44.5 12.3 C 44.8 12.3 44.9 12.3 45.1 12.2 C 45.5 12.1 45.7 11.9 45.7 11.5 C 45.7 11.1 45.4 10.9 45 10.9 C 44.6 10.9 44.3 11 44.2 11.4 C 44.2 11.4 43.6 11.1 43.6 11.1 C 43.8 10.6 44.3 10.3 45 10.3 C 45.8 10.3 46.4 10.8 46.4 11.5 C 46.4 11.9 46.2 12.3 45.8 12.5 C 46.3 12.7 46.7 13.1 46.7 13.6 C 46.7 14.6 46 15.1 45.1 15.1 C 44.5 15.1 43.9 14.8 43.6 14.3 C 43.6 14.3 44.1 14 44.1 14 C 44.3 14.4 44.7 14.5 45.1 14.5 C 45.5 14.5 46 14.2 46 13.7 C 46 13.2 45.5 12.9 45 12.9 C 44.8 12.9 44.7 12.9 44.5 13 C 44.5 13 44.5 12.3 44.5 12.3 Z M 51 12.7 C 51 14.2 50.4 15.1 49.4 15.1 C 48.3 15.1 47.7 14.2 47.7 12.7 C 47.7 11.2 48.3 10.3 49.4 10.3 C 50.4 10.3 51 11.2 51 12.7 Z M 48.4 12.7 C 48.4 13.9 48.8 14.5 49.4 14.5 C 50 14.5 50.3 13.9 50.3 12.7 C 50.3 11.5 50 10.9 49.4 10.9 C 48.8 10.9 48.4 11.5 48.4 12.7 Z M 55.3 12.7 C 55.3 14.2 54.7 15.1 53.7 15.1 C 52.6 15.1 52 14.2 52 12.7 C 52 11.2 52.6 10.3 53.7 10.3 C 54.7 10.3 55.3 11.2 55.3 12.7 Z M 52.7 12.7 C 52.7 13.9 53.1 14.5 53.7 14.5 C 54.3 14.5 54.7 13.9 54.7 12.7 C 54.7 11.5 54.3 10.9 53.7 10.9 C 53.1 10.9 52.7 11.5 52.7 12.7 Z M 59.6 12.7 C 59.6 14.2 59 15.1 58 15.1 C 56.9 15.1 56.3 14.2 56.3 12.7 C 56.3 11.2 56.9 10.3 58 10.3 C 59 10.3 59.6 11.2 59.6 12.7 Z M 57 12.7 C 57 13.9 57.4 14.5 58 14.5 C 58.6 14.5 59 13.9 59 12.7 C 59 11.5 58.6 10.9 58 10.9 C 57.4 10.9 57 11.5 57 12.7 Z M 61.3 15 C 61.3 15 61.34 11.15 61.3 11.1 C 61.1 11.3 60.8 11.4 60.6 11.5 C 60.6 11.5 60.6 10.8 60.6 10.8 C 60.9 10.7 61.3 10.5 61.6 10.4 C 61.57 10.35 62 10.4 62 10.4 L 62 15 L 61.3 15 Z M 65.3 15 L 65.3 13.8 L 63.2 13.8 C 63.2 13.8 63.2 13.12 63.2 13.1 C 63.8 12.4 64.6 11.2 65.3 10.4 C 65.26 10.35 65.9 10.4 65.9 10.4 L 65.9 13.2 L 66.6 13.2 L 66.6 13.8 L 65.9 13.8 L 65.9 15 L 65.3 15 Z M 65.3 13.2 C 65.3 13.2 65.3 11.28 65.3 11.3 C 64.9 11.9 64.2 12.8 63.9 13.2 C 63.9 13.24 65.3 13.2 65.3 13.2 Z M 68.2 15 C 68.2 15 68.22 11.15 68.2 11.1 C 68 11.3 67.7 11.4 67.5 11.5 C 67.5 11.5 67.5 10.8 67.5 10.8 C 67.8 10.7 68.1 10.5 68.4 10.4 C 68.45 10.35 68.9 10.4 68.9 10.4 L 68.9 15 L 68.2 15 Z " stroke="none" fill="#535a5d"/>  </g>  <g id="Polygon41636">    <path d="M 37.3 4.5 C 37.3 5 37.2 5.4 37 5.7 C 36.8 6 36.4 6.1 35.9 6.1 C 35.6 6.1 35.2 6 34.9 5.9 C 34.9 5.9 35.2 5.1 35.2 5.1 C 35.4 5.2 35.6 5.2 35.8 5.2 C 36 5.2 36.1 5.2 36.2 5 C 36.3 4.9 36.3 4.7 36.3 4.4 C 36.3 4.42 36.3 0.4 36.3 0.4 L 37.3 0.4 C 37.3 0.4 37.3 4.54 37.3 4.5 Z M 40.7 0.4 L 41.5 0.4 L 43.6 6 L 42.5 6 L 42.1 4.9 L 39.9 4.9 L 39.5 6 L 38.5 6 L 40.7 0.4 Z M 40.2 4.1 L 41.8 4.1 L 41 1.9 L 41 1.9 L 40.2 4.1 Z M 48.6 6 L 45.8 2.2 L 45.8 6 L 44.9 6 L 44.9 0.4 L 45.7 0.4 L 48.5 4.2 L 48.5 0.4 L 49.5 0.4 L 49.5 6 L 48.6 6 Z M 51.3 6 L 51.3 0.4 L 54.8 0.4 L 54.8 1.2 L 52.3 1.2 L 52.3 2.7 L 54.8 2.7 L 54.8 3.5 L 52.3 3.5 L 52.3 5.2 L 54.8 5.2 L 54.8 6 L 51.3 6 Z M 58.2 1.2 C 57.7 1.2 57.3 1.4 57.3 1.8 C 57.3 2.3 57.9 2.4 58.3 2.6 C 59.2 2.9 60.1 3.2 60.1 4.4 C 60.1 5.6 59 6.1 58 6.1 C 57.2 6.1 56.6 5.8 55.9 5.2 C 55.9 5.2 56.6 4.6 56.6 4.6 C 57.1 5 57.5 5.2 58 5.2 C 58.5 5.2 59 5 59 4.4 C 59 3.9 58.5 3.7 57.9 3.5 C 57.1 3.2 56.3 2.8 56.3 1.9 C 56.3 0.8 57.2 0.3 58.1 0.3 C 58.8 0.3 59.4 0.5 59.9 0.9 C 59.9 0.9 59.3 1.6 59.3 1.6 C 59 1.4 58.6 1.2 58.2 1.2 Z M 61.5 6 L 61.5 0.4 L 62.5 0.4 L 62.5 5.2 L 64.9 5.2 L 64.9 6 L 61.5 6 Z M 66 6 L 66 0.4 L 69.5 0.4 L 69.5 1.2 L 67 1.2 L 67 2.7 L 69.5 2.7 L 69.5 3.5 L 67 3.5 L 67 5.2 L 69.5 5.2 L 69.5 6 L 66 6 Z M 72.3 6 L 72.3 3.6 L 70.6 0.4 L 71.8 0.4 L 72.9 2.6 L 72.9 2.6 L 74 0.4 L 75.2 0.4 L 73.3 3.7 L 73.3 6 L 72.3 6 Z " stroke="none" fill="#535a5d"/>  </g></svg>