<?xml version="1.0" standalone="no"?><!DOCTYPE svg PUBLIC "-//W3C//DTD SVG 1.1//EN" "http://www.w3.org/Graphics/SVG/1.1/DTD/svg11.dtd"><svg xmlns="http://www.w3.org/2000/svg" version="1.1" width="108.1px" height="23.8px" viewBox="0 -4 108.1 23.8" style="top:-4px">  <desc>Bevyn A3000308</desc>  <defs/>  <g id="Polygon39523">    <path d="M 40.7 15 L 40.3 14 L 38.2 14 L 37.9 15 L 37.1 15 L 39 10.1 L 39.6 10.1 L 41.5 15 L 40.7 15 Z M 38.5 13.4 L 40.1 13.4 L 39.3 11.1 L 39.3 11.1 L 38.5 13.4 Z M 43 12.3 C 43.3 12.3 43.5 12.3 43.7 12.2 C 44.1 12.1 44.3 11.9 44.3 11.5 C 44.3 11.1 44 10.9 43.5 10.9 C 43.2 10.9 42.9 11 42.8 11.4 C 42.8 11.4 42.2 11.1 42.2 11.1 C 42.4 10.6 42.9 10.3 43.6 10.3 C 44.4 10.3 45 10.8 45 11.5 C 45 11.9 44.8 12.3 44.4 12.5 C 44.9 12.7 45.2 13.1 45.2 13.6 C 45.2 14.6 44.5 15.1 43.7 15.1 C 43.1 15.1 42.5 14.8 42.2 14.3 C 42.2 14.3 42.7 14 42.7 14 C 42.9 14.4 43.3 14.5 43.6 14.5 C 44.1 14.5 44.6 14.2 44.6 13.7 C 44.6 13.2 44.1 12.9 43.6 12.9 C 43.4 12.9 43.2 12.9 43 13 C 43 13 43 12.3 43 12.3 Z M 49.6 12.7 C 49.6 14.2 49 15.1 47.9 15.1 C 46.9 15.1 46.3 14.2 46.3 12.7 C 46.3 11.2 46.9 10.3 47.9 10.3 C 49 10.3 49.6 11.2 49.6 12.7 Z M 47 12.7 C 47 13.9 47.3 14.5 47.9 14.5 C 48.6 14.5 48.9 13.9 48.9 12.7 C 48.9 11.5 48.6 10.9 47.9 10.9 C 47.3 10.9 47 11.5 47 12.7 Z M 53.9 12.7 C 53.9 14.2 53.3 15.1 52.2 15.1 C 51.2 15.1 50.6 14.2 50.6 12.7 C 50.6 11.2 51.2 10.3 52.2 10.3 C 53.3 10.3 53.9 11.2 53.9 12.7 Z M 51.3 12.7 C 51.3 13.9 51.6 14.5 52.2 14.5 C 52.9 14.5 53.2 13.9 53.2 12.7 C 53.2 11.5 52.9 10.9 52.2 10.9 C 51.6 10.9 51.3 11.5 51.3 12.7 Z M 58.2 12.7 C 58.2 14.2 57.6 15.1 56.6 15.1 C 55.5 15.1 54.9 14.2 54.9 12.7 C 54.9 11.2 55.5 10.3 56.6 10.3 C 57.6 10.3 58.2 11.2 58.2 12.7 Z M 55.6 12.7 C 55.6 13.9 55.9 14.5 56.6 14.5 C 57.2 14.5 57.5 13.9 57.5 12.7 C 57.5 11.5 57.2 10.9 56.6 10.9 C 55.9 10.9 55.6 11.5 55.6 12.7 Z M 59.9 12.3 C 60.2 12.3 60.4 12.3 60.6 12.2 C 60.9 12.1 61.2 11.9 61.2 11.5 C 61.2 11.1 60.9 10.9 60.4 10.9 C 60.1 10.9 59.8 11 59.7 11.4 C 59.7 11.4 59.1 11.1 59.1 11.1 C 59.3 10.6 59.8 10.3 60.4 10.3 C 61.3 10.3 61.9 10.8 61.9 11.5 C 61.9 11.9 61.6 12.3 61.3 12.5 C 61.8 12.7 62.1 13.1 62.1 13.6 C 62.1 14.6 61.4 15.1 60.6 15.1 C 60 15.1 59.4 14.8 59.1 14.3 C 59.1 14.3 59.6 14 59.6 14 C 59.8 14.4 60.1 14.5 60.5 14.5 C 61 14.5 61.4 14.2 61.4 13.7 C 61.4 13.2 61 12.9 60.4 12.9 C 60.3 12.9 60.1 12.9 59.9 13 C 59.9 13 59.9 12.3 59.9 12.3 Z M 66.5 12.7 C 66.5 14.2 65.9 15.1 64.8 15.1 C 63.8 15.1 63.2 14.2 63.2 12.7 C 63.2 11.2 63.8 10.3 64.8 10.3 C 65.9 10.3 66.5 11.2 66.5 12.7 Z M 63.8 12.7 C 63.8 13.9 64.2 14.5 64.8 14.5 C 65.4 14.5 65.8 13.9 65.8 12.7 C 65.8 11.5 65.4 10.9 64.8 10.9 C 64.2 10.9 63.8 11.5 63.8 12.7 Z M 67.5 13.7 C 67.5 13.2 67.8 12.8 68.2 12.6 C 67.9 12.3 67.6 12 67.6 11.5 C 67.6 10.8 68.2 10.3 69.1 10.3 C 69.9 10.3 70.5 10.8 70.5 11.5 C 70.5 12 70.3 12.3 69.9 12.6 C 70.4 12.8 70.6 13.2 70.6 13.7 C 70.6 14.5 70 15.1 69.1 15.1 C 68.1 15.1 67.5 14.5 67.5 13.7 Z M 68.2 13.7 C 68.2 14.2 68.6 14.5 69.1 14.5 C 69.6 14.5 70 14.2 70 13.7 C 70 13.2 69.6 12.9 69.1 12.9 C 68.6 12.9 68.2 13.2 68.2 13.7 Z M 68.3 11.6 C 68.3 12 68.6 12.3 69.1 12.3 C 69.5 12.3 69.8 12 69.8 11.6 C 69.8 11.1 69.5 10.9 69.1 10.9 C 68.6 10.9 68.3 11.1 68.3 11.6 Z " stroke="none" fill="#535a5d"/>  </g>  <g id="Polygon39522">    <path d="M 40.9 0.4 C 40.9 0.4 42.31 0.4 42.3 0.4 C 42.8 0.4 43.4 0.5 43.8 0.8 C 44.2 1 44.4 1.5 44.4 2 C 44.4 2.4 44.2 2.8 43.7 3.1 C 44.3 3.3 44.7 3.7 44.7 4.4 C 44.7 5 44.3 5.5 43.7 5.8 C 43.3 6 42.7 6 42.2 6 C 42.23 6 40.9 6 40.9 6 L 40.9 0.4 Z M 41.9 5.2 C 41.9 5.2 42.22 5.15 42.2 5.2 C 42.6 5.2 43 5.1 43.3 5 C 43.5 4.9 43.6 4.7 43.6 4.4 C 43.6 3.9 43.3 3.5 42.6 3.5 C 42.63 3.54 41.9 3.5 41.9 3.5 L 41.9 5.2 Z M 41.9 2.7 C 41.9 2.7 42.29 2.74 42.3 2.7 C 43 2.7 43.5 2.5 43.5 2 C 43.5 1.7 43.3 1.5 43.2 1.4 C 42.9 1.3 42.6 1.2 42.2 1.2 C 42.17 1.25 41.9 1.2 41.9 1.2 L 41.9 2.7 Z M 46.2 6 L 46.2 0.4 L 49.7 0.4 L 49.7 1.2 L 47.2 1.2 L 47.2 2.7 L 49.7 2.7 L 49.7 3.5 L 47.2 3.5 L 47.2 5.2 L 49.7 5.2 L 49.7 6 L 46.2 6 Z M 53.7 6 L 52.9 6 L 50.7 0.4 L 51.9 0.4 L 53.3 4.5 L 53.3 4.5 L 54.8 0.4 L 55.9 0.4 L 53.7 6 Z M 58.5 6 L 58.5 3.6 L 56.7 0.4 L 57.9 0.4 L 59 2.6 L 59 2.6 L 60.2 0.4 L 61.3 0.4 L 59.5 3.7 L 59.5 6 L 58.5 6 Z M 66.3 6 L 63.5 2.2 L 63.5 6 L 62.5 6 L 62.5 0.4 L 63.4 0.4 L 66.2 4.2 L 66.2 0.4 L 67.2 0.4 L 67.2 6 L 66.3 6 Z " stroke="none" fill="#535a5d"/>  </g></svg>