<?xml version="1.0" standalone="no"?><!DOCTYPE svg PUBLIC "-//W3C//DTD SVG 1.1//EN" "http://www.w3.org/Graphics/SVG/1.1/DTD/svg11.dtd"><svg xmlns="http://www.w3.org/2000/svg" version="1.1" width="150px" height="23.8px" viewBox="0 -4 150 23.8" style="top:-4px">  <desc>Hansridge A3000229</desc>  <defs/>  <g id="Polygon40656">    <path d="M 62 15 L 61.6 14 L 59.5 14 L 59.1 15 L 58.4 15 L 60.3 10.1 L 60.9 10.1 L 62.8 15 L 62 15 Z M 59.7 13.4 L 61.4 13.4 L 60.6 11.1 L 60.6 11.1 L 59.7 13.4 Z M 64.3 12.3 C 64.6 12.3 64.8 12.3 65 12.2 C 65.3 12.1 65.6 11.9 65.6 11.5 C 65.6 11.1 65.3 10.9 64.8 10.9 C 64.5 10.9 64.2 11 64 11.4 C 64 11.4 63.5 11.1 63.5 11.1 C 63.7 10.6 64.2 10.3 64.8 10.3 C 65.7 10.3 66.3 10.8 66.3 11.5 C 66.3 11.9 66 12.3 65.7 12.5 C 66.2 12.7 66.5 13.1 66.5 13.6 C 66.5 14.6 65.8 15.1 64.9 15.1 C 64.4 15.1 63.7 14.8 63.5 14.3 C 63.5 14.3 64 14 64 14 C 64.2 14.4 64.5 14.5 64.9 14.5 C 65.4 14.5 65.8 14.2 65.8 13.7 C 65.8 13.2 65.4 12.9 64.8 12.9 C 64.7 12.9 64.5 12.9 64.3 13 C 64.3 13 64.3 12.3 64.3 12.3 Z M 70.9 12.7 C 70.9 14.2 70.3 15.1 69.2 15.1 C 68.2 15.1 67.6 14.2 67.6 12.7 C 67.6 11.2 68.2 10.3 69.2 10.3 C 70.3 10.3 70.9 11.2 70.9 12.7 Z M 68.2 12.7 C 68.2 13.9 68.6 14.5 69.2 14.5 C 69.8 14.5 70.2 13.9 70.2 12.7 C 70.2 11.5 69.8 10.9 69.2 10.9 C 68.6 10.9 68.2 11.5 68.2 12.7 Z M 75.2 12.7 C 75.2 14.2 74.6 15.1 73.5 15.1 C 72.5 15.1 71.9 14.2 71.9 12.7 C 71.9 11.2 72.5 10.3 73.5 10.3 C 74.6 10.3 75.2 11.2 75.2 12.7 Z M 72.5 12.7 C 72.5 13.9 72.9 14.5 73.5 14.5 C 74.1 14.5 74.5 13.9 74.5 12.7 C 74.5 11.5 74.1 10.9 73.5 10.9 C 72.9 10.9 72.5 11.5 72.5 12.7 Z M 79.5 12.7 C 79.5 14.2 78.9 15.1 77.8 15.1 C 76.8 15.1 76.2 14.2 76.2 12.7 C 76.2 11.2 76.8 10.3 77.8 10.3 C 78.9 10.3 79.5 11.2 79.5 12.7 Z M 76.9 12.7 C 76.9 13.9 77.2 14.5 77.8 14.5 C 78.4 14.5 78.8 13.9 78.8 12.7 C 78.8 11.5 78.4 10.9 77.8 10.9 C 77.2 10.9 76.9 11.5 76.9 12.7 Z M 80.5 15 C 80.5 15 80.51 14.41 80.5 14.4 C 81 13.8 81.7 13.1 82.1 12.5 C 82.3 12.2 82.6 11.8 82.6 11.5 C 82.6 11.1 82.2 10.9 81.8 10.9 C 81.4 10.9 81.1 11.1 81.1 11.6 C 81.1 11.6 80.4 11.4 80.4 11.4 C 80.5 10.7 81.2 10.3 81.8 10.3 C 82.6 10.3 83.2 10.8 83.2 11.5 C 83.2 11.9 83 12.4 82.8 12.8 C 82.4 13.3 81.9 13.9 81.4 14.4 C 81.39 14.41 83.5 14.4 83.5 14.4 L 83.5 15 L 80.5 15 Z M 84.4 15 C 84.4 15 84.42 14.41 84.4 14.4 C 85 13.8 85.6 13.1 86.1 12.5 C 86.2 12.2 86.5 11.8 86.5 11.5 C 86.5 11.1 86.1 10.9 85.7 10.9 C 85.3 10.9 85 11.1 85 11.6 C 85 11.6 84.3 11.4 84.3 11.4 C 84.4 10.7 85.1 10.3 85.7 10.3 C 86.5 10.3 87.2 10.8 87.2 11.5 C 87.2 11.9 86.9 12.4 86.7 12.8 C 86.3 13.3 85.8 13.9 85.3 14.4 C 85.3 14.41 87.4 14.4 87.4 14.4 L 87.4 15 L 84.4 15 Z M 88.9 14.7 C 89.7 14.3 90.4 13.8 90.7 12.9 C 90.4 13.1 90 13.3 89.6 13.3 C 88.8 13.3 88.2 12.6 88.2 11.8 C 88.2 10.9 88.9 10.3 89.7 10.3 C 90.8 10.3 91.4 11.1 91.4 12.1 C 91.4 13.6 90.4 14.7 89.1 15.3 C 89.1 15.3 88.9 14.7 88.9 14.7 Z M 90.8 12.1 C 90.8 11.5 90.5 10.9 89.8 10.9 C 89.2 10.9 88.9 11.3 88.9 11.8 C 88.9 12.3 89.2 12.7 89.7 12.7 C 90.2 12.7 90.6 12.5 90.8 12.1 Z " stroke="none" fill="#535a5d"/>  </g>  <g id="Polygon40655">    <path d="M 54.5 6 L 54.5 3.5 L 51.9 3.5 L 51.9 6 L 50.9 6 L 50.9 0.4 L 51.9 0.4 L 51.9 2.7 L 54.5 2.7 L 54.5 0.4 L 55.5 0.4 L 55.5 6 L 54.5 6 Z M 59 0.4 L 59.8 0.4 L 61.9 6 L 60.8 6 L 60.4 4.9 L 58.2 4.9 L 57.8 6 L 56.7 6 L 59 0.4 Z M 58.5 4.1 L 60.1 4.1 L 59.3 1.9 L 59.3 1.9 L 58.5 4.1 Z M 66.9 6 L 64.1 2.2 L 64.1 6 L 63.1 6 L 63.1 0.4 L 64 0.4 L 66.8 4.2 L 66.8 0.4 L 67.8 0.4 L 67.8 6 L 66.9 6 Z M 71.4 1.2 C 70.9 1.2 70.6 1.4 70.6 1.8 C 70.6 2.3 71.1 2.4 71.6 2.6 C 72.4 2.9 73.3 3.2 73.3 4.4 C 73.3 5.6 72.2 6.1 71.3 6.1 C 70.4 6.1 69.8 5.8 69.2 5.2 C 69.2 5.2 69.8 4.6 69.8 4.6 C 70.3 5 70.7 5.2 71.3 5.2 C 71.8 5.2 72.3 5 72.3 4.4 C 72.3 3.9 71.7 3.7 71.1 3.5 C 70.4 3.2 69.6 2.8 69.6 1.9 C 69.6 0.8 70.4 0.3 71.3 0.3 C 72 0.3 72.6 0.5 73.1 0.9 C 73.1 0.9 72.6 1.6 72.6 1.6 C 72.3 1.4 71.8 1.2 71.4 1.2 Z M 76.5 0.4 C 77.4 0.4 78.5 0.9 78.5 2 C 78.5 3 77.9 3.4 77.2 3.6 C 77.2 3.62 78.9 6 78.9 6 L 77.7 6 L 76.1 3.7 L 75.8 3.7 L 75.8 6 L 74.8 6 L 74.8 0.4 C 74.8 0.4 76.49 0.4 76.5 0.4 Z M 76.3 2.9 C 77 2.9 77.4 2.6 77.4 2.1 C 77.4 1.6 77 1.2 76.5 1.2 C 76.47 1.25 75.8 1.2 75.8 1.2 L 75.8 2.9 C 75.8 2.9 76.31 2.86 76.3 2.9 Z M 80.2 6 L 80.2 0.4 L 81.2 0.4 L 81.2 6 L 80.2 6 Z M 82.9 0.4 C 82.9 0.4 84.5 0.4 84.5 0.4 C 85.9 0.4 87.5 1.2 87.5 3.2 C 87.5 5.2 86 6 84.4 6 C 84.42 6 82.9 6 82.9 6 L 82.9 0.4 Z M 83.9 5.2 C 83.9 5.2 84.09 5.15 84.1 5.2 C 85.5 5.2 86.5 4.7 86.5 3.2 C 86.5 1.9 85.7 1.2 84.4 1.2 C 84.36 1.25 83.9 1.2 83.9 1.2 L 83.9 5.2 Z M 91.8 3.7 L 91.8 2.8 L 94.2 2.8 C 94.2 2.8 94.18 4.98 94.2 5 C 93.6 5.7 92.7 6.1 91.8 6.1 C 90.1 6.1 88.8 4.9 88.8 3.2 C 88.8 1.6 90.1 0.3 91.8 0.3 C 92.7 0.3 93.5 0.7 94.1 1.4 C 94.1 1.4 93.4 2 93.4 2 C 93 1.5 92.4 1.2 91.8 1.2 C 90.7 1.2 89.9 2 89.9 3.2 C 89.9 4.4 90.6 5.2 91.8 5.2 C 92.3 5.2 92.8 5 93.2 4.7 C 93.19 4.68 93.2 3.7 93.2 3.7 L 91.8 3.7 Z M 95.8 6 L 95.8 0.4 L 99.3 0.4 L 99.3 1.2 L 96.8 1.2 L 96.8 2.7 L 99.3 2.7 L 99.3 3.5 L 96.8 3.5 L 96.8 5.2 L 99.3 5.2 L 99.3 6 L 95.8 6 Z " stroke="none" fill="#535a5d"/>  </g></svg>