<?xml version="1.0" standalone="no"?><!DOCTYPE svg PUBLIC "-//W3C//DTD SVG 1.1//EN" "http://www.w3.org/Graphics/SVG/1.1/DTD/svg11.dtd"><svg xmlns="http://www.w3.org/2000/svg" version="1.1" width="51px" height="13.8px" viewBox="0 -3 51 13.8" style="top:-3px">  <desc>A1000824</desc>  <defs/>  <g id="Polygon42651">    <path d="M 12.9 5.2 L 12.5 4.2 L 10.4 4.2 L 10 5.2 L 9.3 5.2 L 11.2 0.4 L 11.8 0.4 L 13.6 5.2 L 12.9 5.2 Z M 10.6 3.6 L 12.3 3.6 L 11.4 1.4 L 11.4 1.4 L 10.6 3.6 Z M 15.2 5.2 C 15.2 5.2 15.18 1.4 15.2 1.4 C 15 1.5 14.7 1.6 14.5 1.7 C 14.5 1.7 14.5 1.1 14.5 1.1 C 14.8 1 15.1 0.8 15.4 0.6 C 15.41 0.6 15.8 0.6 15.8 0.6 L 15.8 5.2 L 15.2 5.2 Z M 20.4 2.9 C 20.4 4.4 19.8 5.3 18.8 5.3 C 17.7 5.3 17.1 4.4 17.1 2.9 C 17.1 1.4 17.7 0.5 18.8 0.5 C 19.8 0.5 20.4 1.4 20.4 2.9 Z M 17.8 2.9 C 17.8 4.1 18.2 4.7 18.8 4.7 C 19.4 4.7 19.7 4.1 19.7 2.9 C 19.7 1.7 19.4 1.1 18.8 1.1 C 18.2 1.1 17.8 1.7 17.8 2.9 Z M 24.7 2.9 C 24.7 4.4 24.1 5.3 23.1 5.3 C 22 5.3 21.4 4.4 21.4 2.9 C 21.4 1.4 22 0.5 23.1 0.5 C 24.1 0.5 24.7 1.4 24.7 2.9 Z M 22.1 2.9 C 22.1 4.1 22.5 4.7 23.1 4.7 C 23.7 4.7 24.1 4.1 24.1 2.9 C 24.1 1.7 23.7 1.1 23.1 1.1 C 22.5 1.1 22.1 1.7 22.1 2.9 Z M 29 2.9 C 29 4.4 28.4 5.3 27.4 5.3 C 26.3 5.3 25.7 4.4 25.7 2.9 C 25.7 1.4 26.3 0.5 27.4 0.5 C 28.4 0.5 29 1.4 29 2.9 Z M 26.4 2.9 C 26.4 4.1 26.8 4.7 27.4 4.7 C 28 4.7 28.4 4.1 28.4 2.9 C 28.4 1.7 28 1.1 27.4 1.1 C 26.8 1.1 26.4 1.7 26.4 2.9 Z M 30.1 4 C 30.1 3.4 30.3 3 30.8 2.8 C 30.4 2.6 30.2 2.3 30.2 1.8 C 30.2 1.1 30.8 0.5 31.6 0.5 C 32.5 0.5 33.1 1.1 33.1 1.8 C 33.1 2.3 32.8 2.6 32.5 2.8 C 32.9 3 33.2 3.4 33.2 4 C 33.2 4.7 32.6 5.3 31.6 5.3 C 30.7 5.3 30.1 4.7 30.1 4 Z M 30.7 3.9 C 30.7 4.4 31.1 4.7 31.6 4.7 C 32.1 4.7 32.5 4.4 32.5 3.9 C 32.5 3.5 32.1 3.1 31.6 3.1 C 31.1 3.1 30.7 3.5 30.7 3.9 Z M 30.8 1.8 C 30.8 2.2 31.2 2.5 31.6 2.5 C 32.1 2.5 32.4 2.2 32.4 1.8 C 32.4 1.4 32.1 1.1 31.6 1.1 C 31.2 1.1 30.8 1.4 30.8 1.8 Z M 34.3 5.2 C 34.3 5.2 34.28 4.66 34.3 4.7 C 34.8 4.1 35.5 3.4 35.9 2.7 C 36.1 2.5 36.3 2.1 36.3 1.8 C 36.3 1.3 36 1.1 35.6 1.1 C 35.2 1.1 34.9 1.4 34.8 1.8 C 34.8 1.8 34.2 1.7 34.2 1.7 C 34.3 1 34.9 0.5 35.6 0.5 C 36.3 0.5 37 1 37 1.8 C 37 2.2 36.8 2.7 36.5 3 C 36.1 3.6 35.6 4.2 35.2 4.7 C 35.16 4.66 37.2 4.7 37.2 4.7 L 37.2 5.2 L 34.3 5.2 Z M 40.1 5.2 L 40.1 4.1 L 38 4.1 C 38 4.1 37.97 3.37 38 3.4 C 38.6 2.6 39.4 1.5 40 0.6 C 40.03 0.6 40.7 0.6 40.7 0.6 L 40.7 3.5 L 41.4 3.5 L 41.4 4.1 L 40.7 4.1 L 40.7 5.2 L 40.1 5.2 Z M 40.1 3.5 C 40.1 3.5 40.07 1.53 40.1 1.5 C 39.6 2.2 39 3 38.7 3.5 C 38.67 3.49 40.1 3.5 40.1 3.5 Z " stroke="none" fill="#535a5d"/>  </g></svg>