<?xml version="1.0" standalone="no"?><!DOCTYPE svg PUBLIC "-//W3C//DTD SVG 1.1//EN" "http://www.w3.org/Graphics/SVG/1.1/DTD/svg11.dtd"><svg xmlns="http://www.w3.org/2000/svg" version="1.1" width="150px" height="23.8px" viewBox="0 -4 150 23.8" style="top:-4px">  <desc>Alcoma A3000256</desc>  <defs/>  <g id="Polygon39832">    <path d="M 62 15 L 61.6 14 L 59.5 14 L 59.1 15 L 58.4 15 L 60.3 10.1 L 60.9 10.1 L 62.7 15 L 62 15 Z M 59.7 13.4 L 61.4 13.4 L 60.5 11.1 L 60.5 11.1 L 59.7 13.4 Z M 64.3 12.3 C 64.6 12.3 64.8 12.3 64.9 12.2 C 65.3 12.1 65.6 11.9 65.6 11.5 C 65.6 11.1 65.2 10.9 64.8 10.9 C 64.4 10.9 64.1 11 64 11.4 C 64 11.4 63.5 11.1 63.5 11.1 C 63.6 10.6 64.1 10.3 64.8 10.3 C 65.7 10.3 66.2 10.8 66.2 11.5 C 66.2 11.9 66 12.3 65.7 12.5 C 66.1 12.7 66.5 13.1 66.5 13.6 C 66.5 14.6 65.8 15.1 64.9 15.1 C 64.3 15.1 63.7 14.8 63.4 14.3 C 63.4 14.3 64 14 64 14 C 64.2 14.4 64.5 14.5 64.9 14.5 C 65.4 14.5 65.8 14.2 65.8 13.7 C 65.8 13.2 65.4 12.9 64.8 12.9 C 64.7 12.9 64.5 12.9 64.3 13 C 64.3 13 64.3 12.3 64.3 12.3 Z M 70.8 12.7 C 70.8 14.2 70.2 15.1 69.2 15.1 C 68.1 15.1 67.5 14.2 67.5 12.7 C 67.5 11.2 68.1 10.3 69.2 10.3 C 70.2 10.3 70.8 11.2 70.8 12.7 Z M 68.2 12.7 C 68.2 13.9 68.6 14.5 69.2 14.5 C 69.8 14.5 70.2 13.9 70.2 12.7 C 70.2 11.5 69.8 10.9 69.2 10.9 C 68.6 10.9 68.2 11.5 68.2 12.7 Z M 75.1 12.7 C 75.1 14.2 74.5 15.1 73.5 15.1 C 72.4 15.1 71.8 14.2 71.8 12.7 C 71.8 11.2 72.4 10.3 73.5 10.3 C 74.5 10.3 75.1 11.2 75.1 12.7 Z M 72.5 12.7 C 72.5 13.9 72.9 14.5 73.5 14.5 C 74.1 14.5 74.5 13.9 74.5 12.7 C 74.5 11.5 74.1 10.9 73.5 10.9 C 72.9 10.9 72.5 11.5 72.5 12.7 Z M 79.4 12.7 C 79.4 14.2 78.8 15.1 77.8 15.1 C 76.7 15.1 76.2 14.2 76.2 12.7 C 76.2 11.2 76.7 10.3 77.8 10.3 C 78.8 10.3 79.4 11.2 79.4 12.7 Z M 76.8 12.7 C 76.8 13.9 77.2 14.5 77.8 14.5 C 78.4 14.5 78.8 13.9 78.8 12.7 C 78.8 11.5 78.4 10.9 77.8 10.9 C 77.2 10.9 76.8 11.5 76.8 12.7 Z M 80.5 15 C 80.5 15 80.48 14.41 80.5 14.4 C 81 13.8 81.7 13.1 82.1 12.5 C 82.3 12.2 82.5 11.8 82.5 11.5 C 82.5 11.1 82.2 10.9 81.8 10.9 C 81.4 10.9 81.1 11.1 81 11.6 C 81 11.6 80.4 11.4 80.4 11.4 C 80.4 10.7 81.1 10.3 81.8 10.3 C 82.5 10.3 83.2 10.8 83.2 11.5 C 83.2 11.9 83 12.4 82.7 12.8 C 82.3 13.3 81.8 13.9 81.4 14.4 C 81.36 14.41 83.4 14.4 83.4 14.4 L 83.4 15 L 80.5 15 Z M 87.1 10.9 C 87.1 10.9 85.3 10.94 85.3 10.9 C 85.3 11.4 85.3 11.9 85.2 12.2 C 85.4 12.1 85.7 12.1 85.9 12.1 C 86.7 12.1 87.3 12.7 87.3 13.5 C 87.3 14.4 86.7 15.1 85.8 15.1 C 85.2 15.1 84.6 14.8 84.3 14.3 C 84.3 14.3 84.8 14 84.8 14 C 85 14.3 85.3 14.5 85.7 14.5 C 86.3 14.5 86.7 14.1 86.7 13.6 C 86.7 13 86.3 12.7 85.7 12.7 C 85.4 12.7 85.2 12.8 85 13 C 85 13 84.5 12.7 84.5 12.7 C 84.6 12 84.6 11 84.7 10.4 C 84.68 10.35 87.1 10.4 87.1 10.4 L 87.1 10.9 Z M 90.8 10.7 C 90 11.1 89.3 11.6 89 12.5 C 89.3 12.2 89.7 12.1 90.1 12.1 C 90.9 12.1 91.4 12.7 91.4 13.6 C 91.4 14.4 90.8 15.1 90 15.1 C 88.9 15.1 88.3 14.2 88.3 13.2 C 88.3 11.7 89.3 10.6 90.6 10.1 C 90.6 10.1 90.8 10.7 90.8 10.7 Z M 88.9 13.2 C 88.9 13.9 89.2 14.5 89.9 14.5 C 90.4 14.5 90.8 14.1 90.8 13.5 C 90.8 13 90.5 12.6 89.9 12.6 C 89.5 12.6 89.1 12.9 88.9 13.2 Z " stroke="none" fill="#535a5d"/>  </g>  <g id="Polygon39831">    <path d="M 59.4 0.4 L 60.2 0.4 L 62.3 6 L 61.2 6 L 60.8 4.9 L 58.6 4.9 L 58.2 6 L 57.1 6 L 59.4 0.4 Z M 58.9 4.1 L 60.5 4.1 L 59.7 1.9 L 59.7 1.9 L 58.9 4.1 Z M 63.5 6 L 63.5 0.4 L 64.5 0.4 L 64.5 5.2 L 66.9 5.2 L 66.9 6 L 63.5 6 Z M 70.5 5.2 C 70.9 5.2 71.4 5.1 71.7 4.8 C 71.7 4.8 72.3 5.5 72.3 5.5 C 71.7 5.9 71.1 6.1 70.5 6.1 C 68.8 6.1 67.5 4.9 67.5 3.2 C 67.5 1.6 68.8 0.3 70.5 0.3 C 71.1 0.3 71.6 0.5 72.1 0.8 C 72.1 0.8 71.7 1.6 71.7 1.6 C 71.3 1.3 70.9 1.2 70.5 1.2 C 69.4 1.2 68.6 2 68.6 3.2 C 68.6 4.4 69.3 5.2 70.5 5.2 Z M 75.8 1.2 C 74.8 1.2 74 2.1 74 3.2 C 74 4.3 74.8 5.2 75.8 5.2 C 76.9 5.2 77.7 4.3 77.7 3.2 C 77.7 2.1 76.9 1.2 75.8 1.2 Z M 75.8 6.1 C 74.2 6.1 72.9 4.8 72.9 3.2 C 72.9 1.6 74.2 0.3 75.8 0.3 C 77.5 0.3 78.8 1.6 78.8 3.2 C 78.8 4.8 77.5 6.1 75.8 6.1 Z M 83.7 6 L 83 6 L 81.3 1.6 L 81.3 6 L 80.3 6 L 80.3 0.4 L 81.8 0.4 L 83.4 4.5 L 85 0.4 L 86.5 0.4 L 86.5 6 L 85.5 6 L 85.5 1.6 L 83.7 6 Z M 89.9 0.4 L 90.7 0.4 L 92.9 6 L 91.7 6 L 91.3 4.9 L 89.2 4.9 L 88.8 6 L 87.7 6 L 89.9 0.4 Z M 89.5 4.1 L 91 4.1 L 90.3 1.9 L 90.3 1.9 L 89.5 4.1 Z " stroke="none" fill="#535a5d"/>  </g></svg>