<?xml version="1.0" standalone="no"?><!DOCTYPE svg PUBLIC "-//W3C//DTD SVG 1.1//EN" "http://www.w3.org/Graphics/SVG/1.1/DTD/svg11.dtd"><svg xmlns="http://www.w3.org/2000/svg" version="1.1" width="114.1px" height="23.8px" viewBox="0 -4 114.1 23.8" style="top:-4px">  <desc>Gloriann A3000105</desc>  <defs/>  <g id="Polygon41843">    <path d="M 44.6 15 L 44.2 14 L 42.1 14 L 41.7 15 L 41 15 L 42.9 10.1 L 43.5 10.1 L 45.4 15 L 44.6 15 Z M 42.3 13.4 L 44 13.4 L 43.2 11.1 L 43.2 11.1 L 42.3 13.4 Z M 46.9 12.3 C 47.2 12.3 47.4 12.3 47.6 12.2 C 47.9 12.1 48.2 11.9 48.2 11.5 C 48.2 11.1 47.9 10.9 47.4 10.9 C 47.1 10.9 46.8 11 46.6 11.4 C 46.6 11.4 46.1 11.1 46.1 11.1 C 46.3 10.6 46.8 10.3 47.4 10.3 C 48.3 10.3 48.9 10.8 48.9 11.5 C 48.9 11.9 48.6 12.3 48.3 12.5 C 48.8 12.7 49.1 13.1 49.1 13.6 C 49.1 14.6 48.4 15.1 47.5 15.1 C 47 15.1 46.3 14.8 46.1 14.3 C 46.1 14.3 46.6 14 46.6 14 C 46.8 14.4 47.1 14.5 47.5 14.5 C 48 14.5 48.4 14.2 48.4 13.7 C 48.4 13.2 48 12.9 47.4 12.9 C 47.3 12.9 47.1 12.9 46.9 13 C 46.9 13 46.9 12.3 46.9 12.3 Z M 53.5 12.7 C 53.5 14.2 52.9 15.1 51.8 15.1 C 50.8 15.1 50.2 14.2 50.2 12.7 C 50.2 11.2 50.8 10.3 51.8 10.3 C 52.9 10.3 53.5 11.2 53.5 12.7 Z M 50.8 12.7 C 50.8 13.9 51.2 14.5 51.8 14.5 C 52.4 14.5 52.8 13.9 52.8 12.7 C 52.8 11.5 52.4 10.9 51.8 10.9 C 51.2 10.9 50.8 11.5 50.8 12.7 Z M 57.8 12.7 C 57.8 14.2 57.2 15.1 56.1 15.1 C 55.1 15.1 54.5 14.2 54.5 12.7 C 54.5 11.2 55.1 10.3 56.1 10.3 C 57.2 10.3 57.8 11.2 57.8 12.7 Z M 55.1 12.7 C 55.1 13.9 55.5 14.5 56.1 14.5 C 56.7 14.5 57.1 13.9 57.1 12.7 C 57.1 11.5 56.7 10.9 56.1 10.9 C 55.5 10.9 55.1 11.5 55.1 12.7 Z M 62.1 12.7 C 62.1 14.2 61.5 15.1 60.4 15.1 C 59.4 15.1 58.8 14.2 58.8 12.7 C 58.8 11.2 59.4 10.3 60.4 10.3 C 61.5 10.3 62.1 11.2 62.1 12.7 Z M 59.5 12.7 C 59.5 13.9 59.8 14.5 60.4 14.5 C 61 14.5 61.4 13.9 61.4 12.7 C 61.4 11.5 61 10.9 60.4 10.9 C 59.8 10.9 59.5 11.5 59.5 12.7 Z M 63.8 15 C 63.8 15 63.78 11.15 63.8 11.1 C 63.6 11.3 63.3 11.4 63.1 11.5 C 63.1 11.5 63.1 10.8 63.1 10.8 C 63.4 10.7 63.7 10.5 64 10.4 C 64.02 10.35 64.4 10.4 64.4 10.4 L 64.4 15 L 63.8 15 Z M 69 12.7 C 69 14.2 68.4 15.1 67.4 15.1 C 66.3 15.1 65.7 14.2 65.7 12.7 C 65.7 11.2 66.3 10.3 67.4 10.3 C 68.4 10.3 69 11.2 69 12.7 Z M 66.4 12.7 C 66.4 13.9 66.8 14.5 67.4 14.5 C 68 14.5 68.4 13.9 68.4 12.7 C 68.4 11.5 68 10.9 67.4 10.9 C 66.8 10.9 66.4 11.5 66.4 12.7 Z M 72.7 10.9 C 72.7 10.9 70.95 10.94 71 10.9 C 70.9 11.4 70.9 11.9 70.9 12.2 C 71.1 12.1 71.3 12.1 71.6 12.1 C 72.3 12.1 73 12.7 73 13.5 C 73 14.4 72.3 15.1 71.4 15.1 C 70.9 15.1 70.2 14.8 70 14.3 C 70 14.3 70.5 14 70.5 14 C 70.7 14.3 71 14.5 71.3 14.5 C 71.9 14.5 72.3 14.1 72.3 13.6 C 72.3 13 71.9 12.7 71.4 12.7 C 71.1 12.7 70.8 12.8 70.6 13 C 70.6 13 70.2 12.7 70.2 12.7 C 70.2 12 70.3 11 70.3 10.4 C 70.33 10.35 72.7 10.4 72.7 10.4 L 72.7 10.9 Z " stroke="none" fill="#535a5d"/>  </g>  <g id="Polygon41842">    <path d="M 38.2 3.7 L 38.2 2.8 L 40.6 2.8 C 40.6 2.8 40.6 4.98 40.6 5 C 40 5.7 39.2 6.1 38.2 6.1 C 36.5 6.1 35.2 4.9 35.2 3.2 C 35.2 1.6 36.6 0.3 38.2 0.3 C 39.1 0.3 39.9 0.7 40.5 1.4 C 40.5 1.4 39.8 2 39.8 2 C 39.4 1.5 38.9 1.2 38.2 1.2 C 37.1 1.2 36.3 2 36.3 3.2 C 36.3 4.4 37.1 5.2 38.2 5.2 C 38.7 5.2 39.2 5 39.6 4.7 C 39.6 4.68 39.6 3.7 39.6 3.7 L 38.2 3.7 Z M 42.2 6 L 42.2 0.4 L 43.2 0.4 L 43.2 5.2 L 45.6 5.2 L 45.6 6 L 42.2 6 Z M 49.1 1.2 C 48 1.2 47.3 2.1 47.3 3.2 C 47.3 4.3 48 5.2 49.1 5.2 C 50.2 5.2 51 4.3 51 3.2 C 51 2.1 50.2 1.2 49.1 1.2 Z M 49.1 6.1 C 47.5 6.1 46.2 4.8 46.2 3.2 C 46.2 1.6 47.5 0.3 49.1 0.3 C 50.8 0.3 52 1.6 52 3.2 C 52 4.8 50.8 6.1 49.1 6.1 Z M 55.3 0.4 C 56.2 0.4 57.3 0.9 57.3 2 C 57.3 3 56.6 3.4 56 3.6 C 55.98 3.62 57.7 6 57.7 6 L 56.5 6 L 54.9 3.7 L 54.5 3.7 L 54.5 6 L 53.5 6 L 53.5 0.4 C 53.5 0.4 55.27 0.4 55.3 0.4 Z M 55.1 2.9 C 55.7 2.9 56.2 2.6 56.2 2.1 C 56.2 1.6 55.8 1.2 55.2 1.2 C 55.24 1.25 54.5 1.2 54.5 1.2 L 54.5 2.9 C 54.5 2.9 55.08 2.86 55.1 2.9 Z M 58.9 6 L 58.9 0.4 L 59.9 0.4 L 59.9 6 L 58.9 6 Z M 63.4 0.4 L 64.2 0.4 L 66.3 6 L 65.2 6 L 64.8 4.9 L 62.7 4.9 L 62.3 6 L 61.2 6 L 63.4 0.4 Z M 63 4.1 L 64.5 4.1 L 63.7 1.9 L 63.7 1.9 L 63 4.1 Z M 71.3 6 L 68.6 2.2 L 68.6 6 L 67.6 6 L 67.6 0.4 L 68.4 0.4 L 71.2 4.2 L 71.2 0.4 L 72.2 0.4 L 72.2 6 L 71.3 6 Z M 77.7 6 L 75 2.2 L 75 6 L 74 6 L 74 0.4 L 74.8 0.4 L 77.6 4.2 L 77.6 0.4 L 78.6 0.4 L 78.6 6 L 77.7 6 Z " stroke="none" fill="#535a5d"/>  </g></svg>