<?xml version="1.0" standalone="no"?><!DOCTYPE svg PUBLIC "-//W3C//DTD SVG 1.1//EN" "http://www.w3.org/Graphics/SVG/1.1/DTD/svg11.dtd"><svg xmlns="http://www.w3.org/2000/svg" version="1.1" width="486px" height="184px" viewBox="0 -1 486 184" style="top:-1px">  <desc>Simple sophistication Sleek, refined, modern seating Stylish seating has never looked better Indulge in our wide</desc>  <defs/>  <g id="Polygon38958">    <path d="M 169.1 157.2 C 169.1 158.4 168.3 159.3 167.1 159.3 C 165.9 159.3 165.1 158.4 165.1 157.2 C 165.1 156 165.9 155.1 167.1 155.1 C 168.3 155.1 169.1 156 169.1 157.2 Z M 167.1 155.8 C 166.3 155.8 165.8 156.4 165.8 157.2 C 165.8 158 166.3 158.6 167.1 158.6 C 167.8 158.6 168.4 158 168.4 157.2 C 168.4 156.4 167.8 155.8 167.1 155.8 Z M 170.9 155.2 C 170.9 155.2 170.87 155.73 170.9 155.7 C 171.2 155.3 171.7 155.1 172.1 155.1 C 173.3 155.1 174.1 156 174.1 157.2 C 174.1 158.3 173.4 159.3 172.1 159.3 C 171.7 159.3 171.2 159.1 170.9 158.8 C 170.87 158.76 170.9 161.2 170.9 161.2 L 170.1 161.2 L 170.1 155.2 L 170.9 155.2 Z M 170.9 158 C 171.1 158.4 171.6 158.6 172 158.6 C 173 158.6 173.4 157.9 173.4 157.2 C 173.4 156.4 172.9 155.8 172 155.8 C 171.6 155.8 171.1 156 170.9 156.5 C 170.9 156.5 170.9 158 170.9 158 Z M 175.9 155.8 C 175.9 155.8 175.92 157.64 175.9 157.6 C 175.9 157.7 175.9 157.8 175.9 158 C 176 158.4 176.1 158.6 176.5 158.6 C 176.6 158.6 176.8 158.6 176.9 158.5 C 176.9 158.5 177.1 159.1 177.1 159.1 C 176.9 159.2 176.7 159.3 176.4 159.3 C 175.8 159.3 175.5 159 175.3 158.6 C 175.2 158.4 175.2 158.1 175.2 157.8 C 175.19 157.81 175.2 155.8 175.2 155.8 L 174.7 155.8 L 174.7 155.2 L 175.2 155.2 L 175.2 154.2 L 175.9 154.2 L 175.9 155.2 L 177 155.2 L 177 155.8 L 175.9 155.8 Z M 177.9 159.2 L 177.9 155.2 L 178.6 155.2 L 178.6 159.2 L 177.9 159.2 Z M 177.9 154.4 L 177.9 153.6 L 178.6 153.6 L 178.6 154.4 L 177.9 154.4 Z M 183.7 157.2 C 183.7 158.4 182.9 159.3 181.7 159.3 C 180.5 159.3 179.7 158.4 179.7 157.2 C 179.7 156 180.5 155.1 181.7 155.1 C 182.9 155.1 183.7 156 183.7 157.2 Z M 181.7 155.8 C 180.9 155.8 180.4 156.4 180.4 157.2 C 180.4 158 180.9 158.6 181.7 158.6 C 182.4 158.6 183 158 183 157.2 C 183 156.4 182.4 155.8 181.7 155.8 Z M 185.5 155.2 C 185.5 155.2 185.47 155.85 185.5 155.8 C 185.8 155.4 186.2 155.1 186.8 155.1 C 187.3 155.1 187.7 155.3 187.9 155.6 C 188.2 156 188.3 156.5 188.3 157.1 C 188.3 157.11 188.3 159.2 188.3 159.2 L 187.6 159.2 C 187.6 159.2 187.57 157.19 187.6 157.2 C 187.6 156.8 187.6 156.4 187.4 156.1 C 187.2 155.9 187 155.8 186.7 155.8 C 186.2 155.8 185.8 156.1 185.5 156.5 C 185.47 156.53 185.5 159.2 185.5 159.2 L 184.7 159.2 L 184.7 155.2 L 185.5 155.2 Z M 191.5 156 C 191.4 155.8 191 155.7 190.8 155.7 C 190.4 155.7 190.2 155.9 190.2 156.2 C 190.2 156.5 190.5 156.7 190.9 156.8 C 191.4 157 192.1 157.3 192.1 158 C 192.1 158.9 191.4 159.3 190.6 159.3 C 190.1 159.3 189.6 159.1 189.3 158.7 C 189.3 158.7 189.8 158.3 189.8 158.3 C 190 158.5 190.3 158.7 190.6 158.7 C 191 158.7 191.4 158.5 191.4 158.1 C 191.4 157.8 191 157.6 190.6 157.4 C 190.1 157.2 189.5 157 189.5 156.3 C 189.5 155.5 190.1 155.1 190.7 155.1 C 191.2 155.1 191.7 155.2 192 155.5 C 192 155.5 191.5 156 191.5 156 Z M 197.6 159.2 C 197.6 159.2 197.58 158.77 197.6 158.8 C 197.2 159.1 196.9 159.3 196.4 159.3 C 195.6 159.3 195 158.9 195 158.1 C 195 157.1 195.9 156.7 196.7 156.7 C 196.9 156.7 197.2 156.8 197.5 156.8 C 197.5 156.8 197.5 156.7 197.5 156.7 C 197.5 156.1 197.3 155.7 196.6 155.7 C 196.1 155.7 195.6 155.9 195.3 156.1 C 195.3 156.1 195.1 155.5 195.1 155.5 C 195.5 155.3 196.1 155.1 196.7 155.1 C 197.8 155.1 198.3 155.7 198.3 156.8 C 198.27 156.76 198.3 159.2 198.3 159.2 L 197.6 159.2 Z M 197.5 157.4 C 197.2 157.3 197 157.3 196.8 157.3 C 196.3 157.3 195.7 157.4 195.7 158 C 195.7 158.5 196 158.7 196.5 158.7 C 196.9 158.7 197.2 158.5 197.5 158.2 C 197.5 158.2 197.5 157.4 197.5 157.4 Z M 200.3 155.2 C 200.3 155.2 200.3 155.85 200.3 155.8 C 200.6 155.4 201.1 155.1 201.6 155.1 C 202.2 155.1 202.5 155.3 202.8 155.6 C 203 156 203.1 156.5 203.1 157.1 C 203.12 157.11 203.1 159.2 203.1 159.2 L 202.4 159.2 C 202.4 159.2 202.39 157.19 202.4 157.2 C 202.4 156.8 202.4 156.4 202.2 156.1 C 202.1 155.9 201.8 155.8 201.5 155.8 C 201 155.8 200.6 156.1 200.3 156.5 C 200.3 156.53 200.3 159.2 200.3 159.2 L 199.6 159.2 L 199.6 155.2 L 200.3 155.2 Z M 204.1 157.2 C 204.1 156.1 204.9 155.1 206.1 155.1 C 206.6 155.1 207 155.3 207.4 155.6 C 207.35 155.63 207.4 153.2 207.4 153.2 L 208.1 153.2 L 208.1 159.2 L 207.4 159.2 C 207.4 159.2 207.35 158.65 207.4 158.7 C 207.1 159.1 206.6 159.3 206.1 159.3 C 204.9 159.3 204.1 158.4 204.1 157.2 Z M 207.4 157.9 C 207.4 157.9 207.4 156.4 207.4 156.4 C 207.1 156 206.6 155.8 206.2 155.8 C 205.3 155.8 204.8 156.5 204.8 157.2 C 204.8 157.9 205.3 158.6 206.2 158.6 C 206.6 158.6 207.1 158.4 207.4 157.9 Z M 214.9 158.3 L 214.9 158.3 L 215.8 155.2 L 216.5 155.2 L 215.3 159.2 L 214.6 159.2 L 213.7 156.1 L 213.7 156.1 L 212.8 159.2 L 212 159.2 L 210.9 155.2 L 211.7 155.2 L 212.4 158.3 L 212.4 158.3 L 213.3 155.2 L 214.1 155.2 L 214.9 158.3 Z M 219.7 159.2 C 219.7 159.2 219.66 158.77 219.7 158.8 C 219.3 159.1 219 159.3 218.5 159.3 C 217.7 159.3 217 158.9 217 158.1 C 217 157.1 218 156.7 218.8 156.7 C 219 156.7 219.3 156.8 219.6 156.8 C 219.6 156.8 219.6 156.7 219.6 156.7 C 219.6 156.1 219.3 155.7 218.7 155.7 C 218.2 155.7 217.7 155.9 217.4 156.1 C 217.4 156.1 217.2 155.5 217.2 155.5 C 217.6 155.3 218.2 155.1 218.8 155.1 C 219.9 155.1 220.4 155.7 220.4 156.8 C 220.36 156.76 220.4 159.2 220.4 159.2 L 219.7 159.2 Z M 219.6 157.4 C 219.3 157.3 219.1 157.3 218.9 157.3 C 218.4 157.3 217.8 157.4 217.8 158 C 217.8 158.5 218.1 158.7 218.6 158.7 C 219 158.7 219.3 158.5 219.6 158.2 C 219.6 158.2 219.6 157.4 219.6 157.4 Z M 222.4 155.8 C 222.4 155.8 222.42 157.64 222.4 157.6 C 222.4 157.7 222.4 157.8 222.4 158 C 222.5 158.4 222.6 158.6 223 158.6 C 223.2 158.6 223.3 158.6 223.4 158.5 C 223.4 158.5 223.6 159.1 223.6 159.1 C 223.4 159.2 223.2 159.3 222.9 159.3 C 222.3 159.3 222 159 221.8 158.6 C 221.7 158.4 221.7 158.1 221.7 157.8 C 221.7 157.81 221.7 155.8 221.7 155.8 L 221.2 155.8 L 221.2 155.2 L 221.7 155.2 L 221.7 154.2 L 222.4 154.2 L 222.4 155.2 L 223.5 155.2 L 223.5 155.8 L 222.4 155.8 Z M 227.4 158.9 C 227.1 159.1 226.6 159.3 226.1 159.3 C 225 159.3 224.1 158.5 224.1 157.2 C 224.1 156 225 155.1 226.2 155.1 C 226.6 155.1 227 155.2 227.3 155.4 C 227.3 155.4 227 156 227 156 C 226.7 155.9 226.4 155.8 226.1 155.8 C 225.4 155.8 224.8 156.4 224.8 157.2 C 224.8 158.1 225.5 158.6 226.2 158.6 C 226.4 158.6 226.8 158.5 227 158.3 C 227 158.3 227.4 158.9 227.4 158.9 Z M 229 155.8 C 229.2 155.4 229.7 155.1 230.3 155.1 C 230.8 155.1 231.2 155.3 231.4 155.6 C 231.7 156 231.8 156.5 231.8 157.1 C 231.78 157.11 231.8 159.2 231.8 159.2 L 231 159.2 C 231 159.2 231.05 157.19 231 157.2 C 231 156.8 231 156.4 230.8 156.1 C 230.7 155.9 230.5 155.8 230.1 155.8 C 229.7 155.8 229.2 156.1 229 156.5 C 228.95 156.53 229 159.2 229 159.2 L 228.2 159.2 L 228.2 153.2 L 229 153.2 C 229 153.2 228.95 155.85 229 155.8 Z M 235.8 155.8 C 235.8 155.8 235.84 157.64 235.8 157.6 C 235.8 157.7 235.8 157.8 235.8 158 C 235.9 158.4 236 158.6 236.4 158.6 C 236.6 158.6 236.7 158.6 236.9 158.5 C 236.9 158.5 237.1 159.1 237.1 159.1 C 236.9 159.2 236.6 159.3 236.3 159.3 C 235.8 159.3 235.4 159 235.2 158.6 C 235.1 158.4 235.1 158.1 235.1 157.8 C 235.11 157.81 235.1 155.8 235.1 155.8 L 234.6 155.8 L 234.6 155.2 L 235.1 155.2 L 235.1 154.2 L 235.8 154.2 L 235.8 155.2 L 237 155.2 L 237 155.8 L 235.8 155.8 Z M 238.6 155.8 C 238.9 155.4 239.3 155.1 239.9 155.1 C 240.4 155.1 240.8 155.3 241 155.6 C 241.3 156 241.4 156.5 241.4 157.1 C 241.39 157.11 241.4 159.2 241.4 159.2 L 240.7 159.2 C 240.7 159.2 240.66 157.19 240.7 157.2 C 240.7 156.8 240.6 156.4 240.5 156.1 C 240.3 155.9 240.1 155.8 239.8 155.8 C 239.3 155.8 238.9 156.1 238.6 156.5 C 238.57 156.53 238.6 159.2 238.6 159.2 L 237.8 159.2 L 237.8 153.2 L 238.6 153.2 C 238.6 153.2 238.57 155.85 238.6 155.8 Z M 243.1 157.4 C 243.1 158.1 243.6 158.7 244.4 158.7 C 244.9 158.7 245.3 158.5 245.6 158 C 245.6 158 246.1 158.4 246.1 158.4 C 245.7 159 245.1 159.3 244.3 159.3 C 243.1 159.3 242.4 158.4 242.4 157.2 C 242.4 156 243.2 155.1 244.3 155.1 C 245.4 155.1 246.2 155.9 246.2 157 C 246.2 157.1 246.1 157.3 246.1 157.4 C 246.1 157.4 243.1 157.4 243.1 157.4 Z M 243.1 156.8 C 243.1 156.8 245.4 156.8 245.4 156.8 C 245.4 156.2 244.9 155.7 244.3 155.7 C 243.7 155.7 243.3 156.2 243.1 156.8 Z M 252.1 158.9 C 251.8 159.1 251.4 159.3 250.9 159.3 C 249.7 159.3 248.8 158.5 248.8 157.2 C 248.8 156 249.8 155.1 250.9 155.1 C 251.3 155.1 251.7 155.2 252 155.4 C 252 155.4 251.7 156 251.7 156 C 251.5 155.9 251.2 155.8 250.9 155.8 C 250.2 155.8 249.6 156.4 249.6 157.2 C 249.6 158.1 250.2 158.6 250.9 158.6 C 251.2 158.6 251.5 158.5 251.7 158.3 C 251.7 158.3 252.1 158.9 252.1 158.9 Z M 256.7 157.2 C 256.7 158.4 255.8 159.3 254.7 159.3 C 253.5 159.3 252.6 158.4 252.6 157.2 C 252.6 156 253.5 155.1 254.7 155.1 C 255.8 155.1 256.7 156 256.7 157.2 Z M 254.7 155.8 C 253.9 155.8 253.4 156.4 253.4 157.2 C 253.4 158 253.9 158.6 254.7 158.6 C 255.4 158.6 256 158 256 157.2 C 256 156.4 255.4 155.8 254.7 155.8 Z M 263 159.2 C 263 159.2 263.05 157.19 263 157.2 C 263 156.8 263 156.4 262.9 156.1 C 262.7 155.9 262.5 155.8 262.2 155.8 C 261.8 155.8 261.4 156 261.1 156.4 C 261.1 156.6 261.1 156.9 261.1 157.1 C 261.11 157.11 261.1 159.2 261.1 159.2 L 260.4 159.2 C 260.4 159.2 260.38 157.19 260.4 157.2 C 260.4 156.8 260.4 156.3 260.2 156 C 260 155.9 259.9 155.8 259.6 155.8 C 259.1 155.8 258.7 156.1 258.4 156.5 C 258.45 156.5 258.4 159.2 258.4 159.2 L 257.7 159.2 L 257.7 155.2 L 258.4 155.2 C 258.4 155.2 258.45 155.8 258.4 155.8 C 258.7 155.4 259.2 155.1 259.7 155.1 C 260.2 155.1 260.6 155.3 260.8 155.6 C 260.9 155.7 260.9 155.8 260.9 155.8 C 261.3 155.3 261.8 155.1 262.3 155.1 C 262.8 155.1 263.2 155.3 263.4 155.6 C 263.7 155.9 263.8 156.5 263.8 157.1 C 263.78 157.11 263.8 159.2 263.8 159.2 L 263 159.2 Z M 265.8 155.2 C 265.8 155.2 265.8 155.73 265.8 155.7 C 266.1 155.3 266.6 155.1 267.1 155.1 C 268.2 155.1 269.1 156 269.1 157.2 C 269.1 158.3 268.3 159.3 267.1 159.3 C 266.6 159.3 266.1 159.1 265.8 158.8 C 265.8 158.76 265.8 161.2 265.8 161.2 L 265.1 161.2 L 265.1 155.2 L 265.8 155.2 Z M 265.8 158 C 266.1 158.4 266.5 158.6 267 158.6 C 267.9 158.6 268.3 157.9 268.3 157.2 C 268.3 156.4 267.8 155.8 267 155.8 C 266.5 155.8 266 156 265.8 156.5 C 265.8 156.5 265.8 158 265.8 158 Z M 270.8 159.2 L 270.1 159.2 L 270.1 153.2 L 270.8 153.2 L 270.8 159.2 Z M 272.2 159.2 L 272.2 155.2 L 272.9 155.2 L 272.9 159.2 L 272.2 159.2 Z M 272.2 154.4 L 272.2 153.6 L 272.9 153.6 L 272.9 154.4 L 272.2 154.4 Z M 279.6 159.2 C 279.6 159.2 279.55 157.19 279.6 157.2 C 279.6 156.8 279.5 156.4 279.4 156.1 C 279.2 155.9 279 155.8 278.7 155.8 C 278.3 155.8 277.9 156 277.6 156.4 C 277.6 156.6 277.6 156.9 277.6 157.1 C 277.62 157.11 277.6 159.2 277.6 159.2 L 276.9 159.2 C 276.9 159.2 276.89 157.19 276.9 157.2 C 276.9 156.8 276.9 156.3 276.7 156 C 276.6 155.9 276.4 155.8 276.1 155.8 C 275.6 155.8 275.2 156.1 275 156.5 C 274.95 156.5 275 159.2 275 159.2 L 274.2 159.2 L 274.2 155.2 L 275 155.2 C 275 155.2 274.95 155.8 275 155.8 C 275.2 155.4 275.7 155.1 276.2 155.1 C 276.7 155.1 277.1 155.3 277.3 155.6 C 277.4 155.7 277.4 155.8 277.4 155.8 C 277.8 155.3 278.3 155.1 278.8 155.1 C 279.3 155.1 279.7 155.3 279.9 155.6 C 280.2 155.9 280.3 156.5 280.3 157.1 C 280.28 157.11 280.3 159.2 280.3 159.2 L 279.6 159.2 Z M 282 157.4 C 282 158.1 282.5 158.7 283.3 158.7 C 283.8 158.7 284.2 158.5 284.4 158 C 284.4 158 285 158.4 285 158.4 C 284.6 159 284 159.3 283.2 159.3 C 282 159.3 281.2 158.4 281.2 157.2 C 281.2 156 282.1 155.1 283.2 155.1 C 284.3 155.1 285 155.9 285 157 C 285 157.1 285 157.3 285 157.4 C 285 157.4 282 157.4 282 157.4 Z M 282 156.8 C 282 156.8 284.3 156.8 284.3 156.8 C 284.3 156.2 283.8 155.7 283.2 155.7 C 282.6 155.7 282.2 156.2 282 156.8 Z M 286.8 155.2 C 286.8 155.2 286.78 155.85 286.8 155.8 C 287.1 155.4 287.6 155.1 288.1 155.1 C 288.6 155.1 289 155.3 289.2 155.6 C 289.5 156 289.6 156.5 289.6 157.1 C 289.61 157.11 289.6 159.2 289.6 159.2 L 288.9 159.2 C 288.9 159.2 288.88 157.19 288.9 157.2 C 288.9 156.8 288.9 156.4 288.7 156.1 C 288.5 155.9 288.3 155.8 288 155.8 C 287.5 155.8 287.1 156.1 286.8 156.5 C 286.78 156.53 286.8 159.2 286.8 159.2 L 286.1 159.2 L 286.1 155.2 L 286.8 155.2 Z M 291.7 155.8 C 291.7 155.8 291.67 157.64 291.7 157.6 C 291.7 157.7 291.7 157.8 291.7 158 C 291.7 158.4 291.8 158.6 292.2 158.6 C 292.4 158.6 292.6 158.6 292.7 158.5 C 292.7 158.5 292.9 159.1 292.9 159.1 C 292.7 159.2 292.4 159.3 292.1 159.3 C 291.6 159.3 291.2 159 291.1 158.6 C 291 158.4 290.9 158.1 290.9 157.8 C 290.94 157.81 290.9 155.8 290.9 155.8 L 290.4 155.8 L 290.4 155.2 L 290.9 155.2 L 290.9 154.2 L 291.7 154.2 L 291.7 155.2 L 292.8 155.2 L 292.8 155.8 L 291.7 155.8 Z M 295.6 156 C 295.4 155.8 295.1 155.7 294.8 155.7 C 294.5 155.7 294.2 155.9 294.2 156.2 C 294.2 156.5 294.6 156.7 295 156.8 C 295.5 157 296.2 157.3 296.2 158 C 296.2 158.9 295.5 159.3 294.7 159.3 C 294.2 159.3 293.7 159.1 293.3 158.7 C 293.3 158.7 293.9 158.3 293.9 158.3 C 294.1 158.5 294.4 158.7 294.7 158.7 C 295.1 158.7 295.4 158.5 295.4 158.1 C 295.4 157.8 295.1 157.6 294.7 157.4 C 294.2 157.2 293.5 157 293.5 156.3 C 293.5 155.5 294.2 155.1 294.8 155.1 C 295.3 155.1 295.7 155.2 296.1 155.5 C 296.1 155.5 295.6 156 295.6 156 Z M 300 155.9 C 300.2 155.4 300.6 155.1 301 155.1 C 301.2 155.1 301.3 155.1 301.5 155.1 C 301.5 155.1 301.3 155.9 301.3 155.9 C 301.2 155.9 301.1 155.8 301 155.8 C 300.6 155.8 300.3 156.1 300 156.5 C 300.01 156.51 300 159.2 300 159.2 L 299.3 159.2 L 299.3 155.2 L 300 155.2 C 300 155.2 300.01 155.85 300 155.9 Z M 305.9 157.2 C 305.9 158.4 305 159.3 303.8 159.3 C 302.7 159.3 301.8 158.4 301.8 157.2 C 301.8 156 302.7 155.1 303.8 155.1 C 305 155.1 305.9 156 305.9 157.2 Z M 303.8 155.8 C 303.1 155.8 302.5 156.4 302.5 157.2 C 302.5 158 303.1 158.6 303.8 158.6 C 304.6 158.6 305.1 158 305.1 157.2 C 305.1 156.4 304.6 155.8 303.8 155.8 Z M 307.6 159.2 L 306.9 159.2 L 306.9 153.2 L 307.6 153.2 L 307.6 159.2 Z M 309.7 159.2 L 309 159.2 L 309 153.2 L 309.7 153.2 L 309.7 159.2 Z M 313 159.2 L 313 155.2 L 313.8 155.2 L 313.8 159.2 L 313 159.2 Z M 313 154.4 L 313 153.6 L 313.8 153.6 L 313.8 154.4 L 313 154.4 Z M 315.8 155.2 C 315.8 155.2 315.83 155.85 315.8 155.8 C 316.1 155.4 316.6 155.1 317.1 155.1 C 317.7 155.1 318.1 155.3 318.3 155.6 C 318.6 156 318.7 156.5 318.7 157.1 C 318.65 157.11 318.7 159.2 318.7 159.2 L 317.9 159.2 C 317.9 159.2 317.93 157.19 317.9 157.2 C 317.9 156.8 317.9 156.4 317.7 156.1 C 317.6 155.9 317.4 155.8 317 155.8 C 316.6 155.8 316.1 156.1 315.8 156.5 C 315.83 156.53 315.8 159.2 315.8 159.2 L 315.1 159.2 L 315.1 155.2 L 315.8 155.2 Z M 319.9 159.2 L 319.9 158.3 L 320.7 158.3 L 320.7 159.2 L 319.9 159.2 Z " stroke="none" fill="#535a5d"/>  </g>  <g id="Polygon38957">    <path d="M 97.2 143.2 C 96.6 143.2 96.2 143.5 96.2 144 C 96.2 144.4 96.8 144.6 97.4 144.8 C 98.2 145.1 99.1 145.5 99.1 146.5 C 99.1 147.8 98 148.3 97.1 148.3 C 96.3 148.3 95.7 148 95.1 147.4 C 95.1 147.4 95.6 146.9 95.6 146.9 C 96.2 147.5 96.6 147.6 97.1 147.6 C 97.7 147.6 98.3 147.3 98.3 146.6 C 98.3 146 97.7 145.8 97 145.6 C 96.3 145.3 95.4 144.9 95.4 144 C 95.4 143 96.2 142.5 97.1 142.5 C 97.8 142.5 98.4 142.7 98.9 143.1 C 98.9 143.1 98.4 143.6 98.4 143.6 C 98.1 143.4 97.7 143.2 97.2 143.2 Z M 101 144.8 C 101 144.8 101.04 146.64 101 146.6 C 101 146.7 101 146.8 101 147 C 101.1 147.4 101.2 147.6 101.6 147.6 C 101.8 147.6 101.9 147.6 102.1 147.5 C 102.1 147.5 102.3 148.1 102.3 148.1 C 102.1 148.2 101.8 148.3 101.5 148.3 C 100.9 148.3 100.6 148 100.4 147.6 C 100.3 147.4 100.3 147.1 100.3 146.8 C 100.31 146.81 100.3 144.8 100.3 144.8 L 99.8 144.8 L 99.8 144.2 L 100.3 144.2 L 100.3 143.2 L 101 143.2 L 101 144.2 L 102.2 144.2 L 102.2 144.8 L 101 144.8 Z M 103.3 144.2 L 104.4 147.2 L 104.4 147.2 L 105.5 144.2 L 106.3 144.2 L 104 150 L 103.4 149.7 L 104 148.1 L 102.5 144.2 L 103.3 144.2 Z M 107.7 148.2 L 107 148.2 L 107 142.2 L 107.7 142.2 L 107.7 148.2 Z M 109 148.2 L 109 144.2 L 109.8 144.2 L 109.8 148.2 L 109 148.2 Z M 109 143.4 L 109 142.6 L 109.8 142.6 L 109.8 143.4 L 109 143.4 Z M 113.1 145 C 112.9 144.8 112.6 144.7 112.3 144.7 C 111.9 144.7 111.7 144.9 111.7 145.2 C 111.7 145.5 112.1 145.7 112.4 145.8 C 113 146 113.6 146.3 113.6 147 C 113.6 147.9 112.9 148.3 112.2 148.3 C 111.6 148.3 111.1 148.1 110.8 147.7 C 110.8 147.7 111.3 147.3 111.3 147.3 C 111.6 147.5 111.9 147.7 112.2 147.7 C 112.6 147.7 112.9 147.5 112.9 147.1 C 112.9 146.8 112.5 146.6 112.1 146.4 C 111.6 146.2 111 146 111 145.3 C 111 144.5 111.6 144.1 112.3 144.1 C 112.7 144.1 113.2 144.2 113.5 144.5 C 113.5 144.5 113.1 145 113.1 145 Z M 115.5 144.8 C 115.7 144.4 116.2 144.1 116.8 144.1 C 117.3 144.1 117.7 144.3 117.9 144.6 C 118.2 145 118.3 145.5 118.3 146.1 C 118.28 146.11 118.3 148.2 118.3 148.2 L 117.6 148.2 C 117.6 148.2 117.55 146.19 117.6 146.2 C 117.6 145.8 117.5 145.4 117.3 145.1 C 117.2 144.9 117 144.8 116.6 144.8 C 116.2 144.8 115.7 145.1 115.5 145.5 C 115.45 145.53 115.5 148.2 115.5 148.2 L 114.7 148.2 L 114.7 142.2 L 115.5 142.2 C 115.5 142.2 115.45 144.85 115.5 144.8 Z M 123.5 145 C 123.3 144.8 123 144.7 122.7 144.7 C 122.4 144.7 122.1 144.9 122.1 145.2 C 122.1 145.5 122.5 145.7 122.9 145.8 C 123.4 146 124.1 146.3 124.1 147 C 124.1 147.9 123.4 148.3 122.6 148.3 C 122.1 148.3 121.6 148.1 121.2 147.7 C 121.2 147.7 121.8 147.3 121.8 147.3 C 122 147.5 122.3 147.7 122.6 147.7 C 123 147.7 123.4 147.5 123.4 147.1 C 123.4 146.8 123 146.6 122.6 146.4 C 122.1 146.2 121.4 146 121.4 145.3 C 121.4 144.5 122.1 144.1 122.7 144.1 C 123.2 144.1 123.6 144.2 124 144.5 C 124 144.5 123.5 145 123.5 145 Z M 125.6 146.4 C 125.6 147.1 126.1 147.7 126.9 147.7 C 127.4 147.7 127.8 147.5 128.1 147 C 128.1 147 128.6 147.4 128.6 147.4 C 128.2 148 127.6 148.3 126.8 148.3 C 125.6 148.3 124.8 147.4 124.8 146.2 C 124.8 145 125.7 144.1 126.8 144.1 C 127.9 144.1 128.7 144.9 128.7 146 C 128.7 146.1 128.6 146.3 128.6 146.4 C 128.6 146.4 125.6 146.4 125.6 146.4 Z M 125.6 145.8 C 125.6 145.8 127.9 145.8 127.9 145.8 C 127.9 145.2 127.4 144.7 126.8 144.7 C 126.2 144.7 125.8 145.2 125.6 145.8 Z M 132 148.2 C 132 148.2 132.04 147.77 132 147.8 C 131.7 148.1 131.3 148.3 130.8 148.3 C 130.1 148.3 129.4 147.9 129.4 147.1 C 129.4 146.1 130.3 145.7 131.2 145.7 C 131.4 145.7 131.7 145.8 132 145.8 C 132 145.8 132 145.7 132 145.7 C 132 145.1 131.7 144.7 131.1 144.7 C 130.6 144.7 130.1 144.9 129.8 145.1 C 129.8 145.1 129.6 144.5 129.6 144.5 C 130 144.3 130.6 144.1 131.1 144.1 C 132.3 144.1 132.7 144.7 132.7 145.8 C 132.73 145.76 132.7 148.2 132.7 148.2 L 132 148.2 Z M 132 146.4 C 131.7 146.3 131.5 146.3 131.3 146.3 C 130.8 146.3 130.1 146.4 130.1 147 C 130.1 147.5 130.5 147.7 130.9 147.7 C 131.3 147.7 131.7 147.5 132 147.2 C 132 147.2 132 146.4 132 146.4 Z M 134.8 144.8 C 134.8 144.8 134.8 146.64 134.8 146.6 C 134.8 146.7 134.8 146.8 134.8 147 C 134.8 147.4 135 147.6 135.4 147.6 C 135.5 147.6 135.7 147.6 135.8 147.5 C 135.8 147.5 136 148.1 136 148.1 C 135.8 148.2 135.5 148.3 135.3 148.3 C 134.7 148.3 134.4 148 134.2 147.6 C 134.1 147.4 134.1 147.1 134.1 146.8 C 134.07 146.81 134.1 144.8 134.1 144.8 L 133.5 144.8 L 133.5 144.2 L 134.1 144.2 L 134.1 143.2 L 134.8 143.2 L 134.8 144.2 L 135.9 144.2 L 135.9 144.8 L 134.8 144.8 Z M 136.8 148.2 L 136.8 144.2 L 137.5 144.2 L 137.5 148.2 L 136.8 148.2 Z M 136.8 143.4 L 136.8 142.6 L 137.5 142.6 L 137.5 143.4 L 136.8 143.4 Z M 139.6 144.2 C 139.6 144.2 139.6 144.85 139.6 144.8 C 139.9 144.4 140.4 144.1 140.9 144.1 C 141.5 144.1 141.8 144.3 142.1 144.6 C 142.3 145 142.4 145.5 142.4 146.1 C 142.42 146.11 142.4 148.2 142.4 148.2 L 141.7 148.2 C 141.7 148.2 141.69 146.19 141.7 146.2 C 141.7 145.8 141.7 145.4 141.5 145.1 C 141.4 144.9 141.1 144.8 140.8 144.8 C 140.3 144.8 139.9 145.1 139.6 145.5 C 139.6 145.53 139.6 148.2 139.6 148.2 L 138.9 148.2 L 138.9 144.2 L 139.6 144.2 Z M 147.4 148 C 147.4 148.4 147.3 148.7 147.2 149 C 146.8 149.7 146.1 150 145.4 150 C 144.7 150 144.1 149.8 143.6 149.4 C 143.6 149.4 143.9 148.8 143.9 148.8 C 144.2 149.1 144.8 149.3 145.3 149.3 C 146 149.3 146.7 149 146.7 148.1 C 146.7 148.1 146.7 147.6 146.7 147.6 C 146.4 148 145.9 148.2 145.4 148.2 C 144.2 148.2 143.4 147.3 143.4 146.1 C 143.4 145.1 144.2 144.1 145.4 144.1 C 145.9 144.1 146.3 144.3 146.7 144.6 C 146.65 144.63 146.7 144.2 146.7 144.2 L 147.4 144.2 C 147.4 144.2 147.38 147.97 147.4 148 Z M 146.7 145.4 C 146.4 145 145.9 144.8 145.5 144.8 C 144.6 144.8 144.1 145.5 144.1 146.2 C 144.1 146.9 144.7 147.5 145.5 147.5 C 145.9 147.5 146.4 147.3 146.7 146.8 C 146.7 146.8 146.7 145.4 146.7 145.4 Z M 151.4 144.8 C 151.7 144.4 152.2 144.1 152.7 144.1 C 153.3 144.1 153.6 144.3 153.9 144.6 C 154.1 145 154.2 145.5 154.2 146.1 C 154.23 146.11 154.2 148.2 154.2 148.2 L 153.5 148.2 C 153.5 148.2 153.5 146.19 153.5 146.2 C 153.5 145.8 153.5 145.4 153.3 145.1 C 153.2 144.9 152.9 144.8 152.6 144.8 C 152.1 144.8 151.7 145.1 151.4 145.5 C 151.4 145.53 151.4 148.2 151.4 148.2 L 150.7 148.2 L 150.7 142.2 L 151.4 142.2 C 151.4 142.2 151.4 144.85 151.4 144.8 Z M 157.9 148.2 C 157.9 148.2 157.9 147.77 157.9 147.8 C 157.6 148.1 157.2 148.3 156.7 148.3 C 156 148.3 155.3 147.9 155.3 147.1 C 155.3 146.1 156.2 145.7 157.1 145.7 C 157.3 145.7 157.5 145.8 157.9 145.8 C 157.9 145.8 157.9 145.7 157.9 145.7 C 157.9 145.1 157.6 144.7 156.9 144.7 C 156.5 144.7 156 144.9 155.7 145.1 C 155.7 145.1 155.4 144.5 155.4 144.5 C 155.9 144.3 156.5 144.1 157 144.1 C 158.2 144.1 158.6 144.7 158.6 145.8 C 158.6 145.76 158.6 148.2 158.6 148.2 L 157.9 148.2 Z M 157.9 146.4 C 157.6 146.3 157.3 146.3 157.1 146.3 C 156.7 146.3 156 146.4 156 147 C 156 147.5 156.4 147.7 156.8 147.7 C 157.2 147.7 157.5 147.5 157.9 147.2 C 157.9 147.2 157.9 146.4 157.9 146.4 Z M 161.8 145 C 161.7 144.8 161.3 144.7 161.1 144.7 C 160.7 144.7 160.5 144.9 160.5 145.2 C 160.5 145.5 160.8 145.7 161.2 145.8 C 161.7 146 162.4 146.3 162.4 147 C 162.4 147.9 161.7 148.3 160.9 148.3 C 160.4 148.3 159.9 148.1 159.6 147.7 C 159.6 147.7 160.1 147.3 160.1 147.3 C 160.3 147.5 160.6 147.7 160.9 147.7 C 161.3 147.7 161.7 147.5 161.7 147.1 C 161.7 146.8 161.3 146.6 160.9 146.4 C 160.4 146.2 159.8 146 159.8 145.3 C 159.8 144.5 160.4 144.1 161 144.1 C 161.5 144.1 162 144.2 162.3 144.5 C 162.3 144.5 161.8 145 161.8 145 Z M 166.2 144.2 C 166.2 144.2 166.23 144.85 166.2 144.8 C 166.5 144.4 167 144.1 167.5 144.1 C 168.1 144.1 168.5 144.3 168.7 144.6 C 169 145 169.1 145.5 169.1 146.1 C 169.05 146.11 169.1 148.2 169.1 148.2 L 168.3 148.2 C 168.3 148.2 168.33 146.19 168.3 146.2 C 168.3 145.8 168.3 145.4 168.1 145.1 C 168 144.9 167.8 144.8 167.4 144.8 C 167 144.8 166.5 145.1 166.2 145.5 C 166.23 145.53 166.2 148.2 166.2 148.2 L 165.5 148.2 L 165.5 144.2 L 166.2 144.2 Z M 170.7 146.4 C 170.8 147.1 171.3 147.7 172 147.7 C 172.6 147.7 173 147.5 173.2 147 C 173.2 147 173.7 147.4 173.7 147.4 C 173.3 148 172.8 148.3 172 148.3 C 170.7 148.3 170 147.4 170 146.2 C 170 145 170.9 144.1 172 144.1 C 173.1 144.1 173.8 144.9 173.8 146 C 173.8 146.1 173.8 146.3 173.8 146.4 C 173.8 146.4 170.7 146.4 170.7 146.4 Z M 170.8 145.8 C 170.8 145.8 173.1 145.8 173.1 145.8 C 173 145.2 172.6 144.7 172 144.7 C 171.4 144.7 170.9 145.2 170.8 145.8 Z M 177.9 144.2 L 176.4 148.2 L 175.7 148.2 L 174.2 144.2 L 175 144.2 L 176.1 147.3 L 176.1 147.3 L 177.2 144.2 L 177.9 144.2 Z M 179.1 146.4 C 179.1 147.1 179.6 147.7 180.3 147.7 C 180.9 147.7 181.3 147.5 181.5 147 C 181.5 147 182.1 147.4 182.1 147.4 C 181.7 148 181.1 148.3 180.3 148.3 C 179 148.3 178.3 147.4 178.3 146.2 C 178.3 145 179.2 144.1 180.3 144.1 C 181.4 144.1 182.1 144.9 182.1 146 C 182.1 146.1 182.1 146.3 182.1 146.4 C 182.1 146.4 179.1 146.4 179.1 146.4 Z M 179.1 145.8 C 179.1 145.8 181.4 145.8 181.4 145.8 C 181.3 145.2 180.9 144.7 180.3 144.7 C 179.7 144.7 179.3 145.2 179.1 145.8 Z M 183.9 144.9 C 184.1 144.4 184.5 144.1 184.9 144.1 C 185.1 144.1 185.2 144.1 185.3 144.1 C 185.3 144.1 185.2 144.9 185.2 144.9 C 185.1 144.9 185 144.8 184.8 144.8 C 184.4 144.8 184.1 145.1 183.9 145.5 C 183.87 145.51 183.9 148.2 183.9 148.2 L 183.1 148.2 L 183.1 144.2 L 183.9 144.2 C 183.9 144.2 183.87 144.85 183.9 144.9 Z M 188.7 148.2 L 188 148.2 L 188 142.2 L 188.7 142.2 L 188.7 148.2 Z M 193.8 146.2 C 193.8 147.4 192.9 148.3 191.8 148.3 C 190.6 148.3 189.7 147.4 189.7 146.2 C 189.7 145 190.6 144.1 191.8 144.1 C 192.9 144.1 193.8 145 193.8 146.2 Z M 191.8 144.8 C 191 144.8 190.5 145.4 190.5 146.2 C 190.5 147 191 147.6 191.8 147.6 C 192.5 147.6 193.1 147 193.1 146.2 C 193.1 145.4 192.5 144.8 191.8 144.8 Z M 198.6 146.2 C 198.6 147.4 197.7 148.3 196.5 148.3 C 195.4 148.3 194.5 147.4 194.5 146.2 C 194.5 145 195.4 144.1 196.5 144.1 C 197.7 144.1 198.6 145 198.6 146.2 Z M 196.5 144.8 C 195.8 144.8 195.2 145.4 195.2 146.2 C 195.2 147 195.8 147.6 196.5 147.6 C 197.3 147.6 197.8 147 197.8 146.2 C 197.8 145.4 197.3 144.8 196.5 144.8 Z M 202.1 148.2 L 200.9 146.4 L 200.3 147.1 L 200.3 148.2 L 199.6 148.2 L 199.6 142.2 L 200.3 142.2 L 200.3 146.2 L 200.3 146.2 L 201.9 144.2 L 202.8 144.2 L 201.4 145.8 L 203 148.2 L 202.1 148.2 Z M 204 146.4 C 204 147.1 204.5 147.7 205.2 147.7 C 205.8 147.7 206.2 147.5 206.4 147 C 206.4 147 207 147.4 207 147.4 C 206.6 148 206 148.3 205.2 148.3 C 203.9 148.3 203.2 147.4 203.2 146.2 C 203.2 145 204.1 144.1 205.2 144.1 C 206.3 144.1 207 144.9 207 146 C 207 146.1 207 146.3 207 146.4 C 207 146.4 204 146.4 204 146.4 Z M 204 145.8 C 204 145.8 206.3 145.8 206.3 145.8 C 206.3 145.2 205.8 144.7 205.2 144.7 C 204.6 144.7 204.2 145.2 204 145.8 Z M 207.7 146.2 C 207.7 145.1 208.5 144.1 209.7 144.1 C 210.2 144.1 210.7 144.3 211 144.6 C 210.98 144.63 211 142.2 211 142.2 L 211.7 142.2 L 211.7 148.2 L 211 148.2 C 211 148.2 210.98 147.65 211 147.7 C 210.7 148.1 210.2 148.3 209.7 148.3 C 208.6 148.3 207.7 147.4 207.7 146.2 Z M 211 146.9 C 211 146.9 211 145.4 211 145.4 C 210.7 145 210.2 144.8 209.8 144.8 C 208.9 144.8 208.5 145.5 208.5 146.2 C 208.5 146.9 209 147.6 209.8 147.6 C 210.2 147.6 210.8 147.4 211 146.9 Z M 215.8 142.2 C 215.8 142.2 215.78 144.73 215.8 144.7 C 216.1 144.3 216.6 144.1 217.1 144.1 C 218.2 144.1 219.1 145 219.1 146.2 C 219.1 147.3 218.3 148.3 217 148.3 C 216.6 148.3 216.1 148.1 215.8 147.8 C 215.78 147.76 215.8 148.2 215.8 148.2 L 215.1 148.2 L 215.1 142.2 L 215.8 142.2 Z M 215.8 147 C 216.1 147.4 216.5 147.6 216.9 147.6 C 217.9 147.6 218.3 146.9 218.3 146.2 C 218.3 145.4 217.8 144.8 217 144.8 C 216.5 144.8 216 145 215.8 145.5 C 215.8 145.5 215.8 147 215.8 147 Z M 220.5 146.4 C 220.5 147.1 221 147.7 221.7 147.7 C 222.3 147.7 222.7 147.5 222.9 147 C 222.9 147 223.5 147.4 223.5 147.4 C 223.1 148 222.5 148.3 221.7 148.3 C 220.4 148.3 219.7 147.4 219.7 146.2 C 219.7 145 220.6 144.1 221.7 144.1 C 222.8 144.1 223.5 144.9 223.5 146 C 223.5 146.1 223.5 146.3 223.5 146.4 C 223.5 146.4 220.5 146.4 220.5 146.4 Z M 220.5 145.8 C 220.5 145.8 222.8 145.8 222.8 145.8 C 222.7 145.2 222.3 144.7 221.7 144.7 C 221.1 144.7 220.7 145.2 220.5 145.8 Z M 228.1 144.8 C 228.1 144.8 228.08 146.64 228.1 146.6 C 228.1 146.7 228.1 146.8 228.1 147 C 228.1 147.4 228.2 147.6 228.6 147.6 C 228.8 147.6 229 147.6 229.1 147.5 C 229.1 147.5 229.3 148.1 229.3 148.1 C 229.1 148.2 228.8 148.3 228.5 148.3 C 228 148.3 227.6 148 227.5 147.6 C 227.4 147.4 227.3 147.1 227.3 146.8 C 227.35 146.81 227.3 144.8 227.3 144.8 L 226.8 144.8 L 226.8 144.2 L 227.3 144.2 L 227.3 143.2 L 228.1 143.2 L 228.1 144.2 L 229.2 144.2 L 229.2 144.8 L 228.1 144.8 Z M 225.3 144.8 C 225.3 144.8 225.31 146.64 225.3 146.6 C 225.3 146.7 225.3 146.8 225.3 147 C 225.3 147.4 225.5 147.6 225.9 147.6 C 226 147.6 226.2 147.6 226.3 147.5 C 226.3 147.5 226.5 148.1 226.5 148.1 C 226.3 148.2 226 148.3 225.8 148.3 C 225.2 148.3 224.9 148 224.7 147.6 C 224.6 147.4 224.6 147.1 224.6 146.8 C 224.58 146.81 224.6 144.8 224.6 144.8 L 224 144.8 L 224 144.2 L 224.6 144.2 L 224.6 143.2 L 225.3 143.2 L 225.3 144.2 L 226.4 144.2 L 226.4 144.8 L 225.3 144.8 Z M 230.5 146.4 C 230.5 147.1 231 147.7 231.8 147.7 C 232.3 147.7 232.7 147.5 232.9 147 C 232.9 147 233.5 147.4 233.5 147.4 C 233.1 148 232.5 148.3 231.7 148.3 C 230.5 148.3 229.7 147.4 229.7 146.2 C 229.7 145 230.6 144.1 231.7 144.1 C 232.8 144.1 233.5 144.9 233.5 146 C 233.5 146.1 233.5 146.3 233.5 146.4 C 233.5 146.4 230.5 146.4 230.5 146.4 Z M 230.5 145.8 C 230.5 145.8 232.8 145.8 232.8 145.8 C 232.8 145.2 232.3 144.7 231.7 144.7 C 231.1 144.7 230.7 145.2 230.5 145.8 Z M 235.3 144.9 C 235.5 144.4 235.9 144.1 236.3 144.1 C 236.5 144.1 236.6 144.1 236.7 144.1 C 236.7 144.1 236.6 144.9 236.6 144.9 C 236.5 144.9 236.4 144.8 236.2 144.8 C 235.8 144.8 235.5 145.1 235.3 145.5 C 235.28 145.51 235.3 148.2 235.3 148.2 L 234.6 148.2 L 234.6 144.2 L 235.3 144.2 C 235.3 144.2 235.28 144.85 235.3 144.9 Z M 236.9 148.2 L 236.9 147.3 L 237.8 147.3 L 237.8 148.2 L 236.9 148.2 Z M 241.1 148.2 L 241.1 142.6 L 241.9 142.6 L 241.9 148.2 L 241.1 148.2 Z M 244 144.2 C 244 144.2 244.03 144.85 244 144.8 C 244.3 144.4 244.8 144.1 245.3 144.1 C 245.9 144.1 246.3 144.3 246.5 144.6 C 246.8 145 246.9 145.5 246.9 146.1 C 246.85 146.11 246.9 148.2 246.9 148.2 L 246.1 148.2 C 246.1 148.2 246.12 146.19 246.1 146.2 C 246.1 145.8 246.1 145.4 245.9 145.1 C 245.8 144.9 245.6 144.8 245.2 144.8 C 244.8 144.8 244.3 145.1 244 145.5 C 244.03 145.53 244 148.2 244 148.2 L 243.3 148.2 L 243.3 144.2 L 244 144.2 Z M 247.8 146.2 C 247.8 145.1 248.6 144.1 249.8 144.1 C 250.3 144.1 250.8 144.3 251.1 144.6 C 251.08 144.63 251.1 142.2 251.1 142.2 L 251.8 142.2 L 251.8 148.2 L 251.1 148.2 C 251.1 148.2 251.08 147.65 251.1 147.7 C 250.8 148.1 250.3 148.3 249.8 148.3 C 248.7 148.3 247.8 147.4 247.8 146.2 Z M 251.1 146.9 C 251.1 146.9 251.1 145.4 251.1 145.4 C 250.8 145 250.3 144.8 249.9 144.8 C 249 144.8 248.6 145.5 248.6 146.2 C 248.6 146.9 249.1 147.6 249.9 147.6 C 250.3 147.6 250.9 147.4 251.1 146.9 Z M 255.9 147.5 C 255.6 148 255.2 148.3 254.6 148.3 C 254.1 148.3 253.7 148.1 253.5 147.8 C 253.2 147.4 253.1 146.9 253.1 146.3 C 253.11 146.27 253.1 144.2 253.1 144.2 L 253.8 144.2 C 253.8 144.2 253.84 146.19 253.8 146.2 C 253.8 146.6 253.9 147 254 147.3 C 254.2 147.5 254.4 147.6 254.7 147.6 C 255.2 147.6 255.6 147.3 255.9 146.8 C 255.93 146.85 255.9 144.2 255.9 144.2 L 256.7 144.2 L 256.7 148.2 L 255.9 148.2 C 255.9 148.2 255.93 147.53 255.9 147.5 Z M 258.7 148.2 L 258 148.2 L 258 142.2 L 258.7 142.2 L 258.7 148.2 Z M 263.7 148 C 263.7 148.4 263.7 148.7 263.5 149 C 263.2 149.7 262.5 150 261.7 150 C 261.1 150 260.4 149.8 260 149.4 C 260 149.4 260.2 148.8 260.2 148.8 C 260.6 149.1 261.2 149.3 261.7 149.3 C 262.4 149.3 263 149 263 148.1 C 263 148.1 263 147.6 263 147.6 C 262.7 148 262.2 148.2 261.7 148.2 C 260.6 148.2 259.7 147.3 259.7 146.1 C 259.7 145.1 260.5 144.1 261.8 144.1 C 262.2 144.1 262.7 144.3 263 144.6 C 263.01 144.63 263 144.2 263 144.2 L 263.7 144.2 C 263.7 144.2 263.74 147.97 263.7 148 Z M 263 145.4 C 262.7 145 262.3 144.8 261.9 144.8 C 260.9 144.8 260.5 145.5 260.5 146.2 C 260.5 146.9 261 147.5 261.8 147.5 C 262.3 147.5 262.8 147.3 263 146.8 C 263 146.8 263 145.4 263 145.4 Z M 265.4 146.4 C 265.5 147.1 265.9 147.7 266.7 147.7 C 267.2 147.7 267.7 147.5 267.9 147 C 267.9 147 268.4 147.4 268.4 147.4 C 268 148 267.5 148.3 266.7 148.3 C 265.4 148.3 264.7 147.4 264.7 146.2 C 264.7 145 265.6 144.1 266.7 144.1 C 267.7 144.1 268.5 144.9 268.5 146 C 268.5 146.1 268.5 146.3 268.5 146.4 C 268.5 146.4 265.4 146.4 265.4 146.4 Z M 265.5 145.8 C 265.5 145.8 267.8 145.8 267.8 145.8 C 267.7 145.2 267.3 144.7 266.7 144.7 C 266 144.7 265.6 145.2 265.5 145.8 Z M 271.5 148.2 L 271.5 144.2 L 272.2 144.2 L 272.2 148.2 L 271.5 148.2 Z M 271.5 143.4 L 271.5 142.6 L 272.2 142.6 L 272.2 143.4 L 271.5 143.4 Z M 274.3 144.2 C 274.3 144.2 274.32 144.85 274.3 144.8 C 274.6 144.4 275.1 144.1 275.6 144.1 C 276.2 144.1 276.5 144.3 276.8 144.6 C 277.1 145 277.1 145.5 277.1 146.1 C 277.14 146.11 277.1 148.2 277.1 148.2 L 276.4 148.2 C 276.4 148.2 276.41 146.19 276.4 146.2 C 276.4 145.8 276.4 145.4 276.2 145.1 C 276.1 144.9 275.9 144.8 275.5 144.8 C 275 144.8 274.6 145.1 274.3 145.5 C 274.32 145.53 274.3 148.2 274.3 148.2 L 273.6 148.2 L 273.6 144.2 L 274.3 144.2 Z M 284.2 146.2 C 284.2 147.4 283.3 148.3 282.1 148.3 C 281 148.3 280.1 147.4 280.1 146.2 C 280.1 145 281 144.1 282.1 144.1 C 283.3 144.1 284.2 145 284.2 146.2 Z M 282.1 144.8 C 281.4 144.8 280.8 145.4 280.8 146.2 C 280.8 147 281.4 147.6 282.1 147.6 C 282.9 147.6 283.4 147 283.4 146.2 C 283.4 145.4 282.9 144.8 282.1 144.8 Z M 288 147.5 C 287.7 148 287.2 148.3 286.7 148.3 C 286.1 148.3 285.7 148.1 285.5 147.8 C 285.2 147.4 285.1 146.9 285.1 146.3 C 285.14 146.27 285.1 144.2 285.1 144.2 L 285.9 144.2 C 285.9 144.2 285.87 146.19 285.9 146.2 C 285.9 146.6 285.9 147 286.1 147.3 C 286.2 147.5 286.4 147.6 286.8 147.6 C 287.2 147.6 287.7 147.3 288 146.8 C 287.96 146.85 288 144.2 288 144.2 L 288.7 144.2 L 288.7 148.2 L 288 148.2 C 288 148.2 287.96 147.53 288 147.5 Z M 290.8 144.9 C 291 144.4 291.4 144.1 291.8 144.1 C 292 144.1 292.1 144.1 292.2 144.1 C 292.2 144.1 292.1 144.9 292.1 144.9 C 292 144.9 291.9 144.8 291.7 144.8 C 291.3 144.8 291 145.1 290.8 145.5 C 290.76 145.51 290.8 148.2 290.8 148.2 L 290 148.2 L 290 144.2 L 290.8 144.2 C 290.8 144.2 290.76 144.85 290.8 144.9 Z M 298.4 147.3 L 298.4 147.3 L 299.2 144.2 L 300 144.2 L 298.8 148.2 L 298 148.2 L 297.2 145.1 L 297.1 145.1 L 296.3 148.2 L 295.5 148.2 L 294.3 144.2 L 295.1 144.2 L 295.9 147.3 L 295.9 147.3 L 296.8 144.2 L 297.6 144.2 L 298.4 147.3 Z M 300.8 148.2 L 300.8 144.2 L 301.5 144.2 L 301.5 148.2 L 300.8 148.2 Z M 300.8 143.4 L 300.8 142.6 L 301.5 142.6 L 301.5 143.4 L 300.8 143.4 Z M 302.5 146.2 C 302.5 145.1 303.3 144.1 304.5 144.1 C 305 144.1 305.4 144.3 305.8 144.6 C 305.76 144.63 305.8 142.2 305.8 142.2 L 306.5 142.2 L 306.5 148.2 L 305.8 148.2 C 305.8 148.2 305.76 147.65 305.8 147.7 C 305.5 148.1 305 148.3 304.5 148.3 C 303.3 148.3 302.5 147.4 302.5 146.2 Z M 305.8 146.9 C 305.8 146.9 305.8 145.4 305.8 145.4 C 305.5 145 305 144.8 304.6 144.8 C 303.7 144.8 303.2 145.5 303.2 146.2 C 303.2 146.9 303.8 147.6 304.6 147.6 C 305 147.6 305.6 147.4 305.8 146.9 Z M 308.2 146.4 C 308.3 147.1 308.7 147.7 309.5 147.7 C 310 147.7 310.5 147.5 310.7 147 C 310.7 147 311.2 147.4 311.2 147.4 C 310.8 148 310.3 148.3 309.5 148.3 C 308.2 148.3 307.5 147.4 307.5 146.2 C 307.5 145 308.4 144.1 309.5 144.1 C 310.5 144.1 311.3 144.9 311.3 146 C 311.3 146.1 311.3 146.3 311.3 146.4 C 311.3 146.4 308.2 146.4 308.2 146.4 Z M 308.3 145.8 C 308.3 145.8 310.6 145.8 310.6 145.8 C 310.5 145.2 310.1 144.7 309.5 144.7 C 308.8 144.7 308.4 145.2 308.3 145.8 Z M 316.7 148.2 C 316.7 148.2 316.69 147.77 316.7 147.8 C 316.4 148.1 316 148.3 315.5 148.3 C 314.8 148.3 314.1 147.9 314.1 147.1 C 314.1 146.1 315 145.7 315.9 145.7 C 316.1 145.7 316.3 145.8 316.7 145.8 C 316.7 145.8 316.7 145.7 316.7 145.7 C 316.7 145.1 316.4 144.7 315.7 144.7 C 315.3 144.7 314.8 144.9 314.4 145.1 C 314.4 145.1 314.2 144.5 314.2 144.5 C 314.6 144.3 315.3 144.1 315.8 144.1 C 317 144.1 317.4 144.7 317.4 145.8 C 317.39 145.76 317.4 148.2 317.4 148.2 L 316.7 148.2 Z M 316.7 146.4 C 316.4 146.3 316.1 146.3 315.9 146.3 C 315.4 146.3 314.8 146.4 314.8 147 C 314.8 147.5 315.2 147.7 315.6 147.7 C 316 147.7 316.3 147.5 316.7 147.2 C 316.7 147.2 316.7 146.4 316.7 146.4 Z M 319.4 144.9 C 319.7 144.4 320 144.1 320.4 144.1 C 320.6 144.1 320.7 144.1 320.9 144.1 C 320.9 144.1 320.7 144.9 320.7 144.9 C 320.6 144.9 320.5 144.8 320.4 144.8 C 320 144.8 319.7 145.1 319.4 145.5 C 319.41 145.51 319.4 148.2 319.4 148.2 L 318.7 148.2 L 318.7 144.2 L 319.4 144.2 C 319.4 144.2 319.41 144.85 319.4 144.9 Z M 322.3 144.9 C 322.5 144.4 322.9 144.1 323.3 144.1 C 323.5 144.1 323.6 144.1 323.7 144.1 C 323.7 144.1 323.6 144.9 323.6 144.9 C 323.5 144.9 323.4 144.8 323.2 144.8 C 322.8 144.8 322.5 145.1 322.3 145.5 C 322.27 145.51 322.3 148.2 322.3 148.2 L 321.5 148.2 L 321.5 144.2 L 322.3 144.2 C 322.3 144.2 322.27 144.85 322.3 144.9 Z M 326.8 148.2 C 326.8 148.2 326.77 147.77 326.8 147.8 C 326.4 148.1 326.1 148.3 325.6 148.3 C 324.8 148.3 324.2 147.9 324.2 147.1 C 324.2 146.1 325.1 145.7 325.9 145.7 C 326.1 145.7 326.4 145.8 326.7 145.8 C 326.7 145.8 326.7 145.7 326.7 145.7 C 326.7 145.1 326.5 144.7 325.8 144.7 C 325.3 144.7 324.8 144.9 324.5 145.1 C 324.5 145.1 324.3 144.5 324.3 144.5 C 324.7 144.3 325.3 144.1 325.9 144.1 C 327 144.1 327.5 144.7 327.5 145.8 C 327.47 145.76 327.5 148.2 327.5 148.2 L 326.8 148.2 Z M 326.7 146.4 C 326.4 146.3 326.2 146.3 326 146.3 C 325.5 146.3 324.9 146.4 324.9 147 C 324.9 147.5 325.2 147.7 325.7 147.7 C 326.1 147.7 326.4 147.5 326.7 147.2 C 326.7 147.2 326.7 146.4 326.7 146.4 Z M 328.9 144.2 L 330 147.2 L 330 147.2 L 331.1 144.2 L 331.9 144.2 L 329.6 150 L 329 149.7 L 329.6 148.1 L 328.1 144.2 L 328.9 144.2 Z M 338.3 146.2 C 338.3 147.4 337.5 148.3 336.3 148.3 C 335.1 148.3 334.2 147.4 334.2 146.2 C 334.2 145 335.1 144.1 336.3 144.1 C 337.5 144.1 338.3 145 338.3 146.2 Z M 336.3 144.8 C 335.5 144.8 335 145.4 335 146.2 C 335 147 335.5 147.6 336.3 147.6 C 337 147.6 337.6 147 337.6 146.2 C 337.6 145.4 337 144.8 336.3 144.8 Z M 341.4 142.9 C 341.2 142.8 341.1 142.8 340.9 142.8 C 340.7 142.8 340.5 142.8 340.4 142.9 C 340.2 143 340.2 143.3 340.2 143.7 C 340.21 143.69 340.2 144.2 340.2 144.2 L 341.3 144.2 L 341.3 144.8 L 340.2 144.8 L 340.2 148.2 L 339.5 148.2 L 339.5 144.8 L 339 144.8 L 339 144.2 L 339.5 144.2 C 339.5 144.2 339.48 143.61 339.5 143.6 C 339.5 143.2 339.6 142.8 339.7 142.6 C 339.9 142.3 340.3 142.1 340.8 142.1 C 341.1 142.1 341.4 142.2 341.6 142.3 C 341.6 142.3 341.4 142.9 341.4 142.9 Z M 344.4 146.4 C 344.5 147.1 344.9 147.7 345.7 147.7 C 346.2 147.7 346.7 147.5 346.9 147 C 346.9 147 347.4 147.4 347.4 147.4 C 347 148 346.5 148.3 345.7 148.3 C 344.4 148.3 343.7 147.4 343.7 146.2 C 343.7 145 344.6 144.1 345.7 144.1 C 346.7 144.1 347.5 144.9 347.5 146 C 347.5 146.1 347.5 146.3 347.5 146.4 C 347.5 146.4 344.4 146.4 344.4 146.4 Z M 344.5 145.8 C 344.5 145.8 346.7 145.8 346.7 145.8 C 346.7 145.2 346.3 144.7 345.7 144.7 C 345 144.7 344.6 145.2 344.5 145.8 Z M 348.7 144.2 L 349.7 147.2 L 349.7 147.2 L 350.8 144.2 L 351.6 144.2 L 349.4 150 L 348.7 149.7 L 349.3 148.1 L 347.9 144.2 L 348.7 144.2 Z M 352.7 146.4 C 352.8 147.1 353.2 147.7 354 147.7 C 354.5 147.7 355 147.5 355.2 147 C 355.2 147 355.7 147.4 355.7 147.4 C 355.3 148 354.8 148.3 354 148.3 C 352.7 148.3 352 147.4 352 146.2 C 352 145 352.9 144.1 354 144.1 C 355 144.1 355.8 144.9 355.8 146 C 355.8 146.1 355.8 146.3 355.8 146.4 C 355.8 146.4 352.7 146.4 352.7 146.4 Z M 352.8 145.8 C 352.8 145.8 355 145.8 355 145.8 C 355 145.2 354.6 144.7 354 144.7 C 353.3 144.7 352.9 145.2 352.8 145.8 Z M 356.9 146.3 L 356.9 145.6 L 359 145.6 L 359 146.3 L 356.9 146.3 Z M 363.4 147.9 C 363.1 148.1 362.7 148.3 362.2 148.3 C 361 148.3 360.1 147.5 360.1 146.2 C 360.1 145 361.1 144.1 362.2 144.1 C 362.7 144.1 363 144.2 363.4 144.4 C 363.4 144.4 363 145 363 145 C 362.8 144.9 362.5 144.8 362.2 144.8 C 361.5 144.8 360.9 145.4 360.9 146.2 C 360.9 147.1 361.5 147.6 362.2 147.6 C 362.5 147.6 362.8 147.5 363.1 147.3 C 363.1 147.3 363.4 147.9 363.4 147.9 Z M 366.7 148.2 C 366.7 148.2 366.66 147.77 366.7 147.8 C 366.3 148.1 366 148.3 365.5 148.3 C 364.7 148.3 364 147.9 364 147.1 C 364 146.1 364.9 145.7 365.8 145.7 C 366 145.7 366.3 145.8 366.6 145.8 C 366.6 145.8 366.6 145.7 366.6 145.7 C 366.6 145.1 366.3 144.7 365.7 144.7 C 365.2 144.7 364.7 144.9 364.4 145.1 C 364.4 145.1 364.2 144.5 364.2 144.5 C 364.6 144.3 365.2 144.1 365.8 144.1 C 366.9 144.1 367.4 144.7 367.4 145.8 C 367.35 145.76 367.4 148.2 367.4 148.2 L 366.7 148.2 Z M 366.6 146.4 C 366.3 146.3 366.1 146.3 365.9 146.3 C 365.4 146.3 364.8 146.4 364.8 147 C 364.8 147.5 365.1 147.7 365.5 147.7 C 366 147.7 366.3 147.5 366.6 147.2 C 366.6 147.2 366.6 146.4 366.6 146.4 Z M 369.4 144.8 C 369.4 144.8 369.42 146.64 369.4 146.6 C 369.4 146.7 369.4 146.8 369.4 147 C 369.4 147.4 369.6 147.6 370 147.6 C 370.1 147.6 370.3 147.6 370.4 147.5 C 370.4 147.5 370.6 148.1 370.6 148.1 C 370.4 148.2 370.2 148.3 369.9 148.3 C 369.3 148.3 369 148 368.8 147.6 C 368.7 147.4 368.7 147.1 368.7 146.8 C 368.69 146.81 368.7 144.8 368.7 144.8 L 368.2 144.8 L 368.2 144.2 L 368.7 144.2 L 368.7 143.2 L 369.4 143.2 L 369.4 144.2 L 370.5 144.2 L 370.5 144.8 L 369.4 144.8 Z M 374.4 147.9 C 374.1 148.1 373.6 148.3 373.1 148.3 C 372 148.3 371.1 147.5 371.1 146.2 C 371.1 145 372 144.1 373.2 144.1 C 373.6 144.1 374 144.2 374.3 144.4 C 374.3 144.4 374 145 374 145 C 373.7 144.9 373.4 144.8 373.1 144.8 C 372.4 144.8 371.8 145.4 371.8 146.2 C 371.8 147.1 372.4 147.6 373.1 147.6 C 373.4 147.6 373.8 147.5 374 147.3 C 374 147.3 374.4 147.9 374.4 147.9 Z M 375.9 144.8 C 376.2 144.4 376.7 144.1 377.3 144.1 C 377.8 144.1 378.2 144.3 378.4 144.6 C 378.7 145 378.8 145.5 378.8 146.1 C 378.77 146.11 378.8 148.2 378.8 148.2 L 378 148.2 C 378 148.2 378.04 146.19 378 146.2 C 378 145.8 378 145.4 377.8 145.1 C 377.7 144.9 377.5 144.8 377.1 144.8 C 376.7 144.8 376.2 145.1 375.9 145.5 C 375.95 145.53 375.9 148.2 375.9 148.2 L 375.2 148.2 L 375.2 142.2 L 375.9 142.2 C 375.9 142.2 375.95 144.85 375.9 144.8 Z M 380.1 148.2 L 380.1 144.2 L 380.8 144.2 L 380.8 148.2 L 380.1 148.2 Z M 380.1 143.4 L 380.1 142.6 L 380.8 142.6 L 380.8 143.4 L 380.1 143.4 Z M 382.9 144.2 C 382.9 144.2 382.87 144.85 382.9 144.8 C 383.2 144.4 383.6 144.1 384.2 144.1 C 384.7 144.1 385.1 144.3 385.3 144.6 C 385.6 145 385.7 145.5 385.7 146.1 C 385.69 146.11 385.7 148.2 385.7 148.2 L 385 148.2 C 385 148.2 384.96 146.19 385 146.2 C 385 145.8 384.9 145.4 384.8 145.1 C 384.6 144.9 384.4 144.8 384.1 144.8 C 383.6 144.8 383.2 145.1 382.9 145.5 C 382.87 145.53 382.9 148.2 382.9 148.2 L 382.1 148.2 L 382.1 144.2 L 382.9 144.2 Z M 390.6 148 C 390.6 148.4 390.6 148.7 390.4 149 C 390.1 149.7 389.4 150 388.6 150 C 388 150 387.3 149.8 386.9 149.4 C 386.9 149.4 387.1 148.8 387.1 148.8 C 387.5 149.1 388.1 149.3 388.6 149.3 C 389.3 149.3 389.9 149 389.9 148.1 C 389.9 148.1 389.9 147.6 389.9 147.6 C 389.6 148 389.1 148.2 388.6 148.2 C 387.5 148.2 386.7 147.3 386.7 146.1 C 386.7 145.1 387.4 144.1 388.7 144.1 C 389.1 144.1 389.6 144.3 389.9 144.6 C 389.92 144.63 389.9 144.2 389.9 144.2 L 390.6 144.2 C 390.6 144.2 390.65 147.97 390.6 148 Z M 389.9 145.4 C 389.6 145 389.2 144.8 388.8 144.8 C 387.8 144.8 387.4 145.5 387.4 146.2 C 387.4 146.9 387.9 147.5 388.7 147.5 C 389.2 147.5 389.7 147.3 389.9 146.8 C 389.9 146.8 389.9 145.4 389.9 145.4 Z " stroke="none" fill="#535a5d"/>  </g>  <g id="Polygon38956">    <path d="M 128.8 101.2 C 127.9 101.2 127.2 101.6 127.2 102.3 C 127.2 103.1 128.1 103.4 129 103.7 C 130.3 104.1 131.8 104.7 131.8 106.5 C 131.8 108.5 130 109.3 128.6 109.3 C 127.2 109.3 126.2 108.9 125.2 107.9 C 125.2 107.9 126.2 107 126.2 107 C 127 107.8 127.7 108.1 128.6 108.1 C 129.5 108.1 130.3 107.7 130.3 106.6 C 130.3 105.7 129.4 105.4 128.4 105 C 127.1 104.6 125.8 104 125.8 102.5 C 125.8 100.7 127.1 99.9 128.6 99.9 C 129.7 99.9 130.7 100.3 131.5 100.9 C 131.5 100.9 130.7 101.9 130.7 101.9 C 130.2 101.5 129.5 101.2 128.8 101.2 Z M 134.3 109.2 L 134.3 100.1 L 135.7 100.1 L 135.7 108 L 139.6 108 L 139.6 109.2 L 134.3 109.2 Z M 141.5 109.2 L 141.5 100.1 L 147 100.1 L 147 101.3 L 142.9 101.3 L 142.9 103.9 L 147 103.9 L 147 105.1 L 142.9 105.1 L 142.9 108 L 147 108 L 147 109.2 L 141.5 109.2 Z M 149.7 109.2 L 149.7 100.1 L 155.2 100.1 L 155.2 101.3 L 151.1 101.3 L 151.1 103.9 L 155.2 103.9 L 155.2 105.1 L 151.1 105.1 L 151.1 108 L 155.2 108 L 155.2 109.2 L 149.7 109.2 Z M 161.6 103.7 L 164.8 109.2 L 163.1 109.2 L 160.6 104.8 L 159.3 106.4 L 159.3 109.2 L 157.9 109.2 L 157.9 100.1 L 159.3 100.1 L 159.3 104.5 L 162.9 100.1 L 164.6 100.1 L 161.6 103.7 Z M 167.2 110.9 L 165.9 110.9 L 166.6 107.6 L 168.1 107.6 L 167.2 110.9 Z M 177.5 100.1 C 178.9 100.1 180.6 100.8 180.6 102.7 C 180.6 104.3 179.5 105 178.5 105.3 C 178.46 105.29 181.3 109.2 181.3 109.2 L 179.6 109.2 L 176.9 105.4 L 176.1 105.4 L 176.1 109.2 L 174.7 109.2 L 174.7 100.1 C 174.7 100.1 177.45 100.09 177.5 100.1 Z M 176.1 104.2 C 176.1 104.2 177.14 104.17 177.1 104.2 C 178.3 104.2 179.1 103.8 179.1 102.8 C 179.1 101.9 178.4 101.3 177.4 101.3 C 177.39 101.31 176.1 101.3 176.1 101.3 L 176.1 104.2 Z M 183.4 109.2 L 183.4 100.1 L 188.9 100.1 L 188.9 101.3 L 184.8 101.3 L 184.8 103.9 L 188.9 103.9 L 188.9 105.1 L 184.8 105.1 L 184.8 108 L 188.9 108 L 188.9 109.2 L 183.4 109.2 Z M 193 105.4 L 193 109.2 L 191.6 109.2 L 191.6 100.1 L 196.3 100.1 L 196.3 101.3 L 193 101.3 L 193 104.1 L 196.3 104.1 L 196.3 105.4 L 193 105.4 Z M 198.7 109.2 L 198.7 100.1 L 200.1 100.1 L 200.1 109.2 L 198.7 109.2 Z M 209.3 109.2 L 204.5 102.7 L 204.5 109.2 L 203.1 109.2 L 203.1 100.1 L 204.3 100.1 L 209.1 106.6 L 209.1 100.1 L 210.5 100.1 L 210.5 109.2 L 209.3 109.2 Z M 213.5 109.2 L 213.5 100.1 L 219.1 100.1 L 219.1 101.3 L 214.9 101.3 L 214.9 103.9 L 219.1 103.9 L 219.1 105.1 L 214.9 105.1 L 214.9 108 L 219.1 108 L 219.1 109.2 L 213.5 109.2 Z M 221.7 100.1 C 221.7 100.1 224.23 100.09 224.2 100.1 C 226.6 100.1 229.1 101.3 229.1 104.6 C 229.1 108 226.6 109.2 224.1 109.2 C 224.11 109.19 221.7 109.2 221.7 109.2 L 221.7 100.1 Z M 224 101.3 C 224.01 101.31 223.1 101.3 223.1 101.3 L 223.1 108 C 223.1 108 223.5 107.97 223.5 108 C 226 108 227.7 107.2 227.7 104.7 C 227.7 102.5 226.3 101.3 224 101.3 Z M 231.7 110.9 L 230.4 110.9 L 231.1 107.6 L 232.6 107.6 L 231.7 110.9 Z M 244.5 109.2 L 243.5 109.2 L 240.6 101.8 L 240.6 109.2 L 239.2 109.2 L 239.2 100.1 L 241.3 100.1 L 244 107 L 246.8 100.1 L 248.9 100.1 L 248.9 109.2 L 247.5 109.2 L 247.5 101.8 L 244.5 109.2 Z M 256.2 101.2 C 254.3 101.2 253 102.7 253 104.6 C 253 106.6 254.3 108.1 256.2 108.1 C 258.1 108.1 259.4 106.6 259.4 104.6 C 259.4 102.7 258.1 101.2 256.2 101.2 Z M 256.2 109.3 C 253.5 109.3 251.5 107.2 251.5 104.6 C 251.5 102 253.5 99.9 256.2 99.9 C 258.9 99.9 260.9 102 260.9 104.6 C 260.9 107.2 258.9 109.3 256.2 109.3 Z M 263.5 100.1 C 263.5 100.1 265.98 100.09 266 100.1 C 268.3 100.1 270.9 101.3 270.9 104.6 C 270.9 108 268.3 109.2 265.9 109.2 C 265.87 109.19 263.5 109.2 263.5 109.2 L 263.5 100.1 Z M 265.8 101.3 C 265.76 101.31 264.9 101.3 264.9 101.3 L 264.9 108 C 264.9 108 265.26 107.97 265.3 108 C 267.7 108 269.4 107.2 269.4 104.7 C 269.4 102.5 268.1 101.3 265.8 101.3 Z M 273.5 109.2 L 273.5 100.1 L 279 100.1 L 279 101.3 L 274.9 101.3 L 274.9 103.9 L 279 103.9 L 279 105.1 L 274.9 105.1 L 274.9 108 L 279 108 L 279 109.2 L 273.5 109.2 Z M 284.4 100.1 C 285.8 100.1 287.6 100.8 287.6 102.7 C 287.6 104.3 286.5 105 285.4 105.3 C 285.41 105.29 288.3 109.2 288.3 109.2 L 286.5 109.2 L 283.8 105.4 L 283.1 105.4 L 283.1 109.2 L 281.7 109.2 L 281.7 100.1 C 281.7 100.1 284.4 100.09 284.4 100.1 Z M 283.1 104.2 C 283.1 104.2 284.09 104.17 284.1 104.2 C 285.2 104.2 286.1 103.8 286.1 102.8 C 286.1 101.9 285.4 101.3 284.3 101.3 C 284.34 101.31 283.1 101.3 283.1 101.3 L 283.1 104.2 Z M 296.5 109.2 L 291.7 102.7 L 291.7 109.2 L 290.3 109.2 L 290.3 100.1 L 291.6 100.1 L 296.4 106.6 L 296.4 100.1 L 297.8 100.1 L 297.8 109.2 L 296.5 109.2 Z M 307.6 101.2 C 306.7 101.2 306.1 101.6 306.1 102.3 C 306.1 103.1 306.9 103.4 307.8 103.7 C 309.1 104.1 310.7 104.7 310.7 106.5 C 310.7 108.5 308.8 109.3 307.4 109.3 C 306 109.3 305 108.9 304.1 107.9 C 304.1 107.9 305 107 305 107 C 305.9 107.8 306.5 108.1 307.4 108.1 C 308.3 108.1 309.2 107.7 309.2 106.6 C 309.2 105.7 308.2 105.4 307.2 105 C 306 104.6 304.7 104 304.7 102.5 C 304.7 100.7 306 99.9 307.5 99.9 C 308.6 99.9 309.5 100.3 310.3 100.9 C 310.3 100.9 309.5 101.9 309.5 101.9 C 309 101.5 308.3 101.2 307.6 101.2 Z M 313.1 109.2 L 313.1 100.1 L 318.7 100.1 L 318.7 101.3 L 314.5 101.3 L 314.5 103.9 L 318.7 103.9 L 318.7 105.1 L 314.5 105.1 L 314.5 108 L 318.7 108 L 318.7 109.2 L 313.1 109.2 Z M 326.4 107.3 L 322.7 107.3 L 322 109.2 L 320.5 109.2 L 324.1 100.1 L 325.3 100.1 L 328.7 109.2 L 327.1 109.2 L 326.4 107.3 Z M 323.2 106.1 L 326 106.1 L 324.6 102.2 L 324.6 102.2 L 323.2 106.1 Z M 332.9 101.3 L 332.9 109.2 L 331.5 109.2 L 331.5 101.3 L 329.3 101.3 L 329.3 100.1 L 335.2 100.1 L 335.2 101.3 L 332.9 101.3 Z M 337.2 109.2 L 337.2 100.1 L 338.6 100.1 L 338.6 109.2 L 337.2 109.2 Z M 347.8 109.2 L 343 102.7 L 343 109.2 L 341.7 109.2 L 341.7 100.1 L 342.9 100.1 L 347.7 106.6 L 347.7 100.1 L 349.1 100.1 L 349.1 109.2 L 347.8 109.2 Z M 356.6 105.3 L 356.6 104.1 L 360.3 104.1 C 360.3 104.1 360.32 107.58 360.3 107.6 C 359.4 108.7 358 109.3 356.5 109.3 C 353.8 109.3 351.7 107.4 351.7 104.6 C 351.7 102 353.8 99.9 356.5 99.9 C 358 99.9 359.2 100.6 360.1 101.6 C 360.1 101.6 359.2 102.4 359.2 102.4 C 358.5 101.7 357.6 101.2 356.5 101.2 C 354.6 101.2 353.1 102.6 353.1 104.6 C 353.1 106.8 354.5 108.1 356.5 108.1 C 357.4 108.1 358.3 107.8 358.9 107.2 C 358.93 107.18 358.9 105.3 358.9 105.3 L 356.6 105.3 Z " stroke="none" fill="#535a5d"/>  </g>  <g id="Polygon38955">    <path d="M 120.1 36.6 C 120.2 36.9 120.4 37.1 120.6 37.4 C 120.7 37.6 121 37.8 121.2 38 C 121.5 38.2 121.8 38.4 122.1 38.5 C 122.5 38.6 122.9 38.7 123.3 38.7 C 123.7 38.7 124.1 38.6 124.5 38.5 C 124.8 38.3 125.1 38.1 125.4 37.9 C 125.6 37.6 125.8 37.3 125.9 36.9 C 126.1 36.6 126.1 36.2 126.1 35.8 C 126.1 35.2 126 34.7 125.7 34.3 C 125.4 34 125 33.7 124.5 33.4 C 124 33.2 123.5 33 123 32.8 C 122.5 32.6 121.9 32.3 121.5 32 C 121 31.7 120.6 31.4 120.3 30.9 C 120 30.4 119.8 29.8 119.8 29 C 119.8 28.4 119.9 27.9 120.1 27.5 C 120.3 27 120.6 26.6 121 26.3 C 121.4 26 121.8 25.7 122.4 25.5 C 122.9 25.3 123.5 25.2 124.2 25.2 C 124.8 25.2 125.4 25.3 125.8 25.5 C 126.3 25.6 126.7 25.8 127.1 26.2 C 127 26.4 126.9 26.6 126.8 26.9 C 126.8 27.1 126.7 27.5 126.6 27.8 C 126.6 27.8 126.4 27.8 126.4 27.8 C 126.3 27.7 126.2 27.5 126.1 27.2 C 126 27 125.8 26.8 125.6 26.6 C 125.4 26.4 125.2 26.3 124.9 26.2 C 124.7 26 124.4 26 124 26 C 123.6 26 123.3 26 123 26.1 C 122.6 26.3 122.4 26.4 122.1 26.7 C 121.9 26.9 121.7 27.1 121.6 27.4 C 121.5 27.8 121.4 28.1 121.4 28.4 C 121.4 29.1 121.6 29.6 121.9 29.9 C 122.2 30.3 122.6 30.6 123 30.8 C 123.5 31.1 124 31.3 124.6 31.5 C 125.1 31.7 125.6 31.9 126.1 32.2 C 126.5 32.5 126.9 32.8 127.2 33.3 C 127.5 33.7 127.7 34.3 127.7 35 C 127.7 35.7 127.6 36.2 127.4 36.8 C 127.2 37.3 126.8 37.8 126.4 38.2 C 126 38.6 125.5 38.9 124.9 39.2 C 124.3 39.4 123.6 39.5 122.8 39.5 C 122 39.5 121.3 39.4 120.8 39.2 C 120.3 38.9 119.8 38.7 119.5 38.4 C 119.6 38.1 119.7 37.8 119.8 37.6 C 119.8 37.3 119.8 37 119.9 36.6 C 119.88 36.63 120.1 36.6 120.1 36.6 C 120.1 36.6 120.12 36.63 120.1 36.6 Z M 131.6 30.7 C 131.6 29.8 131.5 28.9 131.5 28.1 C 131.5 27.2 131.4 26.4 131.4 25.5 C 131.6 25.5 131.7 25.5 131.9 25.6 C 132.1 25.6 132.2 25.6 132.4 25.6 C 132.5 25.6 132.7 25.6 132.9 25.6 C 133 25.5 133.2 25.5 133.4 25.5 C 133.3 26.4 133.3 27.2 133.3 28.1 C 133.2 28.9 133.2 29.8 133.2 30.7 C 133.2 30.7 133.2 34.1 133.2 34.1 C 133.2 35 133.2 35.9 133.3 36.7 C 133.3 37.6 133.3 38.4 133.4 39.2 C 133.1 39.2 132.7 39.2 132.4 39.2 C 132 39.2 131.7 39.2 131.4 39.2 C 131.4 38.4 131.5 37.6 131.5 36.7 C 131.5 35.9 131.6 35 131.6 34.1 C 131.56 34.11 131.6 30.7 131.6 30.7 C 131.6 30.7 131.56 30.67 131.6 30.7 Z M 139.4 25.2 C 140.3 27.1 141.3 29 142.2 30.7 C 143.1 32.5 144.1 34.4 145.1 36.2 C 145.3 36 145.5 35.6 145.7 35.2 C 146 34.7 146.3 34.1 146.6 33.5 C 146.9 32.9 147.3 32.3 147.7 31.5 C 148.1 30.8 148.4 30.1 148.8 29.4 C 149.2 28.6 149.6 27.9 150 27.2 C 150.4 26.5 150.7 25.8 151.1 25.2 C 151.1 25.2 151.3 25.2 151.3 25.2 C 151.5 26.5 151.6 27.7 151.8 28.9 C 151.9 30.1 152 31.3 152.1 32.5 C 152.3 33.6 152.4 34.8 152.5 35.9 C 152.7 37 152.8 38.1 153 39.2 C 152.8 39.2 152.7 39.2 152.5 39.2 C 152.4 39.2 152.2 39.2 152 39.2 C 151.9 39.2 151.7 39.2 151.6 39.2 C 151.4 39.2 151.3 39.2 151.1 39.2 C 151 37.5 150.8 35.7 150.7 34.1 C 150.5 32.4 150.3 30.7 150.1 29 C 150.1 29 150.1 29 150.1 29 C 149.2 30.6 148.3 32.3 147.4 34 C 146.5 35.6 145.6 37.4 144.8 39.2 C 144.8 39.2 144.7 39.2 144.7 39.2 C 143.9 37.5 143 35.8 142.2 34.1 C 141.3 32.5 140.4 30.7 139.5 29 C 139.5 29 139.5 29 139.5 29 C 139.4 29.8 139.3 30.7 139.2 31.7 C 139.1 32.6 139 33.6 138.9 34.5 C 138.8 35.5 138.7 36.3 138.6 37.2 C 138.6 38 138.5 38.7 138.5 39.2 C 138.3 39.2 138.1 39.2 137.8 39.2 C 137.6 39.2 137.3 39.2 137.1 39.2 C 137.3 38.1 137.5 37 137.7 35.8 C 137.8 34.6 138 33.4 138.2 32.2 C 138.4 31 138.5 29.8 138.7 28.6 C 138.8 27.4 139 26.3 139.1 25.2 C 139.06 25.23 139.4 25.2 139.4 25.2 C 139.4 25.2 139.4 25.23 139.4 25.2 Z M 158.5 32.2 C 159 32.3 159.5 32.3 160 32.3 C 160.4 32.3 160.8 32.3 161.2 32.2 C 161.7 32.1 162.1 31.9 162.5 31.7 C 162.8 31.4 163.1 31.1 163.4 30.7 C 163.6 30.2 163.7 29.7 163.7 29 C 163.7 28.4 163.6 27.9 163.5 27.6 C 163.3 27.2 163.1 26.9 162.8 26.7 C 162.5 26.5 162.2 26.4 161.7 26.3 C 161.3 26.3 160.9 26.2 160.3 26.2 C 160.34 26.23 158.5 26.2 158.5 26.2 C 158.5 26.2 158.54 32.17 158.5 32.2 Z M 156.9 30.7 C 156.9 29.8 156.9 28.9 156.9 28.1 C 156.8 27.2 156.8 26.4 156.7 25.5 C 157.1 25.5 157.4 25.5 157.7 25.6 C 158 25.6 158.4 25.6 158.7 25.6 C 158.8 25.6 159 25.6 159.3 25.6 C 159.5 25.6 159.7 25.5 160 25.5 C 160.2 25.5 160.4 25.5 160.6 25.5 C 160.8 25.5 161 25.5 161.2 25.5 C 161.4 25.5 161.6 25.5 161.9 25.5 C 162.2 25.5 162.5 25.6 162.8 25.6 C 163.2 25.7 163.5 25.8 163.8 25.9 C 164.1 26.1 164.4 26.3 164.7 26.5 C 164.9 26.8 165.1 27.1 165.3 27.5 C 165.5 27.8 165.5 28.3 165.5 28.9 C 165.5 29.7 165.4 30.5 165 31 C 164.6 31.6 164.1 32 163.6 32.3 C 163 32.6 162.4 32.8 161.8 32.9 C 161.2 33 160.6 33.1 160.2 33.1 C 159.9 33.1 159.6 33.1 159.3 33.1 C 159.1 33.1 158.8 33 158.5 33 C 158.5 33 158.5 34.1 158.5 34.1 C 158.5 35 158.6 35.9 158.6 36.7 C 158.6 37.6 158.7 38.4 158.7 39.2 C 158.4 39.2 158.1 39.2 157.7 39.2 C 157.4 39.2 157 39.2 156.7 39.2 C 156.8 38.4 156.8 37.6 156.9 36.7 C 156.9 35.9 156.9 35 156.9 34.1 C 156.9 34.1 156.9 30.7 156.9 30.7 Z M 169 30.7 C 169 29.8 169 28.9 169 28.1 C 168.9 27.2 168.9 26.4 168.9 25.5 C 169 25.5 169.2 25.5 169.4 25.6 C 169.5 25.6 169.7 25.6 169.8 25.6 C 170 25.6 170.2 25.6 170.3 25.6 C 170.5 25.5 170.6 25.5 170.8 25.5 C 170.8 26.4 170.7 27.2 170.7 28.1 C 170.7 28.9 170.7 29.8 170.7 30.7 C 170.7 32.3 170.7 33.8 170.7 35 C 170.7 36.3 170.7 37.4 170.7 38.3 C 171.7 38.3 172.6 38.3 173.4 38.3 C 174.3 38.3 175.2 38.2 176.2 38.1 C 176.2 38.3 176.1 38.5 176.1 38.7 C 176.1 38.8 176.2 39 176.2 39.2 C 175.6 39.2 175 39.2 174.4 39.2 C 173.8 39.2 173.2 39.2 172.6 39.2 C 171.9 39.2 171.3 39.2 170.7 39.2 C 170.1 39.2 169.5 39.2 168.9 39.2 C 168.9 38.4 168.9 37.6 169 36.7 C 169 35.9 169 35 169 34.1 C 169.02 34.11 169 30.7 169 30.7 C 169 30.7 169.02 30.67 169 30.7 Z M 180 30.6 C 180 29.8 180 28.9 180 28 C 179.9 27.2 179.9 26.3 179.9 25.5 C 180.5 25.5 181.1 25.5 181.7 25.6 C 182.2 25.6 182.8 25.6 183.4 25.6 C 184 25.6 184.6 25.6 185.2 25.6 C 185.8 25.5 186.4 25.5 187 25.5 C 187 25.7 186.9 25.9 186.9 26.1 C 186.9 26.3 187 26.5 187 26.7 C 186.6 26.7 186.2 26.6 185.8 26.6 C 185.5 26.6 185.1 26.6 184.7 26.5 C 184.3 26.5 183.9 26.5 183.4 26.5 C 183 26.4 182.4 26.4 181.7 26.4 C 181.7 26.9 181.7 27.3 181.7 27.6 C 181.7 28 181.7 28.5 181.7 29 C 181.7 29.5 181.7 30 181.7 30.5 C 181.7 31 181.7 31.4 181.7 31.6 C 182.3 31.6 182.8 31.6 183.3 31.6 C 183.7 31.6 184.2 31.6 184.5 31.5 C 184.9 31.5 185.3 31.5 185.6 31.5 C 185.9 31.5 186.2 31.4 186.5 31.4 C 186.5 31.6 186.5 31.8 186.5 32 C 186.5 32.2 186.5 32.4 186.5 32.6 C 186.2 32.6 185.8 32.6 185.3 32.5 C 184.9 32.5 184.4 32.5 184 32.5 C 183.5 32.5 183.1 32.5 182.7 32.5 C 182.2 32.5 181.9 32.4 181.7 32.4 C 181.7 32.6 181.7 32.7 181.7 32.8 C 181.7 33 181.7 33.2 181.7 33.4 C 181.66 33.37 181.7 34.1 181.7 34.1 C 181.7 34.1 181.66 35.35 181.7 35.3 C 181.7 36.1 181.7 36.7 181.7 37.2 C 181.7 37.7 181.7 38.1 181.7 38.3 C 182.1 38.3 182.6 38.3 183.1 38.3 C 183.6 38.3 184.1 38.3 184.6 38.3 C 185.1 38.3 185.5 38.3 186 38.2 C 186.4 38.2 186.8 38.2 187.1 38.1 C 187.1 38.2 187.1 38.3 187.1 38.4 C 187 38.5 187 38.6 187 38.7 C 187 38.9 187.1 39.1 187.1 39.2 C 186.5 39.2 185.9 39.2 185.3 39.2 C 184.7 39.2 184.1 39.2 183.5 39.2 C 182.9 39.2 182.3 39.2 181.7 39.2 C 181.1 39.2 180.5 39.2 179.9 39.2 C 179.9 38.4 179.9 37.5 180 36.7 C 180 35.8 180 35 180 34.1 C 180.02 34.09 180 30.6 180 30.6 C 180 30.6 180.02 30.65 180 30.6 Z M 197.1 36.6 C 197.2 36.9 197.4 37.1 197.6 37.4 C 197.8 37.6 198 37.8 198.2 38 C 198.5 38.2 198.8 38.4 199.1 38.5 C 199.5 38.6 199.9 38.7 200.3 38.7 C 200.7 38.7 201.1 38.6 201.5 38.5 C 201.8 38.3 202.1 38.1 202.4 37.9 C 202.6 37.6 202.8 37.3 203 36.9 C 203.1 36.6 203.2 36.2 203.2 35.8 C 203.2 35.2 203 34.7 202.7 34.3 C 202.4 34 202 33.7 201.5 33.4 C 201.1 33.2 200.6 33 200 32.8 C 199.5 32.6 199 32.3 198.5 32 C 198 31.7 197.6 31.4 197.3 30.9 C 197 30.4 196.9 29.8 196.9 29 C 196.9 28.4 197 27.9 197.2 27.5 C 197.4 27 197.7 26.6 198 26.3 C 198.4 26 198.9 25.7 199.4 25.5 C 199.9 25.3 200.5 25.2 201.2 25.2 C 201.8 25.2 202.4 25.3 202.9 25.5 C 203.3 25.6 203.8 25.8 204.2 26.2 C 204 26.4 203.9 26.6 203.9 26.9 C 203.8 27.1 203.7 27.5 203.6 27.8 C 203.6 27.8 203.4 27.8 203.4 27.8 C 203.3 27.7 203.2 27.5 203.1 27.2 C 203 27 202.8 26.8 202.7 26.6 C 202.5 26.4 202.2 26.3 202 26.2 C 201.7 26 201.4 26 201 26 C 200.6 26 200.3 26 200 26.1 C 199.7 26.3 199.4 26.4 199.2 26.7 C 198.9 26.9 198.7 27.1 198.6 27.4 C 198.5 27.8 198.4 28.1 198.4 28.4 C 198.4 29.1 198.6 29.6 198.9 29.9 C 199.2 30.3 199.6 30.6 200.1 30.8 C 200.5 31.1 201 31.3 201.6 31.5 C 202.1 31.7 202.6 31.9 203.1 32.2 C 203.5 32.5 203.9 32.8 204.3 33.3 C 204.6 33.7 204.7 34.3 204.7 35 C 204.7 35.7 204.6 36.2 204.4 36.8 C 204.2 37.3 203.9 37.8 203.4 38.2 C 203 38.6 202.5 38.9 201.9 39.2 C 201.3 39.4 200.6 39.5 199.8 39.5 C 199 39.5 198.3 39.4 197.8 39.2 C 197.3 38.9 196.9 38.7 196.5 38.4 C 196.6 38.1 196.7 37.8 196.8 37.6 C 196.8 37.3 196.9 37 196.9 36.6 C 196.9 36.63 197.1 36.6 197.1 36.6 C 197.1 36.6 197.14 36.63 197.1 36.6 Z M 207.5 32.4 C 207.5 31.3 207.6 30.2 208 29.4 C 208.4 28.5 208.9 27.7 209.6 27.1 C 210.2 26.5 211 26 211.9 25.7 C 212.8 25.4 213.8 25.2 214.9 25.2 C 216 25.2 217.1 25.4 218 25.7 C 218.9 26 219.7 26.5 220.4 27.1 C 221 27.7 221.5 28.5 221.9 29.4 C 222.3 30.2 222.4 31.3 222.4 32.4 C 222.4 33.5 222.3 34.5 221.9 35.4 C 221.5 36.3 221 37.1 220.4 37.7 C 219.7 38.3 218.9 38.7 218 39 C 217.1 39.3 216 39.5 214.9 39.5 C 213.8 39.5 212.8 39.3 211.9 39 C 211 38.7 210.2 38.3 209.6 37.7 C 208.9 37.1 208.4 36.3 208 35.4 C 207.6 34.5 207.5 33.5 207.5 32.4 Z M 220.5 32.4 C 220.5 31.3 220.3 30.3 220.1 29.5 C 219.8 28.7 219.4 28 218.9 27.5 C 218.4 27 217.8 26.6 217.1 26.3 C 216.5 26.1 215.7 26 214.9 26 C 214.2 26 213.4 26.1 212.8 26.3 C 212.1 26.6 211.5 27 211 27.5 C 210.5 28 210.1 28.7 209.8 29.5 C 209.6 30.3 209.4 31.3 209.4 32.4 C 209.4 33.5 209.6 34.5 209.8 35.3 C 210.1 36.1 210.5 36.7 211 37.3 C 211.5 37.8 212.1 38.2 212.8 38.4 C 213.4 38.7 214.2 38.8 214.9 38.8 C 215.7 38.8 216.5 38.7 217.1 38.4 C 217.8 38.2 218.4 37.8 218.9 37.3 C 219.4 36.7 219.8 36.1 220.1 35.3 C 220.3 34.5 220.5 33.5 220.5 32.4 Z M 227.9 32.2 C 228.3 32.3 228.8 32.3 229.3 32.3 C 229.7 32.3 230.1 32.3 230.6 32.2 C 231 32.1 231.4 31.9 231.8 31.7 C 232.2 31.4 232.5 31.1 232.7 30.7 C 232.9 30.2 233 29.7 233 29 C 233 28.4 233 27.9 232.8 27.6 C 232.6 27.2 232.4 26.9 232.1 26.7 C 231.8 26.5 231.5 26.4 231.1 26.3 C 230.7 26.3 230.2 26.2 229.7 26.2 C 229.68 26.23 227.9 26.2 227.9 26.2 C 227.9 26.2 227.88 32.17 227.9 32.2 Z M 226.2 30.7 C 226.2 29.8 226.2 28.9 226.2 28.1 C 226.2 27.2 226.1 26.4 226.1 25.5 C 226.4 25.5 226.7 25.5 227 25.6 C 227.4 25.6 227.7 25.6 228 25.6 C 228.2 25.6 228.4 25.6 228.6 25.6 C 228.8 25.6 229.1 25.5 229.3 25.5 C 229.5 25.5 229.7 25.5 230 25.5 C 230.2 25.5 230.4 25.5 230.5 25.5 C 230.7 25.5 230.9 25.5 231.2 25.5 C 231.5 25.5 231.8 25.6 232.2 25.6 C 232.5 25.7 232.8 25.8 233.1 25.9 C 233.5 26.1 233.7 26.3 234 26.5 C 234.3 26.8 234.5 27.1 234.6 27.5 C 234.8 27.8 234.9 28.3 234.9 28.9 C 234.9 29.7 234.7 30.5 234.3 31 C 233.9 31.6 233.5 32 232.9 32.3 C 232.4 32.6 231.8 32.8 231.1 32.9 C 230.5 33 230 33.1 229.5 33.1 C 229.2 33.1 228.9 33.1 228.7 33.1 C 228.4 33.1 228.1 33 227.9 33 C 227.9 33 227.9 34.1 227.9 34.1 C 227.9 35 227.9 35.9 227.9 36.7 C 228 37.6 228 38.4 228 39.2 C 227.7 39.2 227.4 39.2 227.1 39.2 C 226.7 39.2 226.4 39.2 226.1 39.2 C 226.1 38.4 226.2 37.6 226.2 36.7 C 226.2 35.9 226.2 35 226.2 34.1 C 226.2 34.1 226.2 30.7 226.2 30.7 Z M 248.4 30.7 C 248.4 29.8 248.3 28.9 248.3 28.1 C 248.3 27.2 248.2 26.4 248.2 25.5 C 248.4 25.5 248.5 25.5 248.7 25.6 C 248.9 25.6 249 25.6 249.2 25.6 C 249.3 25.6 249.5 25.6 249.7 25.6 C 249.8 25.5 250 25.5 250.2 25.5 C 250.1 26.4 250.1 27.2 250 28.1 C 250 28.9 250 29.8 250 30.7 C 250 30.7 250 34.1 250 34.1 C 250 35 250 35.9 250 36.7 C 250.1 37.6 250.1 38.4 250.2 39.2 C 249.9 39.2 249.5 39.2 249.2 39.2 C 248.8 39.2 248.5 39.2 248.2 39.2 C 248.2 38.4 248.3 37.6 248.3 36.7 C 248.3 35.9 248.4 35 248.4 34.1 C 248.4 34.1 248.4 32.3 248.4 32.3 C 247.6 32.3 246.9 32.3 246.3 32.3 C 245.6 32.3 244.9 32.3 244.2 32.3 C 243.5 32.3 242.8 32.3 242.1 32.3 C 241.4 32.3 240.7 32.3 240 32.3 C 240 32.3 240 34.1 240 34.1 C 240 35 240 35.9 240 36.7 C 240.1 37.6 240.1 38.4 240.2 39.2 C 239.9 39.2 239.5 39.2 239.2 39.2 C 238.8 39.2 238.5 39.2 238.2 39.2 C 238.2 38.4 238.3 37.6 238.3 36.7 C 238.3 35.9 238.4 35 238.4 34.1 C 238.4 34.1 238.4 30.7 238.4 30.7 C 238.4 29.8 238.3 28.9 238.3 28.1 C 238.3 27.2 238.2 26.4 238.2 25.5 C 238.4 25.5 238.5 25.5 238.7 25.6 C 238.9 25.6 239 25.6 239.2 25.6 C 239.3 25.6 239.5 25.6 239.7 25.6 C 239.8 25.5 240 25.5 240.2 25.5 C 240.1 26.4 240.1 27.2 240 28.1 C 240 28.9 240 29.8 240 30.7 C 240 30.7 240 31.4 240 31.4 C 240.7 31.4 241.4 31.4 242.1 31.4 C 242.8 31.4 243.5 31.4 244.2 31.4 C 244.9 31.4 245.6 31.4 246.3 31.4 C 246.9 31.4 247.6 31.4 248.4 31.4 C 248.36 31.37 248.4 30.7 248.4 30.7 C 248.4 30.7 248.36 30.67 248.4 30.7 Z M 254.9 30.7 C 254.9 29.8 254.9 28.9 254.9 28.1 C 254.8 27.2 254.8 26.4 254.8 25.5 C 254.9 25.5 255.1 25.5 255.3 25.6 C 255.4 25.6 255.6 25.6 255.7 25.6 C 255.9 25.6 256.1 25.6 256.2 25.6 C 256.4 25.5 256.5 25.5 256.7 25.5 C 256.7 26.4 256.6 27.2 256.6 28.1 C 256.6 28.9 256.6 29.8 256.6 30.7 C 256.6 30.7 256.6 34.1 256.6 34.1 C 256.6 35 256.6 35.9 256.6 36.7 C 256.6 37.6 256.7 38.4 256.7 39.2 C 256.4 39.2 256.1 39.2 255.7 39.2 C 255.4 39.2 255.1 39.2 254.8 39.2 C 254.8 38.4 254.8 37.6 254.9 36.7 C 254.9 35.9 254.9 35 254.9 34.1 C 254.92 34.11 254.9 30.7 254.9 30.7 C 254.9 30.7 254.92 30.67 254.9 30.7 Z M 261 36.6 C 261.1 36.9 261.3 37.1 261.5 37.4 C 261.6 37.6 261.9 37.8 262.1 38 C 262.4 38.2 262.7 38.4 263 38.5 C 263.4 38.6 263.8 38.7 264.2 38.7 C 264.6 38.7 265 38.6 265.4 38.5 C 265.7 38.3 266 38.1 266.3 37.9 C 266.5 37.6 266.7 37.3 266.9 36.9 C 267 36.6 267.1 36.2 267.1 35.8 C 267.1 35.2 266.9 34.7 266.6 34.3 C 266.3 34 265.9 33.7 265.4 33.4 C 265 33.2 264.4 33 263.9 32.8 C 263.4 32.6 262.9 32.3 262.4 32 C 261.9 31.7 261.5 31.4 261.2 30.9 C 260.9 30.4 260.8 29.8 260.8 29 C 260.8 28.4 260.9 27.9 261.1 27.5 C 261.3 27 261.5 26.6 261.9 26.3 C 262.3 26 262.8 25.7 263.3 25.5 C 263.8 25.3 264.4 25.2 265.1 25.2 C 265.7 25.2 266.3 25.3 266.8 25.5 C 267.2 25.6 267.7 25.8 268.1 26.2 C 267.9 26.4 267.8 26.6 267.8 26.9 C 267.7 27.1 267.6 27.5 267.5 27.8 C 267.5 27.8 267.3 27.8 267.3 27.8 C 267.2 27.7 267.1 27.5 267 27.2 C 266.9 27 266.7 26.8 266.5 26.6 C 266.4 26.4 266.1 26.3 265.9 26.2 C 265.6 26 265.3 26 264.9 26 C 264.5 26 264.2 26 263.9 26.1 C 263.6 26.3 263.3 26.4 263 26.7 C 262.8 26.9 262.6 27.1 262.5 27.4 C 262.4 27.8 262.3 28.1 262.3 28.4 C 262.3 29.1 262.5 29.6 262.8 29.9 C 263.1 30.3 263.5 30.6 264 30.8 C 264.4 31.1 264.9 31.3 265.5 31.5 C 266 31.7 266.5 31.9 267 32.2 C 267.4 32.5 267.8 32.8 268.1 33.3 C 268.5 33.7 268.6 34.3 268.6 35 C 268.6 35.7 268.5 36.2 268.3 36.8 C 268.1 37.3 267.7 37.8 267.3 38.2 C 266.9 38.6 266.4 38.9 265.8 39.2 C 265.2 39.4 264.5 39.5 263.7 39.5 C 262.9 39.5 262.2 39.4 261.7 39.2 C 261.2 38.9 260.8 38.7 260.4 38.4 C 260.5 38.1 260.6 37.8 260.7 37.6 C 260.7 37.3 260.8 37 260.8 36.6 C 260.8 36.63 261 36.6 261 36.6 C 261 36.6 261.04 36.63 261 36.6 Z M 275.3 30.7 C 275.3 29.3 275.2 27.9 275.2 26.5 C 274.9 26.5 274.5 26.5 274.1 26.5 C 273.7 26.5 273.3 26.6 273 26.6 C 272.6 26.6 272.2 26.6 271.9 26.6 C 271.5 26.7 271.2 26.7 270.9 26.7 C 271 26.5 271 26.3 271 26.1 C 271 26 271 25.8 270.9 25.5 C 271.8 25.5 272.7 25.5 273.5 25.6 C 274.3 25.6 275.2 25.6 276.1 25.6 C 277 25.6 277.8 25.6 278.7 25.6 C 279.5 25.5 280.4 25.5 281.2 25.5 C 281.2 25.8 281.1 26 281.1 26.1 C 281.1 26.3 281.2 26.5 281.2 26.7 C 281 26.7 280.6 26.7 280.3 26.6 C 279.9 26.6 279.6 26.6 279.2 26.6 C 278.8 26.6 278.4 26.5 278 26.5 C 277.7 26.5 277.3 26.5 277 26.5 C 276.9 27.9 276.9 29.3 276.9 30.7 C 276.9 30.7 276.9 34.1 276.9 34.1 C 276.9 35 276.9 35.9 276.9 36.7 C 277 37.6 277 38.4 277.1 39.2 C 276.8 39.2 276.4 39.2 276.1 39.2 C 275.7 39.2 275.4 39.2 275.1 39.2 C 275.1 38.4 275.2 37.6 275.2 36.7 C 275.2 35.9 275.3 35 275.3 34.1 C 275.26 34.11 275.3 30.7 275.3 30.7 C 275.3 30.7 275.26 30.67 275.3 30.7 Z M 284.6 30.7 C 284.6 29.8 284.6 28.9 284.5 28.1 C 284.5 27.2 284.5 26.4 284.4 25.5 C 284.6 25.5 284.8 25.5 284.9 25.6 C 285.1 25.6 285.3 25.6 285.4 25.6 C 285.6 25.6 285.7 25.6 285.9 25.6 C 286.1 25.5 286.2 25.5 286.4 25.5 C 286.4 26.4 286.3 27.2 286.3 28.1 C 286.3 28.9 286.2 29.8 286.2 30.7 C 286.2 30.7 286.2 34.1 286.2 34.1 C 286.2 35 286.3 35.9 286.3 36.7 C 286.3 37.6 286.4 38.4 286.4 39.2 C 286.1 39.2 285.8 39.2 285.4 39.2 C 285.1 39.2 284.7 39.2 284.4 39.2 C 284.5 38.4 284.5 37.6 284.5 36.7 C 284.6 35.9 284.6 35 284.6 34.1 C 284.6 34.11 284.6 30.7 284.6 30.7 C 284.6 30.7 284.6 30.67 284.6 30.7 Z M 301.5 38.4 C 301.4 38.5 301.2 38.6 300.9 38.8 C 300.7 38.9 300.4 39 300 39.1 C 299.6 39.2 299.2 39.3 298.8 39.4 C 298.3 39.4 297.8 39.5 297.3 39.5 C 296.3 39.5 295.3 39.3 294.4 39 C 293.5 38.7 292.8 38.3 292.1 37.7 C 291.5 37.1 291 36.3 290.6 35.4 C 290.2 34.5 290 33.5 290 32.4 C 290 31.3 290.2 30.2 290.6 29.4 C 291 28.5 291.5 27.7 292.1 27.1 C 292.8 26.5 293.6 26 294.5 25.7 C 295.4 25.4 296.4 25.2 297.5 25.2 C 298.4 25.2 299.2 25.3 299.9 25.5 C 300.7 25.7 301.3 25.9 301.9 26.1 C 301.8 26.3 301.7 26.6 301.6 26.9 C 301.6 27.2 301.5 27.5 301.5 27.7 C 301.5 27.7 301.3 27.7 301.3 27.7 C 301.2 27.6 301 27.4 300.8 27.2 C 300.5 27 300.3 26.8 299.9 26.6 C 299.6 26.4 299.3 26.3 298.9 26.2 C 298.5 26 298 26 297.5 26 C 296.8 26 296 26.1 295.3 26.3 C 294.7 26.6 294.1 27 293.6 27.5 C 293.1 28 292.7 28.7 292.4 29.5 C 292.1 30.3 292 31.3 292 32.4 C 292 33.5 292.1 34.5 292.4 35.3 C 292.7 36.1 293.1 36.7 293.6 37.3 C 294.1 37.8 294.7 38.2 295.3 38.4 C 296 38.7 296.8 38.8 297.5 38.8 C 298 38.8 298.5 38.7 298.9 38.6 C 299.3 38.5 299.6 38.4 300 38.2 C 300.3 38 300.6 37.9 300.9 37.7 C 301.2 37.5 301.4 37.3 301.6 37.1 C 301.6 37.15 301.7 37.2 301.7 37.2 L 301.5 38.4 C 301.5 38.4 301.5 38.41 301.5 38.4 Z M 306.8 33 C 307.1 33 307.5 33 307.9 33 C 308.2 33 308.6 33 308.9 33 C 309.3 33 309.7 33 310.1 33 C 310.4 33 310.8 33 311.2 33 C 311.18 33.01 309 27.9 309 27.9 C 309 27.9 306.78 33.01 306.8 33 Z M 315.6 39.2 C 315.5 39.2 315.3 39.2 315.1 39.2 C 314.9 39.2 314.8 39.2 314.6 39.2 C 314.4 39.2 314.2 39.2 314 39.2 C 313.9 39.2 313.7 39.2 313.5 39.2 C 313.4 38.9 313.3 38.6 313.1 38.1 C 313 37.7 312.8 37.2 312.6 36.8 C 312.4 36.3 312.2 35.8 312 35.3 C 311.8 34.8 311.6 34.4 311.5 33.9 C 311 33.9 310.6 33.9 310.2 33.9 C 309.7 33.9 309.3 33.9 308.8 33.9 C 308.4 33.9 308 33.9 307.6 33.9 C 307.2 33.9 306.8 33.9 306.4 33.9 C 306 35 305.6 36 305.2 36.9 C 304.9 37.8 304.6 38.6 304.5 39.2 C 304.2 39.2 304 39.2 303.7 39.2 C 303.5 39.2 303.2 39.2 303 39.2 C 304.1 36.9 305.1 34.6 306.1 32.3 C 307.2 30 308.2 27.6 309.2 25.2 C 309.2 25.2 309.6 25.2 309.6 25.2 C 309.9 26 310.3 26.8 310.7 27.7 C 311 28.6 311.4 29.5 311.8 30.5 C 312.2 31.4 312.6 32.3 313 33.2 C 313.3 34.1 313.7 35 314 35.7 C 314.4 36.5 314.7 37.2 315 37.8 C 315.2 38.4 315.5 38.9 315.6 39.2 Z M 320.2 30.7 C 320.2 29.3 320.2 27.9 320.2 26.5 C 319.8 26.5 319.5 26.5 319.1 26.5 C 318.7 26.5 318.3 26.6 317.9 26.6 C 317.6 26.6 317.2 26.6 316.8 26.6 C 316.5 26.7 316.2 26.7 315.9 26.7 C 316 26.5 316 26.3 316 26.1 C 316 26 316 25.8 315.9 25.5 C 316.8 25.5 317.6 25.5 318.5 25.6 C 319.3 25.6 320.2 25.6 321.1 25.6 C 321.9 25.6 322.8 25.6 323.6 25.6 C 324.5 25.5 325.3 25.5 326.2 25.5 C 326.2 25.8 326.1 26 326.1 26.1 C 326.1 26.3 326.2 26.5 326.2 26.7 C 325.9 26.7 325.6 26.7 325.3 26.6 C 324.9 26.6 324.5 26.6 324.2 26.6 C 323.8 26.6 323.4 26.5 323 26.5 C 322.6 26.5 322.3 26.5 321.9 26.5 C 321.9 27.9 321.9 29.3 321.9 30.7 C 321.9 30.7 321.9 34.1 321.9 34.1 C 321.9 35 321.9 35.9 321.9 36.7 C 322 37.6 322 38.4 322 39.2 C 321.7 39.2 321.4 39.2 321.1 39.2 C 320.7 39.2 320.4 39.2 320.1 39.2 C 320.1 38.4 320.2 37.6 320.2 36.7 C 320.2 35.9 320.2 35 320.2 34.1 C 320.24 34.11 320.2 30.7 320.2 30.7 C 320.2 30.7 320.24 30.67 320.2 30.7 Z M 329.6 30.7 C 329.6 29.8 329.6 28.9 329.5 28.1 C 329.5 27.2 329.5 26.4 329.4 25.5 C 329.6 25.5 329.8 25.5 329.9 25.6 C 330.1 25.6 330.2 25.6 330.4 25.6 C 330.6 25.6 330.7 25.6 330.9 25.6 C 331 25.5 331.2 25.5 331.4 25.5 C 331.3 26.4 331.3 27.2 331.3 28.1 C 331.2 28.9 331.2 29.8 331.2 30.7 C 331.2 30.7 331.2 34.1 331.2 34.1 C 331.2 35 331.2 35.9 331.3 36.7 C 331.3 37.6 331.3 38.4 331.4 39.2 C 331.1 39.2 330.7 39.2 330.4 39.2 C 330.1 39.2 329.7 39.2 329.4 39.2 C 329.5 38.4 329.5 37.6 329.5 36.7 C 329.6 35.9 329.6 35 329.6 34.1 C 329.58 34.11 329.6 30.7 329.6 30.7 C 329.6 30.7 329.58 30.67 329.6 30.7 Z M 335 32.4 C 335 31.3 335.2 30.2 335.6 29.4 C 335.9 28.5 336.4 27.7 337.1 27.1 C 337.8 26.5 338.6 26 339.5 25.7 C 340.4 25.4 341.4 25.2 342.5 25.2 C 343.6 25.2 344.6 25.4 345.5 25.7 C 346.5 26 347.2 26.5 347.9 27.1 C 348.6 27.7 349.1 28.5 349.4 29.4 C 349.8 30.2 350 31.3 350 32.4 C 350 33.5 349.8 34.5 349.4 35.4 C 349.1 36.3 348.6 37.1 347.9 37.7 C 347.2 38.3 346.5 38.7 345.5 39 C 344.6 39.3 343.6 39.5 342.5 39.5 C 341.4 39.5 340.4 39.3 339.5 39 C 338.6 38.7 337.8 38.3 337.1 37.7 C 336.4 37.1 335.9 36.3 335.6 35.4 C 335.2 34.5 335 33.5 335 32.4 Z M 348 32.4 C 348 31.3 347.9 30.3 347.6 29.5 C 347.3 28.7 346.9 28 346.4 27.5 C 345.9 27 345.4 26.6 344.7 26.3 C 344 26.1 343.3 26 342.5 26 C 341.7 26 341 26.1 340.3 26.3 C 339.7 26.6 339.1 27 338.6 27.5 C 338.1 28 337.7 28.7 337.4 29.5 C 337.1 30.3 337 31.3 337 32.4 C 337 33.5 337.1 34.5 337.4 35.3 C 337.7 36.1 338.1 36.7 338.6 37.3 C 339.1 37.8 339.7 38.2 340.3 38.4 C 341 38.7 341.7 38.8 342.5 38.8 C 343.3 38.8 344 38.7 344.7 38.4 C 345.4 38.2 345.9 37.8 346.4 37.3 C 346.9 36.7 347.3 36.1 347.6 35.3 C 347.9 34.5 348 33.5 348 32.4 Z M 365.1 39.5 C 363.5 37.7 361.9 35.9 360.2 34 C 358.4 32.2 356.7 30.3 355 28.5 C 354.9 28.9 354.9 29.4 354.9 30 C 354.9 30.6 354.9 31.5 354.9 32.5 C 354.9 32.8 354.9 33.2 354.9 33.6 C 354.9 34 354.9 34.4 354.9 34.9 C 354.9 35.3 354.9 35.8 355 36.3 C 355 36.7 355 37.2 355 37.6 C 355 38 355 38.3 355 38.6 C 355.1 38.9 355.1 39.1 355.1 39.2 C 354.9 39.2 354.6 39.2 354.4 39.2 C 354.1 39.2 353.9 39.2 353.6 39.2 C 353.7 39.1 353.7 38.8 353.7 38.5 C 353.8 38.1 353.8 37.7 353.8 37.2 C 353.8 36.7 353.9 36.2 353.9 35.6 C 353.9 35 354 34.4 354 33.8 C 354 33.2 354 32.6 354 32.1 C 354.1 31.5 354.1 31 354.1 30.6 C 354.1 29.3 354.1 28.2 354 27.3 C 354 26.4 354 25.7 354 25.2 C 354 25.2 354.3 25.2 354.3 25.2 C 355.1 26.1 356 27.1 356.9 28.1 C 357.9 29.1 358.8 30.1 359.7 31 C 360.6 32 361.5 32.9 362.3 33.8 C 363.1 34.7 363.8 35.4 364.4 36 C 364.4 36 364.4 33.3 364.4 33.3 C 364.4 31.9 364.4 30.6 364.4 29.2 C 364.4 27.9 364.3 26.7 364.3 25.5 C 364.5 25.6 364.8 25.6 365 25.6 C 365.1 25.6 365.3 25.6 365.6 25.5 C 365.6 25.8 365.5 26.2 365.5 26.8 C 365.5 27.4 365.4 28 365.4 28.7 C 365.4 29.4 365.3 30 365.3 30.6 C 365.3 31.3 365.3 31.8 365.3 32.2 C 365.3 32.5 365.3 32.9 365.3 33.4 C 365.3 33.8 365.3 34.3 365.3 34.8 C 365.3 35.3 365.3 35.8 365.3 36.3 C 365.3 36.8 365.3 37.3 365.3 37.7 C 365.3 38.1 365.3 38.5 365.3 38.8 C 365.3 39.1 365.3 39.3 365.3 39.5 C 365.34 39.49 365.1 39.5 365.1 39.5 C 365.1 39.5 365.06 39.49 365.1 39.5 Z " stroke="none" fill="#535a5d"/>  </g></svg>