<?xml version="1.0" standalone="no"?><!DOCTYPE svg PUBLIC "-//W3C//DTD SVG 1.1//EN" "http://www.w3.org/Graphics/SVG/1.1/DTD/svg11.dtd"><svg xmlns="http://www.w3.org/2000/svg" version="1.1" width="150px" height="23.8px" viewBox="0 -4 150 23.8" style="top:-4px">  <desc>Wysler A3000227</desc>  <defs/>  <g id="Polygon39679">    <path d="M 62.3 15 L 61.9 14 L 59.8 14 L 59.4 15 L 58.7 15 L 60.6 10.1 L 61.2 10.1 L 63 15 L 62.3 15 Z M 60 13.4 L 61.7 13.4 L 60.8 11.1 L 60.8 11.1 L 60 13.4 Z M 64.6 12.3 C 64.9 12.3 65.1 12.3 65.2 12.2 C 65.6 12.1 65.9 11.9 65.9 11.5 C 65.9 11.1 65.5 10.9 65.1 10.9 C 64.7 10.9 64.4 11 64.3 11.4 C 64.3 11.4 63.8 11.1 63.8 11.1 C 63.9 10.6 64.4 10.3 65.1 10.3 C 65.9 10.3 66.5 10.8 66.5 11.5 C 66.5 11.9 66.3 12.3 65.9 12.5 C 66.4 12.7 66.8 13.1 66.8 13.6 C 66.8 14.6 66.1 15.1 65.2 15.1 C 64.6 15.1 64 14.8 63.7 14.3 C 63.7 14.3 64.3 14 64.3 14 C 64.5 14.4 64.8 14.5 65.2 14.5 C 65.6 14.5 66.1 14.2 66.1 13.7 C 66.1 13.2 65.7 12.9 65.1 12.9 C 64.9 12.9 64.8 12.9 64.6 13 C 64.6 13 64.6 12.3 64.6 12.3 Z M 71.1 12.7 C 71.1 14.2 70.5 15.1 69.5 15.1 C 68.4 15.1 67.8 14.2 67.8 12.7 C 67.8 11.2 68.4 10.3 69.5 10.3 C 70.5 10.3 71.1 11.2 71.1 12.7 Z M 68.5 12.7 C 68.5 13.9 68.9 14.5 69.5 14.5 C 70.1 14.5 70.5 13.9 70.5 12.7 C 70.5 11.5 70.1 10.9 69.5 10.9 C 68.9 10.9 68.5 11.5 68.5 12.7 Z M 75.4 12.7 C 75.4 14.2 74.8 15.1 73.8 15.1 C 72.7 15.1 72.1 14.2 72.1 12.7 C 72.1 11.2 72.7 10.3 73.8 10.3 C 74.8 10.3 75.4 11.2 75.4 12.7 Z M 72.8 12.7 C 72.8 13.9 73.2 14.5 73.8 14.5 C 74.4 14.5 74.8 13.9 74.8 12.7 C 74.8 11.5 74.4 10.9 73.8 10.9 C 73.2 10.9 72.8 11.5 72.8 12.7 Z M 79.7 12.7 C 79.7 14.2 79.1 15.1 78.1 15.1 C 77 15.1 76.4 14.2 76.4 12.7 C 76.4 11.2 77 10.3 78.1 10.3 C 79.1 10.3 79.7 11.2 79.7 12.7 Z M 77.1 12.7 C 77.1 13.9 77.5 14.5 78.1 14.5 C 78.7 14.5 79.1 13.9 79.1 12.7 C 79.1 11.5 78.7 10.9 78.1 10.9 C 77.5 10.9 77.1 11.5 77.1 12.7 Z M 80.8 15 C 80.8 15 80.78 14.41 80.8 14.4 C 81.3 13.8 82 13.1 82.4 12.5 C 82.6 12.2 82.8 11.8 82.8 11.5 C 82.8 11.1 82.5 10.9 82.1 10.9 C 81.7 10.9 81.3 11.1 81.3 11.6 C 81.3 11.6 80.7 11.4 80.7 11.4 C 80.7 10.7 81.4 10.3 82.1 10.3 C 82.8 10.3 83.5 10.8 83.5 11.5 C 83.5 11.9 83.3 12.4 83 12.8 C 82.6 13.3 82.1 13.9 81.7 14.4 C 81.66 14.41 83.7 14.4 83.7 14.4 L 83.7 15 L 80.8 15 Z M 84.7 15 C 84.7 15 84.69 14.41 84.7 14.4 C 85.2 13.8 85.9 13.1 86.3 12.5 C 86.5 12.2 86.8 11.8 86.8 11.5 C 86.8 11.1 86.4 10.9 86 10.9 C 85.6 10.9 85.3 11.1 85.3 11.6 C 85.3 11.6 84.6 11.4 84.6 11.4 C 84.7 10.7 85.4 10.3 86 10.3 C 86.7 10.3 87.4 10.8 87.4 11.5 C 87.4 11.9 87.2 12.4 86.9 12.8 C 86.5 13.3 86.1 13.9 85.6 14.4 C 85.57 14.41 87.6 14.4 87.6 14.4 L 87.6 15 L 84.7 15 Z M 91.3 10.8 C 90.7 12 89.9 13.9 89.4 15.2 C 89.4 15.2 88.7 14.9 88.7 14.9 C 89.4 13.4 90.2 11.8 90.6 11 C 90.56 10.95 88.3 11 88.3 11 L 88.3 10.4 L 91.3 10.4 C 91.3 10.4 91.29 10.83 91.3 10.8 Z " stroke="none" fill="#535a5d"/>  </g>  <g id="Polygon39678">    <path d="M 63.8 4.2 L 63.8 4.2 L 64.9 0.4 L 66 0.4 L 64.4 6 L 63.4 6 L 62.3 2.1 L 62.3 2.1 L 61.2 6 L 60.2 6 L 58.7 0.4 L 59.8 0.4 L 60.8 4.2 L 60.8 4.2 L 61.9 0.4 L 62.8 0.4 L 63.8 4.2 Z M 68.5 6 L 68.5 3.6 L 66.8 0.4 L 68 0.4 L 69.1 2.6 L 69.1 2.6 L 70.2 0.4 L 71.4 0.4 L 69.5 3.7 L 69.5 6 L 68.5 6 Z M 74.2 1.2 C 73.7 1.2 73.4 1.4 73.4 1.8 C 73.4 2.3 73.9 2.4 74.4 2.6 C 75.2 2.9 76.1 3.2 76.1 4.4 C 76.1 5.6 75 6.1 74.1 6.1 C 73.2 6.1 72.6 5.8 72 5.2 C 72 5.2 72.6 4.6 72.6 4.6 C 73.1 5 73.5 5.2 74.1 5.2 C 74.6 5.2 75.1 5 75.1 4.4 C 75.1 3.9 74.5 3.7 73.9 3.5 C 73.2 3.2 72.4 2.8 72.4 1.9 C 72.4 0.8 73.2 0.3 74.1 0.3 C 74.8 0.3 75.4 0.5 75.9 0.9 C 75.9 0.9 75.4 1.6 75.4 1.6 C 75.1 1.4 74.6 1.2 74.2 1.2 Z M 77.6 6 L 77.6 0.4 L 78.5 0.4 L 78.5 5.2 L 80.9 5.2 L 80.9 6 L 77.6 6 Z M 82 6 L 82 0.4 L 85.5 0.4 L 85.5 1.2 L 83 1.2 L 83 2.7 L 85.5 2.7 L 85.5 3.5 L 83 3.5 L 83 5.2 L 85.5 5.2 L 85.5 6 L 82 6 Z M 88.8 0.4 C 89.7 0.4 90.8 0.9 90.8 2 C 90.8 3 90.1 3.4 89.5 3.6 C 89.49 3.62 91.2 6 91.2 6 L 90 6 L 88.4 3.7 L 88 3.7 L 88 6 L 87 6 L 87 0.4 C 87 0.4 88.78 0.4 88.8 0.4 Z M 88.6 2.9 C 89.2 2.9 89.7 2.6 89.7 2.1 C 89.7 1.6 89.3 1.2 88.8 1.2 C 88.75 1.25 88 1.2 88 1.2 L 88 2.9 C 88 2.9 88.59 2.86 88.6 2.9 Z " stroke="none" fill="#535a5d"/>  </g></svg>