<?xml version="1.0" standalone="no"?><!DOCTYPE svg PUBLIC "-//W3C//DTD SVG 1.1//EN" "http://www.w3.org/Graphics/SVG/1.1/DTD/svg11.dtd"><svg xmlns="http://www.w3.org/2000/svg" version="1.1" width="51px" height="13.8px" viewBox="0 -3 51 13.8" style="top:-3px">  <desc>A2000428</desc>  <defs/>  <g id="Polygon42847">    <path d="M 12.2 5.2 L 11.8 4.2 L 9.7 4.2 L 9.3 5.2 L 8.6 5.2 L 10.5 0.4 L 11.1 0.4 L 13 5.2 L 12.2 5.2 Z M 9.9 3.6 L 11.6 3.6 L 10.8 1.4 L 10.7 1.4 L 9.9 3.6 Z M 13.8 5.2 C 13.8 5.2 13.81 4.66 13.8 4.7 C 14.4 4.1 15 3.4 15.5 2.7 C 15.6 2.5 15.9 2.1 15.9 1.8 C 15.9 1.3 15.5 1.1 15.1 1.1 C 14.7 1.1 14.4 1.4 14.4 1.8 C 14.4 1.8 13.7 1.7 13.7 1.7 C 13.8 1 14.5 0.5 15.1 0.5 C 15.9 0.5 16.6 1 16.6 1.8 C 16.6 2.2 16.3 2.7 16.1 3 C 15.7 3.6 15.2 4.2 14.7 4.7 C 14.7 4.66 16.8 4.7 16.8 4.7 L 16.8 5.2 L 13.8 5.2 Z M 21 2.9 C 21 4.4 20.4 5.3 19.3 5.3 C 18.3 5.3 17.7 4.4 17.7 2.9 C 17.7 1.4 18.3 0.5 19.3 0.5 C 20.4 0.5 21 1.4 21 2.9 Z M 18.3 2.9 C 18.3 4.1 18.7 4.7 19.3 4.7 C 19.9 4.7 20.3 4.1 20.3 2.9 C 20.3 1.7 19.9 1.1 19.3 1.1 C 18.7 1.1 18.3 1.7 18.3 2.9 Z M 25.3 2.9 C 25.3 4.4 24.7 5.3 23.6 5.3 C 22.6 5.3 22 4.4 22 2.9 C 22 1.4 22.6 0.5 23.6 0.5 C 24.7 0.5 25.3 1.4 25.3 2.9 Z M 22.6 2.9 C 22.6 4.1 23 4.7 23.6 4.7 C 24.2 4.7 24.6 4.1 24.6 2.9 C 24.6 1.7 24.2 1.1 23.6 1.1 C 23 1.1 22.6 1.7 22.6 2.9 Z M 29.6 2.9 C 29.6 4.4 29 5.3 27.9 5.3 C 26.9 5.3 26.3 4.4 26.3 2.9 C 26.3 1.4 26.9 0.5 27.9 0.5 C 29 0.5 29.6 1.4 29.6 2.9 Z M 27 2.9 C 27 4.1 27.3 4.7 27.9 4.7 C 28.5 4.7 28.9 4.1 28.9 2.9 C 28.9 1.7 28.5 1.1 27.9 1.1 C 27.3 1.1 27 1.7 27 2.9 Z M 32.6 5.2 L 32.6 4.1 L 30.5 4.1 C 30.5 4.1 30.45 3.37 30.5 3.4 C 31 2.6 31.9 1.5 32.5 0.6 C 32.52 0.6 33.2 0.6 33.2 0.6 L 33.2 3.5 L 33.9 3.5 L 33.9 4.1 L 33.2 4.1 L 33.2 5.2 L 32.6 5.2 Z M 32.6 3.5 C 32.6 3.5 32.55 1.53 32.6 1.5 C 32.1 2.2 31.5 3 31.2 3.5 C 31.15 3.49 32.6 3.5 32.6 3.5 Z M 34.8 5.2 C 34.8 5.2 34.79 4.66 34.8 4.7 C 35.3 4.1 36 3.4 36.4 2.7 C 36.6 2.5 36.9 2.1 36.9 1.8 C 36.9 1.3 36.5 1.1 36.1 1.1 C 35.7 1.1 35.4 1.4 35.4 1.8 C 35.4 1.8 34.7 1.7 34.7 1.7 C 34.8 1 35.5 0.5 36.1 0.5 C 36.9 0.5 37.5 1 37.5 1.8 C 37.5 2.2 37.3 2.7 37 3 C 36.6 3.6 36.2 4.2 35.7 4.7 C 35.67 4.66 37.7 4.7 37.7 4.7 L 37.7 5.2 L 34.8 5.2 Z M 38.7 4 C 38.7 3.4 39 3 39.4 2.8 C 39.1 2.6 38.8 2.3 38.8 1.8 C 38.8 1.1 39.4 0.5 40.3 0.5 C 41.1 0.5 41.7 1.1 41.7 1.8 C 41.7 2.3 41.5 2.6 41.1 2.8 C 41.6 3 41.8 3.4 41.8 4 C 41.8 4.7 41.2 5.3 40.3 5.3 C 39.3 5.3 38.7 4.7 38.7 4 Z M 39.4 3.9 C 39.4 4.4 39.8 4.7 40.3 4.7 C 40.8 4.7 41.2 4.4 41.2 3.9 C 41.2 3.5 40.8 3.1 40.3 3.1 C 39.8 3.1 39.4 3.5 39.4 3.9 Z M 39.5 1.8 C 39.5 2.2 39.8 2.5 40.3 2.5 C 40.7 2.5 41 2.2 41 1.8 C 41 1.4 40.7 1.1 40.3 1.1 C 39.8 1.1 39.5 1.4 39.5 1.8 Z " stroke="none" fill="#535a5d"/>  </g></svg>