<?xml version="1.0" standalone="no"?><!DOCTYPE svg PUBLIC "-//W3C//DTD SVG 1.1//EN" "http://www.w3.org/Graphics/SVG/1.1/DTD/svg11.dtd"><svg xmlns="http://www.w3.org/2000/svg" version="1.1" width="51px" height="13.8px" viewBox="0 -3 51 13.8" style="top:-3px">  <desc>R404442</desc>  <defs/>  <g id="Polygon43159">    <path d="M 14 5.2 L 12.6 3.2 L 12.1 3.2 L 12.1 5.2 L 11.4 5.2 L 11.4 0.4 C 11.4 0.4 12.84 0.35 12.8 0.4 C 13.6 0.4 14.5 0.7 14.5 1.8 C 14.5 2.6 13.9 3 13.3 3.1 C 13.31 3.14 14.9 5.2 14.9 5.2 L 14 5.2 Z M 12.8 1 C 12.8 0.95 12.1 1 12.1 1 L 12.1 2.6 C 12.1 2.6 12.66 2.58 12.7 2.6 C 13.3 2.6 13.8 2.3 13.8 1.8 C 13.8 1.3 13.4 1 12.8 1 Z M 17.6 5.2 L 17.6 4.1 L 15.5 4.1 C 15.5 4.1 15.54 3.37 15.5 3.4 C 16.1 2.6 17 1.5 17.6 0.6 C 17.6 0.6 18.3 0.6 18.3 0.6 L 18.3 3.5 L 19 3.5 L 19 4.1 L 18.3 4.1 L 18.3 5.2 L 17.6 5.2 Z M 17.6 3.5 C 17.6 3.5 17.64 1.53 17.6 1.5 C 17.2 2.2 16.6 3 16.2 3.5 C 16.24 3.49 17.6 3.5 17.6 3.5 Z M 23.1 2.9 C 23.1 4.4 22.5 5.3 21.5 5.3 C 20.4 5.3 19.8 4.4 19.8 2.9 C 19.8 1.4 20.4 0.5 21.5 0.5 C 22.5 0.5 23.1 1.4 23.1 2.9 Z M 20.5 2.9 C 20.5 4.1 20.9 4.7 21.5 4.7 C 22.1 4.7 22.4 4.1 22.4 2.9 C 22.4 1.7 22.1 1.1 21.5 1.1 C 20.9 1.1 20.5 1.7 20.5 2.9 Z M 26.1 5.2 L 26.1 4.1 L 24 4.1 C 24 4.1 24 3.37 24 3.4 C 24.6 2.6 25.4 1.5 26.1 0.6 C 26.06 0.6 26.7 0.6 26.7 0.6 L 26.7 3.5 L 27.4 3.5 L 27.4 4.1 L 26.7 4.1 L 26.7 5.2 L 26.1 5.2 Z M 26.1 3.5 C 26.1 3.5 26.1 1.53 26.1 1.5 C 25.7 2.2 25 3 24.7 3.5 C 24.7 3.49 26.1 3.5 26.1 3.5 Z M 30.4 5.2 L 30.4 4.1 L 28.3 4.1 C 28.3 4.1 28.25 3.37 28.3 3.4 C 28.8 2.6 29.7 1.5 30.3 0.6 C 30.32 0.6 31 0.6 31 0.6 L 31 3.5 L 31.7 3.5 L 31.7 4.1 L 31 4.1 L 31 5.2 L 30.4 5.2 Z M 30.4 3.5 C 30.4 3.5 30.35 1.53 30.4 1.5 C 29.9 2.2 29.3 3 29 3.5 C 28.95 3.49 30.4 3.5 30.4 3.5 Z M 34.6 5.2 L 34.6 4.1 L 32.5 4.1 C 32.5 4.1 32.51 3.37 32.5 3.4 C 33.1 2.6 33.9 1.5 34.6 0.6 C 34.57 0.6 35.3 0.6 35.3 0.6 L 35.3 3.5 L 35.9 3.5 L 35.9 4.1 L 35.3 4.1 L 35.3 5.2 L 34.6 5.2 Z M 34.6 3.5 C 34.6 3.5 34.61 1.53 34.6 1.5 C 34.2 2.2 33.5 3 33.2 3.5 C 33.21 3.49 34.6 3.5 34.6 3.5 Z M 36.8 5.2 C 36.8 5.2 36.85 4.66 36.8 4.7 C 37.4 4.1 38 3.4 38.5 2.7 C 38.7 2.5 38.9 2.1 38.9 1.8 C 38.9 1.3 38.5 1.1 38.1 1.1 C 37.8 1.1 37.4 1.4 37.4 1.8 C 37.4 1.8 36.8 1.7 36.8 1.7 C 36.8 1 37.5 0.5 38.2 0.5 C 38.9 0.5 39.6 1 39.6 1.8 C 39.6 2.2 39.4 2.7 39.1 3 C 38.7 3.6 38.2 4.2 37.7 4.7 C 37.73 4.66 39.8 4.7 39.8 4.7 L 39.8 5.2 L 36.8 5.2 Z " stroke="none" fill="#535a5d"/>  </g></svg>