<?xml version="1.0" standalone="no"?><!DOCTYPE svg PUBLIC "-//W3C//DTD SVG 1.1//EN" "http://www.w3.org/Graphics/SVG/1.1/DTD/svg11.dtd"><svg xmlns="http://www.w3.org/2000/svg" version="1.1" width="150px" height="23.8px" viewBox="0 -4 150 23.8" style="top:-4px">  <desc>Triptis A3000074</desc>  <defs/>  <g id="Polygon40452">    <path d="M 62.1 15 L 61.7 14 L 59.6 14 L 59.3 15 L 58.5 15 L 60.4 10.1 L 61 10.1 L 62.9 15 L 62.1 15 Z M 59.9 13.4 L 61.5 13.4 L 60.7 11.1 L 60.7 11.1 L 59.9 13.4 Z M 64.4 12.3 C 64.7 12.3 64.9 12.3 65.1 12.2 C 65.4 12.1 65.7 11.9 65.7 11.5 C 65.7 11.1 65.4 10.9 64.9 10.9 C 64.6 10.9 64.3 11 64.2 11.4 C 64.2 11.4 63.6 11.1 63.6 11.1 C 63.8 10.6 64.3 10.3 64.9 10.3 C 65.8 10.3 66.4 10.8 66.4 11.5 C 66.4 11.9 66.1 12.3 65.8 12.5 C 66.3 12.7 66.6 13.1 66.6 13.6 C 66.6 14.6 65.9 15.1 65.1 15.1 C 64.5 15.1 63.9 14.8 63.6 14.3 C 63.6 14.3 64.1 14 64.1 14 C 64.3 14.4 64.6 14.5 65 14.5 C 65.5 14.5 65.9 14.2 65.9 13.7 C 65.9 13.2 65.5 12.9 65 12.9 C 64.8 12.9 64.6 12.9 64.4 13 C 64.4 13 64.4 12.3 64.4 12.3 Z M 71 12.7 C 71 14.2 70.4 15.1 69.3 15.1 C 68.3 15.1 67.7 14.2 67.7 12.7 C 67.7 11.2 68.3 10.3 69.3 10.3 C 70.4 10.3 71 11.2 71 12.7 Z M 68.4 12.7 C 68.4 13.9 68.7 14.5 69.3 14.5 C 69.9 14.5 70.3 13.9 70.3 12.7 C 70.3 11.5 69.9 10.9 69.3 10.9 C 68.7 10.9 68.4 11.5 68.4 12.7 Z M 75.3 12.7 C 75.3 14.2 74.7 15.1 73.6 15.1 C 72.6 15.1 72 14.2 72 12.7 C 72 11.2 72.6 10.3 73.6 10.3 C 74.7 10.3 75.3 11.2 75.3 12.7 Z M 72.7 12.7 C 72.7 13.9 73 14.5 73.6 14.5 C 74.2 14.5 74.6 13.9 74.6 12.7 C 74.6 11.5 74.2 10.9 73.6 10.9 C 73 10.9 72.7 11.5 72.7 12.7 Z M 79.6 12.7 C 79.6 14.2 79 15.1 77.9 15.1 C 76.9 15.1 76.3 14.2 76.3 12.7 C 76.3 11.2 76.9 10.3 77.9 10.3 C 79 10.3 79.6 11.2 79.6 12.7 Z M 77 12.7 C 77 13.9 77.3 14.5 77.9 14.5 C 78.6 14.5 78.9 13.9 78.9 12.7 C 78.9 11.5 78.6 10.9 77.9 10.9 C 77.3 10.9 77 11.5 77 12.7 Z M 83.9 12.7 C 83.9 14.2 83.3 15.1 82.2 15.1 C 81.2 15.1 80.6 14.2 80.6 12.7 C 80.6 11.2 81.2 10.3 82.2 10.3 C 83.3 10.3 83.9 11.2 83.9 12.7 Z M 81.3 12.7 C 81.3 13.9 81.6 14.5 82.2 14.5 C 82.9 14.5 83.2 13.9 83.2 12.7 C 83.2 11.5 82.9 10.9 82.2 10.9 C 81.6 10.9 81.3 11.5 81.3 12.7 Z M 87.5 10.8 C 86.9 12 86.1 13.9 85.6 15.2 C 85.6 15.2 85 14.9 85 14.9 C 85.6 13.4 86.4 11.8 86.8 11 C 86.78 10.95 84.6 11 84.6 11 L 84.6 10.4 L 87.5 10.4 C 87.5 10.4 87.5 10.83 87.5 10.8 Z M 90.1 15 L 90.1 13.8 L 88 13.8 C 88 13.8 88 13.12 88 13.1 C 88.6 12.4 89.4 11.2 90.1 10.4 C 90.07 10.35 90.7 10.4 90.7 10.4 L 90.7 13.2 L 91.4 13.2 L 91.4 13.8 L 90.7 13.8 L 90.7 15 L 90.1 15 Z M 90.1 13.2 C 90.1 13.2 90.1 11.28 90.1 11.3 C 89.7 11.9 89 12.8 88.7 13.2 C 88.7 13.24 90.1 13.2 90.1 13.2 Z " stroke="none" fill="#535a5d"/>  </g>  <g id="Polygon40451">    <path d="M 62.7 1.2 L 62.7 6 L 61.7 6 L 61.7 1.2 L 60.3 1.2 L 60.3 0.4 L 64.1 0.4 L 64.1 1.2 L 62.7 1.2 Z M 67 0.4 C 67.9 0.4 69 0.9 69 2 C 69 3 68.3 3.4 67.7 3.6 C 67.69 3.62 69.4 6 69.4 6 L 68.2 6 L 66.6 3.7 L 66.2 3.7 L 66.2 6 L 65.3 6 L 65.3 0.4 C 65.3 0.4 66.98 0.4 67 0.4 Z M 66.8 2.9 C 67.4 2.9 67.9 2.6 67.9 2.1 C 67.9 1.6 67.5 1.2 67 1.2 C 66.96 1.25 66.2 1.2 66.2 1.2 L 66.2 2.9 C 66.2 2.9 66.8 2.86 66.8 2.9 Z M 70.7 6 L 70.7 0.4 L 71.6 0.4 L 71.6 6 L 70.7 6 Z M 75.1 0.4 C 76.1 0.4 77.2 0.9 77.2 2.1 C 77.2 3.4 76.1 3.8 75.1 3.8 C 75.14 3.83 74.4 3.8 74.4 3.8 L 74.4 6 L 73.4 6 L 73.4 0.4 C 73.4 0.4 75.14 0.4 75.1 0.4 Z M 74.4 3 C 74.4 3 74.96 2.98 75 3 C 75.6 3 76.1 2.8 76.1 2.1 C 76.1 1.6 75.7 1.2 75.1 1.2 C 75.12 1.25 74.4 1.2 74.4 1.2 L 74.4 3 Z M 80.3 1.2 L 80.3 6 L 79.3 6 L 79.3 1.2 L 77.9 1.2 L 77.9 0.4 L 81.6 0.4 L 81.6 1.2 L 80.3 1.2 Z M 82.8 6 L 82.8 0.4 L 83.8 0.4 L 83.8 6 L 82.8 6 Z M 87.4 1.2 C 87 1.2 86.6 1.4 86.6 1.8 C 86.6 2.3 87.1 2.4 87.6 2.6 C 88.4 2.9 89.3 3.2 89.3 4.4 C 89.3 5.6 88.2 6.1 87.3 6.1 C 86.5 6.1 85.8 5.8 85.2 5.2 C 85.2 5.2 85.9 4.6 85.9 4.6 C 86.4 5 86.7 5.2 87.3 5.2 C 87.8 5.2 88.3 5 88.3 4.4 C 88.3 3.9 87.7 3.7 87.1 3.5 C 86.4 3.2 85.6 2.8 85.6 1.9 C 85.6 0.8 86.5 0.3 87.4 0.3 C 88.1 0.3 88.6 0.5 89.2 0.9 C 89.2 0.9 88.6 1.6 88.6 1.6 C 88.3 1.4 87.9 1.2 87.4 1.2 Z " stroke="none" fill="#535a5d"/>  </g></svg>