<?xml version="1.0" standalone="no"?><!DOCTYPE svg PUBLIC "-//W3C//DTD SVG 1.1//EN" "http://www.w3.org/Graphics/SVG/1.1/DTD/svg11.dtd"><svg xmlns="http://www.w3.org/2000/svg" version="1.1" width="51px" height="13.8px" viewBox="0 -3 51 13.8" style="top:-3px">  <desc>A1000997</desc>  <defs/>  <g id="Polygon42896">    <path d="M 13 5.2 L 12.7 4.2 L 10.6 4.2 L 10.2 5.2 L 9.5 5.2 L 11.4 0.4 L 11.9 0.4 L 13.8 5.2 L 13 5.2 Z M 10.8 3.6 L 12.4 3.6 L 11.6 1.4 L 11.6 1.4 L 10.8 3.6 Z M 15.4 5.2 C 15.4 5.2 15.36 1.4 15.4 1.4 C 15.1 1.5 14.9 1.6 14.7 1.7 C 14.7 1.7 14.7 1.1 14.7 1.1 C 14.9 1 15.3 0.8 15.6 0.6 C 15.6 0.6 16 0.6 16 0.6 L 16 5.2 L 15.4 5.2 Z M 20.6 2.9 C 20.6 4.4 20 5.3 19 5.3 C 17.9 5.3 17.3 4.4 17.3 2.9 C 17.3 1.4 17.9 0.5 19 0.5 C 20 0.5 20.6 1.4 20.6 2.9 Z M 18 2.9 C 18 4.1 18.3 4.7 19 4.7 C 19.6 4.7 19.9 4.1 19.9 2.9 C 19.9 1.7 19.6 1.1 19 1.1 C 18.3 1.1 18 1.7 18 2.9 Z M 24.9 2.9 C 24.9 4.4 24.3 5.3 23.3 5.3 C 22.2 5.3 21.6 4.4 21.6 2.9 C 21.6 1.4 22.2 0.5 23.3 0.5 C 24.3 0.5 24.9 1.4 24.9 2.9 Z M 22.3 2.9 C 22.3 4.1 22.7 4.7 23.3 4.7 C 23.9 4.7 24.2 4.1 24.2 2.9 C 24.2 1.7 23.9 1.1 23.3 1.1 C 22.7 1.1 22.3 1.7 22.3 2.9 Z M 29.2 2.9 C 29.2 4.4 28.6 5.3 27.6 5.3 C 26.5 5.3 25.9 4.4 25.9 2.9 C 25.9 1.4 26.5 0.5 27.6 0.5 C 28.6 0.5 29.2 1.4 29.2 2.9 Z M 26.6 2.9 C 26.6 4.1 27 4.7 27.6 4.7 C 28.2 4.7 28.5 4.1 28.5 2.9 C 28.5 1.7 28.2 1.1 27.6 1.1 C 27 1.1 26.6 1.7 26.6 2.9 Z M 30.8 4.9 C 31.7 4.5 32.4 4 32.6 3.1 C 32.3 3.4 32 3.5 31.6 3.5 C 30.7 3.5 30.2 2.9 30.2 2 C 30.2 1.2 30.8 0.5 31.7 0.5 C 32.7 0.5 33.4 1.4 33.4 2.4 C 33.4 3.9 32.3 5 31.1 5.5 C 31.1 5.5 30.8 4.9 30.8 4.9 Z M 32.7 2.4 C 32.7 1.7 32.4 1.1 31.7 1.1 C 31.2 1.1 30.9 1.5 30.9 2.1 C 30.9 2.6 31.2 3 31.7 3 C 32.1 3 32.5 2.7 32.7 2.4 Z M 35 4.9 C 35.9 4.5 36.6 4 36.8 3.1 C 36.5 3.4 36.2 3.5 35.8 3.5 C 34.9 3.5 34.4 2.9 34.4 2 C 34.4 1.2 35 0.5 35.9 0.5 C 36.9 0.5 37.6 1.4 37.6 2.4 C 37.6 3.9 36.5 5 35.3 5.5 C 35.3 5.5 35 4.9 35 4.9 Z M 36.9 2.4 C 36.9 1.7 36.6 1.1 35.9 1.1 C 35.4 1.1 35.1 1.5 35.1 2.1 C 35.1 2.6 35.4 3 35.9 3 C 36.3 3 36.7 2.7 36.9 2.4 Z M 41.2 1.1 C 40.6 2.3 39.8 4.2 39.3 5.4 C 39.3 5.4 38.7 5.1 38.7 5.1 C 39.3 3.7 40.1 2 40.5 1.2 C 40.49 1.2 38.3 1.2 38.3 1.2 L 38.3 0.6 L 41.2 0.6 C 41.2 0.6 41.22 1.08 41.2 1.1 Z " stroke="none" fill="#535a5d"/>  </g></svg>