<?xml version="1.0" standalone="no"?><!DOCTYPE svg PUBLIC "-//W3C//DTD SVG 1.1//EN" "http://www.w3.org/Graphics/SVG/1.1/DTD/svg11.dtd"><svg xmlns="http://www.w3.org/2000/svg" version="1.1" width="108px" height="23.8px" viewBox="0 -4 108 23.8" style="top:-4px">  <desc>Lizmont A3000196</desc>  <defs/>  <g id="Polygon41586">    <path d="M 41.3 15 L 40.9 14 L 38.8 14 L 38.5 15 L 37.7 15 L 39.6 10.1 L 40.2 10.1 L 42.1 15 L 41.3 15 Z M 39.1 13.4 L 40.7 13.4 L 39.9 11.1 L 39.9 11.1 L 39.1 13.4 Z M 43.6 12.3 C 43.9 12.3 44.1 12.3 44.3 12.2 C 44.6 12.1 44.9 11.9 44.9 11.5 C 44.9 11.1 44.6 10.9 44.1 10.9 C 43.8 10.9 43.5 11 43.4 11.4 C 43.4 11.4 42.8 11.1 42.8 11.1 C 43 10.6 43.5 10.3 44.1 10.3 C 45 10.3 45.6 10.8 45.6 11.5 C 45.6 11.9 45.3 12.3 45 12.5 C 45.5 12.7 45.8 13.1 45.8 13.6 C 45.8 14.6 45.1 15.1 44.3 15.1 C 43.7 15.1 43.1 14.8 42.8 14.3 C 42.8 14.3 43.3 14 43.3 14 C 43.5 14.4 43.8 14.5 44.2 14.5 C 44.7 14.5 45.1 14.2 45.1 13.7 C 45.1 13.2 44.7 12.9 44.2 12.9 C 44 12.9 43.8 12.9 43.6 13 C 43.6 13 43.6 12.3 43.6 12.3 Z M 50.2 12.7 C 50.2 14.2 49.6 15.1 48.5 15.1 C 47.5 15.1 46.9 14.2 46.9 12.7 C 46.9 11.2 47.5 10.3 48.5 10.3 C 49.6 10.3 50.2 11.2 50.2 12.7 Z M 47.6 12.7 C 47.6 13.9 47.9 14.5 48.5 14.5 C 49.1 14.5 49.5 13.9 49.5 12.7 C 49.5 11.5 49.1 10.9 48.5 10.9 C 47.9 10.9 47.6 11.5 47.6 12.7 Z M 54.5 12.7 C 54.5 14.2 53.9 15.1 52.8 15.1 C 51.8 15.1 51.2 14.2 51.2 12.7 C 51.2 11.2 51.8 10.3 52.8 10.3 C 53.9 10.3 54.5 11.2 54.5 12.7 Z M 51.9 12.7 C 51.9 13.9 52.2 14.5 52.8 14.5 C 53.4 14.5 53.8 13.9 53.8 12.7 C 53.8 11.5 53.4 10.9 52.8 10.9 C 52.2 10.9 51.9 11.5 51.9 12.7 Z M 58.8 12.7 C 58.8 14.2 58.2 15.1 57.1 15.1 C 56.1 15.1 55.5 14.2 55.5 12.7 C 55.5 11.2 56.1 10.3 57.1 10.3 C 58.2 10.3 58.8 11.2 58.8 12.7 Z M 56.2 12.7 C 56.2 13.9 56.5 14.5 57.1 14.5 C 57.8 14.5 58.1 13.9 58.1 12.7 C 58.1 11.5 57.8 10.9 57.1 10.9 C 56.5 10.9 56.2 11.5 56.2 12.7 Z M 60.5 15 C 60.5 15 60.5 11.15 60.5 11.1 C 60.3 11.3 60 11.4 59.8 11.5 C 59.8 11.5 59.8 10.8 59.8 10.8 C 60.1 10.7 60.4 10.5 60.7 10.4 C 60.73 10.35 61.2 10.4 61.2 10.4 L 61.2 15 L 60.5 15 Z M 63.1 14.7 C 63.9 14.3 64.6 13.8 64.9 12.9 C 64.6 13.1 64.2 13.3 63.8 13.3 C 63 13.3 62.5 12.6 62.5 11.8 C 62.5 10.9 63.1 10.3 63.9 10.3 C 65 10.3 65.6 11.1 65.6 12.1 C 65.6 13.6 64.6 14.7 63.3 15.3 C 63.3 15.3 63.1 14.7 63.1 14.7 Z M 65 12.1 C 65 11.5 64.7 10.9 64 10.9 C 63.5 10.9 63.1 11.3 63.1 11.8 C 63.1 12.3 63.4 12.7 64 12.7 C 64.4 12.7 64.8 12.5 65 12.1 Z M 69.2 10.7 C 68.3 11.1 67.6 11.6 67.4 12.5 C 67.7 12.2 68 12.1 68.4 12.1 C 69.2 12.1 69.8 12.7 69.8 13.6 C 69.8 14.4 69.2 15.1 68.3 15.1 C 67.2 15.1 66.6 14.2 66.6 13.2 C 66.6 11.7 67.6 10.6 68.9 10.1 C 68.9 10.1 69.2 10.7 69.2 10.7 Z M 67.3 13.2 C 67.3 13.9 67.5 14.5 68.3 14.5 C 68.8 14.5 69.1 14.1 69.1 13.5 C 69.1 13 68.8 12.6 68.3 12.6 C 67.9 12.6 67.5 12.9 67.3 13.2 Z " stroke="none" fill="#535a5d"/>  </g>  <g id="Polygon41585">    <path d="M 35.9 6 L 35.9 0.4 L 36.8 0.4 L 36.8 5.2 L 39.2 5.2 L 39.2 6 L 35.9 6 Z M 40.3 6 L 40.3 0.4 L 41.3 0.4 L 41.3 6 L 40.3 6 Z M 43.9 5.2 L 46.6 5.2 L 46.6 6 L 42.6 6 L 42.6 5.5 L 45.1 1.2 L 42.7 1.2 L 42.7 0.4 L 46.4 0.4 L 46.4 0.9 L 43.9 5.2 Z M 51.3 6 L 50.5 6 L 48.8 1.6 L 48.8 6 L 47.8 6 L 47.8 0.4 L 49.3 0.4 L 50.9 4.5 L 52.5 0.4 L 54 0.4 L 54 6 L 53 6 L 53 1.6 L 51.3 6 Z M 58.4 1.2 C 57.4 1.2 56.6 2.1 56.6 3.2 C 56.6 4.3 57.4 5.2 58.4 5.2 C 59.5 5.2 60.3 4.3 60.3 3.2 C 60.3 2.1 59.5 1.2 58.4 1.2 Z M 58.4 6.1 C 56.8 6.1 55.5 4.8 55.5 3.2 C 55.5 1.6 56.8 0.3 58.4 0.3 C 60.1 0.3 61.3 1.6 61.3 3.2 C 61.3 4.8 60.1 6.1 58.4 6.1 Z M 66.6 6 L 63.8 2.2 L 63.8 6 L 62.9 6 L 62.9 0.4 L 63.7 0.4 L 66.5 4.2 L 66.5 0.4 L 67.5 0.4 L 67.5 6 L 66.6 6 Z M 71 1.2 L 71 6 L 70 6 L 70 1.2 L 68.7 1.2 L 68.7 0.4 L 72.4 0.4 L 72.4 1.2 L 71 1.2 Z " stroke="none" fill="#535a5d"/>  </g></svg>