<?xml version="1.0" standalone="no"?><!DOCTYPE svg PUBLIC "-//W3C//DTD SVG 1.1//EN" "http://www.w3.org/Graphics/SVG/1.1/DTD/svg11.dtd"><svg xmlns="http://www.w3.org/2000/svg" version="1.1" width="97.1px" height="23.8px" viewBox="0 -4 97.1 23.8" style="top:-4px">  <desc>Avonley A3000283</desc>  <defs/>  <g id="Polygon39781">    <path d="M 3.7 15 L 3.3 14 L 1.2 14 L 0.8 15 L 0.1 15 L 2 10.1 L 2.6 10.1 L 4.5 15 L 3.7 15 Z M 1.4 13.4 L 3.1 13.4 L 2.3 11.1 L 2.3 11.1 L 1.4 13.4 Z M 6 12.3 C 6.3 12.3 6.5 12.3 6.7 12.2 C 7 12.1 7.3 11.9 7.3 11.5 C 7.3 11.1 7 10.9 6.5 10.9 C 6.2 10.9 5.9 11 5.7 11.4 C 5.7 11.4 5.2 11.1 5.2 11.1 C 5.4 10.6 5.9 10.3 6.5 10.3 C 7.4 10.3 8 10.8 8 11.5 C 8 11.9 7.7 12.3 7.4 12.5 C 7.9 12.7 8.2 13.1 8.2 13.6 C 8.2 14.6 7.5 15.1 6.6 15.1 C 6.1 15.1 5.4 14.8 5.2 14.3 C 5.2 14.3 5.7 14 5.7 14 C 5.9 14.4 6.2 14.5 6.6 14.5 C 7.1 14.5 7.5 14.2 7.5 13.7 C 7.5 13.2 7.1 12.9 6.5 12.9 C 6.4 12.9 6.2 12.9 6 13 C 6 13 6 12.3 6 12.3 Z M 12.6 12.7 C 12.6 14.2 12 15.1 10.9 15.1 C 9.9 15.1 9.3 14.2 9.3 12.7 C 9.3 11.2 9.9 10.3 10.9 10.3 C 12 10.3 12.6 11.2 12.6 12.7 Z M 9.9 12.7 C 9.9 13.9 10.3 14.5 10.9 14.5 C 11.5 14.5 11.9 13.9 11.9 12.7 C 11.9 11.5 11.5 10.9 10.9 10.9 C 10.3 10.9 9.9 11.5 9.9 12.7 Z M 16.9 12.7 C 16.9 14.2 16.3 15.1 15.2 15.1 C 14.2 15.1 13.6 14.2 13.6 12.7 C 13.6 11.2 14.2 10.3 15.2 10.3 C 16.3 10.3 16.9 11.2 16.9 12.7 Z M 14.2 12.7 C 14.2 13.9 14.6 14.5 15.2 14.5 C 15.8 14.5 16.2 13.9 16.2 12.7 C 16.2 11.5 15.8 10.9 15.2 10.9 C 14.6 10.9 14.2 11.5 14.2 12.7 Z M 21.2 12.7 C 21.2 14.2 20.6 15.1 19.5 15.1 C 18.5 15.1 17.9 14.2 17.9 12.7 C 17.9 11.2 18.5 10.3 19.5 10.3 C 20.6 10.3 21.2 11.2 21.2 12.7 Z M 18.5 12.7 C 18.5 13.9 18.9 14.5 19.5 14.5 C 20.1 14.5 20.5 13.9 20.5 12.7 C 20.5 11.5 20.1 10.9 19.5 10.9 C 18.9 10.9 18.5 11.5 18.5 12.7 Z M 22.2 15 C 22.2 15 22.2 14.41 22.2 14.4 C 22.7 13.8 23.4 13.1 23.8 12.5 C 24 12.2 24.3 11.8 24.3 11.5 C 24.3 11.1 23.9 10.9 23.5 10.9 C 23.1 10.9 22.8 11.1 22.8 11.6 C 22.8 11.6 22.1 11.4 22.1 11.4 C 22.2 10.7 22.9 10.3 23.5 10.3 C 24.3 10.3 24.9 10.8 24.9 11.5 C 24.9 11.9 24.7 12.4 24.5 12.8 C 24.1 13.3 23.6 13.9 23.1 14.4 C 23.09 14.41 25.2 14.4 25.2 14.4 L 25.2 15 L 22.2 15 Z M 26.1 13.7 C 26.1 13.2 26.4 12.8 26.8 12.6 C 26.5 12.3 26.2 12 26.2 11.5 C 26.2 10.8 26.8 10.3 27.7 10.3 C 28.5 10.3 29.1 10.8 29.1 11.5 C 29.1 12 28.9 12.3 28.5 12.6 C 29 12.8 29.3 13.2 29.3 13.7 C 29.3 14.5 28.6 15.1 27.7 15.1 C 26.7 15.1 26.1 14.5 26.1 13.7 Z M 26.8 13.7 C 26.8 14.2 27.2 14.5 27.7 14.5 C 28.2 14.5 28.6 14.2 28.6 13.7 C 28.6 13.2 28.2 12.9 27.7 12.9 C 27.2 12.9 26.8 13.2 26.8 13.7 Z M 26.9 11.6 C 26.9 12 27.3 12.3 27.7 12.3 C 28.1 12.3 28.5 12 28.5 11.6 C 28.5 11.1 28.1 10.9 27.7 10.9 C 27.3 10.9 26.9 11.1 26.9 11.6 Z M 31.1 12.3 C 31.4 12.3 31.6 12.3 31.7 12.2 C 32.1 12.1 32.4 11.9 32.4 11.5 C 32.4 11.1 32 10.9 31.6 10.9 C 31.2 10.9 30.9 11 30.8 11.4 C 30.8 11.4 30.3 11.1 30.3 11.1 C 30.4 10.6 30.9 10.3 31.6 10.3 C 32.5 10.3 33 10.8 33 11.5 C 33 11.9 32.8 12.3 32.5 12.5 C 32.9 12.7 33.3 13.1 33.3 13.6 C 33.3 14.6 32.6 15.1 31.7 15.1 C 31.1 15.1 30.5 14.8 30.2 14.3 C 30.2 14.3 30.8 14 30.8 14 C 31 14.4 31.3 14.5 31.7 14.5 C 32.2 14.5 32.6 14.2 32.6 13.7 C 32.6 13.2 32.2 12.9 31.6 12.9 C 31.5 12.9 31.3 12.9 31.1 13 C 31.1 13 31.1 12.3 31.1 12.3 Z " stroke="none" fill="#535a5d"/>  </g>  <g id="Polygon39780">    <path d="M 2.3 0.4 L 3.2 0.4 L 5.3 6 L 4.2 6 L 3.8 4.9 L 1.6 4.9 L 1.2 6 L 0.1 6 L 2.3 0.4 Z M 1.9 4.1 L 3.5 4.1 L 2.7 1.9 L 2.7 1.9 L 1.9 4.1 Z M 8.5 6 L 7.7 6 L 5.6 0.4 L 6.7 0.4 L 8.2 4.5 L 8.2 4.5 L 9.7 0.4 L 10.8 0.4 L 8.5 6 Z M 14.4 1.2 C 13.3 1.2 12.5 2.1 12.5 3.2 C 12.5 4.3 13.3 5.2 14.4 5.2 C 15.5 5.2 16.2 4.3 16.2 3.2 C 16.2 2.1 15.5 1.2 14.4 1.2 Z M 14.4 6.1 C 12.7 6.1 11.5 4.8 11.5 3.2 C 11.5 1.6 12.7 0.3 14.4 0.3 C 16 0.3 17.3 1.6 17.3 3.2 C 17.3 4.8 16 6.1 14.4 6.1 Z M 22.6 6 L 19.8 2.2 L 19.8 6 L 18.8 6 L 18.8 0.4 L 19.7 0.4 L 22.5 4.2 L 22.5 0.4 L 23.5 0.4 L 23.5 6 L 22.6 6 Z M 25.2 6 L 25.2 0.4 L 26.2 0.4 L 26.2 5.2 L 28.6 5.2 L 28.6 6 L 25.2 6 Z M 29.7 6 L 29.7 0.4 L 33.2 0.4 L 33.2 1.2 L 30.7 1.2 L 30.7 2.7 L 33.2 2.7 L 33.2 3.5 L 30.7 3.5 L 30.7 5.2 L 33.2 5.2 L 33.2 6 L 29.7 6 Z M 36 6 L 36 3.6 L 34.2 0.4 L 35.5 0.4 L 36.5 2.6 L 36.6 2.6 L 37.7 0.4 L 38.8 0.4 L 37 3.7 L 37 6 L 36 6 Z " stroke="none" fill="#535a5d"/>  </g></svg>