<?xml version="1.0" standalone="no"?><!DOCTYPE svg PUBLIC "-//W3C//DTD SVG 1.1//EN" "http://www.w3.org/Graphics/SVG/1.1/DTD/svg11.dtd"><svg xmlns="http://www.w3.org/2000/svg" version="1.1" width="237.2px" height="126.1px" viewBox="0 -1 237.2 126.1" style="top:-1px">  <desc>LOOK</desc>  <defs/>  <g id="Polygon38708">    <path d="M 8.4 42.1 C 8.4 38.3 8.3 34.7 8.2 31 C 8 27.4 7.9 23.7 7.7 20 C 8.4 20.1 9.1 20.2 9.8 20.3 C 10.5 20.4 11.2 20.4 11.9 20.4 C 12.6 20.4 13.2 20.4 13.9 20.3 C 14.6 20.2 15.3 20.1 16.1 20 C 15.9 23.7 15.7 27.4 15.6 31 C 15.4 34.7 15.4 38.3 15.4 42.1 C 15.4 49.3 15.4 55.5 15.5 60.8 C 15.5 66 15.6 70.7 15.6 74.9 C 19.7 74.9 23.5 74.9 27.2 74.8 C 30.9 74.7 34.9 74.4 39.2 73.8 C 38.9 74.8 38.8 75.7 38.8 76.4 C 38.8 77 38.9 77.8 39.2 78.7 C 36.6 78.5 34 78.5 31.3 78.5 C 28.7 78.5 26.1 78.5 23.5 78.5 C 20.8 78.5 18.1 78.5 15.6 78.5 C 13.1 78.5 10.4 78.5 7.7 78.7 C 7.9 75.1 8 71.5 8.2 67.9 C 8.3 64.3 8.4 60.6 8.4 56.8 C 8.37 56.8 8.4 42.1 8.4 42.1 C 8.4 42.1 8.37 42.11 8.4 42.1 Z M 46.3 49.5 C 46.3 44.6 47.1 40.3 48.6 36.5 C 50.2 32.7 52.4 29.5 55.2 26.9 C 58 24.3 61.4 22.3 65.3 20.9 C 69.3 19.6 73.6 18.9 78.2 18.9 C 83 18.9 87.3 19.6 91.2 20.9 C 95.1 22.3 98.5 24.3 101.3 26.9 C 104.2 29.5 106.3 32.7 107.9 36.5 C 109.5 40.3 110.3 44.6 110.3 49.5 C 110.3 54.3 109.5 58.6 107.9 62.4 C 106.3 66.2 104.2 69.4 101.3 72 C 98.5 74.6 95.1 76.6 91.2 77.9 C 87.3 79.1 83 79.8 78.2 79.8 C 73.6 79.8 69.3 79.1 65.3 77.9 C 61.4 76.6 58 74.6 55.2 72 C 52.4 69.4 50.2 66.2 48.6 62.4 C 47.1 58.6 46.3 54.3 46.3 49.5 Z M 101.9 49.5 C 101.9 44.7 101.3 40.6 100.1 37.2 C 98.9 33.8 97.2 30.9 95.1 28.7 C 93 26.4 90.5 24.7 87.6 23.7 C 84.7 22.6 81.6 22 78.2 22 C 74.9 22 71.8 22.6 69 23.7 C 66.1 24.7 63.6 26.4 61.5 28.7 C 59.3 30.9 57.7 33.8 56.5 37.2 C 55.3 40.6 54.7 44.7 54.7 49.5 C 54.7 54.2 55.3 58.3 56.5 61.7 C 57.7 65.2 59.3 68 61.5 70.2 C 63.6 72.5 66.1 74.2 69 75.2 C 71.8 76.3 74.9 76.9 78.2 76.9 C 81.6 76.9 84.7 76.3 87.6 75.2 C 90.5 74.2 93 72.5 95.1 70.2 C 97.2 68 98.9 65.2 100.1 61.7 C 101.3 58.3 101.9 54.2 101.9 49.5 Z M 117.4 49.5 C 117.4 44.6 118.2 40.3 119.8 36.5 C 121.4 32.7 123.5 29.5 126.4 26.9 C 129.2 24.3 132.6 22.3 136.5 20.9 C 140.4 19.6 144.7 18.9 149.4 18.9 C 154.1 18.9 158.4 19.6 162.4 20.9 C 166.3 22.3 169.7 24.3 172.5 26.9 C 175.3 29.5 177.5 32.7 179.1 36.5 C 180.6 40.3 181.4 44.6 181.4 49.5 C 181.4 54.3 180.6 58.6 179.1 62.4 C 177.5 66.2 175.3 69.4 172.5 72 C 169.7 74.6 166.3 76.6 162.4 77.9 C 158.4 79.1 154.1 79.8 149.4 79.8 C 144.7 79.8 140.4 79.1 136.5 77.9 C 132.6 76.6 129.2 74.6 126.4 72 C 123.5 69.4 121.4 66.2 119.8 62.4 C 118.2 58.6 117.4 54.3 117.4 49.5 Z M 173 49.5 C 173 44.7 172.4 40.6 171.2 37.2 C 170.1 33.8 168.4 30.9 166.2 28.7 C 164.1 26.4 161.6 24.7 158.7 23.7 C 155.9 22.6 152.7 22 149.4 22 C 146.1 22 143 22.6 140.1 23.7 C 137.2 24.7 134.7 26.4 132.6 28.7 C 130.5 30.9 128.8 33.8 127.6 37.2 C 126.4 40.6 125.8 44.7 125.8 49.5 C 125.8 54.2 126.4 58.3 127.6 61.7 C 128.8 65.2 130.5 68 132.6 70.2 C 134.7 72.5 137.2 74.2 140.1 75.2 C 143 76.3 146.1 76.9 149.4 76.9 C 152.7 76.9 155.9 76.3 158.7 75.2 C 161.6 74.2 164.1 72.5 166.2 70.2 C 168.4 68 170.1 65.2 171.2 61.7 C 172.4 58.3 173 54.2 173 49.5 Z M 196.9 78.5 C 195.4 78.5 194 78.5 192.7 78.7 C 192.9 75.1 193 71.5 193.2 67.9 C 193.3 64.3 193.4 60.6 193.4 56.8 C 193.4 56.8 193.4 42.1 193.4 42.1 C 193.4 38.3 193.3 34.7 193.2 31 C 193 27.4 192.9 23.7 192.7 20 C 193.4 20.1 194.1 20.2 194.8 20.3 C 195.5 20.4 196.2 20.4 196.9 20.4 C 197.6 20.4 198.2 20.4 198.9 20.3 C 199.6 20.2 200.3 20.1 201.1 20 C 200.9 23.7 200.7 27.4 200.6 31 C 200.4 34.7 200.4 38.3 200.4 42.1 C 200.4 42.1 200.4 46.8 200.4 46.8 C 200.4 47.3 200.5 47.5 200.9 47.5 C 201.1 47.5 201.5 47.2 202.1 46.7 C 204.1 45 206.2 43.1 208.4 40.9 C 210.5 38.7 212.8 36.5 215 34.2 C 217.2 31.8 219.4 29.5 221.6 27 C 223.7 24.6 225.8 22.3 227.8 20 C 228.4 20.1 229 20.2 229.6 20.3 C 230.1 20.4 230.7 20.4 231.3 20.4 C 232 20.4 232.7 20.4 233.3 20.3 C 234 20.2 234.7 20.1 235.4 20 C 233.4 21.7 231.1 23.7 228.6 26 C 226.1 28.4 223.6 30.8 221.1 33.2 C 218.5 35.7 216.1 38.1 213.8 40.4 C 211.5 42.8 209.6 44.9 208.1 46.6 C 212.7 51.8 217.3 57.1 222 62.5 C 226.7 67.9 231.5 73.3 236.3 78.7 C 235.5 78.5 234.6 78.5 233.8 78.5 C 232.9 78.5 232.1 78.5 231.2 78.5 C 230.4 78.5 229.6 78.5 228.9 78.5 C 228.1 78.5 227.3 78.5 226.5 78.7 C 224.5 76.3 222.2 73.7 219.7 70.6 C 217.2 67.6 214.8 64.7 212.5 61.9 C 210.1 59.1 208 56.5 206 54.3 C 204.1 52 202.7 50.4 201.8 49.5 C 201.4 49.1 201 48.9 200.8 48.9 C 200.5 48.9 200.4 49 200.4 49.4 C 200.4 49.4 200.4 56.8 200.4 56.8 C 200.4 60.6 200.4 64.3 200.6 67.9 C 200.7 71.5 200.9 75.1 201.1 78.7 C 199.7 78.5 198.3 78.5 196.9 78.5 C 196.9 78.5 196.9 78.5 196.9 78.5 Z " stroke="none" fill="#fff"/>  </g></svg>