<?xml version="1.0" standalone="no"?><!DOCTYPE svg PUBLIC "-//W3C//DTD SVG 1.1//EN" "http://www.w3.org/Graphics/SVG/1.1/DTD/svg11.dtd"><svg xmlns="http://www.w3.org/2000/svg" version="1.1" width="489px" height="47.8px" viewBox="0 -1 489 47.8" style="top:-1px">  <desc>2022, Ashley Furniture Industries, LLC All rights reserved Signature Design by Ashley is a registered trademark o</desc>  <defs/>  <g id="Polygon43209">    <path d="M 106.2 37.6 C 105.7 37.6 105.3 37.8 105.3 38.3 C 105.3 38.7 105.8 38.8 106.3 39 C 107 39.3 107.8 39.6 107.8 40.5 C 107.8 41.6 106.8 42 106.1 42 C 105.4 42 104.8 41.8 104.3 41.3 C 104.3 41.3 104.8 40.9 104.8 40.9 C 105.2 41.3 105.6 41.4 106.1 41.4 C 106.6 41.4 107.1 41.2 107.1 40.6 C 107.1 40.1 106.6 39.9 106 39.7 C 105.3 39.4 104.6 39.1 104.6 38.3 C 104.6 37.4 105.3 37 106.1 37 C 106.7 37 107.2 37.1 107.6 37.5 C 107.6 37.5 107.2 38 107.2 38 C 107 37.7 106.6 37.6 106.2 37.6 Z M 108.8 42 L 108.8 38.5 L 109.5 38.5 L 109.5 42 L 108.8 42 Z M 108.8 37.8 L 108.8 37.1 L 109.5 37.1 L 109.5 37.8 L 108.8 37.8 Z M 113.9 41.8 C 113.9 42.1 113.8 42.4 113.7 42.7 C 113.4 43.3 112.8 43.5 112.1 43.5 C 111.6 43.5 111 43.4 110.6 43 C 110.6 43 110.8 42.5 110.8 42.5 C 111.1 42.7 111.6 42.9 112.1 42.9 C 112.7 42.9 113.2 42.6 113.2 41.9 C 113.2 41.9 113.2 41.4 113.2 41.4 C 113 41.8 112.5 42 112.1 42 C 111.1 42 110.4 41.2 110.4 40.2 C 110.4 39.2 111.1 38.4 112.1 38.4 C 112.5 38.4 112.9 38.6 113.2 38.8 C 113.23 38.84 113.2 38.5 113.2 38.5 L 113.9 38.5 C 113.9 38.5 113.86 41.76 113.9 41.8 Z M 113.2 39.5 C 113 39.1 112.6 39 112.2 39 C 111.4 39 111 39.6 111 40.2 C 111 40.8 111.5 41.4 112.2 41.4 C 112.6 41.4 113 41.1 113.2 40.7 C 113.2 40.7 113.2 39.5 113.2 39.5 Z M 115.6 38.5 C 115.6 38.5 115.63 39.03 115.6 39 C 115.9 38.6 116.3 38.4 116.8 38.4 C 117.3 38.4 117.6 38.5 117.8 38.8 C 118 39.1 118.1 39.6 118.1 40.1 C 118.11 40.14 118.1 42 118.1 42 L 117.5 42 C 117.5 42 117.47 40.21 117.5 40.2 C 117.5 39.9 117.5 39.5 117.3 39.2 C 117.2 39.1 117 39 116.7 39 C 116.3 39 115.9 39.2 115.6 39.6 C 115.63 39.63 115.6 42 115.6 42 L 115 42 L 115 38.5 L 115.6 38.5 Z M 121.3 42 C 121.3 42 121.32 41.59 121.3 41.6 C 121 41.9 120.7 42 120.3 42 C 119.6 42 119 41.7 119 41 C 119 40.1 119.8 39.8 120.6 39.8 C 120.8 39.8 121 39.8 121.3 39.9 C 121.3 39.9 121.3 39.8 121.3 39.8 C 121.3 39.2 121 38.9 120.5 38.9 C 120.1 38.9 119.6 39.1 119.4 39.2 C 119.4 39.2 119.2 38.7 119.2 38.7 C 119.5 38.5 120.1 38.4 120.5 38.4 C 121.6 38.4 121.9 38.9 121.9 39.8 C 121.93 39.83 121.9 42 121.9 42 L 121.3 42 Z M 121.3 40.4 C 121 40.3 120.8 40.3 120.7 40.3 C 120.2 40.3 119.7 40.4 119.7 40.9 C 119.7 41.4 120 41.5 120.3 41.5 C 120.7 41.5 121 41.3 121.3 41.1 C 121.3 41.1 121.3 40.4 121.3 40.4 Z M 123.7 39 C 123.7 39 123.73 40.6 123.7 40.6 C 123.7 40.7 123.7 40.8 123.7 40.9 C 123.8 41.2 123.9 41.5 124.2 41.5 C 124.4 41.5 124.5 41.4 124.6 41.4 C 124.6 41.4 124.8 41.9 124.8 41.9 C 124.6 42 124.4 42 124.1 42 C 123.7 42 123.4 41.8 123.2 41.5 C 123.1 41.3 123.1 41 123.1 40.8 C 123.1 40.75 123.1 39 123.1 39 L 122.6 39 L 122.6 38.5 L 123.1 38.5 L 123.1 37.6 L 123.7 37.6 L 123.7 38.5 L 124.7 38.5 L 124.7 39 L 123.7 39 Z M 127.9 41.4 C 127.7 41.8 127.2 42 126.8 42 C 126.3 42 126 41.9 125.8 41.6 C 125.5 41.3 125.4 40.8 125.4 40.3 C 125.44 40.28 125.4 38.5 125.4 38.5 L 126.1 38.5 C 126.1 38.5 126.08 40.21 126.1 40.2 C 126.1 40.5 126.1 40.9 126.3 41.2 C 126.4 41.3 126.6 41.5 126.9 41.5 C 127.3 41.5 127.7 41.2 127.9 40.8 C 127.91 40.78 127.9 38.5 127.9 38.5 L 128.5 38.5 L 128.5 42 L 127.9 42 C 127.9 42 127.91 41.38 127.9 41.4 Z M 130.4 39 C 130.6 38.7 130.9 38.4 131.3 38.4 C 131.4 38.4 131.5 38.4 131.6 38.4 C 131.6 38.4 131.5 39.1 131.5 39.1 C 131.4 39 131.3 39 131.2 39 C 130.8 39 130.6 39.2 130.4 39.6 C 130.36 39.61 130.4 42 130.4 42 L 129.7 42 L 129.7 38.5 L 130.4 38.5 C 130.4 38.5 130.36 39.04 130.4 39 Z M 132.6 40.4 C 132.6 41 133 41.5 133.7 41.5 C 134.2 41.5 134.5 41.3 134.7 40.9 C 134.7 40.9 135.2 41.2 135.2 41.2 C 134.8 41.8 134.4 42 133.7 42 C 132.6 42 131.9 41.2 131.9 40.2 C 131.9 39.2 132.7 38.4 133.7 38.4 C 134.6 38.4 135.3 39.1 135.3 40 C 135.3 40.1 135.2 40.3 135.2 40.4 C 135.2 40.4 132.6 40.4 132.6 40.4 Z M 132.6 39.9 C 132.6 39.9 134.6 39.9 134.6 39.9 C 134.6 39.4 134.2 38.9 133.7 38.9 C 133.1 38.9 132.7 39.3 132.6 39.9 Z M 138 37.1 C 138 37.1 139.29 37.06 139.3 37.1 C 140.5 37.1 141.9 37.7 141.9 39.5 C 141.9 41.3 140.6 42 139.2 42 C 139.22 41.96 138 42 138 42 L 138 37.1 Z M 139.2 37.7 C 139.17 37.66 138.6 37.7 138.6 37.7 L 138.6 41.4 C 138.6 41.4 138.87 41.35 138.9 41.4 C 140.3 41.4 141.2 40.9 141.2 39.5 C 141.2 38.3 140.5 37.7 139.2 37.7 Z M 143.3 40.4 C 143.3 41 143.7 41.5 144.4 41.5 C 144.9 41.5 145.2 41.3 145.4 40.9 C 145.4 40.9 145.9 41.2 145.9 41.2 C 145.6 41.8 145.1 42 144.4 42 C 143.3 42 142.6 41.2 142.6 40.2 C 142.6 39.2 143.4 38.4 144.4 38.4 C 145.3 38.4 146 39.1 146 40 C 146 40.1 146 40.3 145.9 40.4 C 145.9 40.4 143.3 40.4 143.3 40.4 Z M 143.3 39.9 C 143.3 39.9 145.3 39.9 145.3 39.9 C 145.3 39.4 144.9 38.9 144.4 38.9 C 143.8 38.9 143.5 39.3 143.3 39.9 Z M 148.6 39.2 C 148.4 39 148.1 38.9 147.9 38.9 C 147.5 38.9 147.3 39.1 147.3 39.4 C 147.3 39.6 147.7 39.8 148 39.9 C 148.5 40.1 149 40.3 149 40.9 C 149 41.7 148.4 42 147.8 42 C 147.3 42 146.8 41.9 146.6 41.5 C 146.6 41.5 147 41.1 147 41.1 C 147.2 41.4 147.5 41.5 147.8 41.5 C 148.1 41.5 148.4 41.3 148.4 41 C 148.4 40.7 148.1 40.6 147.7 40.4 C 147.3 40.2 146.7 40 146.7 39.4 C 146.7 38.7 147.3 38.4 147.9 38.4 C 148.3 38.4 148.7 38.5 148.9 38.8 C 148.9 38.8 148.6 39.2 148.6 39.2 Z M 150 42 L 150 38.5 L 150.6 38.5 L 150.6 42 L 150 42 Z M 150 37.8 L 150 37.1 L 150.6 37.1 L 150.6 37.8 L 150 37.8 Z M 155 41.8 C 155 42.1 155 42.4 154.8 42.7 C 154.5 43.3 153.9 43.5 153.3 43.5 C 152.7 43.5 152.1 43.4 151.7 43 C 151.7 43 152 42.5 152 42.5 C 152.3 42.7 152.8 42.9 153.3 42.9 C 153.9 42.9 154.4 42.6 154.4 41.9 C 154.4 41.9 154.4 41.4 154.4 41.4 C 154.1 41.8 153.7 42 153.3 42 C 152.3 42 151.5 41.2 151.5 40.2 C 151.5 39.2 152.2 38.4 153.3 38.4 C 153.7 38.4 154.1 38.6 154.4 38.8 C 154.39 38.84 154.4 38.5 154.4 38.5 L 155 38.5 C 155 38.5 155.03 41.76 155 41.8 Z M 154.4 39.5 C 154.1 39.1 153.7 39 153.4 39 C 152.6 39 152.2 39.6 152.2 40.2 C 152.2 40.8 152.6 41.4 153.4 41.4 C 153.7 41.4 154.2 41.1 154.4 40.7 C 154.4 40.7 154.4 39.5 154.4 39.5 Z M 156.8 38.5 C 156.8 38.5 156.8 39.03 156.8 39 C 157.1 38.6 157.5 38.4 157.9 38.4 C 158.4 38.4 158.8 38.5 159 38.8 C 159.2 39.1 159.3 39.6 159.3 40.1 C 159.27 40.14 159.3 42 159.3 42 L 158.6 42 C 158.6 42 158.64 40.21 158.6 40.2 C 158.6 39.9 158.6 39.5 158.5 39.2 C 158.3 39.1 158.2 39 157.8 39 C 157.4 39 157.1 39.2 156.8 39.6 C 156.8 39.63 156.8 42 156.8 42 L 156.2 42 L 156.2 38.5 L 156.8 38.5 Z M 162.8 36.7 C 162.8 36.7 162.79 38.92 162.8 38.9 C 163 38.6 163.5 38.4 163.9 38.4 C 164.9 38.4 165.7 39.2 165.7 40.2 C 165.7 41.1 165 42 163.9 42 C 163.5 42 163.1 41.9 162.8 41.6 C 162.79 41.58 162.8 42 162.8 42 L 162.2 42 L 162.2 36.7 L 162.8 36.7 Z M 162.8 40.9 C 163 41.3 163.4 41.5 163.8 41.5 C 164.6 41.5 165 40.8 165 40.2 C 165 39.5 164.6 39 163.8 39 C 163.4 39 163 39.2 162.8 39.6 C 162.8 39.6 162.8 40.9 162.8 40.9 Z M 166.7 38.5 L 167.6 41.1 L 167.6 41.1 L 168.6 38.5 L 169.2 38.5 L 167.3 43.5 L 166.7 43.3 L 167.3 41.9 L 166 38.5 L 166.7 38.5 Z M 174.7 42 L 174.3 40.9 L 172.3 40.9 L 171.9 42 L 171.1 42 L 173 37.1 L 173.6 37.1 L 175.5 42 L 174.7 42 Z M 172.5 40.3 L 174.1 40.3 L 173.3 38.1 L 173.3 38.1 L 172.5 40.3 Z M 177.9 39.2 C 177.7 39 177.5 38.9 177.2 38.9 C 176.9 38.9 176.7 39.1 176.7 39.4 C 176.7 39.6 177 39.8 177.4 39.9 C 177.8 40.1 178.4 40.3 178.4 40.9 C 178.4 41.7 177.8 42 177.1 42 C 176.6 42 176.2 41.9 175.9 41.5 C 175.9 41.5 176.4 41.1 176.4 41.1 C 176.6 41.4 176.8 41.5 177.1 41.5 C 177.5 41.5 177.8 41.3 177.8 41 C 177.8 40.7 177.4 40.6 177.1 40.4 C 176.6 40.2 176.1 40 176.1 39.4 C 176.1 38.7 176.6 38.4 177.2 38.4 C 177.6 38.4 178 38.5 178.3 38.8 C 178.3 38.8 177.9 39.2 177.9 39.2 Z M 180 39 C 180.3 38.6 180.7 38.4 181.1 38.4 C 181.6 38.4 181.9 38.5 182.1 38.8 C 182.4 39.1 182.5 39.6 182.5 40.1 C 182.46 40.14 182.5 42 182.5 42 L 181.8 42 C 181.8 42 181.83 40.21 181.8 40.2 C 181.8 39.9 181.8 39.5 181.6 39.2 C 181.5 39.1 181.3 39 181 39 C 180.6 39 180.2 39.2 180 39.6 C 179.99 39.63 180 42 180 42 L 179.4 42 L 179.4 36.7 L 180 36.7 C 180 36.7 179.99 39.03 180 39 Z M 184.2 42 L 183.6 42 L 183.6 36.7 L 184.2 36.7 L 184.2 42 Z M 185.8 40.4 C 185.8 41 186.2 41.5 186.9 41.5 C 187.3 41.5 187.7 41.3 187.9 40.9 C 187.9 40.9 188.4 41.2 188.4 41.2 C 188 41.8 187.6 42 186.9 42 C 185.7 42 185.1 41.2 185.1 40.2 C 185.1 39.2 185.9 38.4 186.9 38.4 C 187.8 38.4 188.4 39.1 188.4 40 C 188.4 40.1 188.4 40.3 188.4 40.4 C 188.4 40.4 185.8 40.4 185.8 40.4 Z M 185.8 39.9 C 185.8 39.9 187.8 39.9 187.8 39.9 C 187.8 39.4 187.4 38.9 186.9 38.9 C 186.3 38.9 185.9 39.3 185.8 39.9 Z M 189.5 38.5 L 190.4 41.1 L 190.4 41.1 L 191.3 38.5 L 192 38.5 L 190.1 43.5 L 189.5 43.3 L 190.1 41.9 L 188.8 38.5 L 189.5 38.5 Z M 194.4 42 L 194.4 38.5 L 195.1 38.5 L 195.1 42 L 194.4 42 Z M 194.4 37.8 L 194.4 37.1 L 195.1 37.1 L 195.1 37.8 L 194.4 37.8 Z M 197.9 39.2 C 197.8 39 197.5 38.9 197.2 38.9 C 196.9 38.9 196.7 39.1 196.7 39.4 C 196.7 39.6 197.1 39.8 197.4 39.9 C 197.8 40.1 198.4 40.3 198.4 40.9 C 198.4 41.7 197.8 42 197.1 42 C 196.7 42 196.2 41.9 195.9 41.5 C 195.9 41.5 196.4 41.1 196.4 41.1 C 196.6 41.4 196.9 41.5 197.2 41.5 C 197.5 41.5 197.8 41.3 197.8 41 C 197.8 40.7 197.5 40.6 197.1 40.4 C 196.7 40.2 196.1 40 196.1 39.4 C 196.1 38.7 196.7 38.4 197.2 38.4 C 197.6 38.4 198 38.5 198.3 38.8 C 198.3 38.8 197.9 39.2 197.9 39.2 Z M 203.2 42 C 203.2 42 203.22 41.59 203.2 41.6 C 202.9 41.9 202.6 42 202.2 42 C 201.5 42 200.9 41.7 200.9 41 C 200.9 40.1 201.7 39.8 202.5 39.8 C 202.7 39.8 202.9 39.8 203.2 39.9 C 203.2 39.9 203.2 39.8 203.2 39.8 C 203.2 39.2 202.9 38.9 202.4 38.9 C 202 38.9 201.5 39.1 201.3 39.2 C 201.3 39.2 201.1 38.7 201.1 38.7 C 201.4 38.5 202 38.4 202.4 38.4 C 203.5 38.4 203.8 38.9 203.8 39.8 C 203.83 39.83 203.8 42 203.8 42 L 203.2 42 Z M 203.2 40.4 C 202.9 40.3 202.7 40.3 202.6 40.3 C 202.1 40.3 201.6 40.4 201.6 40.9 C 201.6 41.4 201.9 41.5 202.2 41.5 C 202.6 41.5 202.9 41.3 203.2 41.1 C 203.2 41.1 203.2 40.4 203.2 40.4 Z M 207.3 39 C 207.6 38.7 207.9 38.4 208.2 38.4 C 208.4 38.4 208.5 38.4 208.6 38.4 C 208.6 38.4 208.5 39.1 208.5 39.1 C 208.4 39 208.3 39 208.2 39 C 207.8 39 207.6 39.2 207.3 39.6 C 207.35 39.61 207.3 42 207.3 42 L 206.7 42 L 206.7 38.5 L 207.3 38.5 C 207.3 38.5 207.35 39.04 207.3 39 Z M 209.6 40.4 C 209.6 41 210 41.5 210.7 41.5 C 211.1 41.5 211.5 41.3 211.7 40.9 C 211.7 40.9 212.2 41.2 212.2 41.2 C 211.8 41.8 211.4 42 210.7 42 C 209.5 42 208.9 41.2 208.9 40.2 C 208.9 39.2 209.7 38.4 210.7 38.4 C 211.6 38.4 212.2 39.1 212.2 40 C 212.2 40.1 212.2 40.3 212.2 40.4 C 212.2 40.4 209.6 40.4 209.6 40.4 Z M 209.6 39.9 C 209.6 39.9 211.6 39.9 211.6 39.9 C 211.6 39.4 211.2 38.9 210.7 38.9 C 210.1 38.9 209.7 39.3 209.6 39.9 Z M 216.3 41.8 C 216.3 42.1 216.3 42.4 216.2 42.7 C 215.8 43.3 215.2 43.5 214.6 43.5 C 214 43.5 213.4 43.4 213 43 C 213 43 213.3 42.5 213.3 42.5 C 213.6 42.7 214.1 42.9 214.6 42.9 C 215.2 42.9 215.7 42.6 215.7 41.9 C 215.7 41.9 215.7 41.4 215.7 41.4 C 215.4 41.8 215 42 214.6 42 C 213.6 42 212.8 41.2 212.8 40.2 C 212.8 39.2 213.5 38.4 214.6 38.4 C 215 38.4 215.4 38.6 215.7 38.8 C 215.7 38.84 215.7 38.5 215.7 38.5 L 216.3 38.5 C 216.3 38.5 216.33 41.76 216.3 41.8 Z M 215.7 39.5 C 215.5 39.1 215 39 214.7 39 C 213.9 39 213.5 39.6 213.5 40.2 C 213.5 40.8 213.9 41.4 214.7 41.4 C 215 41.4 215.5 41.1 215.7 40.7 C 215.7 40.7 215.7 39.5 215.7 39.5 Z M 217.5 42 L 217.5 38.5 L 218.1 38.5 L 218.1 42 L 217.5 42 Z M 217.5 37.8 L 217.5 37.1 L 218.1 37.1 L 218.1 37.8 L 217.5 37.8 Z M 221 39.2 C 220.8 39 220.5 38.9 220.3 38.9 C 220 38.9 219.8 39.1 219.8 39.4 C 219.8 39.6 220.1 39.8 220.4 39.9 C 220.9 40.1 221.5 40.3 221.5 40.9 C 221.5 41.7 220.9 42 220.2 42 C 219.7 42 219.3 41.9 219 41.5 C 219 41.5 219.4 41.1 219.4 41.1 C 219.7 41.4 219.9 41.5 220.2 41.5 C 220.5 41.5 220.8 41.3 220.8 41 C 220.8 40.7 220.5 40.6 220.2 40.4 C 219.7 40.2 219.2 40 219.2 39.4 C 219.2 38.7 219.7 38.4 220.3 38.4 C 220.7 38.4 221.1 38.5 221.4 38.8 C 221.4 38.8 221 39.2 221 39.2 Z M 223.1 39 C 223.1 39 223.11 40.6 223.1 40.6 C 223.1 40.7 223.1 40.8 223.1 40.9 C 223.1 41.2 223.3 41.5 223.6 41.5 C 223.7 41.5 223.9 41.4 224 41.4 C 224 41.4 224.2 41.9 224.2 41.9 C 224 42 223.8 42 223.5 42 C 223 42 222.7 41.8 222.6 41.5 C 222.5 41.3 222.5 41 222.5 40.8 C 222.47 40.75 222.5 39 222.5 39 L 222 39 L 222 38.5 L 222.5 38.5 L 222.5 37.6 L 223.1 37.6 L 223.1 38.5 L 224.1 38.5 L 224.1 39 L 223.1 39 Z M 225.2 40.4 C 225.2 41 225.7 41.5 226.3 41.5 C 226.8 41.5 227.2 41.3 227.4 40.9 C 227.4 40.9 227.8 41.2 227.8 41.2 C 227.5 41.8 227 42 226.3 42 C 225.2 42 224.6 41.2 224.6 40.2 C 224.6 39.2 225.3 38.4 226.3 38.4 C 227.2 38.4 227.9 39.1 227.9 40 C 227.9 40.1 227.9 40.3 227.9 40.4 C 227.9 40.4 225.2 40.4 225.2 40.4 Z M 225.3 39.9 C 225.3 39.9 227.2 39.9 227.2 39.9 C 227.2 39.4 226.8 38.9 226.3 38.9 C 225.7 38.9 225.4 39.3 225.3 39.9 Z M 229.4 39 C 229.6 38.7 229.9 38.4 230.3 38.4 C 230.5 38.4 230.6 38.4 230.7 38.4 C 230.7 38.4 230.6 39.1 230.6 39.1 C 230.5 39 230.4 39 230.3 39 C 229.9 39 229.6 39.2 229.4 39.6 C 229.42 39.61 229.4 42 229.4 42 L 228.8 42 L 228.8 38.5 L 229.4 38.5 C 229.4 38.5 229.42 39.04 229.4 39 Z M 231.6 40.4 C 231.7 41 232.1 41.5 232.8 41.5 C 233.2 41.5 233.6 41.3 233.8 40.9 C 233.8 40.9 234.3 41.2 234.3 41.2 C 233.9 41.8 233.4 42 232.7 42 C 231.6 42 231 41.2 231 40.2 C 231 39.2 231.7 38.4 232.7 38.4 C 233.6 38.4 234.3 39.1 234.3 40 C 234.3 40.1 234.3 40.3 234.3 40.4 C 234.3 40.4 231.6 40.4 231.6 40.4 Z M 231.7 39.9 C 231.7 39.9 233.7 39.9 233.7 39.9 C 233.6 39.4 233.3 38.9 232.7 38.9 C 232.2 38.9 231.8 39.3 231.7 39.9 Z M 234.9 40.2 C 234.9 39.3 235.6 38.4 236.7 38.4 C 237.1 38.4 237.5 38.6 237.8 38.8 C 237.77 38.84 237.8 36.7 237.8 36.7 L 238.4 36.7 L 238.4 42 L 237.8 42 C 237.8 42 237.77 41.49 237.8 41.5 C 237.5 41.9 237.1 42 236.7 42 C 235.6 42 234.9 41.2 234.9 40.2 Z M 237.8 40.8 C 237.8 40.8 237.8 39.5 237.8 39.5 C 237.5 39.1 237.1 39 236.8 39 C 235.9 39 235.6 39.6 235.6 40.2 C 235.6 40.9 236 41.5 236.7 41.5 C 237.1 41.5 237.6 41.2 237.8 40.8 Z M 242 39 C 242 39 242 40.6 242 40.6 C 242 40.7 242 40.8 242 40.9 C 242 41.2 242.2 41.5 242.5 41.5 C 242.6 41.5 242.8 41.4 242.9 41.4 C 242.9 41.4 243.1 41.9 243.1 41.9 C 242.9 42 242.6 42 242.4 42 C 241.9 42 241.6 41.8 241.5 41.5 C 241.4 41.3 241.4 41 241.4 40.8 C 241.37 40.75 241.4 39 241.4 39 L 240.9 39 L 240.9 38.5 L 241.4 38.5 L 241.4 37.6 L 242 37.6 L 242 38.5 L 243 38.5 L 243 39 L 242 39 Z M 244.4 39 C 244.6 38.7 244.9 38.4 245.3 38.4 C 245.4 38.4 245.5 38.4 245.7 38.4 C 245.7 38.4 245.6 39.1 245.6 39.1 C 245.4 39 245.4 39 245.2 39 C 244.9 39 244.6 39.2 244.4 39.6 C 244.39 39.61 244.4 42 244.4 42 L 243.8 42 L 243.8 38.5 L 244.4 38.5 C 244.4 38.5 244.39 39.04 244.4 39 Z M 248.3 42 C 248.3 42 248.33 41.59 248.3 41.6 C 248 41.9 247.7 42 247.3 42 C 246.6 42 246 41.7 246 41 C 246 40.1 246.8 39.8 247.6 39.8 C 247.8 39.8 248 39.8 248.3 39.9 C 248.3 39.9 248.3 39.8 248.3 39.8 C 248.3 39.2 248.1 38.9 247.5 38.9 C 247.1 38.9 246.6 39.1 246.4 39.2 C 246.4 39.2 246.2 38.7 246.2 38.7 C 246.5 38.5 247.1 38.4 247.6 38.4 C 248.6 38.4 248.9 38.9 248.9 39.8 C 248.94 39.83 248.9 42 248.9 42 L 248.3 42 Z M 248.3 40.4 C 248 40.3 247.8 40.3 247.7 40.3 C 247.2 40.3 246.7 40.4 246.7 40.9 C 246.7 41.4 247 41.5 247.4 41.5 C 247.7 41.5 248 41.3 248.3 41.1 C 248.3 41.1 248.3 40.4 248.3 40.4 Z M 249.8 40.2 C 249.8 39.3 250.5 38.4 251.5 38.4 C 252 38.4 252.4 38.6 252.6 38.8 C 252.64 38.84 252.6 36.7 252.6 36.7 L 253.3 36.7 L 253.3 42 L 252.6 42 C 252.6 42 252.64 41.49 252.6 41.5 C 252.4 41.9 252 42 251.5 42 C 250.5 42 249.8 41.2 249.8 40.2 Z M 252.6 40.8 C 252.6 40.8 252.6 39.5 252.6 39.5 C 252.4 39.1 252 39 251.6 39 C 250.8 39 250.4 39.6 250.4 40.2 C 250.4 40.9 250.9 41.5 251.6 41.5 C 252 41.5 252.5 41.2 252.6 40.8 Z M 254.8 40.4 C 254.8 41 255.3 41.5 255.9 41.5 C 256.4 41.5 256.8 41.3 257 40.9 C 257 40.9 257.4 41.2 257.4 41.2 C 257.1 41.8 256.6 42 255.9 42 C 254.8 42 254.2 41.2 254.2 40.2 C 254.2 39.2 254.9 38.4 255.9 38.4 C 256.8 38.4 257.5 39.1 257.5 40 C 257.5 40.1 257.5 40.3 257.5 40.4 C 257.5 40.4 254.8 40.4 254.8 40.4 Z M 254.8 39.9 C 254.8 39.9 256.8 39.9 256.8 39.9 C 256.8 39.4 256.4 38.9 255.9 38.9 C 255.3 38.9 255 39.3 254.8 39.9 Z M 263 42 C 263 42 263.04 40.21 263 40.2 C 263 39.9 263 39.5 262.9 39.2 C 262.8 39.1 262.6 39 262.3 39 C 261.9 39 261.6 39.2 261.3 39.5 C 261.3 39.7 261.3 39.9 261.3 40.1 C 261.34 40.14 261.3 42 261.3 42 L 260.7 42 C 260.7 42 260.71 40.21 260.7 40.2 C 260.7 39.9 260.7 39.5 260.5 39.2 C 260.4 39.1 260.2 39 260 39 C 259.6 39 259.2 39.3 259 39.6 C 259.01 39.6 259 42 259 42 L 258.4 42 L 258.4 38.5 L 259 38.5 C 259 38.5 259.01 38.99 259 39 C 259.3 38.6 259.7 38.4 260.1 38.4 C 260.5 38.4 260.9 38.5 261.1 38.9 C 261.1 38.9 261.1 39 261.2 39 C 261.5 38.6 261.9 38.4 262.4 38.4 C 262.9 38.4 263.2 38.5 263.4 38.8 C 263.6 39.1 263.7 39.6 263.7 40.1 C 263.68 40.14 263.7 42 263.7 42 L 263 42 Z M 266.9 42 C 266.9 42 266.89 41.59 266.9 41.6 C 266.6 41.9 266.3 42 265.8 42 C 265.2 42 264.6 41.7 264.6 41 C 264.6 40.1 265.4 39.8 266.2 39.8 C 266.3 39.8 266.6 39.8 266.9 39.9 C 266.9 39.9 266.9 39.8 266.9 39.8 C 266.9 39.2 266.6 38.9 266 38.9 C 265.6 38.9 265.2 39.1 264.9 39.2 C 264.9 39.2 264.7 38.7 264.7 38.7 C 265.1 38.5 265.6 38.4 266.1 38.4 C 267.1 38.4 267.5 38.9 267.5 39.8 C 267.5 39.83 267.5 42 267.5 42 L 266.9 42 Z M 266.9 40.4 C 266.6 40.3 266.4 40.3 266.2 40.3 C 265.8 40.3 265.2 40.4 265.2 40.9 C 265.2 41.4 265.5 41.5 265.9 41.5 C 266.3 41.5 266.6 41.3 266.9 41.1 C 266.9 41.1 266.9 40.4 266.9 40.4 Z M 269.3 39 C 269.5 38.7 269.8 38.4 270.2 38.4 C 270.3 38.4 270.4 38.4 270.5 38.4 C 270.5 38.4 270.4 39.1 270.4 39.1 C 270.3 39 270.2 39 270.1 39 C 269.7 39 269.5 39.2 269.3 39.6 C 269.27 39.61 269.3 42 269.3 42 L 268.6 42 L 268.6 38.5 L 269.3 38.5 C 269.3 38.5 269.27 39.04 269.3 39 Z M 273.3 42 L 272.3 40.4 L 271.8 41 L 271.8 42 L 271.1 42 L 271.1 36.7 L 271.8 36.7 L 271.8 40.2 L 271.8 40.2 L 273.2 38.5 L 274 38.5 L 272.8 39.9 L 274.1 42 L 273.3 42 Z M 279.8 40.2 C 279.8 41.2 279 42 278 42 C 276.9 42 276.2 41.2 276.2 40.2 C 276.2 39.2 276.9 38.4 278 38.4 C 279 38.4 279.8 39.2 279.8 40.2 Z M 278 39 C 277.3 39 276.8 39.5 276.8 40.2 C 276.8 40.9 277.3 41.5 278 41.5 C 278.6 41.5 279.1 40.9 279.1 40.2 C 279.1 39.5 278.6 39 278 39 Z M 282.4 37.3 C 282.3 37.2 282.2 37.2 282 37.2 C 281.8 37.2 281.7 37.3 281.6 37.3 C 281.4 37.5 281.4 37.7 281.4 38 C 281.41 38.02 281.4 38.5 281.4 38.5 L 282.4 38.5 L 282.4 39 L 281.4 39 L 281.4 42 L 280.8 42 L 280.8 39 L 280.4 39 L 280.4 38.5 L 280.8 38.5 C 280.8 38.5 280.77 37.95 280.8 38 C 280.8 37.6 280.8 37.3 281 37 C 281.2 36.8 281.4 36.6 281.9 36.6 C 282.1 36.6 282.4 36.7 282.6 36.8 C 282.6 36.8 282.4 37.3 282.4 37.3 Z M 287.8 42 L 287.5 40.9 L 285.4 40.9 L 285 42 L 284.3 42 L 286.2 37.1 L 286.7 37.1 L 288.6 42 L 287.8 42 Z M 285.6 40.3 L 287.2 40.3 L 286.4 38.1 L 286.4 38.1 L 285.6 40.3 Z M 291 39.2 C 290.9 39 290.6 38.9 290.3 38.9 C 290 38.9 289.8 39.1 289.8 39.4 C 289.8 39.6 290.1 39.8 290.5 39.9 C 290.9 40.1 291.5 40.3 291.5 40.9 C 291.5 41.7 290.9 42 290.2 42 C 289.8 42 289.3 41.9 289 41.5 C 289 41.5 289.5 41.1 289.5 41.1 C 289.7 41.4 290 41.5 290.2 41.5 C 290.6 41.5 290.9 41.3 290.9 41 C 290.9 40.7 290.5 40.6 290.2 40.4 C 289.7 40.2 289.2 40 289.2 39.4 C 289.2 38.7 289.7 38.4 290.3 38.4 C 290.7 38.4 291.1 38.5 291.4 38.8 C 291.4 38.8 291 39.2 291 39.2 Z M 293.1 39 C 293.4 38.6 293.8 38.4 294.3 38.4 C 294.7 38.4 295.1 38.5 295.3 38.8 C 295.5 39.1 295.6 39.6 295.6 40.1 C 295.58 40.14 295.6 42 295.6 42 L 294.9 42 C 294.9 42 294.94 40.21 294.9 40.2 C 294.9 39.9 294.9 39.5 294.8 39.2 C 294.7 39.1 294.5 39 294.2 39 C 293.7 39 293.4 39.2 293.1 39.6 C 293.11 39.63 293.1 42 293.1 42 L 292.5 42 L 292.5 36.7 L 293.1 36.7 C 293.1 36.7 293.11 39.03 293.1 39 Z M 297.4 42 L 296.7 42 L 296.7 36.7 L 297.4 36.7 L 297.4 42 Z M 298.9 40.4 C 298.9 41 299.3 41.5 300 41.5 C 300.5 41.5 300.8 41.3 301 40.9 C 301 40.9 301.5 41.2 301.5 41.2 C 301.2 41.8 300.7 42 300 42 C 298.9 42 298.2 41.2 298.2 40.2 C 298.2 39.2 299 38.4 300 38.4 C 300.9 38.4 301.6 39.1 301.6 40 C 301.6 40.1 301.6 40.3 301.5 40.4 C 301.5 40.4 298.9 40.4 298.9 40.4 Z M 298.9 39.9 C 298.9 39.9 300.9 39.9 300.9 39.9 C 300.9 39.4 300.5 38.9 300 38.9 C 299.4 38.9 299 39.3 298.9 39.9 Z M 302.6 38.5 L 303.5 41.1 L 303.5 41.1 L 304.5 38.5 L 305.2 38.5 L 303.2 43.5 L 302.6 43.3 L 303.2 41.9 L 301.9 38.5 L 302.6 38.5 Z M 308.3 39.9 L 308.3 42 L 307.6 42 L 307.6 37.1 L 310.1 37.1 L 310.1 37.7 L 308.3 37.7 L 308.3 39.3 L 310.1 39.3 L 310.1 39.9 L 308.3 39.9 Z M 313.4 41.4 C 313.2 41.8 312.8 42 312.3 42 C 311.8 42 311.5 41.9 311.3 41.6 C 311 41.3 311 40.8 311 40.3 C 310.96 40.28 311 38.5 311 38.5 L 311.6 38.5 C 311.6 38.5 311.6 40.21 311.6 40.2 C 311.6 40.5 311.6 40.9 311.8 41.2 C 311.9 41.3 312.1 41.5 312.4 41.5 C 312.8 41.5 313.2 41.2 313.4 40.8 C 313.43 40.78 313.4 38.5 313.4 38.5 L 314.1 38.5 L 314.1 42 L 313.4 42 C 313.4 42 313.43 41.38 313.4 41.4 Z M 315.9 39 C 316.1 38.7 316.4 38.4 316.8 38.4 C 316.9 38.4 317 38.4 317.2 38.4 C 317.2 38.4 317 39.1 317 39.1 C 316.9 39 316.8 39 316.7 39 C 316.4 39 316.1 39.2 315.9 39.6 C 315.88 39.61 315.9 42 315.9 42 L 315.2 42 L 315.2 38.5 L 315.9 38.5 C 315.9 38.5 315.88 39.04 315.9 39 Z M 318.4 38.5 C 318.4 38.5 318.38 39.03 318.4 39 C 318.6 38.6 319.1 38.4 319.5 38.4 C 320 38.4 320.3 38.5 320.5 38.8 C 320.8 39.1 320.9 39.6 320.9 40.1 C 320.85 40.14 320.9 42 320.9 42 L 320.2 42 C 320.2 42 320.21 40.21 320.2 40.2 C 320.2 39.9 320.2 39.5 320 39.2 C 319.9 39.1 319.7 39 319.4 39 C 319 39 318.6 39.2 318.4 39.6 C 318.38 39.63 318.4 42 318.4 42 L 317.7 42 L 317.7 38.5 L 318.4 38.5 Z M 322 42 L 322 38.5 L 322.6 38.5 L 322.6 42 L 322 42 Z M 322 37.8 L 322 37.1 L 322.6 37.1 L 322.6 37.8 L 322 37.8 Z M 324.5 39 C 324.5 39 324.47 40.6 324.5 40.6 C 324.5 40.7 324.5 40.8 324.5 40.9 C 324.5 41.2 324.6 41.5 325 41.5 C 325.1 41.5 325.2 41.4 325.4 41.4 C 325.4 41.4 325.5 41.9 325.5 41.9 C 325.4 42 325.1 42 324.9 42 C 324.4 42 324.1 41.8 323.9 41.5 C 323.9 41.3 323.8 41 323.8 40.8 C 323.83 40.75 323.8 39 323.8 39 L 323.4 39 L 323.4 38.5 L 323.8 38.5 L 323.8 37.6 L 324.5 37.6 L 324.5 38.5 L 325.4 38.5 L 325.4 39 L 324.5 39 Z M 328.6 41.4 C 328.4 41.8 328 42 327.5 42 C 327 42 326.7 41.9 326.5 41.6 C 326.3 41.3 326.2 40.8 326.2 40.3 C 326.18 40.28 326.2 38.5 326.2 38.5 L 326.8 38.5 C 326.8 38.5 326.81 40.21 326.8 40.2 C 326.8 40.5 326.8 40.9 327 41.2 C 327.1 41.3 327.3 41.5 327.6 41.5 C 328 41.5 328.4 41.2 328.6 40.8 C 328.65 40.78 328.6 38.5 328.6 38.5 L 329.3 38.5 L 329.3 42 L 328.6 42 C 328.6 42 328.65 41.38 328.6 41.4 Z M 331.1 39 C 331.3 38.7 331.6 38.4 332 38.4 C 332.1 38.4 332.2 38.4 332.4 38.4 C 332.4 38.4 332.3 39.1 332.3 39.1 C 332.2 39 332.1 39 331.9 39 C 331.6 39 331.3 39.2 331.1 39.6 C 331.1 39.61 331.1 42 331.1 42 L 330.5 42 L 330.5 38.5 L 331.1 38.5 C 331.1 38.5 331.1 39.04 331.1 39 Z M 333.3 40.4 C 333.3 41 333.8 41.5 334.4 41.5 C 334.9 41.5 335.3 41.3 335.5 40.9 C 335.5 40.9 335.9 41.2 335.9 41.2 C 335.6 41.8 335.1 42 334.4 42 C 333.3 42 332.7 41.2 332.7 40.2 C 332.7 39.2 333.4 38.4 334.4 38.4 C 335.3 38.4 336 39.1 336 40 C 336 40.1 336 40.3 336 40.4 C 336 40.4 333.3 40.4 333.3 40.4 Z M 333.4 39.9 C 333.4 39.9 335.3 39.9 335.3 39.9 C 335.3 39.4 334.9 38.9 334.4 38.9 C 333.8 38.9 333.5 39.3 333.4 39.9 Z M 338.7 42 L 338.7 37.1 L 339.4 37.1 L 339.4 42 L 338.7 42 Z M 341.3 38.5 C 341.3 38.5 341.27 39.03 341.3 39 C 341.5 38.6 341.9 38.4 342.4 38.4 C 342.9 38.4 343.2 38.5 343.4 38.8 C 343.7 39.1 343.7 39.6 343.7 40.1 C 343.74 40.14 343.7 42 343.7 42 L 343.1 42 C 343.1 42 343.1 40.21 343.1 40.2 C 343.1 39.9 343.1 39.5 342.9 39.2 C 342.8 39.1 342.6 39 342.3 39 C 341.9 39 341.5 39.2 341.3 39.6 C 341.27 39.63 341.3 42 341.3 42 L 340.6 42 L 340.6 38.5 L 341.3 38.5 Z M 344.6 40.2 C 344.6 39.3 345.3 38.4 346.3 38.4 C 346.8 38.4 347.2 38.6 347.4 38.8 C 347.44 38.84 347.4 36.7 347.4 36.7 L 348.1 36.7 L 348.1 42 L 347.4 42 C 347.4 42 347.44 41.49 347.4 41.5 C 347.2 41.9 346.8 42 346.3 42 C 345.3 42 344.6 41.2 344.6 40.2 Z M 347.4 40.8 C 347.4 40.8 347.4 39.5 347.4 39.5 C 347.2 39.1 346.8 39 346.4 39 C 345.6 39 345.2 39.6 345.2 40.2 C 345.2 40.9 345.7 41.5 346.4 41.5 C 346.8 41.5 347.3 41.2 347.4 40.8 Z M 351.7 41.4 C 351.4 41.8 351 42 350.5 42 C 350.1 42 349.7 41.9 349.5 41.6 C 349.3 41.3 349.2 40.8 349.2 40.3 C 349.21 40.28 349.2 38.5 349.2 38.5 L 349.9 38.5 C 349.9 38.5 349.85 40.21 349.9 40.2 C 349.9 40.5 349.9 40.9 350 41.2 C 350.1 41.3 350.3 41.5 350.6 41.5 C 351 41.5 351.4 41.2 351.7 40.8 C 351.69 40.78 351.7 38.5 351.7 38.5 L 352.3 38.5 L 352.3 42 L 351.7 42 C 351.7 42 351.69 41.38 351.7 41.4 Z M 355.2 39.2 C 355 39 354.8 38.9 354.5 38.9 C 354.2 38.9 354 39.1 354 39.4 C 354 39.6 354.3 39.8 354.7 39.9 C 355.1 40.1 355.7 40.3 355.7 40.9 C 355.7 41.7 355.1 42 354.4 42 C 353.9 42 353.5 41.9 353.2 41.5 C 353.2 41.5 353.7 41.1 353.7 41.1 C 353.9 41.4 354.1 41.5 354.4 41.5 C 354.8 41.5 355.1 41.3 355.1 41 C 355.1 40.7 354.7 40.6 354.4 40.4 C 353.9 40.2 353.4 40 353.4 39.4 C 353.4 38.7 353.9 38.4 354.5 38.4 C 354.9 38.4 355.3 38.5 355.6 38.8 C 355.6 38.8 355.2 39.2 355.2 39.2 Z M 357.3 39 C 357.3 39 357.33 40.6 357.3 40.6 C 357.3 40.7 357.3 40.8 357.3 40.9 C 357.4 41.2 357.5 41.5 357.8 41.5 C 358 41.5 358.1 41.4 358.2 41.4 C 358.2 41.4 358.4 41.9 358.4 41.9 C 358.2 42 358 42 357.7 42 C 357.2 42 356.9 41.8 356.8 41.5 C 356.7 41.3 356.7 41 356.7 40.8 C 356.69 40.75 356.7 39 356.7 39 L 356.2 39 L 356.2 38.5 L 356.7 38.5 L 356.7 37.6 L 357.3 37.6 L 357.3 38.5 L 358.3 38.5 L 358.3 39 L 357.3 39 Z M 359.7 39 C 359.9 38.7 360.2 38.4 360.6 38.4 C 360.8 38.4 360.9 38.4 361 38.4 C 361 38.4 360.9 39.1 360.9 39.1 C 360.8 39 360.7 39 360.5 39 C 360.2 39 359.9 39.2 359.7 39.6 C 359.71 39.61 359.7 42 359.7 42 L 359.1 42 L 359.1 38.5 L 359.7 38.5 C 359.7 38.5 359.71 39.04 359.7 39 Z M 361.6 42 L 361.6 38.5 L 362.2 38.5 L 362.2 42 L 361.6 42 Z M 361.6 37.8 L 361.6 37.1 L 362.2 37.1 L 362.2 37.8 L 361.6 37.8 Z M 363.7 40.4 C 363.8 41 364.2 41.5 364.9 41.5 C 365.3 41.5 365.7 41.3 365.9 40.9 C 365.9 40.9 366.4 41.2 366.4 41.2 C 366 41.8 365.5 42 364.8 42 C 363.7 42 363.1 41.2 363.1 40.2 C 363.1 39.2 363.9 38.4 364.8 38.4 C 365.8 38.4 366.4 39.1 366.4 40 C 366.4 40.1 366.4 40.3 366.4 40.4 C 366.4 40.4 363.7 40.4 363.7 40.4 Z M 363.8 39.9 C 363.8 39.9 365.8 39.9 365.8 39.9 C 365.7 39.4 365.4 38.9 364.8 38.9 C 364.3 38.9 363.9 39.3 363.8 39.9 Z M 369 39.2 C 368.9 39 368.6 38.9 368.3 38.9 C 368 38.9 367.8 39.1 367.8 39.4 C 367.8 39.6 368.1 39.8 368.5 39.9 C 368.9 40.1 369.5 40.3 369.5 40.9 C 369.5 41.7 368.9 42 368.2 42 C 367.7 42 367.3 41.9 367 41.5 C 367 41.5 367.5 41.1 367.5 41.1 C 367.7 41.4 368 41.5 368.2 41.5 C 368.6 41.5 368.9 41.3 368.9 41 C 368.9 40.7 368.5 40.6 368.2 40.4 C 367.7 40.2 367.2 40 367.2 39.4 C 367.2 38.7 367.7 38.4 368.3 38.4 C 368.7 38.4 369.1 38.5 369.4 38.8 C 369.4 38.8 369 39.2 369 39.2 Z M 370.7 42.9 L 370.1 42.9 L 370.5 41.1 L 371.2 41.1 L 370.7 42.9 Z M 374 42 L 374 37.1 L 374.7 37.1 L 374.7 41.4 L 376.8 41.4 L 376.8 42 L 374 42 Z M 377.5 42 L 377.5 37.1 L 378.2 37.1 L 378.2 41.4 L 380.3 41.4 L 380.3 42 L 377.5 42 Z M 383.2 42 C 381.8 42 380.6 41.1 380.6 39.5 C 380.6 38.1 381.8 37 383.2 37 C 383.7 37 384.2 37.1 384.5 37.4 C 384.5 37.4 384.2 37.9 384.2 37.9 C 383.9 37.7 383.6 37.6 383.2 37.6 C 382.1 37.6 381.3 38.4 381.3 39.5 C 381.3 40.7 382.1 41.4 383.2 41.4 C 383.6 41.4 384 41.3 384.3 41.1 C 384.3 41.1 384.7 41.6 384.7 41.6 C 384.2 41.9 383.7 42 383.2 42 Z " stroke="none" fill="#535a5d"/>  </g>  <g id="Polygon43208">    <path d="M 152.4 27.2 C 153.7 27.2 154.8 28.3 154.8 29.6 C 154.8 31 153.7 32 152.4 32 C 151 32 150 31 150 29.6 C 150 28.3 151 27.2 152.4 27.2 Z M 152.4 31.5 C 153.4 31.5 154.3 30.7 154.3 29.6 C 154.3 28.6 153.4 27.7 152.4 27.7 C 151.3 27.7 150.5 28.6 150.5 29.6 C 150.5 30.7 151.3 31.5 152.4 31.5 Z M 152.4 30.5 C 152.6 30.5 152.8 30.4 152.9 30.3 C 152.9 30.3 153.2 30.7 153.2 30.7 C 153 30.8 152.7 30.9 152.4 30.9 C 151.7 30.9 151.1 30.4 151.1 29.6 C 151.1 28.9 151.7 28.3 152.4 28.3 C 152.7 28.3 152.9 28.4 153.1 28.5 C 153.1 28.5 152.9 28.9 152.9 28.9 C 152.8 28.9 152.6 28.8 152.4 28.8 C 152 28.8 151.6 29.1 151.6 29.6 C 151.6 30.2 152 30.5 152.4 30.5 Z M 157.3 32 C 157.3 32 157.32 31.36 157.3 31.4 C 157.9 30.8 158.5 30.1 159 29.4 C 159.1 29.2 159.4 28.8 159.4 28.5 C 159.4 28 159 27.8 158.6 27.8 C 158.2 27.8 157.9 28.1 157.9 28.5 C 157.9 28.5 157.2 28.4 157.2 28.4 C 157.3 27.7 158 27.2 158.6 27.2 C 159.4 27.2 160.1 27.7 160.1 28.5 C 160.1 28.9 159.8 29.4 159.6 29.7 C 159.2 30.3 158.7 30.9 158.2 31.4 C 158.2 31.37 160.3 31.4 160.3 31.4 L 160.3 32 L 157.3 32 Z M 164.1 29.6 C 164.1 31.1 163.5 32 162.5 32 C 161.4 32 160.8 31.1 160.8 29.6 C 160.8 28.1 161.4 27.2 162.5 27.2 C 163.5 27.2 164.1 28.1 164.1 29.6 Z M 161.5 29.6 C 161.5 30.8 161.9 31.4 162.5 31.4 C 163.1 31.4 163.4 30.8 163.4 29.6 C 163.4 28.4 163.1 27.8 162.5 27.8 C 161.9 27.8 161.5 28.4 161.5 29.6 Z M 164.8 32 C 164.8 32 164.8 31.36 164.8 31.4 C 165.3 30.8 166 30.1 166.4 29.4 C 166.6 29.2 166.9 28.8 166.9 28.5 C 166.9 28 166.5 27.8 166.1 27.8 C 165.7 27.8 165.4 28.1 165.4 28.5 C 165.4 28.5 164.7 28.4 164.7 28.4 C 164.8 27.7 165.5 27.2 166.1 27.2 C 166.9 27.2 167.5 27.7 167.5 28.5 C 167.5 28.9 167.3 29.4 167 29.7 C 166.7 30.3 166.2 30.9 165.7 31.4 C 165.68 31.37 167.8 31.4 167.8 31.4 L 167.8 32 L 164.8 32 Z M 168.4 32 C 168.4 32 168.37 31.36 168.4 31.4 C 168.9 30.8 169.6 30.1 170 29.4 C 170.2 29.2 170.4 28.8 170.4 28.5 C 170.4 28 170 27.8 169.7 27.8 C 169.3 27.8 168.9 28.1 168.9 28.5 C 168.9 28.5 168.3 28.4 168.3 28.4 C 168.3 27.7 169 27.2 169.7 27.2 C 170.4 27.2 171.1 27.7 171.1 28.5 C 171.1 28.9 170.9 29.4 170.6 29.7 C 170.2 30.3 169.7 30.9 169.2 31.4 C 169.25 31.37 171.3 31.4 171.3 31.4 L 171.3 32 L 168.4 32 Z M 172.4 32.9 L 171.8 32.9 L 172.1 31.1 L 172.9 31.1 L 172.4 32.9 Z M 178.7 32 L 178.3 30.9 L 176.2 30.9 L 175.9 32 L 175.1 32 L 177 27.1 L 177.6 27.1 L 179.5 32 L 178.7 32 Z M 176.5 30.3 L 178.1 30.3 L 177.3 28.1 L 177.3 28.1 L 176.5 30.3 Z M 181.9 29.2 C 181.7 29 181.4 28.9 181.2 28.9 C 180.9 28.9 180.7 29.1 180.7 29.4 C 180.7 29.6 181 29.8 181.3 29.9 C 181.8 30.1 182.4 30.3 182.4 30.9 C 182.4 31.7 181.8 32 181.1 32 C 180.6 32 180.2 31.9 179.9 31.5 C 179.9 31.5 180.3 31.1 180.3 31.1 C 180.6 31.4 180.8 31.5 181.1 31.5 C 181.4 31.5 181.7 31.3 181.7 31 C 181.7 30.7 181.4 30.6 181.1 30.4 C 180.6 30.2 180.1 30 180.1 29.4 C 180.1 28.7 180.6 28.4 181.2 28.4 C 181.6 28.4 182 28.5 182.3 28.8 C 182.3 28.8 181.9 29.2 181.9 29.2 Z M 184 29 C 184.2 28.6 184.6 28.4 185.1 28.4 C 185.6 28.4 185.9 28.5 186.1 28.8 C 186.4 29.1 186.4 29.6 186.4 30.1 C 186.45 30.14 186.4 32 186.4 32 L 185.8 32 C 185.8 32 185.81 30.21 185.8 30.2 C 185.8 29.9 185.8 29.5 185.6 29.2 C 185.5 29.1 185.3 29 185 29 C 184.6 29 184.2 29.2 184 29.6 C 183.97 29.63 184 32 184 32 L 183.3 32 L 183.3 26.7 L 184 26.7 C 184 26.7 183.97 29.03 184 29 Z M 188.2 32 L 187.6 32 L 187.6 26.7 L 188.2 26.7 L 188.2 32 Z M 189.7 30.4 C 189.8 31 190.2 31.5 190.9 31.5 C 191.3 31.5 191.7 31.3 191.9 30.9 C 191.9 30.9 192.4 31.2 192.4 31.2 C 192 31.8 191.5 32 190.8 32 C 189.7 32 189.1 31.2 189.1 30.2 C 189.1 29.2 189.9 28.4 190.8 28.4 C 191.8 28.4 192.4 29.1 192.4 30 C 192.4 30.1 192.4 30.3 192.4 30.4 C 192.4 30.4 189.7 30.4 189.7 30.4 Z M 189.8 29.9 C 189.8 29.9 191.8 29.9 191.8 29.9 C 191.7 29.4 191.4 28.9 190.8 28.9 C 190.3 28.9 189.9 29.3 189.8 29.9 Z M 193.5 28.5 L 194.4 31.1 L 194.4 31.1 L 195.3 28.5 L 196 28.5 L 194.1 33.5 L 193.5 33.3 L 194 31.9 L 192.8 28.5 L 193.5 28.5 Z M 199.2 29.9 L 199.2 32 L 198.5 32 L 198.5 27.1 L 201 27.1 L 201 27.7 L 199.2 27.7 L 199.2 29.3 L 201 29.3 L 201 29.9 L 199.2 29.9 Z M 204.3 31.4 C 204 31.8 203.6 32 203.2 32 C 202.7 32 202.3 31.9 202.1 31.6 C 201.9 31.3 201.8 30.8 201.8 30.3 C 201.83 30.28 201.8 28.5 201.8 28.5 L 202.5 28.5 C 202.5 28.5 202.46 30.21 202.5 30.2 C 202.5 30.5 202.5 30.9 202.6 31.2 C 202.8 31.3 202.9 31.5 203.3 31.5 C 203.7 31.5 204 31.2 204.3 30.8 C 204.3 30.78 204.3 28.5 204.3 28.5 L 204.9 28.5 L 204.9 32 L 204.3 32 C 204.3 32 204.3 31.38 204.3 31.4 Z M 206.7 29 C 207 28.7 207.3 28.4 207.6 28.4 C 207.8 28.4 207.9 28.4 208 28.4 C 208 28.4 207.9 29.1 207.9 29.1 C 207.8 29 207.7 29 207.6 29 C 207.2 29 207 29.2 206.7 29.6 C 206.75 29.61 206.7 32 206.7 32 L 206.1 32 L 206.1 28.5 L 206.7 28.5 C 206.7 28.5 206.75 29.04 206.7 29 Z M 209.2 28.5 C 209.2 28.5 209.24 29.03 209.2 29 C 209.5 28.6 209.9 28.4 210.4 28.4 C 210.9 28.4 211.2 28.5 211.4 28.8 C 211.6 29.1 211.7 29.6 211.7 30.1 C 211.72 30.14 211.7 32 211.7 32 L 211.1 32 C 211.1 32 211.08 30.21 211.1 30.2 C 211.1 29.9 211.1 29.5 210.9 29.2 C 210.8 29.1 210.6 29 210.3 29 C 209.9 29 209.5 29.2 209.2 29.6 C 209.24 29.63 209.2 32 209.2 32 L 208.6 32 L 208.6 28.5 L 209.2 28.5 Z M 212.8 32 L 212.8 28.5 L 213.5 28.5 L 213.5 32 L 212.8 32 Z M 212.8 27.8 L 212.8 27.1 L 213.5 27.1 L 213.5 27.8 L 212.8 27.8 Z M 215.3 29 C 215.3 29 215.33 30.6 215.3 30.6 C 215.3 30.7 215.3 30.8 215.3 30.9 C 215.4 31.2 215.5 31.5 215.8 31.5 C 216 31.5 216.1 31.4 216.2 31.4 C 216.2 31.4 216.4 31.9 216.4 31.9 C 216.2 32 216 32 215.7 32 C 215.3 32 215 31.8 214.8 31.5 C 214.7 31.3 214.7 31 214.7 30.8 C 214.7 30.75 214.7 29 214.7 29 L 214.2 29 L 214.2 28.5 L 214.7 28.5 L 214.7 27.6 L 215.3 27.6 L 215.3 28.5 L 216.3 28.5 L 216.3 29 L 215.3 29 Z M 219.5 31.4 C 219.3 31.8 218.8 32 218.4 32 C 217.9 32 217.6 31.9 217.4 31.6 C 217.1 31.3 217 30.8 217 30.3 C 217.04 30.28 217 28.5 217 28.5 L 217.7 28.5 C 217.7 28.5 217.68 30.21 217.7 30.2 C 217.7 30.5 217.7 30.9 217.9 31.2 C 218 31.3 218.2 31.5 218.5 31.5 C 218.9 31.5 219.3 31.2 219.5 30.8 C 219.51 30.78 219.5 28.5 219.5 28.5 L 220.1 28.5 L 220.1 32 L 219.5 32 C 219.5 32 219.51 31.38 219.5 31.4 Z M 222 29 C 222.2 28.7 222.5 28.4 222.9 28.4 C 223 28.4 223.1 28.4 223.2 28.4 C 223.2 28.4 223.1 29.1 223.1 29.1 C 223 29 222.9 29 222.8 29 C 222.4 29 222.2 29.2 222 29.6 C 221.96 29.61 222 32 222 32 L 221.3 32 L 221.3 28.5 L 222 28.5 C 222 28.5 221.96 29.04 222 29 Z M 224.2 30.4 C 224.2 31 224.6 31.5 225.3 31.5 C 225.8 31.5 226.1 31.3 226.3 30.9 C 226.3 30.9 226.8 31.2 226.8 31.2 C 226.5 31.8 226 32 225.3 32 C 224.2 32 223.5 31.2 223.5 30.2 C 223.5 29.2 224.3 28.4 225.3 28.4 C 226.2 28.4 226.9 29.1 226.9 30 C 226.9 30.1 226.8 30.3 226.8 30.4 C 226.8 30.4 224.2 30.4 224.2 30.4 Z M 224.2 29.9 C 224.2 29.9 226.2 29.9 226.2 29.9 C 226.2 29.4 225.8 28.9 225.3 28.9 C 224.7 28.9 224.3 29.3 224.2 29.9 Z M 229.6 32 L 229.6 27.1 L 230.2 27.1 L 230.2 32 L 229.6 32 Z M 232.1 28.5 C 232.1 28.5 232.13 29.03 232.1 29 C 232.4 28.6 232.8 28.4 233.3 28.4 C 233.8 28.4 234.1 28.5 234.3 28.8 C 234.5 29.1 234.6 29.6 234.6 30.1 C 234.6 30.14 234.6 32 234.6 32 L 234 32 C 234 32 233.97 30.21 234 30.2 C 234 29.9 234 29.5 233.8 29.2 C 233.7 29.1 233.5 29 233.2 29 C 232.8 29 232.4 29.2 232.1 29.6 C 232.13 29.63 232.1 32 232.1 32 L 231.5 32 L 231.5 28.5 L 232.1 28.5 Z M 235.4 30.2 C 235.4 29.3 236.1 28.4 237.2 28.4 C 237.6 28.4 238 28.6 238.3 28.8 C 238.31 28.84 238.3 26.7 238.3 26.7 L 238.9 26.7 L 238.9 32 L 238.3 32 C 238.3 32 238.31 31.49 238.3 31.5 C 238.1 31.9 237.6 32 237.2 32 C 236.2 32 235.4 31.2 235.4 30.2 Z M 238.3 30.8 C 238.3 30.8 238.3 29.5 238.3 29.5 C 238.1 29.1 237.7 29 237.3 29 C 236.5 29 236.1 29.6 236.1 30.2 C 236.1 30.9 236.6 31.5 237.3 31.5 C 237.7 31.5 238.1 31.2 238.3 30.8 Z M 242.6 31.4 C 242.3 31.8 241.9 32 241.4 32 C 240.9 32 240.6 31.9 240.4 31.6 C 240.2 31.3 240.1 30.8 240.1 30.3 C 240.08 30.28 240.1 28.5 240.1 28.5 L 240.7 28.5 C 240.7 28.5 240.72 30.21 240.7 30.2 C 240.7 30.5 240.7 30.9 240.9 31.2 C 241 31.3 241.2 31.5 241.5 31.5 C 241.9 31.5 242.3 31.2 242.6 30.8 C 242.55 30.78 242.6 28.5 242.6 28.5 L 243.2 28.5 L 243.2 32 L 242.6 32 C 242.6 32 242.55 31.38 242.6 31.4 Z M 246.1 29.2 C 245.9 29 245.6 28.9 245.4 28.9 C 245.1 28.9 244.9 29.1 244.9 29.4 C 244.9 29.6 245.2 29.8 245.5 29.9 C 246 30.1 246.5 30.3 246.5 30.9 C 246.5 31.7 245.9 32 245.3 32 C 244.8 32 244.3 31.9 244.1 31.5 C 244.1 31.5 244.5 31.1 244.5 31.1 C 244.8 31.4 245 31.5 245.3 31.5 C 245.6 31.5 245.9 31.3 245.9 31 C 245.9 30.7 245.6 30.6 245.2 30.4 C 244.8 30.2 244.2 30 244.2 29.4 C 244.2 28.7 244.8 28.4 245.4 28.4 C 245.8 28.4 246.2 28.5 246.4 28.8 C 246.4 28.8 246.1 29.2 246.1 29.2 Z M 248.2 29 C 248.2 29 248.19 30.6 248.2 30.6 C 248.2 30.7 248.2 30.8 248.2 30.9 C 248.2 31.2 248.3 31.5 248.7 31.5 C 248.8 31.5 249 31.4 249.1 31.4 C 249.1 31.4 249.3 31.9 249.3 31.9 C 249.1 32 248.8 32 248.6 32 C 248.1 32 247.8 31.8 247.7 31.5 C 247.6 31.3 247.6 31 247.6 30.8 C 247.56 30.75 247.6 29 247.6 29 L 247.1 29 L 247.1 28.5 L 247.6 28.5 L 247.6 27.6 L 248.2 27.6 L 248.2 28.5 L 249.2 28.5 L 249.2 29 L 248.2 29 Z M 250.6 29 C 250.8 28.7 251.1 28.4 251.5 28.4 C 251.6 28.4 251.7 28.4 251.9 28.4 C 251.9 28.4 251.7 29.1 251.7 29.1 C 251.6 29 251.5 29 251.4 29 C 251.1 29 250.8 29.2 250.6 29.6 C 250.58 29.61 250.6 32 250.6 32 L 249.9 32 L 249.9 28.5 L 250.6 28.5 C 250.6 28.5 250.58 29.04 250.6 29 Z M 252.4 32 L 252.4 28.5 L 253.1 28.5 L 253.1 32 L 252.4 32 Z M 252.4 27.8 L 252.4 27.1 L 253.1 27.1 L 253.1 27.8 L 252.4 27.8 Z M 254.6 30.4 C 254.6 31 255.1 31.5 255.7 31.5 C 256.2 31.5 256.6 31.3 256.8 30.9 C 256.8 30.9 257.2 31.2 257.2 31.2 C 256.9 31.8 256.4 32 255.7 32 C 254.6 32 254 31.2 254 30.2 C 254 29.2 254.7 28.4 255.7 28.4 C 256.6 28.4 257.3 29.1 257.3 30 C 257.3 30.1 257.3 30.3 257.3 30.4 C 257.3 30.4 254.6 30.4 254.6 30.4 Z M 254.6 29.9 C 254.6 29.9 256.6 29.9 256.6 29.9 C 256.6 29.4 256.2 28.9 255.7 28.9 C 255.1 28.9 254.8 29.3 254.6 29.9 Z M 259.9 29.2 C 259.7 29 259.4 28.9 259.2 28.9 C 258.9 28.9 258.7 29.1 258.7 29.4 C 258.7 29.6 259 29.8 259.3 29.9 C 259.8 30.1 260.4 30.3 260.4 30.9 C 260.4 31.7 259.7 32 259.1 32 C 258.6 32 258.2 31.9 257.9 31.5 C 257.9 31.5 258.3 31.1 258.3 31.1 C 258.6 31.4 258.8 31.5 259.1 31.5 C 259.4 31.5 259.7 31.3 259.7 31 C 259.7 30.7 259.4 30.6 259.1 30.4 C 258.6 30.2 258.1 30 258.1 29.4 C 258.1 28.7 258.6 28.4 259.2 28.4 C 259.6 28.4 260 28.5 260.3 28.8 C 260.3 28.8 259.9 29.2 259.9 29.2 Z M 261.6 32.9 L 261 32.9 L 261.4 31.1 L 262.1 31.1 L 261.6 32.9 Z M 264.9 32 L 264.9 27.1 L 265.6 27.1 L 265.6 31.4 L 267.7 31.4 L 267.7 32 L 264.9 32 Z M 268.4 32 L 268.4 27.1 L 269.1 27.1 L 269.1 31.4 L 271.2 31.4 L 271.2 32 L 268.4 32 Z M 274.1 32 C 272.6 32 271.5 31.1 271.5 29.5 C 271.5 28.1 272.6 27 274.1 27 C 274.6 27 275 27.1 275.4 27.4 C 275.4 27.4 275.1 27.9 275.1 27.9 C 274.8 27.7 274.4 27.6 274.1 27.6 C 273 27.6 272.2 28.4 272.2 29.5 C 272.2 30.7 273 31.4 274.1 31.4 C 274.5 31.4 274.8 31.3 275.2 31.1 C 275.2 31.1 275.5 31.6 275.5 31.6 C 275.1 31.9 274.6 32 274.1 32 Z M 276.6 32 L 276.6 31.1 L 277.3 31.1 L 277.3 32 L 276.6 32 Z M 283.3 32 L 282.9 30.9 L 280.8 30.9 L 280.4 32 L 279.7 32 L 281.6 27.1 L 282.2 27.1 L 284.1 32 L 283.3 32 Z M 281 30.3 L 282.7 30.3 L 281.9 28.1 L 281.9 28.1 L 281 30.3 Z M 285.4 32 L 284.8 32 L 284.8 26.7 L 285.4 26.7 L 285.4 32 Z M 287.2 32 L 286.6 32 L 286.6 26.7 L 287.2 26.7 L 287.2 32 Z M 290.8 29 C 291 28.7 291.3 28.4 291.7 28.4 C 291.8 28.4 291.9 28.4 292.1 28.4 C 292.1 28.4 291.9 29.1 291.9 29.1 C 291.8 29 291.7 29 291.6 29 C 291.2 29 291 29.2 290.8 29.6 C 290.77 29.61 290.8 32 290.8 32 L 290.1 32 L 290.1 28.5 L 290.8 28.5 C 290.8 28.5 290.77 29.04 290.8 29 Z M 292.6 32 L 292.6 28.5 L 293.3 28.5 L 293.3 32 L 292.6 32 Z M 292.6 27.8 L 292.6 27.1 L 293.3 27.1 L 293.3 27.8 L 292.6 27.8 Z M 297.7 31.8 C 297.7 32.1 297.6 32.4 297.5 32.7 C 297.2 33.3 296.5 33.5 295.9 33.5 C 295.3 33.5 294.8 33.4 294.3 33 C 294.3 33 294.6 32.5 294.6 32.5 C 294.9 32.7 295.4 32.9 295.9 32.9 C 296.5 32.9 297 32.6 297 31.9 C 297 31.9 297 31.4 297 31.4 C 296.8 31.8 296.3 32 295.9 32 C 294.9 32 294.2 31.2 294.2 30.2 C 294.2 29.2 294.8 28.4 295.9 28.4 C 296.3 28.4 296.7 28.6 297 28.8 C 297.02 28.84 297 28.5 297 28.5 L 297.7 28.5 C 297.7 28.5 297.65 31.76 297.7 31.8 Z M 297 29.5 C 296.8 29.1 296.4 29 296 29 C 295.2 29 294.8 29.6 294.8 30.2 C 294.8 30.8 295.3 31.4 296 31.4 C 296.4 31.4 296.8 31.1 297 30.7 C 297 30.7 297 29.5 297 29.5 Z M 299.4 29 C 299.7 28.6 300.1 28.4 300.6 28.4 C 301.1 28.4 301.4 28.5 301.6 28.8 C 301.8 29.1 301.9 29.6 301.9 30.1 C 301.89 30.14 301.9 32 301.9 32 L 301.3 32 C 301.3 32 301.26 30.21 301.3 30.2 C 301.3 29.9 301.2 29.5 301.1 29.2 C 301 29.1 300.8 29 300.5 29 C 300.1 29 299.7 29.2 299.4 29.6 C 299.42 29.63 299.4 32 299.4 32 L 298.8 32 L 298.8 26.7 L 299.4 26.7 C 299.4 26.7 299.42 29.03 299.4 29 Z M 303.7 29 C 303.7 29 303.7 30.6 303.7 30.6 C 303.7 30.7 303.7 30.8 303.7 30.9 C 303.7 31.2 303.8 31.5 304.2 31.5 C 304.3 31.5 304.5 31.4 304.6 31.4 C 304.6 31.4 304.8 31.9 304.8 31.9 C 304.6 32 304.3 32 304.1 32 C 303.6 32 303.3 31.8 303.2 31.5 C 303.1 31.3 303.1 31 303.1 30.8 C 303.06 30.75 303.1 29 303.1 29 L 302.6 29 L 302.6 28.5 L 303.1 28.5 L 303.1 27.6 L 303.7 27.6 L 303.7 28.5 L 304.7 28.5 L 304.7 29 L 303.7 29 Z M 307.2 29.2 C 307 29 306.7 28.9 306.5 28.9 C 306.1 28.9 305.9 29.1 305.9 29.4 C 305.9 29.6 306.3 29.8 306.6 29.9 C 307.1 30.1 307.6 30.3 307.6 30.9 C 307.6 31.7 307 32 306.4 32 C 305.9 32 305.4 31.9 305.2 31.5 C 305.2 31.5 305.6 31.1 305.6 31.1 C 305.8 31.4 306.1 31.5 306.4 31.5 C 306.7 31.5 307 31.3 307 31 C 307 30.7 306.7 30.6 306.3 30.4 C 305.9 30.2 305.3 30 305.3 29.4 C 305.3 28.7 305.9 28.4 306.5 28.4 C 306.9 28.4 307.3 28.5 307.5 28.8 C 307.5 28.8 307.2 29.2 307.2 29.2 Z M 311 29 C 311.2 28.7 311.5 28.4 311.9 28.4 C 312 28.4 312.1 28.4 312.3 28.4 C 312.3 28.4 312.2 29.1 312.2 29.1 C 312.1 29 312 29 311.8 29 C 311.5 29 311.2 29.2 311 29.6 C 310.99 29.61 311 32 311 32 L 310.4 32 L 310.4 28.5 L 311 28.5 C 311 28.5 310.99 29.04 311 29 Z M 313.2 30.4 C 313.2 31 313.7 31.5 314.3 31.5 C 314.8 31.5 315.2 31.3 315.4 30.9 C 315.4 30.9 315.8 31.2 315.8 31.2 C 315.5 31.8 315 32 314.3 32 C 313.2 32 312.6 31.2 312.6 30.2 C 312.6 29.2 313.3 28.4 314.3 28.4 C 315.2 28.4 315.9 29.1 315.9 30 C 315.9 30.1 315.9 30.3 315.9 30.4 C 315.9 30.4 313.2 30.4 313.2 30.4 Z M 313.2 29.9 C 313.2 29.9 315.2 29.9 315.2 29.9 C 315.2 29.4 314.8 28.9 314.3 28.9 C 313.7 28.9 313.4 29.3 313.2 29.9 Z M 318.5 29.2 C 318.3 29 318 28.9 317.8 28.9 C 317.5 28.9 317.3 29.1 317.3 29.4 C 317.3 29.6 317.6 29.8 317.9 29.9 C 318.4 30.1 319 30.3 319 30.9 C 319 31.7 318.4 32 317.7 32 C 317.2 32 316.8 31.9 316.5 31.5 C 316.5 31.5 316.9 31.1 316.9 31.1 C 317.2 31.4 317.4 31.5 317.7 31.5 C 318 31.5 318.3 31.3 318.3 31 C 318.3 30.7 318 30.6 317.7 30.4 C 317.2 30.2 316.7 30 316.7 29.4 C 316.7 28.7 317.2 28.4 317.8 28.4 C 318.2 28.4 318.6 28.5 318.9 28.8 C 318.9 28.8 318.5 29.2 318.5 29.2 Z M 320.3 30.4 C 320.3 31 320.7 31.5 321.4 31.5 C 321.9 31.5 322.2 31.3 322.4 30.9 C 322.4 30.9 322.9 31.2 322.9 31.2 C 322.6 31.8 322.1 32 321.4 32 C 320.3 32 319.6 31.2 319.6 30.2 C 319.6 29.2 320.4 28.4 321.4 28.4 C 322.3 28.4 323 29.1 323 30 C 323 30.1 323 30.3 322.9 30.4 C 322.9 30.4 320.3 30.4 320.3 30.4 Z M 320.3 29.9 C 320.3 29.9 322.3 29.9 322.3 29.9 C 322.3 29.4 321.9 28.9 321.4 28.9 C 320.8 28.9 320.5 29.3 320.3 29.9 Z M 324.5 29 C 324.7 28.7 325 28.4 325.4 28.4 C 325.5 28.4 325.6 28.4 325.8 28.4 C 325.8 28.4 325.7 29.1 325.7 29.1 C 325.5 29 325.5 29 325.3 29 C 325 29 324.7 29.2 324.5 29.6 C 324.49 29.61 324.5 32 324.5 32 L 323.9 32 L 323.9 28.5 L 324.5 28.5 C 324.5 28.5 324.49 29.04 324.5 29 Z M 329.2 28.5 L 327.9 32 L 327.3 32 L 326 28.5 L 326.7 28.5 L 327.6 31.2 L 327.6 31.2 L 328.5 28.5 L 329.2 28.5 Z M 330.2 30.4 C 330.2 31 330.6 31.5 331.3 31.5 C 331.8 31.5 332.1 31.3 332.4 30.9 C 332.4 30.9 332.8 31.2 332.8 31.2 C 332.5 31.8 332 32 331.3 32 C 330.2 32 329.6 31.2 329.6 30.2 C 329.6 29.2 330.3 28.4 331.3 28.4 C 332.2 28.4 332.9 29.1 332.9 30 C 332.9 30.1 332.9 30.3 332.9 30.4 C 332.9 30.4 330.2 30.4 330.2 30.4 Z M 330.2 29.9 C 330.2 29.9 332.2 29.9 332.2 29.9 C 332.2 29.4 331.8 28.9 331.3 28.9 C 330.7 28.9 330.4 29.3 330.2 29.9 Z M 333.5 30.2 C 333.5 29.3 334.2 28.4 335.2 28.4 C 335.6 28.4 336.1 28.6 336.3 28.8 C 336.34 28.84 336.3 26.7 336.3 26.7 L 337 26.7 L 337 32 L 336.3 32 C 336.3 32 336.34 31.49 336.3 31.5 C 336.1 31.9 335.6 32 335.2 32 C 334.2 32 333.5 31.2 333.5 30.2 Z M 336.3 30.8 C 336.3 30.8 336.3 29.5 336.3 29.5 C 336.1 29.1 335.7 29 335.3 29 C 334.5 29 334.1 29.6 334.1 30.2 C 334.1 30.9 334.6 31.5 335.3 31.5 C 335.7 31.5 336.2 31.2 336.3 30.8 Z M 338.1 32 L 338.1 31.1 L 338.8 31.1 L 338.8 32 L 338.1 32 Z " stroke="none" fill="#535a5d"/>  </g></svg>