<?xml version="1.0" standalone="no"?><!DOCTYPE svg PUBLIC "-//W3C//DTD SVG 1.1//EN" "http://www.w3.org/Graphics/SVG/1.1/DTD/svg11.dtd"><svg xmlns="http://www.w3.org/2000/svg" version="1.1" width="316.3px" height="163.3px" viewBox="0 -1 316.3 163.3" style="top:-1px">  <desc>Featured Accent Seating 2022</desc>  <defs/>  <g id="Polygon38905">    <path d="M 149.8 105.9 L 144.3 105.9 C 144.3 105.9 144.26 104.72 144.3 104.7 C 145.3 103.7 146.5 102.3 147.3 101.2 C 147.6 100.7 148 100 148 99.4 C 148 98.7 147.4 98.3 146.7 98.3 C 146 98.3 145.5 98.8 145.5 99.6 C 145.5 99.6 144.1 99.4 144.1 99.4 C 144.2 98 145.5 97.1 146.8 97.1 C 148.1 97.1 149.4 98 149.4 99.4 C 149.4 100.2 149 101.1 148.5 101.8 C 147.8 102.8 146.9 103.8 146.1 104.7 C 146.1 104.69 149.8 104.7 149.8 104.7 L 149.8 105.9 Z M 157.7 101.6 C 157.7 104.3 156.5 106 154.6 106 C 152.6 106 151.5 104.3 151.5 101.6 C 151.5 98.8 152.6 97.1 154.6 97.1 C 156.5 97.1 157.7 98.8 157.7 101.6 Z M 152.9 101.6 C 152.9 103.7 153.5 104.8 154.6 104.8 C 155.6 104.8 156.3 103.7 156.3 101.6 C 156.3 99.4 155.6 98.3 154.6 98.3 C 153.5 98.3 152.9 99.4 152.9 101.6 Z M 165.1 105.9 L 159.5 105.9 C 159.5 105.9 159.55 104.72 159.5 104.7 C 160.5 103.7 161.8 102.3 162.6 101.2 C 162.9 100.7 163.3 100 163.3 99.4 C 163.3 98.7 162.7 98.3 162 98.3 C 161.3 98.3 160.7 98.8 160.7 99.6 C 160.7 99.6 159.4 99.4 159.4 99.4 C 159.5 98 160.8 97.1 162.1 97.1 C 163.4 97.1 164.7 98 164.7 99.4 C 164.7 100.2 164.3 101.1 163.8 101.8 C 163.1 102.8 162.2 103.8 161.4 104.7 C 161.39 104.69 165.1 104.7 165.1 104.7 L 165.1 105.9 Z M 172.4 105.9 L 166.9 105.9 C 166.9 105.9 166.86 104.72 166.9 104.7 C 167.9 103.7 169.1 102.3 169.9 101.2 C 170.2 100.7 170.6 100 170.6 99.4 C 170.6 98.7 170 98.3 169.3 98.3 C 168.6 98.3 168.1 98.8 168.1 99.6 C 168.1 99.6 166.7 99.4 166.7 99.4 C 166.8 98 168.1 97.1 169.4 97.1 C 170.8 97.1 172 98 172 99.4 C 172 100.2 171.6 101.1 171.1 101.8 C 170.4 102.8 169.6 103.8 168.7 104.7 C 168.71 104.69 172.4 104.7 172.4 104.7 L 172.4 105.9 Z " stroke="none" fill="#535a5d"/>  </g>  <g id="Polygon38904">    <path d="M 17.9 62.4 C 17.9 61.5 17.9 60.6 17.8 59.8 C 17.8 58.9 17.8 58.1 17.7 57.2 C 18.3 57.2 18.9 57.2 19.5 57.3 C 20.1 57.3 20.7 57.3 21.3 57.3 C 21.9 57.3 22.5 57.3 23.1 57.3 C 23.7 57.2 24.4 57.2 25.1 57.2 C 25.1 57.4 25.1 57.6 25.1 57.8 C 25.1 58 25.1 58.2 25.1 58.4 C 24.8 58.3 24.3 58.3 23.8 58.3 C 23.3 58.2 22.8 58.2 22.3 58.2 C 21.7 58.2 21.2 58.2 20.8 58.1 C 20.3 58.1 19.9 58.1 19.5 58.1 C 19.5 58.6 19.5 59 19.5 59.5 C 19.5 59.9 19.5 60.3 19.5 60.7 C 19.5 61.2 19.5 61.6 19.5 62 C 19.5 62.4 19.5 62.8 19.5 63.3 C 20.4 63.3 21.3 63.3 22.1 63.2 C 23 63.2 23.8 63.1 24.7 63.1 C 24.6 63.3 24.6 63.5 24.6 63.7 C 24.6 63.9 24.6 64.1 24.7 64.3 C 24.4 64.2 24 64.2 23.6 64.2 C 23.1 64.2 22.7 64.1 22.2 64.1 C 21.8 64.1 21.3 64.1 20.9 64.1 C 20.4 64.1 20 64.1 19.5 64.1 C 19.5 64.1 19.5 65.8 19.5 65.8 C 19.5 66.7 19.5 67.6 19.6 68.4 C 19.6 69.3 19.6 70.1 19.7 70.9 C 19.4 70.9 19.1 70.9 18.7 70.9 C 18.4 70.9 18 70.9 17.7 70.9 C 17.8 70.1 17.8 69.3 17.8 68.4 C 17.9 67.6 17.9 66.7 17.9 65.8 C 17.88 65.81 17.9 62.4 17.9 62.4 C 17.9 62.4 17.88 62.37 17.9 62.4 Z M 28.9 62.3 C 28.9 61.5 28.9 60.6 28.8 59.7 C 28.8 58.9 28.8 58 28.7 57.2 C 29.3 57.2 29.9 57.2 30.5 57.3 C 31.1 57.3 31.7 57.3 32.3 57.3 C 32.9 57.3 33.5 57.3 34.1 57.3 C 34.7 57.2 35.3 57.2 35.9 57.2 C 35.8 57.4 35.8 57.6 35.8 57.8 C 35.8 58 35.8 58.2 35.9 58.4 C 35.4 58.4 35 58.3 34.7 58.3 C 34.3 58.3 34 58.3 33.6 58.2 C 33.2 58.2 32.8 58.2 32.3 58.2 C 31.8 58.1 31.3 58.1 30.6 58.1 C 30.6 58.6 30.6 59 30.6 59.3 C 30.5 59.7 30.5 60.2 30.5 60.7 C 30.5 61.2 30.5 61.7 30.5 62.2 C 30.5 62.7 30.5 63.1 30.5 63.3 C 31.1 63.3 31.7 63.3 32.1 63.3 C 32.6 63.3 33 63.3 33.4 63.2 C 33.8 63.2 34.1 63.2 34.5 63.2 C 34.8 63.2 35.1 63.1 35.4 63.1 C 35.4 63.3 35.3 63.5 35.3 63.7 C 35.3 63.9 35.4 64.1 35.4 64.3 C 35.1 64.3 34.7 64.3 34.2 64.2 C 33.7 64.2 33.3 64.2 32.8 64.2 C 32.4 64.2 31.9 64.2 31.5 64.2 C 31.1 64.2 30.8 64.1 30.5 64.1 C 30.5 64.3 30.5 64.4 30.5 64.5 C 30.5 64.7 30.5 64.9 30.5 65.1 C 30.52 65.07 30.5 65.8 30.5 65.8 C 30.5 65.8 30.52 67.05 30.5 67 C 30.5 67.8 30.5 68.4 30.5 68.9 C 30.5 69.4 30.6 69.8 30.6 70 C 31 70 31.5 70 32 70 C 32.5 70 33 70 33.5 70 C 33.9 70 34.4 70 34.8 69.9 C 35.3 69.9 35.6 69.9 36 69.8 C 35.9 69.9 35.9 70 35.9 70.1 C 35.9 70.2 35.9 70.3 35.9 70.4 C 35.9 70.6 35.9 70.8 36 70.9 C 35.4 70.9 34.8 70.9 34.2 70.9 C 33.6 70.9 33 70.9 32.4 70.9 C 31.8 70.9 31.1 70.9 30.5 70.9 C 29.9 70.9 29.3 70.9 28.7 70.9 C 28.8 70.1 28.8 69.2 28.8 68.4 C 28.9 67.5 28.9 66.7 28.9 65.8 C 28.88 65.79 28.9 62.3 28.9 62.3 C 28.9 62.3 28.88 62.35 28.9 62.3 Z M 42.1 64.7 C 42.4 64.7 42.8 64.7 43.1 64.7 C 43.5 64.7 43.9 64.7 44.2 64.7 C 44.6 64.7 45 64.7 45.3 64.7 C 45.7 64.7 46.1 64.7 46.5 64.7 C 46.46 64.71 44.2 59.6 44.2 59.6 C 44.2 59.6 42.06 64.71 42.1 64.7 Z M 50.9 70.9 C 50.7 70.9 50.6 70.9 50.4 70.9 C 50.2 70.9 50.1 70.9 49.9 70.9 C 49.7 70.9 49.5 70.9 49.3 70.9 C 49.2 70.9 49 70.9 48.8 70.9 C 48.7 70.6 48.6 70.3 48.4 69.8 C 48.3 69.4 48.1 68.9 47.9 68.5 C 47.7 68 47.5 67.5 47.3 67 C 47.1 66.5 46.9 66.1 46.7 65.6 C 46.3 65.6 45.9 65.6 45.4 65.6 C 45 65.6 44.6 65.6 44.1 65.6 C 43.7 65.6 43.3 65.6 42.9 65.6 C 42.5 65.6 42.1 65.6 41.7 65.6 C 41.3 66.7 40.9 67.7 40.5 68.6 C 40.2 69.5 39.9 70.3 39.7 70.9 C 39.5 70.9 39.3 70.9 39 70.9 C 38.7 70.9 38.5 70.9 38.3 70.9 C 39.3 68.6 40.4 66.3 41.4 64 C 42.5 61.7 43.5 59.3 44.5 56.9 C 44.5 56.9 44.9 56.9 44.9 56.9 C 45.2 57.7 45.6 58.5 45.9 59.4 C 46.3 60.3 46.7 61.2 47.1 62.2 C 47.5 63.1 47.9 64 48.2 64.9 C 48.6 65.8 49 66.7 49.3 67.4 C 49.7 68.2 50 68.9 50.3 69.5 C 50.5 70.1 50.8 70.6 50.9 70.9 Z M 55.5 62.4 C 55.5 61 55.5 59.6 55.5 58.2 C 55.1 58.2 54.8 58.2 54.4 58.2 C 54 58.2 53.6 58.3 53.2 58.3 C 52.9 58.3 52.5 58.3 52.1 58.3 C 51.8 58.4 51.5 58.4 51.2 58.4 C 51.3 58.2 51.3 58 51.3 57.8 C 51.3 57.7 51.3 57.5 51.2 57.2 C 52.1 57.2 52.9 57.2 53.8 57.3 C 54.6 57.3 55.5 57.3 56.3 57.3 C 57.2 57.3 58.1 57.3 58.9 57.3 C 59.8 57.2 60.6 57.2 61.5 57.2 C 61.4 57.5 61.4 57.7 61.4 57.8 C 61.4 58 61.4 58.2 61.5 58.4 C 61.2 58.4 60.9 58.4 60.6 58.3 C 60.2 58.3 59.8 58.3 59.5 58.3 C 59.1 58.3 58.7 58.2 58.3 58.2 C 57.9 58.2 57.6 58.2 57.2 58.2 C 57.2 59.6 57.2 61 57.2 62.4 C 57.2 62.4 57.2 65.8 57.2 65.8 C 57.2 66.7 57.2 67.6 57.2 68.4 C 57.2 69.3 57.3 70.1 57.3 70.9 C 57 70.9 56.7 70.9 56.3 70.9 C 56 70.9 55.7 70.9 55.4 70.9 C 55.4 70.1 55.4 69.3 55.5 68.4 C 55.5 67.6 55.5 66.7 55.5 65.8 C 55.52 65.81 55.5 62.4 55.5 62.4 C 55.5 62.4 55.52 62.37 55.5 62.4 Z M 75.3 63.7 C 75.3 61.8 75.3 60.3 75.3 59.3 C 75.3 58.3 75.2 57.6 75.2 57.2 C 75.3 57.2 75.5 57.2 75.6 57.3 C 75.7 57.3 75.9 57.3 76 57.3 C 76.2 57.3 76.4 57.3 76.6 57.2 C 76.5 57.7 76.5 58.2 76.5 58.9 C 76.4 59.5 76.4 60.2 76.4 60.9 C 76.3 61.7 76.3 62.4 76.3 63.2 C 76.3 64 76.2 64.8 76.2 65.5 C 76.2 66.4 76.1 67.2 75.8 67.9 C 75.6 68.6 75.2 69.2 74.7 69.7 C 74.2 70.2 73.6 70.6 72.9 70.8 C 72.2 71.1 71.4 71.2 70.5 71.2 C 68.5 71.2 67.1 70.7 66.2 69.8 C 65.3 68.9 64.8 67.5 64.8 65.5 C 64.8 64.9 64.8 64.3 64.9 63.9 C 64.9 63.4 64.9 62.9 64.9 62.4 C 64.9 61.2 64.9 60.3 64.9 59.4 C 64.8 58.5 64.8 57.8 64.8 57.2 C 64.9 57.2 65.1 57.2 65.3 57.3 C 65.5 57.3 65.7 57.3 65.8 57.3 C 66 57.3 66.1 57.3 66.3 57.3 C 66.4 57.2 66.5 57.2 66.7 57.2 C 66.7 57.5 66.6 57.9 66.6 58.3 C 66.6 58.8 66.6 59.3 66.5 59.9 C 66.5 60.5 66.5 61.2 66.5 61.9 C 66.5 62.6 66.4 63.3 66.4 64 C 66.4 64.5 66.5 65 66.5 65.5 C 66.5 65.9 66.5 66.4 66.6 66.9 C 66.7 67.3 66.8 67.8 67 68.2 C 67.2 68.6 67.4 69 67.8 69.3 C 68.1 69.6 68.5 69.9 69 70 C 69.5 70.2 70.2 70.3 70.9 70.3 C 71.6 70.3 72.3 70.2 72.8 70 C 73.3 69.8 73.7 69.5 74 69.1 C 74.3 68.8 74.6 68.4 74.7 67.9 C 74.9 67.5 75 67 75.1 66.5 C 75.2 66 75.3 65.5 75.3 65 C 75.3 64.6 75.3 64.1 75.3 63.7 Z M 81.4 62.4 C 81.4 61.5 81.4 60.6 81.4 59.8 C 81.3 58.9 81.3 58.1 81.3 57.2 C 81.7 57.2 82 57.2 82.4 57.3 C 82.8 57.3 83.2 57.3 83.5 57.3 C 83.9 57.3 84.3 57.3 84.7 57.2 C 85.1 57.2 85.4 57.2 85.8 57.2 C 86.4 57.2 86.9 57.2 87.4 57.3 C 87.9 57.5 88.4 57.6 88.8 57.9 C 89.1 58.1 89.4 58.4 89.7 58.8 C 89.9 59.2 90 59.7 90 60.3 C 90 61 89.8 61.5 89.6 62 C 89.3 62.5 88.9 62.8 88.5 63.1 C 88.1 63.4 87.6 63.7 87.2 63.8 C 86.7 64 86.3 64.1 85.9 64.2 C 86 64.4 86.3 64.6 86.5 65 C 86.8 65.4 87.1 65.8 87.5 66.2 C 87.8 66.6 88.2 67.1 88.6 67.6 C 88.9 68 89.3 68.5 89.6 68.9 C 90 69.4 90.3 69.7 90.6 70.1 C 90.9 70.5 91.2 70.7 91.4 70.9 C 91.2 70.9 91 70.9 90.8 70.9 C 90.6 70.9 90.4 70.9 90.2 70.9 C 90 70.9 89.8 70.9 89.6 70.9 C 89.4 70.9 89.2 70.9 89 70.9 C 88.8 70.6 88.5 70.2 88.1 69.7 C 87.7 69.1 87.2 68.5 86.7 67.9 C 86.3 67.2 85.7 66.6 85.2 66 C 84.7 65.3 84.3 64.8 83.8 64.3 C 83.82 64.35 83.1 64.3 83.1 64.3 C 83.1 64.3 83.06 65.81 83.1 65.8 C 83.1 66.7 83.1 67.6 83.1 68.4 C 83.1 69.3 83.2 70.1 83.2 70.9 C 82.9 70.9 82.6 70.9 82.2 70.9 C 81.9 70.9 81.6 70.9 81.3 70.9 C 81.3 70.1 81.3 69.3 81.4 68.4 C 81.4 67.6 81.4 66.7 81.4 65.8 C 81.4 65.8 81.4 62.4 81.4 62.4 Z M 83.1 63.5 C 83.3 63.5 83.5 63.6 83.7 63.6 C 83.9 63.6 84.1 63.6 84.4 63.6 C 84.8 63.6 85.2 63.6 85.7 63.5 C 86.1 63.4 86.6 63.2 86.9 63 C 87.3 62.7 87.6 62.4 87.9 62 C 88.1 61.6 88.2 61.1 88.2 60.5 C 88.2 60 88.1 59.6 87.9 59.3 C 87.7 58.9 87.5 58.6 87.2 58.4 C 86.9 58.2 86.5 58.1 86.2 58 C 85.8 58 85.5 57.9 85.1 57.9 C 84.7 57.9 84.3 57.9 84 58 C 83.7 58 83.4 58 83.2 58 C 83.2 58.8 83.1 59.5 83.1 60.2 C 83.1 60.9 83.1 61.6 83.1 62.4 C 83.1 62.4 83.1 63.5 83.1 63.5 Z M 94.6 62.3 C 94.6 61.5 94.6 60.6 94.6 59.7 C 94.6 58.9 94.5 58 94.5 57.2 C 95.1 57.2 95.7 57.2 96.3 57.3 C 96.9 57.3 97.5 57.3 98.1 57.3 C 98.7 57.3 99.3 57.3 99.8 57.3 C 100.4 57.2 101 57.2 101.6 57.2 C 101.6 57.4 101.6 57.6 101.6 57.8 C 101.6 58 101.6 58.2 101.6 58.4 C 101.2 58.4 100.8 58.3 100.5 58.3 C 100.1 58.3 99.7 58.3 99.3 58.2 C 98.9 58.2 98.5 58.2 98 58.2 C 97.6 58.1 97 58.1 96.4 58.1 C 96.4 58.6 96.3 59 96.3 59.3 C 96.3 59.7 96.3 60.2 96.3 60.7 C 96.3 61.2 96.3 61.7 96.3 62.2 C 96.3 62.7 96.3 63.1 96.3 63.3 C 96.9 63.3 97.4 63.3 97.9 63.3 C 98.4 63.3 98.8 63.3 99.2 63.2 C 99.6 63.2 99.9 63.2 100.2 63.2 C 100.6 63.2 100.9 63.1 101.2 63.1 C 101.1 63.3 101.1 63.5 101.1 63.7 C 101.1 63.9 101.1 64.1 101.2 64.3 C 100.8 64.3 100.4 64.3 100 64.2 C 99.5 64.2 99 64.2 98.6 64.2 C 98.1 64.2 97.7 64.2 97.3 64.2 C 96.9 64.2 96.5 64.1 96.3 64.1 C 96.3 64.3 96.3 64.4 96.3 64.5 C 96.3 64.7 96.3 64.9 96.3 65.1 C 96.28 65.07 96.3 65.8 96.3 65.8 C 96.3 65.8 96.28 67.05 96.3 67 C 96.3 67.8 96.3 68.4 96.3 68.9 C 96.3 69.4 96.3 69.8 96.3 70 C 96.8 70 97.2 70 97.7 70 C 98.2 70 98.7 70 99.2 70 C 99.7 70 100.2 70 100.6 69.9 C 101 69.9 101.4 69.9 101.7 69.8 C 101.7 69.9 101.7 70 101.7 70.1 C 101.7 70.2 101.7 70.3 101.7 70.4 C 101.7 70.6 101.7 70.8 101.7 70.9 C 101.1 70.9 100.5 70.9 99.9 70.9 C 99.3 70.9 98.7 70.9 98.1 70.9 C 97.5 70.9 96.9 70.9 96.3 70.9 C 95.7 70.9 95.1 70.9 94.5 70.9 C 94.5 70.1 94.6 69.2 94.6 68.4 C 94.6 67.5 94.6 66.7 94.6 65.8 C 94.64 65.79 94.6 62.3 94.6 62.3 C 94.6 62.3 94.64 62.35 94.6 62.3 Z M 105.6 62.4 C 105.6 61.5 105.6 60.6 105.6 59.8 C 105.6 58.9 105.5 58.1 105.5 57.2 C 106 57.2 106.5 57.2 107 57.3 C 107.5 57.3 108 57.3 108.5 57.3 C 109 57.3 109.5 57.3 110 57.2 C 110.5 57.2 111 57.2 111.5 57.2 C 112.7 57.2 113.7 57.3 114.5 57.6 C 115.4 58 116.1 58.4 116.6 59 C 117.1 59.5 117.5 60.2 117.8 61 C 118 61.9 118.1 62.8 118.1 63.8 C 118.1 65.1 117.9 66.3 117.4 67.2 C 117 68.1 116.4 68.8 115.7 69.4 C 115 69.9 114.2 70.3 113.3 70.6 C 112.5 70.8 111.6 70.9 110.8 70.9 C 110.4 70.9 109.9 70.9 109.5 70.9 C 109.1 70.9 108.6 70.9 108.2 70.9 C 107.7 70.9 107.3 70.9 106.8 70.9 C 106.4 70.9 105.9 70.9 105.5 70.9 C 105.5 70.1 105.6 69.3 105.6 68.4 C 105.6 67.6 105.6 66.7 105.6 65.8 C 105.6 65.8 105.6 62.4 105.6 62.4 Z M 107.3 65.8 C 107.3 67.2 107.3 68.7 107.4 70 C 107.7 70.1 108.1 70.2 108.5 70.2 C 109 70.2 109.5 70.2 110 70.2 C 110.8 70.2 111.5 70.2 112.2 70 C 113 69.8 113.6 69.5 114.2 69 C 114.8 68.5 115.2 67.9 115.6 67 C 116 66.2 116.2 65.1 116.2 63.8 C 116.2 62.6 116 61.7 115.7 60.9 C 115.4 60.2 115.1 59.6 114.6 59.2 C 114.1 58.7 113.5 58.4 112.8 58.3 C 112.1 58.1 111.3 58 110.5 58 C 109.9 58 109.3 58 108.8 58.1 C 108.3 58.1 107.8 58.2 107.4 58.2 C 107.4 58.9 107.3 59.5 107.3 60.2 C 107.3 60.9 107.3 61.6 107.3 62.4 C 107.3 62.4 107.3 65.8 107.3 65.8 Z M 130.2 64.7 C 130.6 64.7 130.9 64.7 131.3 64.7 C 131.7 64.7 132 64.7 132.4 64.7 C 132.7 64.7 133.1 64.7 133.5 64.7 C 133.9 64.7 134.2 64.7 134.6 64.7 C 134.6 64.71 132.4 59.6 132.4 59.6 C 132.4 59.6 130.2 64.71 130.2 64.7 Z M 139.1 70.9 C 138.9 70.9 138.7 70.9 138.5 70.9 C 138.4 70.9 138.2 70.9 138 70.9 C 137.8 70.9 137.6 70.9 137.5 70.9 C 137.3 70.9 137.1 70.9 136.9 70.9 C 136.9 70.6 136.7 70.3 136.6 69.8 C 136.4 69.4 136.2 68.9 136 68.5 C 135.8 68 135.6 67.5 135.4 67 C 135.2 66.5 135.1 66.1 134.9 65.6 C 134.5 65.6 134 65.6 133.6 65.6 C 133.1 65.6 132.7 65.6 132.3 65.6 C 131.9 65.6 131.4 65.6 131 65.6 C 130.6 65.6 130.2 65.6 129.8 65.6 C 129.4 66.7 129 67.7 128.7 68.6 C 128.3 69.5 128.1 70.3 127.9 70.9 C 127.7 70.9 127.4 70.9 127.1 70.9 C 126.9 70.9 126.6 70.9 126.4 70.9 C 127.5 68.6 128.5 66.3 129.6 64 C 130.6 61.7 131.6 59.3 132.7 56.9 C 132.7 56.9 133 56.9 133 56.9 C 133.4 57.7 133.7 58.5 134.1 59.4 C 134.5 60.3 134.8 61.2 135.2 62.2 C 135.6 63.1 136 64 136.4 64.9 C 136.8 65.8 137.1 66.7 137.5 67.4 C 137.8 68.2 138.1 68.9 138.4 69.5 C 138.7 70.1 138.9 70.6 139.1 70.9 Z M 152.1 70.1 C 152 70.2 151.8 70.3 151.5 70.5 C 151.3 70.6 151 70.7 150.6 70.8 C 150.2 70.9 149.8 71 149.4 71.1 C 148.9 71.1 148.4 71.2 147.9 71.2 C 146.9 71.2 145.9 71 145 70.7 C 144.1 70.4 143.4 70 142.7 69.4 C 142.1 68.8 141.6 68 141.2 67.1 C 140.8 66.2 140.6 65.2 140.6 64.1 C 140.6 63 140.8 61.9 141.2 61.1 C 141.6 60.2 142.1 59.4 142.7 58.8 C 143.4 58.2 144.2 57.7 145.1 57.4 C 146 57.1 147 56.9 148.1 56.9 C 149 56.9 149.8 57 150.6 57.2 C 151.3 57.4 151.9 57.6 152.5 57.8 C 152.4 58 152.3 58.3 152.2 58.6 C 152.2 58.9 152.1 59.2 152.1 59.4 C 152.1 59.4 151.9 59.4 151.9 59.4 C 151.8 59.3 151.6 59.1 151.4 58.9 C 151.1 58.7 150.9 58.5 150.5 58.3 C 150.2 58.1 149.9 58 149.5 57.9 C 149.1 57.7 148.6 57.7 148.1 57.7 C 147.4 57.7 146.6 57.8 146 58 C 145.3 58.3 144.7 58.7 144.2 59.2 C 143.7 59.7 143.3 60.4 143 61.2 C 142.7 62 142.6 63 142.6 64.1 C 142.6 65.2 142.7 66.2 143 67 C 143.3 67.8 143.7 68.4 144.2 69 C 144.7 69.5 145.3 69.9 146 70.1 C 146.6 70.4 147.4 70.5 148.1 70.5 C 148.6 70.5 149.1 70.4 149.5 70.3 C 149.9 70.2 150.3 70.1 150.6 69.9 C 150.9 69.7 151.2 69.6 151.5 69.4 C 151.8 69.2 152 69 152.2 68.8 C 152.2 68.85 152.3 68.9 152.3 68.9 L 152.1 70.1 C 152.1 70.1 152.1 70.11 152.1 70.1 Z M 166.4 70.1 C 166.3 70.2 166.1 70.3 165.9 70.5 C 165.6 70.6 165.3 70.7 164.9 70.8 C 164.6 70.9 164.2 71 163.7 71.1 C 163.3 71.1 162.8 71.2 162.3 71.2 C 161.2 71.2 160.3 71 159.4 70.7 C 158.5 70.4 157.7 70 157.1 69.4 C 156.4 68.8 155.9 68 155.5 67.1 C 155.2 66.2 155 65.2 155 64.1 C 155 63 155.2 61.9 155.5 61.1 C 155.9 60.2 156.4 59.4 157.1 58.8 C 157.7 58.2 158.5 57.7 159.4 57.4 C 160.4 57.1 161.4 56.9 162.5 56.9 C 163.4 56.9 164.2 57 164.9 57.2 C 165.6 57.4 166.3 57.6 166.8 57.8 C 166.7 58 166.6 58.3 166.6 58.6 C 166.5 58.9 166.4 59.2 166.4 59.4 C 166.4 59.4 166.3 59.4 166.3 59.4 C 166.2 59.3 166 59.1 165.7 58.9 C 165.5 58.7 165.2 58.5 164.9 58.3 C 164.6 58.1 164.2 58 163.8 57.9 C 163.4 57.7 163 57.7 162.5 57.7 C 161.7 57.7 161 57.8 160.3 58 C 159.6 58.3 159 58.7 158.5 59.2 C 158 59.7 157.6 60.4 157.4 61.2 C 157.1 62 156.9 63 156.9 64.1 C 156.9 65.2 157.1 66.2 157.4 67 C 157.6 67.8 158 68.4 158.5 69 C 159 69.5 159.6 69.9 160.3 70.1 C 161 70.4 161.7 70.5 162.5 70.5 C 163 70.5 163.4 70.4 163.8 70.3 C 164.2 70.2 164.6 70.1 164.9 69.9 C 165.3 69.7 165.6 69.6 165.9 69.4 C 166.1 69.2 166.4 69 166.5 68.8 C 166.54 68.85 166.6 68.9 166.6 68.9 L 166.4 70.1 C 166.4 70.1 166.44 70.11 166.4 70.1 Z M 170.4 62.3 C 170.4 61.5 170.4 60.6 170.4 59.7 C 170.4 58.9 170.3 58 170.3 57.2 C 170.9 57.2 171.5 57.2 172.1 57.3 C 172.7 57.3 173.3 57.3 173.9 57.3 C 174.5 57.3 175.1 57.3 175.6 57.3 C 176.2 57.2 176.8 57.2 177.4 57.2 C 177.4 57.4 177.4 57.6 177.4 57.8 C 177.4 58 177.4 58.2 177.4 58.4 C 177 58.4 176.6 58.3 176.3 58.3 C 175.9 58.3 175.5 58.3 175.1 58.2 C 174.7 58.2 174.3 58.2 173.8 58.2 C 173.4 58.1 172.8 58.1 172.2 58.1 C 172.2 58.6 172.1 59 172.1 59.3 C 172.1 59.7 172.1 60.2 172.1 60.7 C 172.1 61.2 172.1 61.7 172.1 62.2 C 172.1 62.7 172.1 63.1 172.1 63.3 C 172.7 63.3 173.2 63.3 173.7 63.3 C 174.2 63.3 174.6 63.3 175 63.2 C 175.4 63.2 175.7 63.2 176 63.2 C 176.4 63.2 176.7 63.1 177 63.1 C 176.9 63.3 176.9 63.5 176.9 63.7 C 176.9 63.9 176.9 64.1 177 64.3 C 176.6 64.3 176.2 64.3 175.8 64.2 C 175.3 64.2 174.8 64.2 174.4 64.2 C 173.9 64.2 173.5 64.2 173.1 64.2 C 172.7 64.2 172.3 64.1 172.1 64.1 C 172.1 64.3 172.1 64.4 172.1 64.5 C 172.1 64.7 172.1 64.9 172.1 65.1 C 172.08 65.07 172.1 65.8 172.1 65.8 C 172.1 65.8 172.08 67.05 172.1 67 C 172.1 67.8 172.1 68.4 172.1 68.9 C 172.1 69.4 172.1 69.8 172.1 70 C 172.6 70 173 70 173.5 70 C 174 70 174.5 70 175 70 C 175.5 70 176 70 176.4 69.9 C 176.8 69.9 177.2 69.9 177.5 69.8 C 177.5 69.9 177.5 70 177.5 70.1 C 177.5 70.2 177.5 70.3 177.5 70.4 C 177.5 70.6 177.5 70.8 177.5 70.9 C 176.9 70.9 176.3 70.9 175.7 70.9 C 175.1 70.9 174.5 70.9 173.9 70.9 C 173.3 70.9 172.7 70.9 172.1 70.9 C 171.5 70.9 170.9 70.9 170.3 70.9 C 170.3 70.1 170.4 69.2 170.4 68.4 C 170.4 67.5 170.4 66.7 170.4 65.8 C 170.44 65.79 170.4 62.3 170.4 62.3 C 170.4 62.3 170.44 62.35 170.4 62.3 Z M 192.7 71.2 C 191.2 69.4 189.5 67.6 187.8 65.7 C 186.1 63.9 184.3 62 182.6 60.2 C 182.6 60.6 182.6 61.1 182.6 61.7 C 182.6 62.3 182.5 63.2 182.5 64.2 C 182.5 64.5 182.5 64.9 182.6 65.3 C 182.6 65.7 182.6 66.1 182.6 66.6 C 182.6 67 182.6 67.5 182.6 68 C 182.6 68.4 182.6 68.9 182.6 69.3 C 182.7 69.7 182.7 70 182.7 70.3 C 182.7 70.6 182.7 70.8 182.7 70.9 C 182.5 70.9 182.3 70.9 182 70.9 C 181.8 70.9 181.5 70.9 181.3 70.9 C 181.3 70.8 181.3 70.5 181.4 70.2 C 181.4 69.8 181.4 69.4 181.5 68.9 C 181.5 68.4 181.5 67.9 181.6 67.3 C 181.6 66.7 181.6 66.1 181.6 65.5 C 181.7 64.9 181.7 64.3 181.7 63.8 C 181.7 63.2 181.7 62.7 181.7 62.3 C 181.7 61 181.7 59.9 181.7 59 C 181.7 58.1 181.7 57.4 181.6 56.9 C 181.6 56.9 182 56.9 182 56.9 C 182.8 57.8 183.6 58.8 184.6 59.8 C 185.5 60.8 186.4 61.8 187.3 62.7 C 188.2 63.7 189.1 64.6 189.9 65.5 C 190.8 66.4 191.5 67.1 192.1 67.7 C 192.1 67.7 192.1 65 192.1 65 C 192.1 63.6 192.1 62.3 192.1 60.9 C 192 59.6 192 58.4 191.9 57.2 C 192.2 57.3 192.4 57.3 192.6 57.3 C 192.8 57.3 193 57.3 193.2 57.2 C 193.2 57.5 193.2 57.9 193.2 58.5 C 193.1 59.1 193.1 59.7 193.1 60.4 C 193 61.1 193 61.7 193 62.3 C 192.9 63 192.9 63.5 192.9 63.9 C 192.9 64.2 192.9 64.6 192.9 65.1 C 192.9 65.5 192.9 66 192.9 66.5 C 192.9 67 192.9 67.5 193 68 C 193 68.5 193 69 193 69.4 C 193 69.8 193 70.2 193 70.5 C 193 70.8 193 71 193 71.2 C 192.98 71.19 192.7 71.2 192.7 71.2 C 192.7 71.2 192.7 71.19 192.7 71.2 Z M 200.8 62.4 C 200.8 61 200.8 59.6 200.7 58.2 C 200.4 58.2 200 58.2 199.6 58.2 C 199.3 58.2 198.9 58.3 198.5 58.3 C 198.1 58.3 197.7 58.3 197.4 58.3 C 197 58.4 196.7 58.4 196.4 58.4 C 196.5 58.2 196.5 58 196.5 57.8 C 196.5 57.7 196.5 57.5 196.4 57.2 C 197.3 57.2 198.2 57.2 199 57.3 C 199.9 57.3 200.7 57.3 201.6 57.3 C 202.5 57.3 203.3 57.3 204.2 57.3 C 205 57.2 205.9 57.2 206.8 57.2 C 206.7 57.5 206.7 57.7 206.7 57.8 C 206.7 58 206.7 58.2 206.8 58.4 C 206.5 58.4 206.2 58.4 205.8 58.3 C 205.5 58.3 205.1 58.3 204.7 58.3 C 204.3 58.3 204 58.2 203.6 58.2 C 203.2 58.2 202.8 58.2 202.5 58.2 C 202.4 59.6 202.4 61 202.4 62.4 C 202.4 62.4 202.4 65.8 202.4 65.8 C 202.4 66.7 202.4 67.6 202.5 68.4 C 202.5 69.3 202.5 70.1 202.6 70.9 C 202.3 70.9 202 70.9 201.6 70.9 C 201.3 70.9 200.9 70.9 200.6 70.9 C 200.7 70.1 200.7 69.3 200.7 68.4 C 200.8 67.6 200.8 66.7 200.8 65.8 C 200.78 65.81 200.8 62.4 200.8 62.4 C 200.8 62.4 200.78 62.37 200.8 62.4 Z M 216.2 68.3 C 216.4 68.6 216.5 68.8 216.7 69.1 C 216.9 69.3 217.1 69.5 217.3 69.7 C 217.6 69.9 217.9 70.1 218.2 70.2 C 218.6 70.3 219 70.4 219.4 70.4 C 219.8 70.4 220.2 70.3 220.6 70.2 C 220.9 70 221.2 69.8 221.5 69.6 C 221.7 69.3 221.9 69 222.1 68.6 C 222.2 68.3 222.3 67.9 222.3 67.5 C 222.3 66.9 222.1 66.4 221.8 66 C 221.5 65.7 221.1 65.4 220.6 65.1 C 220.2 64.9 219.7 64.7 219.1 64.5 C 218.6 64.3 218.1 64 217.6 63.7 C 217.1 63.4 216.7 63.1 216.4 62.6 C 216.1 62.1 216 61.5 216 60.7 C 216 60.1 216.1 59.6 216.3 59.2 C 216.5 58.7 216.8 58.3 217.1 58 C 217.5 57.7 218 57.4 218.5 57.2 C 219 57 219.6 56.9 220.3 56.9 C 220.9 56.9 221.5 57 222 57.2 C 222.4 57.3 222.9 57.5 223.3 57.9 C 223.1 58.1 223 58.3 223 58.6 C 222.9 58.8 222.8 59.2 222.7 59.5 C 222.7 59.5 222.5 59.5 222.5 59.5 C 222.4 59.4 222.3 59.2 222.2 58.9 C 222.1 58.7 221.9 58.5 221.8 58.3 C 221.6 58.1 221.3 58 221.1 57.9 C 220.8 57.7 220.5 57.7 220.1 57.7 C 219.7 57.7 219.4 57.7 219.1 57.8 C 218.8 58 218.5 58.1 218.3 58.4 C 218 58.6 217.8 58.8 217.7 59.1 C 217.6 59.5 217.5 59.8 217.5 60.1 C 217.5 60.8 217.7 61.3 218 61.6 C 218.3 62 218.7 62.3 219.2 62.5 C 219.6 62.8 220.1 63 220.7 63.2 C 221.2 63.4 221.7 63.6 222.2 63.9 C 222.7 64.2 223 64.5 223.4 65 C 223.7 65.4 223.8 66 223.8 66.7 C 223.8 67.4 223.7 67.9 223.5 68.5 C 223.3 69 223 69.5 222.5 69.9 C 222.1 70.3 221.6 70.6 221 70.9 C 220.4 71.1 219.7 71.2 218.9 71.2 C 218.1 71.2 217.4 71.1 216.9 70.9 C 216.4 70.6 216 70.4 215.6 70.1 C 215.7 69.8 215.8 69.5 215.9 69.3 C 215.9 69 216 68.7 216 68.3 C 216 68.33 216.2 68.3 216.2 68.3 C 216.2 68.3 216.24 68.33 216.2 68.3 Z M 227.7 62.3 C 227.7 61.5 227.7 60.6 227.6 59.7 C 227.6 58.9 227.6 58 227.5 57.2 C 228.1 57.2 228.7 57.2 229.3 57.3 C 229.9 57.3 230.5 57.3 231.1 57.3 C 231.7 57.3 232.3 57.3 232.9 57.3 C 233.5 57.2 234.1 57.2 234.7 57.2 C 234.6 57.4 234.6 57.6 234.6 57.8 C 234.6 58 234.6 58.2 234.7 58.4 C 234.2 58.4 233.8 58.3 233.5 58.3 C 233.1 58.3 232.8 58.3 232.4 58.2 C 232 58.2 231.6 58.2 231.1 58.2 C 230.6 58.1 230.1 58.1 229.4 58.1 C 229.4 58.6 229.4 59 229.4 59.3 C 229.3 59.7 229.3 60.2 229.3 60.7 C 229.3 61.2 229.3 61.7 229.3 62.2 C 229.3 62.7 229.3 63.1 229.3 63.3 C 229.9 63.3 230.5 63.3 230.9 63.3 C 231.4 63.3 231.8 63.3 232.2 63.2 C 232.6 63.2 232.9 63.2 233.3 63.2 C 233.6 63.2 233.9 63.1 234.2 63.1 C 234.2 63.3 234.1 63.5 234.1 63.7 C 234.1 63.9 234.2 64.1 234.2 64.3 C 233.9 64.3 233.5 64.3 233 64.2 C 232.5 64.2 232.1 64.2 231.6 64.2 C 231.2 64.2 230.7 64.2 230.3 64.2 C 229.9 64.2 229.6 64.1 229.3 64.1 C 229.3 64.3 229.3 64.4 229.3 64.5 C 229.3 64.7 229.3 64.9 229.3 65.1 C 229.32 65.07 229.3 65.8 229.3 65.8 C 229.3 65.8 229.32 67.05 229.3 67 C 229.3 67.8 229.3 68.4 229.3 68.9 C 229.3 69.4 229.4 69.8 229.4 70 C 229.8 70 230.3 70 230.8 70 C 231.3 70 231.8 70 232.3 70 C 232.7 70 233.2 70 233.6 69.9 C 234.1 69.9 234.4 69.9 234.8 69.8 C 234.7 69.9 234.7 70 234.7 70.1 C 234.7 70.2 234.7 70.3 234.7 70.4 C 234.7 70.6 234.7 70.8 234.8 70.9 C 234.2 70.9 233.6 70.9 233 70.9 C 232.4 70.9 231.8 70.9 231.2 70.9 C 230.6 70.9 229.9 70.9 229.3 70.9 C 228.7 70.9 228.1 70.9 227.5 70.9 C 227.6 70.1 227.6 69.2 227.6 68.4 C 227.7 67.5 227.7 66.7 227.7 65.8 C 227.68 65.79 227.7 62.3 227.7 62.3 C 227.7 62.3 227.68 62.35 227.7 62.3 Z M 240.9 64.7 C 241.2 64.7 241.6 64.7 241.9 64.7 C 242.3 64.7 242.7 64.7 243 64.7 C 243.4 64.7 243.8 64.7 244.1 64.7 C 244.5 64.7 244.9 64.7 245.3 64.7 C 245.26 64.71 243 59.6 243 59.6 C 243 59.6 240.86 64.71 240.9 64.7 Z M 249.7 70.9 C 249.5 70.9 249.4 70.9 249.2 70.9 C 249 70.9 248.9 70.9 248.7 70.9 C 248.5 70.9 248.3 70.9 248.1 70.9 C 248 70.9 247.8 70.9 247.6 70.9 C 247.5 70.6 247.4 70.3 247.2 69.8 C 247.1 69.4 246.9 68.9 246.7 68.5 C 246.5 68 246.3 67.5 246.1 67 C 245.9 66.5 245.7 66.1 245.5 65.6 C 245.1 65.6 244.7 65.6 244.2 65.6 C 243.8 65.6 243.4 65.6 242.9 65.6 C 242.5 65.6 242.1 65.6 241.7 65.6 C 241.3 65.6 240.9 65.6 240.5 65.6 C 240.1 66.7 239.7 67.7 239.3 68.6 C 239 69.5 238.7 70.3 238.5 70.9 C 238.3 70.9 238.1 70.9 237.8 70.9 C 237.5 70.9 237.3 70.9 237.1 70.9 C 238.1 68.6 239.2 66.3 240.2 64 C 241.3 61.7 242.3 59.3 243.3 56.9 C 243.3 56.9 243.7 56.9 243.7 56.9 C 244 57.7 244.4 58.5 244.7 59.4 C 245.1 60.3 245.5 61.2 245.9 62.2 C 246.3 63.1 246.7 64 247 64.9 C 247.4 65.8 247.8 66.7 248.1 67.4 C 248.5 68.2 248.8 68.9 249.1 69.5 C 249.3 70.1 249.6 70.6 249.7 70.9 Z M 254.3 62.4 C 254.3 61 254.3 59.6 254.3 58.2 C 253.9 58.2 253.6 58.2 253.2 58.2 C 252.8 58.2 252.4 58.3 252 58.3 C 251.7 58.3 251.3 58.3 250.9 58.3 C 250.6 58.4 250.3 58.4 250 58.4 C 250.1 58.2 250.1 58 250.1 57.8 C 250.1 57.7 250.1 57.5 250 57.2 C 250.9 57.2 251.7 57.2 252.6 57.3 C 253.4 57.3 254.3 57.3 255.1 57.3 C 256 57.3 256.9 57.3 257.7 57.3 C 258.6 57.2 259.4 57.2 260.3 57.2 C 260.2 57.5 260.2 57.7 260.2 57.8 C 260.2 58 260.2 58.2 260.3 58.4 C 260 58.4 259.7 58.4 259.4 58.3 C 259 58.3 258.6 58.3 258.3 58.3 C 257.9 58.3 257.5 58.2 257.1 58.2 C 256.7 58.2 256.4 58.2 256 58.2 C 256 59.6 256 61 256 62.4 C 256 62.4 256 65.8 256 65.8 C 256 66.7 256 67.6 256 68.4 C 256 69.3 256.1 70.1 256.1 70.9 C 255.8 70.9 255.5 70.9 255.1 70.9 C 254.8 70.9 254.5 70.9 254.2 70.9 C 254.2 70.1 254.2 69.3 254.3 68.4 C 254.3 67.6 254.3 66.7 254.3 65.8 C 254.32 65.81 254.3 62.4 254.3 62.4 C 254.3 62.4 254.32 62.37 254.3 62.4 Z M 263.7 62.4 C 263.7 61.5 263.6 60.6 263.6 59.8 C 263.6 58.9 263.5 58.1 263.5 57.2 C 263.7 57.2 263.8 57.2 264 57.3 C 264.2 57.3 264.3 57.3 264.5 57.3 C 264.6 57.3 264.8 57.3 265 57.3 C 265.1 57.2 265.3 57.2 265.5 57.2 C 265.4 58.1 265.4 58.9 265.4 59.8 C 265.3 60.6 265.3 61.5 265.3 62.4 C 265.3 62.4 265.3 65.8 265.3 65.8 C 265.3 66.7 265.3 67.6 265.4 68.4 C 265.4 69.3 265.4 70.1 265.5 70.9 C 265.2 70.9 264.8 70.9 264.5 70.9 C 264.1 70.9 263.8 70.9 263.5 70.9 C 263.5 70.1 263.6 69.3 263.6 68.4 C 263.6 67.6 263.7 66.7 263.7 65.8 C 263.66 65.81 263.7 62.4 263.7 62.4 C 263.7 62.4 263.66 62.37 263.7 62.4 Z M 281.5 71.2 C 280 69.4 278.3 67.6 276.6 65.7 C 274.9 63.9 273.1 62 271.4 60.2 C 271.4 60.6 271.4 61.1 271.3 61.7 C 271.3 62.3 271.3 63.2 271.3 64.2 C 271.3 64.5 271.3 64.9 271.3 65.3 C 271.3 65.7 271.3 66.1 271.4 66.6 C 271.4 67 271.4 67.5 271.4 68 C 271.4 68.4 271.4 68.9 271.4 69.3 C 271.4 69.7 271.5 70 271.5 70.3 C 271.5 70.6 271.5 70.8 271.5 70.9 C 271.3 70.9 271.1 70.9 270.8 70.9 C 270.5 70.9 270.3 70.9 270.1 70.9 C 270.1 70.8 270.1 70.5 270.2 70.2 C 270.2 69.8 270.2 69.4 270.2 68.9 C 270.3 68.4 270.3 67.9 270.3 67.3 C 270.4 66.7 270.4 66.1 270.4 65.5 C 270.4 64.9 270.5 64.3 270.5 63.8 C 270.5 63.2 270.5 62.7 270.5 62.3 C 270.5 61 270.5 59.9 270.5 59 C 270.5 58.1 270.5 57.4 270.4 56.9 C 270.4 56.9 270.7 56.9 270.7 56.9 C 271.6 57.8 272.4 58.8 273.4 59.8 C 274.3 60.8 275.2 61.8 276.1 62.7 C 277 63.7 277.9 64.6 278.7 65.5 C 279.5 66.4 280.3 67.1 280.9 67.7 C 280.9 67.7 280.9 65 280.9 65 C 280.9 63.6 280.9 62.3 280.8 60.9 C 280.8 59.6 280.8 58.4 280.7 57.2 C 281 57.3 281.2 57.3 281.4 57.3 C 281.5 57.3 281.8 57.3 282 57.2 C 282 57.5 282 57.9 281.9 58.5 C 281.9 59.1 281.9 59.7 281.8 60.4 C 281.8 61.1 281.8 61.7 281.7 62.3 C 281.7 63 281.7 63.5 281.7 63.9 C 281.7 64.2 281.7 64.6 281.7 65.1 C 281.7 65.5 281.7 66 281.7 66.5 C 281.7 67 281.7 67.5 281.7 68 C 281.7 68.5 281.7 69 281.8 69.4 C 281.8 69.8 281.8 70.2 281.8 70.5 C 281.8 70.8 281.8 71 281.8 71.2 C 281.76 71.19 281.5 71.2 281.5 71.2 C 281.5 71.2 281.48 71.19 281.5 71.2 Z M 298.2 59.6 C 298 59.4 297.8 59.1 297.5 58.9 C 297.2 58.7 296.9 58.5 296.5 58.3 C 296.1 58.1 295.7 58 295.3 57.8 C 294.8 57.7 294.4 57.7 293.8 57.7 C 293 57.7 292.2 57.8 291.5 58 C 290.8 58.3 290.2 58.7 289.7 59.2 C 289.1 59.7 288.7 60.4 288.4 61.2 C 288.1 62 288 63 288 64.1 C 288 65.1 288.1 65.9 288.4 66.7 C 288.7 67.5 289 68.2 289.6 68.7 C 290.1 69.3 290.7 69.7 291.4 70 C 292.2 70.3 293 70.4 293.9 70.4 C 294.2 70.4 294.5 70.4 294.8 70.4 C 295.1 70.3 295.4 70.3 295.7 70.2 C 296 70.2 296.3 70.1 296.5 70 C 296.8 70 297 69.9 297.1 69.8 C 297.2 69.4 297.2 69 297.2 68.6 C 297.2 68.2 297.2 67.8 297.2 67.3 C 297.2 66.9 297.2 66.4 297.2 65.9 C 297.1 65.5 297.1 65 297.1 64.6 C 297.4 64.7 297.7 64.7 298 64.7 C 298.2 64.7 298.3 64.7 298.5 64.7 C 298.6 64.7 298.8 64.6 298.9 64.6 C 298.9 64.9 298.9 65.4 298.8 66.1 C 298.8 66.7 298.8 67.6 298.8 68.7 C 298.8 68.9 298.8 69.2 298.8 69.5 C 298.8 69.8 298.8 70 298.8 70.3 C 298.6 70.4 298.2 70.5 297.8 70.6 C 297.4 70.7 296.9 70.8 296.5 70.9 C 296 71 295.5 71 295 71.1 C 294.6 71.2 294.1 71.2 293.7 71.2 C 292.6 71.2 291.5 71 290.5 70.8 C 289.6 70.5 288.8 70 288.1 69.4 C 287.4 68.8 286.9 68.1 286.6 67.2 C 286.2 66.3 286 65.3 286 64.1 C 286 63 286.2 61.9 286.6 61.1 C 287 60.2 287.5 59.4 288.2 58.8 C 288.8 58.2 289.7 57.7 290.6 57.4 C 291.6 57.1 292.7 56.9 293.8 56.9 C 294.5 56.9 295.1 57 295.7 57 C 296.2 57.1 296.6 57.2 297.1 57.3 C 297.5 57.4 297.8 57.6 298.1 57.7 C 298.4 57.8 298.7 58 298.9 58.1 C 298.8 58.3 298.7 58.5 298.7 58.8 C 298.6 59.1 298.5 59.4 298.5 59.6 C 298.48 59.63 298.2 59.6 298.2 59.6 C 298.2 59.6 298.24 59.63 298.2 59.6 Z " stroke="none" fill="#535a5d"/>  </g></svg>