<?xml version="1.0" standalone="no"?><!DOCTYPE svg PUBLIC "-//W3C//DTD SVG 1.1//EN" "http://www.w3.org/Graphics/SVG/1.1/DTD/svg11.dtd"><svg xmlns="http://www.w3.org/2000/svg" version="1.1" width="150px" height="23.8px" viewBox="0 -4 150 23.8" style="top:-4px">  <desc>Dowdy A3000120</desc>  <defs/>  <g id="Polygon41015">    <path d="M 62.5 15 L 62.1 14 L 60 14 L 59.6 15 L 58.9 15 L 60.8 10.1 L 61.4 10.1 L 63.3 15 L 62.5 15 Z M 60.2 13.4 L 61.9 13.4 L 61.1 11.1 L 61.1 11.1 L 60.2 13.4 Z M 64.8 12.3 C 65.1 12.3 65.3 12.3 65.5 12.2 C 65.8 12.1 66.1 11.9 66.1 11.5 C 66.1 11.1 65.8 10.9 65.3 10.9 C 65 10.9 64.7 11 64.6 11.4 C 64.6 11.4 64 11.1 64 11.1 C 64.2 10.6 64.7 10.3 65.3 10.3 C 66.2 10.3 66.8 10.8 66.8 11.5 C 66.8 11.9 66.5 12.3 66.2 12.5 C 66.7 12.7 67 13.1 67 13.6 C 67 14.6 66.3 15.1 65.4 15.1 C 64.9 15.1 64.3 14.8 64 14.3 C 64 14.3 64.5 14 64.5 14 C 64.7 14.4 65 14.5 65.4 14.5 C 65.9 14.5 66.3 14.2 66.3 13.7 C 66.3 13.2 65.9 12.9 65.3 12.9 C 65.2 12.9 65 12.9 64.8 13 C 64.8 13 64.8 12.3 64.8 12.3 Z M 71.4 12.7 C 71.4 14.2 70.8 15.1 69.7 15.1 C 68.7 15.1 68.1 14.2 68.1 12.7 C 68.1 11.2 68.7 10.3 69.7 10.3 C 70.8 10.3 71.4 11.2 71.4 12.7 Z M 68.7 12.7 C 68.7 13.9 69.1 14.5 69.7 14.5 C 70.3 14.5 70.7 13.9 70.7 12.7 C 70.7 11.5 70.3 10.9 69.7 10.9 C 69.1 10.9 68.7 11.5 68.7 12.7 Z M 75.7 12.7 C 75.7 14.2 75.1 15.1 74 15.1 C 73 15.1 72.4 14.2 72.4 12.7 C 72.4 11.2 73 10.3 74 10.3 C 75.1 10.3 75.7 11.2 75.7 12.7 Z M 73.1 12.7 C 73.1 13.9 73.4 14.5 74 14.5 C 74.6 14.5 75 13.9 75 12.7 C 75 11.5 74.6 10.9 74 10.9 C 73.4 10.9 73.1 11.5 73.1 12.7 Z M 80 12.7 C 80 14.2 79.4 15.1 78.3 15.1 C 77.3 15.1 76.7 14.2 76.7 12.7 C 76.7 11.2 77.3 10.3 78.3 10.3 C 79.4 10.3 80 11.2 80 12.7 Z M 77.4 12.7 C 77.4 13.9 77.7 14.5 78.3 14.5 C 78.9 14.5 79.3 13.9 79.3 12.7 C 79.3 11.5 78.9 10.9 78.3 10.9 C 77.7 10.9 77.4 11.5 77.4 12.7 Z M 81.7 15 C 81.7 15 81.69 11.15 81.7 11.1 C 81.5 11.3 81.2 11.4 81 11.5 C 81 11.5 81 10.8 81 10.8 C 81.3 10.7 81.6 10.5 81.9 10.4 C 81.92 10.35 82.3 10.4 82.3 10.4 L 82.3 15 L 81.7 15 Z M 83.8 15 C 83.8 15 83.77 14.41 83.8 14.4 C 84.3 13.8 85 13.1 85.4 12.5 C 85.6 12.2 85.8 11.8 85.8 11.5 C 85.8 11.1 85.4 10.9 85.1 10.9 C 84.7 10.9 84.3 11.1 84.3 11.6 C 84.3 11.6 83.7 11.4 83.7 11.4 C 83.7 10.7 84.4 10.3 85.1 10.3 C 85.8 10.3 86.5 10.8 86.5 11.5 C 86.5 11.9 86.3 12.4 86 12.8 C 85.6 13.3 85.1 13.9 84.6 14.4 C 84.65 14.41 86.7 14.4 86.7 14.4 L 86.7 15 L 83.8 15 Z M 90.9 12.7 C 90.9 14.2 90.3 15.1 89.3 15.1 C 88.2 15.1 87.6 14.2 87.6 12.7 C 87.6 11.2 88.2 10.3 89.3 10.3 C 90.3 10.3 90.9 11.2 90.9 12.7 Z M 88.3 12.7 C 88.3 13.9 88.7 14.5 89.3 14.5 C 89.9 14.5 90.2 13.9 90.2 12.7 C 90.2 11.5 89.9 10.9 89.3 10.9 C 88.7 10.9 88.3 11.5 88.3 12.7 Z " stroke="none" fill="#535a5d"/>  </g>  <g id="Polygon41014">    <path d="M 61 0.4 C 61 0.4 62.62 0.4 62.6 0.4 C 64.1 0.4 65.7 1.2 65.7 3.2 C 65.7 5.2 64.1 6 62.5 6 C 62.54 6 61 6 61 6 L 61 0.4 Z M 62 5.2 C 62 5.2 62.22 5.15 62.2 5.2 C 63.6 5.2 64.6 4.7 64.6 3.2 C 64.6 1.9 63.8 1.2 62.5 1.2 C 62.49 1.25 62 1.2 62 1.2 L 62 5.2 Z M 69.8 1.2 C 68.8 1.2 68 2.1 68 3.2 C 68 4.3 68.8 5.2 69.8 5.2 C 70.9 5.2 71.7 4.3 71.7 3.2 C 71.7 2.1 70.9 1.2 69.8 1.2 Z M 69.8 6.1 C 68.2 6.1 66.9 4.8 66.9 3.2 C 66.9 1.6 68.2 0.3 69.8 0.3 C 71.5 0.3 72.7 1.6 72.7 3.2 C 72.7 4.8 71.5 6.1 69.8 6.1 Z M 78.8 4.2 L 78.8 4.2 L 79.9 0.4 L 81 0.4 L 79.4 6 L 78.4 6 L 77.3 2.1 L 77.3 2.1 L 76.2 6 L 75.2 6 L 73.7 0.4 L 74.8 0.4 L 75.8 4.2 L 75.8 4.2 L 76.9 0.4 L 77.8 0.4 L 78.8 4.2 Z M 82.2 0.4 C 82.2 0.4 83.76 0.4 83.8 0.4 C 85.2 0.4 86.8 1.2 86.8 3.2 C 86.8 5.2 85.2 6 83.7 6 C 83.68 6 82.2 6 82.2 6 L 82.2 0.4 Z M 83.2 5.2 C 83.2 5.2 83.35 5.15 83.4 5.2 C 84.8 5.2 85.8 4.7 85.8 3.2 C 85.8 1.9 85 1.2 83.6 1.2 C 83.62 1.25 83.2 1.2 83.2 1.2 L 83.2 5.2 Z M 89.2 6 L 89.2 3.6 L 87.4 0.4 L 88.6 0.4 L 89.7 2.6 L 89.7 2.6 L 90.8 0.4 L 92 0.4 L 90.2 3.7 L 90.2 6 L 89.2 6 Z " stroke="none" fill="#535a5d"/>  </g></svg>