<?xml version="1.0" standalone="no"?><!DOCTYPE svg PUBLIC "-//W3C//DTD SVG 1.1//EN" "http://www.w3.org/Graphics/SVG/1.1/DTD/svg11.dtd"><svg xmlns="http://www.w3.org/2000/svg" version="1.1" width="150px" height="23.8px" viewBox="0 -4 150 23.8" style="top:-4px">  <desc>Fayme A3000278</desc>  <defs/>  <g id="Polygon39009">    <path d="M 62.1 15 L 61.7 14 L 59.6 14 L 59.2 15 L 58.5 15 L 60.4 10.1 L 61 10.1 L 62.9 15 L 62.1 15 Z M 59.8 13.4 L 61.5 13.4 L 60.7 11.1 L 60.6 11.1 L 59.8 13.4 Z M 64.4 12.3 C 64.7 12.3 64.9 12.3 65.1 12.2 C 65.4 12.1 65.7 11.9 65.7 11.5 C 65.7 11.1 65.4 10.9 64.9 10.9 C 64.6 10.9 64.2 11 64.1 11.4 C 64.1 11.4 63.6 11.1 63.6 11.1 C 63.8 10.6 64.3 10.3 64.9 10.3 C 65.8 10.3 66.3 10.8 66.3 11.5 C 66.3 11.9 66.1 12.3 65.8 12.5 C 66.2 12.7 66.6 13.1 66.6 13.6 C 66.6 14.6 65.9 15.1 65 15.1 C 64.4 15.1 63.8 14.8 63.6 14.3 C 63.6 14.3 64.1 14 64.1 14 C 64.3 14.4 64.6 14.5 65 14.5 C 65.5 14.5 65.9 14.2 65.9 13.7 C 65.9 13.2 65.5 12.9 64.9 12.9 C 64.8 12.9 64.6 12.9 64.4 13 C 64.4 13 64.4 12.3 64.4 12.3 Z M 70.9 12.7 C 70.9 14.2 70.3 15.1 69.3 15.1 C 68.2 15.1 67.7 14.2 67.7 12.7 C 67.7 11.2 68.2 10.3 69.3 10.3 C 70.3 10.3 70.9 11.2 70.9 12.7 Z M 68.3 12.7 C 68.3 13.9 68.7 14.5 69.3 14.5 C 69.9 14.5 70.3 13.9 70.3 12.7 C 70.3 11.5 69.9 10.9 69.3 10.9 C 68.7 10.9 68.3 11.5 68.3 12.7 Z M 75.2 12.7 C 75.2 14.2 74.7 15.1 73.6 15.1 C 72.6 15.1 72 14.2 72 12.7 C 72 11.2 72.6 10.3 73.6 10.3 C 74.7 10.3 75.2 11.2 75.2 12.7 Z M 72.6 12.7 C 72.6 13.9 73 14.5 73.6 14.5 C 74.2 14.5 74.6 13.9 74.6 12.7 C 74.6 11.5 74.2 10.9 73.6 10.9 C 73 10.9 72.6 11.5 72.6 12.7 Z M 79.6 12.7 C 79.6 14.2 79 15.1 77.9 15.1 C 76.9 15.1 76.3 14.2 76.3 12.7 C 76.3 11.2 76.9 10.3 77.9 10.3 C 79 10.3 79.6 11.2 79.6 12.7 Z M 76.9 12.7 C 76.9 13.9 77.3 14.5 77.9 14.5 C 78.5 14.5 78.9 13.9 78.9 12.7 C 78.9 11.5 78.5 10.9 77.9 10.9 C 77.3 10.9 76.9 11.5 76.9 12.7 Z M 80.6 15 C 80.6 15 80.59 14.41 80.6 14.4 C 81.1 13.8 81.8 13.1 82.2 12.5 C 82.4 12.2 82.7 11.8 82.7 11.5 C 82.7 11.1 82.3 10.9 81.9 10.9 C 81.5 10.9 81.2 11.1 81.2 11.6 C 81.2 11.6 80.5 11.4 80.5 11.4 C 80.6 10.7 81.3 10.3 81.9 10.3 C 82.6 10.3 83.3 10.8 83.3 11.5 C 83.3 11.9 83.1 12.4 82.8 12.8 C 82.4 13.3 82 13.9 81.5 14.4 C 81.47 14.41 83.5 14.4 83.5 14.4 L 83.5 15 L 80.6 15 Z M 87.2 10.8 C 86.6 12 85.8 13.9 85.3 15.2 C 85.3 15.2 84.6 14.9 84.6 14.9 C 85.3 13.4 86.1 11.8 86.5 11 C 86.46 10.95 84.2 11 84.2 11 L 84.2 10.4 L 87.2 10.4 C 87.2 10.4 87.19 10.83 87.2 10.8 Z M 88.1 13.7 C 88.1 13.2 88.4 12.8 88.8 12.6 C 88.4 12.3 88.2 12 88.2 11.5 C 88.2 10.8 88.8 10.3 89.6 10.3 C 90.5 10.3 91.1 10.8 91.1 11.5 C 91.1 12 90.9 12.3 90.5 12.6 C 90.9 12.8 91.2 13.2 91.2 13.7 C 91.2 14.5 90.6 15.1 89.6 15.1 C 88.7 15.1 88.1 14.5 88.1 13.7 Z M 88.7 13.7 C 88.7 14.2 89.2 14.5 89.6 14.5 C 90.1 14.5 90.6 14.2 90.6 13.7 C 90.6 13.2 90.1 12.9 89.6 12.9 C 89.2 12.9 88.7 13.2 88.7 13.7 Z M 88.9 11.6 C 88.9 12 89.2 12.3 89.6 12.3 C 90.1 12.3 90.4 12 90.4 11.6 C 90.4 11.1 90.1 10.9 89.6 10.9 C 89.2 10.9 88.9 11.1 88.9 11.6 Z " stroke="none" fill="#535a5d"/>  </g>  <g id="Polygon39008">    <path d="M 63 3.7 L 63 6 L 62 6 L 62 0.4 L 65 0.4 L 65 1.2 L 63 1.2 L 63 2.8 L 65 2.8 L 65 3.7 L 63 3.7 Z M 67.8 0.4 L 68.6 0.4 L 70.8 6 L 69.6 6 L 69.2 4.9 L 67.1 4.9 L 66.7 6 L 65.6 6 L 67.8 0.4 Z M 67.4 4.1 L 68.9 4.1 L 68.2 1.9 L 68.2 1.9 L 67.4 4.1 Z M 72.8 6 L 72.8 3.6 L 71 0.4 L 72.2 0.4 L 73.3 2.6 L 73.3 2.6 L 74.4 0.4 L 75.6 0.4 L 73.7 3.7 L 73.7 6 L 72.8 6 Z M 80.2 6 L 79.5 6 L 77.8 1.6 L 77.8 6 L 76.8 6 L 76.8 0.4 L 78.3 0.4 L 79.9 4.5 L 81.5 0.4 L 83 0.4 L 83 6 L 82 6 L 82 1.6 L 80.2 6 Z M 84.7 6 L 84.7 0.4 L 88.2 0.4 L 88.2 1.2 L 85.7 1.2 L 85.7 2.7 L 88.2 2.7 L 88.2 3.5 L 85.7 3.5 L 85.7 5.2 L 88.2 5.2 L 88.2 6 L 84.7 6 Z " stroke="none" fill="#535a5d"/>  </g></svg>