<?xml version="1.0" standalone="no"?><!DOCTYPE svg PUBLIC "-//W3C//DTD SVG 1.1//EN" "http://www.w3.org/Graphics/SVG/1.1/DTD/svg11.dtd"><svg xmlns="http://www.w3.org/2000/svg" version="1.1" width="123.5px" height="65.3px" viewBox="0 -1 123.5 65.3" style="top:-1px">  <desc>Make big statements in small spaces</desc>  <defs/>  <g id="Polygon40090">    <path d="M 4.1 47.6 C 3.2 47.6 2.6 48 2.6 48.7 C 2.6 49.5 3.4 49.8 4.3 50.1 C 5.6 50.5 7.1 51.1 7.1 52.9 C 7.1 54.9 5.3 55.7 3.9 55.7 C 2.5 55.7 1.5 55.3 0.6 54.3 C 0.6 54.3 1.5 53.4 1.5 53.4 C 2.4 54.2 3 54.5 3.9 54.5 C 4.8 54.5 5.7 54.1 5.7 53 C 5.7 52.1 4.7 51.7 3.7 51.4 C 2.5 50.9 1.2 50.3 1.2 48.8 C 1.2 47.1 2.5 46.3 4 46.3 C 5.1 46.3 6 46.6 6.8 47.3 C 6.8 47.3 6 48.3 6 48.3 C 5.5 47.9 4.8 47.6 4.1 47.6 Z M 15 55.6 L 14 55.6 L 11 48.1 L 11 55.6 L 9.6 55.6 L 9.6 46.5 L 11.8 46.5 L 14.5 53.4 L 17.2 46.5 L 19.4 46.5 L 19.4 55.6 L 18 55.6 L 18 48.1 L 15 55.6 Z M 27.4 53.7 L 23.6 53.7 L 23 55.6 L 21.4 55.6 L 25 46.5 L 26.2 46.5 L 29.7 55.6 L 28.1 55.6 L 27.4 53.7 Z M 24.1 52.5 L 26.9 52.5 L 25.5 48.6 L 25.5 48.6 L 24.1 52.5 Z M 31.8 55.6 L 31.8 46.5 L 33.1 46.5 L 33.1 54.4 L 37 54.4 L 37 55.6 L 31.8 55.6 Z M 38.9 55.6 L 38.9 46.5 L 40.3 46.5 L 40.3 54.4 L 44.2 54.4 L 44.2 55.6 L 38.9 55.6 Z M 52.9 47.6 C 52.1 47.6 51.4 48 51.4 48.7 C 51.4 49.5 52.3 49.8 53.2 50.1 C 54.5 50.5 56 51.1 56 52.9 C 56 54.9 54.2 55.7 52.8 55.7 C 51.4 55.7 50.4 55.3 49.4 54.3 C 49.4 54.3 50.4 53.4 50.4 53.4 C 51.2 54.2 51.8 54.5 52.8 54.5 C 53.7 54.5 54.5 54.1 54.5 53 C 54.5 52.1 53.6 51.7 52.6 51.4 C 51.3 50.9 50 50.3 50 48.8 C 50 47.1 51.3 46.3 52.8 46.3 C 53.9 46.3 54.8 46.6 55.7 47.3 C 55.7 47.3 54.8 48.3 54.8 48.3 C 54.4 47.9 53.7 47.6 52.9 47.6 Z M 61.2 46.5 C 62.7 46.5 64.5 47.2 64.5 49.2 C 64.5 51.2 62.7 52 61.2 52 C 61.23 51.98 59.9 52 59.9 52 L 59.9 55.6 L 58.5 55.6 L 58.5 46.5 C 58.5 46.5 61.23 46.47 61.2 46.5 Z M 59.9 50.8 C 59.9 50.8 60.92 50.76 60.9 50.8 C 62.1 50.8 63 50.4 63 49.3 C 63 48.3 62.3 47.7 61.2 47.7 C 61.16 47.69 59.9 47.7 59.9 47.7 L 59.9 50.8 Z M 71.1 53.7 L 67.3 53.7 L 66.7 55.6 L 65.1 55.6 L 68.7 46.5 L 69.9 46.5 L 73.3 55.6 L 71.7 55.6 L 71.1 53.7 Z M 67.8 52.5 L 70.6 52.5 L 69.2 48.6 L 69.2 48.6 L 67.8 52.5 Z M 79.6 54.5 C 80.3 54.5 80.9 54.3 81.5 53.8 C 81.5 53.8 82.3 54.8 82.3 54.8 C 81.5 55.4 80.5 55.7 79.5 55.7 C 76.8 55.7 74.7 53.9 74.7 51 C 74.7 48.3 76.9 46.3 79.6 46.3 C 80.5 46.3 81.3 46.6 82.1 47.1 C 82.1 47.1 81.4 48.1 81.4 48.1 C 80.9 47.8 80.2 47.6 79.6 47.6 C 77.6 47.6 76.2 49 76.2 51 C 76.2 53.1 77.5 54.5 79.6 54.5 Z M 84.5 55.6 L 84.5 46.5 L 90.1 46.5 L 90.1 47.7 L 85.9 47.7 L 85.9 50.3 L 90.1 50.3 L 90.1 51.5 L 85.9 51.5 L 85.9 54.4 L 90.1 54.4 L 90.1 55.6 L 84.5 55.6 Z M 95.6 47.6 C 94.7 47.6 94.1 48 94.1 48.7 C 94.1 49.5 94.9 49.8 95.9 50.1 C 97.2 50.5 98.7 51.1 98.7 52.9 C 98.7 54.9 96.9 55.7 95.4 55.7 C 94.1 55.7 93.1 55.3 92.1 54.3 C 92.1 54.3 93.1 53.4 93.1 53.4 C 93.9 54.2 94.5 54.5 95.4 54.5 C 96.3 54.5 97.2 54.1 97.2 53 C 97.2 52.1 96.3 51.7 95.2 51.4 C 94 50.9 92.7 50.3 92.7 48.8 C 92.7 47.1 94 46.3 95.5 46.3 C 96.6 46.3 97.5 46.6 98.4 47.3 C 98.4 47.3 97.5 48.3 97.5 48.3 C 97.1 47.9 96.3 47.6 95.6 47.6 Z " stroke="none" fill="#fff"/>  </g>  <g id="Polygon40089">    <path d="M 4.1 33.6 C 3.2 33.6 2.6 34 2.6 34.7 C 2.6 35.5 3.4 35.8 4.3 36.1 C 5.6 36.5 7.1 37.1 7.1 38.9 C 7.1 40.9 5.3 41.7 3.9 41.7 C 2.5 41.7 1.5 41.3 0.6 40.3 C 0.6 40.3 1.5 39.4 1.5 39.4 C 2.4 40.2 3 40.5 3.9 40.5 C 4.8 40.5 5.7 40.1 5.7 39 C 5.7 38.1 4.7 37.7 3.7 37.4 C 2.5 36.9 1.2 36.3 1.2 34.8 C 1.2 33.1 2.5 32.3 4 32.3 C 5.1 32.3 6 32.6 6.8 33.3 C 6.8 33.3 6 34.3 6 34.3 C 5.5 33.9 4.8 33.6 4.1 33.6 Z M 12.4 33.7 L 12.4 41.6 L 11.1 41.6 L 11.1 33.7 L 8.8 33.7 L 8.8 32.5 L 14.7 32.5 L 14.7 33.7 L 12.4 33.7 Z M 21.2 39.7 L 17.4 39.7 L 16.8 41.6 L 15.2 41.6 L 18.8 32.5 L 20 32.5 L 23.5 41.6 L 21.9 41.6 L 21.2 39.7 Z M 17.9 38.5 L 20.7 38.5 L 19.3 34.6 L 19.3 34.6 L 17.9 38.5 Z M 27.7 33.7 L 27.7 41.6 L 26.3 41.6 L 26.3 33.7 L 24 33.7 L 24 32.5 L 29.9 32.5 L 29.9 33.7 L 27.7 33.7 Z M 32 41.6 L 32 32.5 L 37.5 32.5 L 37.5 33.7 L 33.4 33.7 L 33.4 36.3 L 37.5 36.3 L 37.5 37.5 L 33.4 37.5 L 33.4 40.4 L 37.5 40.4 L 37.5 41.6 L 32 41.6 Z M 45.5 41.6 L 44.5 41.6 L 41.6 34.1 L 41.6 41.6 L 40.2 41.6 L 40.2 32.5 L 42.3 32.5 L 45 39.4 L 47.8 32.5 L 49.9 32.5 L 49.9 41.6 L 48.5 41.6 L 48.5 34.1 L 45.5 41.6 Z M 52.9 41.6 L 52.9 32.5 L 58.5 32.5 L 58.5 33.7 L 54.3 33.7 L 54.3 36.3 L 58.5 36.3 L 58.5 37.5 L 54.3 37.5 L 54.3 40.4 L 58.5 40.4 L 58.5 41.6 L 52.9 41.6 Z M 67.3 41.6 L 62.5 35 L 62.5 41.6 L 61.1 41.6 L 61.1 32.5 L 62.3 32.5 L 67.1 39 L 67.1 32.5 L 68.5 32.5 L 68.5 41.6 L 67.3 41.6 Z M 74.2 33.7 L 74.2 41.6 L 72.9 41.6 L 72.9 33.7 L 70.6 33.7 L 70.6 32.5 L 76.5 32.5 L 76.5 33.7 L 74.2 33.7 Z M 81.3 33.6 C 80.4 33.6 79.8 34 79.8 34.7 C 79.8 35.5 80.7 35.8 81.6 36.1 C 82.9 36.5 84.4 37.1 84.4 38.9 C 84.4 40.9 82.6 41.7 81.1 41.7 C 79.8 41.7 78.8 41.3 77.8 40.3 C 77.8 40.3 78.8 39.4 78.8 39.4 C 79.6 40.2 80.2 40.5 81.2 40.5 C 82 40.5 82.9 40.1 82.9 39 C 82.9 38.1 82 37.7 81 37.4 C 79.7 36.9 78.4 36.3 78.4 34.8 C 78.4 33.1 79.7 32.3 81.2 32.3 C 82.3 32.3 83.2 32.6 84.1 33.3 C 84.1 33.3 83.2 34.3 83.2 34.3 C 82.8 33.9 82 33.6 81.3 33.6 Z M 90.9 41.6 L 90.9 32.5 L 92.3 32.5 L 92.3 41.6 L 90.9 41.6 Z M 101.5 41.6 L 96.7 35 L 96.7 41.6 L 95.3 41.6 L 95.3 32.5 L 96.5 32.5 L 101.3 39 L 101.3 32.5 L 102.7 32.5 L 102.7 41.6 L 101.5 41.6 Z " stroke="none" fill="#fff"/>  </g>  <g id="Polygon40088">    <path d="M 6.5 27.6 L 5.5 27.6 L 2.6 20.1 L 2.6 27.6 L 1.2 27.6 L 1.2 18.5 L 3.3 18.5 L 6 25.4 L 8.8 18.5 L 10.9 18.5 L 10.9 27.6 L 9.5 27.6 L 9.5 20.1 L 6.5 27.6 Z M 18.9 25.7 L 15.2 25.7 L 14.5 27.6 L 13 27.6 L 16.6 18.5 L 17.8 18.5 L 21.2 27.6 L 19.6 27.6 L 18.9 25.7 Z M 15.7 24.5 L 18.5 24.5 L 17.1 20.6 L 17.1 20.6 L 15.7 24.5 Z M 27 22.1 L 30.2 27.6 L 28.6 27.6 L 26.1 23.2 L 24.7 24.8 L 24.7 27.6 L 23.3 27.6 L 23.3 18.5 L 24.7 18.5 L 24.7 22.9 L 28.4 18.5 L 30.1 18.5 L 27 22.1 Z M 32.1 27.6 L 32.1 18.5 L 37.7 18.5 L 37.7 19.7 L 33.5 19.7 L 33.5 22.3 L 37.7 22.3 L 37.7 23.5 L 33.5 23.5 L 33.5 26.4 L 37.7 26.4 L 37.7 27.6 L 32.1 27.6 Z M 44.2 18.5 C 44.2 18.5 46.42 18.47 46.4 18.5 C 47.3 18.5 48.2 18.6 48.9 19 C 49.5 19.5 49.8 20.2 49.8 21 C 49.8 21.8 49.5 22.4 48.5 22.8 C 49.6 23.2 50.2 23.9 50.2 25 C 50.2 26 49.6 26.8 48.7 27.2 C 48 27.5 47.1 27.6 46.3 27.6 C 46.3 27.57 44.2 27.6 44.2 27.6 L 44.2 18.5 Z M 45.6 26.4 C 45.6 26.4 46.21 26.37 46.2 26.4 C 46.9 26.4 47.6 26.3 48 26.1 C 48.5 25.9 48.7 25.6 48.7 25 C 48.7 24.1 48.1 23.5 46.9 23.5 C 46.94 23.52 45.6 23.5 45.6 23.5 L 45.6 26.4 Z M 45.6 22.3 C 45.6 22.3 46.4 22.31 46.4 22.3 C 47.7 22.3 48.5 21.9 48.5 21 C 48.5 20.5 48.3 20.2 48 20 C 47.5 19.7 46.9 19.7 46.2 19.7 C 46.16 19.68 45.6 19.7 45.6 19.7 L 45.6 22.3 Z M 52.9 27.6 L 52.9 18.5 L 54.2 18.5 L 54.2 27.6 L 52.9 27.6 Z M 61.8 23.7 L 61.8 22.5 L 65.5 22.5 C 65.5 22.5 65.49 25.96 65.5 26 C 64.6 27.1 63.2 27.7 61.7 27.7 C 58.9 27.7 56.8 25.8 56.8 23 C 56.8 20.3 59 18.3 61.7 18.3 C 63.1 18.3 64.4 18.9 65.3 20 C 65.3 20 64.3 20.8 64.3 20.8 C 63.7 20.1 62.8 19.6 61.7 19.6 C 59.7 19.6 58.3 21 58.3 23 C 58.3 25.1 59.7 26.5 61.7 26.5 C 62.6 26.5 63.5 26.2 64.1 25.6 C 64.1 25.56 64.1 23.7 64.1 23.7 L 61.8 23.7 Z " stroke="none" fill="#fff"/>  </g></svg>