<?xml version="1.0" standalone="no"?><!DOCTYPE svg PUBLIC "-//W3C//DTD SVG 1.1//EN" "http://www.w3.org/Graphics/SVG/1.1/DTD/svg11.dtd"><svg xmlns="http://www.w3.org/2000/svg" version="1.1" width="150px" height="23.8px" viewBox="0 -4 150 23.8" style="top:-4px">  <desc>Sidewinder A3000031</desc>  <defs/>  <g id="Polygon42049">    <path d="M 62.4 15 L 62.1 14 L 60 14 L 59.6 15 L 58.9 15 L 60.8 10.1 L 61.3 10.1 L 63.2 15 L 62.4 15 Z M 60.2 13.4 L 61.8 13.4 L 61 11.1 L 61 11.1 L 60.2 13.4 Z M 64.8 12.3 C 65 12.3 65.2 12.3 65.4 12.2 C 65.8 12.1 66 11.9 66 11.5 C 66 11.1 65.7 10.9 65.3 10.9 C 64.9 10.9 64.6 11 64.5 11.4 C 64.5 11.4 63.9 11.1 63.9 11.1 C 64.1 10.6 64.6 10.3 65.3 10.3 C 66.1 10.3 66.7 10.8 66.7 11.5 C 66.7 11.9 66.5 12.3 66.1 12.5 C 66.6 12.7 66.9 13.1 66.9 13.6 C 66.9 14.6 66.2 15.1 65.4 15.1 C 64.8 15.1 64.2 14.8 63.9 14.3 C 63.9 14.3 64.4 14 64.4 14 C 64.6 14.4 65 14.5 65.3 14.5 C 65.8 14.5 66.3 14.2 66.3 13.7 C 66.3 13.2 65.8 12.9 65.3 12.9 C 65.1 12.9 65 12.9 64.8 13 C 64.8 13 64.8 12.3 64.8 12.3 Z M 71.3 12.7 C 71.3 14.2 70.7 15.1 69.7 15.1 C 68.6 15.1 68 14.2 68 12.7 C 68 11.2 68.6 10.3 69.7 10.3 C 70.7 10.3 71.3 11.2 71.3 12.7 Z M 68.7 12.7 C 68.7 13.9 69 14.5 69.7 14.5 C 70.3 14.5 70.6 13.9 70.6 12.7 C 70.6 11.5 70.3 10.9 69.7 10.9 C 69 10.9 68.7 11.5 68.7 12.7 Z M 75.6 12.7 C 75.6 14.2 75 15.1 74 15.1 C 72.9 15.1 72.3 14.2 72.3 12.7 C 72.3 11.2 72.9 10.3 74 10.3 C 75 10.3 75.6 11.2 75.6 12.7 Z M 73 12.7 C 73 13.9 73.4 14.5 74 14.5 C 74.6 14.5 74.9 13.9 74.9 12.7 C 74.9 11.5 74.6 10.9 74 10.9 C 73.4 10.9 73 11.5 73 12.7 Z M 79.9 12.7 C 79.9 14.2 79.3 15.1 78.3 15.1 C 77.2 15.1 76.6 14.2 76.6 12.7 C 76.6 11.2 77.2 10.3 78.3 10.3 C 79.3 10.3 79.9 11.2 79.9 12.7 Z M 77.3 12.7 C 77.3 13.9 77.7 14.5 78.3 14.5 C 78.9 14.5 79.2 13.9 79.2 12.7 C 79.2 11.5 78.9 10.9 78.3 10.9 C 77.7 10.9 77.3 11.5 77.3 12.7 Z M 84.2 12.7 C 84.2 14.2 83.6 15.1 82.6 15.1 C 81.5 15.1 80.9 14.2 80.9 12.7 C 80.9 11.2 81.5 10.3 82.6 10.3 C 83.6 10.3 84.2 11.2 84.2 12.7 Z M 81.6 12.7 C 81.6 13.9 82 14.5 82.6 14.5 C 83.2 14.5 83.6 13.9 83.6 12.7 C 83.6 11.5 83.2 10.9 82.6 10.9 C 82 10.9 81.6 11.5 81.6 12.7 Z M 85.9 12.3 C 86.2 12.3 86.4 12.3 86.6 12.2 C 87 12.1 87.2 11.9 87.2 11.5 C 87.2 11.1 86.9 10.9 86.4 10.9 C 86.1 10.9 85.8 11 85.7 11.4 C 85.7 11.4 85.1 11.1 85.1 11.1 C 85.3 10.6 85.8 10.3 86.5 10.3 C 87.3 10.3 87.9 10.8 87.9 11.5 C 87.9 11.9 87.7 12.3 87.3 12.5 C 87.8 12.7 88.1 13.1 88.1 13.6 C 88.1 14.6 87.4 15.1 86.6 15.1 C 86 15.1 85.4 14.8 85.1 14.3 C 85.1 14.3 85.6 14 85.6 14 C 85.8 14.4 86.2 14.5 86.5 14.5 C 87 14.5 87.5 14.2 87.5 13.7 C 87.5 13.2 87 12.9 86.5 12.9 C 86.3 12.9 86.2 12.9 85.9 13 C 85.9 13 85.9 12.3 85.9 12.3 Z M 89.9 15 C 89.9 15 89.92 11.15 89.9 11.1 C 89.7 11.3 89.4 11.4 89.2 11.5 C 89.2 11.5 89.2 10.8 89.2 10.8 C 89.5 10.7 89.8 10.5 90.2 10.4 C 90.15 10.35 90.6 10.4 90.6 10.4 L 90.6 15 L 89.9 15 Z " stroke="none" fill="#535a5d"/>  </g>  <g id="Polygon42048">    <path d="M 51.3 1.2 C 50.8 1.2 50.4 1.4 50.4 1.8 C 50.4 2.3 51 2.4 51.4 2.6 C 52.3 2.9 53.2 3.2 53.2 4.4 C 53.2 5.6 52.1 6.1 51.1 6.1 C 50.3 6.1 49.7 5.8 49.1 5.2 C 49.1 5.2 49.7 4.6 49.7 4.6 C 50.2 5 50.6 5.2 51.2 5.2 C 51.7 5.2 52.1 5 52.1 4.4 C 52.1 3.9 51.6 3.7 51 3.5 C 50.2 3.2 49.5 2.8 49.5 1.9 C 49.5 0.8 50.3 0.3 51.2 0.3 C 51.9 0.3 52.5 0.5 53 0.9 C 53 0.9 52.4 1.6 52.4 1.6 C 52.2 1.4 51.7 1.2 51.3 1.2 Z M 54.6 6 L 54.6 0.4 L 55.6 0.4 L 55.6 6 L 54.6 6 Z M 57.4 0.4 C 57.4 0.4 58.98 0.4 59 0.4 C 60.4 0.4 62 1.2 62 3.2 C 62 5.2 60.4 6 58.9 6 C 58.9 6 57.4 6 57.4 6 L 57.4 0.4 Z M 58.4 5.2 C 58.4 5.2 58.57 5.15 58.6 5.2 C 60 5.2 61 4.7 61 3.2 C 61 1.9 60.2 1.2 58.8 1.2 C 58.84 1.25 58.4 1.2 58.4 1.2 L 58.4 5.2 Z M 63.5 6 L 63.5 0.4 L 67 0.4 L 67 1.2 L 64.5 1.2 L 64.5 2.7 L 67 2.7 L 67 3.5 L 64.5 3.5 L 64.5 5.2 L 67 5.2 L 67 6 L 63.5 6 Z M 73.3 4.2 L 73.3 4.2 L 74.3 0.4 L 75.4 0.4 L 73.8 6 L 72.8 6 L 71.8 2.1 L 71.8 2.1 L 70.6 6 L 69.7 6 L 68.1 0.4 L 69.2 0.4 L 70.2 4.2 L 70.2 4.2 L 71.3 0.4 L 72.2 0.4 L 73.3 4.2 Z M 76.6 6 L 76.6 0.4 L 77.6 0.4 L 77.6 6 L 76.6 6 Z M 83.1 6 L 80.4 2.2 L 80.4 6 L 79.4 6 L 79.4 0.4 L 80.2 0.4 L 83 4.2 L 83 0.4 L 84 0.4 L 84 6 L 83.1 6 Z M 85.8 0.4 C 85.8 0.4 87.36 0.4 87.4 0.4 C 88.8 0.4 90.4 1.2 90.4 3.2 C 90.4 5.2 88.8 6 87.3 6 C 87.28 6 85.8 6 85.8 6 L 85.8 0.4 Z M 86.8 5.2 C 86.8 5.2 86.95 5.15 86.9 5.2 C 88.4 5.2 89.3 4.7 89.3 3.2 C 89.3 1.9 88.6 1.2 87.2 1.2 C 87.22 1.25 86.8 1.2 86.8 1.2 L 86.8 5.2 Z M 91.9 6 L 91.9 0.4 L 95.4 0.4 L 95.4 1.2 L 92.9 1.2 L 92.9 2.7 L 95.4 2.7 L 95.4 3.5 L 92.9 3.5 L 92.9 5.2 L 95.4 5.2 L 95.4 6 L 91.9 6 Z M 98.7 0.4 C 99.6 0.4 100.7 0.9 100.7 2 C 100.7 3 100 3.4 99.4 3.6 C 99.39 3.62 101.1 6 101.1 6 L 99.9 6 L 98.3 3.7 L 97.9 3.7 L 97.9 6 L 96.9 6 L 96.9 0.4 C 96.9 0.4 98.68 0.4 98.7 0.4 Z M 98.5 2.9 C 99.1 2.9 99.6 2.6 99.6 2.1 C 99.6 1.6 99.2 1.2 98.7 1.2 C 98.65 1.25 97.9 1.2 97.9 1.2 L 97.9 2.9 C 97.9 2.9 98.49 2.86 98.5 2.9 Z " stroke="none" fill="#535a5d"/>  </g></svg>