<?xml version="1.0" standalone="no"?><!DOCTYPE svg PUBLIC "-//W3C//DTD SVG 1.1//EN" "http://www.w3.org/Graphics/SVG/1.1/DTD/svg11.dtd"><svg xmlns="http://www.w3.org/2000/svg" version="1.1" width="51px" height="13.8px" viewBox="0 -3 51 13.8" style="top:-3px">  <desc>A8000258</desc>  <defs/>  <g id="Polygon42406">    <path d="M 12.1 5.2 L 11.7 4.2 L 9.7 4.2 L 9.3 5.2 L 8.5 5.2 L 10.4 0.4 L 11 0.4 L 12.9 5.2 L 12.1 5.2 Z M 9.9 3.6 L 11.5 3.6 L 10.7 1.4 L 10.7 1.4 L 9.9 3.6 Z M 13.8 4 C 13.8 3.4 14 3 14.5 2.8 C 14.1 2.6 13.9 2.3 13.9 1.8 C 13.9 1.1 14.5 0.5 15.3 0.5 C 16.2 0.5 16.8 1.1 16.8 1.8 C 16.8 2.3 16.5 2.6 16.2 2.8 C 16.6 3 16.9 3.4 16.9 4 C 16.9 4.7 16.3 5.3 15.3 5.3 C 14.4 5.3 13.8 4.7 13.8 4 Z M 14.4 3.9 C 14.4 4.4 14.8 4.7 15.3 4.7 C 15.8 4.7 16.2 4.4 16.2 3.9 C 16.2 3.5 15.8 3.1 15.3 3.1 C 14.8 3.1 14.4 3.5 14.4 3.9 Z M 14.6 1.8 C 14.6 2.2 14.9 2.5 15.3 2.5 C 15.8 2.5 16.1 2.2 16.1 1.8 C 16.1 1.4 15.8 1.1 15.3 1.1 C 14.9 1.1 14.6 1.4 14.6 1.8 Z M 21.2 2.9 C 21.2 4.4 20.6 5.3 19.6 5.3 C 18.5 5.3 17.9 4.4 17.9 2.9 C 17.9 1.4 18.5 0.5 19.6 0.5 C 20.6 0.5 21.2 1.4 21.2 2.9 Z M 18.6 2.9 C 18.6 4.1 19 4.7 19.6 4.7 C 20.2 4.7 20.5 4.1 20.5 2.9 C 20.5 1.7 20.2 1.1 19.6 1.1 C 19 1.1 18.6 1.7 18.6 2.9 Z M 25.5 2.9 C 25.5 4.4 24.9 5.3 23.9 5.3 C 22.8 5.3 22.2 4.4 22.2 2.9 C 22.2 1.4 22.8 0.5 23.9 0.5 C 24.9 0.5 25.5 1.4 25.5 2.9 Z M 22.9 2.9 C 22.9 4.1 23.3 4.7 23.9 4.7 C 24.5 4.7 24.9 4.1 24.9 2.9 C 24.9 1.7 24.5 1.1 23.9 1.1 C 23.3 1.1 22.9 1.7 22.9 2.9 Z M 29.8 2.9 C 29.8 4.4 29.2 5.3 28.2 5.3 C 27.1 5.3 26.5 4.4 26.5 2.9 C 26.5 1.4 27.1 0.5 28.2 0.5 C 29.2 0.5 29.8 1.4 29.8 2.9 Z M 27.2 2.9 C 27.2 4.1 27.6 4.7 28.2 4.7 C 28.8 4.7 29.2 4.1 29.2 2.9 C 29.2 1.7 28.8 1.1 28.2 1.1 C 27.6 1.1 27.2 1.7 27.2 2.9 Z M 30.9 5.2 C 30.9 5.2 30.87 4.66 30.9 4.7 C 31.4 4.1 32.1 3.4 32.5 2.7 C 32.7 2.5 32.9 2.1 32.9 1.8 C 32.9 1.3 32.5 1.1 32.2 1.1 C 31.8 1.1 31.4 1.4 31.4 1.8 C 31.4 1.8 30.8 1.7 30.8 1.7 C 30.8 1 31.5 0.5 32.2 0.5 C 32.9 0.5 33.6 1 33.6 1.8 C 33.6 2.2 33.4 2.7 33.1 3 C 32.7 3.6 32.2 4.2 31.7 4.7 C 31.75 4.66 33.8 4.7 33.8 4.7 L 33.8 5.2 L 30.9 5.2 Z M 37.5 1.2 C 37.5 1.2 35.69 1.19 35.7 1.2 C 35.7 1.6 35.6 2.1 35.6 2.5 C 35.8 2.4 36.1 2.4 36.3 2.4 C 37.1 2.4 37.7 3 37.7 3.8 C 37.7 4.7 37.1 5.3 36.2 5.3 C 35.6 5.3 34.9 5 34.7 4.6 C 34.7 4.6 35.2 4.3 35.2 4.3 C 35.4 4.6 35.7 4.7 36.1 4.7 C 36.7 4.7 37 4.3 37 3.8 C 37 3.3 36.6 2.9 36.1 2.9 C 35.8 2.9 35.6 3 35.4 3.2 C 35.4 3.2 34.9 3 34.9 3 C 35 2.3 35 1.3 35.1 0.6 C 35.07 0.6 37.5 0.6 37.5 0.6 L 37.5 1.2 Z M 38.7 4 C 38.7 3.4 39 3 39.5 2.8 C 39.1 2.6 38.9 2.3 38.9 1.8 C 38.9 1.1 39.4 0.5 40.3 0.5 C 41.2 0.5 41.7 1.1 41.7 1.8 C 41.7 2.3 41.5 2.6 41.2 2.8 C 41.6 3 41.9 3.4 41.9 4 C 41.9 4.7 41.2 5.3 40.3 5.3 C 39.4 5.3 38.7 4.7 38.7 4 Z M 39.4 3.9 C 39.4 4.4 39.8 4.7 40.3 4.7 C 40.8 4.7 41.2 4.4 41.2 3.9 C 41.2 3.5 40.8 3.1 40.3 3.1 C 39.8 3.1 39.4 3.5 39.4 3.9 Z M 39.5 1.8 C 39.5 2.2 39.9 2.5 40.3 2.5 C 40.7 2.5 41.1 2.2 41.1 1.8 C 41.1 1.4 40.7 1.1 40.3 1.1 C 39.9 1.1 39.5 1.4 39.5 1.8 Z " stroke="none" fill="#535a5d"/>  </g></svg>