<?xml version="1.0" standalone="no"?><!DOCTYPE svg PUBLIC "-//W3C//DTD SVG 1.1//EN" "http://www.w3.org/Graphics/SVG/1.1/DTD/svg11.dtd"><svg xmlns="http://www.w3.org/2000/svg" version="1.1" width="152.3px" height="26.8px" viewBox="0 -4 152.3 26.8" style="top:-4px">  <desc>Brentwell A3000276</desc>  <defs/>  <g id="Polygon39213">    <path d="M 63.3 15 L 63 14 L 60.9 14 L 60.5 15 L 59.8 15 L 61.7 10.1 L 62.2 10.1 L 64.1 15 L 63.3 15 Z M 61.1 13.4 L 62.7 13.4 L 61.9 11.1 L 61.9 11.1 L 61.1 13.4 Z M 65.7 12.3 C 66 12.3 66.1 12.3 66.3 12.2 C 66.7 12.1 66.9 11.9 66.9 11.5 C 66.9 11.1 66.6 10.9 66.2 10.9 C 65.8 10.9 65.5 11 65.4 11.4 C 65.4 11.4 64.8 11.1 64.8 11.1 C 65 10.6 65.5 10.3 66.2 10.3 C 67 10.3 67.6 10.8 67.6 11.5 C 67.6 11.9 67.4 12.3 67 12.5 C 67.5 12.7 67.9 13.1 67.9 13.6 C 67.9 14.6 67.1 15.1 66.3 15.1 C 65.7 15.1 65.1 14.8 64.8 14.3 C 64.8 14.3 65.3 14 65.3 14 C 65.5 14.4 65.9 14.5 66.3 14.5 C 66.7 14.5 67.2 14.2 67.2 13.7 C 67.2 13.2 66.7 12.9 66.2 12.9 C 66 12.9 65.9 12.9 65.7 13 C 65.7 13 65.7 12.3 65.7 12.3 Z M 72.2 12.7 C 72.2 14.2 71.6 15.1 70.6 15.1 C 69.5 15.1 68.9 14.2 68.9 12.7 C 68.9 11.2 69.5 10.3 70.6 10.3 C 71.6 10.3 72.2 11.2 72.2 12.7 Z M 69.6 12.7 C 69.6 13.9 70 14.5 70.6 14.5 C 71.2 14.5 71.5 13.9 71.5 12.7 C 71.5 11.5 71.2 10.9 70.6 10.9 C 70 10.9 69.6 11.5 69.6 12.7 Z M 76.5 12.7 C 76.5 14.2 75.9 15.1 74.9 15.1 C 73.8 15.1 73.2 14.2 73.2 12.7 C 73.2 11.2 73.8 10.3 74.9 10.3 C 75.9 10.3 76.5 11.2 76.5 12.7 Z M 73.9 12.7 C 73.9 13.9 74.3 14.5 74.9 14.5 C 75.5 14.5 75.8 13.9 75.8 12.7 C 75.8 11.5 75.5 10.9 74.9 10.9 C 74.3 10.9 73.9 11.5 73.9 12.7 Z M 80.8 12.7 C 80.8 14.2 80.2 15.1 79.2 15.1 C 78.1 15.1 77.5 14.2 77.5 12.7 C 77.5 11.2 78.1 10.3 79.2 10.3 C 80.2 10.3 80.8 11.2 80.8 12.7 Z M 78.2 12.7 C 78.2 13.9 78.6 14.5 79.2 14.5 C 79.8 14.5 80.2 13.9 80.2 12.7 C 80.2 11.5 79.8 10.9 79.2 10.9 C 78.6 10.9 78.2 11.5 78.2 12.7 Z M 81.9 15 C 81.9 15 81.86 14.41 81.9 14.4 C 82.4 13.8 83.1 13.1 83.5 12.5 C 83.7 12.2 83.9 11.8 83.9 11.5 C 83.9 11.1 83.5 10.9 83.2 10.9 C 82.8 10.9 82.4 11.1 82.4 11.6 C 82.4 11.6 81.8 11.4 81.8 11.4 C 81.8 10.7 82.5 10.3 83.2 10.3 C 83.9 10.3 84.6 10.8 84.6 11.5 C 84.6 11.9 84.4 12.4 84.1 12.8 C 83.7 13.3 83.2 13.9 82.7 14.4 C 82.74 14.41 84.8 14.4 84.8 14.4 L 84.8 15 L 81.9 15 Z M 88.5 10.8 C 87.9 12 87 13.9 86.5 15.2 C 86.5 15.2 85.9 14.9 85.9 14.9 C 86.5 13.4 87.4 11.8 87.7 11 C 87.73 10.95 85.5 11 85.5 11 L 85.5 10.4 L 88.5 10.4 C 88.5 10.4 88.46 10.83 88.5 10.8 Z M 91.7 10.7 C 90.9 11.1 90.2 11.6 89.9 12.5 C 90.2 12.2 90.6 12.1 91 12.1 C 91.8 12.1 92.3 12.7 92.3 13.6 C 92.3 14.4 91.7 15.1 90.9 15.1 C 89.8 15.1 89.2 14.2 89.2 13.2 C 89.2 11.7 90.2 10.6 91.5 10.1 C 91.5 10.1 91.7 10.7 91.7 10.7 Z M 89.8 13.2 C 89.8 13.9 90.1 14.5 90.8 14.5 C 91.3 14.5 91.7 14.1 91.7 13.5 C 91.7 13 91.4 12.6 90.8 12.6 C 90.4 12.6 90 12.9 89.8 13.2 Z " stroke="none" fill="#535a5d"/>  </g>  <g id="Polygon39212">    <path d="M 52.7 0.4 C 52.7 0.4 54.09 0.4 54.1 0.4 C 54.6 0.4 55.2 0.5 55.6 0.8 C 56 1 56.2 1.5 56.2 2 C 56.2 2.4 56 2.8 55.5 3.1 C 56.1 3.3 56.5 3.7 56.5 4.4 C 56.5 5 56.1 5.5 55.5 5.8 C 55.1 6 54.5 6 54 6 C 54.01 6 52.7 6 52.7 6 L 52.7 0.4 Z M 53.7 5.2 C 53.7 5.2 54 5.15 54 5.2 C 54.4 5.2 54.8 5.1 55 5 C 55.3 4.9 55.4 4.7 55.4 4.4 C 55.4 3.9 55.1 3.5 54.4 3.5 C 54.41 3.54 53.7 3.5 53.7 3.5 L 53.7 5.2 Z M 53.7 2.7 C 53.7 2.7 54.07 2.74 54.1 2.7 C 54.8 2.7 55.2 2.5 55.2 2 C 55.2 1.7 55.1 1.5 55 1.4 C 54.7 1.3 54.4 1.2 54 1.2 C 53.95 1.25 53.7 1.2 53.7 1.2 L 53.7 2.7 Z M 59.7 0.4 C 60.6 0.4 61.7 0.9 61.7 2 C 61.7 3 61.1 3.4 60.4 3.6 C 60.44 3.62 62.2 6 62.2 6 L 60.9 6 L 59.3 3.7 L 59 3.7 L 59 6 L 58 6 L 58 0.4 C 58 0.4 59.73 0.4 59.7 0.4 Z M 59.5 2.9 C 60.2 2.9 60.7 2.6 60.7 2.1 C 60.7 1.6 60.3 1.2 59.7 1.2 C 59.7 1.25 59 1.2 59 1.2 L 59 2.9 C 59 2.9 59.54 2.86 59.5 2.9 Z M 63.4 6 L 63.4 0.4 L 66.9 0.4 L 66.9 1.2 L 64.4 1.2 L 64.4 2.7 L 66.9 2.7 L 66.9 3.5 L 64.4 3.5 L 64.4 5.2 L 66.9 5.2 L 66.9 6 L 63.4 6 Z M 72.2 6 L 69.4 2.2 L 69.4 6 L 68.4 6 L 68.4 0.4 L 69.3 0.4 L 72.1 4.2 L 72.1 0.4 L 73.1 0.4 L 73.1 6 L 72.2 6 Z M 76.6 1.2 L 76.6 6 L 75.6 6 L 75.6 1.2 L 74.3 1.2 L 74.3 0.4 L 78 0.4 L 78 1.2 L 76.6 1.2 Z M 84.1 4.2 L 84.1 4.2 L 85.1 0.4 L 86.2 0.4 L 84.6 6 L 83.6 6 L 82.6 2.1 L 82.6 2.1 L 81.4 6 L 80.5 6 L 78.9 0.4 L 80 0.4 L 81 4.2 L 81 4.2 L 82.1 0.4 L 83 0.4 L 84.1 4.2 Z M 87.4 6 L 87.4 0.4 L 90.9 0.4 L 90.9 1.2 L 88.4 1.2 L 88.4 2.7 L 90.9 2.7 L 90.9 3.5 L 88.4 3.5 L 88.4 5.2 L 90.9 5.2 L 90.9 6 L 87.4 6 Z M 92.5 6 L 92.5 0.4 L 93.4 0.4 L 93.4 5.2 L 95.8 5.2 L 95.8 6 L 92.5 6 Z M 96.9 6 L 96.9 0.4 L 97.9 0.4 L 97.9 5.2 L 100.3 5.2 L 100.3 6 L 96.9 6 Z " stroke="none" fill="#535a5d"/>  </g></svg>