<?xml version="1.0" standalone="no"?><!DOCTYPE svg PUBLIC "-//W3C//DTD SVG 1.1//EN" "http://www.w3.org/Graphics/SVG/1.1/DTD/svg11.dtd"><svg xmlns="http://www.w3.org/2000/svg" version="1.1" width="51px" height="13.8px" viewBox="0 -3 51 13.8" style="top:-3px">  <desc>R404312</desc>  <defs/>  <g id="Polygon43110">    <path d="M 14.9 5.2 L 13.4 3.2 L 12.9 3.2 L 12.9 5.2 L 12.3 5.2 L 12.3 0.4 C 12.3 0.4 13.72 0.35 13.7 0.4 C 14.5 0.4 15.4 0.7 15.4 1.8 C 15.4 2.6 14.8 3 14.2 3.1 C 14.2 3.14 15.8 5.2 15.8 5.2 L 14.9 5.2 Z M 13.7 1 C 13.69 0.95 12.9 1 12.9 1 L 12.9 2.6 C 12.9 2.6 13.55 2.58 13.5 2.6 C 14.2 2.6 14.7 2.3 14.7 1.8 C 14.7 1.3 14.3 1 13.7 1 Z M 18.5 5.2 L 18.5 4.1 L 16.4 4.1 C 16.4 4.1 16.42 3.37 16.4 3.4 C 17 2.6 17.9 1.5 18.5 0.6 C 18.49 0.6 19.2 0.6 19.2 0.6 L 19.2 3.5 L 19.9 3.5 L 19.9 4.1 L 19.2 4.1 L 19.2 5.2 L 18.5 5.2 Z M 18.5 3.5 C 18.5 3.5 18.52 1.53 18.5 1.5 C 18.1 2.2 17.5 3 17.1 3.5 C 17.12 3.49 18.5 3.5 18.5 3.5 Z M 24 2.9 C 24 4.4 23.4 5.3 22.4 5.3 C 21.3 5.3 20.7 4.4 20.7 2.9 C 20.7 1.4 21.3 0.5 22.4 0.5 C 23.4 0.5 24 1.4 24 2.9 Z M 21.4 2.9 C 21.4 4.1 21.7 4.7 22.4 4.7 C 23 4.7 23.3 4.1 23.3 2.9 C 23.3 1.7 23 1.1 22.4 1.1 C 21.7 1.1 21.4 1.7 21.4 2.9 Z M 27 5.2 L 27 4.1 L 24.9 4.1 C 24.9 4.1 24.88 3.37 24.9 3.4 C 25.5 2.6 26.3 1.5 26.9 0.6 C 26.95 0.6 27.6 0.6 27.6 0.6 L 27.6 3.5 L 28.3 3.5 L 28.3 4.1 L 27.6 4.1 L 27.6 5.2 L 27 5.2 Z M 27 3.5 C 27 3.5 26.98 1.53 27 1.5 C 26.5 2.2 25.9 3 25.6 3.5 C 25.58 3.49 27 3.5 27 3.5 Z M 29.9 2.5 C 30.2 2.5 30.4 2.5 30.6 2.5 C 30.9 2.4 31.2 2.1 31.2 1.8 C 31.2 1.4 30.9 1.1 30.4 1.1 C 30.1 1.1 29.8 1.3 29.6 1.6 C 29.6 1.6 29.1 1.4 29.1 1.4 C 29.3 0.9 29.8 0.5 30.4 0.5 C 31.3 0.5 31.9 1 31.9 1.8 C 31.9 2.2 31.6 2.6 31.3 2.8 C 31.7 2.9 32.1 3.4 32.1 3.9 C 32.1 4.8 31.4 5.3 30.5 5.3 C 30 5.3 29.3 5.1 29.1 4.6 C 29.1 4.6 29.6 4.3 29.6 4.3 C 29.8 4.6 30.1 4.7 30.5 4.7 C 31 4.7 31.4 4.5 31.4 4 C 31.4 3.5 31 3.2 30.4 3.2 C 30.3 3.2 30.1 3.2 29.9 3.2 C 29.9 3.2 29.9 2.5 29.9 2.5 Z M 33.9 5.2 C 33.9 5.2 33.88 1.4 33.9 1.4 C 33.7 1.5 33.4 1.6 33.2 1.7 C 33.2 1.7 33.2 1.1 33.2 1.1 C 33.5 1 33.8 0.8 34.1 0.6 C 34.11 0.6 34.5 0.6 34.5 0.6 L 34.5 5.2 L 33.9 5.2 Z M 36 5.2 C 36 5.2 35.96 4.66 36 4.7 C 36.5 4.1 37.2 3.4 37.6 2.7 C 37.8 2.5 38 2.1 38 1.8 C 38 1.3 37.6 1.1 37.3 1.1 C 36.9 1.1 36.5 1.4 36.5 1.8 C 36.5 1.8 35.9 1.7 35.9 1.7 C 35.9 1 36.6 0.5 37.3 0.5 C 38 0.5 38.7 1 38.7 1.8 C 38.7 2.2 38.5 2.7 38.2 3 C 37.8 3.6 37.3 4.2 36.8 4.7 C 36.84 4.66 38.9 4.7 38.9 4.7 L 38.9 5.2 L 36 5.2 Z " stroke="none" fill="#535a5d"/>  </g></svg>