<?xml version="1.0" standalone="no"?><!DOCTYPE svg PUBLIC "-//W3C//DTD SVG 1.1//EN" "http://www.w3.org/Graphics/SVG/1.1/DTD/svg11.dtd"><svg xmlns="http://www.w3.org/2000/svg" version="1.1" width="108px" height="23.8px" viewBox="0 -4 108 23.8" style="top:-4px">  <desc>Kelanie A3000209</desc>  <defs/>  <g id="Polygon41325">    <path d="M 40.7 15 L 40.3 14 L 38.2 14 L 37.8 15 L 37.1 15 L 39 10.1 L 39.6 10.1 L 41.5 15 L 40.7 15 Z M 38.4 13.4 L 40.1 13.4 L 39.3 11.1 L 39.3 11.1 L 38.4 13.4 Z M 43 12.3 C 43.3 12.3 43.5 12.3 43.7 12.2 C 44 12.1 44.3 11.9 44.3 11.5 C 44.3 11.1 44 10.9 43.5 10.9 C 43.2 10.9 42.9 11 42.7 11.4 C 42.7 11.4 42.2 11.1 42.2 11.1 C 42.4 10.6 42.9 10.3 43.5 10.3 C 44.4 10.3 44.9 10.8 44.9 11.5 C 44.9 11.9 44.7 12.3 44.4 12.5 C 44.8 12.7 45.2 13.1 45.2 13.6 C 45.2 14.6 44.5 15.1 43.6 15.1 C 43.1 15.1 42.4 14.8 42.2 14.3 C 42.2 14.3 42.7 14 42.7 14 C 42.9 14.4 43.2 14.5 43.6 14.5 C 44.1 14.5 44.5 14.2 44.5 13.7 C 44.5 13.2 44.1 12.9 43.5 12.9 C 43.4 12.9 43.2 12.9 43 13 C 43 13 43 12.3 43 12.3 Z M 49.5 12.7 C 49.5 14.2 49 15.1 47.9 15.1 C 46.9 15.1 46.3 14.2 46.3 12.7 C 46.3 11.2 46.9 10.3 47.9 10.3 C 49 10.3 49.5 11.2 49.5 12.7 Z M 46.9 12.7 C 46.9 13.9 47.3 14.5 47.9 14.5 C 48.5 14.5 48.9 13.9 48.9 12.7 C 48.9 11.5 48.5 10.9 47.9 10.9 C 47.3 10.9 46.9 11.5 46.9 12.7 Z M 53.9 12.7 C 53.9 14.2 53.3 15.1 52.2 15.1 C 51.2 15.1 50.6 14.2 50.6 12.7 C 50.6 11.2 51.2 10.3 52.2 10.3 C 53.3 10.3 53.9 11.2 53.9 12.7 Z M 51.2 12.7 C 51.2 13.9 51.6 14.5 52.2 14.5 C 52.8 14.5 53.2 13.9 53.2 12.7 C 53.2 11.5 52.8 10.9 52.2 10.9 C 51.6 10.9 51.2 11.5 51.2 12.7 Z M 58.2 12.7 C 58.2 14.2 57.6 15.1 56.5 15.1 C 55.5 15.1 54.9 14.2 54.9 12.7 C 54.9 11.2 55.5 10.3 56.5 10.3 C 57.6 10.3 58.2 11.2 58.2 12.7 Z M 55.5 12.7 C 55.5 13.9 55.9 14.5 56.5 14.5 C 57.1 14.5 57.5 13.9 57.5 12.7 C 57.5 11.5 57.1 10.9 56.5 10.9 C 55.9 10.9 55.5 11.5 55.5 12.7 Z M 59.2 15 C 59.2 15 59.2 14.41 59.2 14.4 C 59.7 13.8 60.4 13.1 60.8 12.5 C 61 12.2 61.3 11.8 61.3 11.5 C 61.3 11.1 60.9 10.9 60.5 10.9 C 60.1 10.9 59.8 11.1 59.8 11.6 C 59.8 11.6 59.1 11.4 59.1 11.4 C 59.2 10.7 59.9 10.3 60.5 10.3 C 61.3 10.3 61.9 10.8 61.9 11.5 C 61.9 11.9 61.7 12.4 61.4 12.8 C 61 13.3 60.6 13.9 60.1 14.4 C 60.08 14.41 62.1 14.4 62.1 14.4 L 62.1 15 L 59.2 15 Z M 66.3 12.7 C 66.3 14.2 65.7 15.1 64.7 15.1 C 63.6 15.1 63.1 14.2 63.1 12.7 C 63.1 11.2 63.6 10.3 64.7 10.3 C 65.7 10.3 66.3 11.2 66.3 12.7 Z M 63.7 12.7 C 63.7 13.9 64.1 14.5 64.7 14.5 C 65.3 14.5 65.7 13.9 65.7 12.7 C 65.7 11.5 65.3 10.9 64.7 10.9 C 64.1 10.9 63.7 11.5 63.7 12.7 Z M 67.9 14.7 C 68.8 14.3 69.5 13.8 69.7 12.9 C 69.5 13.1 69.1 13.3 68.7 13.3 C 67.9 13.3 67.3 12.6 67.3 11.8 C 67.3 10.9 67.9 10.3 68.8 10.3 C 69.9 10.3 70.5 11.1 70.5 12.1 C 70.5 13.6 69.5 14.7 68.2 15.3 C 68.2 15.3 67.9 14.7 67.9 14.7 Z M 69.8 12.1 C 69.8 11.5 69.6 10.9 68.9 10.9 C 68.3 10.9 68 11.3 68 11.8 C 68 12.3 68.3 12.7 68.8 12.7 C 69.2 12.7 69.6 12.5 69.8 12.1 Z " stroke="none" fill="#535a5d"/>  </g>  <g id="Polygon41324">    <path d="M 39.5 2.6 L 41.5 6 L 40.3 6 L 38.9 3.4 L 38.1 4.3 L 38.1 6 L 37.2 6 L 37.2 0.4 L 38.1 0.4 L 38.1 2.9 L 40.2 0.4 L 41.4 0.4 L 39.5 2.6 Z M 42.6 6 L 42.6 0.4 L 46.1 0.4 L 46.1 1.2 L 43.6 1.2 L 43.6 2.7 L 46.1 2.7 L 46.1 3.5 L 43.6 3.5 L 43.6 5.2 L 46.1 5.2 L 46.1 6 L 42.6 6 Z M 47.7 6 L 47.7 0.4 L 48.6 0.4 L 48.6 5.2 L 51 5.2 L 51 6 L 47.7 6 Z M 54 0.4 L 54.8 0.4 L 57 6 L 55.8 6 L 55.4 4.9 L 53.3 4.9 L 52.9 6 L 51.8 6 L 54 0.4 Z M 53.6 4.1 L 55.1 4.1 L 54.4 1.9 L 54.4 1.9 L 53.6 4.1 Z M 61.9 6 L 59.2 2.2 L 59.2 6 L 58.2 6 L 58.2 0.4 L 59 0.4 L 61.8 4.2 L 61.8 0.4 L 62.8 0.4 L 62.8 6 L 61.9 6 Z M 64.6 6 L 64.6 0.4 L 65.6 0.4 L 65.6 6 L 64.6 6 Z M 67.3 6 L 67.3 0.4 L 70.8 0.4 L 70.8 1.2 L 68.3 1.2 L 68.3 2.7 L 70.8 2.7 L 70.8 3.5 L 68.3 3.5 L 68.3 5.2 L 70.8 5.2 L 70.8 6 L 67.3 6 Z " stroke="none" fill="#535a5d"/>  </g></svg>