<?xml version="1.0" standalone="no"?><!DOCTYPE svg PUBLIC "-//W3C//DTD SVG 1.1//EN" "http://www.w3.org/Graphics/SVG/1.1/DTD/svg11.dtd"><svg xmlns="http://www.w3.org/2000/svg" version="1.1" width="150px" height="23.8px" viewBox="0 -4 150 23.8" style="top:-4px">  <desc>WinLer A3000114</desc>  <defs/>  <g id="Polygon41117">    <path d="M 63.1 15 L 62.8 14 L 60.7 14 L 60.3 15 L 59.6 15 L 61.5 10.1 L 62.1 10.1 L 63.9 15 L 63.1 15 Z M 60.9 13.4 L 62.5 13.4 L 61.7 11.1 L 61.7 11.1 L 60.9 13.4 Z M 65.5 12.3 C 65.8 12.3 65.9 12.3 66.1 12.2 C 66.5 12.1 66.7 11.9 66.7 11.5 C 66.7 11.1 66.4 10.9 66 10.9 C 65.6 10.9 65.3 11 65.2 11.4 C 65.2 11.4 64.6 11.1 64.6 11.1 C 64.8 10.6 65.3 10.3 66 10.3 C 66.8 10.3 67.4 10.8 67.4 11.5 C 67.4 11.9 67.2 12.3 66.8 12.5 C 67.3 12.7 67.7 13.1 67.7 13.6 C 67.7 14.6 67 15.1 66.1 15.1 C 65.5 15.1 64.9 14.8 64.6 14.3 C 64.6 14.3 65.1 14 65.1 14 C 65.3 14.4 65.7 14.5 66.1 14.5 C 66.5 14.5 67 14.2 67 13.7 C 67 13.2 66.5 12.9 66 12.9 C 65.8 12.9 65.7 12.9 65.5 13 C 65.5 13 65.5 12.3 65.5 12.3 Z M 72 12.7 C 72 14.2 71.4 15.1 70.4 15.1 C 69.3 15.1 68.7 14.2 68.7 12.7 C 68.7 11.2 69.3 10.3 70.4 10.3 C 71.4 10.3 72 11.2 72 12.7 Z M 69.4 12.7 C 69.4 13.9 69.8 14.5 70.4 14.5 C 71 14.5 71.3 13.9 71.3 12.7 C 71.3 11.5 71 10.9 70.4 10.9 C 69.8 10.9 69.4 11.5 69.4 12.7 Z M 76.3 12.7 C 76.3 14.2 75.7 15.1 74.7 15.1 C 73.6 15.1 73 14.2 73 12.7 C 73 11.2 73.6 10.3 74.7 10.3 C 75.7 10.3 76.3 11.2 76.3 12.7 Z M 73.7 12.7 C 73.7 13.9 74.1 14.5 74.7 14.5 C 75.3 14.5 75.7 13.9 75.7 12.7 C 75.7 11.5 75.3 10.9 74.7 10.9 C 74.1 10.9 73.7 11.5 73.7 12.7 Z M 80.6 12.7 C 80.6 14.2 80 15.1 79 15.1 C 77.9 15.1 77.3 14.2 77.3 12.7 C 77.3 11.2 77.9 10.3 79 10.3 C 80 10.3 80.6 11.2 80.6 12.7 Z M 78 12.7 C 78 13.9 78.4 14.5 79 14.5 C 79.6 14.5 80 13.9 80 12.7 C 80 11.5 79.6 10.9 79 10.9 C 78.4 10.9 78 11.5 78 12.7 Z M 82.3 15 C 82.3 15 82.34 11.15 82.3 11.1 C 82.1 11.3 81.8 11.4 81.6 11.5 C 81.6 11.5 81.6 10.8 81.6 10.8 C 81.9 10.7 82.3 10.5 82.6 10.4 C 82.57 10.35 83 10.4 83 10.4 L 83 15 L 82.3 15 Z M 85.1 15 C 85.1 15 85.1 11.15 85.1 11.1 C 84.9 11.3 84.6 11.4 84.4 11.5 C 84.4 11.5 84.4 10.8 84.4 10.8 C 84.7 10.7 85 10.5 85.3 10.4 C 85.33 10.35 85.8 10.4 85.8 10.4 L 85.8 15 L 85.1 15 Z M 89.1 15 L 89.1 13.8 L 87 13.8 C 87 13.8 86.96 13.12 87 13.1 C 87.5 12.4 88.4 11.2 89 10.4 C 89.02 10.35 89.7 10.4 89.7 10.4 L 89.7 13.2 L 90.4 13.2 L 90.4 13.8 L 89.7 13.8 L 89.7 15 L 89.1 15 Z M 89.1 13.2 C 89.1 13.2 89.06 11.28 89.1 11.3 C 88.6 11.9 88 12.8 87.7 13.2 C 87.66 13.24 89.1 13.2 89.1 13.2 Z " stroke="none" fill="#535a5d"/>  </g>  <g id="Polygon41116">    <path d="M 64.4 4.2 L 64.4 4.2 L 65.5 0.4 L 66.6 0.4 L 65 6 L 64 6 L 62.9 2.1 L 62.9 2.1 L 61.8 6 L 60.8 6 L 59.3 0.4 L 60.4 0.4 L 61.4 4.2 L 61.4 4.2 L 62.5 0.4 L 63.4 0.4 L 64.4 4.2 Z M 67.8 6 L 67.8 0.4 L 68.8 0.4 L 68.8 6 L 67.8 6 Z M 74.3 6 L 71.5 2.2 L 71.5 6 L 70.5 6 L 70.5 0.4 L 71.4 0.4 L 74.2 4.2 L 74.2 0.4 L 75.2 0.4 L 75.2 6 L 74.3 6 Z M 76.9 6 L 76.9 0.4 L 77.9 0.4 L 77.9 5.2 L 80.3 5.2 L 80.3 6 L 76.9 6 Z M 81.4 6 L 81.4 0.4 L 84.9 0.4 L 84.9 1.2 L 82.4 1.2 L 82.4 2.7 L 84.9 2.7 L 84.9 3.5 L 82.4 3.5 L 82.4 5.2 L 84.9 5.2 L 84.9 6 L 81.4 6 Z M 88.2 0.4 C 89 0.4 90.1 0.9 90.1 2 C 90.1 3 89.5 3.4 88.9 3.6 C 88.87 3.62 90.6 6 90.6 6 L 89.4 6 L 87.8 3.7 L 87.4 3.7 L 87.4 6 L 86.4 6 L 86.4 0.4 C 86.4 0.4 88.16 0.4 88.2 0.4 Z M 88 2.9 C 88.6 2.9 89.1 2.6 89.1 2.1 C 89.1 1.6 88.7 1.2 88.1 1.2 C 88.13 1.25 87.4 1.2 87.4 1.2 L 87.4 2.9 C 87.4 2.9 87.97 2.86 88 2.9 Z " stroke="none" fill="#535a5d"/>  </g></svg>