<?xml version="1.0" standalone="no"?><!DOCTYPE svg PUBLIC "-//W3C//DTD SVG 1.1//EN" "http://www.w3.org/Graphics/SVG/1.1/DTD/svg11.dtd"><svg xmlns="http://www.w3.org/2000/svg" version="1.1" width="108px" height="83.4px" viewBox="0 -1 108 83.4" style="top:-1px">  <desc>Refine the look</desc>  <defs/>  <g id="Polygon42356">    <path d="M 2 62 C 2 61.1 1.9 60.3 1.9 59.4 C 1.9 58.6 1.8 57.7 1.8 56.8 C 2 56.9 2.1 56.9 2.3 56.9 C 2.5 56.9 2.6 56.9 2.8 56.9 C 2.9 56.9 3.1 56.9 3.3 56.9 C 3.4 56.9 3.6 56.9 3.8 56.8 C 3.7 57.7 3.7 58.6 3.6 59.4 C 3.6 60.3 3.6 61.1 3.6 62 C 3.6 63.7 3.6 65.2 3.6 66.4 C 3.6 67.6 3.6 68.7 3.7 69.7 C 4.6 69.7 5.5 69.7 6.4 69.7 C 7.2 69.7 8.2 69.6 9.2 69.4 C 9.1 69.7 9.1 69.9 9.1 70 C 9.1 70.2 9.1 70.4 9.2 70.6 C 8.6 70.6 8 70.5 7.3 70.5 C 6.7 70.5 6.1 70.5 5.5 70.5 C 4.9 70.5 4.2 70.5 3.6 70.5 C 3.1 70.5 2.4 70.6 1.8 70.6 C 1.8 69.8 1.9 68.9 1.9 68.1 C 1.9 67.2 2 66.3 2 65.5 C 1.96 65.47 2 62 2 62 C 2 62 1.96 62.03 2 62 Z M 11.8 63.7 C 11.8 62.6 12 61.6 12.4 60.7 C 12.8 59.8 13.3 59.1 13.9 58.5 C 14.6 57.9 15.4 57.4 16.3 57.1 C 17.2 56.7 18.2 56.6 19.3 56.6 C 20.4 56.6 21.4 56.7 22.4 57.1 C 23.3 57.4 24.1 57.9 24.7 58.5 C 25.4 59.1 25.9 59.8 26.3 60.7 C 26.6 61.6 26.8 62.6 26.8 63.7 C 26.8 64.9 26.6 65.9 26.3 66.8 C 25.9 67.7 25.4 68.4 24.7 69 C 24.1 69.6 23.3 70.1 22.4 70.4 C 21.4 70.7 20.4 70.8 19.3 70.8 C 18.2 70.8 17.2 70.7 16.3 70.4 C 15.4 70.1 14.6 69.6 13.9 69 C 13.3 68.4 12.8 67.7 12.4 66.8 C 12 65.9 11.8 64.9 11.8 63.7 Z M 24.9 63.7 C 24.9 62.6 24.7 61.7 24.4 60.9 C 24.2 60.1 23.8 59.4 23.3 58.9 C 22.8 58.3 22.2 58 21.5 57.7 C 20.8 57.5 20.1 57.3 19.3 57.3 C 18.5 57.3 17.8 57.5 17.1 57.7 C 16.5 58 15.9 58.3 15.4 58.9 C 14.9 59.4 14.5 60.1 14.2 60.9 C 13.9 61.7 13.8 62.6 13.8 63.7 C 13.8 64.9 13.9 65.8 14.2 66.6 C 14.5 67.4 14.9 68.1 15.4 68.6 C 15.9 69.1 16.5 69.5 17.1 69.8 C 17.8 70 18.5 70.2 19.3 70.2 C 20.1 70.2 20.8 70 21.5 69.8 C 22.2 69.5 22.8 69.1 23.3 68.6 C 23.8 68.1 24.2 67.4 24.4 66.6 C 24.7 65.8 24.9 64.9 24.9 63.7 Z M 29.5 63.7 C 29.5 62.6 29.7 61.6 30 60.7 C 30.4 59.8 30.9 59.1 31.6 58.5 C 32.2 57.9 33 57.4 34 57.1 C 34.9 56.7 35.9 56.6 37 56.6 C 38.1 56.6 39.1 56.7 40 57.1 C 40.9 57.4 41.7 57.9 42.4 58.5 C 43 59.1 43.6 59.8 43.9 60.7 C 44.3 61.6 44.5 62.6 44.5 63.7 C 44.5 64.9 44.3 65.9 43.9 66.8 C 43.6 67.7 43 68.4 42.4 69 C 41.7 69.6 40.9 70.1 40 70.4 C 39.1 70.7 38.1 70.8 37 70.8 C 35.9 70.8 34.9 70.7 34 70.4 C 33 70.1 32.2 69.6 31.6 69 C 30.9 68.4 30.4 67.7 30 66.8 C 29.7 65.9 29.5 64.9 29.5 63.7 Z M 42.5 63.7 C 42.5 62.6 42.4 61.7 42.1 60.9 C 41.8 60.1 41.4 59.4 40.9 58.9 C 40.4 58.3 39.8 58 39.2 57.7 C 38.5 57.5 37.8 57.3 37 57.3 C 36.2 57.3 35.5 57.5 34.8 57.7 C 34.1 58 33.5 58.3 33 58.9 C 32.5 59.4 32.2 60.1 31.9 60.9 C 31.6 61.7 31.5 62.6 31.5 63.7 C 31.5 64.9 31.6 65.8 31.9 66.6 C 32.2 67.4 32.5 68.1 33 68.6 C 33.5 69.1 34.1 69.5 34.8 69.8 C 35.5 70 36.2 70.2 37 70.2 C 37.8 70.2 38.5 70 39.2 69.8 C 39.8 69.5 40.4 69.1 40.9 68.6 C 41.4 68.1 41.8 67.4 42.1 66.6 C 42.4 65.8 42.5 64.9 42.5 63.7 Z M 49.1 70.5 C 48.8 70.5 48.4 70.6 48.1 70.6 C 48.2 69.8 48.2 68.9 48.2 68.1 C 48.3 67.2 48.3 66.3 48.3 65.5 C 48.3 65.5 48.3 62 48.3 62 C 48.3 61.1 48.3 60.3 48.2 59.4 C 48.2 58.6 48.2 57.7 48.1 56.8 C 48.3 56.9 48.5 56.9 48.6 56.9 C 48.8 56.9 48.9 56.9 49.1 56.9 C 49.3 56.9 49.4 56.9 49.6 56.9 C 49.7 56.9 49.9 56.9 50.1 56.8 C 50 57.7 50 58.6 50 59.4 C 49.9 60.3 49.9 61.1 49.9 62 C 49.9 62 49.9 63.1 49.9 63.1 C 49.9 63.2 50 63.3 50 63.3 C 50.1 63.3 50.2 63.2 50.3 63.1 C 50.8 62.7 51.3 62.3 51.8 61.7 C 52.3 61.2 52.8 60.7 53.3 60.2 C 53.9 59.6 54.4 59.1 54.9 58.5 C 55.4 57.9 55.9 57.4 56.3 56.8 C 56.5 56.9 56.6 56.9 56.8 56.9 C 56.9 56.9 57 56.9 57.2 56.9 C 57.3 56.9 57.5 56.9 57.6 56.9 C 57.8 56.9 58 56.9 58.1 56.8 C 57.7 57.2 57.1 57.7 56.5 58.3 C 56 58.8 55.4 59.4 54.8 59.9 C 54.2 60.5 53.6 61.1 53.1 61.6 C 52.5 62.2 52.1 62.7 51.7 63.1 C 52.8 64.3 53.9 65.5 55 66.8 C 56.1 68.1 57.2 69.3 58.3 70.6 C 58.1 70.6 57.9 70.5 57.7 70.5 C 57.5 70.5 57.3 70.5 57.1 70.5 C 57 70.5 56.8 70.5 56.6 70.5 C 56.4 70.5 56.2 70.6 56 70.6 C 55.6 70 55 69.4 54.4 68.7 C 53.9 68 53.3 67.3 52.7 66.7 C 52.2 66 51.7 65.4 51.2 64.9 C 50.8 64.3 50.5 64 50.3 63.8 C 50.2 63.7 50.1 63.6 50 63.6 C 50 63.6 49.9 63.6 49.9 63.7 C 49.9 63.7 49.9 65.5 49.9 65.5 C 49.9 66.3 49.9 67.2 50 68.1 C 50 68.9 50 69.8 50.1 70.6 C 49.8 70.6 49.4 70.5 49.1 70.5 C 49.1 70.5 49.1 70.5 49.1 70.5 Z " stroke="none" fill="#fff"/>  </g>  <g id="Polygon42355">    <path d="M 4.7 41 C 4.7 39.6 4.7 38.3 4.7 36.9 C 4.3 36.9 4 36.9 3.6 36.9 C 3.2 36.9 2.8 36.9 2.5 36.9 C 2.1 37 1.7 37 1.4 37 C 1 37 0.7 37.1 0.4 37.1 C 0.5 36.9 0.5 36.7 0.5 36.5 C 0.5 36.3 0.5 36.1 0.4 35.8 C 1.3 35.9 2.1 35.9 3 35.9 C 3.8 35.9 4.7 35.9 5.6 35.9 C 6.4 35.9 7.3 35.9 8.1 35.9 C 9 35.9 9.8 35.9 10.7 35.8 C 10.7 36.1 10.6 36.3 10.6 36.5 C 10.6 36.7 10.7 36.9 10.7 37.1 C 10.4 37.1 10.1 37 9.8 37 C 9.4 37 9.1 37 8.7 36.9 C 8.3 36.9 7.9 36.9 7.5 36.9 C 7.1 36.9 6.8 36.9 6.4 36.9 C 6.4 38.3 6.4 39.6 6.4 41 C 6.4 41 6.4 44.5 6.4 44.5 C 6.4 45.3 6.4 46.2 6.4 47.1 C 6.5 47.9 6.5 48.8 6.5 49.6 C 6.2 49.6 5.9 49.5 5.6 49.5 C 5.2 49.5 4.9 49.6 4.6 49.6 C 4.6 48.8 4.7 47.9 4.7 47.1 C 4.7 46.2 4.7 45.3 4.7 44.5 C 4.74 44.47 4.7 41 4.7 41 C 4.7 41 4.74 41.03 4.7 41 Z M 24.1 41 C 24.1 40.1 24.1 39.3 24 38.4 C 24 37.6 24 36.7 23.9 35.8 C 24.1 35.9 24.3 35.9 24.4 35.9 C 24.6 35.9 24.7 35.9 24.9 35.9 C 25.1 35.9 25.2 35.9 25.4 35.9 C 25.5 35.9 25.7 35.9 25.9 35.8 C 25.8 36.7 25.8 37.6 25.8 38.4 C 25.7 39.3 25.7 40.1 25.7 41 C 25.7 41 25.7 44.5 25.7 44.5 C 25.7 45.3 25.7 46.2 25.8 47.1 C 25.8 47.9 25.8 48.8 25.9 49.6 C 25.6 49.6 25.2 49.5 24.9 49.5 C 24.6 49.5 24.2 49.6 23.9 49.6 C 24 48.8 24 47.9 24 47.1 C 24.1 46.2 24.1 45.3 24.1 44.5 C 24.1 44.5 24.1 42.7 24.1 42.7 C 23.4 42.7 22.7 42.6 22 42.6 C 21.3 42.6 20.6 42.6 19.9 42.6 C 19.2 42.6 18.5 42.6 17.8 42.6 C 17.1 42.6 16.4 42.7 15.7 42.7 C 15.7 42.7 15.7 44.5 15.7 44.5 C 15.7 45.3 15.7 46.2 15.8 47.1 C 15.8 47.9 15.8 48.8 15.9 49.6 C 15.6 49.6 15.2 49.5 14.9 49.5 C 14.6 49.5 14.2 49.6 13.9 49.6 C 14 48.8 14 47.9 14 47.1 C 14.1 46.2 14.1 45.3 14.1 44.5 C 14.1 44.5 14.1 41 14.1 41 C 14.1 40.1 14.1 39.3 14 38.4 C 14 37.6 14 36.7 13.9 35.8 C 14.1 35.9 14.3 35.9 14.4 35.9 C 14.6 35.9 14.7 35.9 14.9 35.9 C 15.1 35.9 15.2 35.9 15.4 35.9 C 15.5 35.9 15.7 35.9 15.9 35.8 C 15.8 36.7 15.8 37.6 15.8 38.4 C 15.7 39.3 15.7 40.1 15.7 41 C 15.7 41 15.7 41.7 15.7 41.7 C 16.4 41.7 17.1 41.8 17.8 41.8 C 18.5 41.8 19.2 41.8 19.9 41.8 C 20.6 41.8 21.3 41.8 22 41.8 C 22.7 41.8 23.4 41.7 24.1 41.7 C 24.08 41.73 24.1 41 24.1 41 C 24.1 41 24.08 41.03 24.1 41 Z M 30.6 41 C 30.6 40.1 30.6 39.3 30.6 38.4 C 30.6 37.6 30.5 36.7 30.5 35.8 C 31.1 35.9 31.7 35.9 32.3 35.9 C 32.9 35.9 33.5 35.9 34.1 35.9 C 34.7 35.9 35.3 35.9 35.8 35.9 C 36.4 35.9 37 35.9 37.6 35.8 C 37.6 36 37.6 36.2 37.6 36.4 C 37.6 36.6 37.6 36.8 37.6 37 C 37.2 37 36.8 37 36.4 37 C 36.1 36.9 35.7 36.9 35.3 36.9 C 34.9 36.9 34.5 36.8 34 36.8 C 33.6 36.8 33 36.8 32.4 36.8 C 32.3 37.2 32.3 37.6 32.3 38 C 32.3 38.4 32.3 38.8 32.3 39.3 C 32.3 39.8 32.3 40.4 32.3 40.8 C 32.3 41.3 32.3 41.7 32.3 42 C 32.9 42 33.4 42 33.9 41.9 C 34.3 41.9 34.8 41.9 35.2 41.9 C 35.5 41.9 35.9 41.9 36.2 41.8 C 36.6 41.8 36.9 41.8 37.2 41.8 C 37.1 42 37.1 42.2 37.1 42.4 C 37.1 42.6 37.1 42.8 37.2 43 C 36.8 42.9 36.4 42.9 35.9 42.9 C 35.5 42.9 35 42.8 34.6 42.8 C 34.1 42.8 33.7 42.8 33.3 42.8 C 32.9 42.8 32.5 42.8 32.3 42.8 C 32.3 42.9 32.3 43.1 32.3 43.2 C 32.3 43.3 32.3 43.5 32.3 43.7 C 32.28 43.73 32.3 44.5 32.3 44.5 C 32.3 44.5 32.28 45.71 32.3 45.7 C 32.3 46.5 32.3 47.1 32.3 47.6 C 32.3 48.1 32.3 48.5 32.3 48.7 C 32.8 48.7 33.2 48.7 33.7 48.7 C 34.2 48.7 34.7 48.7 35.2 48.7 C 35.7 48.7 36.2 48.6 36.6 48.6 C 37 48.6 37.4 48.5 37.7 48.4 C 37.7 48.5 37.7 48.6 37.7 48.8 C 37.7 48.9 37.7 49 37.7 49.1 C 37.7 49.3 37.7 49.5 37.7 49.6 C 37.1 49.6 36.5 49.5 35.9 49.5 C 35.3 49.5 34.7 49.5 34.1 49.5 C 33.5 49.5 32.9 49.5 32.3 49.5 C 31.7 49.5 31.1 49.6 30.5 49.6 C 30.5 48.7 30.6 47.9 30.6 47 C 30.6 46.2 30.6 45.3 30.6 44.4 C 30.64 44.45 30.6 41 30.6 41 C 30.6 41 30.64 41.01 30.6 41 Z " stroke="none" fill="#fff"/>  </g>  <g id="Polygon42354">    <path d="M 2 20 C 2 19.1 1.9 18.3 1.9 17.4 C 1.9 16.6 1.8 15.7 1.8 14.8 C 2.2 14.9 2.6 14.9 2.9 14.9 C 3.3 14.9 3.7 14.9 4.1 14.9 C 4.5 14.9 4.8 14.9 5.2 14.9 C 5.6 14.9 6 14.8 6.4 14.8 C 6.9 14.8 7.5 14.9 8 15 C 8.5 15.1 8.9 15.3 9.3 15.5 C 9.7 15.8 10 16.1 10.2 16.5 C 10.4 16.9 10.5 17.4 10.5 18 C 10.5 18.6 10.4 19.2 10.1 19.7 C 9.8 20.1 9.5 20.5 9 20.8 C 8.6 21.1 8.2 21.3 7.7 21.5 C 7.2 21.7 6.8 21.8 6.4 21.8 C 6.6 22 6.8 22.3 7.1 22.7 C 7.4 23 7.7 23.4 8 23.9 C 8.4 24.3 8.7 24.7 9.1 25.2 C 9.5 25.7 9.8 26.1 10.2 26.6 C 10.5 27 10.9 27.4 11.2 27.8 C 11.5 28.1 11.7 28.4 11.9 28.6 C 11.7 28.6 11.5 28.5 11.3 28.5 C 11.1 28.5 10.9 28.5 10.7 28.5 C 10.5 28.5 10.3 28.5 10.1 28.5 C 9.9 28.5 9.7 28.6 9.5 28.6 C 9.3 28.3 9 27.9 8.6 27.3 C 8.2 26.8 7.8 26.2 7.3 25.5 C 6.8 24.9 6.3 24.2 5.8 23.6 C 5.3 23 4.8 22.4 4.4 22 C 4.36 22.01 3.6 22 3.6 22 C 3.6 22 3.6 23.47 3.6 23.5 C 3.6 24.3 3.6 25.2 3.6 26.1 C 3.7 26.9 3.7 27.8 3.8 28.6 C 3.5 28.6 3.1 28.5 2.8 28.5 C 2.4 28.5 2.1 28.6 1.8 28.6 C 1.8 27.8 1.9 26.9 1.9 26.1 C 1.9 25.2 2 24.3 2 23.5 C 2 23.5 2 20 2 20 Z M 3.6 21.2 C 3.8 21.2 4 21.2 4.2 21.2 C 4.4 21.3 4.7 21.3 4.9 21.3 C 5.4 21.3 5.8 21.2 6.2 21.1 C 6.7 21 7.1 20.9 7.5 20.6 C 7.8 20.4 8.1 20.1 8.4 19.7 C 8.6 19.3 8.8 18.8 8.8 18.2 C 8.8 17.7 8.7 17.3 8.5 16.9 C 8.3 16.6 8 16.3 7.7 16.1 C 7.4 15.9 7.1 15.8 6.7 15.7 C 6.4 15.6 6 15.6 5.7 15.6 C 5.2 15.6 4.8 15.6 4.5 15.6 C 4.2 15.6 3.9 15.7 3.7 15.7 C 3.7 16.4 3.7 17.1 3.6 17.9 C 3.6 18.6 3.6 19.3 3.6 20 C 3.6 20 3.6 21.2 3.6 21.2 Z M 15.2 20 C 15.2 19.1 15.2 18.3 15.1 17.4 C 15.1 16.6 15.1 15.7 15 14.8 C 15.6 14.9 16.2 14.9 16.8 14.9 C 17.4 14.9 18 14.9 18.6 14.9 C 19.2 14.9 19.8 14.9 20.4 14.9 C 21 14.9 21.6 14.9 22.2 14.8 C 22.1 15 22.1 15.2 22.1 15.4 C 22.1 15.6 22.1 15.8 22.2 16 C 21.7 16 21.3 16 21 16 C 20.6 15.9 20.3 15.9 19.9 15.9 C 19.5 15.9 19 15.8 18.6 15.8 C 18.1 15.8 17.6 15.8 16.9 15.8 C 16.9 16.2 16.9 16.6 16.8 17 C 16.8 17.4 16.8 17.8 16.8 18.3 C 16.8 18.8 16.8 19.4 16.8 19.8 C 16.8 20.3 16.8 20.7 16.8 21 C 17.4 21 18 21 18.4 20.9 C 18.9 20.9 19.3 20.9 19.7 20.9 C 20.1 20.9 20.4 20.9 20.8 20.8 C 21.1 20.8 21.4 20.8 21.7 20.8 C 21.7 21 21.6 21.2 21.6 21.4 C 21.6 21.6 21.7 21.8 21.7 22 C 21.4 21.9 20.9 21.9 20.5 21.9 C 20 21.9 19.6 21.8 19.1 21.8 C 18.6 21.8 18.2 21.8 17.8 21.8 C 17.4 21.8 17.1 21.8 16.8 21.8 C 16.8 21.9 16.8 22.1 16.8 22.2 C 16.8 22.3 16.8 22.5 16.8 22.7 C 16.82 22.73 16.8 23.5 16.8 23.5 C 16.8 23.5 16.82 24.71 16.8 24.7 C 16.8 25.5 16.8 26.1 16.8 26.6 C 16.8 27.1 16.8 27.5 16.9 27.7 C 17.3 27.7 17.8 27.7 18.3 27.7 C 18.8 27.7 19.3 27.7 19.7 27.7 C 20.2 27.7 20.7 27.6 21.1 27.6 C 21.6 27.6 21.9 27.5 22.3 27.4 C 22.2 27.5 22.2 27.6 22.2 27.8 C 22.2 27.9 22.2 28 22.2 28.1 C 22.2 28.3 22.2 28.5 22.3 28.6 C 21.7 28.6 21.1 28.5 20.5 28.5 C 19.9 28.5 19.3 28.5 18.7 28.5 C 18 28.5 17.4 28.5 16.8 28.5 C 16.2 28.5 15.6 28.6 15 28.6 C 15.1 27.7 15.1 26.9 15.1 26 C 15.2 25.2 15.2 24.3 15.2 23.4 C 15.18 23.45 15.2 20 15.2 20 C 15.2 20 15.18 20.01 15.2 20 Z M 26.2 20 C 26.2 19.1 26.2 18.3 26.1 17.4 C 26.1 16.6 26.1 15.7 26 14.8 C 26.6 14.9 27.2 14.9 27.8 14.9 C 28.4 14.9 29 14.9 29.6 14.9 C 30.2 14.9 30.8 14.9 31.4 14.9 C 32 14.9 32.7 14.9 33.4 14.8 C 33.4 15 33.4 15.2 33.4 15.4 C 33.4 15.6 33.4 15.8 33.4 16 C 33.1 16 32.6 16 32.1 15.9 C 31.6 15.9 31.1 15.9 30.6 15.9 C 30 15.8 29.5 15.8 29 15.8 C 28.6 15.8 28.2 15.8 27.8 15.8 C 27.8 16.3 27.8 16.7 27.8 17.1 C 27.8 17.6 27.8 18 27.8 18.4 C 27.8 18.9 27.8 19.3 27.8 19.7 C 27.8 20.1 27.8 20.5 27.8 20.9 C 28.7 20.9 29.6 20.9 30.4 20.9 C 31.3 20.9 32.1 20.8 33 20.7 C 32.9 20.9 32.9 21.1 32.9 21.3 C 32.9 21.5 32.9 21.7 33 21.9 C 32.6 21.9 32.3 21.9 31.8 21.8 C 31.4 21.8 31 21.8 30.5 21.8 C 30.1 21.8 29.6 21.8 29.2 21.8 C 28.7 21.8 28.2 21.8 27.8 21.8 C 27.8 21.8 27.8 23.5 27.8 23.5 C 27.8 24.3 27.8 25.2 27.9 26.1 C 27.9 26.9 27.9 27.8 28 28.6 C 27.7 28.6 27.3 28.5 27 28.5 C 26.7 28.5 26.3 28.6 26 28.6 C 26.1 27.8 26.1 26.9 26.1 26.1 C 26.2 25.2 26.2 24.3 26.2 23.5 C 26.18 23.47 26.2 20 26.2 20 C 26.2 20 26.18 20.03 26.2 20 Z M 37.2 20 C 37.2 19.1 37.2 18.3 37.1 17.4 C 37.1 16.6 37.1 15.7 37 14.8 C 37.2 14.9 37.4 14.9 37.5 14.9 C 37.7 14.9 37.8 14.9 38 14.9 C 38.2 14.9 38.3 14.9 38.5 14.9 C 38.6 14.9 38.8 14.9 39 14.8 C 38.9 15.7 38.9 16.6 38.9 17.4 C 38.8 18.3 38.8 19.1 38.8 20 C 38.8 20 38.8 23.5 38.8 23.5 C 38.8 24.3 38.8 25.2 38.9 26.1 C 38.9 26.9 38.9 27.8 39 28.6 C 38.7 28.6 38.3 28.5 38 28.5 C 37.7 28.5 37.3 28.6 37 28.6 C 37.1 27.8 37.1 26.9 37.1 26.1 C 37.2 25.2 37.2 24.3 37.2 23.5 C 37.18 23.47 37.2 20 37.2 20 C 37.2 20 37.18 20.03 37.2 20 Z M 55 28.8 C 53.5 27.1 51.8 25.3 50.1 23.4 C 48.4 21.5 46.6 19.7 44.9 17.8 C 44.9 18.2 44.9 18.7 44.9 19.3 C 44.8 20 44.8 20.8 44.8 21.9 C 44.8 22.2 44.8 22.5 44.8 22.9 C 44.9 23.4 44.9 23.8 44.9 24.2 C 44.9 24.7 44.9 25.2 44.9 25.6 C 44.9 26.1 44.9 26.5 44.9 26.9 C 45 27.3 45 27.7 45 28 C 45 28.3 45 28.5 45 28.6 C 44.8 28.6 44.6 28.5 44.3 28.5 C 44.1 28.5 43.8 28.6 43.6 28.6 C 43.6 28.5 43.6 28.2 43.7 27.8 C 43.7 27.5 43.7 27.1 43.8 26.6 C 43.8 26.1 43.8 25.5 43.8 24.9 C 43.9 24.3 43.9 23.8 43.9 23.2 C 43.9 22.6 44 22 44 21.4 C 44 20.9 44 20.4 44 19.9 C 44 18.7 44 17.6 44 16.6 C 44 15.7 44 15 43.9 14.6 C 43.9 14.6 44.3 14.6 44.3 14.6 C 45.1 15.5 45.9 16.4 46.9 17.4 C 47.8 18.4 48.7 19.4 49.6 20.4 C 50.5 21.4 51.4 22.3 52.2 23.2 C 53 24 53.8 24.8 54.4 25.4 C 54.4 25.4 54.4 22.7 54.4 22.7 C 54.4 21.3 54.4 19.9 54.3 18.6 C 54.3 17.3 54.3 16 54.2 14.8 C 54.5 14.9 54.7 14.9 54.9 14.9 C 55.1 14.9 55.3 14.9 55.5 14.8 C 55.5 15.1 55.5 15.6 55.4 16.2 C 55.4 16.8 55.4 17.4 55.3 18 C 55.3 18.7 55.3 19.4 55.3 20 C 55.2 20.6 55.2 21.2 55.2 21.5 C 55.2 21.9 55.2 22.3 55.2 22.7 C 55.2 23.2 55.2 23.7 55.2 24.2 C 55.2 24.7 55.2 25.2 55.2 25.7 C 55.3 26.2 55.3 26.6 55.3 27.1 C 55.3 27.5 55.3 27.9 55.3 28.2 C 55.3 28.5 55.3 28.7 55.3 28.8 C 55.28 28.85 55 28.8 55 28.8 C 55 28.8 55 28.85 55 28.8 Z M 60.3 20 C 60.3 19.1 60.3 18.3 60.2 17.4 C 60.2 16.6 60.2 15.7 60.1 14.8 C 60.7 14.9 61.3 14.9 61.9 14.9 C 62.5 14.9 63.1 14.9 63.7 14.9 C 64.3 14.9 64.9 14.9 65.5 14.9 C 66.1 14.9 66.7 14.9 67.3 14.8 C 67.2 15 67.2 15.2 67.2 15.4 C 67.2 15.6 67.2 15.8 67.3 16 C 66.9 16 66.5 16 66.1 16 C 65.8 15.9 65.4 15.9 65 15.9 C 64.6 15.9 64.2 15.8 63.7 15.8 C 63.2 15.8 62.7 15.8 62 15.8 C 62 16.2 62 16.6 62 17 C 61.9 17.4 61.9 17.8 61.9 18.3 C 61.9 18.8 61.9 19.4 61.9 19.8 C 62 20.3 62 20.7 62 21 C 62.5 21 63.1 21 63.5 20.9 C 64 20.9 64.4 20.9 64.8 20.9 C 65.2 20.9 65.6 20.9 65.9 20.8 C 66.2 20.8 66.5 20.8 66.8 20.8 C 66.8 21 66.8 21.2 66.8 21.4 C 66.8 21.6 66.8 21.8 66.8 22 C 66.5 21.9 66.1 21.9 65.6 21.9 C 65.1 21.9 64.7 21.8 64.2 21.8 C 63.8 21.8 63.3 21.8 62.9 21.8 C 62.5 21.8 62.2 21.8 62 21.8 C 62 21.9 62 22.1 61.9 22.2 C 61.9 22.3 61.9 22.5 61.9 22.7 C 61.94 22.73 61.9 23.5 61.9 23.5 C 61.9 23.5 61.94 24.71 61.9 24.7 C 61.9 25.5 61.9 26.1 61.9 26.6 C 62 27.1 62 27.5 62 27.7 C 62.4 27.7 62.9 27.7 63.4 27.7 C 63.9 27.7 64.4 27.7 64.9 27.7 C 65.4 27.7 65.8 27.6 66.2 27.6 C 66.7 27.6 67.1 27.5 67.4 27.4 C 67.4 27.5 67.3 27.6 67.3 27.8 C 67.3 27.9 67.3 28 67.3 28.1 C 67.3 28.3 67.3 28.5 67.4 28.6 C 66.8 28.6 66.2 28.5 65.6 28.5 C 65 28.5 64.4 28.5 63.8 28.5 C 63.2 28.5 62.6 28.5 62 28.5 C 61.4 28.5 60.8 28.6 60.1 28.6 C 60.2 27.7 60.2 26.9 60.2 26 C 60.3 25.2 60.3 24.3 60.3 23.4 C 60.3 23.45 60.3 20 60.3 20 C 60.3 20 60.3 20.01 60.3 20 Z " stroke="none" fill="#fff"/>  </g></svg>