<?xml version="1.0" standalone="no"?><!DOCTYPE svg PUBLIC "-//W3C//DTD SVG 1.1//EN" "http://www.w3.org/Graphics/SVG/1.1/DTD/svg11.dtd"><svg xmlns="http://www.w3.org/2000/svg" version="1.1" width="119px" height="50px" viewBox="0 -4 119 50" style="top:-4px">  <desc>Sink your senses into our collection of smooth, sultry seating</desc>  <defs/>  <g id="Polygon41792">    <path d="M 2.6 24.8 C 2.4 24.6 2.1 24.5 1.8 24.5 C 1.5 24.5 1.2 24.7 1.2 25 C 1.2 25.3 1.6 25.5 2 25.6 C 2.5 25.8 3.2 26.1 3.2 26.8 C 3.2 27.7 2.5 28.1 1.7 28.1 C 1.2 28.1 0.7 27.9 0.3 27.5 C 0.3 27.5 0.9 27.1 0.9 27.1 C 1.1 27.3 1.4 27.5 1.7 27.5 C 2.1 27.5 2.4 27.3 2.4 26.9 C 2.4 26.6 2.1 26.4 1.7 26.3 C 1.2 26 0.5 25.8 0.5 25.1 C 0.5 24.3 1.2 23.9 1.8 23.9 C 2.3 23.9 2.7 24.1 3.1 24.3 C 3.1 24.3 2.6 24.8 2.6 24.8 Z M 4.7 26.2 C 4.7 26.9 5.2 27.5 6 27.5 C 6.5 27.5 6.9 27.3 7.2 26.8 C 7.2 26.8 7.7 27.2 7.7 27.2 C 7.3 27.8 6.7 28.1 5.9 28.1 C 4.7 28.1 3.9 27.2 3.9 26 C 3.9 24.8 4.8 23.9 5.9 23.9 C 7 23.9 7.8 24.7 7.8 25.8 C 7.8 25.9 7.7 26.1 7.7 26.2 C 7.7 26.2 4.7 26.2 4.7 26.2 Z M 4.7 25.6 C 4.7 25.6 7 25.6 7 25.6 C 7 25 6.5 24.5 5.9 24.5 C 5.3 24.5 4.9 25 4.7 25.6 Z M 11.1 28 C 11.1 28 11.14 27.58 11.1 27.6 C 10.8 27.9 10.4 28.1 9.9 28.1 C 9.2 28.1 8.5 27.7 8.5 26.9 C 8.5 25.9 9.4 25.6 10.3 25.6 C 10.5 25.6 10.8 25.6 11.1 25.6 C 11.1 25.6 11.1 25.5 11.1 25.5 C 11.1 24.9 10.8 24.5 10.2 24.5 C 9.7 24.5 9.2 24.7 8.9 24.9 C 8.9 24.9 8.7 24.3 8.7 24.3 C 9.1 24.1 9.7 23.9 10.2 23.9 C 11.4 23.9 11.8 24.5 11.8 25.6 C 11.83 25.57 11.8 28 11.8 28 L 11.1 28 Z M 11.1 26.2 C 10.8 26.1 10.6 26.1 10.4 26.1 C 9.9 26.1 9.2 26.2 9.2 26.8 C 9.2 27.3 9.6 27.5 10 27.5 C 10.4 27.5 10.8 27.3 11.1 27 C 11.1 27 11.1 26.2 11.1 26.2 Z M 13.9 24.6 C 13.9 24.6 13.9 26.45 13.9 26.4 C 13.9 26.6 13.9 26.6 13.9 26.8 C 13.9 27.2 14.1 27.4 14.5 27.4 C 14.6 27.4 14.8 27.4 14.9 27.3 C 14.9 27.3 15.1 27.9 15.1 27.9 C 14.9 28 14.6 28.1 14.4 28.1 C 13.8 28.1 13.5 27.8 13.3 27.5 C 13.2 27.2 13.2 26.9 13.2 26.6 C 13.17 26.62 13.2 24.6 13.2 24.6 L 12.6 24.6 L 12.6 24 L 13.2 24 L 13.2 23 L 13.9 23 L 13.9 24 L 15 24 L 15 24.6 L 13.9 24.6 Z M 15.9 28 L 15.9 24 L 16.6 24 L 16.6 28 L 15.9 28 Z M 15.9 23.2 L 15.9 22.4 L 16.6 22.4 L 16.6 23.2 L 15.9 23.2 Z M 18.7 24 C 18.7 24 18.7 24.66 18.7 24.7 C 19 24.2 19.5 23.9 20 23.9 C 20.6 23.9 20.9 24.1 21.2 24.4 C 21.4 24.8 21.5 25.3 21.5 25.9 C 21.52 25.92 21.5 28 21.5 28 L 20.8 28 C 20.8 28 20.79 26 20.8 26 C 20.8 25.6 20.8 25.2 20.6 24.9 C 20.5 24.7 20.2 24.6 19.9 24.6 C 19.4 24.6 19 24.9 18.7 25.3 C 18.7 25.34 18.7 28 18.7 28 L 18 28 L 18 24 L 18.7 24 Z M 26.5 27.8 C 26.5 28.2 26.4 28.5 26.3 28.8 C 25.9 29.5 25.2 29.8 24.5 29.8 C 23.8 29.8 23.2 29.6 22.7 29.2 C 22.7 29.2 23 28.6 23 28.6 C 23.3 28.9 23.9 29.1 24.4 29.1 C 25.1 29.1 25.8 28.8 25.8 27.9 C 25.8 27.9 25.8 27.4 25.8 27.4 C 25.5 27.8 25 28 24.5 28 C 23.3 28 22.5 27.1 22.5 26 C 22.5 24.9 23.3 23.9 24.5 23.9 C 25 23.9 25.4 24.1 25.8 24.4 C 25.75 24.44 25.8 24 25.8 24 L 26.5 24 C 26.5 24 26.48 27.78 26.5 27.8 Z M 25.8 25.2 C 25.5 24.8 25 24.6 24.6 24.6 C 23.7 24.6 23.2 25.3 23.2 26 C 23.2 26.7 23.8 27.3 24.6 27.3 C 25 27.3 25.5 27.1 25.8 26.6 C 25.8 26.6 25.8 25.2 25.8 25.2 Z M 27.7 28 L 27.7 27.1 L 28.5 27.1 L 28.5 28 L 27.7 28 Z " stroke="none" fill="#fff"/>  </g>  <g id="Polygon41791">    <path d="M 3.6 16.7 C 3.3 16.9 2.9 17.1 2.4 17.1 C 1.2 17.1 0.3 16.3 0.3 15 C 0.3 13.8 1.3 12.9 2.4 12.9 C 2.8 12.9 3.2 13 3.6 13.2 C 3.6 13.2 3.2 13.8 3.2 13.8 C 3 13.7 2.7 13.6 2.4 13.6 C 1.7 13.6 1.1 14.2 1.1 15 C 1.1 15.9 1.7 16.4 2.4 16.4 C 2.7 16.4 3 16.3 3.2 16.1 C 3.2 16.1 3.6 16.7 3.6 16.7 Z M 8.2 15 C 8.2 16.2 7.3 17.1 6.2 17.1 C 5 17.1 4.1 16.2 4.1 15 C 4.1 13.8 5 12.9 6.2 12.9 C 7.3 12.9 8.2 13.8 8.2 15 Z M 6.2 13.6 C 5.4 13.6 4.9 14.2 4.9 15 C 4.9 15.8 5.4 16.4 6.2 16.4 C 6.9 16.4 7.5 15.8 7.5 15 C 7.5 14.2 6.9 13.6 6.2 13.6 Z M 10 17 L 9.2 17 L 9.2 11 L 10 11 L 10 17 Z M 12 17 L 11.3 17 L 11.3 11 L 12 11 L 12 17 Z M 13.8 15.2 C 13.8 15.9 14.3 16.5 15 16.5 C 15.6 16.5 16 16.3 16.2 15.8 C 16.2 15.8 16.8 16.2 16.8 16.2 C 16.4 16.8 15.8 17.1 15 17.1 C 13.7 17.1 13 16.2 13 15 C 13 13.8 13.9 12.9 15 12.9 C 16.1 12.9 16.8 13.7 16.8 14.8 C 16.8 14.9 16.8 15.1 16.8 15.2 C 16.8 15.2 13.8 15.2 13.8 15.2 Z M 13.8 14.6 C 13.8 14.6 16.1 14.6 16.1 14.6 C 16.1 14 15.6 13.5 15 13.5 C 14.4 13.5 14 14 13.8 14.6 Z M 20.8 16.7 C 20.5 16.9 20 17.1 19.6 17.1 C 18.4 17.1 17.5 16.3 17.5 15 C 17.5 13.8 18.4 12.9 19.6 12.9 C 20 12.9 20.4 13 20.7 13.2 C 20.7 13.2 20.4 13.8 20.4 13.8 C 20.2 13.7 19.9 13.6 19.6 13.6 C 18.8 13.6 18.3 14.2 18.3 15 C 18.3 15.9 18.9 16.4 19.6 16.4 C 19.8 16.4 20.2 16.3 20.4 16.1 C 20.4 16.1 20.8 16.7 20.8 16.7 Z M 22.5 13.6 C 22.5 13.6 22.54 15.45 22.5 15.4 C 22.5 15.6 22.5 15.6 22.5 15.8 C 22.6 16.2 22.7 16.4 23.1 16.4 C 23.3 16.4 23.4 16.4 23.6 16.3 C 23.6 16.3 23.8 16.9 23.8 16.9 C 23.6 17 23.3 17.1 23 17.1 C 22.4 17.1 22.1 16.8 21.9 16.5 C 21.8 16.2 21.8 15.9 21.8 15.6 C 21.81 15.62 21.8 13.6 21.8 13.6 L 21.3 13.6 L 21.3 13 L 21.8 13 L 21.8 12 L 22.5 12 L 22.5 13 L 23.7 13 L 23.7 13.6 L 22.5 13.6 Z M 24.5 17 L 24.5 13 L 25.3 13 L 25.3 17 L 24.5 17 Z M 24.5 12.2 L 24.5 11.4 L 25.3 11.4 L 25.3 12.2 L 24.5 12.2 Z M 30.4 15 C 30.4 16.2 29.5 17.1 28.3 17.1 C 27.1 17.1 26.3 16.2 26.3 15 C 26.3 13.8 27.1 12.9 28.3 12.9 C 29.5 12.9 30.4 13.8 30.4 15 Z M 28.3 13.6 C 27.6 13.6 27 14.2 27 15 C 27 15.8 27.6 16.4 28.3 16.4 C 29.1 16.4 29.6 15.8 29.6 15 C 29.6 14.2 29.1 13.6 28.3 13.6 Z M 32.1 13 C 32.1 13 32.09 13.66 32.1 13.7 C 32.4 13.2 32.9 12.9 33.4 12.9 C 34 12.9 34.3 13.1 34.6 13.4 C 34.8 13.8 34.9 14.3 34.9 14.9 C 34.91 14.92 34.9 17 34.9 17 L 34.2 17 C 34.2 17 34.18 15 34.2 15 C 34.2 14.6 34.2 14.2 34 13.9 C 33.8 13.7 33.6 13.6 33.3 13.6 C 32.8 13.6 32.4 13.9 32.1 14.3 C 32.09 14.34 32.1 17 32.1 17 L 31.4 17 L 31.4 13 L 32.1 13 Z M 42 15 C 42 16.2 41.1 17.1 39.9 17.1 C 38.7 17.1 37.9 16.2 37.9 15 C 37.9 13.8 38.7 12.9 39.9 12.9 C 41.1 12.9 42 13.8 42 15 Z M 39.9 13.6 C 39.2 13.6 38.6 14.2 38.6 15 C 38.6 15.8 39.2 16.4 39.9 16.4 C 40.7 16.4 41.2 15.8 41.2 15 C 41.2 14.2 40.7 13.6 39.9 13.6 Z M 45 11.7 C 44.9 11.6 44.7 11.6 44.5 11.6 C 44.3 11.6 44.2 11.6 44 11.7 C 43.9 11.9 43.8 12.1 43.8 12.5 C 43.84 12.5 43.8 13 43.8 13 L 44.9 13 L 44.9 13.6 L 43.8 13.6 L 43.8 17 L 43.1 17 L 43.1 13.6 L 42.7 13.6 L 42.7 13 L 43.1 13 C 43.1 13 43.11 12.42 43.1 12.4 C 43.1 12 43.2 11.6 43.4 11.4 C 43.6 11.1 43.9 10.9 44.4 10.9 C 44.7 10.9 45 11 45.2 11.1 C 45.2 11.1 45 11.7 45 11.7 Z M 49.6 13.8 C 49.4 13.6 49.1 13.5 48.8 13.5 C 48.4 13.5 48.2 13.7 48.2 14 C 48.2 14.3 48.6 14.5 49 14.6 C 49.5 14.8 50.2 15.1 50.2 15.8 C 50.2 16.7 49.5 17.1 48.7 17.1 C 48.2 17.1 47.6 16.9 47.3 16.5 C 47.3 16.5 47.8 16.1 47.8 16.1 C 48.1 16.3 48.4 16.5 48.7 16.5 C 49.1 16.5 49.4 16.3 49.4 15.9 C 49.4 15.6 49.1 15.4 48.7 15.3 C 48.1 15 47.5 14.8 47.5 14.1 C 47.5 13.3 48.1 12.9 48.8 12.9 C 49.3 12.9 49.7 13.1 50 13.3 C 50 13.3 49.6 13.8 49.6 13.8 Z M 56.6 17 C 56.6 17 56.59 15 56.6 15 C 56.6 14.6 56.6 14.2 56.4 13.9 C 56.3 13.7 56.1 13.6 55.7 13.6 C 55.3 13.6 54.9 13.8 54.6 14.2 C 54.6 14.4 54.7 14.7 54.7 14.9 C 54.65 14.92 54.7 17 54.7 17 L 53.9 17 C 53.9 17 53.93 15 53.9 15 C 53.9 14.6 53.9 14.2 53.7 13.9 C 53.6 13.7 53.4 13.6 53.1 13.6 C 52.7 13.6 52.3 13.9 52 14.3 C 51.99 14.31 52 17 52 17 L 51.3 17 L 51.3 13 L 52 13 C 52 13 51.99 13.61 52 13.6 C 52.3 13.2 52.8 12.9 53.2 12.9 C 53.7 12.9 54.1 13.1 54.4 13.5 C 54.4 13.5 54.4 13.6 54.5 13.6 C 54.8 13.2 55.3 12.9 55.8 12.9 C 56.4 12.9 56.7 13.1 57 13.4 C 57.2 13.7 57.3 14.3 57.3 14.9 C 57.32 14.92 57.3 17 57.3 17 L 56.6 17 Z M 62.4 15 C 62.4 16.2 61.5 17.1 60.3 17.1 C 59.2 17.1 58.3 16.2 58.3 15 C 58.3 13.8 59.2 12.9 60.3 12.9 C 61.5 12.9 62.4 13.8 62.4 15 Z M 60.3 13.6 C 59.6 13.6 59 14.2 59 15 C 59 15.8 59.6 16.4 60.3 16.4 C 61.1 16.4 61.6 15.8 61.6 15 C 61.6 14.2 61.1 13.6 60.3 13.6 Z M 67.1 15 C 67.1 16.2 66.2 17.1 65.1 17.1 C 63.9 17.1 63 16.2 63 15 C 63 13.8 63.9 12.9 65.1 12.9 C 66.2 12.9 67.1 13.8 67.1 15 Z M 65.1 13.6 C 64.3 13.6 63.8 14.2 63.8 15 C 63.8 15.8 64.3 16.4 65.1 16.4 C 65.8 16.4 66.4 15.8 66.4 15 C 66.4 14.2 65.8 13.6 65.1 13.6 Z M 68.9 13.6 C 68.9 13.6 68.89 15.45 68.9 15.4 C 68.9 15.6 68.9 15.6 68.9 15.8 C 68.9 16.2 69.1 16.4 69.5 16.4 C 69.6 16.4 69.8 16.4 69.9 16.3 C 69.9 16.3 70.1 16.9 70.1 16.9 C 69.9 17 69.6 17.1 69.4 17.1 C 68.8 17.1 68.5 16.8 68.3 16.5 C 68.2 16.2 68.2 15.9 68.2 15.6 C 68.16 15.62 68.2 13.6 68.2 13.6 L 67.6 13.6 L 67.6 13 L 68.2 13 L 68.2 12 L 68.9 12 L 68.9 13 L 70 13 L 70 13.6 L 68.9 13.6 Z M 71.6 13.7 C 71.9 13.2 72.4 12.9 72.9 12.9 C 73.5 12.9 73.8 13.1 74.1 13.4 C 74.4 13.8 74.4 14.3 74.4 14.9 C 74.44 14.92 74.4 17 74.4 17 L 73.7 17 C 73.7 17 73.71 15 73.7 15 C 73.7 14.6 73.7 14.2 73.5 13.9 C 73.4 13.7 73.2 13.6 72.8 13.6 C 72.3 13.6 71.9 13.9 71.6 14.3 C 71.61 14.34 71.6 17 71.6 17 L 70.9 17 L 70.9 11 L 71.6 11 C 71.6 11 71.61 13.66 71.6 13.7 Z M 76.1 18.1 L 75.4 18.1 L 75.8 16.1 L 76.6 16.1 L 76.1 18.1 Z M 81.7 13.8 C 81.5 13.6 81.2 13.5 80.9 13.5 C 80.5 13.5 80.3 13.7 80.3 14 C 80.3 14.3 80.7 14.5 81.1 14.6 C 81.6 14.8 82.2 15.1 82.2 15.8 C 82.2 16.7 81.5 17.1 80.8 17.1 C 80.2 17.1 79.7 16.9 79.4 16.5 C 79.4 16.5 79.9 16.1 79.9 16.1 C 80.2 16.3 80.5 16.5 80.8 16.5 C 81.2 16.5 81.5 16.3 81.5 15.9 C 81.5 15.6 81.1 15.4 80.7 15.3 C 80.2 15 79.6 14.8 79.6 14.1 C 79.6 13.3 80.2 12.9 80.9 12.9 C 81.3 12.9 81.8 13.1 82.1 13.3 C 82.1 13.3 81.7 13.8 81.7 13.8 Z M 86.1 16.3 C 85.8 16.8 85.4 17.1 84.8 17.1 C 84.3 17.1 83.9 16.9 83.7 16.6 C 83.4 16.2 83.3 15.7 83.3 15.1 C 83.3 15.08 83.3 13 83.3 13 L 84 13 C 84 13 84.02 15 84 15 C 84 15.4 84 15.8 84.2 16.1 C 84.4 16.3 84.6 16.4 84.9 16.4 C 85.4 16.4 85.8 16.1 86.1 15.7 C 86.12 15.66 86.1 13 86.1 13 L 86.8 13 L 86.8 17 L 86.1 17 C 86.1 17 86.12 16.34 86.1 16.3 Z M 88.9 17 L 88.2 17 L 88.2 11 L 88.9 11 L 88.9 17 Z M 91 13.6 C 91 13.6 91.03 15.45 91 15.4 C 91 15.6 91 15.6 91 15.8 C 91.1 16.2 91.2 16.4 91.6 16.4 C 91.8 16.4 91.9 16.4 92 16.3 C 92 16.3 92.2 16.9 92.2 16.9 C 92 17 91.8 17.1 91.5 17.1 C 90.9 17.1 90.6 16.8 90.4 16.5 C 90.3 16.2 90.3 15.9 90.3 15.6 C 90.3 15.62 90.3 13.6 90.3 13.6 L 89.8 13.6 L 89.8 13 L 90.3 13 L 90.3 12 L 91 12 L 91 13 L 92.1 13 L 92.1 13.6 L 91 13.6 Z M 93.8 13.7 C 94 13.2 94.4 12.9 94.8 12.9 C 95 12.9 95.1 12.9 95.2 13 C 95.2 13 95.1 13.7 95.1 13.7 C 95 13.7 94.9 13.6 94.7 13.6 C 94.3 13.6 94 13.9 93.8 14.3 C 93.76 14.32 93.8 17 93.8 17 L 93 17 L 93 13 L 93.8 13 C 93.8 13 93.76 13.66 93.8 13.7 Z M 96.2 13 L 97.3 16 L 97.3 16 L 98.3 13 L 99.1 13 L 96.9 18.8 L 96.3 18.6 L 96.9 16.9 L 95.4 13 L 96.2 13 Z " stroke="none" fill="#fff"/>  </g>  <g id="Polygon41790">    <path d="M 2.5 1 C 1.9 1 1.5 1.3 1.5 1.8 C 1.5 2.3 2 2.4 2.7 2.7 C 3.4 2.9 4.4 3.3 4.4 4.4 C 4.4 5.6 3.2 6.1 2.4 6.1 C 1.6 6.1 1 5.8 0.4 5.3 C 0.4 5.3 0.9 4.7 0.9 4.7 C 1.4 5.3 1.8 5.4 2.4 5.4 C 3 5.4 3.5 5.1 3.5 4.4 C 3.5 3.8 2.9 3.6 2.3 3.4 C 1.5 3.1 0.7 2.7 0.7 1.8 C 0.7 0.8 1.5 0.3 2.4 0.3 C 3.1 0.3 3.6 0.5 4.1 0.9 C 4.1 0.9 3.7 1.4 3.7 1.4 C 3.4 1.2 2.9 1 2.5 1 Z M 5.5 6 L 5.5 2 L 6.3 2 L 6.3 6 L 5.5 6 Z M 5.5 1.2 L 5.5 0.4 L 6.3 0.4 L 6.3 1.2 L 5.5 1.2 Z M 8.3 2 C 8.3 2 8.34 2.66 8.3 2.7 C 8.6 2.2 9.1 1.9 9.6 1.9 C 10.2 1.9 10.6 2.1 10.8 2.4 C 11.1 2.8 11.2 3.3 11.2 3.9 C 11.17 3.92 11.2 6 11.2 6 L 10.4 6 C 10.4 6 10.44 4 10.4 4 C 10.4 3.6 10.4 3.2 10.2 2.9 C 10.1 2.7 9.9 2.6 9.5 2.6 C 9.1 2.6 8.6 2.9 8.3 3.3 C 8.34 3.34 8.3 6 8.3 6 L 7.6 6 L 7.6 2 L 8.3 2 Z M 15 6 L 13.8 4.2 L 13.2 4.9 L 13.2 6 L 12.5 6 L 12.5 0 L 13.2 0 L 13.2 4 L 13.2 4 L 14.8 2 L 15.7 2 L 14.3 3.6 L 15.9 6 L 15 6 Z M 18.8 2 L 19.8 5 L 19.8 5 L 20.9 2 L 21.7 2 L 19.4 7.8 L 18.8 7.6 L 19.4 5.9 L 18 2 L 18.8 2 Z M 26.1 4 C 26.1 5.2 25.3 6.1 24.1 6.1 C 22.9 6.1 22.1 5.2 22.1 4 C 22.1 2.8 22.9 1.9 24.1 1.9 C 25.3 1.9 26.1 2.8 26.1 4 Z M 24.1 2.6 C 23.3 2.6 22.8 3.2 22.8 4 C 22.8 4.8 23.3 5.4 24.1 5.4 C 24.8 5.4 25.4 4.8 25.4 4 C 25.4 3.2 24.8 2.6 24.1 2.6 Z M 29.9 5.3 C 29.6 5.8 29.2 6.1 28.6 6.1 C 28.1 6.1 27.7 5.9 27.5 5.6 C 27.2 5.2 27.1 4.7 27.1 4.1 C 27.1 4.08 27.1 2 27.1 2 L 27.8 2 C 27.8 2 27.82 4 27.8 4 C 27.8 4.4 27.8 4.8 28 5.1 C 28.2 5.3 28.4 5.4 28.7 5.4 C 29.2 5.4 29.6 5.1 29.9 4.7 C 29.92 4.66 29.9 2 29.9 2 L 30.6 2 L 30.6 6 L 29.9 6 C 29.9 6 29.92 5.34 29.9 5.3 Z M 32.7 2.7 C 33 2.2 33.3 1.9 33.8 1.9 C 33.9 1.9 34 1.9 34.2 2 C 34.2 2 34 2.7 34 2.7 C 33.9 2.7 33.8 2.6 33.7 2.6 C 33.3 2.6 33 2.9 32.7 3.3 C 32.72 3.32 32.7 6 32.7 6 L 32 6 L 32 2 L 32.7 2 C 32.7 2 32.72 2.66 32.7 2.7 Z M 38.8 2.8 C 38.6 2.6 38.3 2.5 38 2.5 C 37.6 2.5 37.4 2.7 37.4 3 C 37.4 3.3 37.8 3.5 38.2 3.6 C 38.7 3.8 39.3 4.1 39.3 4.8 C 39.3 5.7 38.6 6.1 37.9 6.1 C 37.4 6.1 36.8 5.9 36.5 5.5 C 36.5 5.5 37 5.1 37 5.1 C 37.3 5.3 37.6 5.5 37.9 5.5 C 38.3 5.5 38.6 5.3 38.6 4.9 C 38.6 4.6 38.3 4.4 37.9 4.3 C 37.3 4 36.7 3.8 36.7 3.1 C 36.7 2.3 37.3 1.9 38 1.9 C 38.5 1.9 38.9 2.1 39.2 2.3 C 39.2 2.3 38.8 2.8 38.8 2.8 Z M 40.8 4.2 C 40.9 4.9 41.4 5.5 42.1 5.5 C 42.7 5.5 43.1 5.3 43.3 4.8 C 43.3 4.8 43.9 5.2 43.9 5.2 C 43.5 5.8 42.9 6.1 42.1 6.1 C 40.8 6.1 40.1 5.2 40.1 4 C 40.1 2.8 41 1.9 42.1 1.9 C 43.2 1.9 43.9 2.7 43.9 3.8 C 43.9 3.9 43.9 4.1 43.9 4.2 C 43.9 4.2 40.8 4.2 40.8 4.2 Z M 40.9 3.6 C 40.9 3.6 43.2 3.6 43.2 3.6 C 43.1 3 42.7 2.5 42.1 2.5 C 41.5 2.5 41 3 40.9 3.6 Z M 45.7 2 C 45.7 2 45.66 2.66 45.7 2.7 C 46 2.2 46.4 1.9 47 1.9 C 47.5 1.9 47.9 2.1 48.1 2.4 C 48.4 2.8 48.5 3.3 48.5 3.9 C 48.49 3.92 48.5 6 48.5 6 L 47.8 6 C 47.8 6 47.76 4 47.8 4 C 47.8 3.6 47.7 3.2 47.6 2.9 C 47.4 2.7 47.2 2.6 46.9 2.6 C 46.4 2.6 46 2.9 45.7 3.3 C 45.66 3.34 45.7 6 45.7 6 L 44.9 6 L 44.9 2 L 45.7 2 Z M 51.7 2.8 C 51.6 2.6 51.2 2.5 50.9 2.5 C 50.6 2.5 50.3 2.7 50.3 3 C 50.3 3.3 50.7 3.5 51.1 3.6 C 51.6 3.8 52.3 4.1 52.3 4.8 C 52.3 5.7 51.6 6.1 50.8 6.1 C 50.3 6.1 49.8 5.9 49.5 5.5 C 49.5 5.5 50 5.1 50 5.1 C 50.2 5.3 50.5 5.5 50.8 5.5 C 51.2 5.5 51.6 5.3 51.6 4.9 C 51.6 4.6 51.2 4.4 50.8 4.3 C 50.3 4 49.6 3.8 49.6 3.1 C 49.6 2.3 50.3 1.9 50.9 1.9 C 51.4 1.9 51.8 2.1 52.2 2.3 C 52.2 2.3 51.7 2.8 51.7 2.8 Z M 53.8 4.2 C 53.8 4.9 54.3 5.5 55.1 5.5 C 55.6 5.5 56 5.3 56.3 4.8 C 56.3 4.8 56.8 5.2 56.8 5.2 C 56.4 5.8 55.8 6.1 55 6.1 C 53.8 6.1 53.1 5.2 53.1 4 C 53.1 2.8 53.9 1.9 55 1.9 C 56.1 1.9 56.9 2.7 56.9 3.8 C 56.9 3.9 56.8 4.1 56.8 4.2 C 56.8 4.2 53.8 4.2 53.8 4.2 Z M 53.8 3.6 C 53.8 3.6 56.1 3.6 56.1 3.6 C 56.1 3 55.6 2.5 55 2.5 C 54.4 2.5 54 3 53.8 3.6 Z M 59.8 2.8 C 59.6 2.6 59.3 2.5 59 2.5 C 58.7 2.5 58.4 2.7 58.4 3 C 58.4 3.3 58.8 3.5 59.2 3.6 C 59.7 3.8 60.4 4.1 60.4 4.8 C 60.4 5.7 59.7 6.1 58.9 6.1 C 58.4 6.1 57.9 5.9 57.5 5.5 C 57.5 5.5 58.1 5.1 58.1 5.1 C 58.3 5.3 58.6 5.5 58.9 5.5 C 59.3 5.5 59.6 5.3 59.6 4.9 C 59.6 4.6 59.3 4.4 58.9 4.3 C 58.4 4 57.7 3.8 57.7 3.1 C 57.7 2.3 58.4 1.9 59 1.9 C 59.5 1.9 59.9 2.1 60.3 2.3 C 60.3 2.3 59.8 2.8 59.8 2.8 Z M 63.5 6 L 63.5 2 L 64.2 2 L 64.2 6 L 63.5 6 Z M 63.5 1.2 L 63.5 0.4 L 64.2 0.4 L 64.2 1.2 L 63.5 1.2 Z M 66.3 2 C 66.3 2 66.28 2.66 66.3 2.7 C 66.6 2.2 67 1.9 67.6 1.9 C 68.1 1.9 68.5 2.1 68.7 2.4 C 69 2.8 69.1 3.3 69.1 3.9 C 69.1 3.92 69.1 6 69.1 6 L 68.4 6 C 68.4 6 68.38 4 68.4 4 C 68.4 3.6 68.4 3.2 68.2 2.9 C 68 2.7 67.8 2.6 67.5 2.6 C 67 2.6 66.6 2.9 66.3 3.3 C 66.28 3.34 66.3 6 66.3 6 L 65.6 6 L 65.6 2 L 66.3 2 Z M 71.2 2.6 C 71.2 2.6 71.17 4.45 71.2 4.4 C 71.2 4.6 71.2 4.6 71.2 4.8 C 71.2 5.2 71.3 5.4 71.7 5.4 C 71.9 5.4 72.1 5.4 72.2 5.3 C 72.2 5.3 72.4 5.9 72.4 5.9 C 72.2 6 71.9 6.1 71.6 6.1 C 71.1 6.1 70.7 5.8 70.6 5.5 C 70.5 5.2 70.4 4.9 70.4 4.6 C 70.44 4.62 70.4 2.6 70.4 2.6 L 69.9 2.6 L 69.9 2 L 70.4 2 L 70.4 1 L 71.2 1 L 71.2 2 L 72.3 2 L 72.3 2.6 L 71.2 2.6 Z M 76.9 4 C 76.9 5.2 76 6.1 74.9 6.1 C 73.7 6.1 72.8 5.2 72.8 4 C 72.8 2.8 73.7 1.9 74.9 1.9 C 76 1.9 76.9 2.8 76.9 4 Z M 74.9 2.6 C 74.1 2.6 73.6 3.2 73.6 4 C 73.6 4.8 74.1 5.4 74.9 5.4 C 75.6 5.4 76.2 4.8 76.2 4 C 76.2 3.2 75.6 2.6 74.9 2.6 Z M 83.7 4 C 83.7 5.2 82.8 6.1 81.6 6.1 C 80.5 6.1 79.6 5.2 79.6 4 C 79.6 2.8 80.5 1.9 81.6 1.9 C 82.8 1.9 83.7 2.8 83.7 4 Z M 81.6 2.6 C 80.9 2.6 80.3 3.2 80.3 4 C 80.3 4.8 80.9 5.4 81.6 5.4 C 82.4 5.4 82.9 4.8 82.9 4 C 82.9 3.2 82.4 2.6 81.6 2.6 Z M 87.4 5.3 C 87.2 5.8 86.7 6.1 86.1 6.1 C 85.6 6.1 85.2 5.9 85 5.6 C 84.7 5.2 84.6 4.7 84.6 4.1 C 84.62 4.08 84.6 2 84.6 2 L 85.4 2 C 85.4 2 85.35 4 85.4 4 C 85.4 4.4 85.4 4.8 85.6 5.1 C 85.7 5.3 85.9 5.4 86.3 5.4 C 86.7 5.4 87.2 5.1 87.4 4.7 C 87.45 4.66 87.4 2 87.4 2 L 88.2 2 L 88.2 6 L 87.4 6 C 87.4 6 87.45 5.34 87.4 5.3 Z M 90.2 2.7 C 90.5 2.2 90.8 1.9 91.3 1.9 C 91.4 1.9 91.6 1.9 91.7 2 C 91.7 2 91.6 2.7 91.6 2.7 C 91.5 2.7 91.4 2.6 91.2 2.6 C 90.8 2.6 90.5 2.9 90.2 3.3 C 90.25 3.32 90.2 6 90.2 6 L 89.5 6 L 89.5 2 L 90.2 2 C 90.2 2 90.25 2.66 90.2 2.7 Z " stroke="none" fill="#fff"/>  </g></svg>