<?xml version="1.0" standalone="no"?><!DOCTYPE svg PUBLIC "-//W3C//DTD SVG 1.1//EN" "http://www.w3.org/Graphics/SVG/1.1/DTD/svg11.dtd"><svg xmlns="http://www.w3.org/2000/svg" version="1.1" width="150px" height="23.8px" viewBox="0 -4 150 23.8" style="top:-4px">  <desc>Romansque A3000263</desc>  <defs/>  <g id="Polygon40859">    <path d="M 62 15 L 61.6 14 L 59.5 14 L 59.1 15 L 58.4 15 L 60.3 10.1 L 60.9 10.1 L 62.7 15 L 62 15 Z M 59.7 13.4 L 61.4 13.4 L 60.6 11.1 L 60.5 11.1 L 59.7 13.4 Z M 64.3 12.3 C 64.6 12.3 64.8 12.3 64.9 12.2 C 65.3 12.1 65.6 11.9 65.6 11.5 C 65.6 11.1 65.2 10.9 64.8 10.9 C 64.5 10.9 64.1 11 64 11.4 C 64 11.4 63.5 11.1 63.5 11.1 C 63.7 10.6 64.2 10.3 64.8 10.3 C 65.7 10.3 66.2 10.8 66.2 11.5 C 66.2 11.9 66 12.3 65.7 12.5 C 66.1 12.7 66.5 13.1 66.5 13.6 C 66.5 14.6 65.8 15.1 64.9 15.1 C 64.3 15.1 63.7 14.8 63.5 14.3 C 63.5 14.3 64 14 64 14 C 64.2 14.4 64.5 14.5 64.9 14.5 C 65.4 14.5 65.8 14.2 65.8 13.7 C 65.8 13.2 65.4 12.9 64.8 12.9 C 64.7 12.9 64.5 12.9 64.3 13 C 64.3 13 64.3 12.3 64.3 12.3 Z M 70.8 12.7 C 70.8 14.2 70.2 15.1 69.2 15.1 C 68.1 15.1 67.6 14.2 67.6 12.7 C 67.6 11.2 68.1 10.3 69.2 10.3 C 70.2 10.3 70.8 11.2 70.8 12.7 Z M 68.2 12.7 C 68.2 13.9 68.6 14.5 69.2 14.5 C 69.8 14.5 70.2 13.9 70.2 12.7 C 70.2 11.5 69.8 10.9 69.2 10.9 C 68.6 10.9 68.2 11.5 68.2 12.7 Z M 75.1 12.7 C 75.1 14.2 74.6 15.1 73.5 15.1 C 72.5 15.1 71.9 14.2 71.9 12.7 C 71.9 11.2 72.5 10.3 73.5 10.3 C 74.6 10.3 75.1 11.2 75.1 12.7 Z M 72.5 12.7 C 72.5 13.9 72.9 14.5 73.5 14.5 C 74.1 14.5 74.5 13.9 74.5 12.7 C 74.5 11.5 74.1 10.9 73.5 10.9 C 72.9 10.9 72.5 11.5 72.5 12.7 Z M 79.5 12.7 C 79.5 14.2 78.9 15.1 77.8 15.1 C 76.8 15.1 76.2 14.2 76.2 12.7 C 76.2 11.2 76.8 10.3 77.8 10.3 C 78.9 10.3 79.5 11.2 79.5 12.7 Z M 76.8 12.7 C 76.8 13.9 77.2 14.5 77.8 14.5 C 78.4 14.5 78.8 13.9 78.8 12.7 C 78.8 11.5 78.4 10.9 77.8 10.9 C 77.2 10.9 76.8 11.5 76.8 12.7 Z M 80.5 15 C 80.5 15 80.49 14.41 80.5 14.4 C 81 13.8 81.7 13.1 82.1 12.5 C 82.3 12.2 82.6 11.8 82.6 11.5 C 82.6 11.1 82.2 10.9 81.8 10.9 C 81.4 10.9 81.1 11.1 81.1 11.6 C 81.1 11.6 80.4 11.4 80.4 11.4 C 80.5 10.7 81.2 10.3 81.8 10.3 C 82.5 10.3 83.2 10.8 83.2 11.5 C 83.2 11.9 83 12.4 82.7 12.8 C 82.3 13.3 81.9 13.9 81.4 14.4 C 81.37 14.41 83.4 14.4 83.4 14.4 L 83.4 15 L 80.5 15 Z M 86.8 10.7 C 86 11.1 85.3 11.6 85 12.5 C 85.3 12.2 85.7 12.1 86.1 12.1 C 86.9 12.1 87.5 12.7 87.5 13.6 C 87.5 14.4 86.8 15.1 86 15.1 C 84.9 15.1 84.3 14.2 84.3 13.2 C 84.3 11.7 85.3 10.6 86.6 10.1 C 86.6 10.1 86.8 10.7 86.8 10.7 Z M 84.9 13.2 C 84.9 13.9 85.2 14.5 85.9 14.5 C 86.5 14.5 86.8 14.1 86.8 13.5 C 86.8 13 86.5 12.6 85.9 12.6 C 85.5 12.6 85.1 12.9 84.9 13.2 Z M 89.2 12.3 C 89.5 12.3 89.6 12.3 89.8 12.2 C 90.2 12.1 90.4 11.9 90.4 11.5 C 90.4 11.1 90.1 10.9 89.7 10.9 C 89.3 10.9 89 11 88.9 11.4 C 88.9 11.4 88.3 11.1 88.3 11.1 C 88.5 10.6 89 10.3 89.7 10.3 C 90.5 10.3 91.1 10.8 91.1 11.5 C 91.1 11.9 90.9 12.3 90.5 12.5 C 91 12.7 91.4 13.1 91.4 13.6 C 91.4 14.6 90.7 15.1 89.8 15.1 C 89.2 15.1 88.6 14.8 88.3 14.3 C 88.3 14.3 88.8 14 88.8 14 C 89 14.4 89.4 14.5 89.8 14.5 C 90.2 14.5 90.7 14.2 90.7 13.7 C 90.7 13.2 90.2 12.9 89.7 12.9 C 89.5 12.9 89.4 12.9 89.2 13 C 89.2 13 89.2 12.3 89.2 12.3 Z " stroke="none" fill="#535a5d"/>  </g>  <g id="Polygon40858">    <path d="M 49.6 0.4 C 50.5 0.4 51.6 0.9 51.6 2 C 51.6 3 51 3.4 50.4 3.6 C 50.36 3.62 52.1 6 52.1 6 L 50.9 6 L 49.3 3.7 L 48.9 3.7 L 48.9 6 L 47.9 6 L 47.9 0.4 C 47.9 0.4 49.64 0.4 49.6 0.4 Z M 49.5 2.9 C 50.1 2.9 50.6 2.6 50.6 2.1 C 50.6 1.6 50.2 1.2 49.6 1.2 C 49.62 1.25 48.9 1.2 48.9 1.2 L 48.9 2.9 C 48.9 2.9 49.46 2.86 49.5 2.9 Z M 55.7 1.2 C 54.7 1.2 53.9 2.1 53.9 3.2 C 53.9 4.3 54.7 5.2 55.7 5.2 C 56.8 5.2 57.6 4.3 57.6 3.2 C 57.6 2.1 56.8 1.2 55.7 1.2 Z M 55.7 6.1 C 54.1 6.1 52.8 4.8 52.8 3.2 C 52.8 1.6 54.1 0.3 55.7 0.3 C 57.4 0.3 58.6 1.6 58.6 3.2 C 58.6 4.8 57.4 6.1 55.7 6.1 Z M 63.6 6 L 62.9 6 L 61.1 1.6 L 61.1 6 L 60.2 6 L 60.2 0.4 L 61.7 0.4 L 63.2 4.5 L 64.9 0.4 L 66.3 0.4 L 66.3 6 L 65.3 6 L 65.3 1.6 L 63.6 6 Z M 69.8 0.4 L 70.6 0.4 L 72.7 6 L 71.6 6 L 71.2 4.9 L 69.1 4.9 L 68.7 6 L 67.6 6 L 69.8 0.4 Z M 69.4 4.1 L 70.9 4.1 L 70.2 1.9 L 70.1 1.9 L 69.4 4.1 Z M 77.7 6 L 75 2.2 L 75 6 L 74 6 L 74 0.4 L 74.8 0.4 L 77.6 4.2 L 77.6 0.4 L 78.6 0.4 L 78.6 6 L 77.7 6 Z M 82.2 1.2 C 81.8 1.2 81.4 1.4 81.4 1.8 C 81.4 2.3 82 2.4 82.4 2.6 C 83.2 2.9 84.2 3.2 84.2 4.4 C 84.2 5.6 83 6.1 82.1 6.1 C 81.3 6.1 80.6 5.8 80 5.2 C 80 5.2 80.7 4.6 80.7 4.6 C 81.2 5 81.5 5.2 82.1 5.2 C 82.6 5.2 83.1 5 83.1 4.4 C 83.1 3.9 82.5 3.7 82 3.5 C 81.2 3.2 80.4 2.8 80.4 1.9 C 80.4 0.8 81.3 0.3 82.2 0.3 C 82.9 0.3 83.5 0.5 84 0.9 C 84 0.9 83.4 1.6 83.4 1.6 C 83.1 1.4 82.7 1.2 82.2 1.2 Z M 90.5 6.5 C 90.5 6.5 89.65 5.74 89.7 5.7 C 89.2 6 88.7 6.1 88.2 6.1 C 86.6 6.1 85.3 4.8 85.3 3.2 C 85.3 1.6 86.6 0.3 88.2 0.3 C 89.9 0.3 91.1 1.6 91.1 3.2 C 91.1 4 90.8 4.7 90.3 5.2 C 90.34 5.22 91.1 5.9 91.1 5.9 L 90.5 6.5 Z M 89.7 4.5 C 89.9 4.2 90.1 3.7 90.1 3.2 C 90.1 2.1 89.3 1.2 88.2 1.2 C 87.2 1.2 86.4 2.1 86.4 3.2 C 86.4 4.3 87.2 5.2 88.2 5.2 C 88.5 5.2 88.7 5.2 89 5.1 C 88.98 5.06 88.3 4.3 88.3 4.3 L 88.9 3.7 C 88.9 3.7 89.65 4.53 89.7 4.5 Z M 97.1 3.4 C 97.1 5.1 96.4 6.1 94.8 6.1 C 93.3 6.1 92.6 5.1 92.6 3.4 C 92.63 3.37 92.6 0.4 92.6 0.4 L 93.6 0.4 C 93.6 0.4 93.62 3.54 93.6 3.5 C 93.6 4.7 94.1 5.2 94.8 5.2 C 95.6 5.2 96.1 4.7 96.1 3.5 C 96.08 3.54 96.1 0.4 96.1 0.4 L 97.1 0.4 C 97.1 0.4 97.07 3.37 97.1 3.4 Z M 98.8 6 L 98.8 0.4 L 102.3 0.4 L 102.3 1.2 L 99.8 1.2 L 99.8 2.7 L 102.3 2.7 L 102.3 3.5 L 99.8 3.5 L 99.8 5.2 L 102.3 5.2 L 102.3 6 L 98.8 6 Z " stroke="none" fill="#535a5d"/>  </g></svg>