<?xml version="1.0" standalone="no"?><!DOCTYPE svg PUBLIC "-//W3C//DTD SVG 1.1//EN" "http://www.w3.org/Graphics/SVG/1.1/DTD/svg11.dtd"><svg xmlns="http://www.w3.org/2000/svg" version="1.1" width="486px" height="184px" viewBox="0 -1 486 184" style="top:-1px">  <desc>Perfectly plush Glam seating that wraps you in comfort Linger in the lap of luxury with our soft, sleek selection</desc>  <defs/>  <g id="Polygon41484">    <path d="M 161.1 153.9 C 161 153.8 160.8 153.8 160.6 153.8 C 160.4 153.8 160.3 153.8 160.2 153.9 C 160 154 160 154.3 160 154.7 C 159.98 154.69 160 155.2 160 155.2 L 161.1 155.2 L 161.1 155.8 L 160 155.8 L 160 159.2 L 159.3 159.2 L 159.3 155.8 L 158.8 155.8 L 158.8 155.2 L 159.3 155.2 C 159.3 155.2 159.25 154.61 159.3 154.6 C 159.3 154.2 159.3 153.8 159.5 153.6 C 159.7 153.3 160 153.1 160.6 153.1 C 160.8 153.1 161.1 153.2 161.4 153.3 C 161.4 153.3 161.1 153.9 161.1 153.9 Z M 164.2 159.2 C 164.2 159.2 164.17 158.77 164.2 158.8 C 163.8 159.1 163.5 159.3 163 159.3 C 162.2 159.3 161.6 158.9 161.6 158.1 C 161.6 157.1 162.5 156.7 163.3 156.7 C 163.5 156.7 163.8 156.8 164.1 156.8 C 164.1 156.8 164.1 156.7 164.1 156.7 C 164.1 156.1 163.8 155.7 163.2 155.7 C 162.7 155.7 162.2 155.9 161.9 156.1 C 161.9 156.1 161.7 155.5 161.7 155.5 C 162.1 155.3 162.7 155.1 163.3 155.1 C 164.4 155.1 164.9 155.7 164.9 156.8 C 164.86 156.76 164.9 159.2 164.9 159.2 L 164.2 159.2 Z M 164.1 157.4 C 163.8 157.3 163.6 157.3 163.4 157.3 C 162.9 157.3 162.3 157.4 162.3 158 C 162.3 158.5 162.6 158.7 163.1 158.7 C 163.5 158.7 163.8 158.5 164.1 158.2 C 164.1 158.2 164.1 157.4 164.1 157.4 Z M 166.9 159.2 L 166.2 159.2 L 166.2 153.2 L 166.9 153.2 L 166.9 159.2 Z M 169 159.2 L 168.2 159.2 L 168.2 153.2 L 169 153.2 L 169 159.2 Z M 172.3 159.2 L 172.3 155.2 L 173 155.2 L 173 159.2 L 172.3 159.2 Z M 172.3 154.4 L 172.3 153.6 L 173 153.6 L 173 154.4 L 172.3 154.4 Z M 175.1 155.2 C 175.1 155.2 175.1 155.85 175.1 155.8 C 175.4 155.4 175.9 155.1 176.4 155.1 C 177 155.1 177.3 155.3 177.6 155.6 C 177.8 156 177.9 156.5 177.9 157.1 C 177.93 157.11 177.9 159.2 177.9 159.2 L 177.2 159.2 C 177.2 159.2 177.2 157.19 177.2 157.2 C 177.2 156.8 177.2 156.4 177 156.1 C 176.9 155.9 176.6 155.8 176.3 155.8 C 175.8 155.8 175.4 156.1 175.1 156.5 C 175.1 156.53 175.1 159.2 175.1 159.2 L 174.4 159.2 L 174.4 155.2 L 175.1 155.2 Z M 182 159.2 L 181.2 159.2 L 181.2 153.2 L 182 153.2 L 182 159.2 Z M 187 157.2 C 187 158.4 186.2 159.3 185 159.3 C 183.8 159.3 183 158.4 183 157.2 C 183 156 183.8 155.1 185 155.1 C 186.2 155.1 187 156 187 157.2 Z M 185 155.8 C 184.2 155.8 183.7 156.4 183.7 157.2 C 183.7 158 184.2 158.6 185 158.6 C 185.8 158.6 186.3 158 186.3 157.2 C 186.3 156.4 185.8 155.8 185 155.8 Z M 191.2 155.2 L 189.6 159.2 L 189 159.2 L 187.4 155.2 L 188.2 155.2 L 189.3 158.3 L 189.3 158.3 L 190.4 155.2 L 191.2 155.2 Z M 192.3 157.4 C 192.3 158.1 192.8 158.7 193.6 158.7 C 194.1 158.7 194.5 158.5 194.8 158 C 194.8 158 195.3 158.4 195.3 158.4 C 194.9 159 194.3 159.3 193.5 159.3 C 192.3 159.3 191.5 158.4 191.5 157.2 C 191.5 156 192.4 155.1 193.5 155.1 C 194.6 155.1 195.4 155.9 195.4 157 C 195.4 157.1 195.3 157.3 195.3 157.4 C 195.3 157.4 192.3 157.4 192.3 157.4 Z M 192.3 156.8 C 192.3 156.8 194.6 156.8 194.6 156.8 C 194.6 156.2 194.1 155.7 193.5 155.7 C 192.9 155.7 192.5 156.2 192.3 156.8 Z M 201.8 158.3 L 201.9 158.3 L 202.7 155.2 L 203.4 155.2 L 202.3 159.2 L 201.5 159.2 L 200.6 156.1 L 200.6 156.1 L 199.7 159.2 L 198.9 159.2 L 197.8 155.2 L 198.6 155.2 L 199.4 158.3 L 199.4 158.3 L 200.3 155.2 L 201 155.2 L 201.8 158.3 Z M 204.2 159.2 L 204.2 155.2 L 205 155.2 L 205 159.2 L 204.2 159.2 Z M 204.2 154.4 L 204.2 153.6 L 205 153.6 L 205 154.4 L 204.2 154.4 Z M 207.1 155.8 C 207.1 155.8 207.06 157.64 207.1 157.6 C 207.1 157.7 207.1 157.8 207.1 158 C 207.1 158.4 207.2 158.6 207.6 158.6 C 207.8 158.6 208 158.6 208.1 158.5 C 208.1 158.5 208.3 159.1 208.3 159.1 C 208.1 159.2 207.8 159.3 207.5 159.3 C 207 159.3 206.6 159 206.5 158.6 C 206.4 158.4 206.3 158.1 206.3 157.8 C 206.34 157.81 206.3 155.8 206.3 155.8 L 205.8 155.8 L 205.8 155.2 L 206.3 155.2 L 206.3 154.2 L 207.1 154.2 L 207.1 155.2 L 208.2 155.2 L 208.2 155.8 L 207.1 155.8 Z M 209.8 155.8 C 210.1 155.4 210.6 155.1 211.1 155.1 C 211.7 155.1 212 155.3 212.3 155.6 C 212.5 156 212.6 156.5 212.6 157.1 C 212.62 157.11 212.6 159.2 212.6 159.2 L 211.9 159.2 C 211.9 159.2 211.89 157.19 211.9 157.2 C 211.9 156.8 211.9 156.4 211.7 156.1 C 211.6 155.9 211.3 155.8 211 155.8 C 210.5 155.8 210.1 156.1 209.8 156.5 C 209.79 156.53 209.8 159.2 209.8 159.2 L 209.1 159.2 L 209.1 153.2 L 209.8 153.2 C 209.8 153.2 209.79 155.85 209.8 155.8 Z M 216.7 155.8 C 216.7 155.8 216.68 157.64 216.7 157.6 C 216.7 157.7 216.7 157.8 216.7 158 C 216.7 158.4 216.8 158.6 217.2 158.6 C 217.4 158.6 217.6 158.6 217.7 158.5 C 217.7 158.5 217.9 159.1 217.9 159.1 C 217.7 159.2 217.4 159.3 217.2 159.3 C 216.6 159.3 216.2 159 216.1 158.6 C 216 158.4 216 158.1 216 157.8 C 215.95 157.81 216 155.8 216 155.8 L 215.4 155.8 L 215.4 155.2 L 216 155.2 L 216 154.2 L 216.7 154.2 L 216.7 155.2 L 217.8 155.2 L 217.8 155.8 L 216.7 155.8 Z M 219.4 155.8 C 219.7 155.4 220.2 155.1 220.7 155.1 C 221.3 155.1 221.6 155.3 221.9 155.6 C 222.1 156 222.2 156.5 222.2 157.1 C 222.23 157.11 222.2 159.2 222.2 159.2 L 221.5 159.2 C 221.5 159.2 221.5 157.19 221.5 157.2 C 221.5 156.8 221.5 156.4 221.3 156.1 C 221.2 155.9 221 155.8 220.6 155.8 C 220.1 155.8 219.7 156.1 219.4 156.5 C 219.41 156.53 219.4 159.2 219.4 159.2 L 218.7 159.2 L 218.7 153.2 L 219.4 153.2 C 219.4 153.2 219.41 155.85 219.4 155.8 Z M 223.9 157.4 C 224 158.1 224.4 158.7 225.2 158.7 C 225.7 158.7 226.2 158.5 226.4 158 C 226.4 158 226.9 158.4 226.9 158.4 C 226.5 159 226 159.3 225.2 159.3 C 223.9 159.3 223.2 158.4 223.2 157.2 C 223.2 156 224.1 155.1 225.2 155.1 C 226.2 155.1 227 155.9 227 157 C 227 157.1 227 157.3 227 157.4 C 227 157.4 223.9 157.4 223.9 157.4 Z M 224 156.8 C 224 156.8 226.2 156.8 226.2 156.8 C 226.2 156.2 225.8 155.7 225.2 155.7 C 224.5 155.7 224.1 156.2 224 156.8 Z M 232 156 C 231.8 155.8 231.4 155.7 231.2 155.7 C 230.8 155.7 230.6 155.9 230.6 156.2 C 230.6 156.5 231 156.7 231.3 156.8 C 231.9 157 232.5 157.3 232.5 158 C 232.5 158.9 231.8 159.3 231.1 159.3 C 230.5 159.3 230 159.1 229.7 158.7 C 229.7 158.7 230.2 158.3 230.2 158.3 C 230.5 158.5 230.7 158.7 231.1 158.7 C 231.5 158.7 231.8 158.5 231.8 158.1 C 231.8 157.8 231.4 157.6 231 157.4 C 230.5 157.2 229.9 157 229.9 156.3 C 229.9 155.5 230.5 155.1 231.2 155.1 C 231.6 155.1 232.1 155.2 232.4 155.5 C 232.4 155.5 232 156 232 156 Z M 233.6 159.2 L 233.6 155.2 L 234.3 155.2 L 234.3 159.2 L 233.6 159.2 Z M 233.6 154.4 L 233.6 153.6 L 234.3 153.6 L 234.3 154.4 L 233.6 154.4 Z M 236.4 159.2 L 235.7 159.2 L 235.7 153.2 L 236.4 153.2 L 236.4 159.2 Z M 240.3 159.2 L 239.1 157.4 L 238.5 158.1 L 238.5 159.2 L 237.8 159.2 L 237.8 153.2 L 238.5 153.2 L 238.5 157.2 L 238.5 157.2 L 240.1 155.2 L 241 155.2 L 239.6 156.8 L 241.2 159.2 L 240.3 159.2 Z M 242.1 155.2 L 243.1 158.2 L 243.1 158.2 L 244.2 155.2 L 245 155.2 L 242.7 161 L 242.1 160.7 L 242.7 159.1 L 241.2 155.2 L 242.1 155.2 Z M 245.8 157.3 L 245.8 156.6 L 247.9 156.6 L 247.9 157.3 L 245.8 157.3 Z M 251.3 156 C 251.1 155.8 250.8 155.7 250.5 155.7 C 250.2 155.7 249.9 155.9 249.9 156.2 C 249.9 156.5 250.3 156.7 250.7 156.8 C 251.2 157 251.9 157.3 251.9 158 C 251.9 158.9 251.2 159.3 250.4 159.3 C 249.9 159.3 249.4 159.1 249 158.7 C 249 158.7 249.6 158.3 249.6 158.3 C 249.8 158.5 250.1 158.7 250.4 158.7 C 250.8 158.7 251.1 158.5 251.1 158.1 C 251.1 157.8 250.8 157.6 250.4 157.4 C 249.8 157.2 249.2 157 249.2 156.3 C 249.2 155.5 249.9 155.1 250.5 155.1 C 251 155.1 251.4 155.2 251.8 155.5 C 251.8 155.5 251.3 156 251.3 156 Z M 258.3 159.2 C 258.3 159.2 258.3 157.19 258.3 157.2 C 258.3 156.8 258.3 156.4 258.1 156.1 C 258 155.9 257.8 155.8 257.4 155.8 C 257 155.8 256.6 156 256.3 156.4 C 256.4 156.6 256.4 156.9 256.4 157.1 C 256.37 157.11 256.4 159.2 256.4 159.2 L 255.6 159.2 C 255.6 159.2 255.64 157.19 255.6 157.2 C 255.6 156.8 255.6 156.3 255.4 156 C 255.3 155.9 255.1 155.8 254.8 155.8 C 254.4 155.8 254 156.1 253.7 156.5 C 253.7 156.5 253.7 159.2 253.7 159.2 L 253 159.2 L 253 155.2 L 253.7 155.2 C 253.7 155.2 253.7 155.8 253.7 155.8 C 254 155.4 254.5 155.1 255 155.1 C 255.4 155.1 255.8 155.3 256.1 155.6 C 256.1 155.7 256.1 155.8 256.2 155.8 C 256.5 155.3 257 155.1 257.6 155.1 C 258.1 155.1 258.4 155.3 258.7 155.6 C 258.9 155.9 259 156.5 259 157.1 C 259.03 157.11 259 159.2 259 159.2 L 258.3 159.2 Z M 264.1 157.2 C 264.1 158.4 263.2 159.3 262 159.3 C 260.9 159.3 260 158.4 260 157.2 C 260 156 260.9 155.1 262 155.1 C 263.2 155.1 264.1 156 264.1 157.2 Z M 262 155.8 C 261.3 155.8 260.7 156.4 260.7 157.2 C 260.7 158 261.3 158.6 262 158.6 C 262.8 158.6 263.3 158 263.3 157.2 C 263.3 156.4 262.8 155.8 262 155.8 Z M 268.8 157.2 C 268.8 158.4 268 159.3 266.8 159.3 C 265.6 159.3 264.7 158.4 264.7 157.2 C 264.7 156 265.6 155.1 266.8 155.1 C 268 155.1 268.8 156 268.8 157.2 Z M 266.8 155.8 C 266 155.8 265.5 156.4 265.5 157.2 C 265.5 158 266 158.6 266.8 158.6 C 267.5 158.6 268.1 158 268.1 157.2 C 268.1 156.4 267.5 155.8 266.8 155.8 Z M 270.6 155.8 C 270.6 155.8 270.6 157.64 270.6 157.6 C 270.6 157.7 270.6 157.8 270.6 158 C 270.6 158.4 270.8 158.6 271.2 158.6 C 271.3 158.6 271.5 158.6 271.6 158.5 C 271.6 158.5 271.8 159.1 271.8 159.1 C 271.6 159.2 271.3 159.3 271.1 159.3 C 270.5 159.3 270.2 159 270 158.6 C 269.9 158.4 269.9 158.1 269.9 157.8 C 269.87 157.81 269.9 155.8 269.9 155.8 L 269.3 155.8 L 269.3 155.2 L 269.9 155.2 L 269.9 154.2 L 270.6 154.2 L 270.6 155.2 L 271.7 155.2 L 271.7 155.8 L 270.6 155.8 Z M 273.3 155.8 C 273.6 155.4 274.1 155.1 274.6 155.1 C 275.2 155.1 275.6 155.3 275.8 155.6 C 276.1 156 276.2 156.5 276.2 157.1 C 276.15 157.11 276.2 159.2 276.2 159.2 L 275.4 159.2 C 275.4 159.2 275.42 157.19 275.4 157.2 C 275.4 156.8 275.4 156.4 275.2 156.1 C 275.1 155.9 274.9 155.8 274.5 155.8 C 274.1 155.8 273.6 156.1 273.3 156.5 C 273.33 156.53 273.3 159.2 273.3 159.2 L 272.6 159.2 L 272.6 153.2 L 273.3 153.2 C 273.3 153.2 273.33 155.85 273.3 155.8 Z M 281.5 153.9 C 281.3 153.8 281.2 153.8 281 153.8 C 280.8 153.8 280.6 153.8 280.5 153.9 C 280.4 154 280.3 154.3 280.3 154.7 C 280.33 154.69 280.3 155.2 280.3 155.2 L 281.4 155.2 L 281.4 155.8 L 280.3 155.8 L 280.3 159.2 L 279.6 159.2 L 279.6 155.8 L 279.1 155.8 L 279.1 155.2 L 279.6 155.2 C 279.6 155.2 279.6 154.61 279.6 154.6 C 279.6 154.2 279.7 153.8 279.8 153.6 C 280 153.3 280.4 153.1 280.9 153.1 C 281.2 153.1 281.5 153.2 281.7 153.3 C 281.7 153.3 281.5 153.9 281.5 153.9 Z M 282.5 157.4 C 282.6 158.1 283.1 158.7 283.8 158.7 C 284.4 158.7 284.8 158.5 285 158 C 285 158 285.5 158.4 285.5 158.4 C 285.1 159 284.6 159.3 283.8 159.3 C 282.5 159.3 281.8 158.4 281.8 157.2 C 281.8 156 282.7 155.1 283.8 155.1 C 284.8 155.1 285.6 155.9 285.6 157 C 285.6 157.1 285.6 157.3 285.6 157.4 C 285.6 157.4 282.5 157.4 282.5 157.4 Z M 282.6 156.8 C 282.6 156.8 284.9 156.8 284.9 156.8 C 284.8 156.2 284.4 155.7 283.8 155.7 C 283.2 155.7 282.7 156.2 282.6 156.8 Z M 287 157.4 C 287.1 158.1 287.5 158.7 288.3 158.7 C 288.8 158.7 289.3 158.5 289.5 158 C 289.5 158 290 158.4 290 158.4 C 289.6 159 289.1 159.3 288.3 159.3 C 287 159.3 286.3 158.4 286.3 157.2 C 286.3 156 287.2 155.1 288.3 155.1 C 289.3 155.1 290.1 155.9 290.1 157 C 290.1 157.1 290.1 157.3 290.1 157.4 C 290.1 157.4 287 157.4 287 157.4 Z M 287.1 156.8 C 287.1 156.8 289.3 156.8 289.3 156.8 C 289.3 156.2 288.9 155.7 288.3 155.7 C 287.6 155.7 287.2 156.2 287.1 156.8 Z M 291.8 159.2 L 291.1 159.2 L 291.1 153.2 L 291.8 153.2 L 291.8 159.2 Z M 298.9 157.2 C 298.9 158.4 298 159.3 296.9 159.3 C 295.7 159.3 294.8 158.4 294.8 157.2 C 294.8 156 295.7 155.1 296.9 155.1 C 298 155.1 298.9 156 298.9 157.2 Z M 296.9 155.8 C 296.1 155.8 295.6 156.4 295.6 157.2 C 295.6 158 296.1 158.6 296.9 158.6 C 297.6 158.6 298.2 158 298.2 157.2 C 298.2 156.4 297.6 155.8 296.9 155.8 Z M 302 153.9 C 301.8 153.8 301.7 153.8 301.5 153.8 C 301.3 153.8 301.1 153.8 301 153.9 C 300.8 154 300.8 154.3 300.8 154.7 C 300.81 154.69 300.8 155.2 300.8 155.2 L 301.9 155.2 L 301.9 155.8 L 300.8 155.8 L 300.8 159.2 L 300.1 159.2 L 300.1 155.8 L 299.6 155.8 L 299.6 155.2 L 300.1 155.2 C 300.1 155.2 300.08 154.61 300.1 154.6 C 300.1 154.2 300.2 153.8 300.3 153.6 C 300.5 153.3 300.9 153.1 301.4 153.1 C 301.7 153.1 302 153.2 302.2 153.3 C 302.2 153.3 302 153.9 302 153.9 Z M 307.7 155.2 L 306.2 159.2 L 305.5 159.2 L 304 155.2 L 304.8 155.2 L 305.9 158.3 L 305.9 158.3 L 307 155.2 L 307.7 155.2 Z M 308.8 157.4 C 308.9 158.1 309.4 158.7 310.1 158.7 C 310.7 158.7 311.1 158.5 311.3 158 C 311.3 158 311.9 158.4 311.9 158.4 C 311.5 159 310.9 159.3 310.1 159.3 C 308.8 159.3 308.1 158.4 308.1 157.2 C 308.1 156 309 155.1 310.1 155.1 C 311.2 155.1 311.9 155.9 311.9 157 C 311.9 157.1 311.9 157.3 311.9 157.4 C 311.9 157.4 308.8 157.4 308.8 157.4 Z M 308.9 156.8 C 308.9 156.8 311.2 156.8 311.2 156.8 C 311.1 156.2 310.7 155.7 310.1 155.7 C 309.5 155.7 309 156.2 308.9 156.8 Z M 313.7 159.2 L 312.9 159.2 L 312.9 153.2 L 313.7 153.2 L 313.7 159.2 Z M 318.1 155.2 L 316.6 159.2 L 315.9 159.2 L 314.4 155.2 L 315.2 155.2 L 316.3 158.3 L 316.3 158.3 L 317.3 155.2 L 318.1 155.2 Z M 319.2 157.4 C 319.3 158.1 319.8 158.7 320.5 158.7 C 321 158.7 321.5 158.5 321.7 158 C 321.7 158 322.2 158.4 322.2 158.4 C 321.8 159 321.3 159.3 320.5 159.3 C 319.2 159.3 318.5 158.4 318.5 157.2 C 318.5 156 319.4 155.1 320.5 155.1 C 321.5 155.1 322.3 155.9 322.3 157 C 322.3 157.1 322.3 157.3 322.3 157.4 C 322.3 157.4 319.2 157.4 319.2 157.4 Z M 319.3 156.8 C 319.3 156.8 321.6 156.8 321.6 156.8 C 321.5 156.2 321.1 155.7 320.5 155.7 C 319.8 155.7 319.4 156.2 319.3 156.8 Z M 324.1 155.8 C 324.1 155.8 324.09 157.64 324.1 157.6 C 324.1 157.7 324.1 157.8 324.1 158 C 324.1 158.4 324.3 158.6 324.7 158.6 C 324.8 158.6 325 158.6 325.1 158.5 C 325.1 158.5 325.3 159.1 325.3 159.1 C 325.1 159.2 324.8 159.3 324.6 159.3 C 324 159.3 323.7 159 323.5 158.6 C 323.4 158.4 323.4 158.1 323.4 157.8 C 323.36 157.81 323.4 155.8 323.4 155.8 L 322.8 155.8 L 322.8 155.2 L 323.4 155.2 L 323.4 154.2 L 324.1 154.2 L 324.1 155.2 L 325.2 155.2 L 325.2 155.8 L 324.1 155.8 Z M 326.2 159.2 L 326.2 158.3 L 327 158.3 L 327 159.2 L 326.2 159.2 Z " stroke="none" fill="#535a5d"/>  </g>  <g id="Polygon41483">    <path d="M 120.8 148.2 L 120.8 142.6 L 121.6 142.6 L 121.6 147.5 L 124 147.5 L 124 148.2 L 120.8 148.2 Z M 124.7 148.2 L 124.7 144.2 L 125.5 144.2 L 125.5 148.2 L 124.7 148.2 Z M 124.7 143.4 L 124.7 142.6 L 125.5 142.6 L 125.5 143.4 L 124.7 143.4 Z M 127.5 144.2 C 127.5 144.2 127.53 144.85 127.5 144.8 C 127.8 144.4 128.3 144.1 128.8 144.1 C 129.4 144.1 129.8 144.3 130 144.6 C 130.3 145 130.3 145.5 130.3 146.1 C 130.35 146.11 130.3 148.2 130.3 148.2 L 129.6 148.2 C 129.6 148.2 129.62 146.19 129.6 146.2 C 129.6 145.8 129.6 145.4 129.4 145.1 C 129.3 144.9 129.1 144.8 128.7 144.8 C 128.3 144.8 127.8 145.1 127.5 145.5 C 127.53 145.53 127.5 148.2 127.5 148.2 L 126.8 148.2 L 126.8 144.2 L 127.5 144.2 Z M 135.3 148 C 135.3 148.4 135.2 148.7 135.1 149 C 134.7 149.7 134 150 133.3 150 C 132.7 150 132 149.8 131.5 149.4 C 131.5 149.4 131.8 148.8 131.8 148.8 C 132.2 149.1 132.8 149.3 133.3 149.3 C 134 149.3 134.6 149 134.6 148.1 C 134.6 148.1 134.6 147.6 134.6 147.6 C 134.3 148 133.8 148.2 133.3 148.2 C 132.2 148.2 131.3 147.3 131.3 146.1 C 131.3 145.1 132.1 144.1 133.3 144.1 C 133.8 144.1 134.3 144.3 134.6 144.6 C 134.58 144.63 134.6 144.2 134.6 144.2 L 135.3 144.2 C 135.3 144.2 135.31 147.97 135.3 148 Z M 134.6 145.4 C 134.3 145 133.8 144.8 133.4 144.8 C 132.5 144.8 132.1 145.5 132.1 146.2 C 132.1 146.9 132.6 147.5 133.4 147.5 C 133.8 147.5 134.4 147.3 134.6 146.8 C 134.6 146.8 134.6 145.4 134.6 145.4 Z M 137 146.4 C 137 147.1 137.5 147.7 138.3 147.7 C 138.8 147.7 139.2 147.5 139.5 147 C 139.5 147 140 147.4 140 147.4 C 139.6 148 139.1 148.3 138.3 148.3 C 137 148.3 136.3 147.4 136.3 146.2 C 136.3 145 137.1 144.1 138.3 144.1 C 139.3 144.1 140.1 144.9 140.1 146 C 140.1 146.1 140.1 146.3 140 146.4 C 140 146.4 137 146.4 137 146.4 Z M 137.1 145.8 C 137.1 145.8 139.3 145.8 139.3 145.8 C 139.3 145.2 138.9 144.7 138.3 144.7 C 137.6 144.7 137.2 145.2 137.1 145.8 Z M 141.8 144.9 C 142.1 144.4 142.4 144.1 142.8 144.1 C 143 144.1 143.1 144.1 143.3 144.1 C 143.3 144.1 143.1 144.9 143.1 144.9 C 143 144.9 142.9 144.8 142.8 144.8 C 142.4 144.8 142.1 145.1 141.8 145.5 C 141.81 145.51 141.8 148.2 141.8 148.2 L 141.1 148.2 L 141.1 144.2 L 141.8 144.2 C 141.8 144.2 141.81 144.85 141.8 144.9 Z M 145.9 148.2 L 145.9 144.2 L 146.7 144.2 L 146.7 148.2 L 145.9 148.2 Z M 145.9 143.4 L 145.9 142.6 L 146.7 142.6 L 146.7 143.4 L 145.9 143.4 Z M 148.7 144.2 C 148.7 144.2 148.74 144.85 148.7 144.8 C 149 144.4 149.5 144.1 150 144.1 C 150.6 144.1 151 144.3 151.2 144.6 C 151.5 145 151.6 145.5 151.6 146.1 C 151.57 146.11 151.6 148.2 151.6 148.2 L 150.8 148.2 C 150.8 148.2 150.84 146.19 150.8 146.2 C 150.8 145.8 150.8 145.4 150.6 145.1 C 150.5 144.9 150.3 144.8 149.9 144.8 C 149.5 144.8 149 145.1 148.7 145.5 C 148.74 145.53 148.7 148.2 148.7 148.2 L 148 148.2 L 148 144.2 L 148.7 144.2 Z M 155.6 144.8 C 155.6 144.8 155.63 146.64 155.6 146.6 C 155.6 146.7 155.6 146.8 155.6 147 C 155.7 147.4 155.8 147.6 156.2 147.6 C 156.4 147.6 156.5 147.6 156.6 147.5 C 156.6 147.5 156.8 148.1 156.8 148.1 C 156.6 148.2 156.4 148.3 156.1 148.3 C 155.5 148.3 155.2 148 155 147.6 C 154.9 147.4 154.9 147.1 154.9 146.8 C 154.9 146.81 154.9 144.8 154.9 144.8 L 154.4 144.8 L 154.4 144.2 L 154.9 144.2 L 154.9 143.2 L 155.6 143.2 L 155.6 144.2 L 156.7 144.2 L 156.7 144.8 L 155.6 144.8 Z M 158.4 144.8 C 158.7 144.4 159.1 144.1 159.7 144.1 C 160.2 144.1 160.6 144.3 160.8 144.6 C 161.1 145 161.2 145.5 161.2 146.1 C 161.18 146.11 161.2 148.2 161.2 148.2 L 160.5 148.2 C 160.5 148.2 160.45 146.19 160.5 146.2 C 160.5 145.8 160.4 145.4 160.2 145.1 C 160.1 144.9 159.9 144.8 159.5 144.8 C 159.1 144.8 158.6 145.1 158.4 145.5 C 158.36 145.53 158.4 148.2 158.4 148.2 L 157.6 148.2 L 157.6 142.2 L 158.4 142.2 C 158.4 142.2 158.36 144.85 158.4 144.8 Z M 162.9 146.4 C 162.9 147.1 163.4 147.7 164.2 147.7 C 164.7 147.7 165.1 147.5 165.3 147 C 165.3 147 165.9 147.4 165.9 147.4 C 165.5 148 164.9 148.3 164.1 148.3 C 162.9 148.3 162.1 147.4 162.1 146.2 C 162.1 145 163 144.1 164.1 144.1 C 165.2 144.1 165.9 144.9 165.9 146 C 165.9 146.1 165.9 146.3 165.9 146.4 C 165.9 146.4 162.9 146.4 162.9 146.4 Z M 162.9 145.8 C 162.9 145.8 165.2 145.8 165.2 145.8 C 165.2 145.2 164.7 144.7 164.1 144.7 C 163.5 144.7 163.1 145.2 162.9 145.8 Z M 169.7 148.2 L 169 148.2 L 169 142.2 L 169.7 142.2 L 169.7 148.2 Z M 173.4 148.2 C 173.4 148.2 173.41 147.77 173.4 147.8 C 173.1 148.1 172.7 148.3 172.2 148.3 C 171.5 148.3 170.8 147.9 170.8 147.1 C 170.8 146.1 171.7 145.7 172.6 145.7 C 172.8 145.7 173 145.8 173.4 145.8 C 173.4 145.8 173.4 145.7 173.4 145.7 C 173.4 145.1 173.1 144.7 172.4 144.7 C 172 144.7 171.5 144.9 171.2 145.1 C 171.2 145.1 170.9 144.5 170.9 144.5 C 171.4 144.3 172 144.1 172.5 144.1 C 173.7 144.1 174.1 144.7 174.1 145.8 C 174.1 145.76 174.1 148.2 174.1 148.2 L 173.4 148.2 Z M 173.4 146.4 C 173.1 146.3 172.9 146.3 172.7 146.3 C 172.2 146.3 171.5 146.4 171.5 147 C 171.5 147.5 171.9 147.7 172.3 147.7 C 172.7 147.7 173.1 147.5 173.4 147.2 C 173.4 147.2 173.4 146.4 173.4 146.4 Z M 176.1 144.2 C 176.1 144.2 176.12 144.73 176.1 144.7 C 176.4 144.3 176.9 144.1 177.4 144.1 C 178.5 144.1 179.4 145 179.4 146.2 C 179.4 147.3 178.6 148.3 177.4 148.3 C 176.9 148.3 176.4 148.1 176.1 147.8 C 176.12 147.76 176.1 150.2 176.1 150.2 L 175.4 150.2 L 175.4 144.2 L 176.1 144.2 Z M 176.1 147 C 176.4 147.4 176.9 147.6 177.3 147.6 C 178.2 147.6 178.7 146.9 178.7 146.2 C 178.7 145.4 178.1 144.8 177.3 144.8 C 176.9 144.8 176.3 145 176.1 145.5 C 176.1 145.5 176.1 147 176.1 147 Z M 186.1 146.2 C 186.1 147.4 185.3 148.3 184.1 148.3 C 182.9 148.3 182.1 147.4 182.1 146.2 C 182.1 145 182.9 144.1 184.1 144.1 C 185.3 144.1 186.1 145 186.1 146.2 Z M 184.1 144.8 C 183.4 144.8 182.8 145.4 182.8 146.2 C 182.8 147 183.4 147.6 184.1 147.6 C 184.9 147.6 185.4 147 185.4 146.2 C 185.4 145.4 184.9 144.8 184.1 144.8 Z M 189.2 142.9 C 189.1 142.8 188.9 142.8 188.7 142.8 C 188.5 142.8 188.3 142.8 188.2 142.9 C 188.1 143 188 143.3 188 143.7 C 188.04 143.69 188 144.2 188 144.2 L 189.1 144.2 L 189.1 144.8 L 188 144.8 L 188 148.2 L 187.3 148.2 L 187.3 144.8 L 186.9 144.8 L 186.9 144.2 L 187.3 144.2 C 187.3 144.2 187.31 143.61 187.3 143.6 C 187.3 143.2 187.4 142.8 187.6 142.6 C 187.8 142.3 188.1 142.1 188.6 142.1 C 188.9 142.1 189.2 142.2 189.4 142.3 C 189.4 142.3 189.2 142.9 189.2 142.9 Z M 192.6 148.2 L 191.9 148.2 L 191.9 142.2 L 192.6 142.2 L 192.6 148.2 Z M 196.7 147.5 C 196.4 148 195.9 148.3 195.4 148.3 C 194.8 148.3 194.5 148.1 194.2 147.8 C 194 147.4 193.9 146.9 193.9 146.3 C 193.88 146.27 193.9 144.2 193.9 144.2 L 194.6 144.2 C 194.6 144.2 194.6 146.19 194.6 146.2 C 194.6 146.6 194.6 147 194.8 147.3 C 194.9 147.5 195.2 147.6 195.5 147.6 C 196 147.6 196.4 147.3 196.7 146.8 C 196.7 146.85 196.7 144.2 196.7 144.2 L 197.4 144.2 L 197.4 148.2 L 196.7 148.2 C 196.7 148.2 196.7 147.53 196.7 147.5 Z M 200.5 146.1 L 202 148.2 L 201 148.2 L 200 146.7 L 199 148.2 L 198.1 148.2 L 199.6 146.2 L 198.2 144.2 L 199.1 144.2 L 200.1 145.6 L 201.1 144.2 L 201.9 144.2 L 200.5 146.1 Z M 205.5 147.5 C 205.2 148 204.7 148.3 204.2 148.3 C 203.6 148.3 203.2 148.1 203 147.8 C 202.7 147.4 202.6 146.9 202.6 146.3 C 202.65 146.27 202.6 144.2 202.6 144.2 L 203.4 144.2 C 203.4 144.2 203.37 146.19 203.4 146.2 C 203.4 146.6 203.4 147 203.6 147.3 C 203.7 147.5 203.9 147.6 204.3 147.6 C 204.7 147.6 205.2 147.3 205.5 146.8 C 205.47 146.85 205.5 144.2 205.5 144.2 L 206.2 144.2 L 206.2 148.2 L 205.5 148.2 C 205.5 148.2 205.47 147.53 205.5 147.5 Z M 208.3 144.9 C 208.5 144.4 208.9 144.1 209.3 144.1 C 209.5 144.1 209.6 144.1 209.7 144.1 C 209.7 144.1 209.6 144.9 209.6 144.9 C 209.5 144.9 209.4 144.8 209.2 144.8 C 208.8 144.8 208.5 145.1 208.3 145.5 C 208.27 145.51 208.3 148.2 208.3 148.2 L 207.5 148.2 L 207.5 144.2 L 208.3 144.2 C 208.3 144.2 208.27 144.85 208.3 144.9 Z M 210.7 144.2 L 211.8 147.2 L 211.8 147.2 L 212.9 144.2 L 213.7 144.2 L 211.4 150 L 210.8 149.7 L 211.4 148.1 L 209.9 144.2 L 210.7 144.2 Z M 219.9 147.3 L 219.9 147.3 L 220.7 144.2 L 221.4 144.2 L 220.3 148.2 L 219.5 148.2 L 218.6 145.1 L 218.6 145.1 L 217.7 148.2 L 216.9 148.2 L 215.8 144.2 L 216.6 144.2 L 217.4 147.3 L 217.4 147.3 L 218.3 144.2 L 219.1 144.2 L 219.9 147.3 Z M 222.2 148.2 L 222.2 144.2 L 223 144.2 L 223 148.2 L 222.2 148.2 Z M 222.2 143.4 L 222.2 142.6 L 223 142.6 L 223 143.4 L 222.2 143.4 Z M 225.1 144.8 C 225.1 144.8 225.08 146.64 225.1 146.6 C 225.1 146.7 225.1 146.8 225.1 147 C 225.1 147.4 225.2 147.6 225.6 147.6 C 225.8 147.6 226 147.6 226.1 147.5 C 226.1 147.5 226.3 148.1 226.3 148.1 C 226.1 148.2 225.8 148.3 225.5 148.3 C 225 148.3 224.6 148 224.5 147.6 C 224.4 147.4 224.3 147.1 224.3 146.8 C 224.35 146.81 224.3 144.8 224.3 144.8 L 223.8 144.8 L 223.8 144.2 L 224.3 144.2 L 224.3 143.2 L 225.1 143.2 L 225.1 144.2 L 226.2 144.2 L 226.2 144.8 L 225.1 144.8 Z M 227.8 144.8 C 228.1 144.4 228.6 144.1 229.1 144.1 C 229.7 144.1 230 144.3 230.3 144.6 C 230.5 145 230.6 145.5 230.6 146.1 C 230.63 146.11 230.6 148.2 230.6 148.2 L 229.9 148.2 C 229.9 148.2 229.9 146.19 229.9 146.2 C 229.9 145.8 229.9 145.4 229.7 145.1 C 229.6 144.9 229.3 144.8 229 144.8 C 228.5 144.8 228.1 145.1 227.8 145.5 C 227.8 145.53 227.8 148.2 227.8 148.2 L 227.1 148.2 L 227.1 142.2 L 227.8 142.2 C 227.8 142.2 227.8 144.85 227.8 144.8 Z M 237.7 146.2 C 237.7 147.4 236.8 148.3 235.6 148.3 C 234.5 148.3 233.6 147.4 233.6 146.2 C 233.6 145 234.5 144.1 235.6 144.1 C 236.8 144.1 237.7 145 237.7 146.2 Z M 235.6 144.8 C 234.9 144.8 234.3 145.4 234.3 146.2 C 234.3 147 234.9 147.6 235.6 147.6 C 236.4 147.6 236.9 147 236.9 146.2 C 236.9 145.4 236.4 144.8 235.6 144.8 Z M 241.5 147.5 C 241.2 148 240.7 148.3 240.1 148.3 C 239.6 148.3 239.2 148.1 239 147.8 C 238.7 147.4 238.6 146.9 238.6 146.3 C 238.63 146.27 238.6 144.2 238.6 144.2 L 239.4 144.2 C 239.4 144.2 239.36 146.19 239.4 146.2 C 239.4 146.6 239.4 147 239.6 147.3 C 239.7 147.5 239.9 147.6 240.3 147.6 C 240.7 147.6 241.2 147.3 241.5 146.8 C 241.45 146.85 241.5 144.2 241.5 144.2 L 242.2 144.2 L 242.2 148.2 L 241.5 148.2 C 241.5 148.2 241.45 147.53 241.5 147.5 Z M 244.3 144.9 C 244.5 144.4 244.9 144.1 245.3 144.1 C 245.5 144.1 245.6 144.1 245.7 144.1 C 245.7 144.1 245.6 144.9 245.6 144.9 C 245.5 144.9 245.4 144.8 245.2 144.8 C 244.8 144.8 244.5 145.1 244.3 145.5 C 244.25 145.51 244.3 148.2 244.3 148.2 L 243.5 148.2 L 243.5 144.2 L 244.3 144.2 C 244.3 144.2 244.25 144.85 244.3 144.9 Z M 250.3 145 C 250.1 144.8 249.8 144.7 249.5 144.7 C 249.2 144.7 248.9 144.9 248.9 145.2 C 248.9 145.5 249.3 145.7 249.7 145.8 C 250.2 146 250.9 146.3 250.9 147 C 250.9 147.9 250.2 148.3 249.4 148.3 C 248.9 148.3 248.4 148.1 248.1 147.7 C 248.1 147.7 248.6 147.3 248.6 147.3 C 248.8 147.5 249.1 147.7 249.4 147.7 C 249.8 147.7 250.2 147.5 250.2 147.1 C 250.2 146.8 249.8 146.6 249.4 146.4 C 248.9 146.2 248.2 146 248.2 145.3 C 248.2 144.5 248.9 144.1 249.5 144.1 C 250 144.1 250.4 144.2 250.8 144.5 C 250.8 144.5 250.3 145 250.3 145 Z M 255.7 146.2 C 255.7 147.4 254.9 148.3 253.7 148.3 C 252.5 148.3 251.7 147.4 251.7 146.2 C 251.7 145 252.5 144.1 253.7 144.1 C 254.9 144.1 255.7 145 255.7 146.2 Z M 253.7 144.8 C 252.9 144.8 252.4 145.4 252.4 146.2 C 252.4 147 252.9 147.6 253.7 147.6 C 254.4 147.6 255 147 255 146.2 C 255 145.4 254.4 144.8 253.7 144.8 Z M 258.8 142.9 C 258.6 142.8 258.5 142.8 258.3 142.8 C 258.1 142.8 257.9 142.8 257.8 142.9 C 257.6 143 257.6 143.3 257.6 143.7 C 257.62 143.69 257.6 144.2 257.6 144.2 L 258.6 144.2 L 258.6 144.8 L 257.6 144.8 L 257.6 148.2 L 256.9 148.2 L 256.9 144.8 L 256.4 144.8 L 256.4 144.2 L 256.9 144.2 C 256.9 144.2 256.89 143.61 256.9 143.6 C 256.9 143.2 257 142.8 257.1 142.6 C 257.3 142.3 257.7 142.1 258.2 142.1 C 258.5 142.1 258.8 142.2 259 142.3 C 259 142.3 258.8 142.9 258.8 142.9 Z M 260.2 144.8 C 260.2 144.8 260.2 146.64 260.2 146.6 C 260.2 146.7 260.2 146.8 260.2 147 C 260.2 147.4 260.4 147.6 260.8 147.6 C 260.9 147.6 261.1 147.6 261.2 147.5 C 261.2 147.5 261.4 148.1 261.4 148.1 C 261.2 148.2 260.9 148.3 260.7 148.3 C 260.1 148.3 259.8 148 259.6 147.6 C 259.5 147.4 259.5 147.1 259.5 146.8 C 259.48 146.81 259.5 144.8 259.5 144.8 L 259 144.8 L 259 144.2 L 259.5 144.2 L 259.5 143.2 L 260.2 143.2 L 260.2 144.2 L 261.3 144.2 L 261.3 144.8 L 260.2 144.8 Z M 262.7 149.3 L 262 149.3 L 262.4 147.3 L 263.2 147.3 L 262.7 149.3 Z M 268.3 145 C 268.1 144.8 267.8 144.7 267.5 144.7 C 267.2 144.7 266.9 144.9 266.9 145.2 C 266.9 145.5 267.3 145.7 267.7 145.8 C 268.2 146 268.9 146.3 268.9 147 C 268.9 147.9 268.2 148.3 267.4 148.3 C 266.9 148.3 266.3 148.1 266 147.7 C 266 147.7 266.5 147.3 266.5 147.3 C 266.8 147.5 267.1 147.7 267.4 147.7 C 267.8 147.7 268.1 147.5 268.1 147.1 C 268.1 146.8 267.8 146.6 267.4 146.4 C 266.8 146.2 266.2 146 266.2 145.3 C 266.2 144.5 266.9 144.1 267.5 144.1 C 268 144.1 268.4 144.2 268.7 144.5 C 268.7 144.5 268.3 145 268.3 145 Z M 270.7 148.2 L 270 148.2 L 270 142.2 L 270.7 142.2 L 270.7 148.2 Z M 272.4 146.4 C 272.5 147.1 273 147.7 273.7 147.7 C 274.3 147.7 274.7 147.5 274.9 147 C 274.9 147 275.4 147.4 275.4 147.4 C 275 148 274.5 148.3 273.7 148.3 C 272.4 148.3 271.7 147.4 271.7 146.2 C 271.7 145 272.6 144.1 273.7 144.1 C 274.7 144.1 275.5 144.9 275.5 146 C 275.5 146.1 275.5 146.3 275.5 146.4 C 275.5 146.4 272.4 146.4 272.4 146.4 Z M 272.5 145.8 C 272.5 145.8 274.8 145.8 274.8 145.8 C 274.7 145.2 274.3 144.7 273.7 144.7 C 273.1 144.7 272.6 145.2 272.5 145.8 Z M 276.9 146.4 C 277 147.1 277.4 147.7 278.2 147.7 C 278.7 147.7 279.2 147.5 279.4 147 C 279.4 147 279.9 147.4 279.9 147.4 C 279.5 148 279 148.3 278.2 148.3 C 276.9 148.3 276.2 147.4 276.2 146.2 C 276.2 145 277.1 144.1 278.2 144.1 C 279.2 144.1 280 144.9 280 146 C 280 146.1 280 146.3 280 146.4 C 280 146.4 276.9 146.4 276.9 146.4 Z M 277 145.8 C 277 145.8 279.2 145.8 279.2 145.8 C 279.2 145.2 278.8 144.7 278.2 144.7 C 277.5 144.7 277.1 145.2 277 145.8 Z M 283.5 148.2 L 282.4 146.4 L 281.7 147.1 L 281.7 148.2 L 281 148.2 L 281 142.2 L 281.7 142.2 L 281.7 146.2 L 281.7 146.2 L 283.4 144.2 L 284.3 144.2 L 282.9 145.8 L 284.4 148.2 L 283.5 148.2 Z M 289.1 145 C 288.9 144.8 288.5 144.7 288.3 144.7 C 287.9 144.7 287.7 144.9 287.7 145.2 C 287.7 145.5 288.1 145.7 288.4 145.8 C 289 146 289.6 146.3 289.6 147 C 289.6 147.9 288.9 148.3 288.2 148.3 C 287.6 148.3 287.1 148.1 286.8 147.7 C 286.8 147.7 287.3 147.3 287.3 147.3 C 287.6 147.5 287.9 147.7 288.2 147.7 C 288.6 147.7 288.9 147.5 288.9 147.1 C 288.9 146.8 288.5 146.6 288.1 146.4 C 287.6 146.2 287 146 287 145.3 C 287 144.5 287.6 144.1 288.3 144.1 C 288.7 144.1 289.2 144.2 289.5 144.5 C 289.5 144.5 289.1 145 289.1 145 Z M 291.1 146.4 C 291.2 147.1 291.6 147.7 292.4 147.7 C 292.9 147.7 293.4 147.5 293.6 147 C 293.6 147 294.1 147.4 294.1 147.4 C 293.7 148 293.2 148.3 292.4 148.3 C 291.1 148.3 290.4 147.4 290.4 146.2 C 290.4 145 291.3 144.1 292.4 144.1 C 293.4 144.1 294.2 144.9 294.2 146 C 294.2 146.1 294.2 146.3 294.2 146.4 C 294.2 146.4 291.1 146.4 291.1 146.4 Z M 291.2 145.8 C 291.2 145.8 293.4 145.8 293.4 145.8 C 293.4 145.2 293 144.7 292.4 144.7 C 291.7 144.7 291.3 145.2 291.2 145.8 Z M 295.9 148.2 L 295.2 148.2 L 295.2 142.2 L 295.9 142.2 L 295.9 148.2 Z M 297.7 146.4 C 297.7 147.1 298.2 147.7 299 147.7 C 299.5 147.7 299.9 147.5 300.1 147 C 300.1 147 300.7 147.4 300.7 147.4 C 300.3 148 299.7 148.3 298.9 148.3 C 297.7 148.3 296.9 147.4 296.9 146.2 C 296.9 145 297.8 144.1 298.9 144.1 C 300 144.1 300.7 144.9 300.7 146 C 300.7 146.1 300.7 146.3 300.7 146.4 C 300.7 146.4 297.7 146.4 297.7 146.4 Z M 297.7 145.8 C 297.7 145.8 300 145.8 300 145.8 C 300 145.2 299.5 144.7 298.9 144.7 C 298.3 144.7 297.9 145.2 297.7 145.8 Z M 304.7 147.9 C 304.4 148.1 303.9 148.3 303.5 148.3 C 302.3 148.3 301.4 147.5 301.4 146.2 C 301.4 145 302.3 144.1 303.5 144.1 C 303.9 144.1 304.3 144.2 304.6 144.4 C 304.6 144.4 304.3 145 304.3 145 C 304.1 144.9 303.8 144.8 303.5 144.8 C 302.8 144.8 302.2 145.4 302.2 146.2 C 302.2 147.1 302.8 147.6 303.5 147.6 C 303.7 147.6 304.1 147.5 304.3 147.3 C 304.3 147.3 304.7 147.9 304.7 147.9 Z M 306.4 144.8 C 306.4 144.8 306.44 146.64 306.4 146.6 C 306.4 146.7 306.4 146.8 306.5 147 C 306.5 147.4 306.6 147.6 307 147.6 C 307.2 147.6 307.3 147.6 307.5 147.5 C 307.5 147.5 307.7 148.1 307.7 148.1 C 307.5 148.2 307.2 148.3 306.9 148.3 C 306.4 148.3 306 148 305.8 147.6 C 305.7 147.4 305.7 147.1 305.7 146.8 C 305.72 146.81 305.7 144.8 305.7 144.8 L 305.2 144.8 L 305.2 144.2 L 305.7 144.2 L 305.7 143.2 L 306.4 143.2 L 306.4 144.2 L 307.6 144.2 L 307.6 144.8 L 306.4 144.8 Z M 308.4 148.2 L 308.4 144.2 L 309.2 144.2 L 309.2 148.2 L 308.4 148.2 Z M 308.4 143.4 L 308.4 142.6 L 309.2 142.6 L 309.2 143.4 L 308.4 143.4 Z M 314.3 146.2 C 314.3 147.4 313.4 148.3 312.2 148.3 C 311.1 148.3 310.2 147.4 310.2 146.2 C 310.2 145 311.1 144.1 312.2 144.1 C 313.4 144.1 314.3 145 314.3 146.2 Z M 312.2 144.8 C 311.5 144.8 310.9 145.4 310.9 146.2 C 310.9 147 311.5 147.6 312.2 147.6 C 313 147.6 313.5 147 313.5 146.2 C 313.5 145.4 313 144.8 312.2 144.8 Z M 316 144.2 C 316 144.2 315.99 144.85 316 144.8 C 316.3 144.4 316.8 144.1 317.3 144.1 C 317.9 144.1 318.2 144.3 318.5 144.6 C 318.7 145 318.8 145.5 318.8 146.1 C 318.82 146.11 318.8 148.2 318.8 148.2 L 318.1 148.2 C 318.1 148.2 318.09 146.19 318.1 146.2 C 318.1 145.8 318.1 145.4 317.9 145.1 C 317.8 144.9 317.5 144.8 317.2 144.8 C 316.7 144.8 316.3 145.1 316 145.5 C 315.99 145.53 316 148.2 316 148.2 L 315.3 148.2 L 315.3 144.2 L 316 144.2 Z M 325.9 146.2 C 325.9 147.4 325 148.3 323.8 148.3 C 322.7 148.3 321.8 147.4 321.8 146.2 C 321.8 145 322.7 144.1 323.8 144.1 C 325 144.1 325.9 145 325.9 146.2 Z M 323.8 144.8 C 323.1 144.8 322.5 145.4 322.5 146.2 C 322.5 147 323.1 147.6 323.8 147.6 C 324.6 147.6 325.1 147 325.1 146.2 C 325.1 145.4 324.6 144.8 323.8 144.8 Z M 328.9 142.9 C 328.8 142.8 328.6 142.8 328.4 142.8 C 328.2 142.8 328.1 142.8 328 142.9 C 327.8 143 327.7 143.3 327.7 143.7 C 327.75 143.69 327.7 144.2 327.7 144.2 L 328.8 144.2 L 328.8 144.8 L 327.7 144.8 L 327.7 148.2 L 327 148.2 L 327 144.8 L 326.6 144.8 L 326.6 144.2 L 327 144.2 C 327 144.2 327.02 143.61 327 143.6 C 327 143.2 327.1 142.8 327.3 142.6 C 327.5 142.3 327.8 142.1 328.3 142.1 C 328.6 142.1 328.9 142.2 329.1 142.3 C 329.1 142.3 328.9 142.9 328.9 142.9 Z M 333.5 145 C 333.3 144.8 333 144.7 332.7 144.7 C 332.4 144.7 332.1 144.9 332.1 145.2 C 332.1 145.5 332.5 145.7 332.9 145.8 C 333.4 146 334.1 146.3 334.1 147 C 334.1 147.9 333.4 148.3 332.6 148.3 C 332.1 148.3 331.5 148.1 331.2 147.7 C 331.2 147.7 331.7 147.3 331.7 147.3 C 332 147.5 332.3 147.7 332.6 147.7 C 333 147.7 333.3 147.5 333.3 147.1 C 333.3 146.8 333 146.6 332.6 146.4 C 332 146.2 331.4 146 331.4 145.3 C 331.4 144.5 332.1 144.1 332.7 144.1 C 333.2 144.1 333.6 144.2 333.9 144.5 C 333.9 144.5 333.5 145 333.5 145 Z M 335.6 146.4 C 335.6 147.1 336.1 147.7 336.9 147.7 C 337.4 147.7 337.8 147.5 338 147 C 338 147 338.6 147.4 338.6 147.4 C 338.2 148 337.6 148.3 336.8 148.3 C 335.5 148.3 334.8 147.4 334.8 146.2 C 334.8 145 335.7 144.1 336.8 144.1 C 337.9 144.1 338.6 144.9 338.6 146 C 338.6 146.1 338.6 146.3 338.6 146.4 C 338.6 146.4 335.6 146.4 335.6 146.4 Z M 335.6 145.8 C 335.6 145.8 337.9 145.8 337.9 145.8 C 337.9 145.2 337.4 144.7 336.8 144.7 C 336.2 144.7 335.8 145.2 335.6 145.8 Z M 342 148.2 C 342 148.2 342.03 147.77 342 147.8 C 341.7 148.1 341.3 148.3 340.8 148.3 C 340.1 148.3 339.4 147.9 339.4 147.1 C 339.4 146.1 340.3 145.7 341.2 145.7 C 341.4 145.7 341.7 145.8 342 145.8 C 342 145.8 342 145.7 342 145.7 C 342 145.1 341.7 144.7 341.1 144.7 C 340.6 144.7 340.1 144.9 339.8 145.1 C 339.8 145.1 339.6 144.5 339.6 144.5 C 340 144.3 340.6 144.1 341.1 144.1 C 342.3 144.1 342.7 144.7 342.7 145.8 C 342.72 145.76 342.7 148.2 342.7 148.2 L 342 148.2 Z M 342 146.4 C 341.7 146.3 341.5 146.3 341.3 146.3 C 340.8 146.3 340.1 146.4 340.1 147 C 340.1 147.5 340.5 147.7 340.9 147.7 C 341.3 147.7 341.7 147.5 342 147.2 C 342 147.2 342 146.4 342 146.4 Z M 344.8 144.8 C 344.8 144.8 344.79 146.64 344.8 146.6 C 344.8 146.7 344.8 146.8 344.8 147 C 344.8 147.4 345 147.6 345.4 147.6 C 345.5 147.6 345.7 147.6 345.8 147.5 C 345.8 147.5 346 148.1 346 148.1 C 345.8 148.2 345.5 148.3 345.3 148.3 C 344.7 148.3 344.4 148 344.2 147.6 C 344.1 147.4 344.1 147.1 344.1 146.8 C 344.06 146.81 344.1 144.8 344.1 144.8 L 343.5 144.8 L 343.5 144.2 L 344.1 144.2 L 344.1 143.2 L 344.8 143.2 L 344.8 144.2 L 345.9 144.2 L 345.9 144.8 L 344.8 144.8 Z M 348.7 145 C 348.6 144.8 348.2 144.7 347.9 144.7 C 347.6 144.7 347.3 144.9 347.3 145.2 C 347.3 145.5 347.7 145.7 348.1 145.8 C 348.6 146 349.3 146.3 349.3 147 C 349.3 147.9 348.6 148.3 347.8 148.3 C 347.3 148.3 346.8 148.1 346.5 147.7 C 346.5 147.7 347 147.3 347 147.3 C 347.2 147.5 347.5 147.7 347.8 147.7 C 348.2 147.7 348.6 147.5 348.6 147.1 C 348.6 146.8 348.2 146.6 347.8 146.4 C 347.3 146.2 346.7 146 346.7 145.3 C 346.7 144.5 347.3 144.1 347.9 144.1 C 348.4 144.1 348.9 144.2 349.2 144.5 C 349.2 144.5 348.7 145 348.7 145 Z M 354.8 148.2 C 354.8 148.2 354.77 147.77 354.8 147.8 C 354.4 148.1 354.1 148.3 353.6 148.3 C 352.8 148.3 352.2 147.9 352.2 147.1 C 352.2 146.1 353.1 145.7 353.9 145.7 C 354.1 145.7 354.4 145.8 354.7 145.8 C 354.7 145.8 354.7 145.7 354.7 145.7 C 354.7 145.1 354.5 144.7 353.8 144.7 C 353.3 144.7 352.8 144.9 352.5 145.1 C 352.5 145.1 352.3 144.5 352.3 144.5 C 352.7 144.3 353.3 144.1 353.9 144.1 C 355 144.1 355.5 144.7 355.5 145.8 C 355.47 145.76 355.5 148.2 355.5 148.2 L 354.8 148.2 Z M 354.7 146.4 C 354.4 146.3 354.2 146.3 354 146.3 C 353.5 146.3 352.9 146.4 352.9 147 C 352.9 147.5 353.2 147.7 353.7 147.7 C 354.1 147.7 354.4 147.5 354.7 147.2 C 354.7 147.2 354.7 146.4 354.7 146.4 Z M 357.5 144.2 C 357.5 144.2 357.49 144.85 357.5 144.8 C 357.8 144.4 358.3 144.1 358.8 144.1 C 359.4 144.1 359.7 144.3 360 144.6 C 360.2 145 360.3 145.5 360.3 146.1 C 360.31 146.11 360.3 148.2 360.3 148.2 L 359.6 148.2 C 359.6 148.2 359.59 146.19 359.6 146.2 C 359.6 145.8 359.6 145.4 359.4 145.1 C 359.3 144.9 359 144.8 358.7 144.8 C 358.2 144.8 357.8 145.1 357.5 145.5 C 357.49 145.53 357.5 148.2 357.5 148.2 L 356.8 148.2 L 356.8 144.2 L 357.5 144.2 Z M 361.3 146.2 C 361.3 145.1 362.1 144.1 363.3 144.1 C 363.8 144.1 364.2 144.3 364.5 144.6 C 364.55 144.63 364.5 142.2 364.5 142.2 L 365.3 142.2 L 365.3 148.2 L 364.5 148.2 C 364.5 148.2 364.55 147.65 364.5 147.7 C 364.3 148.1 363.8 148.3 363.3 148.3 C 362.1 148.3 361.3 147.4 361.3 146.2 Z M 364.5 146.9 C 364.5 146.9 364.5 145.4 364.5 145.4 C 364.3 145 363.8 144.8 363.4 144.8 C 362.5 144.8 362 145.5 362 146.2 C 362 146.9 362.5 147.6 363.4 147.6 C 363.8 147.6 364.3 147.4 364.5 146.9 Z " stroke="none" fill="#535a5d"/>  </g>  <g id="Polygon41482">    <path d="M 91.7 105.3 L 91.7 104.1 L 95.3 104.1 C 95.3 104.1 95.34 107.58 95.3 107.6 C 94.4 108.7 93.1 109.3 91.6 109.3 C 88.8 109.3 86.7 107.4 86.7 104.6 C 86.7 102 88.9 99.9 91.6 99.9 C 93 99.9 94.2 100.6 95.1 101.6 C 95.1 101.6 94.2 102.4 94.2 102.4 C 93.5 101.7 92.6 101.2 91.6 101.2 C 89.6 101.2 88.2 102.6 88.2 104.6 C 88.2 106.8 89.5 108.1 91.6 108.1 C 92.5 108.1 93.3 107.8 94 107.2 C 93.95 107.18 94 105.3 94 105.3 L 91.7 105.3 Z M 98.2 109.2 L 98.2 100.1 L 99.6 100.1 L 99.6 108 L 103.5 108 L 103.5 109.2 L 98.2 109.2 Z M 110.7 107.3 L 107 107.3 L 106.3 109.2 L 104.8 109.2 L 108.3 100.1 L 109.5 100.1 L 113 109.2 L 111.4 109.2 L 110.7 107.3 Z M 107.4 106.1 L 110.3 106.1 L 108.8 102.2 L 108.8 102.2 L 107.4 106.1 Z M 120.4 109.2 L 119.4 109.2 L 116.5 101.8 L 116.5 109.2 L 115.1 109.2 L 115.1 100.1 L 117.2 100.1 L 119.9 107 L 122.7 100.1 L 124.8 100.1 L 124.8 109.2 L 123.4 109.2 L 123.4 101.8 L 120.4 109.2 Z M 134.6 101.2 C 133.7 101.2 133.1 101.6 133.1 102.3 C 133.1 103.1 134 103.4 134.9 103.7 C 136.2 104.1 137.7 104.7 137.7 106.5 C 137.7 108.5 135.9 109.3 134.4 109.3 C 133.1 109.3 132.1 108.9 131.1 107.9 C 131.1 107.9 132.1 107 132.1 107 C 132.9 107.8 133.5 108.1 134.5 108.1 C 135.3 108.1 136.2 107.7 136.2 106.6 C 136.2 105.7 135.3 105.4 134.2 105 C 133 104.6 131.7 104 131.7 102.5 C 131.7 100.7 133 99.9 134.5 99.9 C 135.6 99.9 136.5 100.3 137.4 100.9 C 137.4 100.9 136.5 101.9 136.5 101.9 C 136.1 101.5 135.3 101.2 134.6 101.2 Z M 140.2 109.2 L 140.2 100.1 L 145.7 100.1 L 145.7 101.3 L 141.6 101.3 L 141.6 103.9 L 145.7 103.9 L 145.7 105.1 L 141.6 105.1 L 141.6 108 L 145.7 108 L 145.7 109.2 L 140.2 109.2 Z M 153.5 107.3 L 149.8 107.3 L 149.1 109.2 L 147.5 109.2 L 151.1 100.1 L 152.3 100.1 L 155.8 109.2 L 154.2 109.2 L 153.5 107.3 Z M 150.2 106.1 L 153 106.1 L 151.6 102.2 L 151.6 102.2 L 150.2 106.1 Z M 160 101.3 L 160 109.2 L 158.6 109.2 L 158.6 101.3 L 156.3 101.3 L 156.3 100.1 L 162.2 100.1 L 162.2 101.3 L 160 101.3 Z M 164.3 109.2 L 164.3 100.1 L 165.7 100.1 L 165.7 109.2 L 164.3 109.2 Z M 174.9 109.2 L 170.1 102.7 L 170.1 109.2 L 168.7 109.2 L 168.7 100.1 L 169.9 100.1 L 174.7 106.6 L 174.7 100.1 L 176.1 100.1 L 176.1 109.2 L 174.9 109.2 Z M 183.7 105.3 L 183.7 104.1 L 187.4 104.1 C 187.4 104.1 187.37 107.58 187.4 107.6 C 186.5 108.7 185.1 109.3 183.6 109.3 C 180.8 109.3 178.7 107.4 178.7 104.6 C 178.7 102 180.9 99.9 183.6 99.9 C 185 99.9 186.3 100.6 187.2 101.6 C 187.2 101.6 186.2 102.4 186.2 102.4 C 185.6 101.7 184.6 101.2 183.6 101.2 C 181.6 101.2 180.2 102.6 180.2 104.6 C 180.2 106.8 181.6 108.1 183.6 108.1 C 184.5 108.1 185.4 107.8 186 107.2 C 185.98 107.18 186 105.3 186 105.3 L 183.7 105.3 Z M 196.8 101.3 L 196.8 109.2 L 195.4 109.2 L 195.4 101.3 L 193.1 101.3 L 193.1 100.1 L 199.1 100.1 L 199.1 101.3 L 196.8 101.3 Z M 207.1 109.2 L 207.1 105.1 L 202.5 105.1 L 202.5 109.2 L 201.1 109.2 L 201.1 100.1 L 202.5 100.1 L 202.5 103.9 L 207.1 103.9 L 207.1 100.1 L 208.5 100.1 L 208.5 109.2 L 207.1 109.2 Z M 216.5 107.3 L 212.8 107.3 L 212.1 109.2 L 210.6 109.2 L 214.1 100.1 L 215.3 100.1 L 218.8 109.2 L 217.2 109.2 L 216.5 107.3 Z M 213.2 106.1 L 216.1 106.1 L 214.7 102.2 L 214.6 102.2 L 213.2 106.1 Z M 223 101.3 L 223 109.2 L 221.6 109.2 L 221.6 101.3 L 219.3 101.3 L 219.3 100.1 L 225.2 100.1 L 225.2 101.3 L 223 101.3 Z M 238.3 106.7 L 238.3 106.7 L 240.1 100.1 L 241.7 100.1 L 239.1 109.2 L 237.7 109.2 L 235.9 102.5 L 235.9 102.5 L 233.9 109.2 L 232.6 109.2 L 230.1 100.1 L 231.6 100.1 L 233.4 106.7 L 233.4 106.7 L 235.2 100.1 L 236.5 100.1 L 238.3 106.7 Z M 246.4 100.1 C 247.8 100.1 249.6 100.8 249.6 102.7 C 249.6 104.3 248.5 105 247.4 105.3 C 247.43 105.29 250.3 109.2 250.3 109.2 L 248.5 109.2 L 245.9 105.4 L 245.1 105.4 L 245.1 109.2 L 243.7 109.2 L 243.7 100.1 C 243.7 100.1 246.43 100.09 246.4 100.1 Z M 245.1 104.2 C 245.1 104.2 246.11 104.17 246.1 104.2 C 247.3 104.2 248.1 103.8 248.1 102.8 C 248.1 101.9 247.4 101.3 246.4 101.3 C 246.36 101.31 245.1 101.3 245.1 101.3 L 245.1 104.2 Z M 257.6 107.3 L 253.8 107.3 L 253.2 109.2 L 251.6 109.2 L 255.2 100.1 L 256.4 100.1 L 259.9 109.2 L 258.2 109.2 L 257.6 107.3 Z M 254.3 106.1 L 257.1 106.1 L 255.7 102.2 L 255.7 102.2 L 254.3 106.1 Z M 264.7 100.1 C 266.2 100.1 268 100.8 268 102.8 C 268 104.9 266.2 105.6 264.7 105.6 C 264.7 105.6 263.3 105.6 263.3 105.6 L 263.3 109.2 L 261.9 109.2 L 261.9 100.1 C 261.9 100.1 264.7 100.09 264.7 100.1 Z M 263.3 104.4 C 263.3 104.4 264.39 104.38 264.4 104.4 C 265.6 104.4 266.5 104 266.5 102.9 C 266.5 101.9 265.7 101.3 264.6 101.3 C 264.64 101.31 263.3 101.3 263.3 101.3 L 263.3 104.4 Z M 273 101.2 C 272.1 101.2 271.5 101.6 271.5 102.3 C 271.5 103.1 272.3 103.4 273.3 103.7 C 274.6 104.1 276.1 104.7 276.1 106.5 C 276.1 108.5 274.3 109.3 272.8 109.3 C 271.5 109.3 270.5 108.9 269.5 107.9 C 269.5 107.9 270.5 107 270.5 107 C 271.3 107.8 271.9 108.1 272.8 108.1 C 273.7 108.1 274.6 107.7 274.6 106.6 C 274.6 105.7 273.6 105.4 272.6 105 C 271.4 104.6 270.1 104 270.1 102.5 C 270.1 100.7 271.4 99.9 272.9 99.9 C 274 99.9 274.9 100.3 275.8 100.9 C 275.8 100.9 274.9 101.9 274.9 101.9 C 274.5 101.5 273.7 101.2 273 101.2 Z M 284.4 109.2 L 284.4 105.3 L 281.5 100.1 L 283.2 100.1 L 285.1 103.8 L 285.1 103.8 L 287.1 100.1 L 288.7 100.1 L 285.7 105.3 L 285.7 109.2 L 284.4 109.2 Z M 294.5 101.2 C 292.6 101.2 291.3 102.7 291.3 104.6 C 291.3 106.6 292.6 108.1 294.5 108.1 C 296.4 108.1 297.7 106.6 297.7 104.6 C 297.7 102.7 296.4 101.2 294.5 101.2 Z M 294.5 109.3 C 291.8 109.3 289.8 107.2 289.8 104.6 C 289.8 102 291.8 99.9 294.5 99.9 C 297.2 99.9 299.2 102 299.2 104.6 C 299.2 107.2 297.2 109.3 294.5 109.3 Z M 308.8 104.9 C 308.8 107.8 307.8 109.3 305.2 109.3 C 302.8 109.3 301.7 107.8 301.7 104.9 C 301.71 104.91 301.7 100.1 301.7 100.1 L 303.1 100.1 C 303.1 100.1 303.1 105.21 303.1 105.2 C 303.1 107.2 303.9 108.1 305.3 108.1 C 306.6 108.1 307.4 107.2 307.4 105.2 C 307.43 105.21 307.4 100.1 307.4 100.1 L 308.8 100.1 C 308.8 100.1 308.82 104.91 308.8 104.9 Z M 315.7 109.2 L 315.7 100.1 L 317.1 100.1 L 317.1 109.2 L 315.7 109.2 Z M 326.3 109.2 L 321.5 102.7 L 321.5 109.2 L 320.1 109.2 L 320.1 100.1 L 321.3 100.1 L 326.1 106.6 L 326.1 100.1 L 327.5 100.1 L 327.5 109.2 L 326.3 109.2 Z M 338.9 108.1 C 339.6 108.1 340.3 107.9 340.9 107.4 C 340.9 107.4 341.6 108.5 341.6 108.5 C 340.8 109 339.9 109.3 338.9 109.3 C 336.1 109.3 334 107.5 334 104.6 C 334 102 336.2 99.9 338.9 99.9 C 339.8 99.9 340.6 100.2 341.4 100.7 C 341.4 100.7 340.7 101.8 340.7 101.8 C 340.2 101.4 339.6 101.2 338.9 101.2 C 336.9 101.2 335.5 102.6 335.5 104.6 C 335.5 106.8 336.9 108.1 338.9 108.1 Z M 347.5 101.2 C 345.7 101.2 344.3 102.7 344.3 104.6 C 344.3 106.6 345.7 108.1 347.5 108.1 C 349.4 108.1 350.8 106.6 350.8 104.6 C 350.8 102.7 349.4 101.2 347.5 101.2 Z M 347.5 109.3 C 344.9 109.3 342.8 107.2 342.8 104.6 C 342.8 102 344.9 99.9 347.5 99.9 C 350.2 99.9 352.2 102 352.2 104.6 C 352.2 107.2 350.2 109.3 347.5 109.3 Z M 360.1 109.2 L 359.2 109.2 L 356.2 101.8 L 356.2 109.2 L 354.8 109.2 L 354.8 100.1 L 357 100.1 L 359.7 107 L 362.4 100.1 L 364.5 100.1 L 364.5 109.2 L 363.2 109.2 L 363.2 101.8 L 360.1 109.2 Z M 368.9 105.4 L 368.9 109.2 L 367.6 109.2 L 367.6 100.1 L 372.3 100.1 L 372.3 101.3 L 368.9 101.3 L 368.9 104.1 L 372.3 104.1 L 372.3 105.4 L 368.9 105.4 Z M 378.9 101.2 C 377.1 101.2 375.7 102.7 375.7 104.6 C 375.7 106.6 377.1 108.1 378.9 108.1 C 380.8 108.1 382.2 106.6 382.2 104.6 C 382.2 102.7 380.8 101.2 378.9 101.2 Z M 378.9 109.3 C 376.3 109.3 374.2 107.2 374.2 104.6 C 374.2 102 376.3 99.9 378.9 99.9 C 381.6 99.9 383.6 102 383.6 104.6 C 383.6 107.2 381.6 109.3 378.9 109.3 Z M 389 100.1 C 390.4 100.1 392.1 100.8 392.1 102.7 C 392.1 104.3 391 105 390 105.3 C 389.96 105.29 392.8 109.2 392.8 109.2 L 391.1 109.2 L 388.4 105.4 L 387.6 105.4 L 387.6 109.2 L 386.2 109.2 L 386.2 100.1 C 386.2 100.1 388.96 100.09 389 100.1 Z M 387.6 104.2 C 387.6 104.2 388.64 104.17 388.6 104.2 C 389.8 104.2 390.6 103.8 390.6 102.8 C 390.6 101.9 389.9 101.3 388.9 101.3 C 388.89 101.31 387.6 101.3 387.6 101.3 L 387.6 104.2 Z M 397.6 101.3 L 397.6 109.2 L 396.2 109.2 L 396.2 101.3 L 393.9 101.3 L 393.9 100.1 L 399.8 100.1 L 399.8 101.3 L 397.6 101.3 Z " stroke="none" fill="#535a5d"/>  </g>  <g id="Polygon41481">    <path d="M 156.8 32.2 C 157.3 32.3 157.7 32.3 158.2 32.3 C 158.6 32.3 159.1 32.3 159.5 32.2 C 159.9 32.1 160.3 31.9 160.7 31.7 C 161.1 31.4 161.4 31.1 161.6 30.7 C 161.8 30.2 162 29.7 162 29 C 162 28.4 161.9 27.9 161.7 27.6 C 161.6 27.2 161.3 26.9 161.1 26.7 C 160.8 26.5 160.4 26.4 160 26.3 C 159.6 26.3 159.1 26.2 158.6 26.2 C 158.6 26.23 156.8 26.2 156.8 26.2 C 156.8 26.2 156.8 32.17 156.8 32.2 Z M 155.2 30.7 C 155.2 29.8 155.1 28.9 155.1 28.1 C 155.1 27.2 155 26.4 155 25.5 C 155.3 25.5 155.6 25.5 156 25.6 C 156.3 25.6 156.6 25.6 156.9 25.6 C 157.1 25.6 157.3 25.6 157.5 25.6 C 157.7 25.6 158 25.5 158.2 25.5 C 158.4 25.5 158.7 25.5 158.9 25.5 C 159.1 25.5 159.3 25.5 159.4 25.5 C 159.6 25.5 159.9 25.5 160.2 25.5 C 160.5 25.5 160.8 25.6 161.1 25.6 C 161.4 25.7 161.7 25.8 162.1 25.9 C 162.4 26.1 162.7 26.3 162.9 26.5 C 163.2 26.8 163.4 27.1 163.6 27.5 C 163.7 27.8 163.8 28.3 163.8 28.9 C 163.8 29.7 163.6 30.5 163.2 31 C 162.9 31.6 162.4 32 161.8 32.3 C 161.3 32.6 160.7 32.8 160.1 32.9 C 159.5 33 158.9 33.1 158.4 33.1 C 158.1 33.1 157.8 33.1 157.6 33.1 C 157.3 33.1 157.1 33 156.8 33 C 156.8 33 156.8 34.1 156.8 34.1 C 156.8 35 156.8 35.9 156.9 36.7 C 156.9 37.6 156.9 38.4 157 39.2 C 156.7 39.2 156.3 39.2 156 39.2 C 155.6 39.2 155.3 39.2 155 39.2 C 155 38.4 155.1 37.6 155.1 36.7 C 155.1 35.9 155.2 35 155.2 34.1 C 155.2 34.1 155.2 30.7 155.2 30.7 Z M 167.3 30.6 C 167.3 29.8 167.3 28.9 167.2 28 C 167.2 27.2 167.2 26.3 167.1 25.5 C 167.7 25.5 168.3 25.5 168.9 25.6 C 169.5 25.6 170.1 25.6 170.7 25.6 C 171.3 25.6 171.9 25.6 172.5 25.6 C 173.1 25.5 173.7 25.5 174.3 25.5 C 174.2 25.7 174.2 25.9 174.2 26.1 C 174.2 26.3 174.2 26.5 174.3 26.7 C 173.8 26.7 173.4 26.6 173.1 26.6 C 172.7 26.6 172.4 26.6 172 26.5 C 171.6 26.5 171.1 26.5 170.7 26.5 C 170.2 26.4 169.7 26.4 169 26.4 C 169 26.9 169 27.3 169 27.6 C 168.9 28 168.9 28.5 168.9 29 C 168.9 29.5 168.9 30 168.9 30.5 C 168.9 31 168.9 31.4 168.9 31.6 C 169.5 31.6 170.1 31.6 170.5 31.6 C 171 31.6 171.4 31.6 171.8 31.5 C 172.2 31.5 172.5 31.5 172.9 31.5 C 173.2 31.5 173.5 31.4 173.8 31.4 C 173.8 31.6 173.7 31.8 173.7 32 C 173.7 32.2 173.8 32.4 173.8 32.6 C 173.5 32.6 173.1 32.6 172.6 32.5 C 172.1 32.5 171.7 32.5 171.2 32.5 C 170.8 32.5 170.3 32.5 169.9 32.5 C 169.5 32.5 169.2 32.4 168.9 32.4 C 168.9 32.6 168.9 32.7 168.9 32.8 C 168.9 33 168.9 33.2 168.9 33.4 C 168.92 33.37 168.9 34.1 168.9 34.1 C 168.9 34.1 168.92 35.35 168.9 35.3 C 168.9 36.1 168.9 36.7 168.9 37.2 C 168.9 37.7 168.9 38.1 169 38.3 C 169.4 38.3 169.9 38.3 170.4 38.3 C 170.9 38.3 171.4 38.3 171.9 38.3 C 172.3 38.3 172.8 38.3 173.2 38.2 C 173.7 38.2 174 38.2 174.4 38.1 C 174.3 38.2 174.3 38.3 174.3 38.4 C 174.3 38.5 174.3 38.6 174.3 38.7 C 174.3 38.9 174.3 39.1 174.4 39.2 C 173.8 39.2 173.2 39.2 172.6 39.2 C 172 39.2 171.4 39.2 170.8 39.2 C 170.1 39.2 169.5 39.2 168.9 39.2 C 168.3 39.2 167.7 39.2 167.1 39.2 C 167.2 38.4 167.2 37.5 167.2 36.7 C 167.3 35.8 167.3 35 167.3 34.1 C 167.28 34.09 167.3 30.6 167.3 30.6 C 167.3 30.6 167.28 30.65 167.3 30.6 Z M 178.3 30.7 C 178.3 29.8 178.3 28.9 178.2 28.1 C 178.2 27.2 178.2 26.4 178.1 25.5 C 178.5 25.5 178.9 25.5 179.3 25.6 C 179.6 25.6 180 25.6 180.4 25.6 C 180.8 25.6 181.2 25.6 181.5 25.5 C 181.9 25.5 182.3 25.5 182.7 25.5 C 183.2 25.5 183.8 25.5 184.3 25.6 C 184.8 25.8 185.2 25.9 185.6 26.2 C 186 26.4 186.3 26.7 186.5 27.1 C 186.7 27.5 186.8 28 186.8 28.6 C 186.8 29.3 186.7 29.8 186.4 30.3 C 186.1 30.8 185.8 31.1 185.4 31.4 C 184.9 31.7 184.5 32 184 32.1 C 183.6 32.3 183.1 32.4 182.7 32.5 C 182.9 32.7 183.1 32.9 183.4 33.3 C 183.7 33.7 184 34.1 184.3 34.5 C 184.7 34.9 185 35.4 185.4 35.9 C 185.8 36.3 186.2 36.8 186.5 37.2 C 186.8 37.7 187.2 38 187.5 38.4 C 187.8 38.8 188 39 188.2 39.2 C 188 39.2 187.8 39.2 187.6 39.2 C 187.4 39.2 187.2 39.2 187 39.2 C 186.8 39.2 186.6 39.2 186.4 39.2 C 186.2 39.2 186 39.2 185.9 39.2 C 185.7 38.9 185.4 38.5 185 38 C 184.5 37.4 184.1 36.8 183.6 36.2 C 183.1 35.5 182.6 34.9 182.1 34.3 C 181.6 33.6 181.1 33.1 180.7 32.6 C 180.68 32.65 179.9 32.6 179.9 32.6 C 179.9 32.6 179.92 34.11 179.9 34.1 C 179.9 35 179.9 35.9 180 36.7 C 180 37.6 180 38.4 180.1 39.2 C 179.8 39.2 179.4 39.2 179.1 39.2 C 178.8 39.2 178.4 39.2 178.1 39.2 C 178.2 38.4 178.2 37.6 178.2 36.7 C 178.3 35.9 178.3 35 178.3 34.1 C 178.3 34.1 178.3 30.7 178.3 30.7 Z M 179.9 31.8 C 180.1 31.8 180.3 31.9 180.5 31.9 C 180.8 31.9 181 31.9 181.3 31.9 C 181.7 31.9 182.1 31.9 182.6 31.8 C 183 31.7 183.4 31.5 183.8 31.3 C 184.2 31 184.5 30.7 184.7 30.3 C 185 29.9 185.1 29.4 185.1 28.8 C 185.1 28.3 185 27.9 184.8 27.6 C 184.6 27.2 184.3 26.9 184 26.7 C 183.7 26.5 183.4 26.4 183 26.3 C 182.7 26.3 182.3 26.2 182 26.2 C 181.5 26.2 181.1 26.2 180.8 26.3 C 180.5 26.3 180.3 26.3 180 26.3 C 180 27.1 180 27.8 180 28.5 C 179.9 29.2 179.9 29.9 179.9 30.7 C 179.9 30.7 179.9 31.8 179.9 31.8 Z M 191.5 30.7 C 191.5 29.8 191.5 28.9 191.5 28.1 C 191.4 27.2 191.4 26.4 191.3 25.5 C 191.9 25.5 192.5 25.5 193.1 25.6 C 193.7 25.6 194.3 25.6 194.9 25.6 C 195.5 25.6 196.1 25.6 196.7 25.6 C 197.4 25.5 198 25.5 198.7 25.5 C 198.7 25.7 198.7 25.9 198.7 26.1 C 198.7 26.3 198.7 26.5 198.7 26.7 C 198.4 26.6 197.9 26.6 197.4 26.6 C 196.9 26.5 196.4 26.5 195.9 26.5 C 195.4 26.5 194.9 26.5 194.4 26.4 C 193.9 26.4 193.5 26.4 193.2 26.4 C 193.1 26.9 193.1 27.3 193.1 27.8 C 193.1 28.2 193.1 28.6 193.1 29 C 193.1 29.5 193.1 29.9 193.1 30.3 C 193.1 30.7 193.1 31.1 193.1 31.6 C 194 31.6 194.9 31.6 195.8 31.5 C 196.6 31.5 197.5 31.4 198.3 31.4 C 198.2 31.6 198.2 31.8 198.2 32 C 198.2 32.2 198.2 32.4 198.3 32.6 C 198 32.5 197.6 32.5 197.2 32.5 C 196.8 32.5 196.3 32.4 195.9 32.4 C 195.4 32.4 194.9 32.4 194.5 32.4 C 194 32.4 193.6 32.4 193.1 32.4 C 193.1 32.4 193.1 34.1 193.1 34.1 C 193.1 35 193.2 35.9 193.2 36.7 C 193.2 37.6 193.3 38.4 193.3 39.2 C 193 39.2 192.7 39.2 192.3 39.2 C 192 39.2 191.6 39.2 191.3 39.2 C 191.4 38.4 191.4 37.6 191.5 36.7 C 191.5 35.9 191.5 35 191.5 34.1 C 191.5 34.11 191.5 30.7 191.5 30.7 C 191.5 30.7 191.5 30.67 191.5 30.7 Z M 202.5 30.6 C 202.5 29.8 202.5 28.9 202.5 28 C 202.4 27.2 202.4 26.3 202.3 25.5 C 202.9 25.5 203.5 25.5 204.1 25.6 C 204.7 25.6 205.3 25.6 205.9 25.6 C 206.5 25.6 207.1 25.6 207.7 25.6 C 208.3 25.5 208.9 25.5 209.5 25.5 C 209.4 25.7 209.4 25.9 209.4 26.1 C 209.4 26.3 209.4 26.5 209.5 26.7 C 209.1 26.7 208.7 26.6 208.3 26.6 C 208 26.6 207.6 26.6 207.2 26.5 C 206.8 26.5 206.4 26.5 205.9 26.5 C 205.4 26.4 204.9 26.4 204.2 26.4 C 204.2 26.9 204.2 27.3 204.2 27.6 C 204.2 28 204.1 28.5 204.1 29 C 204.1 29.5 204.1 30 204.2 30.5 C 204.2 31 204.2 31.4 204.2 31.6 C 204.7 31.6 205.3 31.6 205.7 31.6 C 206.2 31.6 206.6 31.6 207 31.5 C 207.4 31.5 207.8 31.5 208.1 31.5 C 208.4 31.5 208.7 31.4 209 31.4 C 209 31.6 209 31.8 209 32 C 209 32.2 209 32.4 209 32.6 C 208.7 32.6 208.3 32.6 207.8 32.5 C 207.4 32.5 206.9 32.5 206.4 32.5 C 206 32.5 205.5 32.5 205.1 32.5 C 204.7 32.5 204.4 32.4 204.2 32.4 C 204.2 32.6 204.2 32.7 204.2 32.8 C 204.1 33 204.1 33.2 204.1 33.4 C 204.14 33.37 204.1 34.1 204.1 34.1 C 204.1 34.1 204.14 35.35 204.1 35.3 C 204.1 36.1 204.1 36.7 204.2 37.2 C 204.2 37.7 204.2 38.1 204.2 38.3 C 204.6 38.3 205.1 38.3 205.6 38.3 C 206.1 38.3 206.6 38.3 207.1 38.3 C 207.6 38.3 208 38.3 208.5 38.2 C 208.9 38.2 209.3 38.2 209.6 38.1 C 209.6 38.2 209.5 38.3 209.5 38.4 C 209.5 38.5 209.5 38.6 209.5 38.7 C 209.5 38.9 209.5 39.1 209.6 39.2 C 209 39.2 208.4 39.2 207.8 39.2 C 207.2 39.2 206.6 39.2 206 39.2 C 205.4 39.2 204.8 39.2 204.2 39.2 C 203.6 39.2 203 39.2 202.3 39.2 C 202.4 38.4 202.4 37.5 202.5 36.7 C 202.5 35.8 202.5 35 202.5 34.1 C 202.5 34.09 202.5 30.6 202.5 30.6 C 202.5 30.6 202.5 30.65 202.5 30.6 Z M 223.8 38.4 C 223.7 38.5 223.5 38.6 223.3 38.8 C 223 38.9 222.7 39 222.3 39.1 C 222 39.2 221.6 39.3 221.1 39.4 C 220.6 39.4 220.2 39.5 219.7 39.5 C 218.6 39.5 217.7 39.3 216.8 39 C 215.9 38.7 215.1 38.3 214.5 37.7 C 213.8 37.1 213.3 36.3 212.9 35.4 C 212.6 34.5 212.4 33.5 212.4 32.4 C 212.4 31.3 212.6 30.2 212.9 29.4 C 213.3 28.5 213.8 27.7 214.5 27.1 C 215.1 26.5 215.9 26 216.8 25.7 C 217.8 25.4 218.8 25.2 219.9 25.2 C 220.8 25.2 221.6 25.3 222.3 25.5 C 223 25.7 223.7 25.9 224.2 26.1 C 224.1 26.3 224 26.6 224 26.9 C 223.9 27.2 223.8 27.5 223.8 27.7 C 223.8 27.7 223.7 27.7 223.7 27.7 C 223.5 27.6 223.4 27.4 223.1 27.2 C 222.9 27 222.6 26.8 222.3 26.6 C 222 26.4 221.6 26.3 221.2 26.2 C 220.8 26 220.4 26 219.9 26 C 219.1 26 218.4 26.1 217.7 26.3 C 217 26.6 216.4 27 215.9 27.5 C 215.4 28 215 28.7 214.8 29.5 C 214.5 30.3 214.3 31.3 214.3 32.4 C 214.3 33.5 214.5 34.5 214.8 35.3 C 215 36.1 215.4 36.7 215.9 37.3 C 216.4 37.8 217 38.2 217.7 38.4 C 218.4 38.7 219.1 38.8 219.9 38.8 C 220.4 38.8 220.8 38.7 221.2 38.6 C 221.6 38.5 222 38.4 222.3 38.2 C 222.7 38 223 37.9 223.3 37.7 C 223.5 37.5 223.8 37.3 223.9 37.1 C 223.94 37.15 224 37.2 224 37.2 L 223.8 38.4 C 223.8 38.4 223.84 38.41 223.8 38.4 Z M 230.6 30.7 C 230.6 29.3 230.6 27.9 230.6 26.5 C 230.2 26.5 229.8 26.5 229.5 26.5 C 229.1 26.5 228.7 26.6 228.3 26.6 C 227.9 26.6 227.6 26.6 227.2 26.6 C 226.9 26.7 226.6 26.7 226.3 26.7 C 226.3 26.5 226.4 26.3 226.4 26.1 C 226.4 26 226.3 25.8 226.3 25.5 C 227.2 25.5 228 25.5 228.9 25.6 C 229.7 25.6 230.6 25.6 231.4 25.6 C 232.3 25.6 233.2 25.6 234 25.6 C 234.9 25.5 235.7 25.5 236.6 25.5 C 236.5 25.8 236.5 26 236.5 26.1 C 236.5 26.3 236.5 26.5 236.6 26.7 C 236.3 26.7 236 26.7 235.6 26.6 C 235.3 26.6 234.9 26.6 234.5 26.6 C 234.2 26.6 233.8 26.5 233.4 26.5 C 233 26.5 232.7 26.5 232.3 26.5 C 232.3 27.9 232.3 29.3 232.3 30.7 C 232.3 30.7 232.3 34.1 232.3 34.1 C 232.3 35 232.3 35.9 232.3 36.7 C 232.3 37.6 232.4 38.4 232.4 39.2 C 232.1 39.2 231.8 39.2 231.4 39.2 C 231.1 39.2 230.8 39.2 230.5 39.2 C 230.5 38.4 230.5 37.6 230.6 36.7 C 230.6 35.9 230.6 35 230.6 34.1 C 230.62 34.11 230.6 30.7 230.6 30.7 C 230.6 30.7 230.62 30.67 230.6 30.7 Z M 240 30.7 C 240 29.8 239.9 28.9 239.9 28.1 C 239.9 27.2 239.8 26.4 239.8 25.5 C 240 25.5 240.1 25.5 240.3 25.6 C 240.5 25.6 240.6 25.6 240.8 25.6 C 240.9 25.6 241.1 25.6 241.3 25.6 C 241.4 25.5 241.6 25.5 241.8 25.5 C 241.7 26.4 241.7 27.2 241.6 28.1 C 241.6 28.9 241.6 29.8 241.6 30.7 C 241.6 32.3 241.6 33.8 241.6 35 C 241.6 36.3 241.6 37.4 241.7 38.3 C 242.6 38.3 243.5 38.3 244.4 38.3 C 245.2 38.3 246.2 38.2 247.2 38.1 C 247.1 38.3 247.1 38.5 247.1 38.7 C 247.1 38.8 247.1 39 247.2 39.2 C 246.6 39.2 246 39.2 245.3 39.2 C 244.7 39.2 244.1 39.2 243.5 39.2 C 242.9 39.2 242.2 39.2 241.6 39.2 C 241.1 39.2 240.4 39.2 239.8 39.2 C 239.8 38.4 239.9 37.6 239.9 36.7 C 239.9 35.9 240 35 240 34.1 C 239.96 34.11 240 30.7 240 30.7 C 240 30.7 239.96 30.67 240 30.7 Z M 252.1 33.6 C 251.9 33.4 251.7 33.1 251.5 32.6 C 251.2 32.2 250.9 31.7 250.6 31.2 C 250.3 30.7 250 30.1 249.6 29.5 C 249.3 28.9 249 28.4 248.7 27.9 C 248.3 27.3 248.1 26.9 247.8 26.4 C 247.5 26 247.4 25.7 247.2 25.5 C 247.4 25.5 247.6 25.5 247.8 25.6 C 247.9 25.6 248.1 25.6 248.3 25.6 C 248.5 25.6 248.7 25.6 248.9 25.6 C 249 25.5 249.2 25.5 249.4 25.5 C 250 26.6 250.6 27.8 251.2 28.9 C 251.9 30 252.5 31.2 253.2 32.4 C 253.5 31.9 253.8 31.4 254.2 30.8 C 254.5 30.3 254.8 29.7 255.2 29.1 C 255.5 28.5 255.8 27.9 256.1 27.3 C 256.4 26.7 256.7 26.1 257 25.5 C 257.3 25.6 257.6 25.6 257.8 25.6 C 258 25.6 258.2 25.6 258.6 25.5 C 257.9 26.5 257.3 27.3 256.8 28.1 C 256.3 28.9 255.9 29.6 255.5 30.3 C 255.1 30.9 254.8 31.5 254.5 32 C 254.2 32.5 253.9 33 253.7 33.4 C 253.7 33.9 253.7 34.4 253.7 35 C 253.7 35.5 253.7 36.1 253.8 36.6 C 253.8 37.2 253.8 37.7 253.8 38.1 C 253.8 38.6 253.9 38.9 253.9 39.2 C 253.6 39.2 253.2 39.2 252.9 39.2 C 252.6 39.2 252.2 39.2 251.9 39.2 C 252 38.5 252 37.7 252.1 36.7 C 252.1 35.7 252.1 34.7 252.1 33.6 Z M 270.2 32.2 C 270.6 32.3 271.1 32.3 271.6 32.3 C 272 32.3 272.4 32.3 272.9 32.2 C 273.3 32.1 273.7 31.9 274.1 31.7 C 274.4 31.4 274.7 31.1 275 30.7 C 275.2 30.2 275.3 29.7 275.3 29 C 275.3 28.4 275.2 27.9 275.1 27.6 C 274.9 27.2 274.7 26.9 274.4 26.7 C 274.1 26.5 273.8 26.4 273.4 26.3 C 272.9 26.3 272.5 26.2 272 26.2 C 271.96 26.23 270.2 26.2 270.2 26.2 C 270.2 26.2 270.16 32.17 270.2 32.2 Z M 268.5 30.7 C 268.5 29.8 268.5 28.9 268.5 28.1 C 268.4 27.2 268.4 26.4 268.4 25.5 C 268.7 25.5 269 25.5 269.3 25.6 C 269.7 25.6 270 25.6 270.3 25.6 C 270.5 25.6 270.7 25.6 270.9 25.6 C 271.1 25.6 271.3 25.5 271.6 25.5 C 271.8 25.5 272 25.5 272.2 25.5 C 272.5 25.5 272.6 25.5 272.8 25.5 C 273 25.5 273.2 25.5 273.5 25.5 C 273.8 25.5 274.1 25.6 274.4 25.6 C 274.8 25.7 275.1 25.8 275.4 25.9 C 275.7 26.1 276 26.3 276.3 26.5 C 276.5 26.8 276.8 27.1 276.9 27.5 C 277.1 27.8 277.2 28.3 277.2 28.9 C 277.2 29.7 277 30.5 276.6 31 C 276.2 31.6 275.7 32 275.2 32.3 C 274.6 32.6 274 32.8 273.4 32.9 C 272.8 33 272.3 33.1 271.8 33.1 C 271.5 33.1 271.2 33.1 270.9 33.1 C 270.7 33.1 270.4 33 270.2 33 C 270.2 33 270.2 34.1 270.2 34.1 C 270.2 35 270.2 35.9 270.2 36.7 C 270.2 37.6 270.3 38.4 270.3 39.2 C 270 39.2 269.7 39.2 269.3 39.2 C 269 39.2 268.7 39.2 268.4 39.2 C 268.4 38.4 268.4 37.6 268.5 36.7 C 268.5 35.9 268.5 35 268.5 34.1 C 268.5 34.1 268.5 30.7 268.5 30.7 Z M 280.6 30.7 C 280.6 29.8 280.6 28.9 280.6 28.1 C 280.6 27.2 280.5 26.4 280.5 25.5 C 280.7 25.5 280.8 25.5 281 25.6 C 281.1 25.6 281.3 25.6 281.5 25.6 C 281.6 25.6 281.8 25.6 281.9 25.6 C 282.1 25.5 282.3 25.5 282.4 25.5 C 282.4 26.4 282.4 27.2 282.3 28.1 C 282.3 28.9 282.3 29.8 282.3 30.7 C 282.3 32.3 282.3 33.8 282.3 35 C 282.3 36.3 282.3 37.4 282.3 38.3 C 283.3 38.3 284.2 38.3 285.1 38.3 C 285.9 38.3 286.9 38.2 287.9 38.1 C 287.8 38.3 287.8 38.5 287.8 38.7 C 287.8 38.8 287.8 39 287.9 39.2 C 287.2 39.2 286.6 39.2 286 39.2 C 285.4 39.2 284.8 39.2 284.2 39.2 C 283.5 39.2 282.9 39.2 282.3 39.2 C 281.7 39.2 281.1 39.2 280.5 39.2 C 280.5 38.4 280.6 37.6 280.6 36.7 C 280.6 35.9 280.6 35 280.6 34.1 C 280.64 34.11 280.6 30.7 280.6 30.7 C 280.6 30.7 280.64 30.67 280.6 30.7 Z M 302.1 32 C 302.1 30.1 302.1 28.6 302 27.6 C 302 26.6 302 25.9 301.9 25.5 C 302.1 25.5 302.2 25.5 302.4 25.6 C 302.5 25.6 302.6 25.6 302.8 25.6 C 302.9 25.6 303.1 25.6 303.4 25.5 C 303.3 26 303.3 26.5 303.2 27.2 C 303.2 27.8 303.2 28.5 303.1 29.2 C 303.1 30 303.1 30.7 303.1 31.5 C 303 32.3 303 33.1 303 33.8 C 303 34.7 302.8 35.5 302.6 36.2 C 302.3 36.9 302 37.5 301.5 38 C 301 38.5 300.4 38.9 299.7 39.1 C 299 39.4 298.2 39.5 297.3 39.5 C 295.3 39.5 293.8 39 292.9 38.1 C 292 37.2 291.6 35.8 291.6 33.8 C 291.6 33.2 291.6 32.6 291.6 32.2 C 291.7 31.7 291.7 31.2 291.7 30.7 C 291.7 29.5 291.7 28.6 291.6 27.7 C 291.6 26.8 291.6 26.1 291.6 25.5 C 291.7 25.5 291.9 25.5 292.1 25.6 C 292.3 25.6 292.4 25.6 292.6 25.6 C 292.7 25.6 292.9 25.6 293 25.6 C 293.2 25.5 293.3 25.5 293.5 25.5 C 293.4 25.8 293.4 26.2 293.4 26.6 C 293.4 27.1 293.3 27.6 293.3 28.2 C 293.3 28.8 293.3 29.5 293.2 30.2 C 293.2 30.9 293.2 31.6 293.2 32.3 C 293.2 32.8 293.2 33.3 293.2 33.8 C 293.3 34.2 293.3 34.7 293.4 35.2 C 293.5 35.6 293.6 36.1 293.8 36.5 C 293.9 36.9 294.2 37.3 294.5 37.6 C 294.9 37.9 295.3 38.2 295.8 38.3 C 296.3 38.5 296.9 38.6 297.7 38.6 C 298.4 38.6 299 38.5 299.5 38.3 C 300 38.1 300.4 37.8 300.8 37.4 C 301.1 37.1 301.3 36.7 301.5 36.2 C 301.7 35.8 301.8 35.3 301.9 34.8 C 302 34.3 302 33.8 302 33.3 C 302.1 32.9 302.1 32.4 302.1 32 Z M 307.8 36.6 C 307.9 36.9 308 37.1 308.2 37.4 C 308.4 37.6 308.6 37.8 308.8 38 C 309.1 38.2 309.4 38.4 309.8 38.5 C 310.1 38.6 310.5 38.7 310.9 38.7 C 311.4 38.7 311.8 38.6 312.1 38.5 C 312.5 38.3 312.8 38.1 313 37.9 C 313.3 37.6 313.4 37.3 313.6 36.9 C 313.7 36.6 313.8 36.2 313.8 35.8 C 313.8 35.2 313.6 34.7 313.3 34.3 C 313 34 312.6 33.7 312.1 33.4 C 311.7 33.2 311.2 33 310.6 32.8 C 310.1 32.6 309.6 32.3 309.1 32 C 308.7 31.7 308.3 31.4 307.9 30.9 C 307.6 30.4 307.5 29.8 307.5 29 C 307.5 28.4 307.6 27.9 307.8 27.5 C 308 27 308.3 26.6 308.6 26.3 C 309 26 309.5 25.7 310 25.5 C 310.6 25.3 311.2 25.2 311.8 25.2 C 312.5 25.2 313 25.3 313.5 25.5 C 313.9 25.6 314.4 25.8 314.8 26.2 C 314.7 26.4 314.6 26.6 314.5 26.9 C 314.4 27.1 314.3 27.5 314.2 27.8 C 314.2 27.8 314 27.8 314 27.8 C 313.9 27.7 313.8 27.5 313.7 27.2 C 313.6 27 313.5 26.8 313.3 26.6 C 313.1 26.4 312.8 26.3 312.6 26.2 C 312.3 26 312 26 311.6 26 C 311.2 26 310.9 26 310.6 26.1 C 310.3 26.3 310 26.4 309.8 26.7 C 309.5 26.9 309.4 27.1 309.2 27.4 C 309.1 27.8 309 28.1 309 28.4 C 309 29.1 309.2 29.6 309.5 29.9 C 309.8 30.3 310.2 30.6 310.7 30.8 C 311.1 31.1 311.6 31.3 312.2 31.5 C 312.7 31.7 313.2 31.9 313.7 32.2 C 314.2 32.5 314.6 32.8 314.9 33.3 C 315.2 33.7 315.3 34.3 315.3 35 C 315.3 35.7 315.2 36.2 315 36.8 C 314.8 37.3 314.5 37.8 314 38.2 C 313.6 38.6 313.1 38.9 312.5 39.2 C 311.9 39.4 311.2 39.5 310.4 39.5 C 309.6 39.5 308.9 39.4 308.4 39.2 C 307.9 38.9 307.5 38.7 307.1 38.4 C 307.3 38.1 307.3 37.8 307.4 37.6 C 307.4 37.3 307.5 37 307.5 36.6 C 307.52 36.63 307.8 36.6 307.8 36.6 C 307.8 36.6 307.76 36.63 307.8 36.6 Z M 329.2 30.7 C 329.2 29.8 329.2 28.9 329.1 28.1 C 329.1 27.2 329.1 26.4 329 25.5 C 329.2 25.5 329.4 25.5 329.5 25.6 C 329.7 25.6 329.9 25.6 330 25.6 C 330.2 25.6 330.3 25.6 330.5 25.6 C 330.7 25.5 330.8 25.5 331 25.5 C 331 26.4 330.9 27.2 330.9 28.1 C 330.9 28.9 330.8 29.8 330.8 30.7 C 330.8 30.7 330.8 34.1 330.8 34.1 C 330.8 35 330.9 35.9 330.9 36.7 C 330.9 37.6 331 38.4 331 39.2 C 330.7 39.2 330.4 39.2 330 39.2 C 329.7 39.2 329.3 39.2 329 39.2 C 329.1 38.4 329.1 37.6 329.1 36.7 C 329.2 35.9 329.2 35 329.2 34.1 C 329.2 34.1 329.2 32.3 329.2 32.3 C 328.5 32.3 327.8 32.3 327.1 32.3 C 326.4 32.3 325.7 32.3 325 32.3 C 324.3 32.3 323.6 32.3 322.9 32.3 C 322.3 32.3 321.6 32.3 320.8 32.3 C 320.8 32.3 320.8 34.1 320.8 34.1 C 320.8 35 320.9 35.9 320.9 36.7 C 320.9 37.6 321 38.4 321 39.2 C 320.7 39.2 320.4 39.2 320 39.2 C 319.7 39.2 319.3 39.2 319 39.2 C 319.1 38.4 319.1 37.6 319.1 36.7 C 319.2 35.9 319.2 35 319.2 34.1 C 319.2 34.1 319.2 30.7 319.2 30.7 C 319.2 29.8 319.2 28.9 319.1 28.1 C 319.1 27.2 319.1 26.4 319 25.5 C 319.2 25.5 319.4 25.5 319.5 25.6 C 319.7 25.6 319.9 25.6 320 25.6 C 320.2 25.6 320.3 25.6 320.5 25.6 C 320.7 25.5 320.8 25.5 321 25.5 C 321 26.4 320.9 27.2 320.9 28.1 C 320.9 28.9 320.8 29.8 320.8 30.7 C 320.8 30.7 320.8 31.4 320.8 31.4 C 321.6 31.4 322.3 31.4 322.9 31.4 C 323.6 31.4 324.3 31.4 325 31.4 C 325.7 31.4 326.4 31.4 327.1 31.4 C 327.8 31.4 328.5 31.4 329.2 31.4 C 329.2 31.37 329.2 30.7 329.2 30.7 C 329.2 30.7 329.2 30.67 329.2 30.7 Z " stroke="none" fill="#535a5d"/>  </g></svg>