<?xml version="1.0" standalone="no"?><!DOCTYPE svg PUBLIC "-//W3C//DTD SVG 1.1//EN" "http://www.w3.org/Graphics/SVG/1.1/DTD/svg11.dtd"><svg xmlns="http://www.w3.org/2000/svg" version="1.1" width="238.2px" height="126.1px" viewBox="0 -1 238.2 126.1" style="top:-1px">  <desc>Book</desc>  <defs/>  <g id="Polygon38757">    <path d="M 15.4 58.1 C 15.4 61 15.4 63.9 15.5 66.7 C 15.7 69.6 15.8 72.4 15.9 75.3 C 17 75.4 18.2 75.5 19.7 75.6 C 21.2 75.7 22.7 75.8 24.3 75.8 C 26.1 75.8 27.8 75.4 29.5 74.8 C 31.2 74.2 32.7 73.3 33.9 72 C 35.2 70.8 36.2 69.3 36.9 67.5 C 37.6 65.7 38 63.7 38 61.4 C 38 59 37.6 57 36.7 55.4 C 35.8 53.8 34.5 52.6 32.9 51.7 C 31.2 50.8 29.3 50.2 26.9 49.9 C 24.6 49.5 22.1 49.4 19.2 49.4 C 19.22 49.37 15.4 49.4 15.4 49.4 C 15.4 49.4 15.37 58.08 15.4 58.1 Z M 20 46.2 C 22 46.2 24 46 25.9 45.6 C 27.9 45.2 29.6 44.5 31.2 43.6 C 32.7 42.7 34 41.4 34.9 39.8 C 35.8 38.3 36.3 36.3 36.3 33.9 C 36.3 31.6 35.9 29.7 35 28.3 C 34.2 26.9 33.1 25.8 31.8 25.1 C 30.5 24.3 29 23.8 27.3 23.5 C 25.7 23.3 24 23.1 22.4 23.1 C 20.9 23.1 19.6 23.2 18.6 23.3 C 17.6 23.4 16.7 23.5 15.9 23.6 C 15.8 26.3 15.7 29 15.5 31.7 C 15.4 34.4 15.4 37.1 15.4 39.8 C 15.37 39.8 15.4 46.2 15.4 46.2 C 15.4 46.2 19.99 46.21 20 46.2 Z M 8.4 42 C 8.4 38.3 8.3 34.6 8.2 30.9 C 8 27.3 7.9 23.6 7.7 20 C 9.2 20.1 10.7 20.2 12.2 20.3 C 13.8 20.4 15.3 20.4 16.7 20.4 C 18.2 20.4 19.7 20.3 21.3 20.2 C 22.8 20.1 24.3 20 25.8 20 C 28.2 20 30.5 20.2 32.7 20.5 C 34.9 20.9 36.8 21.6 38.4 22.5 C 40.1 23.4 41.4 24.7 42.4 26.3 C 43.3 27.9 43.8 29.9 43.8 32.3 C 43.8 36.5 42.5 39.8 39.8 42.2 C 37.2 44.6 33.7 46.3 29.5 47.2 C 29.5 47.2 29.5 47.4 29.5 47.4 C 34.5 47.6 38.5 48.9 41.5 51.1 C 44.4 53.3 45.9 56.9 45.9 61.8 C 45.9 64.9 45.2 67.6 43.9 69.8 C 42.6 71.9 40.9 73.7 38.8 75 C 36.7 76.4 34.3 77.3 31.8 77.9 C 29.3 78.4 26.8 78.7 24.3 78.7 C 22.9 78.7 21.5 78.6 20.1 78.6 C 18.7 78.5 17.3 78.5 16 78.5 C 14.6 78.5 13.2 78.5 11.8 78.5 C 10.4 78.5 9.1 78.5 7.7 78.7 C 7.9 75 8 71.4 8.2 67.8 C 8.3 64.2 8.4 60.5 8.4 56.7 C 8.4 56.7 8.4 42 8.4 42 Z M 53 49.5 C 53 44.6 53.7 40.3 55.3 36.5 C 56.9 32.7 59.1 29.5 61.9 26.9 C 64.7 24.3 68.1 22.3 72 20.9 C 75.9 19.6 80.2 18.9 84.9 18.9 C 89.6 18.9 94 19.6 97.9 20.9 C 101.8 22.3 105.2 24.3 108 26.9 C 110.8 29.5 113 32.7 114.6 36.5 C 116.1 40.3 116.9 44.6 116.9 49.5 C 116.9 54.3 116.1 58.6 114.6 62.4 C 113 66.2 110.8 69.4 108 72 C 105.2 74.6 101.8 76.6 97.9 77.9 C 94 79.1 89.6 79.8 84.9 79.8 C 80.2 79.8 75.9 79.1 72 77.9 C 68.1 76.6 64.7 74.6 61.9 72 C 59.1 69.4 56.9 66.2 55.3 62.4 C 53.7 58.6 53 54.3 53 49.5 Z M 108.6 49.5 C 108.6 44.7 108 40.6 106.8 37.2 C 105.6 33.8 103.9 30.9 101.8 28.7 C 99.6 26.4 97.1 24.7 94.2 23.7 C 91.4 22.6 88.3 22 84.9 22 C 81.6 22 78.5 22.6 75.6 23.7 C 72.8 24.7 70.2 26.4 68.1 28.7 C 66 30.9 64.3 33.8 63.1 37.2 C 61.9 40.6 61.3 44.7 61.3 49.5 C 61.3 54.2 61.9 58.3 63.1 61.7 C 64.3 65.2 66 68 68.1 70.2 C 70.2 72.5 72.8 74.2 75.6 75.2 C 78.5 76.3 81.6 76.9 84.9 76.9 C 88.3 76.9 91.4 76.3 94.2 75.2 C 97.1 74.2 99.6 72.5 101.8 70.2 C 103.9 68 105.6 65.2 106.8 61.7 C 108 58.3 108.6 54.2 108.6 49.5 Z M 121.3 49.5 C 121.3 44.6 122.1 40.3 123.6 36.5 C 125.2 32.7 127.4 29.5 130.2 26.9 C 133 24.3 136.4 22.3 140.3 20.9 C 144.3 19.6 148.6 18.9 153.2 18.9 C 157.9 18.9 162.3 19.6 166.2 20.9 C 170.1 22.3 173.5 24.3 176.3 26.9 C 179.1 29.5 181.3 32.7 182.9 36.5 C 184.5 40.3 185.3 44.6 185.3 49.5 C 185.3 54.3 184.5 58.6 182.9 62.4 C 181.3 66.2 179.1 69.4 176.3 72 C 173.5 74.6 170.1 76.6 166.2 77.9 C 162.3 79.1 157.9 79.8 153.2 79.8 C 148.6 79.8 144.3 79.1 140.3 77.9 C 136.4 76.6 133 74.6 130.2 72 C 127.4 69.4 125.2 66.2 123.6 62.4 C 122.1 58.6 121.3 54.3 121.3 49.5 Z M 176.9 49.5 C 176.9 44.7 176.3 40.6 175.1 37.2 C 173.9 33.8 172.2 30.9 170.1 28.7 C 168 26.4 165.5 24.7 162.6 23.7 C 159.7 22.6 156.6 22 153.2 22 C 149.9 22 146.8 22.6 144 23.7 C 141.1 24.7 138.6 26.4 136.4 28.7 C 134.3 30.9 132.6 33.8 131.4 37.2 C 130.2 40.6 129.7 44.7 129.7 49.5 C 129.7 54.2 130.2 58.3 131.4 61.7 C 132.6 65.2 134.3 68 136.4 70.2 C 138.6 72.5 141.1 74.2 144 75.2 C 146.8 76.3 149.9 76.9 153.2 76.9 C 156.6 76.9 159.7 76.3 162.6 75.2 C 165.5 74.2 168 72.5 170.1 70.2 C 172.2 68 173.9 65.2 175.1 61.7 C 176.3 58.3 176.9 54.2 176.9 49.5 Z M 197.9 78.5 C 196.4 78.5 195 78.5 193.7 78.7 C 193.9 75.1 194 71.5 194.2 67.9 C 194.3 64.3 194.4 60.6 194.4 56.8 C 194.4 56.8 194.4 42.1 194.4 42.1 C 194.4 38.3 194.3 34.7 194.2 31 C 194 27.4 193.9 23.7 193.7 20 C 194.4 20.1 195.2 20.2 195.8 20.3 C 196.5 20.4 197.2 20.4 197.9 20.4 C 198.6 20.4 199.3 20.4 199.9 20.3 C 200.6 20.2 201.3 20.1 202.1 20 C 201.9 23.7 201.7 27.4 201.6 31 C 201.5 34.7 201.4 38.3 201.4 42.1 C 201.4 42.1 201.4 46.8 201.4 46.8 C 201.4 47.3 201.6 47.5 201.9 47.5 C 202.1 47.5 202.5 47.2 203.1 46.7 C 205.1 45 207.2 43.1 209.4 40.9 C 211.6 38.7 213.8 36.5 216 34.2 C 218.2 31.8 220.4 29.5 222.6 27 C 224.7 24.6 226.8 22.3 228.8 20 C 229.4 20.1 230 20.2 230.6 20.3 C 231.2 20.4 231.7 20.4 232.3 20.4 C 233 20.4 233.7 20.4 234.4 20.3 C 235 20.2 235.7 20.1 236.4 20 C 234.4 21.7 232.2 23.7 229.7 26 C 227.2 28.4 224.6 30.8 222.1 33.2 C 219.6 35.7 217.2 38.1 214.8 40.4 C 212.5 42.8 210.6 44.9 209.1 46.6 C 213.7 51.8 218.3 57.1 223 62.5 C 227.7 67.9 232.5 73.3 237.4 78.7 C 236.5 78.5 235.6 78.5 234.8 78.5 C 233.9 78.5 233.1 78.5 232.2 78.5 C 231.4 78.5 230.6 78.5 229.9 78.5 C 229.1 78.5 228.3 78.5 227.5 78.7 C 225.5 76.3 223.2 73.7 220.7 70.6 C 218.3 67.6 215.8 64.7 213.5 61.9 C 211.1 59.1 209 56.5 207.1 54.3 C 205.2 52 203.8 50.4 202.8 49.5 C 202.4 49.1 202 48.9 201.8 48.9 C 201.5 48.9 201.4 49 201.4 49.4 C 201.4 49.4 201.4 56.8 201.4 56.8 C 201.4 60.6 201.5 64.3 201.6 67.9 C 201.7 71.5 201.9 75.1 202.1 78.7 C 200.8 78.5 199.4 78.5 197.9 78.5 C 197.9 78.5 197.9 78.5 197.9 78.5 Z " stroke="none" fill="#fff"/>  </g></svg>