<?xml version="1.0" standalone="no"?><!DOCTYPE svg PUBLIC "-//W3C//DTD SVG 1.1//EN" "http://www.w3.org/Graphics/SVG/1.1/DTD/svg11.dtd"><svg xmlns="http://www.w3.org/2000/svg" version="1.1" width="150px" height="23.8px" viewBox="0 -4 150 23.8" style="top:-4px">  <desc>Tartonelle A3000053</desc>  <defs/>  <g id="Polygon40910">    <path d="M 61.8 15 L 61.5 14 L 59.4 14 L 59 15 L 58.3 15 L 60.2 10.1 L 60.7 10.1 L 62.6 15 L 61.8 15 Z M 59.6 13.4 L 61.2 13.4 L 60.4 11.1 L 60.4 11.1 L 59.6 13.4 Z M 64.2 12.3 C 64.5 12.3 64.6 12.3 64.8 12.2 C 65.2 12.1 65.4 11.9 65.4 11.5 C 65.4 11.1 65.1 10.9 64.7 10.9 C 64.3 10.9 64 11 63.9 11.4 C 63.9 11.4 63.3 11.1 63.3 11.1 C 63.5 10.6 64 10.3 64.7 10.3 C 65.5 10.3 66.1 10.8 66.1 11.5 C 66.1 11.9 65.9 12.3 65.5 12.5 C 66 12.7 66.4 13.1 66.4 13.6 C 66.4 14.6 65.6 15.1 64.8 15.1 C 64.2 15.1 63.6 14.8 63.3 14.3 C 63.3 14.3 63.8 14 63.8 14 C 64 14.4 64.4 14.5 64.8 14.5 C 65.2 14.5 65.7 14.2 65.7 13.7 C 65.7 13.2 65.2 12.9 64.7 12.9 C 64.5 12.9 64.4 12.9 64.2 13 C 64.2 13 64.2 12.3 64.2 12.3 Z M 70.7 12.7 C 70.7 14.2 70.1 15.1 69.1 15.1 C 68 15.1 67.4 14.2 67.4 12.7 C 67.4 11.2 68 10.3 69.1 10.3 C 70.1 10.3 70.7 11.2 70.7 12.7 Z M 68.1 12.7 C 68.1 13.9 68.5 14.5 69.1 14.5 C 69.7 14.5 70 13.9 70 12.7 C 70 11.5 69.7 10.9 69.1 10.9 C 68.5 10.9 68.1 11.5 68.1 12.7 Z M 75 12.7 C 75 14.2 74.4 15.1 73.4 15.1 C 72.3 15.1 71.7 14.2 71.7 12.7 C 71.7 11.2 72.3 10.3 73.4 10.3 C 74.4 10.3 75 11.2 75 12.7 Z M 72.4 12.7 C 72.4 13.9 72.8 14.5 73.4 14.5 C 74 14.5 74.3 13.9 74.3 12.7 C 74.3 11.5 74 10.9 73.4 10.9 C 72.8 10.9 72.4 11.5 72.4 12.7 Z M 79.3 12.7 C 79.3 14.2 78.7 15.1 77.7 15.1 C 76.6 15.1 76 14.2 76 12.7 C 76 11.2 76.6 10.3 77.7 10.3 C 78.7 10.3 79.3 11.2 79.3 12.7 Z M 76.7 12.7 C 76.7 13.9 77.1 14.5 77.7 14.5 C 78.3 14.5 78.7 13.9 78.7 12.7 C 78.7 11.5 78.3 10.9 77.7 10.9 C 77.1 10.9 76.7 11.5 76.7 12.7 Z M 83.6 12.7 C 83.6 14.2 83 15.1 82 15.1 C 80.9 15.1 80.3 14.2 80.3 12.7 C 80.3 11.2 80.9 10.3 82 10.3 C 83 10.3 83.6 11.2 83.6 12.7 Z M 81 12.7 C 81 13.9 81.4 14.5 82 14.5 C 82.6 14.5 83 13.9 83 12.7 C 83 11.5 82.6 10.9 82 10.9 C 81.4 10.9 81 11.5 81 12.7 Z M 87.3 10.9 C 87.3 10.9 85.56 10.94 85.6 10.9 C 85.5 11.4 85.5 11.9 85.5 12.2 C 85.7 12.1 85.9 12.1 86.2 12.1 C 86.9 12.1 87.6 12.7 87.6 13.5 C 87.6 14.4 86.9 15.1 86 15.1 C 85.5 15.1 84.8 14.8 84.6 14.3 C 84.6 14.3 85.1 14 85.1 14 C 85.3 14.3 85.6 14.5 85.9 14.5 C 86.6 14.5 86.9 14.1 86.9 13.6 C 86.9 13 86.5 12.7 86 12.7 C 85.7 12.7 85.4 12.8 85.2 13 C 85.2 13 84.8 12.7 84.8 12.7 C 84.8 12 84.9 11 84.9 10.4 C 84.93 10.35 87.3 10.4 87.3 10.4 L 87.3 10.9 Z M 89.3 12.3 C 89.6 12.3 89.8 12.3 90 12.2 C 90.3 12.1 90.6 11.9 90.6 11.5 C 90.6 11.1 90.3 10.9 89.8 10.9 C 89.5 10.9 89.1 11 89 11.4 C 89 11.4 88.5 11.1 88.5 11.1 C 88.7 10.6 89.2 10.3 89.8 10.3 C 90.7 10.3 91.2 10.8 91.2 11.5 C 91.2 11.9 91 12.3 90.7 12.5 C 91.1 12.7 91.5 13.1 91.5 13.6 C 91.5 14.6 90.8 15.1 89.9 15.1 C 89.4 15.1 88.7 14.8 88.5 14.3 C 88.5 14.3 89 14 89 14 C 89.2 14.4 89.5 14.5 89.9 14.5 C 90.4 14.5 90.8 14.2 90.8 13.7 C 90.8 13.2 90.4 12.9 89.8 12.9 C 89.7 12.9 89.5 12.9 89.3 13 C 89.3 13 89.3 12.3 89.3 12.3 Z " stroke="none" fill="#535a5d"/>  </g>  <g id="Polygon40909">    <path d="M 51.7 1.2 L 51.7 6 L 50.7 6 L 50.7 1.2 L 49.4 1.2 L 49.4 0.4 L 53.1 0.4 L 53.1 1.2 L 51.7 1.2 Z M 55.6 0.4 L 56.4 0.4 L 58.6 6 L 57.4 6 L 57 4.9 L 54.9 4.9 L 54.5 6 L 53.4 6 L 55.6 0.4 Z M 55.2 4.1 L 56.7 4.1 L 56 1.9 L 56 1.9 L 55.2 4.1 Z M 61.5 0.4 C 62.4 0.4 63.5 0.9 63.5 2 C 63.5 3 62.9 3.4 62.2 3.6 C 62.22 3.62 64 6 64 6 L 62.7 6 L 61.1 3.7 L 60.8 3.7 L 60.8 6 L 59.8 6 L 59.8 0.4 C 59.8 0.4 61.5 0.4 61.5 0.4 Z M 61.3 2.9 C 62 2.9 62.4 2.6 62.4 2.1 C 62.4 1.6 62.1 1.2 61.5 1.2 C 61.48 1.25 60.8 1.2 60.8 1.2 L 60.8 2.9 C 60.8 2.9 61.32 2.86 61.3 2.9 Z M 67 1.2 L 67 6 L 66 6 L 66 1.2 L 64.6 1.2 L 64.6 0.4 L 68.3 0.4 L 68.3 1.2 L 67 1.2 Z M 72 1.2 C 70.9 1.2 70.1 2.1 70.1 3.2 C 70.1 4.3 70.9 5.2 72 5.2 C 73.1 5.2 73.9 4.3 73.9 3.2 C 73.9 2.1 73.1 1.2 72 1.2 Z M 72 6.1 C 70.4 6.1 69.1 4.8 69.1 3.2 C 69.1 1.6 70.4 0.3 72 0.3 C 73.7 0.3 74.9 1.6 74.9 3.2 C 74.9 4.8 73.7 6.1 72 6.1 Z M 80.2 6 L 77.4 2.2 L 77.4 6 L 76.4 6 L 76.4 0.4 L 77.3 0.4 L 80.1 4.2 L 80.1 0.4 L 81.1 0.4 L 81.1 6 L 80.2 6 Z M 82.8 6 L 82.8 0.4 L 86.3 0.4 L 86.3 1.2 L 83.8 1.2 L 83.8 2.7 L 86.3 2.7 L 86.3 3.5 L 83.8 3.5 L 83.8 5.2 L 86.3 5.2 L 86.3 6 L 82.8 6 Z M 87.9 6 L 87.9 0.4 L 88.9 0.4 L 88.9 5.2 L 91.2 5.2 L 91.2 6 L 87.9 6 Z M 92.3 6 L 92.3 0.4 L 93.3 0.4 L 93.3 5.2 L 95.7 5.2 L 95.7 6 L 92.3 6 Z M 96.8 6 L 96.8 0.4 L 100.3 0.4 L 100.3 1.2 L 97.8 1.2 L 97.8 2.7 L 100.3 2.7 L 100.3 3.5 L 97.8 3.5 L 97.8 5.2 L 100.3 5.2 L 100.3 6 L 96.8 6 Z " stroke="none" fill="#535a5d"/>  </g></svg>