<?xml version="1.0" standalone="no"?><!DOCTYPE svg PUBLIC "-//W3C//DTD SVG 1.1//EN" "http://www.w3.org/Graphics/SVG/1.1/DTD/svg11.dtd"><svg xmlns="http://www.w3.org/2000/svg" version="1.1" width="51px" height="13.8px" viewBox="0 -3 51 13.8" style="top:-3px">  <desc>A2000314</desc>  <defs/>  <g id="Polygon42504">    <path d="M 12.9 5.2 L 12.6 4.2 L 10.5 4.2 L 10.1 5.2 L 9.4 5.2 L 11.3 0.4 L 11.8 0.4 L 13.7 5.2 L 12.9 5.2 Z M 10.7 3.6 L 12.3 3.6 L 11.5 1.4 L 11.5 1.4 L 10.7 3.6 Z M 14.6 5.2 C 14.6 5.2 14.58 4.66 14.6 4.7 C 15.1 4.1 15.8 3.4 16.2 2.7 C 16.4 2.5 16.6 2.1 16.6 1.8 C 16.6 1.3 16.3 1.1 15.9 1.1 C 15.5 1.1 15.2 1.4 15.1 1.8 C 15.1 1.8 14.5 1.7 14.5 1.7 C 14.5 1 15.2 0.5 15.9 0.5 C 16.6 0.5 17.3 1 17.3 1.8 C 17.3 2.2 17.1 2.7 16.8 3 C 16.4 3.6 15.9 4.2 15.5 4.7 C 15.46 4.66 17.5 4.7 17.5 4.7 L 17.5 5.2 L 14.6 5.2 Z M 21.7 2.9 C 21.7 4.4 21.1 5.3 20.1 5.3 C 19 5.3 18.4 4.4 18.4 2.9 C 18.4 1.4 19 0.5 20.1 0.5 C 21.1 0.5 21.7 1.4 21.7 2.9 Z M 19.1 2.9 C 19.1 4.1 19.5 4.7 20.1 4.7 C 20.7 4.7 21.1 4.1 21.1 2.9 C 21.1 1.7 20.7 1.1 20.1 1.1 C 19.5 1.1 19.1 1.7 19.1 2.9 Z M 26 2.9 C 26 4.4 25.4 5.3 24.4 5.3 C 23.3 5.3 22.7 4.4 22.7 2.9 C 22.7 1.4 23.3 0.5 24.4 0.5 C 25.4 0.5 26 1.4 26 2.9 Z M 23.4 2.9 C 23.4 4.1 23.8 4.7 24.4 4.7 C 25 4.7 25.4 4.1 25.4 2.9 C 25.4 1.7 25 1.1 24.4 1.1 C 23.8 1.1 23.4 1.7 23.4 2.9 Z M 30.3 2.9 C 30.3 4.4 29.7 5.3 28.7 5.3 C 27.6 5.3 27 4.4 27 2.9 C 27 1.4 27.6 0.5 28.7 0.5 C 29.7 0.5 30.3 1.4 30.3 2.9 Z M 27.7 2.9 C 27.7 4.1 28.1 4.7 28.7 4.7 C 29.3 4.7 29.7 4.1 29.7 2.9 C 29.7 1.7 29.3 1.1 28.7 1.1 C 28.1 1.1 27.7 1.7 27.7 2.9 Z M 32 2.5 C 32.3 2.5 32.5 2.5 32.7 2.5 C 33.1 2.4 33.3 2.1 33.3 1.8 C 33.3 1.4 33 1.1 32.6 1.1 C 32.2 1.1 31.9 1.3 31.8 1.6 C 31.8 1.6 31.2 1.4 31.2 1.4 C 31.4 0.9 31.9 0.5 32.6 0.5 C 33.4 0.5 34 1 34 1.8 C 34 2.2 33.8 2.6 33.4 2.8 C 33.9 2.9 34.2 3.4 34.2 3.9 C 34.2 4.8 33.5 5.3 32.7 5.3 C 32.1 5.3 31.5 5.1 31.2 4.6 C 31.2 4.6 31.7 4.3 31.7 4.3 C 31.9 4.6 32.3 4.7 32.6 4.7 C 33.1 4.7 33.6 4.5 33.6 4 C 33.6 3.5 33.1 3.2 32.6 3.2 C 32.4 3.2 32.3 3.2 32 3.2 C 32 3.2 32 2.5 32 2.5 Z M 36 5.2 C 36 5.2 36.03 1.4 36 1.4 C 35.8 1.5 35.5 1.6 35.3 1.7 C 35.3 1.7 35.3 1.1 35.3 1.1 C 35.6 1 36 0.8 36.3 0.6 C 36.26 0.6 36.7 0.6 36.7 0.6 L 36.7 5.2 L 36 5.2 Z M 40 5.2 L 40 4.1 L 37.9 4.1 C 37.9 4.1 37.89 3.37 37.9 3.4 C 38.5 2.6 39.3 1.5 40 0.6 C 39.95 0.6 40.6 0.6 40.6 0.6 L 40.6 3.5 L 41.3 3.5 L 41.3 4.1 L 40.6 4.1 L 40.6 5.2 L 40 5.2 Z M 40 3.5 C 40 3.5 39.99 1.53 40 1.5 C 39.6 2.2 38.9 3 38.6 3.5 C 38.59 3.49 40 3.5 40 3.5 Z " stroke="none" fill="#535a5d"/>  </g></svg>