<?xml version="1.0" standalone="no"?><!DOCTYPE svg PUBLIC "-//W3C//DTD SVG 1.1//EN" "http://www.w3.org/Graphics/SVG/1.1/DTD/svg11.dtd"><svg xmlns="http://www.w3.org/2000/svg" version="1.1" width="150px" height="23.8px" viewBox="0 -4 150 23.8" style="top:-4px">  <desc>Tilden A3000271</desc>  <defs/>  <g id="Polygon39111">    <path d="M 62.8 15 L 62.4 14 L 60.3 14 L 59.9 15 L 59.2 15 L 61.1 10.1 L 61.7 10.1 L 63.5 15 L 62.8 15 Z M 60.5 13.4 L 62.2 13.4 L 61.3 11.1 L 61.3 11.1 L 60.5 13.4 Z M 65.1 12.3 C 65.4 12.3 65.6 12.3 65.7 12.2 C 66.1 12.1 66.4 11.9 66.4 11.5 C 66.4 11.1 66 10.9 65.6 10.9 C 65.2 10.9 64.9 11 64.8 11.4 C 64.8 11.4 64.3 11.1 64.3 11.1 C 64.4 10.6 64.9 10.3 65.6 10.3 C 66.5 10.3 67 10.8 67 11.5 C 67 11.9 66.8 12.3 66.5 12.5 C 66.9 12.7 67.3 13.1 67.3 13.6 C 67.3 14.6 66.6 15.1 65.7 15.1 C 65.1 15.1 64.5 14.8 64.2 14.3 C 64.2 14.3 64.8 14 64.8 14 C 65 14.4 65.3 14.5 65.7 14.5 C 66.2 14.5 66.6 14.2 66.6 13.7 C 66.6 13.2 66.2 12.9 65.6 12.9 C 65.5 12.9 65.3 12.9 65.1 13 C 65.1 13 65.1 12.3 65.1 12.3 Z M 71.6 12.7 C 71.6 14.2 71 15.1 70 15.1 C 68.9 15.1 68.3 14.2 68.3 12.7 C 68.3 11.2 68.9 10.3 70 10.3 C 71 10.3 71.6 11.2 71.6 12.7 Z M 69 12.7 C 69 13.9 69.4 14.5 70 14.5 C 70.6 14.5 71 13.9 71 12.7 C 71 11.5 70.6 10.9 70 10.9 C 69.4 10.9 69 11.5 69 12.7 Z M 75.9 12.7 C 75.9 14.2 75.3 15.1 74.3 15.1 C 73.2 15.1 72.7 14.2 72.7 12.7 C 72.7 11.2 73.2 10.3 74.3 10.3 C 75.3 10.3 75.9 11.2 75.9 12.7 Z M 73.3 12.7 C 73.3 13.9 73.7 14.5 74.3 14.5 C 74.9 14.5 75.3 13.9 75.3 12.7 C 75.3 11.5 74.9 10.9 74.3 10.9 C 73.7 10.9 73.3 11.5 73.3 12.7 Z M 80.2 12.7 C 80.2 14.2 79.7 15.1 78.6 15.1 C 77.6 15.1 77 14.2 77 12.7 C 77 11.2 77.6 10.3 78.6 10.3 C 79.7 10.3 80.2 11.2 80.2 12.7 Z M 77.6 12.7 C 77.6 13.9 78 14.5 78.6 14.5 C 79.2 14.5 79.6 13.9 79.6 12.7 C 79.6 11.5 79.2 10.9 78.6 10.9 C 78 10.9 77.6 11.5 77.6 12.7 Z M 81.3 15 C 81.3 15 81.28 14.41 81.3 14.4 C 81.8 13.8 82.5 13.1 82.9 12.5 C 83.1 12.2 83.3 11.8 83.3 11.5 C 83.3 11.1 83 10.9 82.6 10.9 C 82.2 10.9 81.9 11.1 81.8 11.6 C 81.8 11.6 81.2 11.4 81.2 11.4 C 81.3 10.7 82 10.3 82.6 10.3 C 83.3 10.3 84 10.8 84 11.5 C 84 11.9 83.8 12.4 83.5 12.8 C 83.1 13.3 82.6 13.9 82.2 14.4 C 82.16 14.41 84.2 14.4 84.2 14.4 L 84.2 15 L 81.3 15 Z M 87.9 10.8 C 87.3 12 86.5 13.9 86 15.2 C 86 15.2 85.3 14.9 85.3 14.9 C 86 13.4 86.8 11.8 87.2 11 C 87.16 10.95 84.9 11 84.9 11 L 84.9 10.4 L 87.9 10.4 C 87.9 10.4 87.88 10.83 87.9 10.8 Z M 89.6 15 C 89.6 15 89.6 11.15 89.6 11.1 C 89.4 11.3 89.1 11.4 88.9 11.5 C 88.9 11.5 88.9 10.8 88.9 10.8 C 89.2 10.7 89.5 10.5 89.8 10.4 C 89.83 10.35 90.3 10.4 90.3 10.4 L 90.3 15 L 89.6 15 Z " stroke="none" fill="#535a5d"/>  </g>  <g id="Polygon39110">    <path d="M 63.1 1.2 L 63.1 6 L 62.1 6 L 62.1 1.2 L 60.7 1.2 L 60.7 0.4 L 64.5 0.4 L 64.5 1.2 L 63.1 1.2 Z M 65.6 6 L 65.6 0.4 L 66.6 0.4 L 66.6 6 L 65.6 6 Z M 68.4 6 L 68.4 0.4 L 69.4 0.4 L 69.4 5.2 L 71.7 5.2 L 71.7 6 L 68.4 6 Z M 72.9 0.4 C 72.9 0.4 74.44 0.4 74.4 0.4 C 75.9 0.4 77.5 1.2 77.5 3.2 C 77.5 5.2 75.9 6 74.4 6 C 74.36 6 72.9 6 72.9 6 L 72.9 0.4 Z M 73.8 5.2 C 73.8 5.2 74.03 5.15 74 5.2 C 75.5 5.2 76.4 4.7 76.4 3.2 C 76.4 1.9 75.6 1.2 74.3 1.2 C 74.3 1.25 73.8 1.2 73.8 1.2 L 73.8 5.2 Z M 79 6 L 79 0.4 L 82.5 0.4 L 82.5 1.2 L 80 1.2 L 80 2.7 L 82.5 2.7 L 82.5 3.5 L 80 3.5 L 80 5.2 L 82.5 5.2 L 82.5 6 L 79 6 Z M 87.8 6 L 85 2.2 L 85 6 L 84 6 L 84 0.4 L 84.9 0.4 L 87.7 4.2 L 87.7 0.4 L 88.7 0.4 L 88.7 6 L 87.8 6 Z " stroke="none" fill="#535a5d"/>  </g></svg>