<?xml version="1.0" standalone="no"?><!DOCTYPE svg PUBLIC "-//W3C//DTD SVG 1.1//EN" "http://www.w3.org/Graphics/SVG/1.1/DTD/svg11.dtd"><svg xmlns="http://www.w3.org/2000/svg" version="1.1" width="486px" height="184px" viewBox="0 -1 486 184" style="top:-1px">  <desc>Bright, breezy, and oh so brilliant Cool, coastal comfort Sit back and bask in the beauty of these coastal compani</desc>  <defs/>  <g id="Polygon40401">    <path d="M 144 159.2 C 144 159.2 144.03 158.77 144 158.8 C 143.7 159.1 143.3 159.3 142.8 159.3 C 142.1 159.3 141.4 158.9 141.4 158.1 C 141.4 157.1 142.3 156.7 143.2 156.7 C 143.4 156.7 143.6 156.8 144 156.8 C 144 156.8 144 156.7 144 156.7 C 144 156.1 143.7 155.7 143 155.7 C 142.6 155.7 142.1 155.9 141.8 156.1 C 141.8 156.1 141.6 155.5 141.6 155.5 C 142 155.3 142.6 155.1 143.1 155.1 C 144.3 155.1 144.7 155.7 144.7 156.8 C 144.72 156.76 144.7 159.2 144.7 159.2 L 144 159.2 Z M 144 157.4 C 143.7 157.3 143.5 157.3 143.3 157.3 C 142.8 157.3 142.1 157.4 142.1 158 C 142.1 158.5 142.5 158.7 142.9 158.7 C 143.3 158.7 143.7 158.5 144 158.2 C 144 158.2 144 157.4 144 157.4 Z M 148.8 155.8 C 148.8 155.8 148.78 157.64 148.8 157.6 C 148.8 157.7 148.8 157.8 148.8 158 C 148.8 158.4 149 158.6 149.4 158.6 C 149.5 158.6 149.7 158.6 149.8 158.5 C 149.8 158.5 150 159.1 150 159.1 C 149.8 159.2 149.5 159.3 149.3 159.3 C 148.7 159.3 148.4 159 148.2 158.6 C 148.1 158.4 148.1 158.1 148.1 157.8 C 148.06 157.81 148.1 155.8 148.1 155.8 L 147.5 155.8 L 147.5 155.2 L 148.1 155.2 L 148.1 154.2 L 148.8 154.2 L 148.8 155.2 L 149.9 155.2 L 149.9 155.8 L 148.8 155.8 Z M 154.5 157.2 C 154.5 158.4 153.7 159.3 152.5 159.3 C 151.3 159.3 150.4 158.4 150.4 157.2 C 150.4 156 151.3 155.1 152.5 155.1 C 153.7 155.1 154.5 156 154.5 157.2 Z M 152.5 155.8 C 151.7 155.8 151.2 156.4 151.2 157.2 C 151.2 158 151.7 158.6 152.5 158.6 C 153.2 158.6 153.8 158 153.8 157.2 C 153.8 156.4 153.2 155.8 152.5 155.8 Z M 158.3 158.5 C 158 159 157.5 159.3 157 159.3 C 156.4 159.3 156.1 159.1 155.8 158.8 C 155.6 158.4 155.5 157.9 155.5 157.3 C 155.49 157.27 155.5 155.2 155.5 155.2 L 156.2 155.2 C 156.2 155.2 156.22 157.19 156.2 157.2 C 156.2 157.6 156.2 158 156.4 158.3 C 156.6 158.5 156.8 158.6 157.1 158.6 C 157.6 158.6 158 158.3 158.3 157.8 C 158.31 157.85 158.3 155.2 158.3 155.2 L 159 155.2 L 159 159.2 L 158.3 159.2 C 158.3 159.2 158.31 158.53 158.3 158.5 Z M 163.3 158.9 C 163 159.1 162.6 159.3 162.1 159.3 C 161 159.3 160 158.5 160 157.2 C 160 156 161 155.1 162.1 155.1 C 162.6 155.1 162.9 155.2 163.3 155.4 C 163.3 155.4 162.9 156 162.9 156 C 162.7 155.9 162.4 155.8 162.1 155.8 C 161.4 155.8 160.8 156.4 160.8 157.2 C 160.8 158.1 161.4 158.6 162.1 158.6 C 162.4 158.6 162.7 158.5 163 158.3 C 163 158.3 163.3 158.9 163.3 158.9 Z M 164.9 155.8 C 165.2 155.4 165.7 155.1 166.2 155.1 C 166.8 155.1 167.1 155.3 167.4 155.6 C 167.6 156 167.7 156.5 167.7 157.1 C 167.74 157.11 167.7 159.2 167.7 159.2 L 167 159.2 C 167 159.2 167.01 157.19 167 157.2 C 167 156.8 167 156.4 166.8 156.1 C 166.7 155.9 166.5 155.8 166.1 155.8 C 165.6 155.8 165.2 156.1 164.9 156.5 C 164.91 156.53 164.9 159.2 164.9 159.2 L 164.2 159.2 L 164.2 153.2 L 164.9 153.2 C 164.9 153.2 164.91 155.85 164.9 155.8 Z M 174.8 157.2 C 174.8 158.4 173.9 159.3 172.7 159.3 C 171.6 159.3 170.7 158.4 170.7 157.2 C 170.7 156 171.6 155.1 172.7 155.1 C 173.9 155.1 174.8 156 174.8 157.2 Z M 172.7 155.8 C 172 155.8 171.4 156.4 171.4 157.2 C 171.4 158 172 158.6 172.7 158.6 C 173.5 158.6 174 158 174 157.2 C 174 156.4 173.5 155.8 172.7 155.8 Z M 177.8 153.9 C 177.7 153.8 177.5 153.8 177.3 153.8 C 177.1 153.8 177 153.8 176.9 153.9 C 176.7 154 176.7 154.3 176.7 154.7 C 176.66 154.69 176.7 155.2 176.7 155.2 L 177.7 155.2 L 177.7 155.8 L 176.7 155.8 L 176.7 159.2 L 175.9 159.2 L 175.9 155.8 L 175.5 155.8 L 175.5 155.2 L 175.9 155.2 C 175.9 155.2 175.94 154.61 175.9 154.6 C 175.9 154.2 176 153.8 176.2 153.6 C 176.4 153.3 176.7 153.1 177.2 153.1 C 177.5 153.1 177.8 153.2 178 153.3 C 178 153.3 177.8 153.9 177.8 153.9 Z M 183.4 158.9 C 183.1 159.1 182.7 159.3 182.2 159.3 C 181 159.3 180.1 158.5 180.1 157.2 C 180.1 156 181.1 155.1 182.2 155.1 C 182.7 155.1 183 155.2 183.4 155.4 C 183.4 155.4 183 156 183 156 C 182.8 155.9 182.5 155.8 182.2 155.8 C 181.5 155.8 180.9 156.4 180.9 157.2 C 180.9 158.1 181.5 158.6 182.2 158.6 C 182.5 158.6 182.8 158.5 183.1 158.3 C 183.1 158.3 183.4 158.9 183.4 158.9 Z M 185 159.2 L 184.3 159.2 L 184.3 153.2 L 185 153.2 L 185 159.2 Z M 188.7 159.2 C 188.7 159.2 188.73 158.77 188.7 158.8 C 188.4 159.1 188 159.3 187.5 159.3 C 186.8 159.3 186.1 158.9 186.1 158.1 C 186.1 157.1 187 156.7 187.9 156.7 C 188.1 156.7 188.4 156.8 188.7 156.8 C 188.7 156.8 188.7 156.7 188.7 156.7 C 188.7 156.1 188.4 155.7 187.8 155.7 C 187.3 155.7 186.8 155.9 186.5 156.1 C 186.5 156.1 186.3 155.5 186.3 155.5 C 186.7 155.3 187.3 155.1 187.8 155.1 C 189 155.1 189.4 155.7 189.4 156.8 C 189.42 156.76 189.4 159.2 189.4 159.2 L 188.7 159.2 Z M 188.7 157.4 C 188.4 157.3 188.2 157.3 188 157.3 C 187.5 157.3 186.8 157.4 186.8 158 C 186.8 158.5 187.2 158.7 187.6 158.7 C 188 158.7 188.4 158.5 188.7 158.2 C 188.7 158.2 188.7 157.4 188.7 157.4 Z M 192.7 156 C 192.5 155.8 192.2 155.7 191.9 155.7 C 191.5 155.7 191.3 155.9 191.3 156.2 C 191.3 156.5 191.7 156.7 192 156.8 C 192.6 157 193.2 157.3 193.2 158 C 193.2 158.9 192.5 159.3 191.8 159.3 C 191.2 159.3 190.7 159.1 190.4 158.7 C 190.4 158.7 190.9 158.3 190.9 158.3 C 191.2 158.5 191.5 158.7 191.8 158.7 C 192.2 158.7 192.5 158.5 192.5 158.1 C 192.5 157.8 192.1 157.6 191.7 157.4 C 191.2 157.2 190.6 157 190.6 156.3 C 190.6 155.5 191.2 155.1 191.9 155.1 C 192.3 155.1 192.8 155.2 193.1 155.5 C 193.1 155.5 192.7 156 192.7 156 Z M 196.3 156 C 196.1 155.8 195.8 155.7 195.5 155.7 C 195.1 155.7 194.9 155.9 194.9 156.2 C 194.9 156.5 195.3 156.7 195.7 156.8 C 196.2 157 196.8 157.3 196.8 158 C 196.8 158.9 196.1 159.3 195.4 159.3 C 194.8 159.3 194.3 159.1 194 158.7 C 194 158.7 194.5 158.3 194.5 158.3 C 194.8 158.5 195.1 158.7 195.4 158.7 C 195.8 158.7 196.1 158.5 196.1 158.1 C 196.1 157.8 195.7 157.6 195.3 157.4 C 194.8 157.2 194.2 157 194.2 156.3 C 194.2 155.5 194.8 155.1 195.5 155.1 C 195.9 155.1 196.4 155.2 196.7 155.5 C 196.7 155.5 196.3 156 196.3 156 Z M 202.3 159.2 C 202.3 159.2 202.31 158.77 202.3 158.8 C 202 159.1 201.6 159.3 201.1 159.3 C 200.4 159.3 199.7 158.9 199.7 158.1 C 199.7 157.1 200.6 156.7 201.5 156.7 C 201.7 156.7 201.9 156.8 202.3 156.8 C 202.3 156.8 202.3 156.7 202.3 156.7 C 202.3 156.1 202 155.7 201.3 155.7 C 200.9 155.7 200.4 155.9 200.1 156.1 C 200.1 156.1 199.8 155.5 199.8 155.5 C 200.3 155.3 200.9 155.1 201.4 155.1 C 202.6 155.1 203 155.7 203 156.8 C 203.01 156.76 203 159.2 203 159.2 L 202.3 159.2 Z M 202.3 157.4 C 202 157.3 201.8 157.3 201.6 157.3 C 201.1 157.3 200.4 157.4 200.4 158 C 200.4 158.5 200.8 158.7 201.2 158.7 C 201.6 158.7 202 158.5 202.3 158.2 C 202.3 158.2 202.3 157.4 202.3 157.4 Z M 205 155.2 C 205 155.2 205.03 155.85 205 155.8 C 205.3 155.4 205.8 155.1 206.3 155.1 C 206.9 155.1 207.3 155.3 207.5 155.6 C 207.8 156 207.9 156.5 207.9 157.1 C 207.86 157.11 207.9 159.2 207.9 159.2 L 207.1 159.2 C 207.1 159.2 207.13 157.19 207.1 157.2 C 207.1 156.8 207.1 156.4 206.9 156.1 C 206.8 155.9 206.6 155.8 206.2 155.8 C 205.8 155.8 205.3 156.1 205 156.5 C 205.03 156.53 205 159.2 205 159.2 L 204.3 159.2 L 204.3 155.2 L 205 155.2 Z M 208.8 157.2 C 208.8 156.1 209.6 155.1 210.8 155.1 C 211.3 155.1 211.8 155.3 212.1 155.6 C 212.09 155.63 212.1 153.2 212.1 153.2 L 212.8 153.2 L 212.8 159.2 L 212.1 159.2 C 212.1 159.2 212.09 158.65 212.1 158.7 C 211.8 159.1 211.3 159.3 210.8 159.3 C 209.7 159.3 208.8 158.4 208.8 157.2 Z M 212.1 157.9 C 212.1 157.9 212.1 156.4 212.1 156.4 C 211.8 156 211.3 155.8 210.9 155.8 C 210 155.8 209.6 156.5 209.6 157.2 C 209.6 157.9 210.1 158.6 210.9 158.6 C 211.3 158.6 211.9 158.4 212.1 157.9 Z M 219.1 158.9 C 218.8 159.1 218.4 159.3 217.9 159.3 C 216.7 159.3 215.8 158.5 215.8 157.2 C 215.8 156 216.7 155.1 217.9 155.1 C 218.3 155.1 218.7 155.2 219 155.4 C 219 155.4 218.7 156 218.7 156 C 218.5 155.9 218.2 155.8 217.9 155.8 C 217.2 155.8 216.6 156.4 216.6 157.2 C 216.6 158.1 217.2 158.6 217.9 158.6 C 218.2 158.6 218.5 158.5 218.7 158.3 C 218.7 158.3 219.1 158.9 219.1 158.9 Z M 223.7 157.2 C 223.7 158.4 222.8 159.3 221.7 159.3 C 220.5 159.3 219.6 158.4 219.6 157.2 C 219.6 156 220.5 155.1 221.7 155.1 C 222.8 155.1 223.7 156 223.7 157.2 Z M 221.7 155.8 C 220.9 155.8 220.4 156.4 220.4 157.2 C 220.4 158 220.9 158.6 221.7 158.6 C 222.4 158.6 223 158 223 157.2 C 223 156.4 222.4 155.8 221.7 155.8 Z M 230 159.2 C 230 159.2 230.04 157.19 230 157.2 C 230 156.8 230 156.4 229.8 156.1 C 229.7 155.9 229.5 155.8 229.2 155.8 C 228.8 155.8 228.4 156 228.1 156.4 C 228.1 156.6 228.1 156.9 228.1 157.1 C 228.1 157.11 228.1 159.2 228.1 159.2 L 227.4 159.2 C 227.4 159.2 227.38 157.19 227.4 157.2 C 227.4 156.8 227.4 156.3 227.2 156 C 227 155.9 226.8 155.8 226.5 155.8 C 226.1 155.8 225.7 156.1 225.4 156.5 C 225.44 156.5 225.4 159.2 225.4 159.2 L 224.7 159.2 L 224.7 155.2 L 225.4 155.2 C 225.4 155.2 225.44 155.8 225.4 155.8 C 225.7 155.4 226.2 155.1 226.7 155.1 C 227.2 155.1 227.6 155.3 227.8 155.6 C 227.8 155.7 227.9 155.8 227.9 155.8 C 228.2 155.3 228.8 155.1 229.3 155.1 C 229.8 155.1 230.2 155.3 230.4 155.6 C 230.7 155.9 230.8 156.5 230.8 157.1 C 230.77 157.11 230.8 159.2 230.8 159.2 L 230 159.2 Z M 234.1 153.9 C 234 153.8 233.8 153.8 233.6 153.8 C 233.4 153.8 233.3 153.8 233.2 153.9 C 233 154 232.9 154.3 232.9 154.7 C 232.94 154.69 232.9 155.2 232.9 155.2 L 234 155.2 L 234 155.8 L 232.9 155.8 L 232.9 159.2 L 232.2 159.2 L 232.2 155.8 L 231.8 155.8 L 231.8 155.2 L 232.2 155.2 C 232.2 155.2 232.22 154.61 232.2 154.6 C 232.2 154.2 232.3 153.8 232.5 153.6 C 232.7 153.3 233 153.1 233.5 153.1 C 233.8 153.1 234.1 153.2 234.3 153.3 C 234.3 153.3 234.1 153.9 234.1 153.9 Z M 238.5 157.2 C 238.5 158.4 237.6 159.3 236.5 159.3 C 235.3 159.3 234.4 158.4 234.4 157.2 C 234.4 156 235.3 155.1 236.5 155.1 C 237.6 155.1 238.5 156 238.5 157.2 Z M 236.5 155.8 C 235.7 155.8 235.2 156.4 235.2 157.2 C 235.2 158 235.7 158.6 236.5 158.6 C 237.2 158.6 237.8 158 237.8 157.2 C 237.8 156.4 237.2 155.8 236.5 155.8 Z M 240.2 155.9 C 240.5 155.4 240.8 155.1 241.3 155.1 C 241.4 155.1 241.6 155.1 241.7 155.1 C 241.7 155.1 241.6 155.9 241.6 155.9 C 241.4 155.9 241.3 155.8 241.2 155.8 C 240.8 155.8 240.5 156.1 240.2 156.5 C 240.24 156.51 240.2 159.2 240.2 159.2 L 239.5 159.2 L 239.5 155.2 L 240.2 155.2 C 240.2 155.2 240.24 155.85 240.2 155.9 Z M 243.3 155.8 C 243.3 155.8 243.26 157.64 243.3 157.6 C 243.3 157.7 243.3 157.8 243.3 158 C 243.3 158.4 243.4 158.6 243.8 158.6 C 244 158.6 244.1 158.6 244.3 158.5 C 244.3 158.5 244.5 159.1 244.5 159.1 C 244.3 159.2 244 159.3 243.7 159.3 C 243.2 159.3 242.8 159 242.7 158.6 C 242.6 158.4 242.5 158.1 242.5 157.8 C 242.53 157.81 242.5 155.8 242.5 155.8 L 242 155.8 L 242 155.2 L 242.5 155.2 L 242.5 154.2 L 243.3 154.2 L 243.3 155.2 L 244.4 155.2 L 244.4 155.8 L 243.3 155.8 Z M 248 155.8 C 248 155.8 248.02 157.64 248 157.6 C 248 157.7 248 157.8 248 158 C 248.1 158.4 248.2 158.6 248.6 158.6 C 248.8 158.6 248.9 158.6 249 158.5 C 249 158.5 249.2 159.1 249.2 159.1 C 249 159.2 248.8 159.3 248.5 159.3 C 247.9 159.3 247.6 159 247.4 158.6 C 247.3 158.4 247.3 158.1 247.3 157.8 C 247.3 157.81 247.3 155.8 247.3 155.8 L 246.8 155.8 L 246.8 155.2 L 247.3 155.2 L 247.3 154.2 L 248 154.2 L 248 155.2 L 249.1 155.2 L 249.1 155.8 L 248 155.8 Z M 253.8 157.2 C 253.8 158.4 252.9 159.3 251.7 159.3 C 250.6 159.3 249.7 158.4 249.7 157.2 C 249.7 156 250.6 155.1 251.7 155.1 C 252.9 155.1 253.8 156 253.8 157.2 Z M 251.7 155.8 C 251 155.8 250.4 156.4 250.4 157.2 C 250.4 158 251 158.6 251.7 158.6 C 252.5 158.6 253 158 253 157.2 C 253 156.4 252.5 155.8 251.7 155.8 Z M 259.2 159.2 C 259.2 159.2 259.15 158.77 259.2 158.8 C 258.8 159.1 258.5 159.3 258 159.3 C 257.2 159.3 256.5 158.9 256.5 158.1 C 256.5 157.1 257.4 156.7 258.3 156.7 C 258.5 156.7 258.8 156.8 259.1 156.8 C 259.1 156.8 259.1 156.7 259.1 156.7 C 259.1 156.1 258.8 155.7 258.2 155.7 C 257.7 155.7 257.2 155.9 256.9 156.1 C 256.9 156.1 256.7 155.5 256.7 155.5 C 257.1 155.3 257.7 155.1 258.3 155.1 C 259.4 155.1 259.8 155.7 259.8 156.8 C 259.85 156.76 259.8 159.2 259.8 159.2 L 259.2 159.2 Z M 259.1 157.4 C 258.8 157.3 258.6 157.3 258.4 157.3 C 257.9 157.3 257.2 157.4 257.2 158 C 257.2 158.5 257.6 158.7 258 158.7 C 258.4 158.7 258.8 158.5 259.1 158.2 C 259.1 158.2 259.1 157.4 259.1 157.4 Z M 261.9 155.2 C 261.9 155.2 261.87 155.85 261.9 155.8 C 262.2 155.4 262.6 155.1 263.2 155.1 C 263.7 155.1 264.1 155.3 264.3 155.6 C 264.6 156 264.7 156.5 264.7 157.1 C 264.7 157.11 264.7 159.2 264.7 159.2 L 264 159.2 C 264 159.2 263.97 157.19 264 157.2 C 264 156.8 264 156.4 263.8 156.1 C 263.6 155.9 263.4 155.8 263.1 155.8 C 262.6 155.8 262.2 156.1 261.9 156.5 C 261.87 156.53 261.9 159.2 261.9 159.2 L 261.1 159.2 L 261.1 155.2 L 261.9 155.2 Z M 266.2 155.2 L 267.2 158.2 L 267.2 158.2 L 268.3 155.2 L 269.1 155.2 L 266.8 161 L 266.2 160.7 L 266.8 159.1 L 265.4 155.2 L 266.2 155.2 Z M 273.8 156 C 273.6 155.8 273.2 155.7 273 155.7 C 272.6 155.7 272.4 155.9 272.4 156.2 C 272.4 156.5 272.8 156.7 273.1 156.8 C 273.7 157 274.3 157.3 274.3 158 C 274.3 158.9 273.6 159.3 272.9 159.3 C 272.3 159.3 271.8 159.1 271.5 158.7 C 271.5 158.7 272 158.3 272 158.3 C 272.3 158.5 272.5 158.7 272.9 158.7 C 273.3 158.7 273.6 158.5 273.6 158.1 C 273.6 157.8 273.2 157.6 272.8 157.4 C 272.3 157.2 271.7 157 271.7 156.3 C 271.7 155.5 272.3 155.1 273 155.1 C 273.4 155.1 273.9 155.2 274.2 155.5 C 274.2 155.5 273.8 156 273.8 156 Z M 276.1 155.2 C 276.1 155.2 276.14 155.73 276.1 155.7 C 276.4 155.3 276.9 155.1 277.4 155.1 C 278.6 155.1 279.4 156 279.4 157.2 C 279.4 158.3 278.6 159.3 277.4 159.3 C 276.9 159.3 276.5 159.1 276.1 158.8 C 276.14 158.76 276.1 161.2 276.1 161.2 L 275.4 161.2 L 275.4 155.2 L 276.1 155.2 Z M 276.1 158 C 276.4 158.4 276.9 158.6 277.3 158.6 C 278.2 158.6 278.7 157.9 278.7 157.2 C 278.7 156.4 278.2 155.8 277.3 155.8 C 276.9 155.8 276.3 156 276.1 156.5 C 276.1 156.5 276.1 158 276.1 158 Z M 282.8 159.2 C 282.8 159.2 282.8 158.77 282.8 158.8 C 282.5 159.1 282.1 159.3 281.6 159.3 C 280.9 159.3 280.2 158.9 280.2 158.1 C 280.2 157.1 281.1 156.7 282 156.7 C 282.2 156.7 282.4 156.8 282.8 156.8 C 282.8 156.8 282.8 156.7 282.8 156.7 C 282.8 156.1 282.5 155.7 281.8 155.7 C 281.4 155.7 280.9 155.9 280.6 156.1 C 280.6 156.1 280.3 155.5 280.3 155.5 C 280.8 155.3 281.4 155.1 281.9 155.1 C 283.1 155.1 283.5 155.7 283.5 156.8 C 283.49 156.76 283.5 159.2 283.5 159.2 L 282.8 159.2 Z M 282.8 157.4 C 282.5 157.3 282.2 157.3 282 157.3 C 281.6 157.3 280.9 157.4 280.9 158 C 280.9 158.5 281.3 158.7 281.7 158.7 C 282.1 158.7 282.4 158.5 282.8 158.2 C 282.8 158.2 282.8 157.4 282.8 157.4 Z M 287.7 158.9 C 287.4 159.1 287 159.3 286.5 159.3 C 285.4 159.3 284.5 158.5 284.5 157.2 C 284.5 156 285.4 155.1 286.5 155.1 C 287 155.1 287.4 155.2 287.7 155.4 C 287.7 155.4 287.3 156 287.3 156 C 287.1 155.9 286.8 155.8 286.5 155.8 C 285.8 155.8 285.2 156.4 285.2 157.2 C 285.2 158.1 285.8 158.6 286.5 158.6 C 286.8 158.6 287.2 158.5 287.4 158.3 C 287.4 158.3 287.7 158.9 287.7 158.9 Z M 289 157.4 C 289 158.1 289.5 158.7 290.3 158.7 C 290.8 158.7 291.2 158.5 291.5 158 C 291.5 158 292 158.4 292 158.4 C 291.6 159 291 159.3 290.2 159.3 C 289 159.3 288.3 158.4 288.3 157.2 C 288.3 156 289.1 155.1 290.2 155.1 C 291.3 155.1 292.1 155.9 292.1 157 C 292.1 157.1 292 157.3 292 157.4 C 292 157.4 289 157.4 289 157.4 Z M 289 156.8 C 289 156.8 291.3 156.8 291.3 156.8 C 291.3 156.2 290.8 155.7 290.2 155.7 C 289.6 155.7 289.2 156.2 289 156.8 Z M 295.1 159.2 L 295.1 155.2 L 295.8 155.2 L 295.8 159.2 L 295.1 159.2 Z M 295.1 154.4 L 295.1 153.6 L 295.8 153.6 L 295.8 154.4 L 295.1 154.4 Z M 297.9 155.2 C 297.9 155.2 297.87 155.85 297.9 155.8 C 298.2 155.4 298.6 155.1 299.2 155.1 C 299.7 155.1 300.1 155.3 300.3 155.6 C 300.6 156 300.7 156.5 300.7 157.1 C 300.69 157.11 300.7 159.2 300.7 159.2 L 300 159.2 C 300 159.2 299.97 157.19 300 157.2 C 300 156.8 300 156.4 299.8 156.1 C 299.6 155.9 299.4 155.8 299.1 155.8 C 298.6 155.8 298.2 156.1 297.9 156.5 C 297.87 156.53 297.9 159.2 297.9 159.2 L 297.1 159.2 L 297.1 155.2 L 297.9 155.2 Z M 304.2 155.2 L 305.2 158.2 L 305.2 158.2 L 306.3 155.2 L 307.1 155.2 L 304.8 161 L 304.2 160.7 L 304.8 159.1 L 303.4 155.2 L 304.2 155.2 Z M 311.6 157.2 C 311.6 158.4 310.7 159.3 309.5 159.3 C 308.3 159.3 307.5 158.4 307.5 157.2 C 307.5 156 308.3 155.1 309.5 155.1 C 310.7 155.1 311.6 156 311.6 157.2 Z M 309.5 155.8 C 308.8 155.8 308.2 156.4 308.2 157.2 C 308.2 158 308.8 158.6 309.5 158.6 C 310.3 158.6 310.8 158 310.8 157.2 C 310.8 156.4 310.3 155.8 309.5 155.8 Z M 315.3 158.5 C 315 159 314.6 159.3 314 159.3 C 313.5 159.3 313.1 159.1 312.9 158.8 C 312.6 158.4 312.5 157.9 312.5 157.3 C 312.51 157.27 312.5 155.2 312.5 155.2 L 313.2 155.2 C 313.2 155.2 313.24 157.19 313.2 157.2 C 313.2 157.6 313.3 158 313.4 158.3 C 313.6 158.5 313.8 158.6 314.1 158.6 C 314.6 158.6 315 158.3 315.3 157.8 C 315.34 157.85 315.3 155.2 315.3 155.2 L 316.1 155.2 L 316.1 159.2 L 315.3 159.2 C 315.3 159.2 315.34 158.53 315.3 158.5 Z M 318.1 155.9 C 318.4 155.4 318.7 155.1 319.2 155.1 C 319.3 155.1 319.4 155.1 319.6 155.1 C 319.6 155.1 319.5 155.9 319.5 155.9 C 319.3 155.9 319.2 155.8 319.1 155.8 C 318.7 155.8 318.4 156.1 318.1 156.5 C 318.13 156.51 318.1 159.2 318.1 159.2 L 317.4 159.2 L 317.4 155.2 L 318.1 155.2 C 318.1 155.2 318.13 155.85 318.1 155.9 Z M 323 155.8 C 323.3 155.4 323.8 155.1 324.3 155.1 C 324.9 155.1 325.2 155.3 325.5 155.6 C 325.7 156 325.8 156.5 325.8 157.1 C 325.81 157.11 325.8 159.2 325.8 159.2 L 325.1 159.2 C 325.1 159.2 325.09 157.19 325.1 157.2 C 325.1 156.8 325.1 156.4 324.9 156.1 C 324.8 155.9 324.5 155.8 324.2 155.8 C 323.7 155.8 323.3 156.1 323 156.5 C 322.99 156.53 323 159.2 323 159.2 L 322.3 159.2 L 322.3 153.2 L 323 153.2 C 323 153.2 322.99 155.85 323 155.8 Z M 330.9 157.2 C 330.9 158.4 330 159.3 328.8 159.3 C 327.6 159.3 326.8 158.4 326.8 157.2 C 326.8 156 327.6 155.1 328.8 155.1 C 330 155.1 330.9 156 330.9 157.2 Z M 328.8 155.8 C 328.1 155.8 327.5 156.4 327.5 157.2 C 327.5 158 328.1 158.6 328.8 158.6 C 329.6 158.6 330.1 158 330.1 157.2 C 330.1 156.4 329.6 155.8 328.8 155.8 Z M 337.2 159.2 C 337.2 159.2 337.19 157.19 337.2 157.2 C 337.2 156.8 337.2 156.4 337 156.1 C 336.9 155.9 336.7 155.8 336.3 155.8 C 335.9 155.8 335.5 156 335.2 156.4 C 335.2 156.6 335.3 156.9 335.3 157.1 C 335.25 157.11 335.3 159.2 335.3 159.2 L 334.5 159.2 C 334.5 159.2 334.53 157.19 334.5 157.2 C 334.5 156.8 334.5 156.3 334.3 156 C 334.2 155.9 334 155.8 333.7 155.8 C 333.3 155.8 332.9 156.1 332.6 156.5 C 332.59 156.5 332.6 159.2 332.6 159.2 L 331.9 159.2 L 331.9 155.2 L 332.6 155.2 C 332.6 155.2 332.59 155.8 332.6 155.8 C 332.9 155.4 333.4 155.1 333.8 155.1 C 334.3 155.1 334.7 155.3 335 155.6 C 335 155.7 335 155.8 335.1 155.8 C 335.4 155.3 335.9 155.1 336.4 155.1 C 337 155.1 337.3 155.3 337.6 155.6 C 337.8 155.9 337.9 156.5 337.9 157.1 C 337.92 157.11 337.9 159.2 337.9 159.2 L 337.2 159.2 Z M 339.6 157.4 C 339.7 158.1 340.1 158.7 340.9 158.7 C 341.4 158.7 341.8 158.5 342.1 158 C 342.1 158 342.6 158.4 342.6 158.4 C 342.2 159 341.7 159.3 340.9 159.3 C 339.6 159.3 338.9 158.4 338.9 157.2 C 338.9 156 339.8 155.1 340.9 155.1 C 341.9 155.1 342.7 155.9 342.7 157 C 342.7 157.1 342.7 157.3 342.7 157.4 C 342.7 157.4 339.6 157.4 339.6 157.4 Z M 339.7 156.8 C 339.7 156.8 341.9 156.8 341.9 156.8 C 341.9 156.2 341.5 155.7 340.9 155.7 C 340.2 155.7 339.8 156.2 339.7 156.8 Z M 343.6 159.2 L 343.6 158.3 L 344.4 158.3 L 344.4 159.2 L 343.6 159.2 Z " stroke="none" fill="#fff"/>  </g>  <g id="Polygon40400">    <path d="M 111.9 143.2 C 111.3 143.2 110.9 143.5 110.9 144 C 110.9 144.4 111.4 144.6 112.1 144.8 C 112.8 145.1 113.7 145.5 113.7 146.5 C 113.7 147.8 112.6 148.3 111.8 148.3 C 111 148.3 110.3 148 109.8 147.4 C 109.8 147.4 110.3 146.9 110.3 146.9 C 110.8 147.5 111.2 147.6 111.8 147.6 C 112.4 147.6 112.9 147.3 112.9 146.6 C 112.9 146 112.3 145.8 111.7 145.6 C 110.9 145.3 110.1 144.9 110.1 144 C 110.1 143 110.9 142.5 111.8 142.5 C 112.5 142.5 113 142.7 113.5 143.1 C 113.5 143.1 113.1 143.6 113.1 143.6 C 112.8 143.4 112.3 143.2 111.9 143.2 Z M 114.9 148.2 L 114.9 144.2 L 115.7 144.2 L 115.7 148.2 L 114.9 148.2 Z M 114.9 143.4 L 114.9 142.6 L 115.7 142.6 L 115.7 143.4 L 114.9 143.4 Z M 117.8 144.8 C 117.8 144.8 117.78 146.64 117.8 146.6 C 117.8 146.7 117.8 146.8 117.8 147 C 117.8 147.4 117.9 147.6 118.3 147.6 C 118.5 147.6 118.7 147.6 118.8 147.5 C 118.8 147.5 119 148.1 119 148.1 C 118.8 148.2 118.5 148.3 118.2 148.3 C 117.7 148.3 117.3 148 117.2 147.6 C 117.1 147.4 117.1 147.1 117.1 146.8 C 117.05 146.81 117.1 144.8 117.1 144.8 L 116.5 144.8 L 116.5 144.2 L 117.1 144.2 L 117.1 143.2 L 117.8 143.2 L 117.8 144.2 L 118.9 144.2 L 118.9 144.8 L 117.8 144.8 Z M 122.5 142.2 C 122.5 142.2 122.51 144.73 122.5 144.7 C 122.8 144.3 123.3 144.1 123.8 144.1 C 124.9 144.1 125.8 145 125.8 146.2 C 125.8 147.3 125 148.3 123.8 148.3 C 123.3 148.3 122.8 148.1 122.5 147.8 C 122.51 147.76 122.5 148.2 122.5 148.2 L 121.8 148.2 L 121.8 142.2 L 122.5 142.2 Z M 122.5 147 C 122.8 147.4 123.2 147.6 123.7 147.6 C 124.6 147.6 125 146.9 125 146.2 C 125 145.4 124.5 144.8 123.7 144.8 C 123.2 144.8 122.7 145 122.5 145.5 C 122.5 145.5 122.5 147 122.5 147 Z M 129.2 148.2 C 129.2 148.2 129.16 147.77 129.2 147.8 C 128.8 148.1 128.5 148.3 128 148.3 C 127.2 148.3 126.5 147.9 126.5 147.1 C 126.5 146.1 127.4 145.7 128.3 145.7 C 128.5 145.7 128.8 145.8 129.1 145.8 C 129.1 145.8 129.1 145.7 129.1 145.7 C 129.1 145.1 128.8 144.7 128.2 144.7 C 127.7 144.7 127.2 144.9 126.9 145.1 C 126.9 145.1 126.7 144.5 126.7 144.5 C 127.1 144.3 127.7 144.1 128.3 144.1 C 129.4 144.1 129.9 144.7 129.9 145.8 C 129.86 145.76 129.9 148.2 129.9 148.2 L 129.2 148.2 Z M 129.1 146.4 C 128.8 146.3 128.6 146.3 128.4 146.3 C 127.9 146.3 127.3 146.4 127.3 147 C 127.3 147.5 127.6 147.7 128 147.7 C 128.5 147.7 128.8 147.5 129.1 147.2 C 129.1 147.2 129.1 146.4 129.1 146.4 Z M 134.1 147.9 C 133.8 148.1 133.3 148.3 132.9 148.3 C 131.7 148.3 130.8 147.5 130.8 146.2 C 130.8 145 131.7 144.1 132.9 144.1 C 133.3 144.1 133.7 144.2 134 144.4 C 134 144.4 133.7 145 133.7 145 C 133.5 144.9 133.2 144.8 132.9 144.8 C 132.2 144.8 131.6 145.4 131.6 146.2 C 131.6 147.1 132.2 147.6 132.9 147.6 C 133.1 147.6 133.5 147.5 133.7 147.3 C 133.7 147.3 134.1 147.9 134.1 147.9 Z M 137.5 148.2 L 136.3 146.4 L 135.7 147.1 L 135.7 148.2 L 135 148.2 L 135 142.2 L 135.7 142.2 L 135.7 146.2 L 135.7 146.2 L 137.3 144.2 L 138.2 144.2 L 136.8 145.8 L 138.3 148.2 L 137.5 148.2 Z M 143.4 148.2 C 143.4 148.2 143.44 147.77 143.4 147.8 C 143.1 148.1 142.8 148.3 142.2 148.3 C 141.5 148.3 140.8 147.9 140.8 147.1 C 140.8 146.1 141.7 145.7 142.6 145.7 C 142.8 145.7 143.1 145.8 143.4 145.8 C 143.4 145.8 143.4 145.7 143.4 145.7 C 143.4 145.1 143.1 144.7 142.5 144.7 C 142 144.7 141.5 144.9 141.2 145.1 C 141.2 145.1 141 144.5 141 144.5 C 141.4 144.3 142 144.1 142.6 144.1 C 143.7 144.1 144.1 144.7 144.1 145.8 C 144.14 145.76 144.1 148.2 144.1 148.2 L 143.4 148.2 Z M 143.4 146.4 C 143.1 146.3 142.9 146.3 142.7 146.3 C 142.2 146.3 141.5 146.4 141.5 147 C 141.5 147.5 141.9 147.7 142.3 147.7 C 142.7 147.7 143.1 147.5 143.4 147.2 C 143.4 147.2 143.4 146.4 143.4 146.4 Z M 146.2 144.2 C 146.2 144.2 146.16 144.85 146.2 144.8 C 146.5 144.4 146.9 144.1 147.5 144.1 C 148 144.1 148.4 144.3 148.6 144.6 C 148.9 145 149 145.5 149 146.1 C 148.98 146.11 149 148.2 149 148.2 L 148.3 148.2 C 148.3 148.2 148.26 146.19 148.3 146.2 C 148.3 145.8 148.2 145.4 148 145.1 C 147.9 144.9 147.7 144.8 147.4 144.8 C 146.9 144.8 146.4 145.1 146.2 145.5 C 146.16 145.53 146.2 148.2 146.2 148.2 L 145.4 148.2 L 145.4 144.2 L 146.2 144.2 Z M 149.9 146.2 C 149.9 145.1 150.7 144.1 152 144.1 C 152.4 144.1 152.9 144.3 153.2 144.6 C 153.22 144.63 153.2 142.2 153.2 142.2 L 153.9 142.2 L 153.9 148.2 L 153.2 148.2 C 153.2 148.2 153.22 147.65 153.2 147.7 C 152.9 148.1 152.4 148.3 151.9 148.3 C 150.8 148.3 149.9 147.4 149.9 146.2 Z M 153.2 146.9 C 153.2 146.9 153.2 145.4 153.2 145.4 C 152.9 145 152.5 144.8 152.1 144.8 C 151.1 144.8 150.7 145.5 150.7 146.2 C 150.7 146.9 151.2 147.6 152 147.6 C 152.5 147.6 153 147.4 153.2 146.9 Z M 158 142.2 C 158 142.2 158.02 144.73 158 144.7 C 158.3 144.3 158.8 144.1 159.3 144.1 C 160.4 144.1 161.3 145 161.3 146.2 C 161.3 147.3 160.5 148.3 159.3 148.3 C 158.8 148.3 158.3 148.1 158 147.8 C 158.02 147.76 158 148.2 158 148.2 L 157.3 148.2 L 157.3 142.2 L 158 142.2 Z M 158 147 C 158.3 147.4 158.8 147.6 159.2 147.6 C 160.1 147.6 160.5 146.9 160.5 146.2 C 160.5 145.4 160 144.8 159.2 144.8 C 158.8 144.8 158.2 145 158 145.5 C 158 145.5 158 147 158 147 Z M 164.7 148.2 C 164.7 148.2 164.67 147.77 164.7 147.8 C 164.3 148.1 164 148.3 163.5 148.3 C 162.7 148.3 162.1 147.9 162.1 147.1 C 162.1 146.1 163 145.7 163.8 145.7 C 164 145.7 164.3 145.8 164.6 145.8 C 164.6 145.8 164.6 145.7 164.6 145.7 C 164.6 145.1 164.4 144.7 163.7 144.7 C 163.2 144.7 162.7 144.9 162.4 145.1 C 162.4 145.1 162.2 144.5 162.2 144.5 C 162.6 144.3 163.2 144.1 163.8 144.1 C 164.9 144.1 165.4 144.7 165.4 145.8 C 165.37 145.76 165.4 148.2 165.4 148.2 L 164.7 148.2 Z M 164.6 146.4 C 164.3 146.3 164.1 146.3 163.9 146.3 C 163.4 146.3 162.8 146.4 162.8 147 C 162.8 147.5 163.1 147.7 163.6 147.7 C 164 147.7 164.3 147.5 164.6 147.2 C 164.6 147.2 164.6 146.4 164.6 146.4 Z M 168.6 145 C 168.4 144.8 168.1 144.7 167.8 144.7 C 167.5 144.7 167.2 144.9 167.2 145.2 C 167.2 145.5 167.6 145.7 168 145.8 C 168.5 146 169.2 146.3 169.2 147 C 169.2 147.9 168.5 148.3 167.7 148.3 C 167.2 148.3 166.6 148.1 166.3 147.7 C 166.3 147.7 166.8 147.3 166.8 147.3 C 167.1 147.5 167.4 147.7 167.7 147.7 C 168.1 147.7 168.4 147.5 168.4 147.1 C 168.4 146.8 168.1 146.6 167.7 146.4 C 167.1 146.2 166.5 146 166.5 145.3 C 166.5 144.5 167.2 144.1 167.8 144.1 C 168.3 144.1 168.7 144.2 169 144.5 C 169 144.5 168.6 145 168.6 145 Z M 172.8 148.2 L 171.6 146.4 L 171 147.1 L 171 148.2 L 170.3 148.2 L 170.3 142.2 L 171 142.2 L 171 146.2 L 171 146.2 L 172.6 144.2 L 173.5 144.2 L 172.1 145.8 L 173.7 148.2 L 172.8 148.2 Z M 176.4 148.2 L 176.4 144.2 L 177.1 144.2 L 177.1 148.2 L 176.4 148.2 Z M 176.4 143.4 L 176.4 142.6 L 177.1 142.6 L 177.1 143.4 L 176.4 143.4 Z M 179.2 144.2 C 179.2 144.2 179.18 144.85 179.2 144.8 C 179.5 144.4 180 144.1 180.5 144.1 C 181 144.1 181.4 144.3 181.6 144.6 C 181.9 145 182 145.5 182 146.1 C 182.01 146.11 182 148.2 182 148.2 L 181.3 148.2 C 181.3 148.2 181.28 146.19 181.3 146.2 C 181.3 145.8 181.3 145.4 181.1 145.1 C 180.9 144.9 180.7 144.8 180.4 144.8 C 179.9 144.8 179.5 145.1 179.2 145.5 C 179.18 145.53 179.2 148.2 179.2 148.2 L 178.5 148.2 L 178.5 144.2 L 179.2 144.2 Z M 186.1 144.8 C 186.1 144.8 186.07 146.64 186.1 146.6 C 186.1 146.7 186.1 146.8 186.1 147 C 186.1 147.4 186.2 147.6 186.6 147.6 C 186.8 147.6 187 147.6 187.1 147.5 C 187.1 147.5 187.3 148.1 187.3 148.1 C 187.1 148.2 186.8 148.3 186.5 148.3 C 186 148.3 185.6 148 185.5 147.6 C 185.4 147.4 185.3 147.1 185.3 146.8 C 185.35 146.81 185.3 144.8 185.3 144.8 L 184.8 144.8 L 184.8 144.2 L 185.3 144.2 L 185.3 143.2 L 186.1 143.2 L 186.1 144.2 L 187.2 144.2 L 187.2 144.8 L 186.1 144.8 Z M 188.8 144.8 C 189.1 144.4 189.6 144.1 190.1 144.1 C 190.7 144.1 191 144.3 191.3 144.6 C 191.5 145 191.6 145.5 191.6 146.1 C 191.62 146.11 191.6 148.2 191.6 148.2 L 190.9 148.2 C 190.9 148.2 190.9 146.19 190.9 146.2 C 190.9 145.8 190.9 145.4 190.7 145.1 C 190.6 144.9 190.3 144.8 190 144.8 C 189.5 144.8 189.1 145.1 188.8 145.5 C 188.8 145.53 188.8 148.2 188.8 148.2 L 188.1 148.2 L 188.1 142.2 L 188.8 142.2 C 188.8 142.2 188.8 144.85 188.8 144.8 Z M 193.3 146.4 C 193.4 147.1 193.8 147.7 194.6 147.7 C 195.1 147.7 195.6 147.5 195.8 147 C 195.8 147 196.3 147.4 196.3 147.4 C 195.9 148 195.4 148.3 194.6 148.3 C 193.3 148.3 192.6 147.4 192.6 146.2 C 192.6 145 193.5 144.1 194.6 144.1 C 195.6 144.1 196.4 144.9 196.4 146 C 196.4 146.1 196.4 146.3 196.4 146.4 C 196.4 146.4 193.3 146.4 193.3 146.4 Z M 193.4 145.8 C 193.4 145.8 195.6 145.8 195.6 145.8 C 195.6 145.2 195.2 144.7 194.6 144.7 C 193.9 144.7 193.5 145.2 193.4 145.8 Z M 200.1 142.2 C 200.1 142.2 200.13 144.73 200.1 144.7 C 200.4 144.3 200.9 144.1 201.4 144.1 C 202.6 144.1 203.4 145 203.4 146.2 C 203.4 147.3 202.6 148.3 201.4 148.3 C 200.9 148.3 200.4 148.1 200.1 147.8 C 200.13 147.76 200.1 148.2 200.1 148.2 L 199.4 148.2 L 199.4 142.2 L 200.1 142.2 Z M 200.1 147 C 200.4 147.4 200.9 147.6 201.3 147.6 C 202.2 147.6 202.7 146.9 202.7 146.2 C 202.7 145.4 202.1 144.8 201.3 144.8 C 200.9 144.8 200.3 145 200.1 145.5 C 200.1 145.5 200.1 147 200.1 147 Z M 204.8 146.4 C 204.8 147.1 205.3 147.7 206.1 147.7 C 206.6 147.7 207 147.5 207.3 147 C 207.3 147 207.8 147.4 207.8 147.4 C 207.4 148 206.9 148.3 206.1 148.3 C 204.8 148.3 204.1 147.4 204.1 146.2 C 204.1 145 204.9 144.1 206.1 144.1 C 207.1 144.1 207.9 144.9 207.9 146 C 207.9 146.1 207.9 146.3 207.8 146.4 C 207.8 146.4 204.8 146.4 204.8 146.4 Z M 204.9 145.8 C 204.9 145.8 207.1 145.8 207.1 145.8 C 207.1 145.2 206.7 144.7 206.1 144.7 C 205.4 144.7 205 145.2 204.9 145.8 Z M 211.3 148.2 C 211.3 148.2 211.27 147.77 211.3 147.8 C 210.9 148.1 210.6 148.3 210.1 148.3 C 209.3 148.3 208.6 147.9 208.6 147.1 C 208.6 146.1 209.6 145.7 210.4 145.7 C 210.6 145.7 210.9 145.8 211.2 145.8 C 211.2 145.8 211.2 145.7 211.2 145.7 C 211.2 145.1 210.9 144.7 210.3 144.7 C 209.8 144.7 209.3 144.9 209 145.1 C 209 145.1 208.8 144.5 208.8 144.5 C 209.2 144.3 209.8 144.1 210.4 144.1 C 211.5 144.1 212 144.7 212 145.8 C 211.96 145.76 212 148.2 212 148.2 L 211.3 148.2 Z M 211.2 146.4 C 210.9 146.3 210.7 146.3 210.5 146.3 C 210 146.3 209.4 146.4 209.4 147 C 209.4 147.5 209.7 147.7 210.2 147.7 C 210.6 147.7 210.9 147.5 211.2 147.2 C 211.2 147.2 211.2 146.4 211.2 146.4 Z M 216 147.5 C 215.7 148 215.3 148.3 214.7 148.3 C 214.2 148.3 213.8 148.1 213.6 147.8 C 213.3 147.4 213.2 146.9 213.2 146.3 C 213.21 146.27 213.2 144.2 213.2 144.2 L 213.9 144.2 C 213.9 144.2 213.94 146.19 213.9 146.2 C 213.9 146.6 214 147 214.1 147.3 C 214.3 147.5 214.5 147.6 214.8 147.6 C 215.3 147.6 215.7 147.3 216 146.8 C 216.03 146.85 216 144.2 216 144.2 L 216.8 144.2 L 216.8 148.2 L 216 148.2 C 216 148.2 216.03 147.53 216 147.5 Z M 218.9 144.8 C 218.9 144.8 218.87 146.64 218.9 146.6 C 218.9 146.7 218.9 146.8 218.9 147 C 218.9 147.4 219 147.6 219.4 147.6 C 219.6 147.6 219.8 147.6 219.9 147.5 C 219.9 147.5 220.1 148.1 220.1 148.1 C 219.9 148.2 219.6 148.3 219.3 148.3 C 218.8 148.3 218.4 148 218.3 147.6 C 218.2 147.4 218.1 147.1 218.1 146.8 C 218.14 146.81 218.1 144.8 218.1 144.8 L 217.6 144.8 L 217.6 144.2 L 218.1 144.2 L 218.1 143.2 L 218.9 143.2 L 218.9 144.2 L 220 144.2 L 220 144.8 L 218.9 144.8 Z M 221.2 144.2 L 222.2 147.2 L 222.2 147.2 L 223.3 144.2 L 224.1 144.2 L 221.8 150 L 221.2 149.7 L 221.8 148.1 L 220.4 144.2 L 221.2 144.2 Z M 230.6 146.2 C 230.6 147.4 229.7 148.3 228.5 148.3 C 227.3 148.3 226.5 147.4 226.5 146.2 C 226.5 145 227.3 144.1 228.5 144.1 C 229.7 144.1 230.6 145 230.6 146.2 Z M 228.5 144.8 C 227.8 144.8 227.2 145.4 227.2 146.2 C 227.2 147 227.8 147.6 228.5 147.6 C 229.3 147.6 229.8 147 229.8 146.2 C 229.8 145.4 229.3 144.8 228.5 144.8 Z M 233.6 142.9 C 233.5 142.8 233.3 142.8 233.1 142.8 C 232.9 142.8 232.8 142.8 232.6 142.9 C 232.5 143 232.4 143.3 232.4 143.7 C 232.44 143.69 232.4 144.2 232.4 144.2 L 233.5 144.2 L 233.5 144.8 L 232.4 144.8 L 232.4 148.2 L 231.7 148.2 L 231.7 144.8 L 231.3 144.8 L 231.3 144.2 L 231.7 144.2 C 231.7 144.2 231.71 143.61 231.7 143.6 C 231.7 143.2 231.8 142.8 232 142.6 C 232.2 142.3 232.5 142.1 233 142.1 C 233.3 142.1 233.6 142.2 233.8 142.3 C 233.8 142.3 233.6 142.9 233.6 142.9 Z M 237 144.8 C 237 144.8 237.02 146.64 237 146.6 C 237 146.7 237 146.8 237 147 C 237.1 147.4 237.2 147.6 237.6 147.6 C 237.8 147.6 237.9 147.6 238 147.5 C 238 147.5 238.2 148.1 238.2 148.1 C 238 148.2 237.8 148.3 237.5 148.3 C 236.9 148.3 236.6 148 236.4 147.6 C 236.3 147.4 236.3 147.1 236.3 146.8 C 236.3 146.81 236.3 144.8 236.3 144.8 L 235.8 144.8 L 235.8 144.2 L 236.3 144.2 L 236.3 143.2 L 237 143.2 L 237 144.2 L 238.1 144.2 L 238.1 144.8 L 237 144.8 Z M 239.8 144.8 C 240 144.4 240.5 144.1 241.1 144.1 C 241.6 144.1 242 144.3 242.2 144.6 C 242.5 145 242.6 145.5 242.6 146.1 C 242.58 146.11 242.6 148.2 242.6 148.2 L 241.8 148.2 C 241.8 148.2 241.85 146.19 241.8 146.2 C 241.8 145.8 241.8 145.4 241.6 145.1 C 241.5 144.9 241.3 144.8 240.9 144.8 C 240.5 144.8 240 145.1 239.8 145.5 C 239.75 145.53 239.8 148.2 239.8 148.2 L 239 148.2 L 239 142.2 L 239.8 142.2 C 239.8 142.2 239.75 144.85 239.8 144.8 Z M 244.3 146.4 C 244.3 147.1 244.8 147.7 245.6 147.7 C 246.1 147.7 246.5 147.5 246.7 147 C 246.7 147 247.3 147.4 247.3 147.4 C 246.9 148 246.3 148.3 245.5 148.3 C 244.2 148.3 243.5 147.4 243.5 146.2 C 243.5 145 244.4 144.1 245.5 144.1 C 246.6 144.1 247.3 144.9 247.3 146 C 247.3 146.1 247.3 146.3 247.3 146.4 C 247.3 146.4 244.3 146.4 244.3 146.4 Z M 244.3 145.8 C 244.3 145.8 246.6 145.8 246.6 145.8 C 246.6 145.2 246.1 144.7 245.5 144.7 C 244.9 144.7 244.5 145.2 244.3 145.8 Z M 250.3 145 C 250.1 144.8 249.8 144.7 249.5 144.7 C 249.1 144.7 248.9 144.9 248.9 145.2 C 248.9 145.5 249.3 145.7 249.7 145.8 C 250.2 146 250.8 146.3 250.8 147 C 250.8 147.9 250.2 148.3 249.4 148.3 C 248.9 148.3 248.3 148.1 248 147.7 C 248 147.7 248.5 147.3 248.5 147.3 C 248.8 147.5 249.1 147.7 249.4 147.7 C 249.8 147.7 250.1 147.5 250.1 147.1 C 250.1 146.8 249.8 146.6 249.4 146.4 C 248.8 146.2 248.2 146 248.2 145.3 C 248.2 144.5 248.8 144.1 249.5 144.1 C 250 144.1 250.4 144.2 250.7 144.5 C 250.7 144.5 250.3 145 250.3 145 Z M 252.4 146.4 C 252.4 147.1 252.9 147.7 253.6 147.7 C 254.2 147.7 254.6 147.5 254.8 147 C 254.8 147 255.4 147.4 255.4 147.4 C 255 148 254.4 148.3 253.6 148.3 C 252.3 148.3 251.6 147.4 251.6 146.2 C 251.6 145 252.5 144.1 253.6 144.1 C 254.7 144.1 255.4 144.9 255.4 146 C 255.4 146.1 255.4 146.3 255.4 146.4 C 255.4 146.4 252.4 146.4 252.4 146.4 Z M 252.4 145.8 C 252.4 145.8 254.7 145.8 254.7 145.8 C 254.6 145.2 254.2 144.7 253.6 144.7 C 253 144.7 252.6 145.2 252.4 145.8 Z M 261.4 147.9 C 261.1 148.1 260.6 148.3 260.2 148.3 C 259 148.3 258.1 147.5 258.1 146.2 C 258.1 145 259 144.1 260.2 144.1 C 260.6 144.1 261 144.2 261.3 144.4 C 261.3 144.4 261 145 261 145 C 260.8 144.9 260.4 144.8 260.2 144.8 C 259.4 144.8 258.8 145.4 258.8 146.2 C 258.8 147.1 259.5 147.6 260.2 147.6 C 260.4 147.6 260.8 147.5 261 147.3 C 261 147.3 261.4 147.9 261.4 147.9 Z M 266 146.2 C 266 147.4 265.1 148.3 263.9 148.3 C 262.8 148.3 261.9 147.4 261.9 146.2 C 261.9 145 262.8 144.1 263.9 144.1 C 265.1 144.1 266 145 266 146.2 Z M 263.9 144.8 C 263.2 144.8 262.6 145.4 262.6 146.2 C 262.6 147 263.2 147.6 263.9 147.6 C 264.7 147.6 265.2 147 265.2 146.2 C 265.2 145.4 264.7 144.8 263.9 144.8 Z M 269.4 148.2 C 269.4 148.2 269.37 147.77 269.4 147.8 C 269 148.1 268.7 148.3 268.2 148.3 C 267.4 148.3 266.8 147.9 266.8 147.1 C 266.8 146.1 267.7 145.7 268.5 145.7 C 268.7 145.7 269 145.8 269.3 145.8 C 269.3 145.8 269.3 145.7 269.3 145.7 C 269.3 145.1 269 144.7 268.4 144.7 C 267.9 144.7 267.4 144.9 267.1 145.1 C 267.1 145.1 266.9 144.5 266.9 144.5 C 267.3 144.3 267.9 144.1 268.5 144.1 C 269.6 144.1 270.1 144.7 270.1 145.8 C 270.06 145.76 270.1 148.2 270.1 148.2 L 269.4 148.2 Z M 269.3 146.4 C 269 146.3 268.8 146.3 268.6 146.3 C 268.1 146.3 267.5 146.4 267.5 147 C 267.5 147.5 267.8 147.7 268.3 147.7 C 268.7 147.7 269 147.5 269.3 147.2 C 269.3 147.2 269.3 146.4 269.3 146.4 Z M 273.3 145 C 273.1 144.8 272.8 144.7 272.5 144.7 C 272.2 144.7 271.9 144.9 271.9 145.2 C 271.9 145.5 272.3 145.7 272.7 145.8 C 273.2 146 273.9 146.3 273.9 147 C 273.9 147.9 273.2 148.3 272.4 148.3 C 271.9 148.3 271.3 148.1 271 147.7 C 271 147.7 271.5 147.3 271.5 147.3 C 271.8 147.5 272.1 147.7 272.4 147.7 C 272.8 147.7 273.1 147.5 273.1 147.1 C 273.1 146.8 272.8 146.6 272.4 146.4 C 271.8 146.2 271.2 146 271.2 145.3 C 271.2 144.5 271.8 144.1 272.5 144.1 C 273 144.1 273.4 144.2 273.7 144.5 C 273.7 144.5 273.3 145 273.3 145 Z M 275.7 144.8 C 275.7 144.8 275.74 146.64 275.7 146.6 C 275.7 146.7 275.7 146.8 275.7 147 C 275.8 147.4 275.9 147.6 276.3 147.6 C 276.5 147.6 276.6 147.6 276.8 147.5 C 276.8 147.5 277 148.1 277 148.1 C 276.8 148.2 276.5 148.3 276.2 148.3 C 275.6 148.3 275.3 148 275.1 147.6 C 275 147.4 275 147.1 275 146.8 C 275.01 146.81 275 144.8 275 144.8 L 274.5 144.8 L 274.5 144.2 L 275 144.2 L 275 143.2 L 275.7 143.2 L 275.7 144.2 L 276.9 144.2 L 276.9 144.8 L 275.7 144.8 Z M 280.1 148.2 C 280.1 148.2 280.11 147.77 280.1 147.8 C 279.8 148.1 279.4 148.3 278.9 148.3 C 278.2 148.3 277.5 147.9 277.5 147.1 C 277.5 146.1 278.4 145.7 279.3 145.7 C 279.5 145.7 279.7 145.8 280.1 145.8 C 280.1 145.8 280.1 145.7 280.1 145.7 C 280.1 145.1 279.8 144.7 279.1 144.7 C 278.7 144.7 278.2 144.9 277.9 145.1 C 277.9 145.1 277.6 144.5 277.6 144.5 C 278.1 144.3 278.7 144.1 279.2 144.1 C 280.4 144.1 280.8 144.7 280.8 145.8 C 280.81 145.76 280.8 148.2 280.8 148.2 L 280.1 148.2 Z M 280.1 146.4 C 279.8 146.3 279.6 146.3 279.4 146.3 C 278.9 146.3 278.2 146.4 278.2 147 C 278.2 147.5 278.6 147.7 279 147.7 C 279.4 147.7 279.8 147.5 280.1 147.2 C 280.1 147.2 280.1 146.4 280.1 146.4 Z M 282.8 148.2 L 282.1 148.2 L 282.1 142.2 L 282.8 142.2 L 282.8 148.2 Z M 289.1 147.9 C 288.8 148.1 288.4 148.3 287.9 148.3 C 286.7 148.3 285.8 147.5 285.8 146.2 C 285.8 145 286.8 144.1 287.9 144.1 C 288.4 144.1 288.7 144.2 289.1 144.4 C 289.1 144.4 288.7 145 288.7 145 C 288.5 144.9 288.2 144.8 287.9 144.8 C 287.2 144.8 286.6 145.4 286.6 146.2 C 286.6 147.1 287.2 147.6 287.9 147.6 C 288.2 147.6 288.5 147.5 288.8 147.3 C 288.8 147.3 289.1 147.9 289.1 147.9 Z M 293.7 146.2 C 293.7 147.4 292.8 148.3 291.7 148.3 C 290.5 148.3 289.6 147.4 289.6 146.2 C 289.6 145 290.5 144.1 291.7 144.1 C 292.8 144.1 293.7 145 293.7 146.2 Z M 291.7 144.8 C 290.9 144.8 290.4 145.4 290.4 146.2 C 290.4 147 290.9 147.6 291.7 147.6 C 292.4 147.6 293 147 293 146.2 C 293 145.4 292.4 144.8 291.7 144.8 Z M 300.1 148.2 C 300.1 148.2 300.06 146.19 300.1 146.2 C 300.1 145.8 300 145.4 299.9 145.1 C 299.7 144.9 299.5 144.8 299.2 144.8 C 298.8 144.8 298.4 145 298.1 145.4 C 298.1 145.6 298.1 145.9 298.1 146.1 C 298.12 146.11 298.1 148.2 298.1 148.2 L 297.4 148.2 C 297.4 148.2 297.39 146.19 297.4 146.2 C 297.4 145.8 297.4 145.3 297.2 145 C 297.1 144.9 296.9 144.8 296.6 144.8 C 296.2 144.8 295.7 145.1 295.5 145.5 C 295.45 145.5 295.5 148.2 295.5 148.2 L 294.7 148.2 L 294.7 144.2 L 295.5 144.2 C 295.5 144.2 295.45 144.8 295.5 144.8 C 295.8 144.4 296.2 144.1 296.7 144.1 C 297.2 144.1 297.6 144.3 297.8 144.6 C 297.9 144.7 297.9 144.8 297.9 144.8 C 298.3 144.3 298.8 144.1 299.3 144.1 C 299.8 144.1 300.2 144.3 300.4 144.6 C 300.7 144.9 300.8 145.5 300.8 146.1 C 300.78 146.11 300.8 148.2 300.8 148.2 L 300.1 148.2 Z M 302.8 144.2 C 302.8 144.2 302.81 144.73 302.8 144.7 C 303.1 144.3 303.6 144.1 304.1 144.1 C 305.2 144.1 306.1 145 306.1 146.2 C 306.1 147.3 305.3 148.3 304.1 148.3 C 303.6 148.3 303.1 148.1 302.8 147.8 C 302.81 147.76 302.8 150.2 302.8 150.2 L 302.1 150.2 L 302.1 144.2 L 302.8 144.2 Z M 302.8 147 C 303.1 147.4 303.6 147.6 304 147.6 C 304.9 147.6 305.3 146.9 305.3 146.2 C 305.3 145.4 304.8 144.8 304 144.8 C 303.6 144.8 303 145 302.8 145.5 C 302.8 145.5 302.8 147 302.8 147 Z M 309.5 148.2 C 309.5 148.2 309.46 147.77 309.5 147.8 C 309.1 148.1 308.8 148.3 308.3 148.3 C 307.5 148.3 306.8 147.9 306.8 147.1 C 306.8 146.1 307.8 145.7 308.6 145.7 C 308.8 145.7 309.1 145.8 309.4 145.8 C 309.4 145.8 309.4 145.7 309.4 145.7 C 309.4 145.1 309.1 144.7 308.5 144.7 C 308 144.7 307.5 144.9 307.2 145.1 C 307.2 145.1 307 144.5 307 144.5 C 307.4 144.3 308 144.1 308.6 144.1 C 309.7 144.1 310.2 144.7 310.2 145.8 C 310.16 145.76 310.2 148.2 310.2 148.2 L 309.5 148.2 Z M 309.4 146.4 C 309.1 146.3 308.9 146.3 308.7 146.3 C 308.2 146.3 307.6 146.4 307.6 147 C 307.6 147.5 307.9 147.7 308.4 147.7 C 308.8 147.7 309.1 147.5 309.4 147.2 C 309.4 147.2 309.4 146.4 309.4 146.4 Z M 312.2 144.2 C 312.2 144.2 312.18 144.85 312.2 144.8 C 312.5 144.4 313 144.1 313.5 144.1 C 314 144.1 314.4 144.3 314.6 144.6 C 314.9 145 315 145.5 315 146.1 C 315.01 146.11 315 148.2 315 148.2 L 314.3 148.2 C 314.3 148.2 314.28 146.19 314.3 146.2 C 314.3 145.8 314.3 145.4 314.1 145.1 C 313.9 144.9 313.7 144.8 313.4 144.8 C 312.9 144.8 312.5 145.1 312.2 145.5 C 312.18 145.53 312.2 148.2 312.2 148.2 L 311.5 148.2 L 311.5 144.2 L 312.2 144.2 Z M 316.3 148.2 L 316.3 144.2 L 317 144.2 L 317 148.2 L 316.3 148.2 Z M 316.3 143.4 L 316.3 142.6 L 317 142.6 L 317 143.4 L 316.3 143.4 Z M 322.1 146.2 C 322.1 147.4 321.2 148.3 320.1 148.3 C 318.9 148.3 318 147.4 318 146.2 C 318 145 318.9 144.1 320.1 144.1 C 321.2 144.1 322.1 145 322.1 146.2 Z M 320.1 144.8 C 319.3 144.8 318.8 145.4 318.8 146.2 C 318.8 147 319.3 147.6 320.1 147.6 C 320.8 147.6 321.4 147 321.4 146.2 C 321.4 145.4 320.8 144.8 320.1 144.8 Z M 323.9 144.2 C 323.9 144.2 323.85 144.85 323.9 144.8 C 324.2 144.4 324.6 144.1 325.2 144.1 C 325.7 144.1 326.1 144.3 326.3 144.6 C 326.6 145 326.7 145.5 326.7 146.1 C 326.68 146.11 326.7 148.2 326.7 148.2 L 326 148.2 C 326 148.2 325.95 146.19 326 146.2 C 326 145.8 325.9 145.4 325.7 145.1 C 325.6 144.9 325.4 144.8 325 144.8 C 324.6 144.8 324.1 145.1 323.9 145.5 C 323.85 145.53 323.9 148.2 323.9 148.2 L 323.1 148.2 L 323.1 144.2 L 323.9 144.2 Z M 329.9 145 C 329.7 144.8 329.4 144.7 329.1 144.7 C 328.8 144.7 328.5 144.9 328.5 145.2 C 328.5 145.5 328.9 145.7 329.3 145.8 C 329.8 146 330.5 146.3 330.5 147 C 330.5 147.9 329.8 148.3 329 148.3 C 328.5 148.3 328 148.1 327.6 147.7 C 327.6 147.7 328.2 147.3 328.2 147.3 C 328.4 147.5 328.7 147.7 329 147.7 C 329.4 147.7 329.8 147.5 329.8 147.1 C 329.8 146.8 329.4 146.6 329 146.4 C 328.5 146.2 327.8 146 327.8 145.3 C 327.8 144.5 328.5 144.1 329.1 144.1 C 329.6 144.1 330 144.2 330.4 144.5 C 330.4 144.5 329.9 145 329.9 145 Z M 331.9 149.3 L 331.2 149.3 L 331.6 147.3 L 332.4 147.3 L 331.9 149.3 Z M 331.6 145.1 L 331.6 144.2 L 332.4 144.2 L 332.4 145.1 L 331.6 145.1 Z M 337.5 145 C 337.4 144.8 337 144.7 336.7 144.7 C 336.4 144.7 336.1 144.9 336.1 145.2 C 336.1 145.5 336.5 145.7 336.9 145.8 C 337.4 146 338.1 146.3 338.1 147 C 338.1 147.9 337.4 148.3 336.6 148.3 C 336.1 148.3 335.6 148.1 335.3 147.7 C 335.3 147.7 335.8 147.3 335.8 147.3 C 336 147.5 336.3 147.7 336.6 147.7 C 337 147.7 337.4 147.5 337.4 147.1 C 337.4 146.8 337 146.6 336.6 146.4 C 336.1 146.2 335.4 146 335.4 145.3 C 335.4 144.5 336.1 144.1 336.7 144.1 C 337.2 144.1 337.6 144.2 338 144.5 C 338 144.5 337.5 145 337.5 145 Z M 342 147.5 C 341.7 148 341.2 148.3 340.7 148.3 C 340.1 148.3 339.7 148.1 339.5 147.8 C 339.2 147.4 339.1 146.9 339.1 146.3 C 339.14 146.27 339.1 144.2 339.1 144.2 L 339.9 144.2 C 339.9 144.2 339.87 146.19 339.9 146.2 C 339.9 146.6 339.9 147 340.1 147.3 C 340.2 147.5 340.4 147.6 340.8 147.6 C 341.2 147.6 341.7 147.3 342 146.8 C 341.97 146.85 342 144.2 342 144.2 L 342.7 144.2 L 342.7 148.2 L 342 148.2 C 342 148.2 341.97 147.53 342 147.5 Z M 344.8 144.9 C 345 144.4 345.4 144.1 345.8 144.1 C 346 144.1 346.1 144.1 346.2 144.1 C 346.2 144.1 346.1 144.9 346.1 144.9 C 346 144.9 345.9 144.8 345.7 144.8 C 345.3 144.8 345 145.1 344.8 145.5 C 344.77 145.51 344.8 148.2 344.8 148.2 L 344 148.2 L 344 144.2 L 344.8 144.2 C 344.8 144.2 344.77 144.85 344.8 144.9 Z M 347.3 146.4 C 347.3 147.1 347.8 147.7 348.6 147.7 C 349.1 147.7 349.5 147.5 349.8 147 C 349.8 147 350.3 147.4 350.3 147.4 C 349.9 148 349.4 148.3 348.5 148.3 C 347.3 148.3 346.6 147.4 346.6 146.2 C 346.6 145 347.4 144.1 348.5 144.1 C 349.6 144.1 350.4 144.9 350.4 146 C 350.4 146.1 350.3 146.3 350.3 146.4 C 350.3 146.4 347.3 146.4 347.3 146.4 Z M 347.3 145.8 C 347.3 145.8 349.6 145.8 349.6 145.8 C 349.6 145.2 349.2 144.7 348.6 144.7 C 347.9 144.7 347.5 145.2 347.3 145.8 Z M 354.1 144.8 C 354.1 144.8 354.14 146.64 354.1 146.6 C 354.1 146.7 354.1 146.8 354.1 147 C 354.2 147.4 354.3 147.6 354.7 147.6 C 354.9 147.6 355 147.6 355.2 147.5 C 355.2 147.5 355.4 148.1 355.4 148.1 C 355.2 148.2 354.9 148.3 354.6 148.3 C 354.1 148.3 353.7 148 353.5 147.6 C 353.4 147.4 353.4 147.1 353.4 146.8 C 353.41 146.81 353.4 144.8 353.4 144.8 L 352.9 144.8 L 352.9 144.2 L 353.4 144.2 L 353.4 143.2 L 354.1 143.2 L 354.1 144.2 L 355.3 144.2 L 355.3 144.8 L 354.1 144.8 Z M 359.9 146.2 C 359.9 147.4 359 148.3 357.8 148.3 C 356.7 148.3 355.8 147.4 355.8 146.2 C 355.8 145 356.7 144.1 357.8 144.1 C 359 144.1 359.9 145 359.9 146.2 Z M 357.8 144.8 C 357.1 144.8 356.5 145.4 356.5 146.2 C 356.5 147 357.1 147.6 357.8 147.6 C 358.6 147.6 359.1 147 359.1 146.2 C 359.1 145.4 358.6 144.8 357.8 144.8 Z M 365.3 148.2 C 365.3 148.2 365.27 147.77 365.3 147.8 C 364.9 148.1 364.6 148.3 364.1 148.3 C 363.3 148.3 362.7 147.9 362.7 147.1 C 362.7 146.1 363.6 145.7 364.4 145.7 C 364.6 145.7 364.9 145.8 365.2 145.8 C 365.2 145.8 365.2 145.7 365.2 145.7 C 365.2 145.1 365 144.7 364.3 144.7 C 363.8 144.7 363.3 144.9 363 145.1 C 363 145.1 362.8 144.5 362.8 144.5 C 363.2 144.3 363.8 144.1 364.4 144.1 C 365.5 144.1 366 144.7 366 145.8 C 365.97 145.76 366 148.2 366 148.2 L 365.3 148.2 Z M 365.2 146.4 C 364.9 146.3 364.7 146.3 364.5 146.3 C 364 146.3 363.4 146.4 363.4 147 C 363.4 147.5 363.7 147.7 364.2 147.7 C 364.6 147.7 364.9 147.5 365.2 147.2 C 365.2 147.2 365.2 146.4 365.2 146.4 Z M 366.9 146.2 C 366.9 145.1 367.7 144.1 368.9 144.1 C 369.4 144.1 369.9 144.3 370.2 144.6 C 370.2 144.63 370.2 142.2 370.2 142.2 L 370.9 142.2 L 370.9 148.2 L 370.2 148.2 C 370.2 148.2 370.2 147.65 370.2 147.7 C 369.9 148.1 369.4 148.3 368.9 148.3 C 367.8 148.3 366.9 147.4 366.9 146.2 Z M 370.2 146.9 C 370.2 146.9 370.2 145.4 370.2 145.4 C 369.9 145 369.4 144.8 369 144.8 C 368.1 144.8 367.7 145.5 367.7 146.2 C 367.7 146.9 368.2 147.6 369 147.6 C 369.5 147.6 370 147.4 370.2 146.9 Z M 371.9 146.2 C 371.9 145.1 372.7 144.1 374 144.1 C 374.4 144.1 374.9 144.3 375.2 144.6 C 375.21 144.63 375.2 142.2 375.2 142.2 L 375.9 142.2 L 375.9 148.2 L 375.2 148.2 C 375.2 148.2 375.21 147.65 375.2 147.7 C 374.9 148.1 374.4 148.3 373.9 148.3 C 372.8 148.3 371.9 147.4 371.9 146.2 Z M 375.2 146.9 C 375.2 146.9 375.2 145.4 375.2 145.4 C 374.9 145 374.5 144.8 374 144.8 C 373.1 144.8 372.7 145.5 372.7 146.2 C 372.7 146.9 373.2 147.6 374 147.6 C 374.5 147.6 375 147.4 375.2 146.9 Z " stroke="none" fill="#fff"/>  </g>  <g id="Polygon40399">    <path d="M 159.1 108.1 C 159.8 108.1 160.5 107.9 161.1 107.4 C 161.1 107.4 161.8 108.5 161.8 108.5 C 161 109 160.1 109.3 159.1 109.3 C 156.3 109.3 154.2 107.5 154.2 104.6 C 154.2 102 156.4 99.9 159.1 99.9 C 160 99.9 160.9 100.2 161.6 100.7 C 161.6 100.7 161 101.8 161 101.8 C 160.4 101.4 159.8 101.2 159.1 101.2 C 157.1 101.2 155.7 102.6 155.7 104.6 C 155.7 106.8 157.1 108.1 159.1 108.1 Z M 167.7 101.2 C 165.9 101.2 164.5 102.7 164.5 104.6 C 164.5 106.6 165.9 108.1 167.7 108.1 C 169.6 108.1 171 106.6 171 104.6 C 171 102.7 169.6 101.2 167.7 101.2 Z M 167.7 109.3 C 165.1 109.3 163 107.2 163 104.6 C 163 102 165.1 99.9 167.7 99.9 C 170.4 99.9 172.4 102 172.4 104.6 C 172.4 107.2 170.4 109.3 167.7 109.3 Z M 179.3 101.2 C 177.4 101.2 176.1 102.7 176.1 104.6 C 176.1 106.6 177.4 108.1 179.3 108.1 C 181.2 108.1 182.5 106.6 182.5 104.6 C 182.5 102.7 181.2 101.2 179.3 101.2 Z M 179.3 109.3 C 176.6 109.3 174.6 107.2 174.6 104.6 C 174.6 102 176.6 99.9 179.3 99.9 C 181.9 99.9 184 102 184 104.6 C 184 107.2 181.9 109.3 179.3 109.3 Z M 186.6 109.2 L 186.6 100.1 L 188 100.1 L 188 108 L 191.9 108 L 191.9 109.2 L 186.6 109.2 Z M 194.4 110.9 L 193.2 110.9 L 193.8 107.6 L 195.3 107.6 L 194.4 110.9 Z M 206.4 108.1 C 207.1 108.1 207.8 107.9 208.4 107.4 C 208.4 107.4 209.1 108.5 209.1 108.5 C 208.3 109 207.4 109.3 206.4 109.3 C 203.6 109.3 201.5 107.5 201.5 104.6 C 201.5 102 203.7 99.9 206.4 99.9 C 207.3 99.9 208.2 100.2 208.9 100.7 C 208.9 100.7 208.2 101.8 208.2 101.8 C 207.7 101.4 207.1 101.2 206.4 101.2 C 204.4 101.2 203 102.6 203 104.6 C 203 106.8 204.4 108.1 206.4 108.1 Z M 215 101.2 C 213.2 101.2 211.8 102.7 211.8 104.6 C 211.8 106.6 213.2 108.1 215 108.1 C 216.9 108.1 218.3 106.6 218.3 104.6 C 218.3 102.7 216.9 101.2 215 101.2 Z M 215 109.3 C 212.4 109.3 210.3 107.2 210.3 104.6 C 210.3 102 212.4 99.9 215 99.9 C 217.7 99.9 219.7 102 219.7 104.6 C 219.7 107.2 217.7 109.3 215 109.3 Z M 227 107.3 L 223.3 107.3 L 222.6 109.2 L 221.1 109.2 L 224.6 100.1 L 225.8 100.1 L 229.3 109.2 L 227.7 109.2 L 227 107.3 Z M 223.7 106.1 L 226.5 106.1 L 225.1 102.2 L 225.1 102.2 L 223.7 106.1 Z M 234.3 101.2 C 233.5 101.2 232.8 101.6 232.8 102.3 C 232.8 103.1 233.7 103.4 234.6 103.7 C 235.9 104.1 237.4 104.7 237.4 106.5 C 237.4 108.5 235.6 109.3 234.2 109.3 C 232.8 109.3 231.8 108.9 230.8 107.9 C 230.8 107.9 231.8 107 231.8 107 C 232.6 107.8 233.2 108.1 234.2 108.1 C 235.1 108.1 235.9 107.7 235.9 106.6 C 235.9 105.7 235 105.4 234 105 C 232.7 104.6 231.4 104 231.4 102.5 C 231.4 100.7 232.7 99.9 234.2 99.9 C 235.3 99.9 236.2 100.3 237.1 100.9 C 237.1 100.9 236.2 101.9 236.2 101.9 C 235.8 101.5 235.1 101.2 234.3 101.2 Z M 242.7 101.3 L 242.7 109.2 L 241.3 109.2 L 241.3 101.3 L 239 101.3 L 239 100.1 L 245 100.1 L 245 101.3 L 242.7 101.3 Z M 251.4 107.3 L 247.7 107.3 L 247 109.2 L 245.5 109.2 L 249.1 100.1 L 250.2 100.1 L 253.7 109.2 L 252.1 109.2 L 251.4 107.3 Z M 248.2 106.1 L 251 106.1 L 249.6 102.2 L 249.6 102.2 L 248.2 106.1 Z M 255.8 109.2 L 255.8 100.1 L 257.2 100.1 L 257.2 108 L 261.1 108 L 261.1 109.2 L 255.8 109.2 Z M 271.3 108.1 C 272 108.1 272.7 107.9 273.3 107.4 C 273.3 107.4 274.1 108.5 274.1 108.5 C 273.3 109 272.3 109.3 271.3 109.3 C 268.6 109.3 266.5 107.5 266.5 104.6 C 266.5 102 268.7 99.9 271.3 99.9 C 272.3 99.9 273.1 100.2 273.9 100.7 C 273.9 100.7 273.2 101.8 273.2 101.8 C 272.7 101.4 272 101.2 271.3 101.2 C 269.4 101.2 267.9 102.6 267.9 104.6 C 267.9 106.8 269.3 108.1 271.3 108.1 Z M 280 101.2 C 278.1 101.2 276.8 102.7 276.8 104.6 C 276.8 106.6 278.1 108.1 280 108.1 C 281.9 108.1 283.2 106.6 283.2 104.6 C 283.2 102.7 281.9 101.2 280 101.2 Z M 280 109.3 C 277.3 109.3 275.3 107.2 275.3 104.6 C 275.3 102 277.3 99.9 280 99.9 C 282.7 99.9 284.7 102 284.7 104.6 C 284.7 107.2 282.7 109.3 280 109.3 Z M 292.6 109.2 L 291.6 109.2 L 288.7 101.8 L 288.7 109.2 L 287.3 109.2 L 287.3 100.1 L 289.4 100.1 L 292.1 107 L 294.9 100.1 L 297 100.1 L 297 109.2 L 295.6 109.2 L 295.6 101.8 L 292.6 109.2 Z M 301.4 105.4 L 301.4 109.2 L 300 109.2 L 300 100.1 L 304.7 100.1 L 304.7 101.3 L 301.4 101.3 L 301.4 104.1 L 304.7 104.1 L 304.7 105.4 L 301.4 105.4 Z M 311.4 101.2 C 309.5 101.2 308.2 102.7 308.2 104.6 C 308.2 106.6 309.5 108.1 311.4 108.1 C 313.3 108.1 314.6 106.6 314.6 104.6 C 314.6 102.7 313.3 101.2 311.4 101.2 Z M 311.4 109.3 C 308.7 109.3 306.7 107.2 306.7 104.6 C 306.7 102 308.7 99.9 311.4 99.9 C 314.1 99.9 316.1 102 316.1 104.6 C 316.1 107.2 314.1 109.3 311.4 109.3 Z M 321.4 100.1 C 322.8 100.1 324.6 100.8 324.6 102.7 C 324.6 104.3 323.5 105 322.4 105.3 C 322.42 105.29 325.3 109.2 325.3 109.2 L 323.5 109.2 L 320.9 105.4 L 320.1 105.4 L 320.1 109.2 L 318.7 109.2 L 318.7 100.1 C 318.7 100.1 321.42 100.09 321.4 100.1 Z M 320.1 104.2 C 320.1 104.2 321.11 104.17 321.1 104.2 C 322.3 104.2 323.1 103.8 323.1 102.8 C 323.1 101.9 322.4 101.3 321.4 101.3 C 321.36 101.31 320.1 101.3 320.1 101.3 L 320.1 104.2 Z M 330.1 101.3 L 330.1 109.2 L 328.7 109.2 L 328.7 101.3 L 326.4 101.3 L 326.4 100.1 L 332.3 100.1 L 332.3 101.3 L 330.1 101.3 Z " stroke="none" fill="#fff"/>  </g>  <g id="Polygon40398">    <path d="M 42.9 34.4 C 42.9 35.1 42.9 35.8 42.9 36.4 C 43 37.1 43 37.8 43 38.4 C 43.3 38.5 43.6 38.5 43.9 38.5 C 44.3 38.5 44.6 38.5 45 38.5 C 45.4 38.5 45.8 38.5 46.2 38.3 C 46.6 38.2 46.9 38 47.2 37.7 C 47.5 37.4 47.8 37 47.9 36.6 C 48.1 36.2 48.2 35.7 48.2 35.2 C 48.2 34.6 48.1 34.1 47.9 33.8 C 47.7 33.4 47.4 33.1 47 32.9 C 46.6 32.7 46.1 32.6 45.6 32.5 C 45.1 32.4 44.5 32.4 43.8 32.4 C 43.79 32.37 42.9 32.4 42.9 32.4 C 42.9 32.4 42.89 34.41 42.9 34.4 Z M 44 31.6 C 44.4 31.6 44.9 31.6 45.4 31.5 C 45.8 31.4 46.2 31.2 46.6 31 C 47 30.8 47.2 30.5 47.5 30.1 C 47.7 29.8 47.8 29.3 47.8 28.7 C 47.8 28.2 47.7 27.8 47.5 27.4 C 47.3 27.1 47 26.9 46.7 26.7 C 46.4 26.5 46.1 26.4 45.7 26.3 C 45.3 26.3 44.9 26.2 44.5 26.2 C 44.2 26.2 43.9 26.2 43.7 26.3 C 43.4 26.3 43.2 26.3 43 26.3 C 43 27 43 27.6 42.9 28.2 C 42.9 28.9 42.9 29.5 42.9 30.1 C 42.89 30.13 42.9 31.6 42.9 31.6 C 42.9 31.6 43.97 31.63 44 31.6 Z M 41.3 30.6 C 41.3 29.8 41.2 28.9 41.2 28 C 41.2 27.2 41.1 26.3 41.1 25.5 C 41.4 25.5 41.8 25.5 42.2 25.6 C 42.5 25.6 42.9 25.6 43.2 25.6 C 43.6 25.6 43.9 25.6 44.3 25.5 C 44.6 25.5 45 25.5 45.3 25.5 C 45.9 25.5 46.4 25.5 47 25.6 C 47.5 25.7 47.9 25.9 48.3 26.1 C 48.7 26.3 49 26.6 49.2 27 C 49.4 27.3 49.6 27.8 49.6 28.4 C 49.6 29.4 49.2 30.1 48.6 30.7 C 48 31.2 47.2 31.6 46.2 31.9 C 46.2 31.9 46.2 31.9 46.2 31.9 C 47.4 32 48.3 32.2 49 32.8 C 49.7 33.3 50 34.1 50 35.3 C 50 36 49.9 36.6 49.6 37.1 C 49.3 37.7 48.9 38.1 48.4 38.4 C 47.9 38.7 47.3 38.9 46.7 39 C 46.1 39.2 45.6 39.2 45 39.2 C 44.7 39.2 44.3 39.2 44 39.2 C 43.7 39.2 43.4 39.2 43 39.2 C 42.7 39.2 42.4 39.2 42.1 39.2 C 41.7 39.2 41.4 39.2 41.1 39.2 C 41.1 38.4 41.2 37.5 41.2 36.7 C 41.2 35.8 41.3 35 41.3 34.1 C 41.3 34.1 41.3 30.6 41.3 30.6 Z M 54.5 30.7 C 54.5 29.8 54.5 28.9 54.4 28.1 C 54.4 27.2 54.4 26.4 54.3 25.5 C 54.7 25.5 55.1 25.5 55.5 25.6 C 55.8 25.6 56.2 25.6 56.6 25.6 C 57 25.6 57.4 25.6 57.7 25.5 C 58.1 25.5 58.5 25.5 58.9 25.5 C 59.4 25.5 60 25.5 60.5 25.6 C 61 25.8 61.4 25.9 61.8 26.2 C 62.2 26.4 62.5 26.7 62.7 27.1 C 62.9 27.5 63 28 63 28.6 C 63 29.3 62.9 29.8 62.6 30.3 C 62.3 30.8 62 31.1 61.6 31.4 C 61.1 31.7 60.7 32 60.2 32.1 C 59.7 32.3 59.3 32.4 58.9 32.5 C 59.1 32.7 59.3 32.9 59.6 33.3 C 59.9 33.7 60.2 34.1 60.5 34.5 C 60.9 34.9 61.2 35.4 61.6 35.9 C 62 36.3 62.3 36.8 62.7 37.2 C 63 37.7 63.4 38 63.7 38.4 C 64 38.8 64.2 39 64.4 39.2 C 64.2 39.2 64 39.2 63.8 39.2 C 63.6 39.2 63.4 39.2 63.2 39.2 C 63 39.2 62.8 39.2 62.6 39.2 C 62.4 39.2 62.2 39.2 62.1 39.2 C 61.9 38.9 61.5 38.5 61.1 38 C 60.7 37.4 60.3 36.8 59.8 36.2 C 59.3 35.5 58.8 34.9 58.3 34.3 C 57.8 33.6 57.3 33.1 56.9 32.6 C 56.87 32.65 56.1 32.6 56.1 32.6 C 56.1 32.6 56.11 34.11 56.1 34.1 C 56.1 35 56.1 35.9 56.2 36.7 C 56.2 37.6 56.2 38.4 56.3 39.2 C 56 39.2 55.6 39.2 55.3 39.2 C 54.9 39.2 54.6 39.2 54.3 39.2 C 54.4 38.4 54.4 37.6 54.4 36.7 C 54.5 35.9 54.5 35 54.5 34.1 C 54.5 34.1 54.5 30.7 54.5 30.7 Z M 56.1 31.8 C 56.3 31.8 56.5 31.9 56.7 31.9 C 56.9 31.9 57.2 31.9 57.5 31.9 C 57.9 31.9 58.3 31.9 58.7 31.8 C 59.2 31.7 59.6 31.5 60 31.3 C 60.3 31 60.7 30.7 60.9 30.3 C 61.1 29.9 61.3 29.4 61.3 28.8 C 61.3 28.3 61.2 27.9 61 27.6 C 60.8 27.2 60.5 26.9 60.2 26.7 C 59.9 26.5 59.6 26.4 59.2 26.3 C 58.9 26.3 58.5 26.2 58.2 26.2 C 57.7 26.2 57.3 26.2 57 26.3 C 56.7 26.3 56.4 26.3 56.2 26.3 C 56.2 27.1 56.2 27.8 56.2 28.5 C 56.1 29.2 56.1 29.9 56.1 30.7 C 56.1 30.7 56.1 31.8 56.1 31.8 Z M 67.7 30.7 C 67.7 29.8 67.7 28.9 67.6 28.1 C 67.6 27.2 67.6 26.4 67.5 25.5 C 67.7 25.5 67.9 25.5 68 25.6 C 68.2 25.6 68.4 25.6 68.5 25.6 C 68.7 25.6 68.8 25.6 69 25.6 C 69.2 25.5 69.3 25.5 69.5 25.5 C 69.5 26.4 69.4 27.2 69.4 28.1 C 69.3 28.9 69.3 29.8 69.3 30.7 C 69.3 30.7 69.3 34.1 69.3 34.1 C 69.3 35 69.3 35.9 69.4 36.7 C 69.4 37.6 69.5 38.4 69.5 39.2 C 69.2 39.2 68.9 39.2 68.5 39.2 C 68.2 39.2 67.8 39.2 67.5 39.2 C 67.6 38.4 67.6 37.6 67.6 36.7 C 67.7 35.9 67.7 35 67.7 34.1 C 67.69 34.11 67.7 30.7 67.7 30.7 C 67.7 30.7 67.69 30.67 67.7 30.7 Z M 85.7 27.9 C 85.5 27.7 85.3 27.4 85 27.2 C 84.7 27 84.3 26.8 84 26.6 C 83.6 26.4 83.2 26.3 82.7 26.1 C 82.3 26 81.8 26 81.3 26 C 80.5 26 79.7 26.1 79 26.3 C 78.3 26.6 77.7 27 77.1 27.5 C 76.6 28 76.2 28.7 75.9 29.5 C 75.6 30.3 75.5 31.3 75.5 32.4 C 75.5 33.4 75.6 34.2 75.9 35 C 76.1 35.8 76.5 36.5 77 37 C 77.5 37.6 78.2 38 78.9 38.3 C 79.6 38.6 80.5 38.7 81.4 38.7 C 81.7 38.7 82 38.7 82.3 38.7 C 82.6 38.6 82.9 38.6 83.2 38.5 C 83.5 38.5 83.7 38.4 84 38.3 C 84.2 38.3 84.4 38.2 84.6 38.1 C 84.6 37.7 84.6 37.3 84.6 36.9 C 84.6 36.5 84.7 36.1 84.7 35.6 C 84.7 35.2 84.6 34.7 84.6 34.2 C 84.6 33.8 84.6 33.3 84.6 32.9 C 84.9 33 85.2 33 85.5 33 C 85.7 33 85.8 33 86 33 C 86.1 33 86.2 32.9 86.4 32.9 C 86.3 33.2 86.3 33.7 86.3 34.4 C 86.3 35 86.3 35.9 86.3 37 C 86.3 37.2 86.3 37.5 86.3 37.8 C 86.3 38.1 86.3 38.3 86.3 38.6 C 86 38.7 85.7 38.8 85.3 38.9 C 84.8 39 84.4 39.1 83.9 39.2 C 83.4 39.3 83 39.3 82.5 39.4 C 82 39.5 81.6 39.5 81.2 39.5 C 80 39.5 79 39.3 78 39.1 C 77 38.8 76.2 38.3 75.6 37.7 C 74.9 37.1 74.4 36.4 74 35.5 C 73.7 34.6 73.5 33.6 73.5 32.4 C 73.5 31.3 73.7 30.2 74.1 29.4 C 74.4 28.5 75 27.7 75.6 27.1 C 76.3 26.5 77.1 26 78.1 25.7 C 79.1 25.4 80.1 25.2 81.3 25.2 C 82 25.2 82.6 25.3 83.1 25.3 C 83.6 25.4 84.1 25.5 84.5 25.6 C 84.9 25.7 85.3 25.9 85.6 26 C 85.9 26.1 86.2 26.3 86.4 26.4 C 86.3 26.6 86.2 26.8 86.1 27.1 C 86 27.4 86 27.7 86 27.9 C 85.95 27.93 85.7 27.9 85.7 27.9 C 85.7 27.9 85.71 27.93 85.7 27.9 Z M 100.8 30.7 C 100.8 29.8 100.8 28.9 100.8 28.1 C 100.7 27.2 100.7 26.4 100.7 25.5 C 100.8 25.5 101 25.5 101.2 25.6 C 101.3 25.6 101.5 25.6 101.6 25.6 C 101.8 25.6 102 25.6 102.1 25.6 C 102.3 25.5 102.4 25.5 102.6 25.5 C 102.6 26.4 102.5 27.2 102.5 28.1 C 102.5 28.9 102.5 29.8 102.5 30.7 C 102.5 30.7 102.5 34.1 102.5 34.1 C 102.5 35 102.5 35.9 102.5 36.7 C 102.5 37.6 102.6 38.4 102.6 39.2 C 102.3 39.2 102 39.2 101.6 39.2 C 101.3 39.2 101 39.2 100.7 39.2 C 100.7 38.4 100.7 37.6 100.8 36.7 C 100.8 35.9 100.8 35 100.8 34.1 C 100.8 34.1 100.8 32.3 100.8 32.3 C 100.1 32.3 99.4 32.3 98.7 32.3 C 98 32.3 97.4 32.3 96.6 32.3 C 95.9 32.3 95.2 32.3 94.5 32.3 C 93.9 32.3 93.2 32.3 92.5 32.3 C 92.5 32.3 92.5 34.1 92.5 34.1 C 92.5 35 92.5 35.9 92.5 36.7 C 92.5 37.6 92.6 38.4 92.6 39.2 C 92.3 39.2 92 39.2 91.6 39.2 C 91.3 39.2 91 39.2 90.7 39.2 C 90.7 38.4 90.7 37.6 90.8 36.7 C 90.8 35.9 90.8 35 90.8 34.1 C 90.8 34.1 90.8 30.7 90.8 30.7 C 90.8 29.8 90.8 28.9 90.8 28.1 C 90.7 27.2 90.7 26.4 90.7 25.5 C 90.8 25.5 91 25.5 91.2 25.6 C 91.3 25.6 91.5 25.6 91.6 25.6 C 91.8 25.6 92 25.6 92.1 25.6 C 92.3 25.5 92.4 25.5 92.6 25.5 C 92.6 26.4 92.5 27.2 92.5 28.1 C 92.5 28.9 92.5 29.8 92.5 30.7 C 92.5 30.7 92.5 31.4 92.5 31.4 C 93.2 31.4 93.9 31.4 94.5 31.4 C 95.2 31.4 95.9 31.4 96.6 31.4 C 97.4 31.4 98 31.4 98.7 31.4 C 99.4 31.4 100.1 31.4 100.8 31.4 C 100.81 31.37 100.8 30.7 100.8 30.7 C 100.8 30.7 100.81 30.67 100.8 30.7 Z M 110.2 30.7 C 110.2 29.3 110.1 27.9 110.1 26.5 C 109.7 26.5 109.4 26.5 109 26.5 C 108.6 26.5 108.2 26.6 107.9 26.6 C 107.5 26.6 107.1 26.6 106.8 26.6 C 106.4 26.7 106.1 26.7 105.8 26.7 C 105.9 26.5 105.9 26.3 105.9 26.1 C 105.9 26 105.9 25.8 105.8 25.5 C 106.7 25.5 107.6 25.5 108.4 25.6 C 109.2 25.6 110.1 25.6 111 25.6 C 111.9 25.6 112.7 25.6 113.6 25.6 C 114.4 25.5 115.3 25.5 116.1 25.5 C 116.1 25.8 116 26 116 26.1 C 116 26.3 116.1 26.5 116.1 26.7 C 115.9 26.7 115.5 26.7 115.2 26.6 C 114.8 26.6 114.5 26.6 114.1 26.6 C 113.7 26.6 113.3 26.5 112.9 26.5 C 112.6 26.5 112.2 26.5 111.9 26.5 C 111.8 27.9 111.8 29.3 111.8 30.7 C 111.8 30.7 111.8 34.1 111.8 34.1 C 111.8 35 111.8 35.9 111.8 36.7 C 111.9 37.6 111.9 38.4 112 39.2 C 111.6 39.2 111.3 39.2 111 39.2 C 110.6 39.2 110.3 39.2 110 39.2 C 110 38.4 110.1 37.6 110.1 36.7 C 110.1 35.9 110.2 35 110.2 34.1 C 110.15 34.11 110.2 30.7 110.2 30.7 C 110.2 30.7 110.15 30.67 110.2 30.7 Z M 117.5 37.7 C 117.5 37.5 117.6 37.3 117.7 37.2 C 117.9 37 118.1 36.9 118.3 36.9 C 118.5 36.9 118.7 37 118.8 37.1 C 119 37.2 119.1 37.4 119.1 37.6 C 119.1 37.8 119 37.9 119 38 C 118.9 38.2 118.8 38.3 118.8 38.4 C 118.77 38.45 116.3 42.6 116.3 42.6 L 115.9 42.5 L 117.5 37.7 C 117.5 37.7 117.45 37.69 117.5 37.7 Z M 132 34.4 C 132 35.1 132 35.8 132.1 36.4 C 132.1 37.1 132.1 37.8 132.2 38.4 C 132.4 38.5 132.7 38.5 133.1 38.5 C 133.4 38.5 133.8 38.5 134.1 38.5 C 134.5 38.5 134.9 38.5 135.3 38.3 C 135.7 38.2 136.1 38 136.4 37.7 C 136.7 37.4 136.9 37 137.1 36.6 C 137.2 36.2 137.3 35.7 137.3 35.2 C 137.3 34.6 137.2 34.1 137 33.8 C 136.8 33.4 136.5 33.1 136.1 32.9 C 135.7 32.7 135.3 32.6 134.7 32.5 C 134.2 32.4 133.6 32.4 132.9 32.4 C 132.93 32.37 132 32.4 132 32.4 C 132 32.4 132.03 34.41 132 34.4 Z M 133.1 31.6 C 133.6 31.6 134 31.6 134.5 31.5 C 135 31.4 135.4 31.2 135.7 31 C 136.1 30.8 136.4 30.5 136.6 30.1 C 136.8 29.8 136.9 29.3 136.9 28.7 C 136.9 28.2 136.8 27.8 136.6 27.4 C 136.4 27.1 136.2 26.9 135.9 26.7 C 135.6 26.5 135.2 26.4 134.8 26.3 C 134.4 26.3 134.1 26.2 133.7 26.2 C 133.3 26.2 133 26.2 132.8 26.3 C 132.6 26.3 132.3 26.3 132.2 26.3 C 132.1 27 132.1 27.6 132.1 28.2 C 132 28.9 132 29.5 132 30.1 C 132.03 30.13 132 31.6 132 31.6 C 132 31.6 133.11 31.63 133.1 31.6 Z M 130.4 30.6 C 130.4 29.8 130.4 28.9 130.3 28 C 130.3 27.2 130.3 26.3 130.2 25.5 C 130.6 25.5 130.9 25.5 131.3 25.6 C 131.7 25.6 132 25.6 132.4 25.6 C 132.7 25.6 133.1 25.6 133.4 25.5 C 133.8 25.5 134.1 25.5 134.5 25.5 C 135 25.5 135.6 25.5 136.1 25.6 C 136.6 25.7 137 25.9 137.4 26.1 C 137.8 26.3 138.1 26.6 138.4 27 C 138.6 27.3 138.7 27.8 138.7 28.4 C 138.7 29.4 138.4 30.1 137.8 30.7 C 137.1 31.2 136.3 31.6 135.3 31.9 C 135.3 31.9 135.3 31.9 135.3 31.9 C 136.5 32 137.5 32.2 138.1 32.8 C 138.8 33.3 139.2 34.1 139.2 35.3 C 139.2 36 139 36.6 138.7 37.1 C 138.4 37.7 138 38.1 137.5 38.4 C 137 38.7 136.5 38.9 135.9 39 C 135.3 39.2 134.7 39.2 134.1 39.2 C 133.8 39.2 133.5 39.2 133.1 39.2 C 132.8 39.2 132.5 39.2 132.2 39.2 C 131.9 39.2 131.5 39.2 131.2 39.2 C 130.9 39.2 130.6 39.2 130.2 39.2 C 130.3 38.4 130.3 37.5 130.3 36.7 C 130.4 35.8 130.4 35 130.4 34.1 C 130.4 34.1 130.4 30.6 130.4 30.6 Z M 143.6 30.7 C 143.6 29.8 143.6 28.9 143.6 28.1 C 143.5 27.2 143.5 26.4 143.5 25.5 C 143.8 25.5 144.2 25.5 144.6 25.6 C 145 25.6 145.3 25.6 145.7 25.6 C 146.1 25.6 146.5 25.6 146.9 25.5 C 147.2 25.5 147.6 25.5 148 25.5 C 148.6 25.5 149.1 25.5 149.6 25.6 C 150.1 25.8 150.6 25.9 150.9 26.2 C 151.3 26.4 151.6 26.7 151.8 27.1 C 152.1 27.5 152.2 28 152.2 28.6 C 152.2 29.3 152 29.8 151.7 30.3 C 151.5 30.8 151.1 31.1 150.7 31.4 C 150.3 31.7 149.8 32 149.4 32.1 C 148.9 32.3 148.5 32.4 148.1 32.5 C 148.2 32.7 148.5 32.9 148.7 33.3 C 149 33.7 149.3 34.1 149.7 34.5 C 150 34.9 150.4 35.4 150.8 35.9 C 151.1 36.3 151.5 36.8 151.8 37.2 C 152.2 37.7 152.5 38 152.8 38.4 C 153.1 38.8 153.4 39 153.6 39.2 C 153.4 39.2 153.2 39.2 153 39.2 C 152.8 39.2 152.6 39.2 152.4 39.2 C 152.2 39.2 152 39.2 151.8 39.2 C 151.6 39.2 151.4 39.2 151.2 39.2 C 151 38.9 150.7 38.5 150.3 38 C 149.9 37.4 149.4 36.8 148.9 36.2 C 148.4 35.5 147.9 34.9 147.4 34.3 C 146.9 33.6 146.4 33.1 146 32.6 C 146.01 32.65 145.3 32.6 145.3 32.6 C 145.3 32.6 145.25 34.11 145.3 34.1 C 145.3 35 145.3 35.9 145.3 36.7 C 145.3 37.6 145.4 38.4 145.4 39.2 C 145.1 39.2 144.8 39.2 144.4 39.2 C 144.1 39.2 143.8 39.2 143.5 39.2 C 143.5 38.4 143.5 37.6 143.6 36.7 C 143.6 35.9 143.6 35 143.6 34.1 C 143.6 34.1 143.6 30.7 143.6 30.7 Z M 145.3 31.8 C 145.4 31.8 145.6 31.9 145.9 31.9 C 146.1 31.9 146.3 31.9 146.6 31.9 C 147 31.9 147.4 31.9 147.9 31.8 C 148.3 31.7 148.7 31.5 149.1 31.3 C 149.5 31 149.8 30.7 150 30.3 C 150.3 29.9 150.4 29.4 150.4 28.8 C 150.4 28.3 150.3 27.9 150.1 27.6 C 149.9 27.2 149.7 26.9 149.4 26.7 C 149.1 26.5 148.7 26.4 148.4 26.3 C 148 26.3 147.7 26.2 147.3 26.2 C 146.8 26.2 146.5 26.2 146.2 26.3 C 145.8 26.3 145.6 26.3 145.4 26.3 C 145.3 27.1 145.3 27.8 145.3 28.5 C 145.3 29.2 145.3 29.9 145.3 30.7 C 145.3 30.7 145.3 31.8 145.3 31.8 Z M 156.8 30.6 C 156.8 29.8 156.8 28.9 156.8 28 C 156.7 27.2 156.7 26.3 156.7 25.5 C 157.3 25.5 157.9 25.5 158.5 25.6 C 159.1 25.6 159.7 25.6 160.3 25.6 C 160.9 25.6 161.4 25.6 162 25.6 C 162.6 25.5 163.2 25.5 163.8 25.5 C 163.8 25.7 163.8 25.9 163.8 26.1 C 163.8 26.3 163.8 26.5 163.8 26.7 C 163.4 26.7 163 26.6 162.6 26.6 C 162.3 26.6 161.9 26.6 161.5 26.5 C 161.1 26.5 160.7 26.5 160.2 26.5 C 159.8 26.4 159.2 26.4 158.6 26.4 C 158.5 26.9 158.5 27.3 158.5 27.6 C 158.5 28 158.5 28.5 158.5 29 C 158.5 29.5 158.5 30 158.5 30.5 C 158.5 31 158.5 31.4 158.5 31.6 C 159.1 31.6 159.6 31.6 160.1 31.6 C 160.5 31.6 161 31.6 161.4 31.5 C 161.7 31.5 162.1 31.5 162.4 31.5 C 162.7 31.5 163.1 31.4 163.4 31.4 C 163.3 31.6 163.3 31.8 163.3 32 C 163.3 32.2 163.3 32.4 163.4 32.6 C 163 32.6 162.6 32.6 162.1 32.5 C 161.7 32.5 161.2 32.5 160.8 32.5 C 160.3 32.5 159.9 32.5 159.5 32.5 C 159.1 32.5 158.7 32.4 158.5 32.4 C 158.5 32.6 158.5 32.7 158.5 32.8 C 158.5 33 158.5 33.2 158.5 33.4 C 158.47 33.37 158.5 34.1 158.5 34.1 C 158.5 34.1 158.47 35.35 158.5 35.3 C 158.5 36.1 158.5 36.7 158.5 37.2 C 158.5 37.7 158.5 38.1 158.5 38.3 C 159 38.3 159.4 38.3 159.9 38.3 C 160.4 38.3 160.9 38.3 161.4 38.3 C 161.9 38.3 162.3 38.3 162.8 38.2 C 163.2 38.2 163.6 38.2 163.9 38.1 C 163.9 38.2 163.9 38.3 163.9 38.4 C 163.9 38.5 163.9 38.6 163.9 38.7 C 163.9 38.9 163.9 39.1 163.9 39.2 C 163.3 39.2 162.7 39.2 162.1 39.2 C 161.5 39.2 160.9 39.2 160.3 39.2 C 159.7 39.2 159.1 39.2 158.5 39.2 C 157.9 39.2 157.3 39.2 156.7 39.2 C 156.7 38.4 156.7 37.5 156.8 36.7 C 156.8 35.8 156.8 35 156.8 34.1 C 156.83 34.09 156.8 30.6 156.8 30.6 C 156.8 30.6 156.83 30.65 156.8 30.6 Z M 167.8 30.6 C 167.8 29.8 167.8 28.9 167.8 28 C 167.7 27.2 167.7 26.3 167.7 25.5 C 168.3 25.5 168.9 25.5 169.5 25.6 C 170.1 25.6 170.7 25.6 171.3 25.6 C 171.9 25.6 172.4 25.6 173 25.6 C 173.6 25.5 174.2 25.5 174.8 25.5 C 174.8 25.7 174.8 25.9 174.8 26.1 C 174.8 26.3 174.8 26.5 174.8 26.7 C 174.4 26.7 174 26.6 173.6 26.6 C 173.3 26.6 172.9 26.6 172.5 26.5 C 172.1 26.5 171.7 26.5 171.2 26.5 C 170.8 26.4 170.2 26.4 169.6 26.4 C 169.5 26.9 169.5 27.3 169.5 27.6 C 169.5 28 169.5 28.5 169.5 29 C 169.5 29.5 169.5 30 169.5 30.5 C 169.5 31 169.5 31.4 169.5 31.6 C 170.1 31.6 170.6 31.6 171.1 31.6 C 171.5 31.6 172 31.6 172.4 31.5 C 172.7 31.5 173.1 31.5 173.4 31.5 C 173.7 31.5 174.1 31.4 174.4 31.4 C 174.3 31.6 174.3 31.8 174.3 32 C 174.3 32.2 174.3 32.4 174.4 32.6 C 174 32.6 173.6 32.6 173.1 32.5 C 172.7 32.5 172.2 32.5 171.8 32.5 C 171.3 32.5 170.9 32.5 170.5 32.5 C 170.1 32.5 169.7 32.4 169.5 32.4 C 169.5 32.6 169.5 32.7 169.5 32.8 C 169.5 33 169.5 33.2 169.5 33.4 C 169.47 33.37 169.5 34.1 169.5 34.1 C 169.5 34.1 169.47 35.35 169.5 35.3 C 169.5 36.1 169.5 36.7 169.5 37.2 C 169.5 37.7 169.5 38.1 169.5 38.3 C 170 38.3 170.4 38.3 170.9 38.3 C 171.4 38.3 171.9 38.3 172.4 38.3 C 172.9 38.3 173.3 38.3 173.8 38.2 C 174.2 38.2 174.6 38.2 174.9 38.1 C 174.9 38.2 174.9 38.3 174.9 38.4 C 174.9 38.5 174.9 38.6 174.9 38.7 C 174.9 38.9 174.9 39.1 174.9 39.2 C 174.3 39.2 173.7 39.2 173.1 39.2 C 172.5 39.2 171.9 39.2 171.3 39.2 C 170.7 39.2 170.1 39.2 169.5 39.2 C 168.9 39.2 168.3 39.2 167.7 39.2 C 167.7 38.4 167.7 37.5 167.8 36.7 C 167.8 35.8 167.8 35 167.8 34.1 C 167.83 34.09 167.8 30.6 167.8 30.6 C 167.8 30.6 167.83 30.65 167.8 30.6 Z M 177.3 38.9 C 177.9 38.2 178.4 37.5 179 36.6 C 179.6 35.8 180.1 35 180.7 34.1 C 181.3 33.3 181.9 32.5 182.5 31.7 C 183 30.9 183.5 30.1 184 29.4 C 184.5 28.8 184.9 28.2 185.2 27.6 C 185.6 27.1 185.8 26.7 186 26.5 C 185.8 26.5 185.5 26.4 185.3 26.4 C 185 26.4 184.8 26.4 184.6 26.4 C 184.1 26.4 183.6 26.4 183 26.4 C 182.4 26.5 181.8 26.5 181.2 26.5 C 180.6 26.6 180.1 26.6 179.5 26.6 C 179 26.7 178.5 26.7 178.2 26.7 C 178.2 26.5 178.3 26.3 178.3 26.1 C 178.3 25.9 178.2 25.7 178.2 25.5 C 178.8 25.5 179.8 25.6 181.3 25.6 C 182.7 25.6 184.4 25.6 186.5 25.6 C 186.9 25.6 187.2 25.6 187.6 25.6 C 187.9 25.5 188.3 25.5 188.6 25.5 C 188.6 25.5 188.6 25.8 188.6 25.8 C 188.4 26.1 188 26.6 187.5 27.2 C 187 27.9 186.5 28.6 185.9 29.4 C 185.3 30.2 184.7 31.1 184.1 32 C 183.5 32.9 182.9 33.8 182.3 34.6 C 181.8 35.4 181.3 36.2 180.8 36.8 C 180.4 37.5 180.1 38 179.9 38.3 C 180.2 38.3 180.5 38.3 180.8 38.3 C 181 38.3 181.3 38.3 181.6 38.3 C 182.1 38.3 182.6 38.3 183.3 38.3 C 184 38.3 184.7 38.3 185.3 38.2 C 186 38.2 186.6 38.1 187.2 38.1 C 187.8 38.1 188.3 38 188.6 38 C 188.6 38.1 188.6 38.2 188.6 38.3 C 188.5 38.4 188.5 38.5 188.5 38.6 C 188.5 38.8 188.6 39 188.6 39.2 C 188.2 39.2 187.7 39.2 187.3 39.2 C 186.9 39.2 186.5 39.2 186.1 39.2 C 185.8 39.2 185.4 39.2 185 39.2 C 184.7 39.2 184.3 39.2 183.9 39.2 C 183.4 39.2 182.8 39.2 182.2 39.2 C 181.5 39.2 180.9 39.2 180.2 39.2 C 179.6 39.2 179 39.2 178.5 39.2 C 178 39.2 177.6 39.2 177.3 39.2 C 177.33 39.23 177.3 38.9 177.3 38.9 C 177.3 38.9 177.33 38.95 177.3 38.9 Z M 195.4 33.6 C 195.3 33.4 195.1 33.1 194.8 32.6 C 194.5 32.2 194.3 31.7 193.9 31.2 C 193.6 30.7 193.3 30.1 193 29.5 C 192.6 28.9 192.3 28.4 192 27.9 C 191.6 27.3 191.4 26.9 191.1 26.4 C 190.9 26 190.7 25.7 190.5 25.5 C 190.7 25.5 190.9 25.5 191.1 25.6 C 191.3 25.6 191.4 25.6 191.6 25.6 C 191.8 25.6 192 25.6 192.2 25.6 C 192.4 25.5 192.5 25.5 192.7 25.5 C 193.3 26.6 193.9 27.8 194.6 28.9 C 195.2 30 195.8 31.2 196.5 32.4 C 196.8 31.9 197.2 31.4 197.5 30.8 C 197.8 30.3 198.2 29.7 198.5 29.1 C 198.8 28.5 199.1 27.9 199.5 27.3 C 199.8 26.7 200 26.1 200.3 25.5 C 200.6 25.6 200.9 25.6 201.1 25.6 C 201.3 25.6 201.5 25.6 201.9 25.5 C 201.2 26.5 200.7 27.3 200.2 28.1 C 199.6 28.9 199.2 29.6 198.8 30.3 C 198.4 30.9 198.1 31.5 197.8 32 C 197.5 32.5 197.2 33 197 33.4 C 197 33.9 197 34.4 197 35 C 197 35.5 197.1 36.1 197.1 36.6 C 197.1 37.2 197.1 37.7 197.1 38.1 C 197.1 38.6 197.2 38.9 197.2 39.2 C 196.9 39.2 196.6 39.2 196.2 39.2 C 195.9 39.2 195.5 39.2 195.2 39.2 C 195.3 38.5 195.4 37.7 195.4 36.7 C 195.4 35.7 195.4 34.7 195.4 33.6 Z M 202.9 37.7 C 202.9 37.5 203 37.3 203.1 37.2 C 203.3 37 203.5 36.9 203.7 36.9 C 203.9 36.9 204.1 37 204.2 37.1 C 204.4 37.2 204.5 37.4 204.5 37.6 C 204.5 37.8 204.5 37.9 204.4 38 C 204.3 38.2 204.3 38.3 204.2 38.4 C 204.19 38.45 201.7 42.6 201.7 42.6 L 201.3 42.5 L 202.9 37.7 C 202.9 37.7 202.87 37.69 202.9 37.7 Z M 217.3 33 C 217.6 33 218 33 218.3 33 C 218.7 33 219.1 33 219.4 33 C 219.8 33 220.2 33 220.5 33 C 220.9 33 221.3 33 221.7 33 C 221.65 33.01 219.4 27.9 219.4 27.9 C 219.4 27.9 217.25 33.01 217.3 33 Z M 226.1 39.2 C 225.9 39.2 225.7 39.2 225.6 39.2 C 225.4 39.2 225.2 39.2 225.1 39.2 C 224.9 39.2 224.7 39.2 224.5 39.2 C 224.4 39.2 224.2 39.2 224 39.2 C 223.9 38.9 223.8 38.6 223.6 38.1 C 223.5 37.7 223.3 37.2 223.1 36.8 C 222.9 36.3 222.7 35.8 222.5 35.3 C 222.3 34.8 222.1 34.4 221.9 33.9 C 221.5 33.9 221.1 33.9 220.6 33.9 C 220.2 33.9 219.8 33.9 219.3 33.9 C 218.9 33.9 218.5 33.9 218.1 33.9 C 217.7 33.9 217.3 33.9 216.9 33.9 C 216.4 35 216.1 36 215.7 36.9 C 215.4 37.8 215.1 38.6 214.9 39.2 C 214.7 39.2 214.5 39.2 214.2 39.2 C 213.9 39.2 213.7 39.2 213.5 39.2 C 214.5 36.9 215.6 34.6 216.6 32.3 C 217.6 30 218.7 27.6 219.7 25.2 C 219.7 25.2 220.1 25.2 220.1 25.2 C 220.4 26 220.8 26.8 221.1 27.7 C 221.5 28.6 221.9 29.5 222.3 30.5 C 222.7 31.4 223 32.3 223.4 33.2 C 223.8 34.1 224.2 35 224.5 35.7 C 224.9 36.5 225.2 37.2 225.4 37.8 C 225.7 38.4 225.9 38.9 226.1 39.2 Z M 240.7 39.5 C 239.1 37.7 237.5 35.9 235.8 34 C 234 32.2 232.3 30.3 230.6 28.5 C 230.6 28.9 230.5 29.4 230.5 30 C 230.5 30.6 230.5 31.5 230.5 32.5 C 230.5 32.8 230.5 33.2 230.5 33.6 C 230.5 34 230.5 34.4 230.5 34.9 C 230.5 35.3 230.6 35.8 230.6 36.3 C 230.6 36.7 230.6 37.2 230.6 37.6 C 230.6 38 230.6 38.3 230.7 38.6 C 230.7 38.9 230.7 39.1 230.7 39.2 C 230.5 39.2 230.2 39.2 230 39.2 C 229.7 39.2 229.5 39.2 229.3 39.2 C 229.3 39.1 229.3 38.8 229.3 38.5 C 229.4 38.1 229.4 37.7 229.4 37.2 C 229.5 36.7 229.5 36.2 229.5 35.6 C 229.6 35 229.6 34.4 229.6 33.8 C 229.6 33.2 229.6 32.6 229.7 32.1 C 229.7 31.5 229.7 31 229.7 30.6 C 229.7 29.3 229.7 28.2 229.7 27.3 C 229.7 26.4 229.6 25.7 229.6 25.2 C 229.6 25.2 229.9 25.2 229.9 25.2 C 230.7 26.1 231.6 27.1 232.5 28.1 C 233.5 29.1 234.4 30.1 235.3 31 C 236.2 32 237.1 32.9 237.9 33.8 C 238.7 34.7 239.4 35.4 240.1 36 C 240.1 36 240.1 33.3 240.1 33.3 C 240.1 31.9 240 30.6 240 29.2 C 240 27.9 240 26.7 239.9 25.5 C 240.2 25.6 240.4 25.6 240.6 25.6 C 240.7 25.6 240.9 25.6 241.2 25.5 C 241.2 25.8 241.2 26.2 241.1 26.8 C 241.1 27.4 241.1 28 241 28.7 C 241 29.4 241 30 240.9 30.6 C 240.9 31.3 240.9 31.8 240.9 32.2 C 240.9 32.5 240.9 32.9 240.9 33.4 C 240.9 33.8 240.9 34.3 240.9 34.8 C 240.9 35.3 240.9 35.8 240.9 36.3 C 240.9 36.8 240.9 37.3 240.9 37.7 C 240.9 38.1 241 38.5 241 38.8 C 241 39.1 241 39.3 241 39.5 C 240.95 39.49 240.7 39.5 240.7 39.5 C 240.7 39.5 240.67 39.49 240.7 39.5 Z M 246 30.7 C 246 29.8 246 28.9 245.9 28.1 C 245.9 27.2 245.9 26.4 245.8 25.5 C 246.3 25.5 246.8 25.5 247.3 25.6 C 247.8 25.6 248.3 25.6 248.8 25.6 C 249.3 25.6 249.8 25.6 250.3 25.5 C 250.8 25.5 251.3 25.5 251.9 25.5 C 253 25.5 254 25.6 254.9 25.9 C 255.7 26.3 256.4 26.7 256.9 27.3 C 257.4 27.8 257.8 28.5 258.1 29.3 C 258.3 30.2 258.5 31.1 258.5 32.1 C 258.5 33.4 258.2 34.6 257.8 35.5 C 257.3 36.4 256.7 37.1 256 37.7 C 255.3 38.2 254.5 38.6 253.6 38.9 C 252.8 39.1 252 39.2 251.2 39.2 C 250.7 39.2 250.3 39.2 249.8 39.2 C 249.4 39.2 248.9 39.2 248.5 39.2 C 248 39.2 247.6 39.2 247.2 39.2 C 246.7 39.2 246.3 39.2 245.8 39.2 C 245.9 38.4 245.9 37.6 245.9 36.7 C 246 35.9 246 35 246 34.1 C 246 34.1 246 30.7 246 30.7 Z M 247.6 34.1 C 247.6 35.5 247.7 37 247.7 38.3 C 248 38.4 248.4 38.5 248.9 38.5 C 249.4 38.5 249.8 38.5 250.4 38.5 C 251.1 38.5 251.8 38.5 252.6 38.3 C 253.3 38.1 253.9 37.8 254.5 37.3 C 255.1 36.8 255.6 36.2 255.9 35.3 C 256.3 34.5 256.5 33.4 256.5 32.1 C 256.5 30.9 256.3 30 256.1 29.2 C 255.8 28.5 255.4 27.9 254.9 27.5 C 254.4 27 253.8 26.7 253.1 26.6 C 252.4 26.4 251.6 26.3 250.8 26.3 C 250.2 26.3 249.7 26.3 249.1 26.4 C 248.6 26.4 248.1 26.5 247.7 26.5 C 247.7 27.2 247.7 27.8 247.6 28.5 C 247.6 29.2 247.6 29.9 247.6 30.7 C 247.6 30.7 247.6 34.1 247.6 34.1 Z M 268 32.4 C 268 31.3 268.2 30.2 268.5 29.4 C 268.9 28.5 269.4 27.7 270.1 27.1 C 270.7 26.5 271.5 26 272.4 25.7 C 273.4 25.4 274.4 25.2 275.5 25.2 C 276.6 25.2 277.6 25.4 278.5 25.7 C 279.4 26 280.2 26.5 280.9 27.1 C 281.5 27.7 282 28.5 282.4 29.4 C 282.8 30.2 283 31.3 283 32.4 C 283 33.5 282.8 34.5 282.4 35.4 C 282 36.3 281.5 37.1 280.9 37.7 C 280.2 38.3 279.4 38.7 278.5 39 C 277.6 39.3 276.6 39.5 275.5 39.5 C 274.4 39.5 273.4 39.3 272.4 39 C 271.5 38.7 270.7 38.3 270.1 37.7 C 269.4 37.1 268.9 36.3 268.5 35.4 C 268.2 34.5 268 33.5 268 32.4 Z M 281 32.4 C 281 31.3 280.9 30.3 280.6 29.5 C 280.3 28.7 279.9 28 279.4 27.5 C 278.9 27 278.3 26.6 277.6 26.3 C 277 26.1 276.2 26 275.5 26 C 274.7 26 274 26.1 273.3 26.3 C 272.6 26.6 272 27 271.5 27.5 C 271 28 270.6 28.7 270.4 29.5 C 270.1 30.3 269.9 31.3 269.9 32.4 C 269.9 33.5 270.1 34.5 270.4 35.3 C 270.6 36.1 271 36.7 271.5 37.3 C 272 37.8 272.6 38.2 273.3 38.4 C 274 38.7 274.7 38.8 275.5 38.8 C 276.2 38.8 277 38.7 277.6 38.4 C 278.3 38.2 278.9 37.8 279.4 37.3 C 279.9 36.7 280.3 36.1 280.6 35.3 C 280.9 34.5 281 33.5 281 32.4 Z M 296.7 30.7 C 296.7 29.8 296.7 28.9 296.7 28.1 C 296.7 27.2 296.6 26.4 296.6 25.5 C 296.8 25.5 296.9 25.5 297.1 25.6 C 297.2 25.6 297.4 25.6 297.6 25.6 C 297.7 25.6 297.9 25.6 298 25.6 C 298.2 25.5 298.4 25.5 298.5 25.5 C 298.5 26.4 298.5 27.2 298.4 28.1 C 298.4 28.9 298.4 29.8 298.4 30.7 C 298.4 30.7 298.4 34.1 298.4 34.1 C 298.4 35 298.4 35.9 298.4 36.7 C 298.5 37.6 298.5 38.4 298.5 39.2 C 298.2 39.2 297.9 39.2 297.6 39.2 C 297.2 39.2 296.9 39.2 296.6 39.2 C 296.6 38.4 296.7 37.6 296.7 36.7 C 296.7 35.9 296.7 35 296.7 34.1 C 296.7 34.1 296.7 32.3 296.7 32.3 C 296 32.3 295.3 32.3 294.7 32.3 C 294 32.3 293.3 32.3 292.6 32.3 C 291.8 32.3 291.2 32.3 290.5 32.3 C 289.8 32.3 289.1 32.3 288.4 32.3 C 288.4 32.3 288.4 34.1 288.4 34.1 C 288.4 35 288.4 35.9 288.4 36.7 C 288.5 37.6 288.5 38.4 288.5 39.2 C 288.2 39.2 287.9 39.2 287.6 39.2 C 287.2 39.2 286.9 39.2 286.6 39.2 C 286.6 38.4 286.7 37.6 286.7 36.7 C 286.7 35.9 286.7 35 286.7 34.1 C 286.7 34.1 286.7 30.7 286.7 30.7 C 286.7 29.8 286.7 28.9 286.7 28.1 C 286.7 27.2 286.6 26.4 286.6 25.5 C 286.8 25.5 286.9 25.5 287.1 25.6 C 287.2 25.6 287.4 25.6 287.6 25.6 C 287.7 25.6 287.9 25.6 288 25.6 C 288.2 25.5 288.4 25.5 288.5 25.5 C 288.5 26.4 288.5 27.2 288.4 28.1 C 288.4 28.9 288.4 29.8 288.4 30.7 C 288.4 30.7 288.4 31.4 288.4 31.4 C 289.1 31.4 289.8 31.4 290.5 31.4 C 291.2 31.4 291.8 31.4 292.6 31.4 C 293.3 31.4 294 31.4 294.7 31.4 C 295.3 31.4 296 31.4 296.7 31.4 C 296.75 31.37 296.7 30.7 296.7 30.7 C 296.7 30.7 296.75 30.67 296.7 30.7 Z M 309.4 36.6 C 309.5 36.9 309.7 37.1 309.9 37.4 C 310 37.6 310.3 37.8 310.5 38 C 310.8 38.2 311.1 38.4 311.4 38.5 C 311.8 38.6 312.2 38.7 312.6 38.7 C 313 38.7 313.4 38.6 313.8 38.5 C 314.1 38.3 314.4 38.1 314.7 37.9 C 314.9 37.6 315.1 37.3 315.2 36.9 C 315.4 36.6 315.4 36.2 315.4 35.8 C 315.4 35.2 315.3 34.7 315 34.3 C 314.7 34 314.3 33.7 313.8 33.4 C 313.3 33.2 312.8 33 312.3 32.8 C 311.8 32.6 311.3 32.3 310.8 32 C 310.3 31.7 309.9 31.4 309.6 30.9 C 309.3 30.4 309.1 29.8 309.1 29 C 309.1 28.4 309.2 27.9 309.4 27.5 C 309.6 27 309.9 26.6 310.3 26.3 C 310.7 26 311.2 25.7 311.7 25.5 C 312.2 25.3 312.8 25.2 313.5 25.2 C 314.1 25.2 314.7 25.3 315.1 25.5 C 315.6 25.6 316 25.8 316.4 26.2 C 316.3 26.4 316.2 26.6 316.1 26.9 C 316.1 27.1 316 27.5 315.9 27.8 C 315.9 27.8 315.7 27.8 315.7 27.8 C 315.6 27.7 315.5 27.5 315.4 27.2 C 315.3 27 315.1 26.8 314.9 26.6 C 314.7 26.4 314.5 26.3 314.2 26.2 C 314 26 313.7 26 313.3 26 C 312.9 26 312.6 26 312.3 26.1 C 311.9 26.3 311.7 26.4 311.4 26.7 C 311.2 26.9 311 27.1 310.9 27.4 C 310.8 27.8 310.7 28.1 310.7 28.4 C 310.7 29.1 310.9 29.6 311.2 29.9 C 311.5 30.3 311.9 30.6 312.3 30.8 C 312.8 31.1 313.3 31.3 313.9 31.5 C 314.4 31.7 314.9 31.9 315.4 32.2 C 315.8 32.5 316.2 32.8 316.5 33.3 C 316.9 33.7 317 34.3 317 35 C 317 35.7 316.9 36.2 316.7 36.8 C 316.5 37.3 316.1 37.8 315.7 38.2 C 315.3 38.6 314.8 38.9 314.2 39.2 C 313.6 39.4 312.9 39.5 312.1 39.5 C 311.3 39.5 310.6 39.4 310.1 39.2 C 309.6 38.9 309.2 38.7 308.8 38.4 C 308.9 38.1 309 37.8 309.1 37.6 C 309.1 37.3 309.1 37 309.2 36.6 C 309.19 36.63 309.4 36.6 309.4 36.6 C 309.4 36.6 309.43 36.63 309.4 36.6 Z M 319.7 32.4 C 319.7 31.3 319.9 30.2 320.3 29.4 C 320.7 28.5 321.2 27.7 321.8 27.1 C 322.5 26.5 323.3 26 324.2 25.7 C 325.1 25.4 326.1 25.2 327.2 25.2 C 328.3 25.2 329.3 25.4 330.3 25.7 C 331.2 26 332 26.5 332.6 27.1 C 333.3 27.7 333.8 28.5 334.2 29.4 C 334.5 30.2 334.7 31.3 334.7 32.4 C 334.7 33.5 334.5 34.5 334.2 35.4 C 333.8 36.3 333.3 37.1 332.6 37.7 C 332 38.3 331.2 38.7 330.3 39 C 329.3 39.3 328.3 39.5 327.2 39.5 C 326.1 39.5 325.1 39.3 324.2 39 C 323.3 38.7 322.5 38.3 321.8 37.7 C 321.2 37.1 320.7 36.3 320.3 35.4 C 319.9 34.5 319.7 33.5 319.7 32.4 Z M 332.8 32.4 C 332.8 31.3 332.6 30.3 332.3 29.5 C 332.1 28.7 331.7 28 331.2 27.5 C 330.7 27 330.1 26.6 329.4 26.3 C 328.7 26.1 328 26 327.2 26 C 326.5 26 325.7 26.1 325.1 26.3 C 324.4 26.6 323.8 27 323.3 27.5 C 322.8 28 322.4 28.7 322.1 29.5 C 321.8 30.3 321.7 31.3 321.7 32.4 C 321.7 33.5 321.8 34.5 322.1 35.3 C 322.4 36.1 322.8 36.7 323.3 37.3 C 323.8 37.8 324.4 38.2 325.1 38.4 C 325.7 38.7 326.5 38.8 327.2 38.8 C 328 38.8 328.7 38.7 329.4 38.4 C 330.1 38.2 330.7 37.8 331.2 37.3 C 331.7 36.7 332.1 36.1 332.3 35.3 C 332.6 34.5 332.8 33.5 332.8 32.4 Z M 346.7 34.4 C 346.7 35.1 346.7 35.8 346.8 36.4 C 346.8 37.1 346.8 37.8 346.8 38.4 C 347.1 38.5 347.4 38.5 347.7 38.5 C 348.1 38.5 348.4 38.5 348.8 38.5 C 349.2 38.5 349.6 38.5 350 38.3 C 350.4 38.2 350.8 38 351.1 37.7 C 351.4 37.4 351.6 37 351.8 36.6 C 351.9 36.2 352 35.7 352 35.2 C 352 34.6 351.9 34.1 351.7 33.8 C 351.5 33.4 351.2 33.1 350.8 32.9 C 350.4 32.7 350 32.6 349.4 32.5 C 348.9 32.4 348.3 32.4 347.6 32.4 C 347.63 32.37 346.7 32.4 346.7 32.4 C 346.7 32.4 346.73 34.41 346.7 34.4 Z M 347.8 31.6 C 348.3 31.6 348.7 31.6 349.2 31.5 C 349.7 31.4 350.1 31.2 350.4 31 C 350.8 30.8 351.1 30.5 351.3 30.1 C 351.5 29.8 351.6 29.3 351.6 28.7 C 351.6 28.2 351.5 27.8 351.3 27.4 C 351.1 27.1 350.9 26.9 350.6 26.7 C 350.3 26.5 349.9 26.4 349.5 26.3 C 349.1 26.3 348.8 26.2 348.4 26.2 C 348 26.2 347.7 26.2 347.5 26.3 C 347.2 26.3 347 26.3 346.8 26.3 C 346.8 27 346.8 27.6 346.8 28.2 C 346.7 28.9 346.7 29.5 346.7 30.1 C 346.73 30.13 346.7 31.6 346.7 31.6 C 346.7 31.6 347.81 31.63 347.8 31.6 Z M 345.1 30.6 C 345.1 29.8 345.1 28.9 345 28 C 345 27.2 345 26.3 344.9 25.5 C 345.3 25.5 345.6 25.5 346 25.6 C 346.3 25.6 346.7 25.6 347 25.6 C 347.4 25.6 347.7 25.6 348.1 25.5 C 348.5 25.5 348.8 25.5 349.2 25.5 C 349.7 25.5 350.3 25.5 350.8 25.6 C 351.3 25.7 351.7 25.9 352.1 26.1 C 352.5 26.3 352.8 26.6 353 27 C 353.3 27.3 353.4 27.8 353.4 28.4 C 353.4 29.4 353.1 30.1 352.5 30.7 C 351.8 31.2 351 31.6 350 31.9 C 350 31.9 350 31.9 350 31.9 C 351.2 32 352.2 32.2 352.8 32.8 C 353.5 33.3 353.9 34.1 353.9 35.3 C 353.9 36 353.7 36.6 353.4 37.1 C 353.1 37.7 352.7 38.1 352.2 38.4 C 351.7 38.7 351.2 38.9 350.6 39 C 350 39.2 349.4 39.2 348.8 39.2 C 348.5 39.2 348.2 39.2 347.8 39.2 C 347.5 39.2 347.2 39.2 346.9 39.2 C 346.5 39.2 346.2 39.2 345.9 39.2 C 345.6 39.2 345.2 39.2 344.9 39.2 C 345 38.4 345 37.5 345 36.7 C 345.1 35.8 345.1 35 345.1 34.1 C 345.1 34.1 345.1 30.6 345.1 30.6 Z M 358.3 30.7 C 358.3 29.8 358.3 28.9 358.3 28.1 C 358.2 27.2 358.2 26.4 358.1 25.5 C 358.5 25.5 358.9 25.5 359.3 25.6 C 359.7 25.6 360 25.6 360.4 25.6 C 360.8 25.6 361.2 25.6 361.6 25.5 C 361.9 25.5 362.3 25.5 362.7 25.5 C 363.3 25.5 363.8 25.5 364.3 25.6 C 364.8 25.8 365.3 25.9 365.6 26.2 C 366 26.4 366.3 26.7 366.5 27.1 C 366.8 27.5 366.9 28 366.9 28.6 C 366.9 29.3 366.7 29.8 366.4 30.3 C 366.2 30.8 365.8 31.1 365.4 31.4 C 365 31.7 364.5 32 364.1 32.1 C 363.6 32.3 363.2 32.4 362.8 32.5 C 362.9 32.7 363.1 32.9 363.4 33.3 C 363.7 33.7 364 34.1 364.4 34.5 C 364.7 34.9 365.1 35.4 365.4 35.9 C 365.8 36.3 366.2 36.8 366.5 37.2 C 366.9 37.7 367.2 38 367.5 38.4 C 367.8 38.8 368.1 39 368.2 39.2 C 368 39.2 367.8 39.2 367.6 39.2 C 367.4 39.2 367.2 39.2 367 39.2 C 366.9 39.2 366.7 39.2 366.5 39.2 C 366.3 39.2 366.1 39.2 365.9 39.2 C 365.7 38.9 365.4 38.5 365 38 C 364.6 37.4 364.1 36.8 363.6 36.2 C 363.1 35.5 362.6 34.9 362.1 34.3 C 361.6 33.6 361.1 33.1 360.7 32.6 C 360.71 32.65 359.9 32.6 359.9 32.6 C 359.9 32.6 359.95 34.11 359.9 34.1 C 359.9 35 360 35.9 360 36.7 C 360 37.6 360.1 38.4 360.1 39.2 C 359.8 39.2 359.5 39.2 359.1 39.2 C 358.8 39.2 358.5 39.2 358.1 39.2 C 358.2 38.4 358.2 37.6 358.3 36.7 C 358.3 35.9 358.3 35 358.3 34.1 C 358.3 34.1 358.3 30.7 358.3 30.7 Z M 359.9 31.8 C 360.1 31.8 360.3 31.9 360.6 31.9 C 360.8 31.9 361 31.9 361.3 31.9 C 361.7 31.9 362.1 31.9 362.6 31.8 C 363 31.7 363.4 31.5 363.8 31.3 C 364.2 31 364.5 30.7 364.7 30.3 C 365 29.9 365.1 29.4 365.1 28.8 C 365.1 28.3 365 27.9 364.8 27.6 C 364.6 27.2 364.4 26.9 364.1 26.7 C 363.8 26.5 363.4 26.4 363.1 26.3 C 362.7 26.3 362.4 26.2 362 26.2 C 361.5 26.2 361.2 26.2 360.8 26.3 C 360.5 26.3 360.3 26.3 360.1 26.3 C 360 27.1 360 27.8 360 28.5 C 360 29.2 359.9 29.9 359.9 30.7 C 359.9 30.7 359.9 31.8 359.9 31.8 Z M 371.5 30.7 C 371.5 29.8 371.5 28.9 371.5 28.1 C 371.4 27.2 371.4 26.4 371.4 25.5 C 371.5 25.5 371.7 25.5 371.9 25.6 C 372 25.6 372.2 25.6 372.3 25.6 C 372.5 25.6 372.7 25.6 372.8 25.6 C 373 25.5 373.2 25.5 373.3 25.5 C 373.3 26.4 373.3 27.2 373.2 28.1 C 373.2 28.9 373.2 29.8 373.2 30.7 C 373.2 30.7 373.2 34.1 373.2 34.1 C 373.2 35 373.2 35.9 373.2 36.7 C 373.3 37.6 373.3 38.4 373.3 39.2 C 373 39.2 372.7 39.2 372.3 39.2 C 372 39.2 371.7 39.2 371.4 39.2 C 371.4 38.4 371.4 37.6 371.5 36.7 C 371.5 35.9 371.5 35 371.5 34.1 C 371.53 34.11 371.5 30.7 371.5 30.7 C 371.5 30.7 371.53 30.67 371.5 30.7 Z M 378.1 30.7 C 378.1 29.8 378.1 28.9 378 28.1 C 378 27.2 378 26.4 377.9 25.5 C 378.1 25.5 378.3 25.5 378.4 25.6 C 378.6 25.6 378.7 25.6 378.9 25.6 C 379.1 25.6 379.2 25.6 379.4 25.6 C 379.5 25.5 379.7 25.5 379.9 25.5 C 379.8 26.4 379.8 27.2 379.8 28.1 C 379.7 28.9 379.7 29.8 379.7 30.7 C 379.7 32.3 379.7 33.8 379.7 35 C 379.8 36.3 379.8 37.4 379.8 38.3 C 380.7 38.3 381.6 38.3 382.5 38.3 C 383.4 38.3 384.3 38.2 385.3 38.1 C 385.2 38.3 385.2 38.5 385.2 38.7 C 385.2 38.8 385.2 39 385.3 39.2 C 384.7 39.2 384.1 39.2 383.5 39.2 C 382.9 39.2 382.2 39.2 381.6 39.2 C 381 39.2 380.4 39.2 379.8 39.2 C 379.2 39.2 378.6 39.2 377.9 39.2 C 378 38.4 378 37.6 378 36.7 C 378.1 35.9 378.1 35 378.1 34.1 C 378.09 34.11 378.1 30.7 378.1 30.7 C 378.1 30.7 378.09 30.67 378.1 30.7 Z M 389.1 30.7 C 389.1 29.8 389.1 28.9 389 28.1 C 389 27.2 389 26.4 388.9 25.5 C 389.1 25.5 389.3 25.5 389.4 25.6 C 389.6 25.6 389.7 25.6 389.9 25.6 C 390.1 25.6 390.2 25.6 390.4 25.6 C 390.5 25.5 390.7 25.5 390.9 25.5 C 390.8 26.4 390.8 27.2 390.8 28.1 C 390.7 28.9 390.7 29.8 390.7 30.7 C 390.7 32.3 390.7 33.8 390.7 35 C 390.8 36.3 390.8 37.4 390.8 38.3 C 391.7 38.3 392.6 38.3 393.5 38.3 C 394.4 38.3 395.3 38.2 396.3 38.1 C 396.2 38.3 396.2 38.5 396.2 38.7 C 396.2 38.8 396.2 39 396.3 39.2 C 395.7 39.2 395.1 39.2 394.5 39.2 C 393.9 39.2 393.2 39.2 392.6 39.2 C 392 39.2 391.4 39.2 390.8 39.2 C 390.2 39.2 389.6 39.2 388.9 39.2 C 389 38.4 389 37.6 389 36.7 C 389.1 35.9 389.1 35 389.1 34.1 C 389.09 34.11 389.1 30.7 389.1 30.7 C 389.1 30.7 389.09 30.67 389.1 30.7 Z M 400.1 30.7 C 400.1 29.8 400.1 28.9 400 28.1 C 400 27.2 400 26.4 399.9 25.5 C 400.1 25.5 400.3 25.5 400.4 25.6 C 400.6 25.6 400.7 25.6 400.9 25.6 C 401.1 25.6 401.2 25.6 401.4 25.6 C 401.5 25.5 401.7 25.5 401.9 25.5 C 401.8 26.4 401.8 27.2 401.8 28.1 C 401.7 28.9 401.7 29.8 401.7 30.7 C 401.7 30.7 401.7 34.1 401.7 34.1 C 401.7 35 401.7 35.9 401.8 36.7 C 401.8 37.6 401.8 38.4 401.9 39.2 C 401.6 39.2 401.3 39.2 400.9 39.2 C 400.6 39.2 400.2 39.2 399.9 39.2 C 400 38.4 400 37.6 400 36.7 C 400.1 35.9 400.1 35 400.1 34.1 C 400.09 34.11 400.1 30.7 400.1 30.7 C 400.1 30.7 400.09 30.67 400.1 30.7 Z M 408.8 33 C 409.2 33 409.5 33 409.9 33 C 410.3 33 410.6 33 411 33 C 411.4 33 411.7 33 412.1 33 C 412.5 33 412.9 33 413.2 33 C 413.23 33.01 411 27.9 411 27.9 C 411 27.9 408.83 33.01 408.8 33 Z M 417.7 39.2 C 417.5 39.2 417.3 39.2 417.2 39.2 C 417 39.2 416.8 39.2 416.6 39.2 C 416.4 39.2 416.3 39.2 416.1 39.2 C 415.9 39.2 415.8 39.2 415.6 39.2 C 415.5 38.9 415.3 38.6 415.2 38.1 C 415 37.7 414.9 37.2 414.7 36.8 C 414.5 36.3 414.3 35.8 414.1 35.3 C 413.9 34.8 413.7 34.4 413.5 33.9 C 413.1 33.9 412.6 33.9 412.2 33.9 C 411.8 33.9 411.3 33.9 410.9 33.9 C 410.5 33.9 410.1 33.9 409.7 33.9 C 409.3 33.9 408.9 33.9 408.4 33.9 C 408 35 407.6 36 407.3 36.9 C 406.9 37.8 406.7 38.6 406.5 39.2 C 406.3 39.2 406 39.2 405.8 39.2 C 405.5 39.2 405.3 39.2 405 39.2 C 406.1 36.9 407.2 34.6 408.2 32.3 C 409.2 30 410.2 27.6 411.3 25.2 C 411.3 25.2 411.7 25.2 411.7 25.2 C 412 26 412.3 26.8 412.7 27.7 C 413.1 28.6 413.5 29.5 413.8 30.5 C 414.2 31.4 414.6 32.3 415 33.2 C 415.4 34.1 415.8 35 416.1 35.7 C 416.4 36.5 416.7 37.2 417 37.8 C 417.3 38.4 417.5 38.9 417.7 39.2 Z M 432.2 39.5 C 430.7 37.7 429.1 35.9 427.3 34 C 425.6 32.2 423.9 30.3 422.1 28.5 C 422.1 28.9 422.1 29.4 422.1 30 C 422.1 30.6 422.1 31.5 422.1 32.5 C 422.1 32.8 422.1 33.2 422.1 33.6 C 422.1 34 422.1 34.4 422.1 34.9 C 422.1 35.3 422.1 35.8 422.1 36.3 C 422.2 36.7 422.2 37.2 422.2 37.6 C 422.2 38 422.2 38.3 422.2 38.6 C 422.2 38.9 422.3 39.1 422.3 39.2 C 422.1 39.2 421.8 39.2 421.6 39.2 C 421.3 39.2 421.1 39.2 420.8 39.2 C 420.9 39.1 420.9 38.8 420.9 38.5 C 421 38.1 421 37.7 421 37.2 C 421 36.7 421.1 36.2 421.1 35.6 C 421.1 35 421.2 34.4 421.2 33.8 C 421.2 33.2 421.2 32.6 421.2 32.1 C 421.2 31.5 421.2 31 421.2 30.6 C 421.2 29.3 421.2 28.2 421.2 27.3 C 421.2 26.4 421.2 25.7 421.2 25.2 C 421.2 25.2 421.5 25.2 421.5 25.2 C 422.3 26.1 423.2 27.1 424.1 28.1 C 425 29.1 426 30.1 426.9 31 C 427.8 32 428.7 32.9 429.5 33.8 C 430.3 34.7 431 35.4 431.6 36 C 431.6 36 431.6 33.3 431.6 33.3 C 431.6 31.9 431.6 30.6 431.6 29.2 C 431.6 27.9 431.5 26.7 431.5 25.5 C 431.7 25.6 432 25.6 432.1 25.6 C 432.3 25.6 432.5 25.6 432.8 25.5 C 432.8 25.8 432.7 26.2 432.7 26.8 C 432.7 27.4 432.6 28 432.6 28.7 C 432.6 29.4 432.5 30 432.5 30.6 C 432.5 31.3 432.5 31.8 432.5 32.2 C 432.5 32.5 432.5 32.9 432.5 33.4 C 432.5 33.8 432.5 34.3 432.5 34.8 C 432.5 35.3 432.5 35.8 432.5 36.3 C 432.5 36.8 432.5 37.3 432.5 37.7 C 432.5 38.1 432.5 38.5 432.5 38.8 C 432.5 39.1 432.5 39.3 432.5 39.5 C 432.53 39.49 432.2 39.5 432.2 39.5 C 432.2 39.5 432.25 39.49 432.2 39.5 Z M 440.3 30.7 C 440.3 29.3 440.3 27.9 440.3 26.5 C 439.9 26.5 439.6 26.5 439.2 26.5 C 438.8 26.5 438.4 26.6 438 26.6 C 437.7 26.6 437.3 26.6 436.9 26.6 C 436.6 26.7 436.3 26.7 436 26.7 C 436.1 26.5 436.1 26.3 436.1 26.1 C 436.1 26 436.1 25.8 436 25.5 C 436.9 25.5 437.7 25.5 438.6 25.6 C 439.4 25.6 440.3 25.6 441.1 25.6 C 442 25.6 442.9 25.6 443.7 25.6 C 444.6 25.5 445.4 25.5 446.3 25.5 C 446.2 25.8 446.2 26 446.2 26.1 C 446.2 26.3 446.2 26.5 446.3 26.7 C 446 26.7 445.7 26.7 445.4 26.6 C 445 26.6 444.6 26.6 444.3 26.6 C 443.9 26.6 443.5 26.5 443.1 26.5 C 442.7 26.5 442.4 26.5 442 26.5 C 442 27.9 442 29.3 442 30.7 C 442 30.7 442 34.1 442 34.1 C 442 35 442 35.9 442 36.7 C 442.1 37.6 442.1 38.4 442.1 39.2 C 441.8 39.2 441.5 39.2 441.1 39.2 C 440.8 39.2 440.5 39.2 440.2 39.2 C 440.2 38.4 440.2 37.6 440.3 36.7 C 440.3 35.9 440.3 35 440.3 34.1 C 440.33 34.11 440.3 30.7 440.3 30.7 C 440.3 30.7 440.33 30.67 440.3 30.7 Z " stroke="none" fill="#fff"/>  </g></svg>