<?xml version="1.0" standalone="no"?><!DOCTYPE svg PUBLIC "-//W3C//DTD SVG 1.1//EN" "http://www.w3.org/Graphics/SVG/1.1/DTD/svg11.dtd"><svg xmlns="http://www.w3.org/2000/svg" version="1.1" width="150px" height="23.8px" viewBox="0 -4 150 23.8" style="top:-4px">  <desc>Puckman A3000192</desc>  <defs/>  <g id="Polygon39060">    <path d="M 62.6 15 L 62.2 14 L 60.1 14 L 59.7 15 L 59 15 L 60.9 10.1 L 61.5 10.1 L 63.4 15 L 62.6 15 Z M 60.3 13.4 L 62 13.4 L 61.2 11.1 L 61.2 11.1 L 60.3 13.4 Z M 64.9 12.3 C 65.2 12.3 65.4 12.3 65.6 12.2 C 65.9 12.1 66.2 11.9 66.2 11.5 C 66.2 11.1 65.9 10.9 65.4 10.9 C 65.1 10.9 64.8 11 64.6 11.4 C 64.6 11.4 64.1 11.1 64.1 11.1 C 64.3 10.6 64.8 10.3 65.4 10.3 C 66.3 10.3 66.9 10.8 66.9 11.5 C 66.9 11.9 66.6 12.3 66.3 12.5 C 66.8 12.7 67.1 13.1 67.1 13.6 C 67.1 14.6 66.4 15.1 65.5 15.1 C 65 15.1 64.3 14.8 64.1 14.3 C 64.1 14.3 64.6 14 64.6 14 C 64.8 14.4 65.1 14.5 65.5 14.5 C 66 14.5 66.4 14.2 66.4 13.7 C 66.4 13.2 66 12.9 65.4 12.9 C 65.3 12.9 65.1 12.9 64.9 13 C 64.9 13 64.9 12.3 64.9 12.3 Z M 71.5 12.7 C 71.5 14.2 70.9 15.1 69.8 15.1 C 68.8 15.1 68.2 14.2 68.2 12.7 C 68.2 11.2 68.8 10.3 69.8 10.3 C 70.9 10.3 71.5 11.2 71.5 12.7 Z M 68.8 12.7 C 68.8 13.9 69.2 14.5 69.8 14.5 C 70.4 14.5 70.8 13.9 70.8 12.7 C 70.8 11.5 70.4 10.9 69.8 10.9 C 69.2 10.9 68.8 11.5 68.8 12.7 Z M 75.8 12.7 C 75.8 14.2 75.2 15.1 74.1 15.1 C 73.1 15.1 72.5 14.2 72.5 12.7 C 72.5 11.2 73.1 10.3 74.1 10.3 C 75.2 10.3 75.8 11.2 75.8 12.7 Z M 73.1 12.7 C 73.1 13.9 73.5 14.5 74.1 14.5 C 74.7 14.5 75.1 13.9 75.1 12.7 C 75.1 11.5 74.7 10.9 74.1 10.9 C 73.5 10.9 73.1 11.5 73.1 12.7 Z M 80.1 12.7 C 80.1 14.2 79.5 15.1 78.4 15.1 C 77.4 15.1 76.8 14.2 76.8 12.7 C 76.8 11.2 77.4 10.3 78.4 10.3 C 79.5 10.3 80.1 11.2 80.1 12.7 Z M 77.4 12.7 C 77.4 13.9 77.8 14.5 78.4 14.5 C 79 14.5 79.4 13.9 79.4 12.7 C 79.4 11.5 79 10.9 78.4 10.9 C 77.8 10.9 77.4 11.5 77.4 12.7 Z M 81.8 15 C 81.8 15 81.78 11.15 81.8 11.1 C 81.6 11.3 81.3 11.4 81.1 11.5 C 81.1 11.5 81.1 10.8 81.1 10.8 C 81.4 10.7 81.7 10.5 82 10.4 C 82.01 10.35 82.4 10.4 82.4 10.4 L 82.4 15 L 81.8 15 Z M 84.4 14.7 C 85.2 14.3 85.9 13.8 86.1 12.9 C 85.9 13.1 85.5 13.3 85.1 13.3 C 84.3 13.3 83.7 12.6 83.7 11.8 C 83.7 10.9 84.4 10.3 85.2 10.3 C 86.3 10.3 86.9 11.1 86.9 12.1 C 86.9 13.6 85.9 14.7 84.6 15.3 C 84.6 15.3 84.4 14.7 84.4 14.7 Z M 86.2 12.1 C 86.2 11.5 86 10.9 85.3 10.9 C 84.7 10.9 84.4 11.3 84.4 11.8 C 84.4 12.3 84.7 12.7 85.2 12.7 C 85.7 12.7 86 12.5 86.2 12.1 Z M 87.9 15 C 87.9 15 87.95 14.41 87.9 14.4 C 88.5 13.8 89.1 13.1 89.6 12.5 C 89.8 12.2 90 11.8 90 11.5 C 90 11.1 89.6 10.9 89.2 10.9 C 88.9 10.9 88.5 11.1 88.5 11.6 C 88.5 11.6 87.9 11.4 87.9 11.4 C 87.9 10.7 88.6 10.3 89.3 10.3 C 90 10.3 90.7 10.8 90.7 11.5 C 90.7 11.9 90.5 12.4 90.2 12.8 C 89.8 13.3 89.3 13.9 88.8 14.4 C 88.83 14.41 90.9 14.4 90.9 14.4 L 90.9 15 L 87.9 15 Z " stroke="none" fill="#535a5d"/>  </g>  <g id="Polygon39059">    <path d="M 56.3 0.4 C 57.2 0.4 58.3 0.9 58.3 2.1 C 58.3 3.4 57.2 3.8 56.3 3.8 C 56.26 3.83 55.5 3.8 55.5 3.8 L 55.5 6 L 54.5 6 L 54.5 0.4 C 54.5 0.4 56.26 0.4 56.3 0.4 Z M 55.5 3 C 55.5 3 56.08 2.98 56.1 3 C 56.8 3 57.3 2.8 57.3 2.1 C 57.3 1.6 56.8 1.2 56.2 1.2 C 56.24 1.25 55.5 1.2 55.5 1.2 L 55.5 3 Z M 64 3.4 C 64 5.1 63.4 6.1 61.8 6.1 C 60.2 6.1 59.6 5.1 59.6 3.4 C 59.58 3.37 59.6 0.4 59.6 0.4 L 60.6 0.4 C 60.6 0.4 60.58 3.54 60.6 3.5 C 60.6 4.7 61 5.2 61.8 5.2 C 62.6 5.2 63 4.7 63 3.5 C 63.03 3.54 63 0.4 63 0.4 L 64 0.4 C 64 0.4 64.02 3.37 64 3.4 Z M 68.5 5.2 C 68.9 5.2 69.4 5.1 69.7 4.8 C 69.7 4.8 70.3 5.5 70.3 5.5 C 69.7 5.9 69.1 6.1 68.5 6.1 C 66.8 6.1 65.5 4.9 65.5 3.2 C 65.5 1.6 66.8 0.3 68.5 0.3 C 69.1 0.3 69.6 0.5 70.1 0.8 C 70.1 0.8 69.7 1.6 69.7 1.6 C 69.3 1.3 68.9 1.2 68.5 1.2 C 67.4 1.2 66.6 2 66.6 3.2 C 66.6 4.4 67.3 5.2 68.5 5.2 Z M 73.9 2.6 L 75.9 6 L 74.7 6 L 73.3 3.4 L 72.5 4.3 L 72.5 6 L 71.6 6 L 71.6 0.4 L 72.5 0.4 L 72.5 2.9 L 74.6 0.4 L 75.8 0.4 L 73.9 2.6 Z M 80.4 6 L 79.7 6 L 78 1.6 L 78 6 L 77 6 L 77 0.4 L 78.5 0.4 L 80.1 4.5 L 81.7 0.4 L 83.2 0.4 L 83.2 6 L 82.2 6 L 82.2 1.6 L 80.4 6 Z M 86.7 0.4 L 87.5 0.4 L 89.6 6 L 88.5 6 L 88.1 4.9 L 85.9 4.9 L 85.5 6 L 84.4 6 L 86.7 0.4 Z M 86.2 4.1 L 87.8 4.1 L 87 1.9 L 87 1.9 L 86.2 4.1 Z M 94.6 6 L 91.8 2.2 L 91.8 6 L 90.8 6 L 90.8 0.4 L 91.7 0.4 L 94.5 4.2 L 94.5 0.4 L 95.5 0.4 L 95.5 6 L 94.6 6 Z " stroke="none" fill="#535a5d"/>  </g></svg>