<?xml version="1.0" standalone="no"?><!DOCTYPE svg PUBLIC "-//W3C//DTD SVG 1.1//EN" "http://www.w3.org/Graphics/SVG/1.1/DTD/svg11.dtd"><svg xmlns="http://www.w3.org/2000/svg" version="1.1" width="486px" height="184px" viewBox="0 -1 486 184" style="top:-1px">  <desc>Bold and Beautiful Leather-like seating that looks the part Chill out in our red-hot selection of luxurious, leath</desc>  <defs/>  <g id="Polygon41998">    <path d="M 156 169.4 C 155.7 169.6 155.2 169.8 154.7 169.8 C 153.6 169.8 152.7 169 152.7 167.7 C 152.7 166.5 153.6 165.6 154.8 165.6 C 155.2 165.6 155.6 165.7 155.9 165.9 C 155.9 165.9 155.6 166.5 155.6 166.5 C 155.3 166.4 155 166.3 154.8 166.3 C 154 166.3 153.4 166.9 153.4 167.7 C 153.4 168.6 154.1 169.1 154.8 169.1 C 155 169.1 155.4 169 155.6 168.8 C 155.6 168.8 156 169.4 156 169.4 Z M 157.6 166.3 C 157.9 165.9 158.3 165.6 158.9 165.6 C 159.4 165.6 159.8 165.8 160 166.1 C 160.3 166.5 160.4 167 160.4 167.6 C 160.39 167.61 160.4 169.7 160.4 169.7 L 159.7 169.7 C 159.7 169.7 159.66 167.69 159.7 167.7 C 159.7 167.3 159.6 166.9 159.5 166.6 C 159.3 166.4 159.1 166.3 158.8 166.3 C 158.3 166.3 157.9 166.6 157.6 167 C 157.57 167.03 157.6 169.7 157.6 169.7 L 156.8 169.7 L 156.8 163.7 L 157.6 163.7 C 157.6 163.7 157.57 166.35 157.6 166.3 Z M 164.1 169.7 C 164.1 169.7 164.06 169.27 164.1 169.3 C 163.7 169.6 163.4 169.8 162.9 169.8 C 162.1 169.8 161.4 169.4 161.4 168.6 C 161.4 167.6 162.3 167.2 163.2 167.2 C 163.4 167.2 163.7 167.3 164 167.3 C 164 167.3 164 167.2 164 167.2 C 164 166.6 163.7 166.2 163.1 166.2 C 162.6 166.2 162.1 166.4 161.8 166.6 C 161.8 166.6 161.6 166 161.6 166 C 162 165.8 162.6 165.6 163.2 165.6 C 164.3 165.6 164.8 166.2 164.8 167.3 C 164.76 167.26 164.8 169.7 164.8 169.7 L 164.1 169.7 Z M 164 167.9 C 163.7 167.8 163.5 167.8 163.3 167.8 C 162.8 167.8 162.2 167.9 162.2 168.5 C 162.2 169 162.5 169.2 162.9 169.2 C 163.4 169.2 163.7 169 164 168.7 C 164 168.7 164 167.9 164 167.9 Z M 166.1 169.7 L 166.1 165.7 L 166.8 165.7 L 166.8 169.7 L 166.1 169.7 Z M 166.1 164.9 L 166.1 164.1 L 166.8 164.1 L 166.8 164.9 L 166.1 164.9 Z M 168.9 166.4 C 169.1 165.9 169.5 165.6 169.9 165.6 C 170.1 165.6 170.2 165.6 170.3 165.6 C 170.3 165.6 170.2 166.4 170.2 166.4 C 170.1 166.4 170 166.3 169.8 166.3 C 169.4 166.3 169.1 166.6 168.9 167 C 168.85 167.01 168.9 169.7 168.9 169.7 L 168.1 169.7 L 168.1 165.7 L 168.9 165.7 C 168.9 165.7 168.85 166.35 168.9 166.4 Z M 172.9 166.5 C 172.7 166.3 172.4 166.2 172.1 166.2 C 171.8 166.2 171.5 166.4 171.5 166.7 C 171.5 167 171.9 167.2 172.3 167.3 C 172.8 167.5 173.5 167.8 173.5 168.5 C 173.5 169.4 172.8 169.8 172 169.8 C 171.5 169.8 171 169.6 170.7 169.2 C 170.7 169.2 171.2 168.8 171.2 168.8 C 171.4 169 171.7 169.2 172 169.2 C 172.4 169.2 172.8 169 172.8 168.6 C 172.8 168.3 172.4 168.1 172 167.9 C 171.5 167.7 170.8 167.5 170.8 166.8 C 170.8 166 171.5 165.6 172.1 165.6 C 172.6 165.6 173 165.7 173.4 166 C 173.4 166 172.9 166.5 172.9 166.5 Z M 179 169.7 C 179 169.7 178.97 169.27 179 169.3 C 178.6 169.6 178.3 169.8 177.8 169.8 C 177 169.8 176.3 169.4 176.3 168.6 C 176.3 167.6 177.3 167.2 178.1 167.2 C 178.3 167.2 178.6 167.3 178.9 167.3 C 178.9 167.3 178.9 167.2 178.9 167.2 C 178.9 166.6 178.6 166.2 178 166.2 C 177.5 166.2 177 166.4 176.7 166.6 C 176.7 166.6 176.5 166 176.5 166 C 176.9 165.8 177.5 165.6 178.1 165.6 C 179.2 165.6 179.7 166.2 179.7 167.3 C 179.66 167.26 179.7 169.7 179.7 169.7 L 179 169.7 Z M 178.9 167.9 C 178.6 167.8 178.4 167.8 178.2 167.8 C 177.7 167.8 177.1 167.9 177.1 168.5 C 177.1 169 177.4 169.2 177.9 169.2 C 178.3 169.2 178.6 169 178.9 168.7 C 178.9 168.7 178.9 167.9 178.9 167.9 Z M 181.7 165.7 C 181.7 165.7 181.68 166.35 181.7 166.3 C 182 165.9 182.5 165.6 183 165.6 C 183.5 165.6 183.9 165.8 184.1 166.1 C 184.4 166.5 184.5 167 184.5 167.6 C 184.51 167.61 184.5 169.7 184.5 169.7 L 183.8 169.7 C 183.8 169.7 183.78 167.69 183.8 167.7 C 183.8 167.3 183.8 166.9 183.6 166.6 C 183.4 166.4 183.2 166.3 182.9 166.3 C 182.4 166.3 182 166.6 181.7 167 C 181.68 167.03 181.7 169.7 181.7 169.7 L 181 169.7 L 181 165.7 L 181.7 165.7 Z M 185.5 167.7 C 185.5 166.6 186.3 165.6 187.5 165.6 C 187.9 165.6 188.4 165.8 188.7 166.1 C 188.74 166.13 188.7 163.7 188.7 163.7 L 189.5 163.7 L 189.5 169.7 L 188.7 169.7 C 188.7 169.7 188.74 169.15 188.7 169.2 C 188.5 169.6 187.9 169.8 187.5 169.8 C 186.3 169.8 185.5 168.9 185.5 167.7 Z M 188.7 168.4 C 188.7 168.4 188.7 166.9 188.7 166.9 C 188.5 166.5 188 166.3 187.6 166.3 C 186.7 166.3 186.2 167 186.2 167.7 C 186.2 168.4 186.7 169.1 187.6 169.1 C 188 169.1 188.5 168.9 188.7 168.4 Z M 194.9 164.4 C 194.7 164.3 194.6 164.3 194.4 164.3 C 194.1 164.3 194 164.3 193.9 164.4 C 193.7 164.5 193.7 164.8 193.7 165.2 C 193.69 165.19 193.7 165.7 193.7 165.7 L 194.8 165.7 L 194.8 166.3 L 193.7 166.3 L 193.7 169.7 L 193 169.7 L 193 166.3 L 192.5 166.3 L 192.5 165.7 L 193 165.7 C 193 165.7 192.97 165.11 193 165.1 C 193 164.7 193 164.3 193.2 164.1 C 193.4 163.8 193.7 163.6 194.3 163.6 C 194.5 163.6 194.8 163.7 195.1 163.8 C 195.1 163.8 194.9 164.4 194.9 164.4 Z M 195.9 167.9 C 195.9 168.6 196.4 169.2 197.2 169.2 C 197.7 169.2 198.1 169 198.4 168.5 C 198.4 168.5 198.9 168.9 198.9 168.9 C 198.5 169.5 198 169.8 197.2 169.8 C 195.9 169.8 195.2 168.9 195.2 167.7 C 195.2 166.5 196 165.6 197.2 165.6 C 198.2 165.6 199 166.4 199 167.5 C 199 167.6 199 167.8 198.9 167.9 C 198.9 167.9 195.9 167.9 195.9 167.9 Z M 196 167.3 C 196 167.3 198.2 167.3 198.2 167.3 C 198.2 166.7 197.8 166.2 197.2 166.2 C 196.5 166.2 196.1 166.7 196 167.3 Z M 200.4 167.9 C 200.4 168.6 200.9 169.2 201.7 169.2 C 202.2 169.2 202.6 169 202.9 168.5 C 202.9 168.5 203.4 168.9 203.4 168.9 C 203 169.5 202.4 169.8 201.6 169.8 C 200.4 169.8 199.7 168.9 199.7 167.7 C 199.7 166.5 200.5 165.6 201.6 165.6 C 202.7 165.6 203.5 166.4 203.5 167.5 C 203.5 167.6 203.4 167.8 203.4 167.9 C 203.4 167.9 200.4 167.9 200.4 167.9 Z M 200.4 167.3 C 200.4 167.3 202.7 167.3 202.7 167.3 C 202.7 166.7 202.2 166.2 201.6 166.2 C 201 166.2 200.6 166.7 200.4 167.3 Z M 205.2 169.7 L 204.5 169.7 L 204.5 163.7 L 205.2 163.7 L 205.2 169.7 Z M 212 168.8 L 212.1 168.8 L 212.9 165.7 L 213.6 165.7 L 212.5 169.7 L 211.7 169.7 L 210.8 166.6 L 210.8 166.6 L 209.9 169.7 L 209.1 169.7 L 208 165.7 L 208.8 165.7 L 209.5 168.8 L 209.5 168.8 L 210.4 165.7 L 211.2 165.7 L 212 168.8 Z M 215.1 166.3 C 215.4 165.9 215.9 165.6 216.4 165.6 C 217 165.6 217.4 165.8 217.6 166.1 C 217.9 166.5 218 167 218 167.6 C 217.96 167.61 218 169.7 218 169.7 L 217.2 169.7 C 217.2 169.7 217.23 167.69 217.2 167.7 C 217.2 167.3 217.2 166.9 217 166.6 C 216.9 166.4 216.7 166.3 216.3 166.3 C 215.9 166.3 215.4 166.6 215.1 167 C 215.13 167.03 215.1 169.7 215.1 169.7 L 214.4 169.7 L 214.4 163.7 L 215.1 163.7 C 215.1 163.7 215.13 166.35 215.1 166.3 Z M 221.6 169.7 C 221.6 169.7 221.63 169.27 221.6 169.3 C 221.3 169.6 220.9 169.8 220.4 169.8 C 219.7 169.8 219 169.4 219 168.6 C 219 167.6 219.9 167.2 220.8 167.2 C 221 167.2 221.3 167.3 221.6 167.3 C 221.6 167.3 221.6 167.2 221.6 167.2 C 221.6 166.6 221.3 166.2 220.7 166.2 C 220.2 166.2 219.7 166.4 219.4 166.6 C 219.4 166.6 219.2 166 219.2 166 C 219.6 165.8 220.2 165.6 220.7 165.6 C 221.9 165.6 222.3 166.2 222.3 167.3 C 222.32 167.26 222.3 169.7 222.3 169.7 L 221.6 169.7 Z M 221.6 167.9 C 221.3 167.8 221.1 167.8 220.9 167.8 C 220.4 167.8 219.7 167.9 219.7 168.5 C 219.7 169 220.1 169.2 220.5 169.2 C 220.9 169.2 221.3 169 221.6 168.7 C 221.6 168.7 221.6 167.9 221.6 167.9 Z M 224.4 166.3 C 224.4 166.3 224.39 168.14 224.4 168.1 C 224.4 168.2 224.4 168.3 224.4 168.5 C 224.4 168.9 224.6 169.1 225 169.1 C 225.1 169.1 225.3 169.1 225.4 169 C 225.4 169 225.6 169.6 225.6 169.6 C 225.4 169.7 225.1 169.8 224.9 169.8 C 224.3 169.8 224 169.5 223.8 169.1 C 223.7 168.9 223.7 168.6 223.7 168.3 C 223.66 168.31 223.7 166.3 223.7 166.3 L 223.1 166.3 L 223.1 165.7 L 223.7 165.7 L 223.7 164.7 L 224.4 164.7 L 224.4 165.7 L 225.5 165.7 L 225.5 166.3 L 224.4 166.3 Z M 231.2 169 C 230.9 169.5 230.4 169.8 229.9 169.8 C 229.3 169.8 228.9 169.6 228.7 169.3 C 228.4 168.9 228.3 168.4 228.3 167.8 C 228.34 167.77 228.3 165.7 228.3 165.7 L 229.1 165.7 C 229.1 165.7 229.07 167.69 229.1 167.7 C 229.1 168.1 229.1 168.5 229.3 168.8 C 229.4 169 229.6 169.1 230 169.1 C 230.4 169.1 230.9 168.8 231.2 168.3 C 231.16 168.35 231.2 165.7 231.2 165.7 L 231.9 165.7 L 231.9 169.7 L 231.2 169.7 C 231.2 169.7 231.16 169.03 231.2 169 Z M 234 169.7 L 233.2 169.7 L 233.2 163.7 L 234 163.7 L 234 169.7 Z M 236.1 166.3 C 236.1 166.3 236.08 168.14 236.1 168.1 C 236.1 168.2 236.1 168.3 236.1 168.5 C 236.1 168.9 236.2 169.1 236.6 169.1 C 236.8 169.1 237 169.1 237.1 169 C 237.1 169 237.3 169.6 237.3 169.6 C 237.1 169.7 236.8 169.8 236.5 169.8 C 236 169.8 235.6 169.5 235.5 169.1 C 235.4 168.9 235.3 168.6 235.3 168.3 C 235.35 168.31 235.3 166.3 235.3 166.3 L 234.8 166.3 L 234.8 165.7 L 235.3 165.7 L 235.3 164.7 L 236.1 164.7 L 236.1 165.7 L 237.2 165.7 L 237.2 166.3 L 236.1 166.3 Z M 238.1 169.7 L 238.1 165.7 L 238.8 165.7 L 238.8 169.7 L 238.1 169.7 Z M 238.1 164.9 L 238.1 164.1 L 238.8 164.1 L 238.8 164.9 L 238.1 164.9 Z M 245.5 169.7 C 245.5 169.7 245.48 167.69 245.5 167.7 C 245.5 167.3 245.5 166.9 245.3 166.6 C 245.2 166.4 244.9 166.3 244.6 166.3 C 244.2 166.3 243.8 166.5 243.5 166.9 C 243.5 167.1 243.5 167.4 243.5 167.6 C 243.54 167.61 243.5 169.7 243.5 169.7 L 242.8 169.7 C 242.8 169.7 242.81 167.69 242.8 167.7 C 242.8 167.3 242.8 166.8 242.6 166.5 C 242.5 166.4 242.3 166.3 242 166.3 C 241.6 166.3 241.1 166.6 240.9 167 C 240.88 167 240.9 169.7 240.9 169.7 L 240.1 169.7 L 240.1 165.7 L 240.9 165.7 C 240.9 165.7 240.88 166.3 240.9 166.3 C 241.2 165.9 241.7 165.6 242.1 165.6 C 242.6 165.6 243 165.8 243.2 166.1 C 243.3 166.2 243.3 166.3 243.3 166.3 C 243.7 165.8 244.2 165.6 244.7 165.6 C 245.3 165.6 245.6 165.8 245.8 166.1 C 246.1 166.4 246.2 167 246.2 167.6 C 246.2 167.61 246.2 169.7 246.2 169.7 L 245.5 169.7 Z M 249.9 169.7 C 249.9 169.7 249.88 169.27 249.9 169.3 C 249.5 169.6 249.2 169.8 248.7 169.8 C 247.9 169.8 247.3 169.4 247.3 168.6 C 247.3 167.6 248.2 167.2 249 167.2 C 249.2 167.2 249.5 167.3 249.8 167.3 C 249.8 167.3 249.8 167.2 249.8 167.2 C 249.8 166.6 249.6 166.2 248.9 166.2 C 248.4 166.2 247.9 166.4 247.6 166.6 C 247.6 166.6 247.4 166 247.4 166 C 247.8 165.8 248.4 165.6 249 165.6 C 250.1 165.6 250.6 166.2 250.6 167.3 C 250.57 167.26 250.6 169.7 250.6 169.7 L 249.9 169.7 Z M 249.8 167.9 C 249.5 167.8 249.3 167.8 249.1 167.8 C 248.6 167.8 248 167.9 248 168.5 C 248 169 248.3 169.2 248.8 169.2 C 249.2 169.2 249.5 169 249.8 168.7 C 249.8 168.7 249.8 167.9 249.8 167.9 Z M 252.6 166.3 C 252.6 166.3 252.64 168.14 252.6 168.1 C 252.6 168.2 252.6 168.3 252.6 168.5 C 252.7 168.9 252.8 169.1 253.2 169.1 C 253.4 169.1 253.5 169.1 253.7 169 C 253.7 169 253.9 169.6 253.9 169.6 C 253.7 169.7 253.4 169.8 253.1 169.8 C 252.5 169.8 252.2 169.5 252 169.1 C 251.9 168.9 251.9 168.6 251.9 168.3 C 251.91 168.31 251.9 166.3 251.9 166.3 L 251.4 166.3 L 251.4 165.7 L 251.9 165.7 L 251.9 164.7 L 252.6 164.7 L 252.6 165.7 L 253.8 165.7 L 253.8 166.3 L 252.6 166.3 Z M 255 167.9 C 255.1 168.6 255.5 169.2 256.3 169.2 C 256.8 169.2 257.3 169 257.5 168.5 C 257.5 168.5 258 168.9 258 168.9 C 257.6 169.5 257.1 169.8 256.3 169.8 C 255 169.8 254.3 168.9 254.3 167.7 C 254.3 166.5 255.2 165.6 256.3 165.6 C 257.3 165.6 258.1 166.4 258.1 167.5 C 258.1 167.6 258.1 167.8 258.1 167.9 C 258.1 167.9 255 167.9 255 167.9 Z M 255.1 167.3 C 255.1 167.3 257.4 167.3 257.4 167.3 C 257.3 166.7 256.9 166.2 256.3 166.2 C 255.6 166.2 255.2 166.7 255.1 167.3 Z M 264.1 169.4 C 263.8 169.6 263.3 169.8 262.8 169.8 C 261.7 169.8 260.8 169 260.8 167.7 C 260.8 166.5 261.7 165.6 262.9 165.6 C 263.3 165.6 263.7 165.7 264 165.9 C 264 165.9 263.7 166.5 263.7 166.5 C 263.4 166.4 263.1 166.3 262.8 166.3 C 262.1 166.3 261.5 166.9 261.5 167.7 C 261.5 168.6 262.1 169.1 262.8 169.1 C 263.1 169.1 263.5 169 263.7 168.8 C 263.7 168.8 264.1 169.4 264.1 169.4 Z M 268.7 167.7 C 268.7 168.9 267.8 169.8 266.6 169.8 C 265.5 169.8 264.6 168.9 264.6 167.7 C 264.6 166.5 265.5 165.6 266.6 165.6 C 267.8 165.6 268.7 166.5 268.7 167.7 Z M 266.6 166.3 C 265.9 166.3 265.3 166.9 265.3 167.7 C 265.3 168.5 265.9 169.1 266.6 169.1 C 267.4 169.1 267.9 168.5 267.9 167.7 C 267.9 166.9 267.4 166.3 266.6 166.3 Z M 275 169.7 C 275 169.7 275 167.69 275 167.7 C 275 167.3 275 166.9 274.8 166.6 C 274.7 166.4 274.5 166.3 274.1 166.3 C 273.7 166.3 273.3 166.5 273 166.9 C 273 167.1 273.1 167.4 273.1 167.6 C 273.06 167.61 273.1 169.7 273.1 169.7 L 272.3 169.7 C 272.3 169.7 272.33 167.69 272.3 167.7 C 272.3 167.3 272.3 166.8 272.1 166.5 C 272 166.4 271.8 166.3 271.5 166.3 C 271.1 166.3 270.7 166.6 270.4 167 C 270.4 167 270.4 169.7 270.4 169.7 L 269.7 169.7 L 269.7 165.7 L 270.4 165.7 C 270.4 165.7 270.4 166.3 270.4 166.3 C 270.7 165.9 271.2 165.6 271.7 165.6 C 272.1 165.6 272.5 165.8 272.8 166.1 C 272.8 166.2 272.8 166.3 272.9 166.3 C 273.2 165.8 273.7 165.6 274.3 165.6 C 274.8 165.6 275.1 165.8 275.4 166.1 C 275.6 166.4 275.7 167 275.7 167.6 C 275.72 167.61 275.7 169.7 275.7 169.7 L 275 169.7 Z M 279.1 164.4 C 278.9 164.3 278.8 164.3 278.6 164.3 C 278.4 164.3 278.2 164.3 278.1 164.4 C 277.9 164.5 277.9 164.8 277.9 165.2 C 277.9 165.19 277.9 165.7 277.9 165.7 L 279 165.7 L 279 166.3 L 277.9 166.3 L 277.9 169.7 L 277.2 169.7 L 277.2 166.3 L 276.7 166.3 L 276.7 165.7 L 277.2 165.7 C 277.2 165.7 277.17 165.11 277.2 165.1 C 277.2 164.7 277.2 164.3 277.4 164.1 C 277.6 163.8 277.9 163.6 278.5 163.6 C 278.7 163.6 279 163.7 279.3 163.8 C 279.3 163.8 279.1 164.4 279.1 164.4 Z M 283.5 167.7 C 283.5 168.9 282.6 169.8 281.4 169.8 C 280.3 169.8 279.4 168.9 279.4 167.7 C 279.4 166.5 280.3 165.6 281.4 165.6 C 282.6 165.6 283.5 166.5 283.5 167.7 Z M 281.4 166.3 C 280.7 166.3 280.1 166.9 280.1 167.7 C 280.1 168.5 280.7 169.1 281.4 169.1 C 282.2 169.1 282.7 168.5 282.7 167.7 C 282.7 166.9 282.2 166.3 281.4 166.3 Z M 285.2 166.4 C 285.4 165.9 285.8 165.6 286.2 165.6 C 286.4 165.6 286.5 165.6 286.7 165.6 C 286.7 165.6 286.5 166.4 286.5 166.4 C 286.4 166.4 286.3 166.3 286.1 166.3 C 285.7 166.3 285.4 166.6 285.2 167 C 285.19 167.01 285.2 169.7 285.2 169.7 L 284.5 169.7 L 284.5 165.7 L 285.2 165.7 C 285.2 165.7 285.19 166.35 285.2 166.4 Z M 288.2 166.3 C 288.2 166.3 288.21 168.14 288.2 168.1 C 288.2 168.2 288.2 168.3 288.2 168.5 C 288.2 168.9 288.4 169.1 288.8 169.1 C 288.9 169.1 289.1 169.1 289.2 169 C 289.2 169 289.4 169.6 289.4 169.6 C 289.2 169.7 288.9 169.8 288.7 169.8 C 288.1 169.8 287.8 169.5 287.6 169.1 C 287.5 168.9 287.5 168.6 287.5 168.3 C 287.48 168.31 287.5 166.3 287.5 166.3 L 286.9 166.3 L 286.9 165.7 L 287.5 165.7 L 287.5 164.7 L 288.2 164.7 L 288.2 165.7 L 289.3 165.7 L 289.3 166.3 L 288.2 166.3 Z M 292.2 169.7 L 292.2 165.7 L 292.9 165.7 L 292.9 169.7 L 292.2 169.7 Z M 292.2 164.9 L 292.2 164.1 L 292.9 164.1 L 292.9 164.9 L 292.2 164.9 Z M 296.2 166.5 C 296.1 166.3 295.7 166.2 295.4 166.2 C 295.1 166.2 294.8 166.4 294.8 166.7 C 294.8 167 295.2 167.2 295.6 167.3 C 296.1 167.5 296.8 167.8 296.8 168.5 C 296.8 169.4 296.1 169.8 295.3 169.8 C 294.8 169.8 294.3 169.6 294 169.2 C 294 169.2 294.5 168.8 294.5 168.8 C 294.7 169 295 169.2 295.3 169.2 C 295.7 169.2 296.1 169 296.1 168.6 C 296.1 168.3 295.7 168.1 295.3 167.9 C 294.8 167.7 294.1 167.5 294.1 166.8 C 294.1 166 294.8 165.6 295.4 165.6 C 295.9 165.6 296.3 165.7 296.7 166 C 296.7 166 296.2 166.5 296.2 166.5 Z M 302.3 169.7 C 302.3 169.7 302.27 169.27 302.3 169.3 C 301.9 169.6 301.6 169.8 301.1 169.8 C 300.3 169.8 299.7 169.4 299.7 168.6 C 299.7 167.6 300.6 167.2 301.4 167.2 C 301.6 167.2 301.9 167.3 302.2 167.3 C 302.2 167.3 302.2 167.2 302.2 167.2 C 302.2 166.6 301.9 166.2 301.3 166.2 C 300.8 166.2 300.3 166.4 300 166.6 C 300 166.6 299.8 166 299.8 166 C 300.2 165.8 300.8 165.6 301.4 165.6 C 302.5 165.6 303 166.2 303 167.3 C 302.96 167.26 303 169.7 303 169.7 L 302.3 169.7 Z M 302.2 167.9 C 301.9 167.8 301.7 167.8 301.5 167.8 C 301 167.8 300.4 167.9 300.4 168.5 C 300.4 169 300.7 169.2 301.2 169.2 C 301.6 169.2 301.9 169 302.2 168.7 C 302.2 168.7 302.2 167.9 302.2 167.9 Z M 305 169.7 L 304.3 169.7 L 304.3 163.7 L 305 163.7 L 305 169.7 Z M 307.1 169.7 L 306.3 169.7 L 306.3 163.7 L 307.1 163.7 L 307.1 169.7 Z M 312.8 169.7 C 312.8 169.7 312.78 169.27 312.8 169.3 C 312.5 169.6 312.1 169.8 311.6 169.8 C 310.8 169.8 310.2 169.4 310.2 168.6 C 310.2 167.6 311.1 167.2 311.9 167.2 C 312.1 167.2 312.4 167.3 312.7 167.3 C 312.7 167.3 312.7 167.2 312.7 167.2 C 312.7 166.6 312.5 166.2 311.8 166.2 C 311.3 166.2 310.9 166.4 310.5 166.6 C 310.5 166.6 310.3 166 310.3 166 C 310.7 165.8 311.3 165.6 311.9 165.6 C 313.1 165.6 313.5 166.2 313.5 167.3 C 313.47 167.26 313.5 169.7 313.5 169.7 L 312.8 169.7 Z M 312.7 167.9 C 312.5 167.8 312.2 167.8 312 167.8 C 311.5 167.8 310.9 167.9 310.9 168.5 C 310.9 169 311.2 169.2 311.7 169.2 C 312.1 169.2 312.4 169 312.7 168.7 C 312.7 168.7 312.7 167.9 312.7 167.9 Z M 315.5 163.7 C 315.5 163.7 315.5 166.23 315.5 166.2 C 315.8 165.8 316.3 165.6 316.8 165.6 C 317.9 165.6 318.8 166.5 318.8 167.7 C 318.8 168.8 318 169.8 316.8 169.8 C 316.3 169.8 315.8 169.6 315.5 169.3 C 315.5 169.26 315.5 169.7 315.5 169.7 L 314.8 169.7 L 314.8 163.7 L 315.5 163.7 Z M 315.5 168.5 C 315.8 168.9 316.2 169.1 316.7 169.1 C 317.6 169.1 318 168.4 318 167.7 C 318 166.9 317.5 166.3 316.7 166.3 C 316.2 166.3 315.7 166.5 315.5 167 C 315.5 167 315.5 168.5 315.5 168.5 Z M 323.5 167.7 C 323.5 168.9 322.7 169.8 321.5 169.8 C 320.3 169.8 319.4 168.9 319.4 167.7 C 319.4 166.5 320.3 165.6 321.5 165.6 C 322.7 165.6 323.5 166.5 323.5 167.7 Z M 321.5 166.3 C 320.7 166.3 320.2 166.9 320.2 167.7 C 320.2 168.5 320.7 169.1 321.5 169.1 C 322.2 169.1 322.8 168.5 322.8 167.7 C 322.8 166.9 322.2 166.3 321.5 166.3 Z M 327.3 169 C 327 169.5 326.5 169.8 326 169.8 C 325.4 169.8 325.1 169.6 324.8 169.3 C 324.6 168.9 324.5 168.4 324.5 167.8 C 324.48 167.77 324.5 165.7 324.5 165.7 L 325.2 165.7 C 325.2 165.7 325.21 167.69 325.2 167.7 C 325.2 168.1 325.2 168.5 325.4 168.8 C 325.5 169 325.8 169.1 326.1 169.1 C 326.6 169.1 327 168.8 327.3 168.3 C 327.31 168.35 327.3 165.7 327.3 165.7 L 328 165.7 L 328 169.7 L 327.3 169.7 C 327.3 169.7 327.31 169.03 327.3 169 Z M 330.1 166.3 C 330.1 166.3 330.15 168.14 330.1 168.1 C 330.1 168.2 330.1 168.3 330.2 168.5 C 330.2 168.9 330.3 169.1 330.7 169.1 C 330.9 169.1 331 169.1 331.2 169 C 331.2 169 331.4 169.6 331.4 169.6 C 331.2 169.7 330.9 169.8 330.6 169.8 C 330.1 169.8 329.7 169.5 329.5 169.1 C 329.5 168.9 329.4 168.6 329.4 168.3 C 329.42 168.31 329.4 166.3 329.4 166.3 L 328.9 166.3 L 328.9 165.7 L 329.4 165.7 L 329.4 164.7 L 330.1 164.7 L 330.1 165.7 L 331.3 165.7 L 331.3 166.3 L 330.1 166.3 Z M 332.2 169.7 L 332.2 168.8 L 333 168.8 L 333 169.7 L 332.2 169.7 Z " stroke="none" fill="#fff"/>  </g>  <g id="Polygon41997">    <path d="M 141 158.8 C 139.3 158.8 138 157.7 138 155.9 C 138 154.2 139.4 153 141 153 C 141.6 153 142.1 153.2 142.5 153.4 C 142.5 153.4 142.2 154 142.2 154 C 141.8 153.8 141.4 153.7 141 153.7 C 139.7 153.7 138.8 154.6 138.8 155.9 C 138.8 157.3 139.7 158.1 141 158.1 C 141.5 158.1 141.9 158 142.3 157.7 C 142.3 157.7 142.7 158.3 142.7 158.3 C 142.2 158.6 141.6 158.8 141 158.8 Z M 144.3 155.3 C 144.6 154.9 145.1 154.6 145.6 154.6 C 146.2 154.6 146.6 154.8 146.8 155.1 C 147.1 155.5 147.1 156 147.1 156.6 C 147.14 156.61 147.1 158.7 147.1 158.7 L 146.4 158.7 C 146.4 158.7 146.41 156.69 146.4 156.7 C 146.4 156.3 146.4 155.9 146.2 155.6 C 146.1 155.4 145.9 155.3 145.5 155.3 C 145 155.3 144.6 155.6 144.3 156 C 144.32 156.03 144.3 158.7 144.3 158.7 L 143.6 158.7 L 143.6 152.7 L 144.3 152.7 C 144.3 152.7 144.32 155.35 144.3 155.3 Z M 148.4 158.7 L 148.4 154.7 L 149.2 154.7 L 149.2 158.7 L 148.4 158.7 Z M 148.4 153.9 L 148.4 153.1 L 149.2 153.1 L 149.2 153.9 L 148.4 153.9 Z M 151.2 158.7 L 150.5 158.7 L 150.5 152.7 L 151.2 152.7 L 151.2 158.7 Z M 153.3 158.7 L 152.6 158.7 L 152.6 152.7 L 153.3 152.7 L 153.3 158.7 Z M 160.4 156.7 C 160.4 157.9 159.5 158.8 158.4 158.8 C 157.2 158.8 156.3 157.9 156.3 156.7 C 156.3 155.5 157.2 154.6 158.4 154.6 C 159.5 154.6 160.4 155.5 160.4 156.7 Z M 158.4 155.3 C 157.6 155.3 157.1 155.9 157.1 156.7 C 157.1 157.5 157.6 158.1 158.4 158.1 C 159.1 158.1 159.7 157.5 159.7 156.7 C 159.7 155.9 159.1 155.3 158.4 155.3 Z M 164.2 158 C 163.9 158.5 163.4 158.8 162.9 158.8 C 162.3 158.8 161.9 158.6 161.7 158.3 C 161.4 157.9 161.4 157.4 161.4 156.8 C 161.36 156.77 161.4 154.7 161.4 154.7 L 162.1 154.7 C 162.1 154.7 162.08 156.69 162.1 156.7 C 162.1 157.1 162.1 157.5 162.3 157.8 C 162.4 158 162.6 158.1 163 158.1 C 163.5 158.1 163.9 157.8 164.2 157.3 C 164.18 157.35 164.2 154.7 164.2 154.7 L 164.9 154.7 L 164.9 158.7 L 164.2 158.7 C 164.2 158.7 164.18 158.03 164.2 158 Z M 167 155.3 C 167 155.3 167.02 157.14 167 157.1 C 167 157.2 167 157.3 167 157.5 C 167.1 157.9 167.2 158.1 167.6 158.1 C 167.7 158.1 167.9 158.1 168 158 C 168 158 168.2 158.6 168.2 158.6 C 168 158.7 167.8 158.8 167.5 158.8 C 166.9 158.8 166.6 158.5 166.4 158.1 C 166.3 157.9 166.3 157.6 166.3 157.3 C 166.29 157.31 166.3 155.3 166.3 155.3 L 165.8 155.3 L 165.8 154.7 L 166.3 154.7 L 166.3 153.7 L 167 153.7 L 167 154.7 L 168.1 154.7 L 168.1 155.3 L 167 155.3 Z M 171 158.7 L 171 154.7 L 171.7 154.7 L 171.7 158.7 L 171 158.7 Z M 171 153.9 L 171 153.1 L 171.7 153.1 L 171.7 153.9 L 171 153.9 Z M 173.8 154.7 C 173.8 154.7 173.82 155.35 173.8 155.3 C 174.1 154.9 174.6 154.6 175.1 154.6 C 175.7 154.6 176.1 154.8 176.3 155.1 C 176.6 155.5 176.6 156 176.6 156.6 C 176.64 156.61 176.6 158.7 176.6 158.7 L 175.9 158.7 C 175.9 158.7 175.92 156.69 175.9 156.7 C 175.9 156.3 175.9 155.9 175.7 155.6 C 175.6 155.4 175.4 155.3 175 155.3 C 174.5 155.3 174.1 155.6 173.8 156 C 173.82 156.03 173.8 158.7 173.8 158.7 L 173.1 158.7 L 173.1 154.7 L 173.8 154.7 Z M 183.7 156.7 C 183.7 157.9 182.8 158.8 181.6 158.8 C 180.5 158.8 179.6 157.9 179.6 156.7 C 179.6 155.5 180.5 154.6 181.6 154.6 C 182.8 154.6 183.7 155.5 183.7 156.7 Z M 181.6 155.3 C 180.9 155.3 180.3 155.9 180.3 156.7 C 180.3 157.5 180.9 158.1 181.6 158.1 C 182.4 158.1 182.9 157.5 182.9 156.7 C 182.9 155.9 182.4 155.3 181.6 155.3 Z M 187.5 158 C 187.2 158.5 186.7 158.8 186.2 158.8 C 185.6 158.8 185.2 158.6 185 158.3 C 184.7 157.9 184.6 157.4 184.6 156.8 C 184.65 156.77 184.6 154.7 184.6 154.7 L 185.4 154.7 C 185.4 154.7 185.37 156.69 185.4 156.7 C 185.4 157.1 185.4 157.5 185.6 157.8 C 185.7 158 185.9 158.1 186.3 158.1 C 186.7 158.1 187.2 157.8 187.5 157.3 C 187.47 157.35 187.5 154.7 187.5 154.7 L 188.2 154.7 L 188.2 158.7 L 187.5 158.7 C 187.5 158.7 187.47 158.03 187.5 158 Z M 190.3 155.4 C 190.5 154.9 190.9 154.6 191.3 154.6 C 191.5 154.6 191.6 154.6 191.7 154.6 C 191.7 154.6 191.6 155.4 191.6 155.4 C 191.5 155.4 191.4 155.3 191.2 155.3 C 190.8 155.3 190.5 155.6 190.3 156 C 190.27 156.01 190.3 158.7 190.3 158.7 L 189.5 158.7 L 189.5 154.7 L 190.3 154.7 C 190.3 154.7 190.27 155.35 190.3 155.4 Z M 195.1 155.4 C 195.4 154.9 195.7 154.6 196.2 154.6 C 196.3 154.6 196.4 154.6 196.6 154.6 C 196.6 154.6 196.5 155.4 196.5 155.4 C 196.3 155.4 196.2 155.3 196.1 155.3 C 195.7 155.3 195.4 155.6 195.1 156 C 195.12 156.01 195.1 158.7 195.1 158.7 L 194.4 158.7 L 194.4 154.7 L 195.1 154.7 C 195.1 154.7 195.12 155.35 195.1 155.4 Z M 197.6 156.9 C 197.7 157.6 198.2 158.2 198.9 158.2 C 199.5 158.2 199.9 158 200.1 157.5 C 200.1 157.5 200.7 157.9 200.7 157.9 C 200.3 158.5 199.7 158.8 198.9 158.8 C 197.6 158.8 196.9 157.9 196.9 156.7 C 196.9 155.5 197.8 154.6 198.9 154.6 C 200 154.6 200.7 155.4 200.7 156.5 C 200.7 156.6 200.7 156.8 200.7 156.9 C 200.7 156.9 197.6 156.9 197.6 156.9 Z M 197.7 156.3 C 197.7 156.3 200 156.3 200 156.3 C 199.9 155.7 199.5 155.2 198.9 155.2 C 198.3 155.2 197.8 155.7 197.7 156.3 Z M 201.4 156.7 C 201.4 155.6 202.2 154.6 203.4 154.6 C 203.9 154.6 204.3 154.8 204.7 155.1 C 204.67 155.13 204.7 152.7 204.7 152.7 L 205.4 152.7 L 205.4 158.7 L 204.7 158.7 C 204.7 158.7 204.67 158.15 204.7 158.2 C 204.4 158.6 203.9 158.8 203.4 158.8 C 202.2 158.8 201.4 157.9 201.4 156.7 Z M 204.7 157.4 C 204.7 157.4 204.7 155.9 204.7 155.9 C 204.4 155.5 203.9 155.3 203.5 155.3 C 202.6 155.3 202.1 156 202.1 156.7 C 202.1 157.4 202.7 158.1 203.5 158.1 C 203.9 158.1 204.5 157.9 204.7 157.4 Z M 206.9 156.8 L 206.9 156.1 L 208.9 156.1 L 208.9 156.8 L 206.9 156.8 Z M 211.1 155.3 C 211.4 154.9 211.9 154.6 212.5 154.6 C 213 154.6 213.4 154.8 213.6 155.1 C 213.9 155.5 214 156 214 156.6 C 213.97 156.61 214 158.7 214 158.7 L 213.2 158.7 C 213.2 158.7 213.25 156.69 213.2 156.7 C 213.2 156.3 213.2 155.9 213 155.6 C 212.9 155.4 212.7 155.3 212.3 155.3 C 211.9 155.3 211.4 155.6 211.1 156 C 211.15 156.03 211.1 158.7 211.1 158.7 L 210.4 158.7 L 210.4 152.7 L 211.1 152.7 C 211.1 152.7 211.15 155.35 211.1 155.3 Z M 219 156.7 C 219 157.9 218.1 158.8 217 158.8 C 215.8 158.8 214.9 157.9 214.9 156.7 C 214.9 155.5 215.8 154.6 217 154.6 C 218.1 154.6 219 155.5 219 156.7 Z M 217 155.3 C 216.2 155.3 215.7 155.9 215.7 156.7 C 215.7 157.5 216.2 158.1 217 158.1 C 217.7 158.1 218.3 157.5 218.3 156.7 C 218.3 155.9 217.7 155.3 217 155.3 Z M 220.8 155.3 C 220.8 155.3 220.79 157.14 220.8 157.1 C 220.8 157.2 220.8 157.3 220.8 157.5 C 220.8 157.9 221 158.1 221.4 158.1 C 221.5 158.1 221.7 158.1 221.8 158 C 221.8 158 222 158.6 222 158.6 C 221.8 158.7 221.5 158.8 221.3 158.8 C 220.7 158.8 220.4 158.5 220.2 158.1 C 220.1 157.9 220.1 157.6 220.1 157.3 C 220.06 157.31 220.1 155.3 220.1 155.3 L 219.5 155.3 L 219.5 154.7 L 220.1 154.7 L 220.1 153.7 L 220.8 153.7 L 220.8 154.7 L 221.9 154.7 L 221.9 155.3 L 220.8 155.3 Z M 226.7 155.5 C 226.6 155.3 226.2 155.2 225.9 155.2 C 225.6 155.2 225.3 155.4 225.3 155.7 C 225.3 156 225.7 156.2 226.1 156.3 C 226.6 156.5 227.3 156.8 227.3 157.5 C 227.3 158.4 226.6 158.8 225.8 158.8 C 225.3 158.8 224.8 158.6 224.5 158.2 C 224.5 158.2 225 157.8 225 157.8 C 225.2 158 225.5 158.2 225.8 158.2 C 226.2 158.2 226.6 158 226.6 157.6 C 226.6 157.3 226.2 157.1 225.8 156.9 C 225.3 156.7 224.7 156.5 224.7 155.8 C 224.7 155 225.3 154.6 225.9 154.6 C 226.4 154.6 226.9 154.7 227.2 155 C 227.2 155 226.7 155.5 226.7 155.5 Z M 228.8 156.9 C 228.8 157.6 229.3 158.2 230.1 158.2 C 230.6 158.2 231 158 231.3 157.5 C 231.3 157.5 231.8 157.9 231.8 157.9 C 231.4 158.5 230.9 158.8 230 158.8 C 228.8 158.8 228.1 157.9 228.1 156.7 C 228.1 155.5 228.9 154.6 230 154.6 C 231.1 154.6 231.9 155.4 231.9 156.5 C 231.9 156.6 231.9 156.8 231.8 156.9 C 231.8 156.9 228.8 156.9 228.8 156.9 Z M 228.8 156.3 C 228.8 156.3 231.1 156.3 231.1 156.3 C 231.1 155.7 230.7 155.2 230.1 155.2 C 229.4 155.2 229 155.7 228.8 156.3 Z M 233.6 158.7 L 232.9 158.7 L 232.9 152.7 L 233.6 152.7 L 233.6 158.7 Z M 235.3 156.9 C 235.4 157.6 235.9 158.2 236.6 158.2 C 237.2 158.2 237.6 158 237.8 157.5 C 237.8 157.5 238.3 157.9 238.3 157.9 C 237.9 158.5 237.4 158.8 236.6 158.8 C 235.3 158.8 234.6 157.9 234.6 156.7 C 234.6 155.5 235.5 154.6 236.6 154.6 C 237.7 154.6 238.4 155.4 238.4 156.5 C 238.4 156.6 238.4 156.8 238.4 156.9 C 238.4 156.9 235.3 156.9 235.3 156.9 Z M 235.4 156.3 C 235.4 156.3 237.7 156.3 237.7 156.3 C 237.6 155.7 237.2 155.2 236.6 155.2 C 236 155.2 235.5 155.7 235.4 156.3 Z M 242.4 158.4 C 242.1 158.6 241.6 158.8 241.1 158.8 C 240 158.8 239.1 158 239.1 156.7 C 239.1 155.5 240 154.6 241.2 154.6 C 241.6 154.6 242 154.7 242.3 154.9 C 242.3 154.9 242 155.5 242 155.5 C 241.7 155.4 241.4 155.3 241.1 155.3 C 240.4 155.3 239.8 155.9 239.8 156.7 C 239.8 157.6 240.5 158.1 241.2 158.1 C 241.4 158.1 241.8 158 242 157.8 C 242 157.8 242.4 158.4 242.4 158.4 Z M 244.1 155.3 C 244.1 155.3 244.12 157.14 244.1 157.1 C 244.1 157.2 244.1 157.3 244.1 157.5 C 244.1 157.9 244.3 158.1 244.7 158.1 C 244.8 158.1 245 158.1 245.1 158 C 245.1 158 245.3 158.6 245.3 158.6 C 245.1 158.7 244.9 158.8 244.6 158.8 C 244 158.8 243.7 158.5 243.5 158.1 C 243.4 157.9 243.4 157.6 243.4 157.3 C 243.39 157.31 243.4 155.3 243.4 155.3 L 242.9 155.3 L 242.9 154.7 L 243.4 154.7 L 243.4 153.7 L 244.1 153.7 L 244.1 154.7 L 245.2 154.7 L 245.2 155.3 L 244.1 155.3 Z M 246.1 158.7 L 246.1 154.7 L 246.8 154.7 L 246.8 158.7 L 246.1 158.7 Z M 246.1 153.9 L 246.1 153.1 L 246.8 153.1 L 246.8 153.9 L 246.1 153.9 Z M 251.9 156.7 C 251.9 157.9 251.1 158.8 249.9 158.8 C 248.7 158.8 247.9 157.9 247.9 156.7 C 247.9 155.5 248.7 154.6 249.9 154.6 C 251.1 154.6 251.9 155.5 251.9 156.7 Z M 249.9 155.3 C 249.1 155.3 248.6 155.9 248.6 156.7 C 248.6 157.5 249.1 158.1 249.9 158.1 C 250.6 158.1 251.2 157.5 251.2 156.7 C 251.2 155.9 250.6 155.3 249.9 155.3 Z M 253.7 154.7 C 253.7 154.7 253.67 155.35 253.7 155.3 C 254 154.9 254.4 154.6 255 154.6 C 255.5 154.6 255.9 154.8 256.1 155.1 C 256.4 155.5 256.5 156 256.5 156.6 C 256.49 156.61 256.5 158.7 256.5 158.7 L 255.8 158.7 C 255.8 158.7 255.76 156.69 255.8 156.7 C 255.8 156.3 255.7 155.9 255.6 155.6 C 255.4 155.4 255.2 155.3 254.9 155.3 C 254.4 155.3 254 155.6 253.7 156 C 253.67 156.03 253.7 158.7 253.7 158.7 L 252.9 158.7 L 252.9 154.7 L 253.7 154.7 Z M 263.5 156.7 C 263.5 157.9 262.7 158.8 261.5 158.8 C 260.3 158.8 259.5 157.9 259.5 156.7 C 259.5 155.5 260.3 154.6 261.5 154.6 C 262.7 154.6 263.5 155.5 263.5 156.7 Z M 261.5 155.3 C 260.7 155.3 260.2 155.9 260.2 156.7 C 260.2 157.5 260.7 158.1 261.5 158.1 C 262.2 158.1 262.8 157.5 262.8 156.7 C 262.8 155.9 262.2 155.3 261.5 155.3 Z M 266.6 153.4 C 266.4 153.3 266.3 153.3 266.1 153.3 C 265.9 153.3 265.7 153.3 265.6 153.4 C 265.4 153.5 265.4 153.8 265.4 154.2 C 265.42 154.19 265.4 154.7 265.4 154.7 L 266.5 154.7 L 266.5 155.3 L 265.4 155.3 L 265.4 158.7 L 264.7 158.7 L 264.7 155.3 L 264.2 155.3 L 264.2 154.7 L 264.7 154.7 C 264.7 154.7 264.69 154.11 264.7 154.1 C 264.7 153.7 264.8 153.3 264.9 153.1 C 265.1 152.8 265.5 152.6 266 152.6 C 266.3 152.6 266.6 152.7 266.8 152.8 C 266.8 152.8 266.6 153.4 266.6 153.4 Z M 270 158.7 L 269.2 158.7 L 269.2 152.7 L 270 152.7 L 270 158.7 Z M 274.1 158 C 273.8 158.5 273.3 158.8 272.8 158.8 C 272.2 158.8 271.9 158.6 271.6 158.3 C 271.3 157.9 271.3 157.4 271.3 156.8 C 271.26 156.77 271.3 154.7 271.3 154.7 L 272 154.7 C 272 154.7 271.99 156.69 272 156.7 C 272 157.1 272 157.5 272.2 157.8 C 272.3 158 272.5 158.1 272.9 158.1 C 273.4 158.1 273.8 157.8 274.1 157.3 C 274.08 157.35 274.1 154.7 274.1 154.7 L 274.8 154.7 L 274.8 158.7 L 274.1 158.7 C 274.1 158.7 274.08 158.03 274.1 158 Z M 277.9 156.6 L 279.4 158.7 L 278.4 158.7 L 277.4 157.2 L 276.4 158.7 L 275.5 158.7 L 277 156.7 L 275.6 154.7 L 276.5 154.7 L 277.5 156.1 L 278.4 154.7 L 279.3 154.7 L 277.9 156.6 Z M 282.9 158 C 282.6 158.5 282.1 158.8 281.5 158.8 C 281 158.8 280.6 158.6 280.4 158.3 C 280.1 157.9 280 157.4 280 156.8 C 280.03 156.77 280 154.7 280 154.7 L 280.8 154.7 C 280.8 154.7 280.75 156.69 280.8 156.7 C 280.8 157.1 280.8 157.5 281 157.8 C 281.1 158 281.3 158.1 281.7 158.1 C 282.1 158.1 282.6 157.8 282.9 157.3 C 282.85 157.35 282.9 154.7 282.9 154.7 L 283.6 154.7 L 283.6 158.7 L 282.9 158.7 C 282.9 158.7 282.85 158.03 282.9 158 Z M 285.7 155.4 C 285.9 154.9 286.3 154.6 286.7 154.6 C 286.9 154.6 287 154.6 287.1 154.6 C 287.1 154.6 287 155.4 287 155.4 C 286.9 155.4 286.8 155.3 286.6 155.3 C 286.2 155.3 285.9 155.6 285.7 156 C 285.65 156.01 285.7 158.7 285.7 158.7 L 284.9 158.7 L 284.9 154.7 L 285.7 154.7 C 285.7 154.7 285.65 155.35 285.7 155.4 Z M 287.8 158.7 L 287.8 154.7 L 288.5 154.7 L 288.5 158.7 L 287.8 158.7 Z M 287.8 153.9 L 287.8 153.1 L 288.5 153.1 L 288.5 153.9 L 287.8 153.9 Z M 293.6 156.7 C 293.6 157.9 292.7 158.8 291.6 158.8 C 290.4 158.8 289.5 157.9 289.5 156.7 C 289.5 155.5 290.4 154.6 291.6 154.6 C 292.7 154.6 293.6 155.5 293.6 156.7 Z M 291.6 155.3 C 290.8 155.3 290.3 155.9 290.3 156.7 C 290.3 157.5 290.8 158.1 291.6 158.1 C 292.3 158.1 292.9 157.5 292.9 156.7 C 292.9 155.9 292.3 155.3 291.6 155.3 Z M 297.4 158 C 297.1 158.5 296.6 158.8 296.1 158.8 C 295.5 158.8 295.1 158.6 294.9 158.3 C 294.6 157.9 294.6 157.4 294.6 156.8 C 294.56 156.77 294.6 154.7 294.6 154.7 L 295.3 154.7 C 295.3 154.7 295.28 156.69 295.3 156.7 C 295.3 157.1 295.3 157.5 295.5 157.8 C 295.6 158 295.8 158.1 296.2 158.1 C 296.7 158.1 297.1 157.8 297.4 157.3 C 297.38 157.35 297.4 154.7 297.4 154.7 L 298.1 154.7 L 298.1 158.7 L 297.4 158.7 C 297.4 158.7 297.38 158.03 297.4 158 Z M 301.4 155.5 C 301.2 155.3 300.9 155.2 300.6 155.2 C 300.2 155.2 300 155.4 300 155.7 C 300 156 300.4 156.2 300.8 156.3 C 301.3 156.5 301.9 156.8 301.9 157.5 C 301.9 158.4 301.3 158.8 300.5 158.8 C 300 158.8 299.4 158.6 299.1 158.2 C 299.1 158.2 299.6 157.8 299.6 157.8 C 299.9 158 300.2 158.2 300.5 158.2 C 300.9 158.2 301.2 158 301.2 157.6 C 301.2 157.3 300.9 157.1 300.5 156.9 C 299.9 156.7 299.3 156.5 299.3 155.8 C 299.3 155 299.9 154.6 300.6 154.6 C 301.1 154.6 301.5 154.7 301.8 155 C 301.8 155 301.4 155.5 301.4 155.5 Z M 303.4 159.8 L 302.7 159.8 L 303.1 157.8 L 303.9 157.8 L 303.4 159.8 Z M 307.8 158.7 L 307.1 158.7 L 307.1 152.7 L 307.8 152.7 L 307.8 158.7 Z M 309.5 156.9 C 309.6 157.6 310 158.2 310.8 158.2 C 311.3 158.2 311.8 158 312 157.5 C 312 157.5 312.5 157.9 312.5 157.9 C 312.1 158.5 311.6 158.8 310.8 158.8 C 309.5 158.8 308.8 157.9 308.8 156.7 C 308.8 155.5 309.7 154.6 310.8 154.6 C 311.8 154.6 312.6 155.4 312.6 156.5 C 312.6 156.6 312.6 156.8 312.6 156.9 C 312.6 156.9 309.5 156.9 309.5 156.9 Z M 309.6 156.3 C 309.6 156.3 311.9 156.3 311.9 156.3 C 311.8 155.7 311.4 155.2 310.8 155.2 C 310.1 155.2 309.7 155.7 309.6 156.3 Z M 316 158.7 C 316 158.7 315.99 158.27 316 158.3 C 315.7 158.6 315.3 158.8 314.8 158.8 C 314.1 158.8 313.4 158.4 313.4 157.6 C 313.4 156.6 314.3 156.2 315.2 156.2 C 315.4 156.2 315.6 156.3 316 156.3 C 316 156.3 316 156.2 316 156.2 C 316 155.6 315.7 155.2 315 155.2 C 314.5 155.2 314.1 155.4 313.7 155.6 C 313.7 155.6 313.5 155 313.5 155 C 313.9 154.8 314.5 154.6 315.1 154.6 C 316.3 154.6 316.7 155.2 316.7 156.3 C 316.68 156.26 316.7 158.7 316.7 158.7 L 316 158.7 Z M 316 156.9 C 315.7 156.8 315.4 156.8 315.2 156.8 C 314.7 156.8 314.1 156.9 314.1 157.5 C 314.1 158 314.5 158.2 314.9 158.2 C 315.3 158.2 315.6 158 316 157.7 C 316 157.7 316 156.9 316 156.9 Z M 318.7 155.3 C 318.7 155.3 318.75 157.14 318.7 157.1 C 318.7 157.2 318.7 157.3 318.8 157.5 C 318.8 157.9 318.9 158.1 319.3 158.1 C 319.5 158.1 319.6 158.1 319.8 158 C 319.8 158 320 158.6 320 158.6 C 319.8 158.7 319.5 158.8 319.2 158.8 C 318.7 158.8 318.3 158.5 318.1 158.1 C 318.1 157.9 318 157.6 318 157.3 C 318.02 157.31 318 155.3 318 155.3 L 317.5 155.3 L 317.5 154.7 L 318 154.7 L 318 153.7 L 318.7 153.7 L 318.7 154.7 L 319.9 154.7 L 319.9 155.3 L 318.7 155.3 Z M 321.5 155.3 C 321.8 154.9 322.2 154.6 322.8 154.6 C 323.3 154.6 323.7 154.8 323.9 155.1 C 324.2 155.5 324.3 156 324.3 156.6 C 324.3 156.61 324.3 158.7 324.3 158.7 L 323.6 158.7 C 323.6 158.7 323.57 156.69 323.6 156.7 C 323.6 156.3 323.6 155.9 323.4 155.6 C 323.2 155.4 323 155.3 322.7 155.3 C 322.2 155.3 321.8 155.6 321.5 156 C 321.47 156.03 321.5 158.7 321.5 158.7 L 320.7 158.7 L 320.7 152.7 L 321.5 152.7 C 321.5 152.7 321.47 155.35 321.5 155.3 Z M 326 156.9 C 326 157.6 326.5 158.2 327.3 158.2 C 327.8 158.2 328.2 158 328.5 157.5 C 328.5 157.5 329 157.9 329 157.9 C 328.6 158.5 328.1 158.8 327.2 158.8 C 326 158.8 325.3 157.9 325.3 156.7 C 325.3 155.5 326.1 154.6 327.2 154.6 C 328.3 154.6 329.1 155.4 329.1 156.5 C 329.1 156.6 329.1 156.8 329 156.9 C 329 156.9 326 156.9 326 156.9 Z M 326 156.3 C 326 156.3 328.3 156.3 328.3 156.3 C 328.3 155.7 327.9 155.2 327.3 155.2 C 326.6 155.2 326.2 155.7 326 156.3 Z M 330.8 155.4 C 331 154.9 331.4 154.6 331.8 154.6 C 332 154.6 332.1 154.6 332.3 154.6 C 332.3 154.6 332.1 155.4 332.1 155.4 C 332 155.4 331.9 155.3 331.8 155.3 C 331.3 155.3 331.1 155.6 330.8 156 C 330.8 156.01 330.8 158.7 330.8 158.7 L 330.1 158.7 L 330.1 154.7 L 330.8 154.7 C 330.8 154.7 330.8 155.35 330.8 155.4 Z M 333 156.8 L 333 156.1 L 335.1 156.1 L 335.1 156.8 L 333 156.8 Z M 337.3 158.7 L 336.5 158.7 L 336.5 152.7 L 337.3 152.7 L 337.3 158.7 Z M 338.6 158.7 L 338.6 154.7 L 339.3 154.7 L 339.3 158.7 L 338.6 158.7 Z M 338.6 153.9 L 338.6 153.1 L 339.3 153.1 L 339.3 153.9 L 338.6 153.9 Z M 343.2 158.7 L 342 156.9 L 341.4 157.6 L 341.4 158.7 L 340.7 158.7 L 340.7 152.7 L 341.4 152.7 L 341.4 156.7 L 341.4 156.7 L 343 154.7 L 343.9 154.7 L 342.5 156.3 L 344.1 158.7 L 343.2 158.7 Z M 345.1 156.9 C 345.1 157.6 345.6 158.2 346.3 158.2 C 346.9 158.2 347.3 158 347.5 157.5 C 347.5 157.5 348.1 157.9 348.1 157.9 C 347.7 158.5 347.1 158.8 346.3 158.8 C 345 158.8 344.3 157.9 344.3 156.7 C 344.3 155.5 345.2 154.6 346.3 154.6 C 347.4 154.6 348.1 155.4 348.1 156.5 C 348.1 156.6 348.1 156.8 348.1 156.9 C 348.1 156.9 345.1 156.9 345.1 156.9 Z M 345.1 156.3 C 345.1 156.3 347.4 156.3 347.4 156.3 C 347.4 155.7 346.9 155.2 346.3 155.2 C 345.7 155.2 345.3 155.7 345.1 156.3 Z " stroke="none" fill="#fff"/>  </g>  <g id="Polygon41996">    <path d="M 89.4 119.7 L 89.4 110.6 L 90.8 110.6 L 90.8 118.5 L 94.7 118.5 L 94.7 119.7 L 89.4 119.7 Z M 96.6 119.7 L 96.6 110.6 L 102.2 110.6 L 102.2 111.8 L 98 111.8 L 98 114.4 L 102.2 114.4 L 102.2 115.6 L 98 115.6 L 98 118.5 L 102.2 118.5 L 102.2 119.7 L 96.6 119.7 Z M 110 117.8 L 106.2 117.8 L 105.5 119.7 L 104 119.7 L 107.6 110.6 L 108.8 110.6 L 112.2 119.7 L 110.6 119.7 L 110 117.8 Z M 106.7 116.6 L 109.5 116.6 L 108.1 112.7 L 108.1 112.7 L 106.7 116.6 Z M 116.4 111.8 L 116.4 119.7 L 115 119.7 L 115 111.8 L 112.8 111.8 L 112.8 110.6 L 118.7 110.6 L 118.7 111.8 L 116.4 111.8 Z M 126.7 119.7 L 126.7 115.6 L 122.1 115.6 L 122.1 119.7 L 120.8 119.7 L 120.8 110.6 L 122.1 110.6 L 122.1 114.4 L 126.7 114.4 L 126.7 110.6 L 128.1 110.6 L 128.1 119.7 L 126.7 119.7 Z M 131.1 119.7 L 131.1 110.6 L 136.7 110.6 L 136.7 111.8 L 132.5 111.8 L 132.5 114.4 L 136.7 114.4 L 136.7 115.6 L 132.5 115.6 L 132.5 118.5 L 136.7 118.5 L 136.7 119.7 L 131.1 119.7 Z M 142.1 110.6 C 143.5 110.6 145.2 111.3 145.2 113.2 C 145.2 114.8 144.2 115.5 143.1 115.8 C 143.08 115.79 145.9 119.7 145.9 119.7 L 144.2 119.7 L 141.5 115.9 L 140.7 115.9 L 140.7 119.7 L 139.3 119.7 L 139.3 110.6 C 139.3 110.6 142.08 110.59 142.1 110.6 Z M 140.7 114.7 C 140.7 114.7 141.76 114.67 141.8 114.7 C 142.9 114.7 143.8 114.3 143.8 113.3 C 143.8 112.4 143.1 111.8 142 111.8 C 142.01 111.81 140.7 111.8 140.7 111.8 L 140.7 114.7 Z M 148 115.9 L 148 114.7 L 151.4 114.7 L 151.4 115.9 L 148 115.9 Z M 154.5 119.7 L 154.5 110.6 L 155.9 110.6 L 155.9 118.5 L 159.8 118.5 L 159.8 119.7 L 154.5 119.7 Z M 161.7 119.7 L 161.7 110.6 L 163.1 110.6 L 163.1 119.7 L 161.7 119.7 Z M 169.8 114.2 L 173 119.7 L 171.3 119.7 L 168.8 115.3 L 167.5 116.9 L 167.5 119.7 L 166.1 119.7 L 166.1 110.6 L 167.5 110.6 L 167.5 115 L 171.1 110.6 L 172.8 110.6 L 169.8 114.2 Z M 174.9 119.7 L 174.9 110.6 L 180.4 110.6 L 180.4 111.8 L 176.3 111.8 L 176.3 114.4 L 180.4 114.4 L 180.4 115.6 L 176.3 115.6 L 176.3 118.5 L 180.4 118.5 L 180.4 119.7 L 174.9 119.7 Z M 189.8 111.7 C 189 111.7 188.3 112.1 188.3 112.8 C 188.3 113.6 189.2 113.9 190.1 114.2 C 191.4 114.6 192.9 115.2 192.9 117 C 192.9 119 191.1 119.8 189.7 119.8 C 188.3 119.8 187.3 119.4 186.3 118.4 C 186.3 118.4 187.3 117.5 187.3 117.5 C 188.1 118.3 188.8 118.6 189.7 118.6 C 190.6 118.6 191.4 118.2 191.4 117.1 C 191.4 116.2 190.5 115.9 189.5 115.5 C 188.2 115.1 186.9 114.5 186.9 113 C 186.9 111.2 188.2 110.4 189.7 110.4 C 190.8 110.4 191.7 110.8 192.6 111.4 C 192.6 111.4 191.7 112.4 191.7 112.4 C 191.3 112 190.6 111.7 189.8 111.7 Z M 195.4 119.7 L 195.4 110.6 L 200.9 110.6 L 200.9 111.8 L 196.8 111.8 L 196.8 114.4 L 200.9 114.4 L 200.9 115.6 L 196.8 115.6 L 196.8 118.5 L 200.9 118.5 L 200.9 119.7 L 195.4 119.7 Z M 208.7 117.8 L 205 117.8 L 204.3 119.7 L 202.8 119.7 L 206.3 110.6 L 207.5 110.6 L 211 119.7 L 209.4 119.7 L 208.7 117.8 Z M 205.4 116.6 L 208.3 116.6 L 206.9 112.7 L 206.9 112.7 L 205.4 116.6 Z M 215.2 111.8 L 215.2 119.7 L 213.8 119.7 L 213.8 111.8 L 211.5 111.8 L 211.5 110.6 L 217.5 110.6 L 217.5 111.8 L 215.2 111.8 Z M 219.5 119.7 L 219.5 110.6 L 220.9 110.6 L 220.9 119.7 L 219.5 119.7 Z M 230.1 119.7 L 225.3 113.2 L 225.3 119.7 L 223.9 119.7 L 223.9 110.6 L 225.1 110.6 L 230 117.1 L 230 110.6 L 231.3 110.6 L 231.3 119.7 L 230.1 119.7 Z M 238.9 115.8 L 238.9 114.6 L 242.6 114.6 C 242.6 114.6 242.59 118.08 242.6 118.1 C 241.7 119.2 240.3 119.8 238.8 119.8 C 236 119.8 233.9 117.9 233.9 115.1 C 233.9 112.5 236.1 110.4 238.8 110.4 C 240.2 110.4 241.5 111.1 242.4 112.1 C 242.4 112.1 241.4 112.9 241.4 112.9 C 240.8 112.2 239.8 111.7 238.8 111.7 C 236.8 111.7 235.4 113.1 235.4 115.1 C 235.4 117.3 236.8 118.6 238.8 118.6 C 239.7 118.6 240.6 118.3 241.2 117.7 C 241.2 117.68 241.2 115.8 241.2 115.8 L 238.9 115.8 Z M 252 111.8 L 252 119.7 L 250.6 119.7 L 250.6 111.8 L 248.4 111.8 L 248.4 110.6 L 254.3 110.6 L 254.3 111.8 L 252 111.8 Z M 262.3 119.7 L 262.3 115.6 L 257.7 115.6 L 257.7 119.7 L 256.3 119.7 L 256.3 110.6 L 257.7 110.6 L 257.7 114.4 L 262.3 114.4 L 262.3 110.6 L 263.7 110.6 L 263.7 119.7 L 262.3 119.7 Z M 271.7 117.8 L 268 117.8 L 267.3 119.7 L 265.8 119.7 L 269.4 110.6 L 270.5 110.6 L 274 119.7 L 272.4 119.7 L 271.7 117.8 Z M 268.4 116.6 L 271.3 116.6 L 269.9 112.7 L 269.9 112.7 L 268.4 116.6 Z M 278.2 111.8 L 278.2 119.7 L 276.8 119.7 L 276.8 111.8 L 274.6 111.8 L 274.6 110.6 L 280.5 110.6 L 280.5 111.8 L 278.2 111.8 Z M 286.4 119.7 L 286.4 110.6 L 287.8 110.6 L 287.8 118.5 L 291.7 118.5 L 291.7 119.7 L 286.4 119.7 Z M 297.5 111.7 C 295.6 111.7 294.3 113.2 294.3 115.1 C 294.3 117.1 295.6 118.6 297.5 118.6 C 299.4 118.6 300.7 117.1 300.7 115.1 C 300.7 113.2 299.4 111.7 297.5 111.7 Z M 297.5 119.8 C 294.8 119.8 292.8 117.7 292.8 115.1 C 292.8 112.5 294.8 110.4 297.5 110.4 C 300.2 110.4 302.2 112.5 302.2 115.1 C 302.2 117.7 300.2 119.8 297.5 119.8 Z M 309 111.7 C 307.2 111.7 305.8 113.2 305.8 115.1 C 305.8 117.1 307.2 118.6 309 118.6 C 310.9 118.6 312.3 117.1 312.3 115.1 C 312.3 113.2 310.9 111.7 309 111.7 Z M 309 119.8 C 306.4 119.8 304.3 117.7 304.3 115.1 C 304.3 112.5 306.4 110.4 309 110.4 C 311.7 110.4 313.7 112.5 313.7 115.1 C 313.7 117.7 311.7 119.8 309 119.8 Z M 320 114.2 L 323.2 119.7 L 321.6 119.7 L 319.1 115.3 L 317.7 116.9 L 317.7 119.7 L 316.3 119.7 L 316.3 110.6 L 317.7 110.6 L 317.7 115 L 321.3 110.6 L 323 110.6 L 320 114.2 Z M 327.9 111.7 C 327 111.7 326.3 112.1 326.3 112.8 C 326.3 113.6 327.2 113.9 328.1 114.2 C 329.4 114.6 330.9 115.2 330.9 117 C 330.9 119 329.1 119.8 327.7 119.8 C 326.3 119.8 325.3 119.4 324.3 118.4 C 324.3 118.4 325.3 117.5 325.3 117.5 C 326.1 118.3 326.8 118.6 327.7 118.6 C 328.6 118.6 329.5 118.2 329.5 117.1 C 329.5 116.2 328.5 115.9 327.5 115.5 C 326.3 115.1 325 114.5 325 113 C 325 111.2 326.3 110.4 327.7 110.4 C 328.9 110.4 329.8 110.8 330.6 111.4 C 330.6 111.4 329.8 112.4 329.8 112.4 C 329.3 112 328.6 111.7 327.9 111.7 Z M 340.1 111.8 L 340.1 119.7 L 338.7 119.7 L 338.7 111.8 L 336.5 111.8 L 336.5 110.6 L 342.4 110.6 L 342.4 111.8 L 340.1 111.8 Z M 350.4 119.7 L 350.4 115.6 L 345.8 115.6 L 345.8 119.7 L 344.4 119.7 L 344.4 110.6 L 345.8 110.6 L 345.8 114.4 L 350.4 114.4 L 350.4 110.6 L 351.8 110.6 L 351.8 119.7 L 350.4 119.7 Z M 354.8 119.7 L 354.8 110.6 L 360.4 110.6 L 360.4 111.8 L 356.2 111.8 L 356.2 114.4 L 360.4 114.4 L 360.4 115.6 L 356.2 115.6 L 356.2 118.5 L 360.4 118.5 L 360.4 119.7 L 354.8 119.7 Z M 369.7 110.6 C 371.2 110.6 372.9 111.3 372.9 113.3 C 372.9 115.4 371.2 116.1 369.7 116.1 C 369.68 116.1 368.3 116.1 368.3 116.1 L 368.3 119.7 L 366.9 119.7 L 366.9 110.6 C 366.9 110.6 369.68 110.59 369.7 110.6 Z M 368.3 114.9 C 368.3 114.9 369.36 114.88 369.4 114.9 C 370.6 114.9 371.5 114.5 371.5 113.4 C 371.5 112.4 370.7 111.8 369.6 111.8 C 369.61 111.81 368.3 111.8 368.3 111.8 L 368.3 114.9 Z M 379.5 117.8 L 375.8 117.8 L 375.1 119.7 L 373.6 119.7 L 377.1 110.6 L 378.3 110.6 L 381.8 119.7 L 380.2 119.7 L 379.5 117.8 Z M 376.2 116.6 L 379.1 116.6 L 377.7 112.7 L 377.6 112.7 L 376.2 116.6 Z M 386.6 110.6 C 388 110.6 389.8 111.3 389.8 113.2 C 389.8 114.8 388.7 115.5 387.6 115.8 C 387.63 115.79 390.5 119.7 390.5 119.7 L 388.7 119.7 L 386.1 115.9 L 385.3 115.9 L 385.3 119.7 L 383.9 119.7 L 383.9 110.6 C 383.9 110.6 386.63 110.59 386.6 110.6 Z M 385.3 114.7 C 385.3 114.7 386.32 114.67 386.3 114.7 C 387.5 114.7 388.3 114.3 388.3 113.3 C 388.3 112.4 387.6 111.8 386.6 111.8 C 386.56 111.81 385.3 111.8 385.3 111.8 L 385.3 114.7 Z M 395.3 111.8 L 395.3 119.7 L 393.9 119.7 L 393.9 111.8 L 391.6 111.8 L 391.6 110.6 L 397.5 110.6 L 397.5 111.8 L 395.3 111.8 Z " stroke="none" fill="#fff"/>  </g>  <g id="Polygon41995">    <path d="M 132.1 23.9 C 132.1 24.6 132.1 25.3 132.1 25.9 C 132.1 26.6 132.2 27.3 132.2 27.9 C 132.5 28 132.8 28 133.1 28 C 133.4 28 133.8 28 134.2 28 C 134.6 28 135 28 135.4 27.8 C 135.8 27.7 136.1 27.5 136.4 27.2 C 136.7 26.9 136.9 26.5 137.1 26.1 C 137.3 25.7 137.4 25.2 137.4 24.7 C 137.4 24.1 137.3 23.6 137.1 23.3 C 136.9 22.9 136.6 22.6 136.2 22.4 C 135.8 22.2 135.3 22.1 134.8 22 C 134.3 21.9 133.6 21.9 133 21.9 C 132.98 21.87 132.1 21.9 132.1 21.9 C 132.1 21.9 132.08 23.91 132.1 23.9 Z M 133.2 21.1 C 133.6 21.1 134.1 21.1 134.6 21 C 135 20.9 135.4 20.7 135.8 20.5 C 136.1 20.3 136.4 20 136.7 19.6 C 136.9 19.3 137 18.8 137 18.2 C 137 17.7 136.9 17.3 136.7 16.9 C 136.5 16.6 136.2 16.4 135.9 16.2 C 135.6 16 135.3 15.9 134.9 15.8 C 134.5 15.8 134.1 15.7 133.7 15.7 C 133.4 15.7 133.1 15.7 132.8 15.8 C 132.6 15.8 132.4 15.8 132.2 15.8 C 132.2 16.5 132.1 17.1 132.1 17.7 C 132.1 18.4 132.1 19 132.1 19.6 C 132.08 19.63 132.1 21.1 132.1 21.1 C 132.1 21.1 133.16 21.13 133.2 21.1 Z M 130.4 20.1 C 130.4 19.3 130.4 18.4 130.4 17.5 C 130.4 16.7 130.3 15.8 130.3 15 C 130.6 15 131 15 131.3 15.1 C 131.7 15.1 132.1 15.1 132.4 15.1 C 132.7 15.1 133.1 15.1 133.5 15 C 133.8 15 134.2 15 134.5 15 C 135.1 15 135.6 15 136.1 15.1 C 136.6 15.2 137.1 15.4 137.5 15.6 C 137.9 15.8 138.2 16.1 138.4 16.5 C 138.6 16.8 138.7 17.3 138.7 17.9 C 138.7 18.9 138.4 19.6 137.8 20.2 C 137.2 20.7 136.4 21.1 135.4 21.4 C 135.4 21.4 135.4 21.4 135.4 21.4 C 136.6 21.5 137.5 21.7 138.2 22.3 C 138.9 22.8 139.2 23.6 139.2 24.8 C 139.2 25.5 139.1 26.1 138.8 26.6 C 138.5 27.2 138.1 27.6 137.6 27.9 C 137.1 28.2 136.5 28.4 135.9 28.5 C 135.3 28.7 134.7 28.7 134.2 28.7 C 133.8 28.7 133.5 28.7 133.2 28.7 C 132.9 28.7 132.5 28.7 132.2 28.7 C 131.9 28.7 131.6 28.7 131.3 28.7 C 130.9 28.7 130.6 28.7 130.3 28.7 C 130.3 27.9 130.4 27 130.4 26.2 C 130.4 25.3 130.4 24.5 130.4 23.6 C 130.4 23.6 130.4 20.1 130.4 20.1 Z M 142.5 21.9 C 142.5 20.8 142.7 19.7 143.1 18.9 C 143.5 18 144 17.2 144.6 16.6 C 145.3 16 146.1 15.5 147 15.2 C 147.9 14.9 148.9 14.7 150 14.7 C 151.1 14.7 152.1 14.9 153.1 15.2 C 154 15.5 154.8 16 155.4 16.6 C 156.1 17.2 156.6 18 157 18.9 C 157.3 19.7 157.5 20.8 157.5 21.9 C 157.5 23 157.3 24 157 24.9 C 156.6 25.8 156.1 26.6 155.4 27.2 C 154.8 27.8 154 28.2 153.1 28.5 C 152.1 28.8 151.1 29 150 29 C 148.9 29 147.9 28.8 147 28.5 C 146.1 28.2 145.3 27.8 144.6 27.2 C 144 26.6 143.5 25.8 143.1 24.9 C 142.7 24 142.5 23 142.5 21.9 Z M 155.6 21.9 C 155.6 20.8 155.4 19.8 155.1 19 C 154.9 18.2 154.5 17.5 154 17 C 153.5 16.5 152.9 16.1 152.2 15.8 C 151.5 15.6 150.8 15.5 150 15.5 C 149.2 15.5 148.5 15.6 147.9 15.8 C 147.2 16.1 146.6 16.5 146.1 17 C 145.6 17.5 145.2 18.2 144.9 19 C 144.6 19.8 144.5 20.8 144.5 21.9 C 144.5 23 144.6 24 144.9 24.8 C 145.2 25.6 145.6 26.2 146.1 26.8 C 146.6 27.3 147.2 27.7 147.9 27.9 C 148.5 28.2 149.2 28.3 150 28.3 C 150.8 28.3 151.5 28.2 152.2 27.9 C 152.9 27.7 153.5 27.3 154 26.8 C 154.5 26.2 154.9 25.6 155.1 24.8 C 155.4 24 155.6 23 155.6 21.9 Z M 161.3 20.2 C 161.3 19.3 161.3 18.4 161.3 17.6 C 161.2 16.7 161.2 15.9 161.2 15 C 161.3 15 161.5 15 161.7 15.1 C 161.8 15.1 162 15.1 162.1 15.1 C 162.3 15.1 162.5 15.1 162.6 15.1 C 162.8 15 162.9 15 163.1 15 C 163.1 15.9 163 16.7 163 17.6 C 163 18.4 163 19.3 163 20.2 C 163 21.8 163 23.3 163 24.5 C 163 25.8 163 26.9 163 27.8 C 164 27.8 164.9 27.8 165.7 27.8 C 166.6 27.8 167.5 27.7 168.5 27.6 C 168.5 27.8 168.4 28 168.4 28.2 C 168.4 28.3 168.5 28.5 168.5 28.7 C 167.9 28.7 167.3 28.7 166.7 28.7 C 166.1 28.7 165.5 28.7 164.9 28.7 C 164.2 28.7 163.6 28.7 163 28.7 C 162.4 28.7 161.8 28.7 161.2 28.7 C 161.2 27.9 161.2 27.1 161.3 26.2 C 161.3 25.4 161.3 24.5 161.3 23.6 C 161.32 23.61 161.3 20.2 161.3 20.2 C 161.3 20.2 161.32 20.17 161.3 20.2 Z M 172.3 20.2 C 172.3 19.3 172.3 18.4 172.3 17.6 C 172.2 16.7 172.2 15.9 172.2 15 C 172.7 15 173.2 15 173.7 15.1 C 174.2 15.1 174.7 15.1 175.2 15.1 C 175.7 15.1 176.2 15.1 176.7 15 C 177.2 15 177.7 15 178.2 15 C 179.4 15 180.4 15.1 181.2 15.4 C 182 15.8 182.7 16.2 183.3 16.8 C 183.8 17.3 184.2 18 184.4 18.8 C 184.7 19.7 184.8 20.6 184.8 21.6 C 184.8 22.9 184.6 24.1 184.1 25 C 183.6 25.9 183.1 26.6 182.3 27.2 C 181.6 27.7 180.8 28.1 180 28.4 C 179.1 28.6 178.3 28.7 177.5 28.7 C 177.1 28.7 176.6 28.7 176.2 28.7 C 175.7 28.7 175.3 28.7 174.8 28.7 C 174.4 28.7 173.9 28.7 173.5 28.7 C 173.1 28.7 172.6 28.7 172.2 28.7 C 172.2 27.9 172.2 27.1 172.3 26.2 C 172.3 25.4 172.3 24.5 172.3 23.6 C 172.3 23.6 172.3 20.2 172.3 20.2 Z M 174 23.6 C 174 25 174 26.5 174.1 27.8 C 174.4 27.9 174.7 28 175.2 28 C 175.7 28 176.2 28 176.7 28 C 177.4 28 178.2 28 178.9 27.8 C 179.6 27.6 180.3 27.3 180.9 26.8 C 181.4 26.3 181.9 25.7 182.3 24.8 C 182.7 24 182.8 22.9 182.8 21.6 C 182.8 20.4 182.7 19.5 182.4 18.7 C 182.1 18 181.7 17.4 181.2 17 C 180.7 16.5 180.1 16.2 179.4 16.1 C 178.7 15.9 178 15.8 177.2 15.8 C 176.6 15.8 176 15.8 175.5 15.9 C 175 15.9 174.5 16 174.1 16 C 174 16.7 174 17.3 174 18 C 174 18.7 174 19.4 174 20.2 C 174 20.2 174 23.6 174 23.6 Z M 196.9 22.5 C 197.2 22.5 197.6 22.5 198 22.5 C 198.3 22.5 198.7 22.5 199 22.5 C 199.4 22.5 199.8 22.5 200.2 22.5 C 200.5 22.5 200.9 22.5 201.3 22.5 C 201.28 22.51 199.1 17.4 199.1 17.4 C 199.1 17.4 196.88 22.51 196.9 22.5 Z M 205.7 28.7 C 205.6 28.7 205.4 28.7 205.2 28.7 C 205 28.7 204.9 28.7 204.7 28.7 C 204.5 28.7 204.3 28.7 204.2 28.7 C 204 28.7 203.8 28.7 203.6 28.7 C 203.5 28.4 203.4 28.1 203.2 27.6 C 203.1 27.2 202.9 26.7 202.7 26.3 C 202.5 25.8 202.3 25.3 202.1 24.8 C 201.9 24.3 201.7 23.9 201.6 23.4 C 201.1 23.4 200.7 23.4 200.3 23.4 C 199.8 23.4 199.4 23.4 198.9 23.4 C 198.5 23.4 198.1 23.4 197.7 23.4 C 197.3 23.4 196.9 23.4 196.5 23.4 C 196.1 24.5 195.7 25.5 195.3 26.4 C 195 27.3 194.7 28.1 194.6 28.7 C 194.3 28.7 194.1 28.7 193.8 28.7 C 193.6 28.7 193.3 28.7 193.1 28.7 C 194.2 26.4 195.2 24.1 196.2 21.8 C 197.3 19.5 198.3 17.1 199.3 14.7 C 199.3 14.7 199.7 14.7 199.7 14.7 C 200 15.5 200.4 16.3 200.8 17.2 C 201.1 18.1 201.5 19 201.9 20 C 202.3 20.9 202.7 21.8 203.1 22.7 C 203.4 23.6 203.8 24.5 204.2 25.2 C 204.5 26 204.8 26.7 205.1 27.3 C 205.3 27.9 205.6 28.4 205.7 28.7 Z M 220.3 29 C 218.8 27.2 217.1 25.4 215.4 23.5 C 213.7 21.7 211.9 19.8 210.2 18 C 210.2 18.4 210.2 18.9 210.2 19.5 C 210.1 20.1 210.1 21 210.1 22 C 210.1 22.3 210.1 22.7 210.2 23.1 C 210.2 23.5 210.2 23.9 210.2 24.4 C 210.2 24.8 210.2 25.3 210.2 25.8 C 210.2 26.2 210.2 26.7 210.2 27.1 C 210.3 27.5 210.3 27.8 210.3 28.1 C 210.3 28.4 210.3 28.6 210.3 28.7 C 210.1 28.7 209.9 28.7 209.6 28.7 C 209.4 28.7 209.1 28.7 208.9 28.7 C 208.9 28.6 208.9 28.3 209 28 C 209 27.6 209 27.2 209.1 26.7 C 209.1 26.2 209.1 25.7 209.2 25.1 C 209.2 24.5 209.2 23.9 209.2 23.3 C 209.3 22.7 209.3 22.1 209.3 21.6 C 209.3 21 209.3 20.5 209.3 20.1 C 209.3 18.8 209.3 17.7 209.3 16.8 C 209.3 15.9 209.3 15.2 209.2 14.7 C 209.2 14.7 209.6 14.7 209.6 14.7 C 210.4 15.6 211.2 16.6 212.2 17.6 C 213.1 18.6 214 19.6 214.9 20.5 C 215.8 21.5 216.7 22.4 217.5 23.3 C 218.4 24.2 219.1 24.9 219.7 25.5 C 219.7 25.5 219.7 22.8 219.7 22.8 C 219.7 21.4 219.7 20.1 219.7 18.7 C 219.6 17.4 219.6 16.2 219.5 15 C 219.8 15.1 220 15.1 220.2 15.1 C 220.4 15.1 220.6 15.1 220.8 15 C 220.8 15.3 220.8 15.7 220.8 16.3 C 220.7 16.9 220.7 17.5 220.7 18.2 C 220.6 18.9 220.6 19.5 220.6 20.1 C 220.5 20.8 220.5 21.3 220.5 21.7 C 220.5 22 220.5 22.4 220.5 22.9 C 220.5 23.3 220.5 23.8 220.5 24.3 C 220.5 24.8 220.5 25.3 220.6 25.8 C 220.6 26.3 220.6 26.8 220.6 27.2 C 220.6 27.6 220.6 28 220.6 28.3 C 220.6 28.6 220.6 28.8 220.6 29 C 220.58 28.99 220.3 29 220.3 29 C 220.3 29 220.3 28.99 220.3 29 Z M 225.6 20.2 C 225.6 19.3 225.6 18.4 225.6 17.6 C 225.5 16.7 225.5 15.9 225.4 15 C 225.9 15 226.5 15 227 15.1 C 227.5 15.1 228 15.1 228.5 15.1 C 229 15.1 229.5 15.1 230 15 C 230.5 15 231 15 231.5 15 C 232.7 15 233.7 15.1 234.5 15.4 C 235.3 15.8 236 16.2 236.5 16.8 C 237.1 17.3 237.5 18 237.7 18.8 C 238 19.7 238.1 20.6 238.1 21.6 C 238.1 22.9 237.9 24.1 237.4 25 C 236.9 25.9 236.3 26.6 235.6 27.2 C 234.9 27.7 234.1 28.1 233.3 28.4 C 232.4 28.6 231.6 28.7 230.8 28.7 C 230.3 28.7 229.9 28.7 229.5 28.7 C 229 28.7 228.6 28.7 228.1 28.7 C 227.7 28.7 227.2 28.7 226.8 28.7 C 226.3 28.7 225.9 28.7 225.4 28.7 C 225.5 27.9 225.5 27.1 225.6 26.2 C 225.6 25.4 225.6 24.5 225.6 23.6 C 225.6 23.6 225.6 20.2 225.6 20.2 Z M 227.2 23.6 C 227.2 25 227.3 26.5 227.4 27.8 C 227.6 27.9 228 28 228.5 28 C 229 28 229.5 28 230 28 C 230.7 28 231.4 28 232.2 27.8 C 232.9 27.6 233.6 27.3 234.2 26.8 C 234.7 26.3 235.2 25.7 235.6 24.8 C 235.9 24 236.1 22.9 236.1 21.6 C 236.1 20.4 236 19.5 235.7 18.7 C 235.4 18 235 17.4 234.5 17 C 234 16.5 233.4 16.2 232.7 16.1 C 232 15.9 231.3 15.8 230.4 15.8 C 229.8 15.8 229.3 15.8 228.8 15.9 C 228.2 15.9 227.8 16 227.4 16 C 227.3 16.7 227.3 17.3 227.3 18 C 227.3 18.7 227.2 19.4 227.2 20.2 C 227.2 20.2 227.2 23.6 227.2 23.6 Z M 250.4 23.9 C 250.4 24.6 250.4 25.3 250.4 25.9 C 250.4 26.6 250.5 27.3 250.5 27.9 C 250.7 28 251 28 251.4 28 C 251.7 28 252.1 28 252.4 28 C 252.9 28 253.3 28 253.7 27.8 C 254.1 27.7 254.4 27.5 254.7 27.2 C 255 26.9 255.2 26.5 255.4 26.1 C 255.6 25.7 255.7 25.2 255.7 24.7 C 255.7 24.1 255.6 23.6 255.4 23.3 C 255.1 22.9 254.8 22.6 254.5 22.4 C 254.1 22.2 253.6 22.1 253.1 22 C 252.5 21.9 251.9 21.9 251.3 21.9 C 251.26 21.87 250.4 21.9 250.4 21.9 C 250.4 21.9 250.36 23.91 250.4 23.9 Z M 251.4 21.1 C 251.9 21.1 252.4 21.1 252.8 21 C 253.3 20.9 253.7 20.7 254.1 20.5 C 254.4 20.3 254.7 20 254.9 19.6 C 255.2 19.3 255.3 18.8 255.3 18.2 C 255.3 17.7 255.2 17.3 255 16.9 C 254.8 16.6 254.5 16.4 254.2 16.2 C 253.9 16 253.5 15.9 253.2 15.8 C 252.8 15.8 252.4 15.7 252 15.7 C 251.7 15.7 251.4 15.7 251.1 15.8 C 250.9 15.8 250.7 15.8 250.5 15.8 C 250.5 16.5 250.4 17.1 250.4 17.7 C 250.4 18.4 250.4 19 250.4 19.6 C 250.36 19.63 250.4 21.1 250.4 21.1 C 250.4 21.1 251.44 21.13 251.4 21.1 Z M 248.7 20.1 C 248.7 19.3 248.7 18.4 248.7 17.5 C 248.6 16.7 248.6 15.8 248.6 15 C 248.9 15 249.3 15 249.6 15.1 C 250 15.1 250.3 15.1 250.7 15.1 C 251 15.1 251.4 15.1 251.7 15 C 252.1 15 252.5 15 252.8 15 C 253.4 15 253.9 15 254.4 15.1 C 254.9 15.2 255.4 15.4 255.8 15.6 C 256.1 15.8 256.5 16.1 256.7 16.5 C 256.9 16.8 257 17.3 257 17.9 C 257 18.9 256.7 19.6 256.1 20.2 C 255.5 20.7 254.7 21.1 253.7 21.4 C 253.7 21.4 253.7 21.4 253.7 21.4 C 254.8 21.5 255.8 21.7 256.5 22.3 C 257.2 22.8 257.5 23.6 257.5 24.8 C 257.5 25.5 257.3 26.1 257 26.6 C 256.7 27.2 256.3 27.6 255.8 27.9 C 255.3 28.2 254.8 28.4 254.2 28.5 C 253.6 28.7 253 28.7 252.4 28.7 C 252.1 28.7 251.8 28.7 251.5 28.7 C 251.1 28.7 250.8 28.7 250.5 28.7 C 250.2 28.7 249.9 28.7 249.5 28.7 C 249.2 28.7 248.9 28.7 248.6 28.7 C 248.6 27.9 248.6 27 248.7 26.2 C 248.7 25.3 248.7 24.5 248.7 23.6 C 248.7 23.6 248.7 20.1 248.7 20.1 Z M 261.9 20.1 C 261.9 19.3 261.9 18.4 261.9 17.5 C 261.9 16.7 261.8 15.8 261.8 15 C 262.4 15 263 15 263.6 15.1 C 264.2 15.1 264.8 15.1 265.4 15.1 C 266 15.1 266.6 15.1 267.1 15.1 C 267.7 15 268.3 15 268.9 15 C 268.9 15.2 268.9 15.4 268.9 15.6 C 268.9 15.8 268.9 16 268.9 16.2 C 268.5 16.2 268.1 16.1 267.7 16.1 C 267.4 16.1 267 16.1 266.6 16 C 266.2 16 265.8 16 265.3 16 C 264.9 15.9 264.3 15.9 263.7 15.9 C 263.6 16.4 263.6 16.8 263.6 17.1 C 263.6 17.5 263.6 18 263.6 18.5 C 263.6 19 263.6 19.5 263.6 20 C 263.6 20.5 263.6 20.9 263.6 21.1 C 264.2 21.1 264.7 21.1 265.2 21.1 C 265.6 21.1 266.1 21.1 266.5 21 C 266.8 21 267.2 21 267.5 21 C 267.9 21 268.2 20.9 268.5 20.9 C 268.4 21.1 268.4 21.3 268.4 21.5 C 268.4 21.7 268.4 21.9 268.5 22.1 C 268.1 22.1 267.7 22.1 267.2 22 C 266.8 22 266.3 22 265.9 22 C 265.4 22 265 22 264.6 22 C 264.2 22 263.8 21.9 263.6 21.9 C 263.6 22.1 263.6 22.2 263.6 22.3 C 263.6 22.5 263.6 22.7 263.6 22.9 C 263.58 22.87 263.6 23.6 263.6 23.6 C 263.6 23.6 263.58 24.85 263.6 24.8 C 263.6 25.6 263.6 26.2 263.6 26.7 C 263.6 27.2 263.6 27.6 263.6 27.8 C 264.1 27.8 264.5 27.8 265 27.8 C 265.5 27.8 266 27.8 266.5 27.8 C 267 27.8 267.5 27.8 267.9 27.7 C 268.3 27.7 268.7 27.7 269 27.6 C 269 27.7 269 27.8 269 27.9 C 269 28 269 28.1 269 28.2 C 269 28.4 269 28.6 269 28.7 C 268.4 28.7 267.8 28.7 267.2 28.7 C 266.6 28.7 266 28.7 265.4 28.7 C 264.8 28.7 264.2 28.7 263.6 28.7 C 263 28.7 262.4 28.7 261.8 28.7 C 261.8 27.9 261.9 27 261.9 26.2 C 261.9 25.3 261.9 24.5 261.9 23.6 C 261.94 23.59 261.9 20.1 261.9 20.1 C 261.9 20.1 261.94 20.15 261.9 20.1 Z M 275.1 22.5 C 275.5 22.5 275.8 22.5 276.2 22.5 C 276.6 22.5 276.9 22.5 277.3 22.5 C 277.7 22.5 278 22.5 278.4 22.5 C 278.8 22.5 279.1 22.5 279.5 22.5 C 279.52 22.51 277.3 17.4 277.3 17.4 C 277.3 17.4 275.12 22.51 275.1 22.5 Z M 284 28.7 C 283.8 28.7 283.6 28.7 283.4 28.7 C 283.3 28.7 283.1 28.7 282.9 28.7 C 282.7 28.7 282.6 28.7 282.4 28.7 C 282.2 28.7 282 28.7 281.9 28.7 C 281.8 28.4 281.6 28.1 281.5 27.6 C 281.3 27.2 281.1 26.7 280.9 26.3 C 280.8 25.8 280.6 25.3 280.4 24.8 C 280.2 24.3 280 23.9 279.8 23.4 C 279.4 23.4 278.9 23.4 278.5 23.4 C 278.1 23.4 277.6 23.4 277.2 23.4 C 276.8 23.4 276.4 23.4 276 23.4 C 275.6 23.4 275.2 23.4 274.7 23.4 C 274.3 24.5 273.9 25.5 273.6 26.4 C 273.2 27.3 273 28.1 272.8 28.7 C 272.6 28.7 272.3 28.7 272.1 28.7 C 271.8 28.7 271.5 28.7 271.3 28.7 C 272.4 26.4 273.5 24.1 274.5 21.8 C 275.5 19.5 276.5 17.1 277.6 14.7 C 277.6 14.7 278 14.7 278 14.7 C 278.3 15.5 278.6 16.3 279 17.2 C 279.4 18.1 279.8 19 280.1 20 C 280.5 20.9 280.9 21.8 281.3 22.7 C 281.7 23.6 282 24.5 282.4 25.2 C 282.7 26 283 26.7 283.3 27.3 C 283.6 27.9 283.8 28.4 284 28.7 Z M 297.1 21.5 C 297.1 19.6 297.1 18.1 297.1 17.1 C 297.1 16.1 297 15.4 297 15 C 297.1 15 297.3 15 297.4 15.1 C 297.5 15.1 297.7 15.1 297.8 15.1 C 298 15.1 298.2 15.1 298.4 15 C 298.4 15.5 298.3 16 298.3 16.7 C 298.2 17.3 298.2 18 298.2 18.7 C 298.2 19.5 298.1 20.2 298.1 21 C 298.1 21.8 298.1 22.6 298 23.3 C 298 24.2 297.9 25 297.6 25.7 C 297.4 26.4 297 27 296.5 27.5 C 296 28 295.4 28.4 294.7 28.6 C 294 28.9 293.2 29 292.3 29 C 290.3 29 288.9 28.5 288 27.6 C 287.1 26.7 286.6 25.3 286.6 23.3 C 286.6 22.7 286.6 22.1 286.7 21.7 C 286.7 21.2 286.7 20.7 286.7 20.2 C 286.7 19 286.7 18.1 286.7 17.2 C 286.7 16.3 286.6 15.6 286.6 15 C 286.8 15 286.9 15 287.1 15.1 C 287.3 15.1 287.5 15.1 287.6 15.1 C 287.8 15.1 287.9 15.1 288.1 15.1 C 288.2 15 288.4 15 288.5 15 C 288.5 15.3 288.4 15.7 288.4 16.1 C 288.4 16.6 288.4 17.1 288.3 17.7 C 288.3 18.3 288.3 19 288.3 19.7 C 288.3 20.4 288.3 21.1 288.3 21.8 C 288.3 22.3 288.3 22.8 288.3 23.3 C 288.3 23.7 288.3 24.2 288.4 24.7 C 288.5 25.1 288.6 25.6 288.8 26 C 289 26.4 289.2 26.8 289.6 27.1 C 289.9 27.4 290.3 27.7 290.8 27.8 C 291.3 28 292 28.1 292.7 28.1 C 293.5 28.1 294.1 28 294.6 27.8 C 295.1 27.6 295.5 27.3 295.8 26.9 C 296.1 26.6 296.4 26.2 296.5 25.7 C 296.7 25.3 296.9 24.8 296.9 24.3 C 297 23.8 297.1 23.3 297.1 22.8 C 297.1 22.4 297.1 21.9 297.1 21.5 Z M 306 20.2 C 306 18.8 306 17.4 306 16 C 305.6 16 305.2 16 304.9 16 C 304.5 16 304.1 16.1 303.7 16.1 C 303.3 16.1 303 16.1 302.6 16.1 C 302.3 16.2 302 16.2 301.7 16.2 C 301.7 16 301.8 15.8 301.8 15.6 C 301.8 15.5 301.7 15.3 301.7 15 C 302.6 15 303.4 15 304.3 15.1 C 305.1 15.1 306 15.1 306.8 15.1 C 307.7 15.1 308.6 15.1 309.4 15.1 C 310.3 15 311.1 15 312 15 C 311.9 15.3 311.9 15.5 311.9 15.6 C 311.9 15.8 311.9 16 312 16.2 C 311.7 16.2 311.4 16.2 311 16.1 C 310.7 16.1 310.3 16.1 309.9 16.1 C 309.6 16.1 309.2 16 308.8 16 C 308.4 16 308.1 16 307.7 16 C 307.7 17.4 307.7 18.8 307.7 20.2 C 307.7 20.2 307.7 23.6 307.7 23.6 C 307.7 24.5 307.7 25.4 307.7 26.2 C 307.7 27.1 307.8 27.9 307.8 28.7 C 307.5 28.7 307.2 28.7 306.8 28.7 C 306.5 28.7 306.2 28.7 305.9 28.7 C 305.9 27.9 305.9 27.1 306 26.2 C 306 25.4 306 24.5 306 23.6 C 306.02 23.61 306 20.2 306 20.2 C 306 20.2 306.02 20.17 306 20.2 Z M 315.4 20.2 C 315.4 19.3 315.3 18.4 315.3 17.6 C 315.3 16.7 315.2 15.9 315.2 15 C 315.4 15 315.5 15 315.7 15.1 C 315.9 15.1 316 15.1 316.2 15.1 C 316.3 15.1 316.5 15.1 316.7 15.1 C 316.8 15 317 15 317.2 15 C 317.1 15.9 317.1 16.7 317 17.6 C 317 18.4 317 19.3 317 20.2 C 317 20.2 317 23.6 317 23.6 C 317 24.5 317 25.4 317 26.2 C 317.1 27.1 317.1 27.9 317.2 28.7 C 316.9 28.7 316.5 28.7 316.2 28.7 C 315.8 28.7 315.5 28.7 315.2 28.7 C 315.2 27.9 315.3 27.1 315.3 26.2 C 315.3 25.4 315.4 24.5 315.4 23.6 C 315.36 23.61 315.4 20.2 315.4 20.2 C 315.4 20.2 315.36 20.17 315.4 20.2 Z M 321.9 20.2 C 321.9 19.3 321.9 18.4 321.9 17.6 C 321.8 16.7 321.8 15.9 321.8 15 C 322.4 15 323 15 323.5 15.1 C 324.1 15.1 324.7 15.1 325.3 15.1 C 325.9 15.1 326.5 15.1 327.2 15.1 C 327.8 15 328.4 15 329.2 15 C 329.1 15.2 329.1 15.4 329.1 15.6 C 329.1 15.8 329.1 16 329.2 16.2 C 328.8 16.1 328.4 16.1 327.9 16.1 C 327.4 16 326.8 16 326.3 16 C 325.8 16 325.3 16 324.8 15.9 C 324.3 15.9 323.9 15.9 323.6 15.9 C 323.6 16.4 323.6 16.8 323.5 17.3 C 323.5 17.7 323.5 18.1 323.5 18.5 C 323.5 19 323.5 19.4 323.5 19.8 C 323.6 20.2 323.6 20.6 323.6 21.1 C 324.4 21.1 325.3 21.1 326.2 21 C 327 21 327.9 20.9 328.7 20.9 C 328.7 21.1 328.6 21.3 328.6 21.5 C 328.6 21.7 328.7 21.9 328.7 22.1 C 328.4 22 328 22 327.6 22 C 327.2 22 326.7 21.9 326.3 21.9 C 325.8 21.9 325.4 21.9 324.9 21.9 C 324.4 21.9 324 21.9 323.6 21.9 C 323.6 21.9 323.6 23.6 323.6 23.6 C 323.6 24.5 323.6 25.4 323.6 26.2 C 323.6 27.1 323.7 27.9 323.7 28.7 C 323.4 28.7 323.1 28.7 322.7 28.7 C 322.4 28.7 322.1 28.7 321.8 28.7 C 321.8 27.9 321.8 27.1 321.9 26.2 C 321.9 25.4 321.9 24.5 321.9 23.6 C 321.92 23.61 321.9 20.2 321.9 20.2 C 321.9 20.2 321.92 20.17 321.9 20.2 Z M 343.3 21.5 C 343.3 19.6 343.3 18.1 343.3 17.1 C 343.3 16.1 343.3 15.4 343.2 15 C 343.4 15 343.5 15 343.6 15.1 C 343.8 15.1 343.9 15.1 344 15.1 C 344.2 15.1 344.4 15.1 344.6 15 C 344.6 15.5 344.6 16 344.5 16.7 C 344.5 17.3 344.4 18 344.4 18.7 C 344.4 19.5 344.4 20.2 344.3 21 C 344.3 21.8 344.3 22.6 344.3 23.3 C 344.3 24.2 344.1 25 343.9 25.7 C 343.6 26.4 343.2 27 342.8 27.5 C 342.3 28 341.7 28.4 341 28.6 C 340.3 28.9 339.5 29 338.6 29 C 336.6 29 335.1 28.5 334.2 27.6 C 333.3 26.7 332.9 25.3 332.9 23.3 C 332.9 22.7 332.9 22.1 332.9 21.7 C 332.9 21.2 333 20.7 333 20.2 C 333 19 332.9 18.1 332.9 17.2 C 332.9 16.3 332.9 15.6 332.8 15 C 333 15 333.2 15 333.4 15.1 C 333.5 15.1 333.7 15.1 333.9 15.1 C 334 15.1 334.2 15.1 334.3 15.1 C 334.4 15 334.6 15 334.7 15 C 334.7 15.3 334.7 15.7 334.7 16.1 C 334.6 16.6 334.6 17.1 334.6 17.7 C 334.6 18.3 334.5 19 334.5 19.7 C 334.5 20.4 334.5 21.1 334.5 21.8 C 334.5 22.3 334.5 22.8 334.5 23.3 C 334.5 23.7 334.6 24.2 334.7 24.7 C 334.7 25.1 334.9 25.6 335 26 C 335.2 26.4 335.5 26.8 335.8 27.1 C 336.2 27.4 336.6 27.7 337.1 27.8 C 337.6 28 338.2 28.1 339 28.1 C 339.7 28.1 340.3 28 340.8 27.8 C 341.3 27.6 341.7 27.3 342 26.9 C 342.4 26.6 342.6 26.2 342.8 25.7 C 343 25.3 343.1 24.8 343.2 24.3 C 343.3 23.8 343.3 23.3 343.3 22.8 C 343.3 22.4 343.3 21.9 343.3 21.5 Z M 349.5 20.2 C 349.5 19.3 349.5 18.4 349.4 17.6 C 349.4 16.7 349.4 15.9 349.3 15 C 349.5 15 349.7 15 349.8 15.1 C 350 15.1 350.1 15.1 350.3 15.1 C 350.5 15.1 350.6 15.1 350.8 15.1 C 350.9 15 351.1 15 351.3 15 C 351.2 15.9 351.2 16.7 351.2 17.6 C 351.1 18.4 351.1 19.3 351.1 20.2 C 351.1 21.8 351.1 23.3 351.1 24.5 C 351.2 25.8 351.2 26.9 351.2 27.8 C 352.1 27.8 353 27.8 353.9 27.8 C 354.8 27.8 355.7 27.7 356.7 27.6 C 356.6 27.8 356.6 28 356.6 28.2 C 356.6 28.3 356.6 28.5 356.7 28.7 C 356.1 28.7 355.5 28.7 354.9 28.7 C 354.2 28.7 353.6 28.7 353 28.7 C 352.4 28.7 351.8 28.7 351.2 28.7 C 350.6 28.7 350 28.7 349.3 28.7 C 349.4 27.9 349.4 27.1 349.4 26.2 C 349.5 25.4 349.5 24.5 349.5 23.6 C 349.48 23.61 349.5 20.2 349.5 20.2 C 349.5 20.2 349.48 20.17 349.5 20.2 Z " stroke="none" fill="#fff"/>  </g></svg>