<?xml version="1.0" standalone="no"?><!DOCTYPE svg PUBLIC "-//W3C//DTD SVG 1.1//EN" "http://www.w3.org/Graphics/SVG/1.1/DTD/svg11.dtd"><svg xmlns="http://www.w3.org/2000/svg" version="1.1" width="150px" height="23.8px" viewBox="0 -4 150 23.8" style="top:-4px">  <desc>Cabellero A3000301</desc>  <defs/>  <g id="Polygon40297">    <path d="M 62.3 15 L 61.9 14 L 59.9 14 L 59.5 15 L 58.7 15 L 60.6 10.1 L 61.2 10.1 L 63.1 15 L 62.3 15 Z M 60.1 13.4 L 61.7 13.4 L 60.9 11.1 L 60.9 11.1 L 60.1 13.4 Z M 64.6 12.3 C 64.9 12.3 65.1 12.3 65.3 12.2 C 65.7 12.1 65.9 11.9 65.9 11.5 C 65.9 11.1 65.6 10.9 65.2 10.9 C 64.8 10.9 64.5 11 64.4 11.4 C 64.4 11.4 63.8 11.1 63.8 11.1 C 64 10.6 64.5 10.3 65.2 10.3 C 66 10.3 66.6 10.8 66.6 11.5 C 66.6 11.9 66.4 12.3 66 12.5 C 66.5 12.7 66.8 13.1 66.8 13.6 C 66.8 14.6 66.1 15.1 65.3 15.1 C 64.7 15.1 64.1 14.8 63.8 14.3 C 63.8 14.3 64.3 14 64.3 14 C 64.5 14.4 64.9 14.5 65.2 14.5 C 65.7 14.5 66.2 14.2 66.2 13.7 C 66.2 13.2 65.7 12.9 65.2 12.9 C 65 12.9 64.9 12.9 64.6 13 C 64.6 13 64.6 12.3 64.6 12.3 Z M 71.2 12.7 C 71.2 14.2 70.6 15.1 69.6 15.1 C 68.5 15.1 67.9 14.2 67.9 12.7 C 67.9 11.2 68.5 10.3 69.6 10.3 C 70.6 10.3 71.2 11.2 71.2 12.7 Z M 68.6 12.7 C 68.6 13.9 68.9 14.5 69.6 14.5 C 70.2 14.5 70.5 13.9 70.5 12.7 C 70.5 11.5 70.2 10.9 69.6 10.9 C 68.9 10.9 68.6 11.5 68.6 12.7 Z M 75.5 12.7 C 75.5 14.2 74.9 15.1 73.9 15.1 C 72.8 15.1 72.2 14.2 72.2 12.7 C 72.2 11.2 72.8 10.3 73.9 10.3 C 74.9 10.3 75.5 11.2 75.5 12.7 Z M 72.9 12.7 C 72.9 13.9 73.2 14.5 73.9 14.5 C 74.5 14.5 74.8 13.9 74.8 12.7 C 74.8 11.5 74.5 10.9 73.9 10.9 C 73.2 10.9 72.9 11.5 72.9 12.7 Z M 79.8 12.7 C 79.8 14.2 79.2 15.1 78.2 15.1 C 77.1 15.1 76.5 14.2 76.5 12.7 C 76.5 11.2 77.1 10.3 78.2 10.3 C 79.2 10.3 79.8 11.2 79.8 12.7 Z M 77.2 12.7 C 77.2 13.9 77.6 14.5 78.2 14.5 C 78.8 14.5 79.1 13.9 79.1 12.7 C 79.1 11.5 78.8 10.9 78.2 10.9 C 77.6 10.9 77.2 11.5 77.2 12.7 Z M 81.5 12.3 C 81.8 12.3 82 12.3 82.2 12.2 C 82.5 12.1 82.8 11.9 82.8 11.5 C 82.8 11.1 82.5 10.9 82 10.9 C 81.7 10.9 81.4 11 81.3 11.4 C 81.3 11.4 80.7 11.1 80.7 11.1 C 80.9 10.6 81.4 10.3 82 10.3 C 82.9 10.3 83.5 10.8 83.5 11.5 C 83.5 11.9 83.2 12.3 82.9 12.5 C 83.4 12.7 83.7 13.1 83.7 13.6 C 83.7 14.6 83 15.1 82.2 15.1 C 81.6 15.1 81 14.8 80.7 14.3 C 80.7 14.3 81.2 14 81.2 14 C 81.4 14.4 81.8 14.5 82.1 14.5 C 82.6 14.5 83 14.2 83 13.7 C 83 13.2 82.6 12.9 82.1 12.9 C 81.9 12.9 81.7 12.9 81.5 13 C 81.5 13 81.5 12.3 81.5 12.3 Z M 88.1 12.7 C 88.1 14.2 87.5 15.1 86.4 15.1 C 85.4 15.1 84.8 14.2 84.8 12.7 C 84.8 11.2 85.4 10.3 86.4 10.3 C 87.5 10.3 88.1 11.2 88.1 12.7 Z M 85.5 12.7 C 85.5 13.9 85.8 14.5 86.4 14.5 C 87 14.5 87.4 13.9 87.4 12.7 C 87.4 11.5 87 10.9 86.4 10.9 C 85.8 10.9 85.5 11.5 85.5 12.7 Z M 89.8 15 C 89.8 15 89.79 11.15 89.8 11.1 C 89.6 11.3 89.3 11.4 89.1 11.5 C 89.1 11.5 89.1 10.8 89.1 10.8 C 89.4 10.7 89.7 10.5 90 10.4 C 90.02 10.35 90.5 10.4 90.5 10.4 L 90.5 15 L 89.8 15 Z " stroke="none" fill="#535a5d"/>  </g>  <g id="Polygon40296">    <path d="M 54.4 5.2 C 54.8 5.2 55.2 5.1 55.6 4.8 C 55.6 4.8 56.1 5.5 56.1 5.5 C 55.6 5.9 55 6.1 54.3 6.1 C 52.6 6.1 51.4 4.9 51.4 3.2 C 51.4 1.6 52.7 0.3 54.4 0.3 C 55 0.3 55.5 0.5 56 0.8 C 56 0.8 55.5 1.6 55.5 1.6 C 55.2 1.3 54.8 1.2 54.4 1.2 C 53.2 1.2 52.4 2 52.4 3.2 C 52.4 4.4 53.2 5.2 54.4 5.2 Z M 59.2 0.4 L 60 0.4 L 62.1 6 L 61 6 L 60.6 4.9 L 58.4 4.9 L 58 6 L 57 6 L 59.2 0.4 Z M 58.7 4.1 L 60.3 4.1 L 59.5 1.9 L 59.5 1.9 L 58.7 4.1 Z M 63.4 0.4 C 63.4 0.4 64.77 0.4 64.8 0.4 C 65.3 0.4 65.9 0.5 66.3 0.8 C 66.7 1 66.9 1.5 66.9 2 C 66.9 2.4 66.7 2.8 66.1 3.1 C 66.8 3.3 67.1 3.7 67.1 4.4 C 67.1 5 66.8 5.5 66.2 5.8 C 65.7 6 65.2 6 64.7 6 C 64.7 6 63.4 6 63.4 6 L 63.4 0.4 Z M 64.3 5.2 C 64.3 5.2 64.68 5.15 64.7 5.2 C 65.1 5.2 65.4 5.1 65.7 5 C 65.9 4.9 66.1 4.7 66.1 4.4 C 66.1 3.9 65.7 3.5 65.1 3.5 C 65.1 3.54 64.3 3.5 64.3 3.5 L 64.3 5.2 Z M 64.3 2.7 C 64.3 2.7 64.75 2.74 64.8 2.7 C 65.5 2.7 65.9 2.5 65.9 2 C 65.9 1.7 65.8 1.5 65.6 1.4 C 65.4 1.3 65 1.2 64.6 1.2 C 64.63 1.25 64.3 1.2 64.3 1.2 L 64.3 2.7 Z M 68.7 6 L 68.7 0.4 L 72.2 0.4 L 72.2 1.2 L 69.7 1.2 L 69.7 2.7 L 72.2 2.7 L 72.2 3.5 L 69.7 3.5 L 69.7 5.2 L 72.2 5.2 L 72.2 6 L 68.7 6 Z M 73.7 6 L 73.7 0.4 L 74.7 0.4 L 74.7 5.2 L 77.1 5.2 L 77.1 6 L 73.7 6 Z M 78.2 6 L 78.2 0.4 L 79.2 0.4 L 79.2 5.2 L 81.5 5.2 L 81.5 6 L 78.2 6 Z M 82.6 6 L 82.6 0.4 L 86.1 0.4 L 86.1 1.2 L 83.6 1.2 L 83.6 2.7 L 86.1 2.7 L 86.1 3.5 L 83.6 3.5 L 83.6 5.2 L 86.1 5.2 L 86.1 6 L 82.6 6 Z M 89.4 0.4 C 90.3 0.4 91.4 0.9 91.4 2 C 91.4 3 90.8 3.4 90.1 3.6 C 90.11 3.62 91.8 6 91.8 6 L 90.6 6 L 89 3.7 L 88.7 3.7 L 88.7 6 L 87.7 6 L 87.7 0.4 C 87.7 0.4 89.4 0.4 89.4 0.4 Z M 89.2 2.9 C 89.9 2.9 90.3 2.6 90.3 2.1 C 90.3 1.6 90 1.2 89.4 1.2 C 89.38 1.25 88.7 1.2 88.7 1.2 L 88.7 2.9 C 88.7 2.9 89.22 2.86 89.2 2.9 Z M 95.5 1.2 C 94.4 1.2 93.6 2.1 93.6 3.2 C 93.6 4.3 94.4 5.2 95.5 5.2 C 96.6 5.2 97.4 4.3 97.4 3.2 C 97.4 2.1 96.6 1.2 95.5 1.2 Z M 95.5 6.1 C 93.8 6.1 92.6 4.8 92.6 3.2 C 92.6 1.6 93.8 0.3 95.5 0.3 C 97.1 0.3 98.4 1.6 98.4 3.2 C 98.4 4.8 97.1 6.1 95.5 6.1 Z " stroke="none" fill="#535a5d"/>  </g></svg>