<?xml version="1.0" standalone="no"?><!DOCTYPE svg PUBLIC "-//W3C//DTD SVG 1.1//EN" "http://www.w3.org/Graphics/SVG/1.1/DTD/svg11.dtd"><svg xmlns="http://www.w3.org/2000/svg" version="1.1" width="112px" height="50px" viewBox="0 -4 112 50" style="top:-4px">  <desc>Carefully crafted pieces that fit perfectly in rooms of all shapes and sizes</desc>  <defs/>  <g id="Polygon40142">    <path d="M 2.6 24.8 C 2.4 24.6 2.1 24.5 1.8 24.5 C 1.5 24.5 1.2 24.7 1.2 25 C 1.2 25.3 1.6 25.5 2 25.6 C 2.5 25.8 3.2 26.1 3.2 26.8 C 3.2 27.7 2.5 28.1 1.7 28.1 C 1.2 28.1 0.7 27.9 0.3 27.5 C 0.3 27.5 0.9 27.1 0.9 27.1 C 1.1 27.3 1.4 27.5 1.7 27.5 C 2.1 27.5 2.4 27.3 2.4 26.9 C 2.4 26.6 2.1 26.4 1.7 26.3 C 1.2 26 0.5 25.8 0.5 25.1 C 0.5 24.3 1.2 23.9 1.8 23.9 C 2.3 23.9 2.7 24.1 3.1 24.3 C 3.1 24.3 2.6 24.8 2.6 24.8 Z M 5 24.7 C 5.3 24.2 5.8 23.9 6.3 23.9 C 6.9 23.9 7.2 24.1 7.5 24.4 C 7.7 24.8 7.8 25.3 7.8 25.9 C 7.83 25.92 7.8 28 7.8 28 L 7.1 28 C 7.1 28 7.1 26 7.1 26 C 7.1 25.6 7.1 25.2 6.9 24.9 C 6.8 24.7 6.6 24.6 6.2 24.6 C 5.7 24.6 5.3 24.9 5 25.3 C 5.01 25.34 5 28 5 28 L 4.3 28 L 4.3 22 L 5 22 C 5 22 5.01 24.66 5 24.7 Z M 11.5 28 C 11.5 28 11.5 27.58 11.5 27.6 C 11.2 27.9 10.8 28.1 10.3 28.1 C 9.6 28.1 8.9 27.7 8.9 26.9 C 8.9 25.9 9.8 25.6 10.7 25.6 C 10.9 25.6 11.1 25.6 11.5 25.6 C 11.5 25.6 11.5 25.5 11.5 25.5 C 11.5 24.9 11.2 24.5 10.5 24.5 C 10.1 24.5 9.6 24.7 9.3 24.9 C 9.3 24.9 9 24.3 9 24.3 C 9.5 24.1 10.1 23.9 10.6 23.9 C 11.8 23.9 12.2 24.5 12.2 25.6 C 12.2 25.57 12.2 28 12.2 28 L 11.5 28 Z M 11.5 26.2 C 11.2 26.1 11 26.1 10.8 26.1 C 10.3 26.1 9.6 26.2 9.6 26.8 C 9.6 27.3 10 27.5 10.4 27.5 C 10.8 27.5 11.2 27.3 11.5 27 C 11.5 27 11.5 26.2 11.5 26.2 Z M 14.2 24 C 14.2 24 14.22 24.54 14.2 24.5 C 14.5 24.1 15 23.9 15.5 23.9 C 16.6 23.9 17.5 24.8 17.5 26 C 17.5 27.1 16.7 28.1 15.5 28.1 C 15 28.1 14.5 27.9 14.2 27.6 C 14.22 27.57 14.2 30 14.2 30 L 13.5 30 L 13.5 24 L 14.2 24 Z M 14.2 26.8 C 14.5 27.2 15 27.4 15.4 27.4 C 16.3 27.4 16.8 26.7 16.8 26 C 16.8 25.2 16.2 24.6 15.4 24.6 C 15 24.6 14.4 24.8 14.2 25.3 C 14.2 25.3 14.2 26.8 14.2 26.8 Z M 18.9 26.2 C 18.9 26.9 19.4 27.5 20.2 27.5 C 20.7 27.5 21.1 27.3 21.4 26.8 C 21.4 26.8 21.9 27.2 21.9 27.2 C 21.5 27.8 21 28.1 20.2 28.1 C 18.9 28.1 18.2 27.2 18.2 26 C 18.2 24.8 19 23.9 20.2 23.9 C 21.2 23.9 22 24.7 22 25.8 C 22 25.9 22 26.1 21.9 26.2 C 21.9 26.2 18.9 26.2 18.9 26.2 Z M 19 25.6 C 19 25.6 21.2 25.6 21.2 25.6 C 21.2 25 20.8 24.5 20.2 24.5 C 19.5 24.5 19.1 25 19 25.6 Z M 24.9 24.8 C 24.8 24.6 24.4 24.5 24.1 24.5 C 23.8 24.5 23.5 24.7 23.5 25 C 23.5 25.3 23.9 25.5 24.3 25.6 C 24.8 25.8 25.5 26.1 25.5 26.8 C 25.5 27.7 24.8 28.1 24 28.1 C 23.5 28.1 23 27.9 22.7 27.5 C 22.7 27.5 23.2 27.1 23.2 27.1 C 23.4 27.3 23.7 27.5 24 27.5 C 24.4 27.5 24.8 27.3 24.8 26.9 C 24.8 26.6 24.4 26.4 24 26.3 C 23.5 26 22.8 25.8 22.8 25.1 C 22.8 24.3 23.5 23.9 24.1 23.9 C 24.6 23.9 25 24.1 25.4 24.3 C 25.4 24.3 24.9 24.8 24.9 24.8 Z M 31 28 C 31 28 30.97 27.58 31 27.6 C 30.6 27.9 30.3 28.1 29.8 28.1 C 29 28.1 28.4 27.7 28.4 26.9 C 28.4 25.9 29.3 25.6 30.1 25.6 C 30.3 25.6 30.6 25.6 30.9 25.6 C 30.9 25.6 30.9 25.5 30.9 25.5 C 30.9 24.9 30.6 24.5 30 24.5 C 29.5 24.5 29 24.7 28.7 24.9 C 28.7 24.9 28.5 24.3 28.5 24.3 C 28.9 24.1 29.5 23.9 30.1 23.9 C 31.2 23.9 31.7 24.5 31.7 25.6 C 31.66 25.57 31.7 28 31.7 28 L 31 28 Z M 30.9 26.2 C 30.6 26.1 30.4 26.1 30.2 26.1 C 29.7 26.1 29.1 26.2 29.1 26.8 C 29.1 27.3 29.4 27.5 29.9 27.5 C 30.3 27.5 30.6 27.3 30.9 27 C 30.9 27 30.9 26.2 30.9 26.2 Z M 33.7 24 C 33.7 24 33.69 24.66 33.7 24.7 C 34 24.2 34.5 23.9 35 23.9 C 35.6 23.9 35.9 24.1 36.2 24.4 C 36.4 24.8 36.5 25.3 36.5 25.9 C 36.51 25.92 36.5 28 36.5 28 L 35.8 28 C 35.8 28 35.78 26 35.8 26 C 35.8 25.6 35.8 25.2 35.6 24.9 C 35.4 24.7 35.2 24.6 34.9 24.6 C 34.4 24.6 34 24.9 33.7 25.3 C 33.69 25.34 33.7 28 33.7 28 L 33 28 L 33 24 L 33.7 24 Z M 37.5 26 C 37.5 24.9 38.3 23.9 39.5 23.9 C 40 23.9 40.4 24.1 40.7 24.4 C 40.74 24.44 40.7 22 40.7 22 L 41.5 22 L 41.5 28 L 40.7 28 C 40.7 28 40.74 27.46 40.7 27.5 C 40.5 27.9 40 28.1 39.5 28.1 C 38.3 28.1 37.5 27.2 37.5 26 Z M 40.7 26.7 C 40.7 26.7 40.7 25.2 40.7 25.2 C 40.5 24.8 40 24.6 39.6 24.6 C 38.7 24.6 38.2 25.3 38.2 26 C 38.2 26.8 38.7 27.4 39.6 27.4 C 40 27.4 40.5 27.2 40.7 26.7 Z M 46.8 24.8 C 46.6 24.6 46.2 24.5 46 24.5 C 45.6 24.5 45.4 24.7 45.4 25 C 45.4 25.3 45.8 25.5 46.1 25.6 C 46.7 25.8 47.3 26.1 47.3 26.8 C 47.3 27.7 46.6 28.1 45.9 28.1 C 45.3 28.1 44.8 27.9 44.5 27.5 C 44.5 27.5 45 27.1 45 27.1 C 45.3 27.3 45.6 27.5 45.9 27.5 C 46.3 27.5 46.6 27.3 46.6 26.9 C 46.6 26.6 46.2 26.4 45.8 26.3 C 45.3 26 44.7 25.8 44.7 25.1 C 44.7 24.3 45.3 23.9 46 23.9 C 46.4 23.9 46.9 24.1 47.2 24.3 C 47.2 24.3 46.8 24.8 46.8 24.8 Z M 48.4 28 L 48.4 24 L 49.2 24 L 49.2 28 L 48.4 28 Z M 48.4 23.2 L 48.4 22.4 L 49.2 22.4 L 49.2 23.2 L 48.4 23.2 Z M 52.1 24.6 L 50.2 24.6 L 50.2 24 L 53 24 L 53 24.3 L 51.3 27.4 L 53.2 27.4 L 53.2 28 L 50.3 28 L 50.3 27.7 L 52.1 24.6 Z M 54.4 26.2 C 54.4 26.9 54.9 27.5 55.7 27.5 C 56.2 27.5 56.6 27.3 56.9 26.8 C 56.9 26.8 57.4 27.2 57.4 27.2 C 57 27.8 56.5 28.1 55.7 28.1 C 54.4 28.1 53.7 27.2 53.7 26 C 53.7 24.8 54.5 23.9 55.7 23.9 C 56.7 23.9 57.5 24.7 57.5 25.8 C 57.5 25.9 57.5 26.1 57.4 26.2 C 57.4 26.2 54.4 26.2 54.4 26.2 Z M 54.5 25.6 C 54.5 25.6 56.7 25.6 56.7 25.6 C 56.7 25 56.3 24.5 55.7 24.5 C 55 24.5 54.6 25 54.5 25.6 Z M 60.4 24.8 C 60.3 24.6 59.9 24.5 59.6 24.5 C 59.3 24.5 59 24.7 59 25 C 59 25.3 59.4 25.5 59.8 25.6 C 60.3 25.8 61 26.1 61 26.8 C 61 27.7 60.3 28.1 59.5 28.1 C 59 28.1 58.5 27.9 58.2 27.5 C 58.2 27.5 58.7 27.1 58.7 27.1 C 58.9 27.3 59.2 27.5 59.5 27.5 C 59.9 27.5 60.3 27.3 60.3 26.9 C 60.3 26.6 59.9 26.4 59.5 26.3 C 59 26 58.4 25.8 58.4 25.1 C 58.4 24.3 59 23.9 59.6 23.9 C 60.1 23.9 60.6 24.1 60.9 24.3 C 60.9 24.3 60.4 24.8 60.4 24.8 Z M 62 28 L 62 27.1 L 62.8 27.1 L 62.8 28 L 62 28 Z " stroke="none" fill="#fff"/>  </g>  <g id="Polygon40141">    <path d="M 1.6 13.6 L 1.6 17 L 0.8 17 L 0.8 13.6 L 0.4 13.6 L 0.4 13 L 0.8 13 C 0.8 13 0.82 12.42 0.8 12.4 C 0.8 12 0.9 11.6 1.1 11.4 C 1.3 11.1 1.6 10.9 2.1 10.9 C 2.3 10.9 2.5 10.9 2.7 11 C 2.7 11 2.6 11.6 2.6 11.6 C 2.5 11.6 2.4 11.6 2.2 11.6 C 2 11.6 1.9 11.6 1.8 11.7 C 1.6 11.9 1.6 12.1 1.6 12.5 C 1.55 12.49 1.6 13 1.6 13 L 2.6 13 L 2.6 13.6 L 1.6 13.6 Z M 3.4 17 L 3.4 13 L 4.1 13 L 4.1 17 L 3.4 17 Z M 3.4 12.2 L 3.4 11.4 L 4.1 11.4 L 4.1 12.2 L 3.4 12.2 Z M 6.2 13.6 C 6.2 13.6 6.21 15.45 6.2 15.4 C 6.2 15.6 6.2 15.6 6.2 15.8 C 6.2 16.2 6.4 16.4 6.8 16.4 C 6.9 16.4 7.1 16.4 7.2 16.3 C 7.2 16.3 7.4 16.9 7.4 16.9 C 7.2 17 6.9 17.1 6.7 17.1 C 6.1 17.1 5.8 16.8 5.6 16.5 C 5.5 16.2 5.5 15.9 5.5 15.6 C 5.48 15.62 5.5 13.6 5.5 13.6 L 4.9 13.6 L 4.9 13 L 5.5 13 L 5.5 12 L 6.2 12 L 6.2 13 L 7.3 13 L 7.3 13.6 L 6.2 13.6 Z M 10.9 13 C 10.9 13 10.94 13.54 10.9 13.5 C 11.2 13.1 11.7 12.9 12.2 12.9 C 13.4 12.9 14.2 13.8 14.2 15 C 14.2 16.1 13.4 17.1 12.2 17.1 C 11.7 17.1 11.3 16.9 10.9 16.6 C 10.94 16.57 10.9 19 10.9 19 L 10.2 19 L 10.2 13 L 10.9 13 Z M 10.9 15.8 C 11.2 16.2 11.7 16.4 12.1 16.4 C 13 16.4 13.5 15.7 13.5 15 C 13.5 14.2 12.9 13.6 12.1 13.6 C 11.7 13.6 11.1 13.8 10.9 14.3 C 10.9 14.3 10.9 15.8 10.9 15.8 Z M 15.6 15.2 C 15.7 15.9 16.1 16.5 16.9 16.5 C 17.4 16.5 17.8 16.3 18.1 15.8 C 18.1 15.8 18.6 16.2 18.6 16.2 C 18.2 16.8 17.7 17.1 16.9 17.1 C 15.6 17.1 14.9 16.2 14.9 15 C 14.9 13.8 15.8 12.9 16.9 12.9 C 17.9 12.9 18.7 13.7 18.7 14.8 C 18.7 14.9 18.7 15.1 18.7 15.2 C 18.7 15.2 15.6 15.2 15.6 15.2 Z M 15.7 14.6 C 15.7 14.6 17.9 14.6 17.9 14.6 C 17.9 14 17.5 13.5 16.9 13.5 C 16.2 13.5 15.8 14 15.7 14.6 Z M 20.4 13.7 C 20.7 13.2 21 12.9 21.5 12.9 C 21.6 12.9 21.7 12.9 21.9 13 C 21.9 13 21.8 13.7 21.8 13.7 C 21.6 13.7 21.5 13.6 21.4 13.6 C 21 13.6 20.7 13.9 20.4 14.3 C 20.42 14.32 20.4 17 20.4 17 L 19.7 17 L 19.7 13 L 20.4 13 C 20.4 13 20.42 13.66 20.4 13.7 Z M 24.6 11.7 C 24.4 11.6 24.3 11.6 24.1 11.6 C 23.9 11.6 23.7 11.6 23.6 11.7 C 23.5 11.9 23.4 12.1 23.4 12.5 C 23.43 12.5 23.4 13 23.4 13 L 24.5 13 L 24.5 13.6 L 23.4 13.6 L 23.4 17 L 22.7 17 L 22.7 13.6 L 22.2 13.6 L 22.2 13 L 22.7 13 C 22.7 13 22.7 12.42 22.7 12.4 C 22.7 12 22.8 11.6 23 11.4 C 23.2 11.1 23.5 10.9 24 10.9 C 24.3 10.9 24.6 11 24.8 11.1 C 24.8 11.1 24.6 11.7 24.6 11.7 Z M 25.6 15.2 C 25.7 15.9 26.2 16.5 26.9 16.5 C 27.5 16.5 27.9 16.3 28.1 15.8 C 28.1 15.8 28.6 16.2 28.6 16.2 C 28.2 16.8 27.7 17.1 26.9 17.1 C 25.6 17.1 24.9 16.2 24.9 15 C 24.9 13.8 25.8 12.9 26.9 12.9 C 28 12.9 28.7 13.7 28.7 14.8 C 28.7 14.9 28.7 15.1 28.7 15.2 C 28.7 15.2 25.6 15.2 25.6 15.2 Z M 25.7 14.6 C 25.7 14.6 28 14.6 28 14.6 C 27.9 14 27.5 13.5 26.9 13.5 C 26.3 13.5 25.8 14 25.7 14.6 Z M 32.7 16.7 C 32.4 16.9 31.9 17.1 31.4 17.1 C 30.3 17.1 29.4 16.3 29.4 15 C 29.4 13.8 30.3 12.9 31.5 12.9 C 31.9 12.9 32.3 13 32.6 13.2 C 32.6 13.2 32.3 13.8 32.3 13.8 C 32 13.7 31.7 13.6 31.4 13.6 C 30.7 13.6 30.1 14.2 30.1 15 C 30.1 15.9 30.8 16.4 31.5 16.4 C 31.7 16.4 32.1 16.3 32.3 16.1 C 32.3 16.1 32.7 16.7 32.7 16.7 Z M 34.4 13.6 C 34.4 13.6 34.42 15.45 34.4 15.4 C 34.4 15.6 34.4 15.6 34.4 15.8 C 34.4 16.2 34.6 16.4 35 16.4 C 35.1 16.4 35.3 16.4 35.4 16.3 C 35.4 16.3 35.6 16.9 35.6 16.9 C 35.4 17 35.2 17.1 34.9 17.1 C 34.3 17.1 34 16.8 33.8 16.5 C 33.7 16.2 33.7 15.9 33.7 15.6 C 33.69 15.62 33.7 13.6 33.7 13.6 L 33.2 13.6 L 33.2 13 L 33.7 13 L 33.7 12 L 34.4 12 L 34.4 13 L 35.5 13 L 35.5 13.6 L 34.4 13.6 Z M 37.1 17 L 36.4 17 L 36.4 11 L 37.1 11 L 37.1 17 Z M 38.7 13 L 39.7 16 L 39.7 16 L 40.8 13 L 41.6 13 L 39.3 18.8 L 38.7 18.6 L 39.3 16.9 L 37.9 13 L 38.7 13 Z M 44.3 17 L 44.3 13 L 45 13 L 45 17 L 44.3 17 Z M 44.3 12.2 L 44.3 11.4 L 45 11.4 L 45 12.2 L 44.3 12.2 Z M 47.1 13 C 47.1 13 47.1 13.66 47.1 13.7 C 47.4 13.2 47.9 12.9 48.4 12.9 C 49 12.9 49.3 13.1 49.6 13.4 C 49.8 13.8 49.9 14.3 49.9 14.9 C 49.93 14.92 49.9 17 49.9 17 L 49.2 17 C 49.2 17 49.2 15 49.2 15 C 49.2 14.6 49.2 14.2 49 13.9 C 48.9 13.7 48.6 13.6 48.3 13.6 C 47.8 13.6 47.4 13.9 47.1 14.3 C 47.1 14.34 47.1 17 47.1 17 L 46.4 17 L 46.4 13 L 47.1 13 Z M 54 13.7 C 54.2 13.2 54.6 12.9 55 12.9 C 55.2 12.9 55.3 12.9 55.4 13 C 55.4 13 55.3 13.7 55.3 13.7 C 55.2 13.7 55.1 13.6 54.9 13.6 C 54.5 13.6 54.2 13.9 54 14.3 C 53.95 14.32 54 17 54 17 L 53.2 17 L 53.2 13 L 54 13 C 54 13 53.95 13.66 54 13.7 Z M 59.8 15 C 59.8 16.2 59 17.1 57.8 17.1 C 56.6 17.1 55.7 16.2 55.7 15 C 55.7 13.8 56.6 12.9 57.8 12.9 C 59 12.9 59.8 13.8 59.8 15 Z M 57.8 13.6 C 57 13.6 56.5 14.2 56.5 15 C 56.5 15.8 57 16.4 57.8 16.4 C 58.5 16.4 59.1 15.8 59.1 15 C 59.1 14.2 58.5 13.6 57.8 13.6 Z M 64.6 15 C 64.6 16.2 63.7 17.1 62.5 17.1 C 61.4 17.1 60.5 16.2 60.5 15 C 60.5 13.8 61.4 12.9 62.5 12.9 C 63.7 12.9 64.6 13.8 64.6 15 Z M 62.5 13.6 C 61.8 13.6 61.2 14.2 61.2 15 C 61.2 15.8 61.8 16.4 62.5 16.4 C 63.3 16.4 63.8 15.8 63.8 15 C 63.8 14.2 63.3 13.6 62.5 13.6 Z M 70.9 17 C 70.9 17 70.91 15 70.9 15 C 70.9 14.6 70.9 14.2 70.7 13.9 C 70.6 13.7 70.4 13.6 70 13.6 C 69.6 13.6 69.2 13.8 68.9 14.2 C 69 14.4 69 14.7 69 14.9 C 68.97 14.92 69 17 69 17 L 68.2 17 C 68.2 17 68.25 15 68.2 15 C 68.2 14.6 68.2 14.2 68 13.9 C 67.9 13.7 67.7 13.6 67.4 13.6 C 67 13.6 66.6 13.9 66.3 14.3 C 66.31 14.31 66.3 17 66.3 17 L 65.6 17 L 65.6 13 L 66.3 13 C 66.3 13 66.31 13.61 66.3 13.6 C 66.6 13.2 67.1 12.9 67.6 12.9 C 68 12.9 68.4 13.1 68.7 13.5 C 68.7 13.5 68.8 13.6 68.8 13.6 C 69.1 13.2 69.6 12.9 70.2 12.9 C 70.7 12.9 71 13.1 71.3 13.4 C 71.6 13.7 71.6 14.3 71.6 14.9 C 71.64 14.92 71.6 17 71.6 17 L 70.9 17 Z M 74.9 13.8 C 74.7 13.6 74.4 13.5 74.1 13.5 C 73.7 13.5 73.5 13.7 73.5 14 C 73.5 14.3 73.9 14.5 74.3 14.6 C 74.8 14.8 75.4 15.1 75.4 15.8 C 75.4 16.7 74.7 17.1 74 17.1 C 73.4 17.1 72.9 16.9 72.6 16.5 C 72.6 16.5 73.1 16.1 73.1 16.1 C 73.4 16.3 73.7 16.5 74 16.5 C 74.4 16.5 74.7 16.3 74.7 15.9 C 74.7 15.6 74.3 15.4 73.9 15.3 C 73.4 15 72.8 14.8 72.8 14.1 C 72.8 13.3 73.4 12.9 74.1 12.9 C 74.5 12.9 75 13.1 75.3 13.3 C 75.3 13.3 74.9 13.8 74.9 13.8 Z M 82.3 15 C 82.3 16.2 81.4 17.1 80.2 17.1 C 79.1 17.1 78.2 16.2 78.2 15 C 78.2 13.8 79.1 12.9 80.2 12.9 C 81.4 12.9 82.3 13.8 82.3 15 Z M 80.2 13.6 C 79.5 13.6 79 14.2 79 15 C 79 15.8 79.5 16.4 80.2 16.4 C 81 16.4 81.5 15.8 81.5 15 C 81.5 14.2 81 13.6 80.2 13.6 Z M 85.3 11.7 C 85.2 11.6 85 11.6 84.8 11.6 C 84.6 11.6 84.5 11.6 84.4 11.7 C 84.2 11.9 84.2 12.1 84.2 12.5 C 84.17 12.5 84.2 13 84.2 13 L 85.3 13 L 85.3 13.6 L 84.2 13.6 L 84.2 17 L 83.4 17 L 83.4 13.6 L 83 13.6 L 83 13 L 83.4 13 C 83.4 13 83.45 12.42 83.4 12.4 C 83.4 12 83.5 11.6 83.7 11.4 C 83.9 11.1 84.2 10.9 84.8 10.9 C 85 10.9 85.3 11 85.6 11.1 C 85.6 11.1 85.3 11.7 85.3 11.7 Z M 90.4 17 C 90.4 17 90.37 16.58 90.4 16.6 C 90 16.9 89.7 17.1 89.2 17.1 C 88.4 17.1 87.8 16.7 87.8 15.9 C 87.8 14.9 88.7 14.6 89.5 14.6 C 89.7 14.6 90 14.6 90.3 14.6 C 90.3 14.6 90.3 14.5 90.3 14.5 C 90.3 13.9 90 13.5 89.4 13.5 C 88.9 13.5 88.4 13.7 88.1 13.9 C 88.1 13.9 87.9 13.3 87.9 13.3 C 88.3 13.1 88.9 12.9 89.5 12.9 C 90.6 12.9 91.1 13.5 91.1 14.6 C 91.06 14.57 91.1 17 91.1 17 L 90.4 17 Z M 90.3 15.2 C 90 15.1 89.8 15.1 89.6 15.1 C 89.1 15.1 88.5 15.2 88.5 15.8 C 88.5 16.3 88.8 16.5 89.3 16.5 C 89.7 16.5 90 16.3 90.3 16 C 90.3 16 90.3 15.2 90.3 15.2 Z M 93.1 17 L 92.4 17 L 92.4 11 L 93.1 11 L 93.1 17 Z M 95.2 17 L 94.4 17 L 94.4 11 L 95.2 11 L 95.2 17 Z " stroke="none" fill="#fff"/>  </g>  <g id="Polygon40140">    <path d="M 3.5 6.1 C 1.8 6.1 0.5 5 0.5 3.2 C 0.5 1.5 1.8 0.3 3.5 0.3 C 4 0.3 4.6 0.5 5 0.7 C 5 0.7 4.6 1.3 4.6 1.3 C 4.3 1.1 3.9 1 3.5 1 C 2.2 1 1.3 1.9 1.3 3.2 C 1.3 4.6 2.2 5.4 3.5 5.4 C 3.9 5.4 4.3 5.3 4.7 5 C 4.7 5 5.1 5.6 5.1 5.6 C 4.7 5.9 4.1 6.1 3.5 6.1 Z M 8.4 6 C 8.4 6 8.44 5.58 8.4 5.6 C 8.1 5.9 7.8 6.1 7.2 6.1 C 6.5 6.1 5.8 5.7 5.8 4.9 C 5.8 3.9 6.7 3.6 7.6 3.6 C 7.8 3.6 8.1 3.6 8.4 3.6 C 8.4 3.6 8.4 3.5 8.4 3.5 C 8.4 2.9 8.1 2.5 7.5 2.5 C 7 2.5 6.5 2.7 6.2 2.9 C 6.2 2.9 6 2.3 6 2.3 C 6.4 2.1 7 1.9 7.6 1.9 C 8.7 1.9 9.1 2.5 9.1 3.6 C 9.14 3.57 9.1 6 9.1 6 L 8.4 6 Z M 8.4 4.2 C 8.1 4.1 7.9 4.1 7.7 4.1 C 7.2 4.1 6.5 4.2 6.5 4.8 C 6.5 5.3 6.9 5.5 7.3 5.5 C 7.7 5.5 8.1 5.3 8.4 5 C 8.4 5 8.4 4.2 8.4 4.2 Z M 11.2 2.7 C 11.4 2.2 11.8 1.9 12.2 1.9 C 12.4 1.9 12.5 1.9 12.6 2 C 12.6 2 12.5 2.7 12.5 2.7 C 12.4 2.7 12.3 2.6 12.1 2.6 C 11.7 2.6 11.4 2.9 11.2 3.3 C 11.16 3.32 11.2 6 11.2 6 L 10.4 6 L 10.4 2 L 11.2 2 C 11.2 2 11.16 2.66 11.2 2.7 Z M 13.7 4.2 C 13.7 4.9 14.2 5.5 15 5.5 C 15.5 5.5 15.9 5.3 16.2 4.8 C 16.2 4.8 16.7 5.2 16.7 5.2 C 16.3 5.8 15.7 6.1 14.9 6.1 C 13.7 6.1 13 5.2 13 4 C 13 2.8 13.8 1.9 14.9 1.9 C 16 1.9 16.8 2.7 16.8 3.8 C 16.8 3.9 16.7 4.1 16.7 4.2 C 16.7 4.2 13.7 4.2 13.7 4.2 Z M 13.7 3.6 C 13.7 3.6 16 3.6 16 3.6 C 16 3 15.5 2.5 14.9 2.5 C 14.3 2.5 13.9 3 13.7 3.6 Z M 19.8 0.7 C 19.7 0.6 19.5 0.6 19.3 0.6 C 19.1 0.6 19 0.6 18.9 0.7 C 18.7 0.9 18.6 1.1 18.6 1.5 C 18.65 1.5 18.6 2 18.6 2 L 19.7 2 L 19.7 2.6 L 18.6 2.6 L 18.6 6 L 17.9 6 L 17.9 2.6 L 17.5 2.6 L 17.5 2 L 17.9 2 C 17.9 2 17.92 1.42 17.9 1.4 C 17.9 1 18 0.6 18.2 0.4 C 18.4 0.1 18.7 -0.1 19.2 -0.1 C 19.5 -0.1 19.8 0 20 0.1 C 20 0.1 19.8 0.7 19.8 0.7 Z M 23.2 5.3 C 22.9 5.8 22.5 6.1 21.9 6.1 C 21.4 6.1 21 5.9 20.8 5.6 C 20.5 5.2 20.4 4.7 20.4 4.1 C 20.42 4.08 20.4 2 20.4 2 L 21.1 2 C 21.1 2 21.14 4 21.1 4 C 21.1 4.4 21.2 4.8 21.4 5.1 C 21.5 5.3 21.7 5.4 22 5.4 C 22.5 5.4 23 5.1 23.2 4.7 C 23.24 4.66 23.2 2 23.2 2 L 24 2 L 24 6 L 23.2 6 C 23.2 6 23.24 5.34 23.2 5.3 Z M 26 6 L 25.3 6 L 25.3 0 L 26 0 L 26 6 Z M 28.1 6 L 27.4 6 L 27.4 0 L 28.1 0 L 28.1 6 Z M 29.6 2 L 30.7 5 L 30.7 5 L 31.8 2 L 32.6 2 L 30.3 7.8 L 29.7 7.6 L 30.3 5.9 L 28.8 2 L 29.6 2 Z M 38.2 5.7 C 37.9 5.9 37.5 6.1 37 6.1 C 35.8 6.1 34.9 5.3 34.9 4 C 34.9 2.8 35.9 1.9 37 1.9 C 37.4 1.9 37.8 2 38.2 2.2 C 38.2 2.2 37.8 2.8 37.8 2.8 C 37.6 2.7 37.3 2.6 37 2.6 C 36.3 2.6 35.7 3.2 35.7 4 C 35.7 4.9 36.3 5.4 37 5.4 C 37.3 5.4 37.6 5.3 37.8 5.1 C 37.8 5.1 38.2 5.7 38.2 5.7 Z M 39.8 2.7 C 40 2.2 40.4 1.9 40.8 1.9 C 41 1.9 41.1 1.9 41.3 2 C 41.3 2 41.1 2.7 41.1 2.7 C 41 2.7 40.9 2.6 40.8 2.6 C 40.3 2.6 40 2.9 39.8 3.3 C 39.8 3.32 39.8 6 39.8 6 L 39.1 6 L 39.1 2 L 39.8 2 C 39.8 2 39.8 2.66 39.8 2.7 Z M 44.3 6 C 44.3 6 44.3 5.58 44.3 5.6 C 44 5.9 43.6 6.1 43.1 6.1 C 42.4 6.1 41.7 5.7 41.7 4.9 C 41.7 3.9 42.6 3.6 43.5 3.6 C 43.7 3.6 43.9 3.6 44.3 3.6 C 44.3 3.6 44.3 3.5 44.3 3.5 C 44.3 2.9 44 2.5 43.3 2.5 C 42.9 2.5 42.4 2.7 42.1 2.9 C 42.1 2.9 41.8 2.3 41.8 2.3 C 42.3 2.1 42.9 1.9 43.4 1.9 C 44.6 1.9 45 2.5 45 3.6 C 45 3.57 45 6 45 6 L 44.3 6 Z M 44.3 4.2 C 44 4.1 43.8 4.1 43.6 4.1 C 43.1 4.1 42.4 4.2 42.4 4.8 C 42.4 5.3 42.8 5.5 43.2 5.5 C 43.6 5.5 44 5.3 44.3 5 C 44.3 5 44.3 4.2 44.3 4.2 Z M 48.3 0.7 C 48.2 0.6 48 0.6 47.8 0.6 C 47.6 0.6 47.5 0.6 47.4 0.7 C 47.2 0.9 47.2 1.1 47.2 1.5 C 47.17 1.5 47.2 2 47.2 2 L 48.2 2 L 48.2 2.6 L 47.2 2.6 L 47.2 6 L 46.4 6 L 46.4 2.6 L 46 2.6 L 46 2 L 46.4 2 C 46.4 2 46.45 1.42 46.4 1.4 C 46.4 1 46.5 0.6 46.7 0.4 C 46.9 0.1 47.2 -0.1 47.8 -0.1 C 48 -0.1 48.3 0 48.6 0.1 C 48.6 0.1 48.3 0.7 48.3 0.7 Z M 49.8 2.6 C 49.8 2.6 49.76 4.45 49.8 4.4 C 49.8 4.6 49.8 4.6 49.8 4.8 C 49.8 5.2 49.9 5.4 50.3 5.4 C 50.5 5.4 50.6 5.4 50.8 5.3 C 50.8 5.3 51 5.9 51 5.9 C 50.8 6 50.5 6.1 50.2 6.1 C 49.7 6.1 49.3 5.8 49.2 5.5 C 49.1 5.2 49 4.9 49 4.6 C 49.03 4.62 49 2.6 49 2.6 L 48.6 2.6 L 48.6 2 L 49 2 L 49 1 L 49.8 1 L 49.8 2 L 50.9 2 L 50.9 2.6 L 49.8 2.6 Z M 52.2 4.2 C 52.2 4.9 52.7 5.5 53.4 5.5 C 54 5.5 54.4 5.3 54.6 4.8 C 54.6 4.8 55.2 5.2 55.2 5.2 C 54.8 5.8 54.2 6.1 53.4 6.1 C 52.1 6.1 51.4 5.2 51.4 4 C 51.4 2.8 52.3 1.9 53.4 1.9 C 54.5 1.9 55.2 2.7 55.2 3.8 C 55.2 3.9 55.2 4.1 55.2 4.2 C 55.2 4.2 52.2 4.2 52.2 4.2 Z M 52.2 3.6 C 52.2 3.6 54.5 3.6 54.5 3.6 C 54.4 3 54 2.5 53.4 2.5 C 52.8 2.5 52.4 3 52.2 3.6 Z M 55.9 4 C 55.9 2.9 56.7 1.9 57.9 1.9 C 58.4 1.9 58.9 2.1 59.2 2.4 C 59.18 2.44 59.2 0 59.2 0 L 59.9 0 L 59.9 6 L 59.2 6 C 59.2 6 59.18 5.46 59.2 5.5 C 58.9 5.9 58.4 6.1 57.9 6.1 C 56.8 6.1 55.9 5.2 55.9 4 Z M 59.2 4.7 C 59.2 4.7 59.2 3.2 59.2 3.2 C 58.9 2.8 58.4 2.6 58 2.6 C 57.1 2.6 56.6 3.3 56.6 4 C 56.6 4.8 57.2 5.4 58 5.4 C 58.4 5.4 59 5.2 59.2 4.7 Z M 64 2 C 64 2 63.97 2.54 64 2.5 C 64.3 2.1 64.8 1.9 65.2 1.9 C 66.4 1.9 67.2 2.8 67.2 4 C 67.2 5.1 66.5 6.1 65.2 6.1 C 64.8 6.1 64.3 5.9 64 5.6 C 63.97 5.57 64 8 64 8 L 63.2 8 L 63.2 2 L 64 2 Z M 64 4.8 C 64.2 5.2 64.7 5.4 65.1 5.4 C 66.1 5.4 66.5 4.7 66.5 4 C 66.5 3.2 66 2.6 65.2 2.6 C 64.7 2.6 64.2 2.8 64 3.3 C 64 3.3 64 4.8 64 4.8 Z M 68.3 6 L 68.3 2 L 69 2 L 69 6 L 68.3 6 Z M 68.3 1.2 L 68.3 0.4 L 69 0.4 L 69 1.2 L 68.3 1.2 Z M 70.7 4.2 C 70.8 4.9 71.2 5.5 72 5.5 C 72.5 5.5 73 5.3 73.2 4.8 C 73.2 4.8 73.7 5.2 73.7 5.2 C 73.3 5.8 72.8 6.1 72 6.1 C 70.7 6.1 70 5.2 70 4 C 70 2.8 70.9 1.9 72 1.9 C 73 1.9 73.8 2.7 73.8 3.8 C 73.8 3.9 73.8 4.1 73.8 4.2 C 73.8 4.2 70.7 4.2 70.7 4.2 Z M 70.8 3.6 C 70.8 3.6 73 3.6 73 3.6 C 73 3 72.6 2.5 72 2.5 C 71.3 2.5 70.9 3 70.8 3.6 Z M 77.7 5.7 C 77.4 5.9 77 6.1 76.5 6.1 C 75.4 6.1 74.5 5.3 74.5 4 C 74.5 2.8 75.4 1.9 76.6 1.9 C 77 1.9 77.4 2 77.7 2.2 C 77.7 2.2 77.3 2.8 77.3 2.8 C 77.1 2.7 76.8 2.6 76.5 2.6 C 75.8 2.6 75.2 3.2 75.2 4 C 75.2 4.9 75.8 5.4 76.5 5.4 C 76.8 5.4 77.2 5.3 77.4 5.1 C 77.4 5.1 77.7 5.7 77.7 5.7 Z M 79 4.2 C 79 4.9 79.5 5.5 80.3 5.5 C 80.8 5.5 81.2 5.3 81.5 4.8 C 81.5 4.8 82 5.2 82 5.2 C 81.6 5.8 81.1 6.1 80.3 6.1 C 79 6.1 78.3 5.2 78.3 4 C 78.3 2.8 79.1 1.9 80.3 1.9 C 81.3 1.9 82.1 2.7 82.1 3.8 C 82.1 3.9 82.1 4.1 82 4.2 C 82 4.2 79 4.2 79 4.2 Z M 79.1 3.6 C 79.1 3.6 81.3 3.6 81.3 3.6 C 81.3 3 80.9 2.5 80.3 2.5 C 79.6 2.5 79.2 3 79.1 3.6 Z M 85 2.8 C 84.9 2.6 84.5 2.5 84.2 2.5 C 83.9 2.5 83.6 2.7 83.6 3 C 83.6 3.3 84 3.5 84.4 3.6 C 84.9 3.8 85.6 4.1 85.6 4.8 C 85.6 5.7 84.9 6.1 84.1 6.1 C 83.6 6.1 83.1 5.9 82.8 5.5 C 82.8 5.5 83.3 5.1 83.3 5.1 C 83.5 5.3 83.8 5.5 84.1 5.5 C 84.5 5.5 84.9 5.3 84.9 4.9 C 84.9 4.6 84.5 4.4 84.1 4.3 C 83.6 4 83 3.8 83 3.1 C 83 2.3 83.6 1.9 84.2 1.9 C 84.7 1.9 85.2 2.1 85.5 2.3 C 85.5 2.3 85 2.8 85 2.8 Z M 89.5 2.6 C 89.5 2.6 89.46 4.45 89.5 4.4 C 89.5 4.6 89.5 4.6 89.5 4.8 C 89.5 5.2 89.6 5.4 90 5.4 C 90.2 5.4 90.4 5.4 90.5 5.3 C 90.5 5.3 90.7 5.9 90.7 5.9 C 90.5 6 90.2 6.1 89.9 6.1 C 89.4 6.1 89 5.8 88.9 5.5 C 88.8 5.2 88.7 4.9 88.7 4.6 C 88.74 4.62 88.7 2.6 88.7 2.6 L 88.2 2.6 L 88.2 2 L 88.7 2 L 88.7 1 L 89.5 1 L 89.5 2 L 90.6 2 L 90.6 2.6 L 89.5 2.6 Z M 92.2 2.7 C 92.5 2.2 93 1.9 93.5 1.9 C 94.1 1.9 94.4 2.1 94.7 2.4 C 94.9 2.8 95 3.3 95 3.9 C 95.01 3.92 95 6 95 6 L 94.3 6 C 94.3 6 94.29 4 94.3 4 C 94.3 3.6 94.3 3.2 94.1 2.9 C 94 2.7 93.7 2.6 93.4 2.6 C 92.9 2.6 92.5 2.9 92.2 3.3 C 92.19 3.34 92.2 6 92.2 6 L 91.5 6 L 91.5 0 L 92.2 0 C 92.2 0 92.19 2.66 92.2 2.7 Z M 98.7 6 C 98.7 6 98.69 5.58 98.7 5.6 C 98.4 5.9 98 6.1 97.5 6.1 C 96.8 6.1 96.1 5.7 96.1 4.9 C 96.1 3.9 97 3.6 97.9 3.6 C 98.1 3.6 98.3 3.6 98.7 3.6 C 98.7 3.6 98.7 3.5 98.7 3.5 C 98.7 2.9 98.4 2.5 97.7 2.5 C 97.2 2.5 96.8 2.7 96.4 2.9 C 96.4 2.9 96.2 2.3 96.2 2.3 C 96.6 2.1 97.2 1.9 97.8 1.9 C 99 1.9 99.4 2.5 99.4 3.6 C 99.38 3.57 99.4 6 99.4 6 L 98.7 6 Z M 98.7 4.2 C 98.4 4.1 98.1 4.1 97.9 4.1 C 97.4 4.1 96.8 4.2 96.8 4.8 C 96.8 5.3 97.2 5.5 97.6 5.5 C 98 5.5 98.3 5.3 98.7 5 C 98.7 5 98.7 4.2 98.7 4.2 Z M 101.4 2.6 C 101.4 2.6 101.45 4.45 101.4 4.4 C 101.4 4.6 101.4 4.6 101.5 4.8 C 101.5 5.2 101.6 5.4 102 5.4 C 102.2 5.4 102.3 5.4 102.5 5.3 C 102.5 5.3 102.7 5.9 102.7 5.9 C 102.5 6 102.2 6.1 101.9 6.1 C 101.4 6.1 101 5.8 100.8 5.5 C 100.8 5.2 100.7 4.9 100.7 4.6 C 100.72 4.62 100.7 2.6 100.7 2.6 L 100.2 2.6 L 100.2 2 L 100.7 2 L 100.7 1 L 101.4 1 L 101.4 2 L 102.6 2 L 102.6 2.6 L 101.4 2.6 Z " stroke="none" fill="#fff"/>  </g></svg>