<?xml version="1.0" standalone="no"?><!DOCTYPE svg PUBLIC "-//W3C//DTD SVG 1.1//EN" "http://www.w3.org/Graphics/SVG/1.1/DTD/svg11.dtd"><svg xmlns="http://www.w3.org/2000/svg" version="1.1" width="108px" height="23.8px" viewBox="0 -4 108 23.8" style="top:-4px">  <desc>Romansque A3000261</desc>  <defs/>  <g id="Polygon41535">    <path d="M 41.6 15 L 41.3 14 L 39.2 14 L 38.8 15 L 38.1 15 L 40 10.1 L 40.5 10.1 L 42.4 15 L 41.6 15 Z M 39.4 13.4 L 41 13.4 L 40.2 11.1 L 40.2 11.1 L 39.4 13.4 Z M 43.9 12.3 C 44.2 12.3 44.4 12.3 44.6 12.2 C 45 12.1 45.2 11.9 45.2 11.5 C 45.2 11.1 44.9 10.9 44.5 10.9 C 44.1 10.9 43.8 11 43.7 11.4 C 43.7 11.4 43.1 11.1 43.1 11.1 C 43.3 10.6 43.8 10.3 44.5 10.3 C 45.3 10.3 45.9 10.8 45.9 11.5 C 45.9 11.9 45.7 12.3 45.3 12.5 C 45.8 12.7 46.1 13.1 46.1 13.6 C 46.1 14.6 45.4 15.1 44.6 15.1 C 44 15.1 43.4 14.8 43.1 14.3 C 43.1 14.3 43.6 14 43.6 14 C 43.8 14.4 44.2 14.5 44.5 14.5 C 45 14.5 45.5 14.2 45.5 13.7 C 45.5 13.2 45 12.9 44.5 12.9 C 44.3 12.9 44.2 12.9 43.9 13 C 43.9 13 43.9 12.3 43.9 12.3 Z M 50.5 12.7 C 50.5 14.2 49.9 15.1 48.9 15.1 C 47.8 15.1 47.2 14.2 47.2 12.7 C 47.2 11.2 47.8 10.3 48.9 10.3 C 49.9 10.3 50.5 11.2 50.5 12.7 Z M 47.9 12.7 C 47.9 13.9 48.2 14.5 48.9 14.5 C 49.5 14.5 49.8 13.9 49.8 12.7 C 49.8 11.5 49.5 10.9 48.9 10.9 C 48.2 10.9 47.9 11.5 47.9 12.7 Z M 54.8 12.7 C 54.8 14.2 54.2 15.1 53.2 15.1 C 52.1 15.1 51.5 14.2 51.5 12.7 C 51.5 11.2 52.1 10.3 53.2 10.3 C 54.2 10.3 54.8 11.2 54.8 12.7 Z M 52.2 12.7 C 52.2 13.9 52.6 14.5 53.2 14.5 C 53.8 14.5 54.1 13.9 54.1 12.7 C 54.1 11.5 53.8 10.9 53.2 10.9 C 52.6 10.9 52.2 11.5 52.2 12.7 Z M 59.1 12.7 C 59.1 14.2 58.5 15.1 57.5 15.1 C 56.4 15.1 55.8 14.2 55.8 12.7 C 55.8 11.2 56.4 10.3 57.5 10.3 C 58.5 10.3 59.1 11.2 59.1 12.7 Z M 56.5 12.7 C 56.5 13.9 56.9 14.5 57.5 14.5 C 58.1 14.5 58.4 13.9 58.4 12.7 C 58.4 11.5 58.1 10.9 57.5 10.9 C 56.9 10.9 56.5 11.5 56.5 12.7 Z M 60.2 15 C 60.2 15 60.15 14.41 60.2 14.4 C 60.7 13.8 61.3 13.1 61.8 12.5 C 62 12.2 62.2 11.8 62.2 11.5 C 62.2 11.1 61.8 10.9 61.5 10.9 C 61.1 10.9 60.7 11.1 60.7 11.6 C 60.7 11.6 60.1 11.4 60.1 11.4 C 60.1 10.7 60.8 10.3 61.5 10.3 C 62.2 10.3 62.9 10.8 62.9 11.5 C 62.9 11.9 62.7 12.4 62.4 12.8 C 62 13.3 61.5 13.9 61 14.4 C 61.03 14.41 63.1 14.4 63.1 14.4 L 63.1 15 L 60.2 15 Z M 66.5 10.7 C 65.6 11.1 64.9 11.6 64.7 12.5 C 65 12.2 65.3 12.1 65.8 12.1 C 66.6 12.1 67.1 12.7 67.1 13.6 C 67.1 14.4 66.5 15.1 65.6 15.1 C 64.6 15.1 63.9 14.2 63.9 13.2 C 63.9 11.7 65 10.6 66.2 10.1 C 66.2 10.1 66.5 10.7 66.5 10.7 Z M 64.6 13.2 C 64.6 13.9 64.9 14.5 65.6 14.5 C 66.1 14.5 66.4 14.1 66.4 13.5 C 66.4 13 66.1 12.6 65.6 12.6 C 65.2 12.6 64.8 12.9 64.6 13.2 Z M 68.7 15 C 68.7 15 68.73 11.15 68.7 11.1 C 68.5 11.3 68.2 11.4 68 11.5 C 68 11.5 68 10.8 68 10.8 C 68.3 10.7 68.7 10.5 69 10.4 C 68.96 10.35 69.4 10.4 69.4 10.4 L 69.4 15 L 68.7 15 Z " stroke="none" fill="#535a5d"/>  </g>  <g id="Polygon41534">    <path d="M 28.6 0.4 C 29.5 0.4 30.6 0.9 30.6 2 C 30.6 3 30 3.4 29.4 3.6 C 29.36 3.62 31.1 6 31.1 6 L 29.9 6 L 28.3 3.7 L 27.9 3.7 L 27.9 6 L 26.9 6 L 26.9 0.4 C 26.9 0.4 28.64 0.4 28.6 0.4 Z M 28.5 2.9 C 29.1 2.9 29.6 2.6 29.6 2.1 C 29.6 1.6 29.2 1.2 28.6 1.2 C 28.62 1.25 27.9 1.2 27.9 1.2 L 27.9 2.9 C 27.9 2.9 28.46 2.86 28.5 2.9 Z M 34.7 1.2 C 33.7 1.2 32.9 2.1 32.9 3.2 C 32.9 4.3 33.7 5.2 34.7 5.2 C 35.8 5.2 36.6 4.3 36.6 3.2 C 36.6 2.1 35.8 1.2 34.7 1.2 Z M 34.7 6.1 C 33.1 6.1 31.8 4.8 31.8 3.2 C 31.8 1.6 33.1 0.3 34.7 0.3 C 36.4 0.3 37.6 1.6 37.6 3.2 C 37.6 4.8 36.4 6.1 34.7 6.1 Z M 42.6 6 L 41.9 6 L 40.1 1.6 L 40.1 6 L 39.2 6 L 39.2 0.4 L 40.7 0.4 L 42.2 4.5 L 43.9 0.4 L 45.3 0.4 L 45.3 6 L 44.3 6 L 44.3 1.6 L 42.6 6 Z M 48.8 0.4 L 49.6 0.4 L 51.7 6 L 50.6 6 L 50.2 4.9 L 48.1 4.9 L 47.7 6 L 46.6 6 L 48.8 0.4 Z M 48.4 4.1 L 49.9 4.1 L 49.2 1.9 L 49.1 1.9 L 48.4 4.1 Z M 56.7 6 L 54 2.2 L 54 6 L 53 6 L 53 0.4 L 53.8 0.4 L 56.6 4.2 L 56.6 0.4 L 57.6 0.4 L 57.6 6 L 56.7 6 Z M 61.2 1.2 C 60.8 1.2 60.4 1.4 60.4 1.8 C 60.4 2.3 61 2.4 61.4 2.6 C 62.2 2.9 63.2 3.2 63.2 4.4 C 63.2 5.6 62 6.1 61.1 6.1 C 60.3 6.1 59.6 5.8 59 5.2 C 59 5.2 59.7 4.6 59.7 4.6 C 60.2 5 60.5 5.2 61.1 5.2 C 61.6 5.2 62.1 5 62.1 4.4 C 62.1 3.9 61.5 3.7 61 3.5 C 60.2 3.2 59.4 2.8 59.4 1.9 C 59.4 0.8 60.3 0.3 61.2 0.3 C 61.9 0.3 62.5 0.5 63 0.9 C 63 0.9 62.4 1.6 62.4 1.6 C 62.1 1.4 61.7 1.2 61.2 1.2 Z M 69.5 6.5 C 69.5 6.5 68.65 5.74 68.7 5.7 C 68.2 6 67.7 6.1 67.2 6.1 C 65.6 6.1 64.3 4.8 64.3 3.2 C 64.3 1.6 65.6 0.3 67.2 0.3 C 68.9 0.3 70.1 1.6 70.1 3.2 C 70.1 4 69.8 4.7 69.3 5.2 C 69.34 5.22 70.1 5.9 70.1 5.9 L 69.5 6.5 Z M 68.7 4.5 C 68.9 4.2 69.1 3.7 69.1 3.2 C 69.1 2.1 68.3 1.2 67.2 1.2 C 66.2 1.2 65.4 2.1 65.4 3.2 C 65.4 4.3 66.2 5.2 67.2 5.2 C 67.5 5.2 67.7 5.2 68 5.1 C 67.98 5.06 67.3 4.3 67.3 4.3 L 67.9 3.7 C 67.9 3.7 68.65 4.53 68.7 4.5 Z M 76.1 3.4 C 76.1 5.1 75.4 6.1 73.8 6.1 C 72.3 6.1 71.6 5.1 71.6 3.4 C 71.63 3.37 71.6 0.4 71.6 0.4 L 72.6 0.4 C 72.6 0.4 72.62 3.54 72.6 3.5 C 72.6 4.7 73.1 5.2 73.8 5.2 C 74.6 5.2 75.1 4.7 75.1 3.5 C 75.08 3.54 75.1 0.4 75.1 0.4 L 76.1 0.4 C 76.1 0.4 76.07 3.37 76.1 3.4 Z M 77.8 6 L 77.8 0.4 L 81.3 0.4 L 81.3 1.2 L 78.8 1.2 L 78.8 2.7 L 81.3 2.7 L 81.3 3.5 L 78.8 3.5 L 78.8 5.2 L 81.3 5.2 L 81.3 6 L 77.8 6 Z " stroke="none" fill="#535a5d"/>  </g></svg>