<?xml version="1.0" standalone="no"?><!DOCTYPE svg PUBLIC "-//W3C//DTD SVG 1.1//EN" "http://www.w3.org/Graphics/SVG/1.1/DTD/svg11.dtd"><svg xmlns="http://www.w3.org/2000/svg" version="1.1" width="486px" height="184px" viewBox="0 -1 486 184" style="top:-1px">  <desc>Modern artistry takes a seat Settle into refined relaxation Elevate your space and expand your style with our fash</desc>  <defs/>  <g id="Polygon41170">    <path d="M 178.3 159.2 C 178.3 159.2 178.31 158.77 178.3 158.8 C 178 159.1 177.6 159.3 177.1 159.3 C 176.4 159.3 175.7 158.9 175.7 158.1 C 175.7 157.1 176.6 156.7 177.5 156.7 C 177.7 156.7 177.9 156.8 178.3 156.8 C 178.3 156.8 178.3 156.7 178.3 156.7 C 178.3 156.1 178 155.7 177.3 155.7 C 176.9 155.7 176.4 155.9 176.1 156.1 C 176.1 156.1 175.8 155.5 175.8 155.5 C 176.3 155.3 176.9 155.1 177.4 155.1 C 178.6 155.1 179 155.7 179 156.8 C 179.01 156.76 179 159.2 179 159.2 L 178.3 159.2 Z M 178.3 157.4 C 178 157.3 177.8 157.3 177.6 157.3 C 177.1 157.3 176.4 157.4 176.4 158 C 176.4 158.5 176.8 158.7 177.2 158.7 C 177.6 158.7 178 158.5 178.3 158.2 C 178.3 158.2 178.3 157.4 178.3 157.4 Z M 181 155.2 C 181 155.2 181.03 155.85 181 155.8 C 181.3 155.4 181.8 155.1 182.3 155.1 C 182.9 155.1 183.3 155.3 183.5 155.6 C 183.8 156 183.9 156.5 183.9 157.1 C 183.86 157.11 183.9 159.2 183.9 159.2 L 183.1 159.2 C 183.1 159.2 183.13 157.19 183.1 157.2 C 183.1 156.8 183.1 156.4 182.9 156.1 C 182.8 155.9 182.6 155.8 182.2 155.8 C 181.8 155.8 181.3 156.1 181 156.5 C 181.03 156.53 181 159.2 181 159.2 L 180.3 159.2 L 180.3 155.2 L 181 155.2 Z M 184.8 157.2 C 184.8 156.1 185.6 155.1 186.8 155.1 C 187.3 155.1 187.8 155.3 188.1 155.6 C 188.09 155.63 188.1 153.2 188.1 153.2 L 188.8 153.2 L 188.8 159.2 L 188.1 159.2 C 188.1 159.2 188.09 158.65 188.1 158.7 C 187.8 159.1 187.3 159.3 186.8 159.3 C 185.7 159.3 184.8 158.4 184.8 157.2 Z M 188.1 157.9 C 188.1 157.9 188.1 156.4 188.1 156.4 C 187.8 156 187.3 155.8 186.9 155.8 C 186 155.8 185.6 156.5 185.6 157.2 C 185.6 157.9 186.1 158.6 186.9 158.6 C 187.3 158.6 187.9 158.4 188.1 157.9 Z M 194.2 153.9 C 194.1 153.8 193.9 153.8 193.7 153.8 C 193.5 153.8 193.4 153.8 193.2 153.9 C 193.1 154 193 154.3 193 154.7 C 193.04 154.69 193 155.2 193 155.2 L 194.1 155.2 L 194.1 155.8 L 193 155.8 L 193 159.2 L 192.3 159.2 L 192.3 155.8 L 191.9 155.8 L 191.9 155.2 L 192.3 155.2 C 192.3 155.2 192.31 154.61 192.3 154.6 C 192.3 154.2 192.4 153.8 192.6 153.6 C 192.8 153.3 193.1 153.1 193.6 153.1 C 193.9 153.1 194.2 153.2 194.4 153.3 C 194.4 153.3 194.2 153.9 194.2 153.9 Z M 197.6 158.5 C 197.3 159 196.9 159.3 196.3 159.3 C 195.8 159.3 195.4 159.1 195.2 158.8 C 194.9 158.4 194.8 157.9 194.8 157.3 C 194.81 157.27 194.8 155.2 194.8 155.2 L 195.5 155.2 C 195.5 155.2 195.54 157.19 195.5 157.2 C 195.5 157.6 195.6 158 195.7 158.3 C 195.9 158.5 196.1 158.6 196.4 158.6 C 196.9 158.6 197.3 158.3 197.6 157.8 C 197.63 157.85 197.6 155.2 197.6 155.2 L 198.4 155.2 L 198.4 159.2 L 197.6 159.2 C 197.6 159.2 197.63 158.53 197.6 158.5 Z M 200.4 155.2 C 200.4 155.2 200.43 155.85 200.4 155.8 C 200.7 155.4 201.2 155.1 201.7 155.1 C 202.3 155.1 202.7 155.3 202.9 155.6 C 203.2 156 203.3 156.5 203.3 157.1 C 203.26 157.11 203.3 159.2 203.3 159.2 L 202.5 159.2 C 202.5 159.2 202.53 157.19 202.5 157.2 C 202.5 156.8 202.5 156.4 202.3 156.1 C 202.2 155.9 202 155.8 201.6 155.8 C 201.2 155.8 200.7 156.1 200.4 156.5 C 200.43 156.53 200.4 159.2 200.4 159.2 L 199.7 159.2 L 199.7 155.2 L 200.4 155.2 Z M 207.5 158.9 C 207.2 159.1 206.7 159.3 206.3 159.3 C 205.1 159.3 204.2 158.5 204.2 157.2 C 204.2 156 205.1 155.1 206.3 155.1 C 206.7 155.1 207.1 155.2 207.4 155.4 C 207.4 155.4 207.1 156 207.1 156 C 206.9 155.9 206.6 155.8 206.3 155.8 C 205.6 155.8 205 156.4 205 157.2 C 205 158.1 205.6 158.6 206.3 158.6 C 206.5 158.6 206.9 158.5 207.1 158.3 C 207.1 158.3 207.5 158.9 207.5 158.9 Z M 209.2 155.8 C 209.2 155.8 209.24 157.64 209.2 157.6 C 209.2 157.7 209.2 157.8 209.2 158 C 209.3 158.4 209.4 158.6 209.8 158.6 C 210 158.6 210.1 158.6 210.3 158.5 C 210.3 158.5 210.5 159.1 210.5 159.1 C 210.3 159.2 210 159.3 209.7 159.3 C 209.2 159.3 208.8 159 208.6 158.6 C 208.5 158.4 208.5 158.1 208.5 157.8 C 208.51 157.81 208.5 155.8 208.5 155.8 L 208 155.8 L 208 155.2 L 208.5 155.2 L 208.5 154.2 L 209.2 154.2 L 209.2 155.2 L 210.4 155.2 L 210.4 155.8 L 209.2 155.8 Z M 211.2 159.2 L 211.2 155.2 L 212 155.2 L 212 159.2 L 211.2 159.2 Z M 211.2 154.4 L 211.2 153.6 L 212 153.6 L 212 154.4 L 211.2 154.4 Z M 217.1 157.2 C 217.1 158.4 216.2 159.3 215 159.3 C 213.8 159.3 213 158.4 213 157.2 C 213 156 213.8 155.1 215 155.1 C 216.2 155.1 217.1 156 217.1 157.2 Z M 215 155.8 C 214.3 155.8 213.7 156.4 213.7 157.2 C 213.7 158 214.3 158.6 215 158.6 C 215.8 158.6 216.3 158 216.3 157.2 C 216.3 156.4 215.8 155.8 215 155.8 Z M 218.8 155.2 C 218.8 155.2 218.79 155.85 218.8 155.8 C 219.1 155.4 219.6 155.1 220.1 155.1 C 220.7 155.1 221 155.3 221.3 155.6 C 221.5 156 221.6 156.5 221.6 157.1 C 221.62 157.11 221.6 159.2 221.6 159.2 L 220.9 159.2 C 220.9 159.2 220.89 157.19 220.9 157.2 C 220.9 156.8 220.9 156.4 220.7 156.1 C 220.6 155.9 220.3 155.8 220 155.8 C 219.5 155.8 219.1 156.1 218.8 156.5 C 218.79 156.53 218.8 159.2 218.8 159.2 L 218.1 159.2 L 218.1 155.2 L 218.8 155.2 Z M 225.3 159.2 C 225.3 159.2 225.29 158.77 225.3 158.8 C 225 159.1 224.6 159.3 224.1 159.3 C 223.4 159.3 222.7 158.9 222.7 158.1 C 222.7 157.1 223.6 156.7 224.5 156.7 C 224.7 156.7 224.9 156.8 225.3 156.8 C 225.3 156.8 225.3 156.7 225.3 156.7 C 225.3 156.1 225 155.7 224.3 155.7 C 223.8 155.7 223.4 155.9 223 156.1 C 223 156.1 222.8 155.5 222.8 155.5 C 223.2 155.3 223.8 155.1 224.4 155.1 C 225.6 155.1 226 155.7 226 156.8 C 225.98 156.76 226 159.2 226 159.2 L 225.3 159.2 Z M 225.3 157.4 C 225 157.3 224.7 157.3 224.5 157.3 C 224 157.3 223.4 157.4 223.4 158 C 223.4 158.5 223.8 158.7 224.2 158.7 C 224.6 158.7 224.9 158.5 225.3 158.2 C 225.3 158.2 225.3 157.4 225.3 157.4 Z M 228 159.2 L 227.3 159.2 L 227.3 153.2 L 228 153.2 L 228 159.2 Z M 234.3 158.9 C 234 159.1 233.5 159.3 233.1 159.3 C 231.9 159.3 231 158.5 231 157.2 C 231 156 231.9 155.1 233.1 155.1 C 233.5 155.1 233.9 155.2 234.2 155.4 C 234.2 155.4 233.9 156 233.9 156 C 233.7 155.9 233.4 155.8 233.1 155.8 C 232.4 155.8 231.8 156.4 231.8 157.2 C 231.8 158.1 232.4 158.6 233.1 158.6 C 233.3 158.6 233.7 158.5 233.9 158.3 C 233.9 158.3 234.3 158.9 234.3 158.9 Z M 238.9 157.2 C 238.9 158.4 238 159.3 236.9 159.3 C 235.7 159.3 234.8 158.4 234.8 157.2 C 234.8 156 235.7 155.1 236.9 155.1 C 238 155.1 238.9 156 238.9 157.2 Z M 236.9 155.8 C 236.1 155.8 235.6 156.4 235.6 157.2 C 235.6 158 236.1 158.6 236.9 158.6 C 237.6 158.6 238.2 158 238.2 157.2 C 238.2 156.4 237.6 155.8 236.9 155.8 Z M 240.6 159.2 L 239.9 159.2 L 239.9 153.2 L 240.6 153.2 L 240.6 159.2 Z M 242.7 159.2 L 242 159.2 L 242 153.2 L 242.7 153.2 L 242.7 159.2 Z M 244.4 157.4 C 244.5 158.1 245 158.7 245.7 158.7 C 246.3 158.7 246.7 158.5 246.9 158 C 246.9 158 247.4 158.4 247.4 158.4 C 247 159 246.5 159.3 245.7 159.3 C 244.4 159.3 243.7 158.4 243.7 157.2 C 243.7 156 244.6 155.1 245.7 155.1 C 246.8 155.1 247.5 155.9 247.5 157 C 247.5 157.1 247.5 157.3 247.5 157.4 C 247.5 157.4 244.4 157.4 244.4 157.4 Z M 244.5 156.8 C 244.5 156.8 246.8 156.8 246.8 156.8 C 246.7 156.2 246.3 155.7 245.7 155.7 C 245.1 155.7 244.6 156.2 244.5 156.8 Z M 251.5 158.9 C 251.2 159.1 250.7 159.3 250.2 159.3 C 249.1 159.3 248.2 158.5 248.2 157.2 C 248.2 156 249.1 155.1 250.3 155.1 C 250.7 155.1 251.1 155.2 251.4 155.4 C 251.4 155.4 251.1 156 251.1 156 C 250.8 155.9 250.5 155.8 250.2 155.8 C 249.5 155.8 248.9 156.4 248.9 157.2 C 248.9 158.1 249.6 158.6 250.3 158.6 C 250.5 158.6 250.9 158.5 251.1 158.3 C 251.1 158.3 251.5 158.9 251.5 158.9 Z M 253.2 155.8 C 253.2 155.8 253.22 157.64 253.2 157.6 C 253.2 157.7 253.2 157.8 253.2 158 C 253.2 158.4 253.4 158.6 253.8 158.6 C 253.9 158.6 254.1 158.6 254.2 158.5 C 254.2 158.5 254.4 159.1 254.4 159.1 C 254.2 159.2 254 159.3 253.7 159.3 C 253.1 159.3 252.8 159 252.6 158.6 C 252.5 158.4 252.5 158.1 252.5 157.8 C 252.49 157.81 252.5 155.8 252.5 155.8 L 252 155.8 L 252 155.2 L 252.5 155.2 L 252.5 154.2 L 253.2 154.2 L 253.2 155.2 L 254.3 155.2 L 254.3 155.8 L 253.2 155.8 Z M 255.2 159.2 L 255.2 155.2 L 255.9 155.2 L 255.9 159.2 L 255.2 159.2 Z M 255.2 154.4 L 255.2 153.6 L 255.9 153.6 L 255.9 154.4 L 255.2 154.4 Z M 261 157.2 C 261 158.4 260.2 159.3 259 159.3 C 257.8 159.3 257 158.4 257 157.2 C 257 156 257.8 155.1 259 155.1 C 260.2 155.1 261 156 261 157.2 Z M 259 155.8 C 258.2 155.8 257.7 156.4 257.7 157.2 C 257.7 158 258.2 158.6 259 158.6 C 259.7 158.6 260.3 158 260.3 157.2 C 260.3 156.4 259.7 155.8 259 155.8 Z M 262.8 155.2 C 262.8 155.2 262.77 155.85 262.8 155.8 C 263.1 155.4 263.5 155.1 264.1 155.1 C 264.6 155.1 265 155.3 265.2 155.6 C 265.5 156 265.6 156.5 265.6 157.1 C 265.59 157.11 265.6 159.2 265.6 159.2 L 264.9 159.2 C 264.9 159.2 264.86 157.19 264.9 157.2 C 264.9 156.8 264.8 156.4 264.7 156.1 C 264.5 155.9 264.3 155.8 264 155.8 C 263.5 155.8 263.1 156.1 262.8 156.5 C 262.77 156.53 262.8 159.2 262.8 159.2 L 262 159.2 L 262 155.2 L 262.8 155.2 Z M 272.6 157.2 C 272.6 158.4 271.8 159.3 270.6 159.3 C 269.4 159.3 268.6 158.4 268.6 157.2 C 268.6 156 269.4 155.1 270.6 155.1 C 271.8 155.1 272.6 156 272.6 157.2 Z M 270.6 155.8 C 269.8 155.8 269.3 156.4 269.3 157.2 C 269.3 158 269.8 158.6 270.6 158.6 C 271.3 158.6 271.9 158 271.9 157.2 C 271.9 156.4 271.3 155.8 270.6 155.8 Z M 275.7 153.9 C 275.5 153.8 275.4 153.8 275.2 153.8 C 275 153.8 274.8 153.8 274.7 153.9 C 274.5 154 274.5 154.3 274.5 154.7 C 274.52 154.69 274.5 155.2 274.5 155.2 L 275.6 155.2 L 275.6 155.8 L 274.5 155.8 L 274.5 159.2 L 273.8 159.2 L 273.8 155.8 L 273.3 155.8 L 273.3 155.2 L 273.8 155.2 C 273.8 155.2 273.79 154.61 273.8 154.6 C 273.8 154.2 273.9 153.8 274 153.6 C 274.2 153.3 274.6 153.1 275.1 153.1 C 275.4 153.1 275.7 153.2 275.9 153.3 C 275.9 153.3 275.7 153.9 275.7 153.9 Z M 279.1 153.2 C 279.1 153.2 279.06 155.73 279.1 155.7 C 279.4 155.3 279.9 155.1 280.3 155.1 C 281.5 155.1 282.3 156 282.3 157.2 C 282.3 158.3 281.5 159.3 280.3 159.3 C 279.8 159.3 279.4 159.1 279.1 158.8 C 279.06 158.76 279.1 159.2 279.1 159.2 L 278.3 159.2 L 278.3 153.2 L 279.1 153.2 Z M 279.1 158 C 279.3 158.4 279.8 158.6 280.2 158.6 C 281.2 158.6 281.6 157.9 281.6 157.2 C 281.6 156.4 281.1 155.8 280.2 155.8 C 279.8 155.8 279.3 156 279.1 156.5 C 279.1 156.5 279.1 158 279.1 158 Z M 283.7 157.4 C 283.8 158.1 284.3 158.7 285 158.7 C 285.6 158.7 286 158.5 286.2 158 C 286.2 158 286.7 158.4 286.7 158.4 C 286.3 159 285.8 159.3 285 159.3 C 283.7 159.3 283 158.4 283 157.2 C 283 156 283.9 155.1 285 155.1 C 286 155.1 286.8 155.9 286.8 157 C 286.8 157.1 286.8 157.3 286.8 157.4 C 286.8 157.4 283.7 157.4 283.7 157.4 Z M 283.8 156.8 C 283.8 156.8 286.1 156.8 286.1 156.8 C 286 156.2 285.6 155.7 285 155.7 C 284.4 155.7 283.9 156.2 283.8 156.8 Z M 288.6 155.2 C 288.6 155.2 288.55 155.85 288.6 155.8 C 288.8 155.4 289.3 155.1 289.9 155.1 C 290.4 155.1 290.8 155.3 291 155.6 C 291.3 156 291.4 156.5 291.4 157.1 C 291.37 157.11 291.4 159.2 291.4 159.2 L 290.6 159.2 C 290.6 159.2 290.65 157.19 290.6 157.2 C 290.6 156.8 290.6 156.4 290.4 156.1 C 290.3 155.9 290.1 155.8 289.7 155.8 C 289.3 155.8 288.8 156.1 288.6 156.5 C 288.55 156.53 288.6 159.2 288.6 159.2 L 287.8 159.2 L 287.8 155.2 L 288.6 155.2 Z M 295.6 158.9 C 295.3 159.1 294.9 159.3 294.4 159.3 C 293.2 159.3 292.3 158.5 292.3 157.2 C 292.3 156 293.3 155.1 294.4 155.1 C 294.8 155.1 295.2 155.2 295.6 155.4 C 295.6 155.4 295.2 156 295.2 156 C 295 155.9 294.7 155.8 294.4 155.8 C 293.7 155.8 293.1 156.4 293.1 157.2 C 293.1 158.1 293.7 158.6 294.4 158.6 C 294.7 158.6 295 158.5 295.2 158.3 C 295.2 158.3 295.6 158.9 295.6 158.9 Z M 297.2 155.8 C 297.5 155.4 298 155.1 298.5 155.1 C 299.1 155.1 299.4 155.3 299.7 155.6 C 299.9 156 300 156.5 300 157.1 C 300.02 157.11 300 159.2 300 159.2 L 299.3 159.2 C 299.3 159.2 299.3 157.19 299.3 157.2 C 299.3 156.8 299.3 156.4 299.1 156.1 C 299 155.9 298.7 155.8 298.4 155.8 C 297.9 155.8 297.5 156.1 297.2 156.5 C 297.2 156.53 297.2 159.2 297.2 159.2 L 296.5 159.2 L 296.5 153.2 L 297.2 153.2 C 297.2 153.2 297.2 155.85 297.2 155.8 Z M 301.7 157.4 C 301.8 158.1 302.2 158.7 303 158.7 C 303.5 158.7 304 158.5 304.2 158 C 304.2 158 304.7 158.4 304.7 158.4 C 304.3 159 303.8 159.3 303 159.3 C 301.7 159.3 301 158.4 301 157.2 C 301 156 301.9 155.1 303 155.1 C 304 155.1 304.8 155.9 304.8 157 C 304.8 157.1 304.8 157.3 304.8 157.4 C 304.8 157.4 301.7 157.4 301.7 157.4 Z M 301.8 156.8 C 301.8 156.8 304 156.8 304 156.8 C 304 156.2 303.6 155.7 303 155.7 C 302.3 155.7 301.9 156.2 301.8 156.8 Z M 307.8 156 C 307.6 155.8 307.2 155.7 307 155.7 C 306.6 155.7 306.4 155.9 306.4 156.2 C 306.4 156.5 306.7 156.7 307.1 156.8 C 307.6 157 308.3 157.3 308.3 158 C 308.3 158.9 307.6 159.3 306.8 159.3 C 306.3 159.3 305.8 159.1 305.5 158.7 C 305.5 158.7 306 158.3 306 158.3 C 306.2 158.5 306.5 158.7 306.9 158.7 C 307.2 158.7 307.6 158.5 307.6 158.1 C 307.6 157.8 307.2 157.6 306.8 157.4 C 306.3 157.2 305.7 157 305.7 156.3 C 305.7 155.5 306.3 155.1 307 155.1 C 307.4 155.1 307.9 155.2 308.2 155.5 C 308.2 155.5 307.8 156 307.8 156 Z M 309.3 159.2 L 309.3 158.3 L 310.2 158.3 L 310.2 159.2 L 309.3 159.2 Z " stroke="none" fill="#535a5d"/>  </g>  <g id="Polygon41169">    <path d="M 129.7 148.2 L 129.7 142.6 L 133 142.6 L 133 143.3 L 130.4 143.3 L 130.4 145 L 133 145 L 133 145.6 L 130.4 145.6 L 130.4 147.5 L 133 147.5 L 133 148.2 L 129.7 148.2 Z M 134.9 148.2 L 134.2 148.2 L 134.2 142.2 L 134.9 142.2 L 134.9 148.2 Z M 136.7 146.4 C 136.7 147.1 137.2 147.7 138 147.7 C 138.5 147.7 138.9 147.5 139.2 147 C 139.2 147 139.7 147.4 139.7 147.4 C 139.3 148 138.7 148.3 137.9 148.3 C 136.7 148.3 136 147.4 136 146.2 C 136 145 136.8 144.1 137.9 144.1 C 139 144.1 139.8 144.9 139.8 146 C 139.8 146.1 139.7 146.3 139.7 146.4 C 139.7 146.4 136.7 146.4 136.7 146.4 Z M 136.7 145.8 C 136.7 145.8 139 145.8 139 145.8 C 139 145.2 138.5 144.7 137.9 144.7 C 137.3 144.7 136.9 145.2 136.7 145.8 Z M 143.9 144.2 L 142.3 148.2 L 141.7 148.2 L 140.2 144.2 L 141 144.2 L 142 147.3 L 142 147.3 L 143.1 144.2 L 143.9 144.2 Z M 147 148.2 C 147 148.2 146.97 147.77 147 147.8 C 146.6 148.1 146.3 148.3 145.8 148.3 C 145 148.3 144.4 147.9 144.4 147.1 C 144.4 146.1 145.3 145.7 146.1 145.7 C 146.3 145.7 146.6 145.8 146.9 145.8 C 146.9 145.8 146.9 145.7 146.9 145.7 C 146.9 145.1 146.7 144.7 146 144.7 C 145.5 144.7 145 144.9 144.7 145.1 C 144.7 145.1 144.5 144.5 144.5 144.5 C 144.9 144.3 145.5 144.1 146.1 144.1 C 147.2 144.1 147.7 144.7 147.7 145.8 C 147.67 145.76 147.7 148.2 147.7 148.2 L 147 148.2 Z M 146.9 146.4 C 146.6 146.3 146.4 146.3 146.2 146.3 C 145.7 146.3 145.1 146.4 145.1 147 C 145.1 147.5 145.4 147.7 145.9 147.7 C 146.3 147.7 146.6 147.5 146.9 147.2 C 146.9 147.2 146.9 146.4 146.9 146.4 Z M 149.7 144.8 C 149.7 144.8 149.73 146.64 149.7 146.6 C 149.7 146.7 149.7 146.8 149.7 147 C 149.8 147.4 149.9 147.6 150.3 147.6 C 150.5 147.6 150.6 147.6 150.7 147.5 C 150.7 147.5 150.9 148.1 150.9 148.1 C 150.7 148.2 150.5 148.3 150.2 148.3 C 149.6 148.3 149.3 148 149.1 147.6 C 149 147.4 149 147.1 149 146.8 C 149.01 146.81 149 144.8 149 144.8 L 148.5 144.8 L 148.5 144.2 L 149 144.2 L 149 143.2 L 149.7 143.2 L 149.7 144.2 L 150.9 144.2 L 150.9 144.8 L 149.7 144.8 Z M 152.1 146.4 C 152.2 147.1 152.6 147.7 153.4 147.7 C 153.9 147.7 154.4 147.5 154.6 147 C 154.6 147 155.1 147.4 155.1 147.4 C 154.7 148 154.2 148.3 153.4 148.3 C 152.1 148.3 151.4 147.4 151.4 146.2 C 151.4 145 152.3 144.1 153.4 144.1 C 154.4 144.1 155.2 144.9 155.2 146 C 155.2 146.1 155.2 146.3 155.2 146.4 C 155.2 146.4 152.1 146.4 152.1 146.4 Z M 152.2 145.8 C 152.2 145.8 154.5 145.8 154.5 145.8 C 154.4 145.2 154 144.7 153.4 144.7 C 152.7 144.7 152.3 145.2 152.2 145.8 Z M 158.4 144.2 L 159.4 147.2 L 159.5 147.2 L 160.5 144.2 L 161.3 144.2 L 159.1 150 L 158.4 149.7 L 159.1 148.1 L 157.6 144.2 L 158.4 144.2 Z M 165.8 146.2 C 165.8 147.4 164.9 148.3 163.7 148.3 C 162.6 148.3 161.7 147.4 161.7 146.2 C 161.7 145 162.6 144.1 163.7 144.1 C 164.9 144.1 165.8 145 165.8 146.2 Z M 163.7 144.8 C 163 144.8 162.4 145.4 162.4 146.2 C 162.4 147 163 147.6 163.7 147.6 C 164.5 147.6 165 147 165 146.2 C 165 145.4 164.5 144.8 163.7 144.8 Z M 169.6 147.5 C 169.3 148 168.8 148.3 168.3 148.3 C 167.7 148.3 167.3 148.1 167.1 147.8 C 166.8 147.4 166.7 146.9 166.7 146.3 C 166.73 146.27 166.7 144.2 166.7 144.2 L 167.5 144.2 C 167.5 144.2 167.46 146.19 167.5 146.2 C 167.5 146.6 167.5 147 167.7 147.3 C 167.8 147.5 168 147.6 168.4 147.6 C 168.8 147.6 169.3 147.3 169.6 146.8 C 169.56 146.85 169.6 144.2 169.6 144.2 L 170.3 144.2 L 170.3 148.2 L 169.6 148.2 C 169.6 148.2 169.56 147.53 169.6 147.5 Z M 172.4 144.9 C 172.6 144.4 173 144.1 173.4 144.1 C 173.6 144.1 173.7 144.1 173.8 144.1 C 173.8 144.1 173.7 144.9 173.7 144.9 C 173.6 144.9 173.5 144.8 173.3 144.8 C 172.9 144.8 172.6 145.1 172.4 145.5 C 172.36 145.51 172.4 148.2 172.4 148.2 L 171.6 148.2 L 171.6 144.2 L 172.4 144.2 C 172.4 144.2 172.36 144.85 172.4 144.9 Z M 178.4 145 C 178.3 144.8 177.9 144.7 177.6 144.7 C 177.3 144.7 177 144.9 177 145.2 C 177 145.5 177.4 145.7 177.8 145.8 C 178.3 146 179 146.3 179 147 C 179 147.9 178.3 148.3 177.5 148.3 C 177 148.3 176.5 148.1 176.2 147.7 C 176.2 147.7 176.7 147.3 176.7 147.3 C 176.9 147.5 177.2 147.7 177.5 147.7 C 177.9 147.7 178.3 147.5 178.3 147.1 C 178.3 146.8 177.9 146.6 177.5 146.4 C 177 146.2 176.3 146 176.3 145.3 C 176.3 144.5 177 144.1 177.6 144.1 C 178.1 144.1 178.5 144.2 178.9 144.5 C 178.9 144.5 178.4 145 178.4 145 Z M 180.8 144.2 C 180.8 144.2 180.82 144.73 180.8 144.7 C 181.1 144.3 181.6 144.1 182.1 144.1 C 183.2 144.1 184.1 145 184.1 146.2 C 184.1 147.3 183.3 148.3 182.1 148.3 C 181.6 148.3 181.1 148.1 180.8 147.8 C 180.82 147.76 180.8 150.2 180.8 150.2 L 180.1 150.2 L 180.1 144.2 L 180.8 144.2 Z M 180.8 147 C 181.1 147.4 181.6 147.6 182 147.6 C 182.9 147.6 183.3 146.9 183.3 146.2 C 183.3 145.4 182.8 144.8 182 144.8 C 181.6 144.8 181 145 180.8 145.5 C 180.8 145.5 180.8 147 180.8 147 Z M 187.5 148.2 C 187.5 148.2 187.48 147.77 187.5 147.8 C 187.1 148.1 186.8 148.3 186.3 148.3 C 185.5 148.3 184.9 147.9 184.9 147.1 C 184.9 146.1 185.8 145.7 186.6 145.7 C 186.8 145.7 187.1 145.8 187.4 145.8 C 187.4 145.8 187.4 145.7 187.4 145.7 C 187.4 145.1 187.2 144.7 186.5 144.7 C 186 144.7 185.5 144.9 185.2 145.1 C 185.2 145.1 185 144.5 185 144.5 C 185.4 144.3 186 144.1 186.6 144.1 C 187.7 144.1 188.2 144.7 188.2 145.8 C 188.17 145.76 188.2 148.2 188.2 148.2 L 187.5 148.2 Z M 187.4 146.4 C 187.1 146.3 186.9 146.3 186.7 146.3 C 186.2 146.3 185.6 146.4 185.6 147 C 185.6 147.5 185.9 147.7 186.4 147.7 C 186.8 147.7 187.1 147.5 187.4 147.2 C 187.4 147.2 187.4 146.4 187.4 146.4 Z M 192.4 147.9 C 192.1 148.1 191.7 148.3 191.2 148.3 C 190 148.3 189.1 147.5 189.1 146.2 C 189.1 145 190.1 144.1 191.2 144.1 C 191.6 144.1 192 144.2 192.3 144.4 C 192.3 144.4 192 145 192 145 C 191.8 144.9 191.5 144.8 191.2 144.8 C 190.5 144.8 189.9 145.4 189.9 146.2 C 189.9 147.1 190.5 147.6 191.2 147.6 C 191.5 147.6 191.8 147.5 192 147.3 C 192 147.3 192.4 147.9 192.4 147.9 Z M 193.7 146.4 C 193.7 147.1 194.2 147.7 194.9 147.7 C 195.5 147.7 195.9 147.5 196.1 147 C 196.1 147 196.7 147.4 196.7 147.4 C 196.3 148 195.7 148.3 194.9 148.3 C 193.6 148.3 192.9 147.4 192.9 146.2 C 192.9 145 193.8 144.1 194.9 144.1 C 196 144.1 196.7 144.9 196.7 146 C 196.7 146.1 196.7 146.3 196.7 146.4 C 196.7 146.4 193.7 146.4 193.7 146.4 Z M 193.7 145.8 C 193.7 145.8 196 145.8 196 145.8 C 196 145.2 195.5 144.7 194.9 144.7 C 194.3 144.7 193.9 145.2 193.7 145.8 Z M 202.1 148.2 C 202.1 148.2 202.13 147.77 202.1 147.8 C 201.8 148.1 201.4 148.3 200.9 148.3 C 200.2 148.3 199.5 147.9 199.5 147.1 C 199.5 146.1 200.4 145.7 201.3 145.7 C 201.5 145.7 201.7 145.8 202.1 145.8 C 202.1 145.8 202.1 145.7 202.1 145.7 C 202.1 145.1 201.8 144.7 201.1 144.7 C 200.7 144.7 200.2 144.9 199.9 145.1 C 199.9 145.1 199.7 144.5 199.7 144.5 C 200.1 144.3 200.7 144.1 201.2 144.1 C 202.4 144.1 202.8 144.7 202.8 145.8 C 202.82 145.76 202.8 148.2 202.8 148.2 L 202.1 148.2 Z M 202.1 146.4 C 201.8 146.3 201.6 146.3 201.4 146.3 C 200.9 146.3 200.2 146.4 200.2 147 C 200.2 147.5 200.6 147.7 201 147.7 C 201.4 147.7 201.8 147.5 202.1 147.2 C 202.1 147.2 202.1 146.4 202.1 146.4 Z M 204.8 144.2 C 204.8 144.2 204.84 144.85 204.8 144.8 C 205.1 144.4 205.6 144.1 206.1 144.1 C 206.7 144.1 207.1 144.3 207.3 144.6 C 207.6 145 207.7 145.5 207.7 146.1 C 207.67 146.11 207.7 148.2 207.7 148.2 L 206.9 148.2 C 206.9 148.2 206.94 146.19 206.9 146.2 C 206.9 145.8 206.9 145.4 206.7 145.1 C 206.6 144.9 206.4 144.8 206 144.8 C 205.6 144.8 205.1 145.1 204.8 145.5 C 204.84 145.53 204.8 148.2 204.8 148.2 L 204.1 148.2 L 204.1 144.2 L 204.8 144.2 Z M 208.6 146.2 C 208.6 145.1 209.4 144.1 210.6 144.1 C 211.1 144.1 211.6 144.3 211.9 144.6 C 211.9 144.63 211.9 142.2 211.9 142.2 L 212.6 142.2 L 212.6 148.2 L 211.9 148.2 C 211.9 148.2 211.9 147.65 211.9 147.7 C 211.6 148.1 211.1 148.3 210.6 148.3 C 209.5 148.3 208.6 147.4 208.6 146.2 Z M 211.9 146.9 C 211.9 146.9 211.9 145.4 211.9 145.4 C 211.6 145 211.1 144.8 210.7 144.8 C 209.8 144.8 209.4 145.5 209.4 146.2 C 209.4 146.9 209.9 147.6 210.7 147.6 C 211.2 147.6 211.7 147.4 211.9 146.9 Z M 216.4 146.4 C 216.4 147.1 216.9 147.7 217.7 147.7 C 218.2 147.7 218.6 147.5 218.8 147 C 218.8 147 219.4 147.4 219.4 147.4 C 219 148 218.4 148.3 217.6 148.3 C 216.3 148.3 215.6 147.4 215.6 146.2 C 215.6 145 216.5 144.1 217.6 144.1 C 218.7 144.1 219.4 144.9 219.4 146 C 219.4 146.1 219.4 146.3 219.4 146.4 C 219.4 146.4 216.4 146.4 216.4 146.4 Z M 216.4 145.8 C 216.4 145.8 218.7 145.8 218.7 145.8 C 218.7 145.2 218.2 144.7 217.6 144.7 C 217 144.7 216.6 145.2 216.4 145.8 Z M 222.1 146.1 L 223.6 148.2 L 222.6 148.2 L 221.6 146.7 L 220.6 148.2 L 219.7 148.2 L 221.2 146.2 L 219.8 144.2 L 220.7 144.2 L 221.7 145.6 L 222.6 144.2 L 223.5 144.2 L 222.1 146.1 Z M 225 144.2 C 225 144.2 225 144.73 225 144.7 C 225.3 144.3 225.8 144.1 226.3 144.1 C 227.4 144.1 228.3 145 228.3 146.2 C 228.3 147.3 227.5 148.3 226.3 148.3 C 225.8 148.3 225.3 148.1 225 147.8 C 225 147.76 225 150.2 225 150.2 L 224.3 150.2 L 224.3 144.2 L 225 144.2 Z M 225 147 C 225.3 147.4 225.7 147.6 226.2 147.6 C 227.1 147.6 227.5 146.9 227.5 146.2 C 227.5 145.4 227 144.8 226.2 144.8 C 225.7 144.8 225.2 145 225 145.5 C 225 145.5 225 147 225 147 Z M 231.7 148.2 C 231.7 148.2 231.66 147.77 231.7 147.8 C 231.3 148.1 231 148.3 230.5 148.3 C 229.7 148.3 229 147.9 229 147.1 C 229 146.1 229.9 145.7 230.8 145.7 C 231 145.7 231.3 145.8 231.6 145.8 C 231.6 145.8 231.6 145.7 231.6 145.7 C 231.6 145.1 231.3 144.7 230.7 144.7 C 230.2 144.7 229.7 144.9 229.4 145.1 C 229.4 145.1 229.2 144.5 229.2 144.5 C 229.6 144.3 230.2 144.1 230.8 144.1 C 231.9 144.1 232.4 144.7 232.4 145.8 C 232.36 145.76 232.4 148.2 232.4 148.2 L 231.7 148.2 Z M 231.6 146.4 C 231.3 146.3 231.1 146.3 230.9 146.3 C 230.4 146.3 229.8 146.4 229.8 147 C 229.8 147.5 230.1 147.7 230.5 147.7 C 231 147.7 231.3 147.5 231.6 147.2 C 231.6 147.2 231.6 146.4 231.6 146.4 Z M 234.4 144.2 C 234.4 144.2 234.38 144.85 234.4 144.8 C 234.7 144.4 235.1 144.1 235.7 144.1 C 236.2 144.1 236.6 144.3 236.8 144.6 C 237.1 145 237.2 145.5 237.2 146.1 C 237.2 146.11 237.2 148.2 237.2 148.2 L 236.5 148.2 C 236.5 148.2 236.48 146.19 236.5 146.2 C 236.5 145.8 236.5 145.4 236.3 145.1 C 236.1 144.9 235.9 144.8 235.6 144.8 C 235.1 144.8 234.7 145.1 234.4 145.5 C 234.38 145.53 234.4 148.2 234.4 148.2 L 233.7 148.2 L 233.7 144.2 L 234.4 144.2 Z M 238.2 146.2 C 238.2 145.1 239 144.1 240.2 144.1 C 240.6 144.1 241.1 144.3 241.4 144.6 C 241.44 144.63 241.4 142.2 241.4 142.2 L 242.2 142.2 L 242.2 148.2 L 241.4 148.2 C 241.4 148.2 241.44 147.65 241.4 147.7 C 241.1 148.1 240.6 148.3 240.2 148.3 C 239 148.3 238.2 147.4 238.2 146.2 Z M 241.4 146.9 C 241.4 146.9 241.4 145.4 241.4 145.4 C 241.2 145 240.7 144.8 240.3 144.8 C 239.3 144.8 238.9 145.5 238.9 146.2 C 238.9 146.9 239.4 147.6 240.3 147.6 C 240.7 147.6 241.2 147.4 241.4 146.9 Z M 245.7 144.2 L 246.7 147.2 L 246.7 147.2 L 247.8 144.2 L 248.6 144.2 L 246.4 150 L 245.7 149.7 L 246.3 148.1 L 244.9 144.2 L 245.7 144.2 Z M 253.1 146.2 C 253.1 147.4 252.2 148.3 251 148.3 C 249.9 148.3 249 147.4 249 146.2 C 249 145 249.9 144.1 251 144.1 C 252.2 144.1 253.1 145 253.1 146.2 Z M 251 144.8 C 250.3 144.8 249.7 145.4 249.7 146.2 C 249.7 147 250.3 147.6 251 147.6 C 251.8 147.6 252.3 147 252.3 146.2 C 252.3 145.4 251.8 144.8 251 144.8 Z M 256.9 147.5 C 256.6 148 256.1 148.3 255.5 148.3 C 255 148.3 254.6 148.1 254.4 147.8 C 254.1 147.4 254 146.9 254 146.3 C 254.03 146.27 254 144.2 254 144.2 L 254.8 144.2 C 254.8 144.2 254.76 146.19 254.8 146.2 C 254.8 146.6 254.8 147 255 147.3 C 255.1 147.5 255.3 147.6 255.7 147.6 C 256.1 147.6 256.6 147.3 256.9 146.8 C 256.85 146.85 256.9 144.2 256.9 144.2 L 257.6 144.2 L 257.6 148.2 L 256.9 148.2 C 256.9 148.2 256.85 147.53 256.9 147.5 Z M 259.7 144.9 C 259.9 144.4 260.3 144.1 260.7 144.1 C 260.9 144.1 261 144.1 261.1 144.1 C 261.1 144.1 261 144.9 261 144.9 C 260.9 144.9 260.8 144.8 260.6 144.8 C 260.2 144.8 259.9 145.1 259.7 145.5 C 259.65 145.51 259.7 148.2 259.7 148.2 L 258.9 148.2 L 258.9 144.2 L 259.7 144.2 C 259.7 144.2 259.65 144.85 259.7 144.9 Z M 265.7 145 C 265.5 144.8 265.2 144.7 264.9 144.7 C 264.6 144.7 264.3 144.9 264.3 145.2 C 264.3 145.5 264.7 145.7 265.1 145.8 C 265.6 146 266.3 146.3 266.3 147 C 266.3 147.9 265.6 148.3 264.8 148.3 C 264.3 148.3 263.8 148.1 263.5 147.7 C 263.5 147.7 264 147.3 264 147.3 C 264.2 147.5 264.5 147.7 264.8 147.7 C 265.2 147.7 265.6 147.5 265.6 147.1 C 265.6 146.8 265.2 146.6 264.8 146.4 C 264.3 146.2 263.6 146 263.6 145.3 C 263.6 144.5 264.3 144.1 264.9 144.1 C 265.4 144.1 265.8 144.2 266.2 144.5 C 266.2 144.5 265.7 145 265.7 145 Z M 268.2 144.8 C 268.2 144.8 268.16 146.64 268.2 146.6 C 268.2 146.7 268.2 146.8 268.2 147 C 268.2 147.4 268.3 147.6 268.7 147.6 C 268.9 147.6 269 147.6 269.2 147.5 C 269.2 147.5 269.4 148.1 269.4 148.1 C 269.2 148.2 268.9 148.3 268.6 148.3 C 268.1 148.3 267.7 148 267.6 147.6 C 267.5 147.4 267.4 147.1 267.4 146.8 C 267.43 146.81 267.4 144.8 267.4 144.8 L 266.9 144.8 L 266.9 144.2 L 267.4 144.2 L 267.4 143.2 L 268.2 143.2 L 268.2 144.2 L 269.3 144.2 L 269.3 144.8 L 268.2 144.8 Z M 270.5 144.2 L 271.5 147.2 L 271.5 147.2 L 272.6 144.2 L 273.4 144.2 L 271.1 150 L 270.5 149.7 L 271.1 148.1 L 269.7 144.2 L 270.5 144.2 Z M 274.8 148.2 L 274.1 148.2 L 274.1 142.2 L 274.8 142.2 L 274.8 148.2 Z M 276.6 146.4 C 276.6 147.1 277.1 147.7 277.8 147.7 C 278.4 147.7 278.8 147.5 279 147 C 279 147 279.6 147.4 279.6 147.4 C 279.2 148 278.6 148.3 277.8 148.3 C 276.5 148.3 275.8 147.4 275.8 146.2 C 275.8 145 276.7 144.1 277.8 144.1 C 278.9 144.1 279.6 144.9 279.6 146 C 279.6 146.1 279.6 146.3 279.6 146.4 C 279.6 146.4 276.6 146.4 276.6 146.4 Z M 276.6 145.8 C 276.6 145.8 278.9 145.8 278.9 145.8 C 278.9 145.2 278.4 144.7 277.8 144.7 C 277.2 144.7 276.8 145.2 276.6 145.8 Z M 286.1 147.3 L 286.2 147.3 L 287 144.2 L 287.7 144.2 L 286.6 148.2 L 285.8 148.2 L 284.9 145.1 L 284.9 145.1 L 284 148.2 L 283.2 148.2 L 282.1 144.2 L 282.9 144.2 L 283.6 147.3 L 283.7 147.3 L 284.5 144.2 L 285.3 144.2 L 286.1 147.3 Z M 288.5 148.2 L 288.5 144.2 L 289.2 144.2 L 289.2 148.2 L 288.5 148.2 Z M 288.5 143.4 L 288.5 142.6 L 289.2 142.6 L 289.2 143.4 L 288.5 143.4 Z M 291.3 144.8 C 291.3 144.8 291.35 146.64 291.3 146.6 C 291.3 146.7 291.3 146.8 291.4 147 C 291.4 147.4 291.5 147.6 291.9 147.6 C 292.1 147.6 292.2 147.6 292.4 147.5 C 292.4 147.5 292.6 148.1 292.6 148.1 C 292.4 148.2 292.1 148.3 291.8 148.3 C 291.3 148.3 290.9 148 290.7 147.6 C 290.7 147.4 290.6 147.1 290.6 146.8 C 290.62 146.81 290.6 144.8 290.6 144.8 L 290.1 144.8 L 290.1 144.2 L 290.6 144.2 L 290.6 143.2 L 291.3 143.2 L 291.3 144.2 L 292.5 144.2 L 292.5 144.8 L 291.3 144.8 Z M 294.1 144.8 C 294.4 144.4 294.8 144.1 295.4 144.1 C 295.9 144.1 296.3 144.3 296.5 144.6 C 296.8 145 296.9 145.5 296.9 146.1 C 296.9 146.11 296.9 148.2 296.9 148.2 L 296.2 148.2 C 296.2 148.2 296.17 146.19 296.2 146.2 C 296.2 145.8 296.2 145.4 296 145.1 C 295.8 144.9 295.6 144.8 295.3 144.8 C 294.8 144.8 294.4 145.1 294.1 145.5 C 294.07 145.53 294.1 148.2 294.1 148.2 L 293.3 148.2 L 293.3 142.2 L 294.1 142.2 C 294.1 142.2 294.07 144.85 294.1 144.8 Z M 303.9 146.2 C 303.9 147.4 303.1 148.3 301.9 148.3 C 300.7 148.3 299.9 147.4 299.9 146.2 C 299.9 145 300.7 144.1 301.9 144.1 C 303.1 144.1 303.9 145 303.9 146.2 Z M 301.9 144.8 C 301.1 144.8 300.6 145.4 300.6 146.2 C 300.6 147 301.1 147.6 301.9 147.6 C 302.7 147.6 303.2 147 303.2 146.2 C 303.2 145.4 302.7 144.8 301.9 144.8 Z M 307.7 147.5 C 307.4 148 307 148.3 306.4 148.3 C 305.9 148.3 305.5 148.1 305.3 147.8 C 305 147.4 304.9 146.9 304.9 146.3 C 304.9 146.27 304.9 144.2 304.9 144.2 L 305.6 144.2 C 305.6 144.2 305.63 146.19 305.6 146.2 C 305.6 146.6 305.6 147 305.8 147.3 C 306 147.5 306.2 147.6 306.5 147.6 C 307 147.6 307.4 147.3 307.7 146.8 C 307.72 146.85 307.7 144.2 307.7 144.2 L 308.5 144.2 L 308.5 148.2 L 307.7 148.2 C 307.7 148.2 307.72 147.53 307.7 147.5 Z M 310.5 144.9 C 310.8 144.4 311.1 144.1 311.6 144.1 C 311.7 144.1 311.8 144.1 312 144.1 C 312 144.1 311.9 144.9 311.9 144.9 C 311.7 144.9 311.6 144.8 311.5 144.8 C 311.1 144.8 310.8 145.1 310.5 145.5 C 310.52 145.51 310.5 148.2 310.5 148.2 L 309.8 148.2 L 309.8 144.2 L 310.5 144.2 C 310.5 144.2 310.52 144.85 310.5 144.9 Z M 316.7 142.9 C 316.5 142.8 316.4 142.8 316.2 142.8 C 316 142.8 315.8 142.8 315.7 142.9 C 315.6 143 315.5 143.3 315.5 143.7 C 315.53 143.69 315.5 144.2 315.5 144.2 L 316.6 144.2 L 316.6 144.8 L 315.5 144.8 L 315.5 148.2 L 314.8 148.2 L 314.8 144.8 L 314.3 144.8 L 314.3 144.2 L 314.8 144.2 C 314.8 144.2 314.8 143.61 314.8 143.6 C 314.8 143.2 314.9 142.8 315.1 142.6 C 315.3 142.3 315.6 142.1 316.1 142.1 C 316.4 142.1 316.7 142.2 316.9 142.3 C 316.9 142.3 316.7 142.9 316.7 142.9 Z M 319.7 148.2 C 319.7 148.2 319.72 147.77 319.7 147.8 C 319.4 148.1 319 148.3 318.5 148.3 C 317.8 148.3 317.1 147.9 317.1 147.1 C 317.1 146.1 318 145.7 318.9 145.7 C 319.1 145.7 319.3 145.8 319.7 145.8 C 319.7 145.8 319.7 145.7 319.7 145.7 C 319.7 145.1 319.4 144.7 318.7 144.7 C 318.3 144.7 317.8 144.9 317.5 145.1 C 317.5 145.1 317.3 144.5 317.3 144.5 C 317.7 144.3 318.3 144.1 318.8 144.1 C 320 144.1 320.4 144.7 320.4 145.8 C 320.42 145.76 320.4 148.2 320.4 148.2 L 319.7 148.2 Z M 319.7 146.4 C 319.4 146.3 319.2 146.3 319 146.3 C 318.5 146.3 317.8 146.4 317.8 147 C 317.8 147.5 318.2 147.7 318.6 147.7 C 319 147.7 319.4 147.5 319.7 147.2 C 319.7 147.2 319.7 146.4 319.7 146.4 Z M 323.7 145 C 323.5 144.8 323.1 144.7 322.9 144.7 C 322.5 144.7 322.3 144.9 322.3 145.2 C 322.3 145.5 322.7 145.7 323 145.8 C 323.6 146 324.2 146.3 324.2 147 C 324.2 147.9 323.5 148.3 322.8 148.3 C 322.2 148.3 321.7 148.1 321.4 147.7 C 321.4 147.7 321.9 147.3 321.9 147.3 C 322.2 147.5 322.5 147.7 322.8 147.7 C 323.2 147.7 323.5 147.5 323.5 147.1 C 323.5 146.8 323.1 146.6 322.7 146.4 C 322.2 146.2 321.6 146 321.6 145.3 C 321.6 144.5 322.2 144.1 322.9 144.1 C 323.3 144.1 323.8 144.2 324.1 144.5 C 324.1 144.5 323.7 145 323.7 145 Z M 326.1 144.8 C 326.3 144.4 326.8 144.1 327.4 144.1 C 327.9 144.1 328.3 144.3 328.5 144.6 C 328.8 145 328.9 145.5 328.9 146.1 C 328.87 146.11 328.9 148.2 328.9 148.2 L 328.1 148.2 C 328.1 148.2 328.15 146.19 328.1 146.2 C 328.1 145.8 328.1 145.4 327.9 145.1 C 327.8 144.9 327.6 144.8 327.2 144.8 C 326.8 144.8 326.3 145.1 326.1 145.5 C 326.05 145.53 326.1 148.2 326.1 148.2 L 325.3 148.2 L 325.3 142.2 L 326.1 142.2 C 326.1 142.2 326.05 144.85 326.1 144.8 Z M 330.2 148.2 L 330.2 144.2 L 330.9 144.2 L 330.9 148.2 L 330.2 148.2 Z M 330.2 143.4 L 330.2 142.6 L 330.9 142.6 L 330.9 143.4 L 330.2 143.4 Z M 336 146.2 C 336 147.4 335.1 148.3 333.9 148.3 C 332.8 148.3 331.9 147.4 331.9 146.2 C 331.9 145 332.8 144.1 333.9 144.1 C 335.1 144.1 336 145 336 146.2 Z M 333.9 144.8 C 333.2 144.8 332.7 145.4 332.7 146.2 C 332.7 147 333.2 147.6 333.9 147.6 C 334.7 147.6 335.2 147 335.2 146.2 C 335.2 145.4 334.7 144.8 333.9 144.8 Z M 337.7 144.2 C 337.7 144.2 337.72 144.85 337.7 144.8 C 338 144.4 338.5 144.1 339 144.1 C 339.6 144.1 340 144.3 340.2 144.6 C 340.5 145 340.5 145.5 340.5 146.1 C 340.55 146.11 340.5 148.2 340.5 148.2 L 339.8 148.2 C 339.8 148.2 339.82 146.19 339.8 146.2 C 339.8 145.8 339.8 145.4 339.6 145.1 C 339.5 144.9 339.3 144.8 338.9 144.8 C 338.5 144.8 338 145.1 337.7 145.5 C 337.72 145.53 337.7 148.2 337.7 148.2 L 337 148.2 L 337 144.2 L 337.7 144.2 Z M 344.2 148.2 C 344.2 148.2 344.22 147.77 344.2 147.8 C 343.9 148.1 343.5 148.3 343 148.3 C 342.3 148.3 341.6 147.9 341.6 147.1 C 341.6 146.1 342.5 145.7 343.4 145.7 C 343.6 145.7 343.8 145.8 344.2 145.8 C 344.2 145.8 344.2 145.7 344.2 145.7 C 344.2 145.1 343.9 144.7 343.2 144.7 C 342.8 144.7 342.3 144.9 342 145.1 C 342 145.1 341.8 144.5 341.8 144.5 C 342.2 144.3 342.8 144.1 343.3 144.1 C 344.5 144.1 344.9 144.7 344.9 145.8 C 344.91 145.76 344.9 148.2 344.9 148.2 L 344.2 148.2 Z M 344.2 146.4 C 343.9 146.3 343.7 146.3 343.5 146.3 C 343 146.3 342.3 146.4 342.3 147 C 342.3 147.5 342.7 147.7 343.1 147.7 C 343.5 147.7 343.9 147.5 344.2 147.2 C 344.2 147.2 344.2 146.4 344.2 146.4 Z M 346.9 142.2 C 346.9 142.2 346.94 144.73 346.9 144.7 C 347.2 144.3 347.7 144.1 348.2 144.1 C 349.4 144.1 350.2 145 350.2 146.2 C 350.2 147.3 349.4 148.3 348.2 148.3 C 347.7 148.3 347.3 148.1 346.9 147.8 C 346.94 147.76 346.9 148.2 346.9 148.2 L 346.2 148.2 L 346.2 142.2 L 346.9 142.2 Z M 346.9 147 C 347.2 147.4 347.7 147.6 348.1 147.6 C 349 147.6 349.5 146.9 349.5 146.2 C 349.5 145.4 348.9 144.8 348.1 144.8 C 347.7 144.8 347.1 145 346.9 145.5 C 346.9 145.5 346.9 147 346.9 147 Z M 351.9 148.2 L 351.2 148.2 L 351.2 142.2 L 351.9 142.2 L 351.9 148.2 Z M 353.7 146.4 C 353.7 147.1 354.2 147.7 355 147.7 C 355.5 147.7 355.9 147.5 356.2 147 C 356.2 147 356.7 147.4 356.7 147.4 C 356.3 148 355.7 148.3 354.9 148.3 C 353.7 148.3 353 147.4 353 146.2 C 353 145 353.8 144.1 354.9 144.1 C 356 144.1 356.8 144.9 356.8 146 C 356.8 146.1 356.7 146.3 356.7 146.4 C 356.7 146.4 353.7 146.4 353.7 146.4 Z M 353.7 145.8 C 353.7 145.8 356 145.8 356 145.8 C 356 145.2 355.5 144.7 354.9 144.7 C 354.3 144.7 353.9 145.2 353.7 145.8 Z " stroke="none" fill="#535a5d"/>  </g>  <g id="Polygon41168">    <path d="M 130.7 101.2 C 129.8 101.2 129.2 101.6 129.2 102.3 C 129.2 103.1 130 103.4 131 103.7 C 132.3 104.1 133.8 104.7 133.8 106.5 C 133.8 108.5 132 109.3 130.5 109.3 C 129.2 109.3 128.2 108.9 127.2 107.9 C 127.2 107.9 128.2 107 128.2 107 C 129 107.8 129.6 108.1 130.5 108.1 C 131.4 108.1 132.3 107.7 132.3 106.6 C 132.3 105.7 131.4 105.4 130.3 105 C 129.1 104.6 127.8 104 127.8 102.5 C 127.8 100.7 129.1 99.9 130.6 99.9 C 131.7 99.9 132.6 100.3 133.5 100.9 C 133.5 100.9 132.6 101.9 132.6 101.9 C 132.2 101.5 131.4 101.2 130.7 101.2 Z M 136.3 109.2 L 136.3 100.1 L 141.8 100.1 L 141.8 101.3 L 137.6 101.3 L 137.6 103.9 L 141.8 103.9 L 141.8 105.1 L 137.6 105.1 L 137.6 108 L 141.8 108 L 141.8 109.2 L 136.3 109.2 Z M 147.1 101.3 L 147.1 109.2 L 145.7 109.2 L 145.7 101.3 L 143.5 101.3 L 143.5 100.1 L 149.4 100.1 L 149.4 101.3 L 147.1 101.3 Z M 154.5 101.3 L 154.5 109.2 L 153.1 109.2 L 153.1 101.3 L 150.9 101.3 L 150.9 100.1 L 156.8 100.1 L 156.8 101.3 L 154.5 101.3 Z M 158.8 109.2 L 158.8 100.1 L 160.2 100.1 L 160.2 108 L 164.1 108 L 164.1 109.2 L 158.8 109.2 Z M 166 109.2 L 166 100.1 L 171.6 100.1 L 171.6 101.3 L 167.4 101.3 L 167.4 103.9 L 171.6 103.9 L 171.6 105.1 L 167.4 105.1 L 167.4 108 L 171.6 108 L 171.6 109.2 L 166 109.2 Z M 178.1 109.2 L 178.1 100.1 L 179.5 100.1 L 179.5 109.2 L 178.1 109.2 Z M 188.7 109.2 L 183.9 102.7 L 183.9 109.2 L 182.5 109.2 L 182.5 100.1 L 183.8 100.1 L 188.6 106.6 L 188.6 100.1 L 190 100.1 L 190 109.2 L 188.7 109.2 Z M 195.7 101.3 L 195.7 109.2 L 194.3 109.2 L 194.3 101.3 L 192 101.3 L 192 100.1 L 197.9 100.1 L 197.9 101.3 L 195.7 101.3 Z M 204 101.2 C 202.1 101.2 200.8 102.7 200.8 104.6 C 200.8 106.6 202.1 108.1 204 108.1 C 205.9 108.1 207.2 106.6 207.2 104.6 C 207.2 102.7 205.9 101.2 204 101.2 Z M 204 109.3 C 201.3 109.3 199.3 107.2 199.3 104.6 C 199.3 102 201.3 99.9 204 99.9 C 206.6 99.9 208.7 102 208.7 104.6 C 208.7 107.2 206.6 109.3 204 109.3 Z M 217.9 100.1 C 219.3 100.1 221.1 100.8 221.1 102.7 C 221.1 104.3 220 105 218.9 105.3 C 218.91 105.29 221.8 109.2 221.8 109.2 L 220 109.2 L 217.3 105.4 L 216.6 105.4 L 216.6 109.2 L 215.2 109.2 L 215.2 100.1 C 215.2 100.1 217.9 100.09 217.9 100.1 Z M 216.6 104.2 C 216.6 104.2 217.59 104.17 217.6 104.2 C 218.7 104.2 219.6 103.8 219.6 102.8 C 219.6 101.9 218.9 101.3 217.8 101.3 C 217.84 101.31 216.6 101.3 216.6 101.3 L 216.6 104.2 Z M 223.8 109.2 L 223.8 100.1 L 229.4 100.1 L 229.4 101.3 L 225.2 101.3 L 225.2 103.9 L 229.4 103.9 L 229.4 105.1 L 225.2 105.1 L 225.2 108 L 229.4 108 L 229.4 109.2 L 223.8 109.2 Z M 233.4 105.4 L 233.4 109.2 L 232 109.2 L 232 100.1 L 236.8 100.1 L 236.8 101.3 L 233.4 101.3 L 233.4 104.1 L 236.8 104.1 L 236.8 105.4 L 233.4 105.4 Z M 239.1 109.2 L 239.1 100.1 L 240.5 100.1 L 240.5 109.2 L 239.1 109.2 Z M 249.7 109.2 L 244.9 102.7 L 244.9 109.2 L 243.6 109.2 L 243.6 100.1 L 244.8 100.1 L 249.6 106.6 L 249.6 100.1 L 251 100.1 L 251 109.2 L 249.7 109.2 Z M 254 109.2 L 254 100.1 L 259.5 100.1 L 259.5 101.3 L 255.4 101.3 L 255.4 103.9 L 259.5 103.9 L 259.5 105.1 L 255.4 105.1 L 255.4 108 L 259.5 108 L 259.5 109.2 L 254 109.2 Z M 262.2 100.1 C 262.2 100.1 264.68 100.09 264.7 100.1 C 267 100.1 269.6 101.3 269.6 104.6 C 269.6 108 267 109.2 264.6 109.2 C 264.56 109.19 262.2 109.2 262.2 109.2 L 262.2 100.1 Z M 264.5 101.3 C 264.46 101.31 263.6 101.3 263.6 101.3 L 263.6 108 C 263.6 108 263.95 107.97 263.9 108 C 266.4 108 268.1 107.2 268.1 104.7 C 268.1 102.5 266.8 101.3 264.5 101.3 Z M 278.8 100.1 C 280.2 100.1 282 100.8 282 102.7 C 282 104.3 280.9 105 279.8 105.3 C 279.81 105.29 282.7 109.2 282.7 109.2 L 280.9 109.2 L 278.2 105.4 L 277.5 105.4 L 277.5 109.2 L 276.1 109.2 L 276.1 100.1 C 276.1 100.1 278.81 100.09 278.8 100.1 Z M 277.5 104.2 C 277.5 104.2 278.5 104.17 278.5 104.2 C 279.6 104.2 280.5 103.8 280.5 102.8 C 280.5 101.9 279.8 101.3 278.7 101.3 C 278.74 101.31 277.5 101.3 277.5 101.3 L 277.5 104.2 Z M 284.7 109.2 L 284.7 100.1 L 290.3 100.1 L 290.3 101.3 L 286.1 101.3 L 286.1 103.9 L 290.3 103.9 L 290.3 105.1 L 286.1 105.1 L 286.1 108 L 290.3 108 L 290.3 109.2 L 284.7 109.2 Z M 292.9 109.2 L 292.9 100.1 L 294.3 100.1 L 294.3 108 L 298.2 108 L 298.2 109.2 L 292.9 109.2 Z M 305.5 107.3 L 301.7 107.3 L 301.1 109.2 L 299.5 109.2 L 303.1 100.1 L 304.3 100.1 L 307.7 109.2 L 306.1 109.2 L 305.5 107.3 Z M 302.2 106.1 L 305 106.1 L 303.6 102.2 L 303.6 102.2 L 302.2 106.1 Z M 313.8 104.6 L 317.2 109.2 L 315.4 109.2 L 312.9 105.7 L 310.4 109.2 L 308.6 109.2 L 312 104.6 L 308.7 100.1 L 310.6 100.1 L 313 103.5 L 315.4 100.1 L 317.1 100.1 L 313.8 104.6 Z M 324 107.3 L 320.3 107.3 L 319.6 109.2 L 318.1 109.2 L 321.6 100.1 L 322.8 100.1 L 326.3 109.2 L 324.7 109.2 L 324 107.3 Z M 320.7 106.1 L 323.6 106.1 L 322.2 102.2 L 322.1 102.2 L 320.7 106.1 Z M 330.5 101.3 L 330.5 109.2 L 329.1 109.2 L 329.1 101.3 L 326.8 101.3 L 326.8 100.1 L 332.8 100.1 L 332.8 101.3 L 330.5 101.3 Z M 334.8 109.2 L 334.8 100.1 L 336.2 100.1 L 336.2 109.2 L 334.8 109.2 Z M 343.5 101.2 C 341.6 101.2 340.3 102.7 340.3 104.6 C 340.3 106.6 341.6 108.1 343.5 108.1 C 345.4 108.1 346.7 106.6 346.7 104.6 C 346.7 102.7 345.4 101.2 343.5 101.2 Z M 343.5 109.3 C 340.8 109.3 338.8 107.2 338.8 104.6 C 338.8 102 340.8 99.9 343.5 99.9 C 346.1 99.9 348.2 102 348.2 104.6 C 348.2 107.2 346.1 109.3 343.5 109.3 Z M 357 109.2 L 352.2 102.7 L 352.2 109.2 L 350.8 109.2 L 350.8 100.1 L 352 100.1 L 356.8 106.6 L 356.8 100.1 L 358.2 100.1 L 358.2 109.2 L 357 109.2 Z " stroke="none" fill="#535a5d"/>  </g>  <g id="Polygon41167">    <path d="M 80.1 25.2 C 81 27.1 82 29 82.9 30.7 C 83.8 32.5 84.8 34.4 85.8 36.2 C 86 36 86.2 35.6 86.4 35.2 C 86.7 34.7 87 34.1 87.3 33.5 C 87.6 32.9 88 32.3 88.4 31.5 C 88.8 30.8 89.1 30.1 89.5 29.4 C 89.9 28.6 90.3 27.9 90.7 27.2 C 91.1 26.5 91.4 25.8 91.8 25.2 C 91.8 25.2 92 25.2 92 25.2 C 92.2 26.5 92.3 27.7 92.5 28.9 C 92.6 30.1 92.7 31.3 92.8 32.5 C 93 33.6 93.1 34.8 93.2 35.9 C 93.4 37 93.5 38.1 93.7 39.2 C 93.5 39.2 93.4 39.2 93.2 39.2 C 93.1 39.2 92.9 39.2 92.7 39.2 C 92.6 39.2 92.4 39.2 92.3 39.2 C 92.1 39.2 92 39.2 91.8 39.2 C 91.7 37.5 91.5 35.7 91.4 34.1 C 91.2 32.4 91 30.7 90.8 29 C 90.8 29 90.8 29 90.8 29 C 89.9 30.6 89 32.3 88.1 34 C 87.2 35.6 86.3 37.4 85.5 39.2 C 85.5 39.2 85.4 39.2 85.4 39.2 C 84.6 37.5 83.7 35.8 82.9 34.1 C 82 32.5 81.1 30.7 80.2 29 C 80.2 29 80.2 29 80.2 29 C 80.1 29.8 80 30.7 79.9 31.7 C 79.8 32.6 79.7 33.6 79.6 34.5 C 79.5 35.5 79.4 36.3 79.3 37.2 C 79.3 38 79.2 38.7 79.2 39.2 C 79 39.2 78.8 39.2 78.5 39.2 C 78.3 39.2 78 39.2 77.8 39.2 C 78 38.1 78.2 37 78.4 35.8 C 78.5 34.6 78.7 33.4 78.9 32.2 C 79.1 31 79.2 29.8 79.4 28.6 C 79.5 27.4 79.7 26.3 79.8 25.2 C 79.76 25.23 80.1 25.2 80.1 25.2 C 80.1 25.2 80.1 25.23 80.1 25.2 Z M 96.5 32.4 C 96.5 31.3 96.7 30.2 97 29.4 C 97.4 28.5 97.9 27.7 98.6 27.1 C 99.2 26.5 100 26 100.9 25.7 C 101.9 25.4 102.9 25.2 104 25.2 C 105.1 25.2 106.1 25.4 107 25.7 C 107.9 26 108.7 26.5 109.4 27.1 C 110 27.7 110.5 28.5 110.9 29.4 C 111.3 30.2 111.5 31.3 111.5 32.4 C 111.5 33.5 111.3 34.5 110.9 35.4 C 110.5 36.3 110 37.1 109.4 37.7 C 108.7 38.3 107.9 38.7 107 39 C 106.1 39.3 105.1 39.5 104 39.5 C 102.9 39.5 101.9 39.3 100.9 39 C 100 38.7 99.2 38.3 98.6 37.7 C 97.9 37.1 97.4 36.3 97 35.4 C 96.7 34.5 96.5 33.5 96.5 32.4 Z M 109.5 32.4 C 109.5 31.3 109.4 30.3 109.1 29.5 C 108.8 28.7 108.4 28 107.9 27.5 C 107.4 27 106.8 26.6 106.1 26.3 C 105.5 26.1 104.7 26 104 26 C 103.2 26 102.5 26.1 101.8 26.3 C 101.1 26.6 100.5 27 100 27.5 C 99.5 28 99.1 28.7 98.9 29.5 C 98.6 30.3 98.4 31.3 98.4 32.4 C 98.4 33.5 98.6 34.5 98.9 35.3 C 99.1 36.1 99.5 36.7 100 37.3 C 100.5 37.8 101.1 38.2 101.8 38.4 C 102.5 38.7 103.2 38.8 104 38.8 C 104.7 38.8 105.5 38.7 106.1 38.4 C 106.8 38.2 107.4 37.8 107.9 37.3 C 108.4 36.7 108.8 36.1 109.1 35.3 C 109.4 34.5 109.5 33.5 109.5 32.4 Z M 115.3 30.7 C 115.3 29.8 115.2 28.9 115.2 28.1 C 115.2 27.2 115.1 26.4 115.1 25.5 C 115.6 25.5 116.1 25.5 116.6 25.6 C 117.1 25.6 117.6 25.6 118.1 25.6 C 118.6 25.6 119.1 25.6 119.6 25.5 C 120.1 25.5 120.6 25.5 121.1 25.5 C 122.3 25.5 123.3 25.6 124.1 25.9 C 125 26.3 125.7 26.7 126.2 27.3 C 126.7 27.8 127.1 28.5 127.4 29.3 C 127.6 30.2 127.7 31.1 127.7 32.1 C 127.7 33.4 127.5 34.6 127 35.5 C 126.6 36.4 126 37.1 125.3 37.7 C 124.6 38.2 123.8 38.6 122.9 38.9 C 122.1 39.1 121.2 39.2 120.5 39.2 C 120 39.2 119.6 39.2 119.1 39.2 C 118.7 39.2 118.2 39.2 117.8 39.2 C 117.3 39.2 116.9 39.2 116.4 39.2 C 116 39.2 115.6 39.2 115.1 39.2 C 115.1 38.4 115.2 37.6 115.2 36.7 C 115.2 35.9 115.3 35 115.3 34.1 C 115.3 34.1 115.3 30.7 115.3 30.7 Z M 116.9 34.1 C 116.9 35.5 116.9 37 117 38.3 C 117.3 38.4 117.7 38.5 118.2 38.5 C 118.6 38.5 119.1 38.5 119.6 38.5 C 120.4 38.5 121.1 38.5 121.8 38.3 C 122.6 38.1 123.2 37.8 123.8 37.3 C 124.4 36.8 124.9 36.2 125.2 35.3 C 125.6 34.5 125.8 33.4 125.8 32.1 C 125.8 30.9 125.6 30 125.3 29.2 C 125.1 28.5 124.7 27.9 124.2 27.5 C 123.7 27 123.1 26.7 122.4 26.6 C 121.7 26.4 120.9 26.3 120.1 26.3 C 119.5 26.3 118.9 26.3 118.4 26.4 C 117.9 26.4 117.4 26.5 117 26.5 C 117 27.2 116.9 27.8 116.9 28.5 C 116.9 29.2 116.9 29.9 116.9 30.7 C 116.9 30.7 116.9 34.1 116.9 34.1 Z M 131.8 30.6 C 131.8 29.8 131.8 28.9 131.8 28 C 131.7 27.2 131.7 26.3 131.7 25.5 C 132.3 25.5 132.9 25.5 133.4 25.6 C 134 25.6 134.6 25.6 135.2 25.6 C 135.8 25.6 136.4 25.6 137 25.6 C 137.6 25.5 138.2 25.5 138.8 25.5 C 138.8 25.7 138.7 25.9 138.7 26.1 C 138.7 26.3 138.8 26.5 138.8 26.7 C 138.4 26.7 138 26.6 137.6 26.6 C 137.3 26.6 136.9 26.6 136.5 26.5 C 136.1 26.5 135.7 26.5 135.2 26.5 C 134.8 26.4 134.2 26.4 133.5 26.4 C 133.5 26.9 133.5 27.3 133.5 27.6 C 133.5 28 133.5 28.5 133.5 29 C 133.5 29.5 133.5 30 133.5 30.5 C 133.5 31 133.5 31.4 133.5 31.6 C 134.1 31.6 134.6 31.6 135.1 31.6 C 135.5 31.6 136 31.6 136.3 31.5 C 136.7 31.5 137.1 31.5 137.4 31.5 C 137.7 31.5 138 31.4 138.3 31.4 C 138.3 31.6 138.3 31.8 138.3 32 C 138.3 32.2 138.3 32.4 138.3 32.6 C 138 32.6 137.6 32.6 137.1 32.5 C 136.7 32.5 136.2 32.5 135.7 32.5 C 135.3 32.5 134.9 32.5 134.4 32.5 C 134 32.5 133.7 32.4 133.5 32.4 C 133.5 32.6 133.5 32.7 133.5 32.8 C 133.5 33 133.5 33.2 133.5 33.4 C 133.46 33.37 133.5 34.1 133.5 34.1 C 133.5 34.1 133.46 35.35 133.5 35.3 C 133.5 36.1 133.5 36.7 133.5 37.2 C 133.5 37.7 133.5 38.1 133.5 38.3 C 133.9 38.3 134.4 38.3 134.9 38.3 C 135.4 38.3 135.9 38.3 136.4 38.3 C 136.9 38.3 137.3 38.3 137.8 38.2 C 138.2 38.2 138.6 38.2 138.9 38.1 C 138.9 38.2 138.9 38.3 138.8 38.4 C 138.8 38.5 138.8 38.6 138.8 38.7 C 138.8 38.9 138.9 39.1 138.9 39.2 C 138.3 39.2 137.7 39.2 137.1 39.2 C 136.5 39.2 135.9 39.2 135.3 39.2 C 134.7 39.2 134.1 39.2 133.5 39.2 C 132.9 39.2 132.3 39.2 131.7 39.2 C 131.7 38.4 131.7 37.5 131.8 36.7 C 131.8 35.8 131.8 35 131.8 34.1 C 131.82 34.09 131.8 30.6 131.8 30.6 C 131.8 30.6 131.82 30.65 131.8 30.6 Z M 142.8 30.7 C 142.8 29.8 142.8 28.9 142.8 28.1 C 142.7 27.2 142.7 26.4 142.7 25.5 C 143 25.5 143.4 25.5 143.8 25.6 C 144.2 25.6 144.6 25.6 144.9 25.6 C 145.3 25.6 145.7 25.6 146.1 25.5 C 146.5 25.5 146.8 25.5 147.2 25.5 C 147.8 25.5 148.3 25.5 148.8 25.6 C 149.3 25.8 149.8 25.9 150.1 26.2 C 150.5 26.4 150.8 26.7 151 27.1 C 151.3 27.5 151.4 28 151.4 28.6 C 151.4 29.3 151.2 29.8 150.9 30.3 C 150.7 30.8 150.3 31.1 149.9 31.4 C 149.5 31.7 149 32 148.6 32.1 C 148.1 32.3 147.7 32.4 147.3 32.5 C 147.4 32.7 147.7 32.9 147.9 33.3 C 148.2 33.7 148.5 34.1 148.9 34.5 C 149.2 34.9 149.6 35.4 150 35.9 C 150.3 36.3 150.7 36.8 151 37.2 C 151.4 37.7 151.7 38 152 38.4 C 152.3 38.8 152.6 39 152.8 39.2 C 152.6 39.2 152.4 39.2 152.2 39.2 C 152 39.2 151.8 39.2 151.6 39.2 C 151.4 39.2 151.2 39.2 151 39.2 C 150.8 39.2 150.6 39.2 150.4 39.2 C 150.2 38.9 149.9 38.5 149.5 38 C 149.1 37.4 148.6 36.8 148.1 36.2 C 147.6 35.5 147.1 34.9 146.6 34.3 C 146.1 33.6 145.6 33.1 145.2 32.6 C 145.22 32.65 144.5 32.6 144.5 32.6 C 144.5 32.6 144.46 34.11 144.5 34.1 C 144.5 35 144.5 35.9 144.5 36.7 C 144.5 37.6 144.6 38.4 144.6 39.2 C 144.3 39.2 144 39.2 143.6 39.2 C 143.3 39.2 143 39.2 142.7 39.2 C 142.7 38.4 142.7 37.6 142.8 36.7 C 142.8 35.9 142.8 35 142.8 34.1 C 142.8 34.1 142.8 30.7 142.8 30.7 Z M 144.5 31.8 C 144.6 31.8 144.8 31.9 145.1 31.9 C 145.3 31.9 145.5 31.9 145.8 31.9 C 146.2 31.9 146.6 31.9 147.1 31.8 C 147.5 31.7 147.9 31.5 148.3 31.3 C 148.7 31 149 30.7 149.2 30.3 C 149.5 29.9 149.6 29.4 149.6 28.8 C 149.6 28.3 149.5 27.9 149.3 27.6 C 149.1 27.2 148.9 26.9 148.6 26.7 C 148.3 26.5 147.9 26.4 147.6 26.3 C 147.2 26.3 146.9 26.2 146.5 26.2 C 146.1 26.2 145.7 26.2 145.4 26.3 C 145.1 26.3 144.8 26.3 144.6 26.3 C 144.6 27.1 144.5 27.8 144.5 28.5 C 144.5 29.2 144.5 29.9 144.5 30.7 C 144.5 30.7 144.5 31.8 144.5 31.8 Z M 167.3 39.5 C 165.8 37.7 164.1 35.9 162.4 34 C 160.7 32.2 158.9 30.3 157.2 28.5 C 157.2 28.9 157.2 29.4 157.2 30 C 157.1 30.6 157.1 31.5 157.1 32.5 C 157.1 32.8 157.1 33.2 157.1 33.6 C 157.2 34 157.2 34.4 157.2 34.9 C 157.2 35.3 157.2 35.8 157.2 36.3 C 157.2 36.7 157.2 37.2 157.2 37.6 C 157.3 38 157.3 38.3 157.3 38.6 C 157.3 38.9 157.3 39.1 157.3 39.2 C 157.1 39.2 156.9 39.2 156.6 39.2 C 156.4 39.2 156.1 39.2 155.9 39.2 C 155.9 39.1 155.9 38.8 156 38.5 C 156 38.1 156 37.7 156.1 37.2 C 156.1 36.7 156.1 36.2 156.1 35.6 C 156.2 35 156.2 34.4 156.2 33.8 C 156.2 33.2 156.3 32.6 156.3 32.1 C 156.3 31.5 156.3 31 156.3 30.6 C 156.3 29.3 156.3 28.2 156.3 27.3 C 156.3 26.4 156.3 25.7 156.2 25.2 C 156.2 25.2 156.6 25.2 156.6 25.2 C 157.4 26.1 158.2 27.1 159.2 28.1 C 160.1 29.1 161 30.1 161.9 31 C 162.8 32 163.7 32.9 164.5 33.8 C 165.3 34.7 166.1 35.4 166.7 36 C 166.7 36 166.7 33.3 166.7 33.3 C 166.7 31.9 166.7 30.6 166.6 29.2 C 166.6 27.9 166.6 26.7 166.5 25.5 C 166.8 25.6 167 25.6 167.2 25.6 C 167.4 25.6 167.6 25.6 167.8 25.5 C 167.8 25.8 167.8 26.2 167.7 26.8 C 167.7 27.4 167.7 28 167.6 28.7 C 167.6 29.4 167.6 30 167.6 30.6 C 167.5 31.3 167.5 31.8 167.5 32.2 C 167.5 32.5 167.5 32.9 167.5 33.4 C 167.5 33.8 167.5 34.3 167.5 34.8 C 167.5 35.3 167.5 35.8 167.5 36.3 C 167.6 36.8 167.6 37.3 167.6 37.7 C 167.6 38.1 167.6 38.5 167.6 38.8 C 167.6 39.1 167.6 39.3 167.6 39.5 C 167.58 39.49 167.3 39.5 167.3 39.5 C 167.3 39.5 167.3 39.49 167.3 39.5 Z M 180.6 33 C 180.9 33 181.3 33 181.7 33 C 182.1 33 182.4 33 182.8 33 C 183.1 33 183.5 33 183.9 33 C 184.3 33 184.6 33 185 33 C 185 33.01 182.8 27.9 182.8 27.9 C 182.8 27.9 180.6 33.01 180.6 33 Z M 189.5 39.2 C 189.3 39.2 189.1 39.2 188.9 39.2 C 188.8 39.2 188.6 39.2 188.4 39.2 C 188.2 39.2 188 39.2 187.9 39.2 C 187.7 39.2 187.5 39.2 187.3 39.2 C 187.2 38.9 187.1 38.6 187 38.1 C 186.8 37.7 186.6 37.2 186.4 36.8 C 186.2 36.3 186 35.8 185.8 35.3 C 185.6 34.8 185.5 34.4 185.3 33.9 C 184.9 33.9 184.4 33.9 184 33.9 C 183.5 33.9 183.1 33.9 182.7 33.9 C 182.2 33.9 181.8 33.9 181.4 33.9 C 181 33.9 180.6 33.9 180.2 33.9 C 179.8 35 179.4 36 179.1 36.9 C 178.7 37.8 178.5 38.6 178.3 39.2 C 178.1 39.2 177.8 39.2 177.5 39.2 C 177.3 39.2 177 39.2 176.8 39.2 C 177.9 36.9 178.9 34.6 180 32.3 C 181 30 182 27.6 183.1 25.2 C 183.1 25.2 183.4 25.2 183.4 25.2 C 183.8 26 184.1 26.8 184.5 27.7 C 184.9 28.6 185.2 29.5 185.6 30.5 C 186 31.4 186.4 32.3 186.8 33.2 C 187.2 34.1 187.5 35 187.9 35.7 C 188.2 36.5 188.5 37.2 188.8 37.8 C 189.1 38.4 189.3 38.9 189.5 39.2 Z M 192.8 30.7 C 192.8 29.8 192.7 28.9 192.7 28.1 C 192.7 27.2 192.6 26.4 192.6 25.5 C 193 25.5 193.4 25.5 193.7 25.6 C 194.1 25.6 194.5 25.6 194.9 25.6 C 195.3 25.6 195.6 25.6 196 25.5 C 196.4 25.5 196.8 25.5 197.2 25.5 C 197.7 25.5 198.3 25.5 198.8 25.6 C 199.3 25.8 199.7 25.9 200.1 26.2 C 200.5 26.4 200.8 26.7 201 27.1 C 201.2 27.5 201.3 28 201.3 28.6 C 201.3 29.3 201.2 29.8 200.9 30.3 C 200.6 30.8 200.3 31.1 199.8 31.4 C 199.4 31.7 199 32 198.5 32.1 C 198 32.3 197.6 32.4 197.2 32.5 C 197.4 32.7 197.6 32.9 197.9 33.3 C 198.2 33.7 198.5 34.1 198.8 34.5 C 199.2 34.9 199.5 35.4 199.9 35.9 C 200.3 36.3 200.6 36.8 201 37.2 C 201.3 37.7 201.7 38 202 38.4 C 202.3 38.8 202.5 39 202.7 39.2 C 202.5 39.2 202.3 39.2 202.1 39.2 C 201.9 39.2 201.7 39.2 201.5 39.2 C 201.3 39.2 201.1 39.2 200.9 39.2 C 200.7 39.2 200.5 39.2 200.3 39.2 C 200.1 38.9 199.8 38.5 199.4 38 C 199 37.4 198.6 36.8 198.1 36.2 C 197.6 35.5 197.1 34.9 196.6 34.3 C 196.1 33.6 195.6 33.1 195.2 32.6 C 195.16 32.65 194.4 32.6 194.4 32.6 C 194.4 32.6 194.4 34.11 194.4 34.1 C 194.4 35 194.4 35.9 194.4 36.7 C 194.5 37.6 194.5 38.4 194.6 39.2 C 194.3 39.2 193.9 39.2 193.6 39.2 C 193.2 39.2 192.9 39.2 192.6 39.2 C 192.6 38.4 192.7 37.6 192.7 36.7 C 192.7 35.9 192.8 35 192.8 34.1 C 192.8 34.1 192.8 30.7 192.8 30.7 Z M 194.4 31.8 C 194.6 31.8 194.8 31.9 195 31.9 C 195.2 31.9 195.5 31.9 195.7 31.9 C 196.2 31.9 196.6 31.9 197 31.8 C 197.5 31.7 197.9 31.5 198.3 31.3 C 198.6 31 198.9 30.7 199.2 30.3 C 199.4 29.9 199.6 29.4 199.6 28.8 C 199.6 28.3 199.5 27.9 199.3 27.6 C 199.1 27.2 198.8 26.9 198.5 26.7 C 198.2 26.5 197.9 26.4 197.5 26.3 C 197.2 26.3 196.8 26.2 196.5 26.2 C 196 26.2 195.6 26.2 195.3 26.3 C 195 26.3 194.7 26.3 194.5 26.3 C 194.5 27.1 194.5 27.8 194.4 28.5 C 194.4 29.2 194.4 29.9 194.4 30.7 C 194.4 30.7 194.4 31.8 194.4 31.8 Z M 208.4 30.7 C 208.4 29.3 208.4 27.9 208.3 26.5 C 208 26.5 207.6 26.5 207.2 26.5 C 206.9 26.5 206.5 26.6 206.1 26.6 C 205.7 26.6 205.4 26.6 205 26.6 C 204.7 26.7 204.3 26.7 204.1 26.7 C 204.1 26.5 204.2 26.3 204.2 26.1 C 204.2 26 204.1 25.8 204.1 25.5 C 204.9 25.5 205.8 25.5 206.6 25.6 C 207.5 25.6 208.3 25.6 209.2 25.6 C 210.1 25.6 211 25.6 211.8 25.6 C 212.6 25.5 213.5 25.5 214.4 25.5 C 214.3 25.8 214.3 26 214.3 26.1 C 214.3 26.3 214.3 26.5 214.4 26.7 C 214.1 26.7 213.8 26.7 213.4 26.6 C 213.1 26.6 212.7 26.6 212.3 26.6 C 211.9 26.6 211.6 26.5 211.2 26.5 C 210.8 26.5 210.4 26.5 210.1 26.5 C 210.1 27.9 210 29.3 210 30.7 C 210 30.7 210 34.1 210 34.1 C 210 35 210.1 35.9 210.1 36.7 C 210.1 37.6 210.2 38.4 210.2 39.2 C 209.9 39.2 209.6 39.2 209.2 39.2 C 208.9 39.2 208.5 39.2 208.2 39.2 C 208.3 38.4 208.3 37.6 208.3 36.7 C 208.4 35.9 208.4 35 208.4 34.1 C 208.4 34.11 208.4 30.7 208.4 30.7 C 208.4 30.7 208.4 30.67 208.4 30.7 Z M 217.7 30.7 C 217.7 29.8 217.7 28.9 217.7 28.1 C 217.7 27.2 217.6 26.4 217.6 25.5 C 217.8 25.5 217.9 25.5 218.1 25.6 C 218.2 25.6 218.4 25.6 218.6 25.6 C 218.7 25.6 218.9 25.6 219 25.6 C 219.2 25.5 219.4 25.5 219.5 25.5 C 219.5 26.4 219.5 27.2 219.4 28.1 C 219.4 28.9 219.4 29.8 219.4 30.7 C 219.4 30.7 219.4 34.1 219.4 34.1 C 219.4 35 219.4 35.9 219.4 36.7 C 219.5 37.6 219.5 38.4 219.5 39.2 C 219.2 39.2 218.9 39.2 218.6 39.2 C 218.2 39.2 217.9 39.2 217.6 39.2 C 217.6 38.4 217.7 37.6 217.7 36.7 C 217.7 35.9 217.7 35 217.7 34.1 C 217.74 34.11 217.7 30.7 217.7 30.7 C 217.7 30.7 217.74 30.67 217.7 30.7 Z M 223.9 36.6 C 224 36.9 224.1 37.1 224.3 37.4 C 224.5 37.6 224.7 37.8 224.9 38 C 225.2 38.2 225.5 38.4 225.9 38.5 C 226.2 38.6 226.6 38.7 227 38.7 C 227.5 38.7 227.9 38.6 228.2 38.5 C 228.6 38.3 228.9 38.1 229.1 37.9 C 229.4 37.6 229.5 37.3 229.7 36.9 C 229.8 36.6 229.9 36.2 229.9 35.8 C 229.9 35.2 229.7 34.7 229.4 34.3 C 229.1 34 228.7 33.7 228.2 33.4 C 227.8 33.2 227.3 33 226.7 32.8 C 226.2 32.6 225.7 32.3 225.2 32 C 224.8 31.7 224.4 31.4 224 30.9 C 223.7 30.4 223.6 29.8 223.6 29 C 223.6 28.4 223.7 27.9 223.9 27.5 C 224.1 27 224.4 26.6 224.7 26.3 C 225.1 26 225.6 25.7 226.1 25.5 C 226.7 25.3 227.3 25.2 227.9 25.2 C 228.6 25.2 229.1 25.3 229.6 25.5 C 230 25.6 230.5 25.8 230.9 26.2 C 230.8 26.4 230.7 26.6 230.6 26.9 C 230.5 27.1 230.4 27.5 230.3 27.8 C 230.3 27.8 230.1 27.8 230.1 27.8 C 230 27.7 229.9 27.5 229.8 27.2 C 229.7 27 229.6 26.8 229.4 26.6 C 229.2 26.4 228.9 26.3 228.7 26.2 C 228.4 26 228.1 26 227.7 26 C 227.3 26 227 26 226.7 26.1 C 226.4 26.3 226.1 26.4 225.9 26.7 C 225.6 26.9 225.5 27.1 225.3 27.4 C 225.2 27.8 225.1 28.1 225.1 28.4 C 225.1 29.1 225.3 29.6 225.6 29.9 C 225.9 30.3 226.3 30.6 226.8 30.8 C 227.2 31.1 227.7 31.3 228.3 31.5 C 228.8 31.7 229.3 31.9 229.8 32.2 C 230.3 32.5 230.7 32.8 231 33.3 C 231.3 33.7 231.4 34.3 231.4 35 C 231.4 35.7 231.3 36.2 231.1 36.8 C 230.9 37.3 230.6 37.8 230.1 38.2 C 229.7 38.6 229.2 38.9 228.6 39.2 C 228 39.4 227.3 39.5 226.5 39.5 C 225.7 39.5 225 39.4 224.5 39.2 C 224 38.9 223.6 38.7 223.2 38.4 C 223.4 38.1 223.4 37.8 223.5 37.6 C 223.5 37.3 223.6 37 223.6 36.6 C 223.62 36.63 223.9 36.6 223.9 36.6 C 223.9 36.6 223.86 36.63 223.9 36.6 Z M 238.1 30.7 C 238.1 29.3 238.1 27.9 238 26.5 C 237.7 26.5 237.3 26.5 236.9 26.5 C 236.5 26.5 236.2 26.6 235.8 26.6 C 235.4 26.6 235 26.6 234.7 26.6 C 234.3 26.7 234 26.7 233.7 26.7 C 233.8 26.5 233.8 26.3 233.8 26.1 C 233.8 26 233.8 25.8 233.7 25.5 C 234.6 25.5 235.5 25.5 236.3 25.6 C 237.2 25.6 238 25.6 238.9 25.6 C 239.8 25.6 240.6 25.6 241.5 25.6 C 242.3 25.5 243.2 25.5 244.1 25.5 C 244 25.8 244 26 244 26.1 C 244 26.3 244 26.5 244.1 26.7 C 243.8 26.7 243.5 26.7 243.1 26.6 C 242.8 26.6 242.4 26.6 242 26.6 C 241.6 26.6 241.2 26.5 240.9 26.5 C 240.5 26.5 240.1 26.5 239.8 26.5 C 239.7 27.9 239.7 29.3 239.7 30.7 C 239.7 30.7 239.7 34.1 239.7 34.1 C 239.7 35 239.7 35.9 239.8 36.7 C 239.8 37.6 239.8 38.4 239.9 39.2 C 239.6 39.2 239.2 39.2 238.9 39.2 C 238.6 39.2 238.2 39.2 237.9 39.2 C 238 38.4 238 37.6 238 36.7 C 238.1 35.9 238.1 35 238.1 34.1 C 238.08 34.11 238.1 30.7 238.1 30.7 C 238.1 30.7 238.08 30.67 238.1 30.7 Z M 247.4 30.7 C 247.4 29.8 247.4 28.9 247.4 28.1 C 247.3 27.2 247.3 26.4 247.3 25.5 C 247.6 25.5 248 25.5 248.4 25.6 C 248.8 25.6 249.2 25.6 249.5 25.6 C 249.9 25.6 250.3 25.6 250.7 25.5 C 251.1 25.5 251.4 25.5 251.8 25.5 C 252.4 25.5 252.9 25.5 253.4 25.6 C 253.9 25.8 254.4 25.9 254.7 26.2 C 255.1 26.4 255.4 26.7 255.6 27.1 C 255.9 27.5 256 28 256 28.6 C 256 29.3 255.8 29.8 255.5 30.3 C 255.3 30.8 254.9 31.1 254.5 31.4 C 254.1 31.7 253.6 32 253.2 32.1 C 252.7 32.3 252.3 32.4 251.9 32.5 C 252 32.7 252.3 32.9 252.5 33.3 C 252.8 33.7 253.1 34.1 253.5 34.5 C 253.8 34.9 254.2 35.4 254.6 35.9 C 254.9 36.3 255.3 36.8 255.6 37.2 C 256 37.7 256.3 38 256.6 38.4 C 256.9 38.8 257.2 39 257.4 39.2 C 257.2 39.2 257 39.2 256.8 39.2 C 256.6 39.2 256.4 39.2 256.2 39.2 C 256 39.2 255.8 39.2 255.6 39.2 C 255.4 39.2 255.2 39.2 255 39.2 C 254.8 38.9 254.5 38.5 254.1 38 C 253.7 37.4 253.2 36.8 252.7 36.2 C 252.2 35.5 251.7 34.9 251.2 34.3 C 250.7 33.6 250.2 33.1 249.8 32.6 C 249.82 32.65 249.1 32.6 249.1 32.6 C 249.1 32.6 249.06 34.11 249.1 34.1 C 249.1 35 249.1 35.9 249.1 36.7 C 249.1 37.6 249.2 38.4 249.2 39.2 C 248.9 39.2 248.6 39.2 248.2 39.2 C 247.9 39.2 247.6 39.2 247.3 39.2 C 247.3 38.4 247.3 37.6 247.4 36.7 C 247.4 35.9 247.4 35 247.4 34.1 C 247.4 34.1 247.4 30.7 247.4 30.7 Z M 249.1 31.8 C 249.2 31.8 249.4 31.9 249.7 31.9 C 249.9 31.9 250.1 31.9 250.4 31.9 C 250.8 31.9 251.2 31.9 251.7 31.8 C 252.1 31.7 252.5 31.5 252.9 31.3 C 253.3 31 253.6 30.7 253.8 30.3 C 254.1 29.9 254.2 29.4 254.2 28.8 C 254.2 28.3 254.1 27.9 253.9 27.6 C 253.7 27.2 253.5 26.9 253.2 26.7 C 252.9 26.5 252.5 26.4 252.2 26.3 C 251.8 26.3 251.5 26.2 251.1 26.2 C 250.7 26.2 250.3 26.2 250 26.3 C 249.7 26.3 249.4 26.3 249.2 26.3 C 249.2 27.1 249.1 27.8 249.1 28.5 C 249.1 29.2 249.1 29.9 249.1 30.7 C 249.1 30.7 249.1 31.8 249.1 31.8 Z M 263.2 33.6 C 263.1 33.4 262.9 33.1 262.6 32.6 C 262.4 32.2 262.1 31.7 261.8 31.2 C 261.5 30.7 261.1 30.1 260.8 29.5 C 260.5 28.9 260.1 28.4 259.8 27.9 C 259.5 27.3 259.2 26.9 259 26.4 C 258.7 26 258.5 25.7 258.4 25.5 C 258.6 25.5 258.7 25.5 258.9 25.6 C 259.1 25.6 259.3 25.6 259.5 25.6 C 259.7 25.6 259.8 25.6 260 25.6 C 260.2 25.5 260.4 25.5 260.6 25.5 C 261.2 26.6 261.8 27.8 262.4 28.9 C 263 30 263.7 31.2 264.4 32.4 C 264.7 31.9 265 31.4 265.3 30.8 C 265.7 30.3 266 29.7 266.3 29.1 C 266.7 28.5 267 27.9 267.3 27.3 C 267.6 26.7 267.9 26.1 268.2 25.5 C 268.5 25.6 268.8 25.6 268.9 25.6 C 269.1 25.6 269.4 25.6 269.7 25.5 C 269.1 26.5 268.5 27.3 268 28.1 C 267.5 28.9 267 29.6 266.7 30.3 C 266.3 30.9 265.9 31.5 265.6 32 C 265.3 32.5 265.1 33 264.9 33.4 C 264.9 33.9 264.9 34.4 264.9 35 C 264.9 35.5 264.9 36.1 264.9 36.6 C 264.9 37.2 264.9 37.7 265 38.1 C 265 38.6 265 38.9 265 39.2 C 264.7 39.2 264.4 39.2 264.1 39.2 C 263.7 39.2 263.4 39.2 263.1 39.2 C 263.2 38.5 263.2 37.7 263.2 36.7 C 263.2 35.7 263.2 34.7 263.2 33.6 Z M 281 30.7 C 281 29.3 281 27.9 280.9 26.5 C 280.6 26.5 280.2 26.5 279.8 26.5 C 279.4 26.5 279.1 26.6 278.7 26.6 C 278.3 26.6 277.9 26.6 277.6 26.6 C 277.2 26.7 276.9 26.7 276.6 26.7 C 276.7 26.5 276.7 26.3 276.7 26.1 C 276.7 26 276.7 25.8 276.6 25.5 C 277.5 25.5 278.4 25.5 279.2 25.6 C 280.1 25.6 280.9 25.6 281.8 25.6 C 282.7 25.6 283.5 25.6 284.4 25.6 C 285.2 25.5 286.1 25.5 287 25.5 C 286.9 25.8 286.9 26 286.9 26.1 C 286.9 26.3 286.9 26.5 287 26.7 C 286.7 26.7 286.4 26.7 286 26.6 C 285.7 26.6 285.3 26.6 284.9 26.6 C 284.5 26.6 284.1 26.5 283.8 26.5 C 283.4 26.5 283 26.5 282.7 26.5 C 282.6 27.9 282.6 29.3 282.6 30.7 C 282.6 30.7 282.6 34.1 282.6 34.1 C 282.6 35 282.6 35.9 282.7 36.7 C 282.7 37.6 282.7 38.4 282.8 39.2 C 282.5 39.2 282.1 39.2 281.8 39.2 C 281.5 39.2 281.1 39.2 280.8 39.2 C 280.9 38.4 280.9 37.6 280.9 36.7 C 281 35.9 281 35 281 34.1 C 280.98 34.11 281 30.7 281 30.7 C 281 30.7 280.98 30.67 281 30.7 Z M 291 33 C 291.4 33 291.7 33 292.1 33 C 292.5 33 292.8 33 293.2 33 C 293.6 33 293.9 33 294.3 33 C 294.7 33 295 33 295.4 33 C 295.42 33.01 293.2 27.9 293.2 27.9 C 293.2 27.9 291.02 33.01 291 33 Z M 299.9 39.2 C 299.7 39.2 299.5 39.2 299.4 39.2 C 299.2 39.2 299 39.2 298.8 39.2 C 298.6 39.2 298.5 39.2 298.3 39.2 C 298.1 39.2 297.9 39.2 297.8 39.2 C 297.7 38.9 297.5 38.6 297.4 38.1 C 297.2 37.7 297 37.2 296.9 36.8 C 296.7 36.3 296.5 35.8 296.3 35.3 C 296.1 34.8 295.9 34.4 295.7 33.9 C 295.3 33.9 294.8 33.9 294.4 33.9 C 294 33.9 293.5 33.9 293.1 33.9 C 292.7 33.9 292.3 33.9 291.9 33.9 C 291.5 33.9 291.1 33.9 290.6 33.9 C 290.2 35 289.8 36 289.5 36.9 C 289.1 37.8 288.9 38.6 288.7 39.2 C 288.5 39.2 288.2 39.2 288 39.2 C 287.7 39.2 287.4 39.2 287.2 39.2 C 288.3 36.9 289.4 34.6 290.4 32.3 C 291.4 30 292.4 27.6 293.5 25.2 C 293.5 25.2 293.9 25.2 293.9 25.2 C 294.2 26 294.5 26.8 294.9 27.7 C 295.3 28.6 295.7 29.5 296 30.5 C 296.4 31.4 296.8 32.3 297.2 33.2 C 297.6 34.1 298 35 298.3 35.7 C 298.6 36.5 298.9 37.2 299.2 37.8 C 299.5 38.4 299.7 38.9 299.9 39.2 Z M 304 39.2 C 303.7 39.2 303.3 39.2 303 39.2 C 303.1 38.4 303.1 37.6 303.1 36.7 C 303.2 35.9 303.2 35 303.2 34.1 C 303.2 34.1 303.2 30.7 303.2 30.7 C 303.2 29.8 303.2 28.9 303.1 28.1 C 303.1 27.2 303.1 26.4 303 25.5 C 303.2 25.5 303.4 25.5 303.5 25.6 C 303.7 25.6 303.8 25.6 304 25.6 C 304.2 25.6 304.3 25.6 304.5 25.6 C 304.6 25.5 304.8 25.5 305 25.5 C 304.9 26.4 304.9 27.2 304.9 28.1 C 304.8 28.9 304.8 29.8 304.8 30.7 C 304.8 30.7 304.8 31.8 304.8 31.8 C 304.8 31.9 304.9 31.9 304.9 31.9 C 305 31.9 305.1 31.9 305.2 31.7 C 305.7 31.3 306.2 30.9 306.7 30.4 C 307.2 29.9 307.7 29.4 308.2 28.8 C 308.8 28.3 309.3 27.7 309.8 27.1 C 310.3 26.6 310.8 26 311.2 25.5 C 311.4 25.5 311.5 25.5 311.7 25.6 C 311.8 25.6 311.9 25.6 312.1 25.6 C 312.2 25.6 312.4 25.6 312.5 25.6 C 312.7 25.5 312.9 25.5 313 25.5 C 312.6 25.9 312 26.4 311.4 26.9 C 310.9 27.5 310.3 28 309.7 28.6 C 309.1 29.2 308.5 29.7 308 30.3 C 307.4 30.8 307 31.3 306.6 31.7 C 307.7 32.9 308.8 34.2 309.9 35.4 C 311 36.7 312.1 38 313.2 39.2 C 313 39.2 312.8 39.2 312.6 39.2 C 312.4 39.2 312.2 39.2 312 39.2 C 311.9 39.2 311.7 39.2 311.5 39.2 C 311.3 39.2 311.1 39.2 310.9 39.2 C 310.5 38.7 309.9 38.1 309.3 37.3 C 308.8 36.6 308.2 36 307.6 35.3 C 307.1 34.6 306.6 34 306.1 33.5 C 305.7 33 305.4 32.6 305.2 32.4 C 305.1 32.3 305 32.2 304.9 32.2 C 304.9 32.2 304.8 32.3 304.8 32.4 C 304.8 32.4 304.8 34.1 304.8 34.1 C 304.8 35 304.8 35.9 304.9 36.7 C 304.9 37.6 304.9 38.4 305 39.2 C 304.7 39.2 304.3 39.2 304 39.2 C 304 39.2 304 39.2 304 39.2 Z M 316.4 30.6 C 316.4 29.8 316.4 28.9 316.3 28 C 316.3 27.2 316.3 26.3 316.2 25.5 C 316.8 25.5 317.4 25.5 318 25.6 C 318.6 25.6 319.2 25.6 319.8 25.6 C 320.4 25.6 321 25.6 321.6 25.6 C 322.2 25.5 322.8 25.5 323.4 25.5 C 323.3 25.7 323.3 25.9 323.3 26.1 C 323.3 26.3 323.3 26.5 323.4 26.7 C 323 26.7 322.6 26.6 322.2 26.6 C 321.9 26.6 321.5 26.6 321.1 26.5 C 320.7 26.5 320.3 26.5 319.8 26.5 C 319.3 26.4 318.8 26.4 318.1 26.4 C 318.1 26.9 318.1 27.3 318.1 27.6 C 318 28 318 28.5 318 29 C 318 29.5 318 30 318 30.5 C 318.1 31 318.1 31.4 318.1 31.6 C 318.6 31.6 319.2 31.6 319.6 31.6 C 320.1 31.6 320.5 31.6 320.9 31.5 C 321.3 31.5 321.7 31.5 322 31.5 C 322.3 31.5 322.6 31.4 322.9 31.4 C 322.9 31.6 322.9 31.8 322.9 32 C 322.9 32.2 322.9 32.4 322.9 32.6 C 322.6 32.6 322.2 32.6 321.7 32.5 C 321.2 32.5 320.8 32.5 320.3 32.5 C 319.9 32.5 319.4 32.5 319 32.5 C 318.6 32.5 318.3 32.4 318.1 32.4 C 318.1 32.6 318.1 32.7 318 32.8 C 318 33 318 33.2 318 33.4 C 318.04 33.37 318 34.1 318 34.1 C 318 34.1 318.04 35.35 318 35.3 C 318 36.1 318 36.7 318 37.2 C 318.1 37.7 318.1 38.1 318.1 38.3 C 318.5 38.3 319 38.3 319.5 38.3 C 320 38.3 320.5 38.3 321 38.3 C 321.5 38.3 321.9 38.3 322.3 38.2 C 322.8 38.2 323.2 38.2 323.5 38.1 C 323.5 38.2 323.4 38.3 323.4 38.4 C 323.4 38.5 323.4 38.6 323.4 38.7 C 323.4 38.9 323.4 39.1 323.5 39.2 C 322.9 39.2 322.3 39.2 321.7 39.2 C 321.1 39.2 320.5 39.2 319.9 39.2 C 319.3 39.2 318.7 39.2 318.1 39.2 C 317.5 39.2 316.9 39.2 316.2 39.2 C 316.3 38.4 316.3 37.5 316.3 36.7 C 316.4 35.8 316.4 35 316.4 34.1 C 316.4 34.09 316.4 30.6 316.4 30.6 C 316.4 30.6 316.4 30.65 316.4 30.6 Z M 327 36.6 C 327.1 36.9 327.2 37.1 327.4 37.4 C 327.6 37.6 327.8 37.8 328 38 C 328.3 38.2 328.6 38.4 329 38.5 C 329.3 38.6 329.7 38.7 330.1 38.7 C 330.6 38.7 331 38.6 331.3 38.5 C 331.7 38.3 332 38.1 332.2 37.9 C 332.5 37.6 332.6 37.3 332.8 36.9 C 332.9 36.6 333 36.2 333 35.8 C 333 35.2 332.8 34.7 332.5 34.3 C 332.2 34 331.8 33.7 331.3 33.4 C 330.9 33.2 330.4 33 329.8 32.8 C 329.3 32.6 328.8 32.3 328.3 32 C 327.9 31.7 327.5 31.4 327.1 30.9 C 326.8 30.4 326.7 29.8 326.7 29 C 326.7 28.4 326.8 27.9 327 27.5 C 327.2 27 327.5 26.6 327.8 26.3 C 328.2 26 328.7 25.7 329.2 25.5 C 329.8 25.3 330.4 25.2 331 25.2 C 331.7 25.2 332.2 25.3 332.7 25.5 C 333.1 25.6 333.6 25.8 334 26.2 C 333.9 26.4 333.8 26.6 333.7 26.9 C 333.6 27.1 333.5 27.5 333.4 27.8 C 333.4 27.8 333.2 27.8 333.2 27.8 C 333.1 27.7 333 27.5 332.9 27.2 C 332.8 27 332.7 26.8 332.5 26.6 C 332.3 26.4 332 26.3 331.8 26.2 C 331.5 26 331.2 26 330.8 26 C 330.4 26 330.1 26 329.8 26.1 C 329.5 26.3 329.2 26.4 329 26.7 C 328.7 26.9 328.6 27.1 328.4 27.4 C 328.3 27.8 328.2 28.1 328.2 28.4 C 328.2 29.1 328.4 29.6 328.7 29.9 C 329 30.3 329.4 30.6 329.9 30.8 C 330.3 31.1 330.8 31.3 331.4 31.5 C 331.9 31.7 332.4 31.9 332.9 32.2 C 333.4 32.5 333.8 32.8 334.1 33.3 C 334.4 33.7 334.5 34.3 334.5 35 C 334.5 35.7 334.4 36.2 334.2 36.8 C 334 37.3 333.7 37.8 333.2 38.2 C 332.8 38.6 332.3 38.9 331.7 39.2 C 331.1 39.4 330.4 39.5 329.6 39.5 C 328.8 39.5 328.1 39.4 327.6 39.2 C 327.1 38.9 326.7 38.7 326.3 38.4 C 326.5 38.1 326.5 37.8 326.6 37.6 C 326.6 37.3 326.7 37 326.7 36.6 C 326.72 36.63 327 36.6 327 36.6 C 327 36.6 326.96 36.63 327 36.6 Z M 346.4 33 C 346.7 33 347.1 33 347.5 33 C 347.9 33 348.2 33 348.6 33 C 348.9 33 349.3 33 349.7 33 C 350.1 33 350.4 33 350.8 33 C 350.8 33.01 348.6 27.9 348.6 27.9 C 348.6 27.9 346.4 33.01 346.4 33 Z M 355.3 39.2 C 355.1 39.2 354.9 39.2 354.7 39.2 C 354.6 39.2 354.4 39.2 354.2 39.2 C 354 39.2 353.8 39.2 353.7 39.2 C 353.5 39.2 353.3 39.2 353.1 39.2 C 353 38.9 352.9 38.6 352.8 38.1 C 352.6 37.7 352.4 37.2 352.2 36.8 C 352 36.3 351.8 35.8 351.6 35.3 C 351.4 34.8 351.3 34.4 351.1 33.9 C 350.7 33.9 350.2 33.9 349.8 33.9 C 349.3 33.9 348.9 33.9 348.5 33.9 C 348 33.9 347.6 33.9 347.2 33.9 C 346.8 33.9 346.4 33.9 346 33.9 C 345.6 35 345.2 36 344.9 36.9 C 344.5 37.8 344.3 38.6 344.1 39.2 C 343.9 39.2 343.6 39.2 343.3 39.2 C 343.1 39.2 342.8 39.2 342.6 39.2 C 343.7 36.9 344.7 34.6 345.8 32.3 C 346.8 30 347.8 27.6 348.9 25.2 C 348.9 25.2 349.2 25.2 349.2 25.2 C 349.6 26 349.9 26.8 350.3 27.7 C 350.7 28.6 351 29.5 351.4 30.5 C 351.8 31.4 352.2 32.3 352.6 33.2 C 353 34.1 353.3 35 353.7 35.7 C 354 36.5 354.3 37.2 354.6 37.8 C 354.9 38.4 355.1 38.9 355.3 39.2 Z M 364.7 36.6 C 364.8 36.9 364.9 37.1 365.1 37.4 C 365.3 37.6 365.5 37.8 365.8 38 C 366 38.2 366.3 38.4 366.7 38.5 C 367 38.6 367.4 38.7 367.8 38.7 C 368.3 38.7 368.7 38.6 369 38.5 C 369.4 38.3 369.7 38.1 369.9 37.9 C 370.2 37.6 370.4 37.3 370.5 36.9 C 370.6 36.6 370.7 36.2 370.7 35.8 C 370.7 35.2 370.5 34.7 370.2 34.3 C 369.9 34 369.5 33.7 369.1 33.4 C 368.6 33.2 368.1 33 367.5 32.8 C 367 32.6 366.5 32.3 366 32 C 365.6 31.7 365.2 31.4 364.9 30.9 C 364.6 30.4 364.4 29.8 364.4 29 C 364.4 28.4 364.5 27.9 364.7 27.5 C 364.9 27 365.2 26.6 365.6 26.3 C 365.9 26 366.4 25.7 366.9 25.5 C 367.5 25.3 368.1 25.2 368.7 25.2 C 369.4 25.2 369.9 25.3 370.4 25.5 C 370.9 25.6 371.3 25.8 371.7 26.2 C 371.6 26.4 371.5 26.6 371.4 26.9 C 371.3 27.1 371.2 27.5 371.2 27.8 C 371.2 27.8 370.9 27.8 370.9 27.8 C 370.9 27.7 370.8 27.5 370.6 27.2 C 370.5 27 370.4 26.8 370.2 26.6 C 370 26.4 369.8 26.3 369.5 26.2 C 369.2 26 368.9 26 368.5 26 C 368.2 26 367.8 26 367.5 26.1 C 367.2 26.3 366.9 26.4 366.7 26.7 C 366.5 26.9 366.3 27.1 366.1 27.4 C 366 27.8 366 28.1 366 28.4 C 366 29.1 366.1 29.6 366.4 29.9 C 366.7 30.3 367.1 30.6 367.6 30.8 C 368.1 31.1 368.6 31.3 369.1 31.5 C 369.6 31.7 370.2 31.9 370.6 32.2 C 371.1 32.5 371.5 32.8 371.8 33.3 C 372.1 33.7 372.3 34.3 372.3 35 C 372.3 35.7 372.1 36.2 371.9 36.8 C 371.7 37.3 371.4 37.8 371 38.2 C 370.5 38.6 370 38.9 369.4 39.2 C 368.8 39.4 368.1 39.5 367.4 39.5 C 366.5 39.5 365.9 39.4 365.3 39.2 C 364.8 38.9 364.4 38.7 364.1 38.4 C 364.2 38.1 364.3 37.8 364.3 37.6 C 364.4 37.3 364.4 37 364.4 36.6 C 364.44 36.63 364.7 36.6 364.7 36.6 C 364.7 36.6 364.68 36.63 364.7 36.6 Z M 376.1 30.6 C 376.1 29.8 376.1 28.9 376.1 28 C 376 27.2 376 26.3 376 25.5 C 376.6 25.5 377.2 25.5 377.7 25.6 C 378.3 25.6 378.9 25.6 379.5 25.6 C 380.1 25.6 380.7 25.6 381.3 25.6 C 381.9 25.5 382.5 25.5 383.1 25.5 C 383.1 25.7 383 25.9 383 26.1 C 383 26.3 383.1 26.5 383.1 26.7 C 382.7 26.7 382.3 26.6 381.9 26.6 C 381.6 26.6 381.2 26.6 380.8 26.5 C 380.4 26.5 380 26.5 379.5 26.5 C 379.1 26.4 378.5 26.4 377.8 26.4 C 377.8 26.9 377.8 27.3 377.8 27.6 C 377.8 28 377.8 28.5 377.8 29 C 377.8 29.5 377.8 30 377.8 30.5 C 377.8 31 377.8 31.4 377.8 31.6 C 378.4 31.6 378.9 31.6 379.4 31.6 C 379.8 31.6 380.3 31.6 380.6 31.5 C 381 31.5 381.4 31.5 381.7 31.5 C 382 31.5 382.3 31.4 382.6 31.4 C 382.6 31.6 382.6 31.8 382.6 32 C 382.6 32.2 382.6 32.4 382.6 32.6 C 382.3 32.6 381.9 32.6 381.4 32.5 C 381 32.5 380.5 32.5 380 32.5 C 379.6 32.5 379.2 32.5 378.7 32.5 C 378.3 32.5 378 32.4 377.8 32.4 C 377.8 32.6 377.8 32.7 377.8 32.8 C 377.8 33 377.8 33.2 377.8 33.4 C 377.76 33.37 377.8 34.1 377.8 34.1 C 377.8 34.1 377.76 35.35 377.8 35.3 C 377.8 36.1 377.8 36.7 377.8 37.2 C 377.8 37.7 377.8 38.1 377.8 38.3 C 378.2 38.3 378.7 38.3 379.2 38.3 C 379.7 38.3 380.2 38.3 380.7 38.3 C 381.2 38.3 381.6 38.3 382.1 38.2 C 382.5 38.2 382.9 38.2 383.2 38.1 C 383.2 38.2 383.2 38.3 383.1 38.4 C 383.1 38.5 383.1 38.6 383.1 38.7 C 383.1 38.9 383.2 39.1 383.2 39.2 C 382.6 39.2 382 39.2 381.4 39.2 C 380.8 39.2 380.2 39.2 379.6 39.2 C 379 39.2 378.4 39.2 377.8 39.2 C 377.2 39.2 376.6 39.2 376 39.2 C 376 38.4 376 37.5 376.1 36.7 C 376.1 35.8 376.1 35 376.1 34.1 C 376.12 34.09 376.1 30.6 376.1 30.6 C 376.1 30.6 376.12 30.65 376.1 30.6 Z M 389.3 33 C 389.6 33 390 33 390.4 33 C 390.8 33 391.1 33 391.5 33 C 391.8 33 392.2 33 392.6 33 C 393 33 393.3 33 393.7 33 C 393.7 33.01 391.5 27.9 391.5 27.9 C 391.5 27.9 389.3 33.01 389.3 33 Z M 398.2 39.2 C 398 39.2 397.8 39.2 397.6 39.2 C 397.5 39.2 397.3 39.2 397.1 39.2 C 396.9 39.2 396.7 39.2 396.6 39.2 C 396.4 39.2 396.2 39.2 396 39.2 C 395.9 38.9 395.8 38.6 395.7 38.1 C 395.5 37.7 395.3 37.2 395.1 36.8 C 394.9 36.3 394.7 35.8 394.5 35.3 C 394.3 34.8 394.2 34.4 394 33.9 C 393.6 33.9 393.1 33.9 392.7 33.9 C 392.2 33.9 391.8 33.9 391.4 33.9 C 390.9 33.9 390.5 33.9 390.1 33.9 C 389.7 33.9 389.3 33.9 388.9 33.9 C 388.5 35 388.1 36 387.8 36.9 C 387.4 37.8 387.2 38.6 387 39.2 C 386.8 39.2 386.5 39.2 386.2 39.2 C 386 39.2 385.7 39.2 385.5 39.2 C 386.6 36.9 387.6 34.6 388.7 32.3 C 389.7 30 390.7 27.6 391.8 25.2 C 391.8 25.2 392.1 25.2 392.1 25.2 C 392.5 26 392.8 26.8 393.2 27.7 C 393.6 28.6 393.9 29.5 394.3 30.5 C 394.7 31.4 395.1 32.3 395.5 33.2 C 395.9 34.1 396.2 35 396.6 35.7 C 396.9 36.5 397.2 37.2 397.5 37.8 C 397.8 38.4 398 38.9 398.2 39.2 Z M 402.8 30.7 C 402.8 29.3 402.7 27.9 402.7 26.5 C 402.4 26.5 402 26.5 401.6 26.5 C 401.2 26.5 400.8 26.6 400.5 26.6 C 400.1 26.6 399.7 26.6 399.4 26.6 C 399 26.7 398.7 26.7 398.4 26.7 C 398.5 26.5 398.5 26.3 398.5 26.1 C 398.5 26 398.5 25.8 398.4 25.5 C 399.3 25.5 400.2 25.5 401 25.6 C 401.8 25.6 402.7 25.6 403.6 25.6 C 404.5 25.6 405.3 25.6 406.2 25.6 C 407 25.5 407.9 25.5 408.7 25.5 C 408.7 25.8 408.6 26 408.6 26.1 C 408.6 26.3 408.7 26.5 408.7 26.7 C 408.5 26.7 408.1 26.7 407.8 26.6 C 407.4 26.6 407.1 26.6 406.7 26.6 C 406.3 26.6 405.9 26.5 405.5 26.5 C 405.2 26.5 404.8 26.5 404.5 26.5 C 404.4 27.9 404.4 29.3 404.4 30.7 C 404.4 30.7 404.4 34.1 404.4 34.1 C 404.4 35 404.4 35.9 404.4 36.7 C 404.5 37.6 404.5 38.4 404.6 39.2 C 404.3 39.2 403.9 39.2 403.6 39.2 C 403.2 39.2 402.9 39.2 402.6 39.2 C 402.6 38.4 402.7 37.6 402.7 36.7 C 402.7 35.9 402.8 35 402.8 34.1 C 402.76 34.11 402.8 30.7 402.8 30.7 C 402.8 30.7 402.76 30.67 402.8 30.7 Z " stroke="none" fill="#535a5d"/>  </g></svg>