<?xml version="1.0" standalone="no"?><!DOCTYPE svg PUBLIC "-//W3C//DTD SVG 1.1//EN" "http://www.w3.org/Graphics/SVG/1.1/DTD/svg11.dtd"><svg xmlns="http://www.w3.org/2000/svg" version="1.1" width="51px" height="13.8px" viewBox="0 -3 51 13.8" style="top:-3px">  <desc>A4000033</desc>  <defs/>  <g id="Polygon42945">    <path d="M 12.1 5.2 L 11.7 4.2 L 9.7 4.2 L 9.3 5.2 L 8.5 5.2 L 10.4 0.4 L 11 0.4 L 12.9 5.2 L 12.1 5.2 Z M 9.9 3.6 L 11.5 3.6 L 10.7 1.4 L 10.7 1.4 L 9.9 3.6 Z M 15.6 5.2 L 15.6 4.1 L 13.5 4.1 C 13.5 4.1 13.54 3.37 13.5 3.4 C 14.1 2.6 15 1.5 15.6 0.6 C 15.61 0.6 16.3 0.6 16.3 0.6 L 16.3 3.5 L 17 3.5 L 17 4.1 L 16.3 4.1 L 16.3 5.2 L 15.6 5.2 Z M 15.6 3.5 C 15.6 3.5 15.64 1.53 15.6 1.5 C 15.2 2.2 14.6 3 14.2 3.5 C 14.24 3.49 15.6 3.5 15.6 3.5 Z M 21.1 2.9 C 21.1 4.4 20.5 5.3 19.5 5.3 C 18.4 5.3 17.8 4.4 17.8 2.9 C 17.8 1.4 18.4 0.5 19.5 0.5 C 20.5 0.5 21.1 1.4 21.1 2.9 Z M 18.5 2.9 C 18.5 4.1 18.9 4.7 19.5 4.7 C 20.1 4.7 20.4 4.1 20.4 2.9 C 20.4 1.7 20.1 1.1 19.5 1.1 C 18.9 1.1 18.5 1.7 18.5 2.9 Z M 25.4 2.9 C 25.4 4.4 24.8 5.3 23.8 5.3 C 22.7 5.3 22.1 4.4 22.1 2.9 C 22.1 1.4 22.7 0.5 23.8 0.5 C 24.8 0.5 25.4 1.4 25.4 2.9 Z M 22.8 2.9 C 22.8 4.1 23.2 4.7 23.8 4.7 C 24.4 4.7 24.8 4.1 24.8 2.9 C 24.8 1.7 24.4 1.1 23.8 1.1 C 23.2 1.1 22.8 1.7 22.8 2.9 Z M 29.7 2.9 C 29.7 4.4 29.1 5.3 28.1 5.3 C 27 5.3 26.4 4.4 26.4 2.9 C 26.4 1.4 27 0.5 28.1 0.5 C 29.1 0.5 29.7 1.4 29.7 2.9 Z M 27.1 2.9 C 27.1 4.1 27.5 4.7 28.1 4.7 C 28.7 4.7 29.1 4.1 29.1 2.9 C 29.1 1.7 28.7 1.1 28.1 1.1 C 27.5 1.1 27.1 1.7 27.1 2.9 Z M 34 2.9 C 34 4.4 33.4 5.3 32.4 5.3 C 31.3 5.3 30.7 4.4 30.7 2.9 C 30.7 1.4 31.3 0.5 32.4 0.5 C 33.4 0.5 34 1.4 34 2.9 Z M 31.4 2.9 C 31.4 4.1 31.8 4.7 32.4 4.7 C 33 4.7 33.4 4.1 33.4 2.9 C 33.4 1.7 33 1.1 32.4 1.1 C 31.8 1.1 31.4 1.7 31.4 2.9 Z M 35.7 2.5 C 36 2.5 36.2 2.5 36.4 2.5 C 36.8 2.4 37 2.1 37 1.8 C 37 1.4 36.7 1.1 36.3 1.1 C 35.9 1.1 35.6 1.3 35.5 1.6 C 35.5 1.6 34.9 1.4 34.9 1.4 C 35.1 0.9 35.6 0.5 36.3 0.5 C 37.1 0.5 37.7 1 37.7 1.8 C 37.7 2.2 37.5 2.6 37.1 2.8 C 37.6 2.9 37.9 3.4 37.9 3.9 C 37.9 4.8 37.2 5.3 36.4 5.3 C 35.8 5.3 35.2 5.1 34.9 4.6 C 34.9 4.6 35.4 4.3 35.4 4.3 C 35.6 4.6 36 4.7 36.3 4.7 C 36.8 4.7 37.3 4.5 37.3 4 C 37.3 3.5 36.8 3.2 36.3 3.2 C 36.1 3.2 36 3.2 35.7 3.2 C 35.7 3.2 35.7 2.5 35.7 2.5 Z M 39.7 2.5 C 40 2.5 40.2 2.5 40.4 2.5 C 40.8 2.4 41 2.1 41 1.8 C 41 1.4 40.7 1.1 40.2 1.1 C 39.9 1.1 39.6 1.3 39.5 1.6 C 39.5 1.6 38.9 1.4 38.9 1.4 C 39.1 0.9 39.6 0.5 40.2 0.5 C 41.1 0.5 41.7 1 41.7 1.8 C 41.7 2.2 41.5 2.6 41.1 2.8 C 41.6 2.9 41.9 3.4 41.9 3.9 C 41.9 4.8 41.2 5.3 40.4 5.3 C 39.8 5.3 39.2 5.1 38.9 4.6 C 38.9 4.6 39.4 4.3 39.4 4.3 C 39.6 4.6 40 4.7 40.3 4.7 C 40.8 4.7 41.3 4.5 41.3 4 C 41.3 3.5 40.8 3.2 40.3 3.2 C 40.1 3.2 39.9 3.2 39.7 3.2 C 39.7 3.2 39.7 2.5 39.7 2.5 Z " stroke="none" fill="#535a5d"/>  </g></svg>