<?xml version="1.0" standalone="no"?><!DOCTYPE svg PUBLIC "-//W3C//DTD SVG 1.1//EN" "http://www.w3.org/Graphics/SVG/1.1/DTD/svg11.dtd"><svg xmlns="http://www.w3.org/2000/svg" version="1.1" width="209.1px" height="28.8px" viewBox="0 -6 209.1 28.8" style="top:-6px">  <desc>Accent Seating 2022</desc>  <defs/>  <g id="Polygon38806">    <path d="M 12.8 0.8 L 14.4 0.8 L 18.3 11.2 L 16.2 11.2 L 15.5 9.2 L 11.4 9.2 L 10.7 11.2 L 8.6 11.2 L 12.8 0.8 Z M 12 7.6 L 14.9 7.6 L 13.5 3.6 L 13.5 3.6 L 12 7.6 Z M 26.5 9.8 C 27.3 9.8 28.1 9.5 28.8 9 C 28.8 9 29.8 10.3 29.8 10.3 C 28.8 11 27.7 11.4 26.5 11.4 C 23.3 11.4 20.9 9.3 20.9 6 C 20.9 2.9 23.4 0.6 26.5 0.6 C 27.7 0.6 28.6 0.9 29.6 1.5 C 29.6 1.5 28.7 2.9 28.7 2.9 C 28.1 2.5 27.3 2.2 26.5 2.2 C 24.4 2.2 22.9 3.8 22.9 6 C 22.9 8.3 24.3 9.8 26.5 9.8 Z M 37.8 9.8 C 38.7 9.8 39.4 9.5 40.1 9 C 40.1 9 41.1 10.3 41.1 10.3 C 40.2 11 39 11.4 37.8 11.4 C 34.6 11.4 32.2 9.3 32.2 6 C 32.2 2.9 34.7 0.6 37.8 0.6 C 39 0.6 40 0.9 40.9 1.5 C 40.9 1.5 40 2.9 40 2.9 C 39.4 2.5 38.6 2.2 37.8 2.2 C 35.7 2.2 34.2 3.8 34.2 6 C 34.2 8.3 35.6 9.8 37.8 9.8 Z M 44.7 11.2 L 44.7 0.8 L 51.2 0.8 L 51.2 2.3 L 46.5 2.3 L 46.5 5.1 L 51.2 5.1 L 51.2 6.6 L 46.5 6.6 L 46.5 9.7 L 51.2 9.7 L 51.2 11.2 L 44.7 11.2 Z M 62.3 11.2 L 57.1 4.2 L 57.1 11.2 L 55.3 11.2 L 55.3 0.8 L 56.9 0.8 L 62.1 7.9 L 62.1 0.8 L 64 0.8 L 64 11.2 L 62.3 11.2 Z M 71.7 2.3 L 71.7 11.2 L 69.9 11.2 L 69.9 2.3 L 67.3 2.3 L 67.3 0.8 L 74.3 0.8 L 74.3 2.3 L 71.7 2.3 Z M 86.8 2.2 C 85.9 2.2 85.2 2.6 85.2 3.4 C 85.2 4.2 86.2 4.6 87.1 4.8 C 88.6 5.4 90.4 6.1 90.4 8.2 C 90.4 10.5 88.3 11.4 86.5 11.4 C 84.9 11.4 83.7 10.9 82.6 9.8 C 82.6 9.8 83.8 8.5 83.8 8.5 C 84.8 9.4 85.5 9.8 86.5 9.8 C 87.5 9.8 88.4 9.4 88.4 8.3 C 88.4 7.3 87.3 6.9 86.2 6.5 C 84.8 6 83.3 5.3 83.3 3.5 C 83.3 1.5 84.9 0.6 86.7 0.6 C 88 0.6 89 1 90 1.7 C 90 1.7 88.9 3.1 88.9 3.1 C 88.4 2.6 87.6 2.2 86.8 2.2 Z M 94.2 11.2 L 94.2 0.8 L 100.8 0.8 L 100.8 2.3 L 96.1 2.3 L 96.1 5.1 L 100.8 5.1 L 100.8 6.6 L 96.1 6.6 L 96.1 9.7 L 100.8 9.7 L 100.8 11.2 L 94.2 11.2 Z M 108.1 0.8 L 109.7 0.8 L 113.6 11.2 L 111.5 11.2 L 110.8 9.2 L 106.7 9.2 L 106 11.2 L 103.9 11.2 L 108.1 0.8 Z M 107.3 7.6 L 110.2 7.6 L 108.8 3.6 L 108.8 3.6 L 107.3 7.6 Z M 119.7 2.3 L 119.7 11.2 L 117.9 11.2 L 117.9 2.3 L 115.3 2.3 L 115.3 0.8 L 122.3 0.8 L 122.3 2.3 L 119.7 2.3 Z M 125.6 11.2 L 125.6 0.8 L 127.5 0.8 L 127.5 11.2 L 125.6 11.2 Z M 139 11.2 L 133.8 4.2 L 133.8 11.2 L 131.9 11.2 L 131.9 0.8 L 133.5 0.8 L 138.8 7.9 L 138.8 0.8 L 140.6 0.8 L 140.6 11.2 L 139 11.2 Z M 150.2 6.9 L 150.2 5.3 L 154.7 5.3 C 154.7 5.3 154.66 9.35 154.7 9.3 C 153.6 10.7 152 11.4 150.2 11.4 C 147 11.4 144.6 9.2 144.6 6 C 144.6 2.9 147.1 0.6 150.2 0.6 C 151.9 0.6 153.4 1.3 154.5 2.5 C 154.5 2.5 153.2 3.7 153.2 3.7 C 152.4 2.8 151.4 2.2 150.2 2.2 C 148.1 2.2 146.5 3.8 146.5 6 C 146.5 8.3 148 9.8 150.2 9.8 C 151.2 9.8 152.1 9.4 152.8 8.8 C 152.8 8.78 152.8 6.9 152.8 6.9 L 150.2 6.9 Z M 170.6 11.2 L 164.1 11.2 C 164.1 11.2 164.07 9.8 164.1 9.8 C 165.2 8.6 166.6 7 167.5 5.7 C 167.9 5.2 168.3 4.5 168.3 3.8 C 168.3 3.1 167.7 2.7 167 2.7 C 166.2 2.7 165.7 3.2 165.7 4.1 C 165.7 4.1 163.8 3.8 163.8 3.8 C 164 2.2 165.5 1.1 167 1.1 C 168.6 1.1 170.2 2.1 170.2 3.8 C 170.2 4.8 169.7 5.8 169.1 6.6 C 168.4 7.7 167.4 8.7 166.5 9.7 C 166.51 9.69 170.6 9.7 170.6 9.7 L 170.6 11.2 Z M 180.8 6.3 C 180.8 9.5 179.5 11.4 177.2 11.4 C 174.9 11.4 173.6 9.5 173.6 6.3 C 173.6 3.1 174.9 1.1 177.2 1.1 C 179.5 1.1 180.8 3.1 180.8 6.3 Z M 175.4 6.3 C 175.4 8.7 176.1 9.8 177.2 9.8 C 178.3 9.8 179 8.7 179 6.3 C 179 3.9 178.3 2.7 177.2 2.7 C 176.1 2.7 175.4 3.9 175.4 6.3 Z M 190.6 11.2 L 184.1 11.2 C 184.1 11.2 184.09 9.8 184.1 9.8 C 185.2 8.6 186.6 7 187.5 5.7 C 187.9 5.2 188.3 4.5 188.3 3.8 C 188.3 3.1 187.7 2.7 187 2.7 C 186.3 2.7 185.7 3.2 185.7 4.1 C 185.7 4.1 183.9 3.8 183.9 3.8 C 184 2.2 185.5 1.1 187.1 1.1 C 188.7 1.1 190.2 2.1 190.2 3.8 C 190.2 4.8 189.7 5.8 189.1 6.6 C 188.4 7.7 187.4 8.7 186.5 9.7 C 186.54 9.69 190.6 9.7 190.6 9.7 L 190.6 11.2 Z M 200.3 11.2 L 193.7 11.2 C 193.7 11.2 193.74 9.8 193.7 9.8 C 194.9 8.6 196.2 7 197.2 5.7 C 197.5 5.2 198 4.5 198 3.8 C 198 3.1 197.4 2.7 196.6 2.7 C 195.9 2.7 195.3 3.2 195.3 4.1 C 195.3 4.1 193.5 3.8 193.5 3.8 C 193.6 2.2 195.1 1.1 196.7 1.1 C 198.3 1.1 199.8 2.1 199.8 3.8 C 199.8 4.8 199.4 5.8 198.8 6.6 C 198 7.7 197.1 8.7 196.2 9.7 C 196.18 9.69 200.3 9.7 200.3 9.7 L 200.3 11.2 Z " stroke="none" fill="#fff"/>  </g></svg>