<?xml version="1.0" standalone="no"?><!DOCTYPE svg PUBLIC "-//W3C//DTD SVG 1.1//EN" "http://www.w3.org/Graphics/SVG/1.1/DTD/svg11.dtd"><svg xmlns="http://www.w3.org/2000/svg" version="1.1" width="90px" height="373.3px" viewBox="0 -4 90 373.3" style="top:-4px">  <desc>Creating the look you love is easier than ever Shop our entire collection of 2022 Home Accents Look Books to find ou</desc>  <defs/>  <g id="Polygon43011">    <path d="M 4.2 317.7 L 1.7 317.7 L 1.2 319 L 0.1 319 L 2.6 312.7 L 3.4 312.7 L 5.8 319 L 4.7 319 L 4.2 317.7 Z M 2 316.9 L 3.9 316.9 L 3 314.2 L 3 314.2 L 2 316.9 Z M 10.1 318.3 C 10.6 318.3 11.1 318.1 11.5 317.8 C 11.5 317.8 12 318.5 12 318.5 C 11.5 318.9 10.8 319.1 10.1 319.1 C 8.2 319.1 6.7 317.8 6.7 315.9 C 6.7 314 8.3 312.6 10.1 312.6 C 10.8 312.6 11.3 312.8 11.9 313.1 C 11.9 313.1 11.4 313.9 11.4 313.9 C 11 313.6 10.6 313.4 10.1 313.4 C 8.8 313.4 7.8 314.5 7.8 315.9 C 7.8 317.3 8.7 318.3 10.1 318.3 Z M 16.2 318.3 C 16.7 318.3 17.2 318.1 17.6 317.8 C 17.6 317.8 18.1 318.5 18.1 318.5 C 17.6 318.9 16.9 319.1 16.2 319.1 C 14.3 319.1 12.9 317.8 12.9 315.9 C 12.9 314 14.4 312.6 16.2 312.6 C 16.9 312.6 17.5 312.8 18 313.1 C 18 313.1 17.5 313.9 17.5 313.9 C 17.1 313.6 16.7 313.4 16.2 313.4 C 14.9 313.4 13.9 314.5 13.9 315.9 C 13.9 317.3 14.8 318.3 16.2 318.3 Z M 19.7 319 L 19.7 312.7 L 23.5 312.7 L 23.5 313.5 L 20.6 313.5 L 20.6 315.3 L 23.5 315.3 L 23.5 316.2 L 20.6 316.2 L 20.6 318.2 L 23.5 318.2 L 23.5 319 L 19.7 319 Z M 27.4 313.4 C 26.7 313.4 26.3 313.7 26.3 314.3 C 26.3 314.8 26.9 315 27.5 315.2 C 28.4 315.5 29.5 315.9 29.5 317.1 C 29.5 318.6 28.2 319.1 27.2 319.1 C 26.3 319.1 25.6 318.8 24.9 318.1 C 24.9 318.1 25.6 317.5 25.6 317.5 C 26.2 318.1 26.6 318.3 27.2 318.3 C 27.8 318.3 28.4 318 28.4 317.2 C 28.4 316.6 27.8 316.3 27.1 316.1 C 26.2 315.8 25.3 315.4 25.3 314.3 C 25.3 313.1 26.2 312.6 27.3 312.6 C 28 312.6 28.7 312.8 29.2 313.3 C 29.2 313.3 28.7 314 28.7 314 C 28.4 313.7 27.8 313.4 27.4 313.4 Z M 33.3 313.4 C 32.7 313.4 32.2 313.7 32.2 314.3 C 32.2 314.8 32.8 315 33.5 315.2 C 34.4 315.5 35.4 315.9 35.4 317.1 C 35.4 318.6 34.1 319.1 33.2 319.1 C 32.2 319.1 31.5 318.8 30.8 318.1 C 30.8 318.1 31.5 317.5 31.5 317.5 C 32.1 318.1 32.5 318.3 33.2 318.3 C 33.8 318.3 34.4 318 34.4 317.2 C 34.4 316.6 33.7 316.3 33 316.1 C 32.2 315.8 31.3 315.4 31.3 314.3 C 31.3 313.1 32.2 312.6 33.2 312.6 C 34 312.6 34.6 312.8 35.2 313.3 C 35.2 313.3 34.6 314 34.6 314 C 34.3 313.7 33.8 313.4 33.3 313.4 Z M 40.1 313.4 C 38.8 313.4 37.8 314.5 37.8 315.9 C 37.8 317.2 38.8 318.3 40.1 318.3 C 41.4 318.3 42.3 317.2 42.3 315.9 C 42.3 314.5 41.4 313.4 40.1 313.4 Z M 40.1 319.1 C 38.2 319.1 36.8 317.7 36.8 315.9 C 36.8 314 38.2 312.6 40.1 312.6 C 41.9 312.6 43.3 314 43.3 315.9 C 43.3 317.7 41.9 319.1 40.1 319.1 Z M 47 312.7 C 48 312.7 49.2 313.2 49.2 314.5 C 49.2 315.6 48.5 316.1 47.7 316.3 C 47.7 316.3 49.7 319 49.7 319 L 48.5 319 L 46.6 316.4 L 46.1 316.4 L 46.1 319 L 45.1 319 L 45.1 312.7 C 45.1 312.7 47.01 312.7 47 312.7 Z M 46.1 315.5 C 46.1 315.5 46.79 315.53 46.8 315.5 C 47.6 315.5 48.2 315.2 48.2 314.6 C 48.2 314 47.7 313.5 47 313.5 C 46.96 313.55 46.1 313.5 46.1 313.5 L 46.1 315.5 Z M 51.1 319 L 51.1 312.7 L 52.1 312.7 L 52.1 319 L 51.1 319 Z M 54.2 319 L 54.2 312.7 L 58 312.7 L 58 313.5 L 55.1 313.5 L 55.1 315.3 L 58 315.3 L 58 316.2 L 55.1 316.2 L 55.1 318.2 L 58 318.2 L 58 319 L 54.2 319 Z M 61.8 313.4 C 61.2 313.4 60.8 313.7 60.8 314.3 C 60.8 314.8 61.4 315 62 315.2 C 62.9 315.5 64 315.9 64 317.1 C 64 318.6 62.7 319.1 61.7 319.1 C 60.8 319.1 60.1 318.8 59.4 318.1 C 59.4 318.1 60.1 317.5 60.1 317.5 C 60.7 318.1 61.1 318.3 61.7 318.3 C 62.3 318.3 62.9 318 62.9 317.2 C 62.9 316.6 62.3 316.3 61.6 316.1 C 60.7 315.8 59.8 315.4 59.8 314.3 C 59.8 313.1 60.7 312.6 61.8 312.6 C 62.5 312.6 63.2 312.8 63.7 313.3 C 63.7 313.3 63.2 314 63.2 314 C 62.9 313.7 62.3 313.4 61.8 313.4 Z " stroke="none" fill="#fff"/>  </g>  <g id="Polygon43010">    <path d="M 5.7 293.2 C 5.7 293.2 4.62 292.2 4.6 292.2 C 4.1 292.8 3.4 293.1 2.7 293.1 C 1.5 293.1 0.5 292.2 0.5 291.1 C 0.5 290.4 1 289.8 1.6 289.5 C 1.3 289.1 1 288.7 1 288.2 C 1 287.2 1.9 286.6 2.8 286.6 C 3.6 286.6 4.3 287 4.5 287.8 C 4.5 287.8 3.6 288 3.6 288 C 3.5 287.6 3.2 287.4 2.8 287.4 C 2.3 287.4 1.9 287.7 1.9 288.2 C 1.9 288.7 2.3 289 2.9 289.5 C 2.89 289.54 2.3 290.2 2.3 290.2 C 2.3 290.2 2.18 290.02 2.2 290 C 1.8 290.2 1.5 290.6 1.5 291.1 C 1.5 291.8 2.1 292.3 2.8 292.3 C 3.3 292.3 3.7 292.1 4 291.7 C 4 291.65 3.3 291 3.3 291 L 3.8 290.4 L 6.3 292.6 L 5.7 293.2 Z M 12 287.5 L 12 293 L 11 293 L 11 287.5 L 9.5 287.5 L 9.5 286.7 L 13.5 286.7 L 13.5 287.5 L 12 287.5 Z M 17.7 287.4 C 16.4 287.4 15.5 288.5 15.5 289.9 C 15.5 291.2 16.4 292.3 17.7 292.3 C 19 292.3 20 291.2 20 289.9 C 20 288.5 19 287.4 17.7 287.4 Z M 17.7 293.1 C 15.9 293.1 14.5 291.7 14.5 289.9 C 14.5 288 15.9 286.6 17.7 286.6 C 19.6 286.6 21 288 21 289.9 C 21 291.7 19.6 293.1 17.7 293.1 Z M 24.7 286.7 C 25.7 286.7 26.9 287.2 26.9 288.6 C 26.9 290 25.7 290.5 24.7 290.5 C 24.69 290.52 23.7 290.5 23.7 290.5 L 23.7 293 L 22.8 293 L 22.8 286.7 C 22.8 286.7 24.69 286.7 24.7 286.7 Z M 23.7 289.7 C 23.7 289.7 24.47 289.67 24.5 289.7 C 25.3 289.7 25.9 289.4 25.9 288.6 C 25.9 288 25.4 287.5 24.6 287.5 C 24.64 287.55 23.7 287.5 23.7 287.5 L 23.7 289.7 Z M 34.1 287.4 C 32.8 287.4 31.9 288.5 31.9 289.9 C 31.9 291.2 32.8 292.3 34.1 292.3 C 35.4 292.3 36.4 291.2 36.4 289.9 C 36.4 288.5 35.4 287.4 34.1 287.4 Z M 34.1 293.1 C 32.3 293.1 30.9 291.7 30.9 289.9 C 30.9 288 32.3 286.6 34.1 286.6 C 36 286.6 37.4 288 37.4 289.9 C 37.4 291.7 36 293.1 34.1 293.1 Z M 40.1 290.3 L 40.1 293 L 39.2 293 L 39.2 286.7 L 42.4 286.7 L 42.4 287.5 L 40.1 287.5 L 40.1 289.5 L 42.4 289.5 L 42.4 290.3 L 40.1 290.3 Z M 46.8 286.7 C 46.8 286.7 48.33 286.7 48.3 286.7 C 48.9 286.7 49.6 286.8 50 287.1 C 50.5 287.4 50.7 287.9 50.7 288.4 C 50.7 289 50.4 289.4 49.8 289.7 C 50.5 289.9 51 290.5 51 291.2 C 51 291.9 50.6 292.5 49.9 292.7 C 49.4 292.9 48.8 293 48.2 293 C 48.25 293 46.8 293 46.8 293 L 46.8 286.7 Z M 47.8 292.2 C 47.8 292.2 48.19 292.16 48.2 292.2 C 48.7 292.2 49.1 292.1 49.5 292 C 49.7 291.9 49.9 291.6 49.9 291.2 C 49.9 290.6 49.5 290.2 48.7 290.2 C 48.69 290.19 47.8 290.2 47.8 290.2 L 47.8 292.2 Z M 47.8 289.4 C 47.8 289.4 48.31 289.36 48.3 289.4 C 49.2 289.4 49.7 289.1 49.7 288.5 C 49.7 288.1 49.6 287.9 49.4 287.8 C 49.1 287.6 48.7 287.5 48.1 287.5 C 48.15 287.54 47.8 287.5 47.8 287.5 L 47.8 289.4 Z M 52.8 293 L 52.8 286.7 L 56.6 286.7 L 56.6 287.5 L 53.7 287.5 L 53.7 289.3 L 56.6 289.3 L 56.6 290.2 L 53.7 290.2 L 53.7 292.2 L 56.6 292.2 L 56.6 293 L 52.8 293 Z M 58.5 286.7 C 58.5 286.7 60.18 286.7 60.2 286.7 C 61.8 286.7 63.6 287.5 63.6 289.8 C 63.6 292.2 61.8 293 60.1 293 C 60.1 293 58.5 293 58.5 293 L 58.5 286.7 Z M 60 287.5 C 60.03 287.55 59.4 287.5 59.4 287.5 L 59.4 292.2 C 59.4 292.2 59.68 292.15 59.7 292.2 C 61.4 292.2 62.6 291.6 62.6 289.9 C 62.6 288.4 61.6 287.5 60 287.5 Z " stroke="none" fill="#fff"/>  </g>  <g id="Polygon43009">    <path d="M 2.7 273.7 C 3.8 273.7 5 274.2 5 275.6 C 5 277 3.8 277.5 2.7 277.5 C 2.73 277.52 1.8 277.5 1.8 277.5 L 1.8 280 L 0.8 280 L 0.8 273.7 C 0.8 273.7 2.73 273.7 2.7 273.7 Z M 1.8 276.7 C 1.8 276.7 2.51 276.67 2.5 276.7 C 3.3 276.7 4 276.4 4 275.6 C 4 275 3.4 274.5 2.7 274.5 C 2.68 274.55 1.8 274.5 1.8 274.5 L 1.8 276.7 Z M 6.4 280 L 6.4 273.7 L 7.4 273.7 L 7.4 280 L 6.4 280 Z M 9.5 280 L 9.5 273.7 L 10.4 273.7 L 10.4 279.2 L 13.1 279.2 L 13.1 280 L 9.5 280 Z M 14.5 280 L 14.5 273.7 L 15.4 273.7 L 15.4 279.2 L 18.1 279.2 L 18.1 280 L 14.5 280 Z M 22.1 274.4 C 20.8 274.4 19.9 275.5 19.9 276.9 C 19.9 278.2 20.8 279.3 22.1 279.3 C 23.4 279.3 24.3 278.2 24.3 276.9 C 24.3 275.5 23.4 274.4 22.1 274.4 Z M 22.1 280.1 C 20.3 280.1 18.9 278.7 18.9 276.9 C 18.9 275 20.3 273.6 22.1 273.6 C 24 273.6 25.4 275 25.4 276.9 C 25.4 278.7 24 280.1 22.1 280.1 Z M 32.2 278.3 L 32.2 278.3 L 33.4 273.7 L 34.5 273.7 L 32.7 280 L 31.7 280 L 30.5 275.4 L 30.5 275.4 L 29.1 280 L 28.2 280 L 26.5 273.7 L 27.5 273.7 L 28.7 278.3 L 28.8 278.3 L 30 273.7 L 30.9 273.7 L 32.2 278.3 Z M 37.8 274.4 C 37.2 274.4 36.7 274.7 36.7 275.3 C 36.7 275.8 37.3 276 38 276.2 C 38.9 276.5 39.9 276.9 39.9 278.1 C 39.9 279.6 38.7 280.1 37.7 280.1 C 36.7 280.1 36 279.8 35.4 279.1 C 35.4 279.1 36 278.5 36 278.5 C 36.6 279.1 37 279.3 37.7 279.3 C 38.3 279.3 38.9 279 38.9 278.2 C 38.9 277.6 38.2 277.3 37.5 277.1 C 36.7 276.8 35.8 276.4 35.8 275.3 C 35.8 274.1 36.7 273.6 37.7 273.6 C 38.5 273.6 39.1 273.8 39.7 274.3 C 39.7 274.3 39.1 275 39.1 275 C 38.8 274.7 38.3 274.4 37.8 274.4 Z M 41.9 281.2 L 41 281.2 L 41.5 278.9 L 42.5 278.9 L 41.9 281.2 Z M 49 274.5 L 49 280 L 48 280 L 48 274.5 L 46.5 274.5 L 46.5 273.7 L 50.6 273.7 L 50.6 274.5 L 49 274.5 Z M 56.1 280 L 56.1 277.2 L 52.9 277.2 L 52.9 280 L 52 280 L 52 273.7 L 52.9 273.7 L 52.9 276.3 L 56.1 276.3 L 56.1 273.7 L 57.1 273.7 L 57.1 280 L 56.1 280 Z M 61.1 273.7 C 62 273.7 63.3 274.2 63.3 275.5 C 63.3 276.6 62.5 277.1 61.8 277.3 C 61.76 277.3 63.7 280 63.7 280 L 62.5 280 L 60.7 277.4 L 60.1 277.4 L 60.1 280 L 59.2 280 L 59.2 273.7 C 59.2 273.7 61.06 273.7 61.1 273.7 Z M 60.1 276.5 C 60.1 276.5 60.85 276.53 60.8 276.5 C 61.6 276.5 62.2 276.2 62.2 275.6 C 62.2 275 61.7 274.5 61 274.5 C 61.02 274.55 60.1 274.5 60.1 274.5 L 60.1 276.5 Z M 68 274.4 C 66.7 274.4 65.8 275.5 65.8 276.9 C 65.8 278.2 66.7 279.3 68 279.3 C 69.3 279.3 70.2 278.2 70.2 276.9 C 70.2 275.5 69.3 274.4 68 274.4 Z M 68 280.1 C 66.1 280.1 64.7 278.7 64.7 276.9 C 64.7 275 66.1 273.6 68 273.6 C 69.8 273.6 71.3 275 71.3 276.9 C 71.3 278.7 69.8 280.1 68 280.1 Z M 78 278.3 L 78.1 278.3 L 79.3 273.7 L 80.4 273.7 L 78.6 280 L 77.6 280 L 76.4 275.4 L 76.3 275.4 L 75 280 L 74.1 280 L 72.4 273.7 L 73.4 273.7 L 74.6 278.3 L 74.6 278.3 L 75.9 273.7 L 76.8 273.7 L 78 278.3 Z M 83.7 274.4 C 83.1 274.4 82.6 274.7 82.6 275.3 C 82.6 275.8 83.2 276 83.9 276.2 C 84.8 276.5 85.8 276.9 85.8 278.1 C 85.8 279.6 84.5 280.1 83.6 280.1 C 82.6 280.1 81.9 279.8 81.2 279.1 C 81.2 279.1 81.9 278.5 81.9 278.5 C 82.5 279.1 82.9 279.3 83.6 279.3 C 84.2 279.3 84.8 279 84.8 278.2 C 84.8 277.6 84.1 277.3 83.4 277.1 C 82.6 276.8 81.7 276.4 81.7 275.3 C 81.7 274.1 82.6 273.6 83.6 273.6 C 84.4 273.6 85 273.8 85.6 274.3 C 85.6 274.3 85 275 85 275 C 84.7 274.7 84.2 274.4 83.7 274.4 Z " stroke="none" fill="#fff"/>  </g>  <g id="Polygon43008">    <path d="M 1.8 251.3 L 1.8 254 L 0.8 254 L 0.8 247.7 L 4.1 247.7 L 4.1 248.5 L 1.8 248.5 L 1.8 250.5 L 4.1 250.5 L 4.1 251.3 L 1.8 251.3 Z M 10.6 251 C 10.6 253 9.9 254.1 8.1 254.1 C 6.4 254.1 5.7 253 5.7 251 C 5.71 251.04 5.7 247.7 5.7 247.7 L 6.7 247.7 C 6.7 247.7 6.67 251.25 6.7 251.2 C 6.7 252.6 7.2 253.3 8.2 253.3 C 9.1 253.3 9.7 252.6 9.7 251.2 C 9.67 251.25 9.7 247.7 9.7 247.7 L 10.6 247.7 C 10.6 247.7 10.63 251.04 10.6 251 Z M 14.6 247.7 C 15.6 247.7 16.8 248.2 16.8 249.5 C 16.8 250.6 16 251.1 15.3 251.3 C 15.27 251.3 17.3 254 17.3 254 L 16 254 L 14.2 251.4 L 13.6 251.4 L 13.6 254 L 12.7 254 L 12.7 247.7 C 12.7 247.7 14.58 247.7 14.6 247.7 Z M 13.6 250.5 C 13.6 250.5 14.36 250.53 14.4 250.5 C 15.2 250.5 15.7 250.2 15.7 249.6 C 15.7 249 15.3 248.5 14.5 248.5 C 14.53 248.55 13.6 248.5 13.6 248.5 L 13.6 250.5 Z M 23 254 L 19.7 249.5 L 19.7 254 L 18.7 254 L 18.7 247.7 L 19.5 247.7 L 22.9 252.2 L 22.9 247.7 L 23.8 247.7 L 23.8 254 L 23 254 Z M 25.9 254 L 25.9 247.7 L 26.9 247.7 L 26.9 254 L 25.9 254 Z M 30.8 248.5 L 30.8 254 L 29.9 254 L 29.9 248.5 L 28.3 248.5 L 28.3 247.7 L 32.4 247.7 L 32.4 248.5 L 30.8 248.5 Z M 38.7 251 C 38.7 253 38 254.1 36.2 254.1 C 34.5 254.1 33.8 253 33.8 251 C 33.79 251.04 33.8 247.7 33.8 247.7 L 34.7 247.7 C 34.7 247.7 34.75 251.25 34.7 251.2 C 34.7 252.6 35.3 253.3 36.2 253.3 C 37.2 253.3 37.7 252.6 37.7 251.2 C 37.75 251.25 37.7 247.7 37.7 247.7 L 38.7 247.7 C 38.7 247.7 38.71 251.04 38.7 251 Z M 42.7 247.7 C 43.6 247.7 44.8 248.2 44.8 249.5 C 44.8 250.6 44.1 251.1 43.4 251.3 C 43.35 251.3 45.3 254 45.3 254 L 44.1 254 L 42.3 251.4 L 41.7 251.4 L 41.7 254 L 40.8 254 L 40.8 247.7 C 40.8 247.7 42.66 247.7 42.7 247.7 Z M 41.7 250.5 C 41.7 250.5 42.44 250.53 42.4 250.5 C 43.2 250.5 43.8 250.2 43.8 249.6 C 43.8 249 43.3 248.5 42.6 248.5 C 42.61 248.55 41.7 248.5 41.7 248.5 L 41.7 250.5 Z M 46.8 254 L 46.8 247.7 L 50.6 247.7 L 50.6 248.5 L 47.7 248.5 L 47.7 250.3 L 50.6 250.3 L 50.6 251.2 L 47.7 251.2 L 47.7 253.2 L 50.6 253.2 L 50.6 254 L 46.8 254 Z " stroke="none" fill="#fff"/>  </g>  <g id="Polygon43007">    <path d="M 2.7 234.7 C 3.8 234.7 5 235.2 5 236.6 C 5 238 3.8 238.5 2.7 238.5 C 2.73 238.52 1.8 238.5 1.8 238.5 L 1.8 241 L 0.8 241 L 0.8 234.7 C 0.8 234.7 2.73 234.7 2.7 234.7 Z M 1.8 237.7 C 1.8 237.7 2.51 237.67 2.5 237.7 C 3.3 237.7 4 237.4 4 236.6 C 4 236 3.4 235.5 2.7 235.5 C 2.68 235.55 1.8 235.5 1.8 235.5 L 1.8 237.7 Z M 9.4 235.4 C 8.1 235.4 7.2 236.5 7.2 237.9 C 7.2 239.2 8.1 240.3 9.4 240.3 C 10.7 240.3 11.7 239.2 11.7 237.9 C 11.7 236.5 10.7 235.4 9.4 235.4 Z M 9.4 241.1 C 7.6 241.1 6.2 239.7 6.2 237.9 C 6.2 236 7.6 234.6 9.4 234.6 C 11.3 234.6 12.7 236 12.7 237.9 C 12.7 239.7 11.3 241.1 9.4 241.1 Z M 19.3 238 C 19.3 240 18.6 241.1 16.9 241.1 C 15.2 241.1 14.4 240 14.4 238 C 14.43 238.04 14.4 234.7 14.4 234.7 L 15.4 234.7 C 15.4 234.7 15.39 238.25 15.4 238.2 C 15.4 239.6 16 240.3 16.9 240.3 C 17.8 240.3 18.4 239.6 18.4 238.2 C 18.39 238.25 18.4 234.7 18.4 234.7 L 19.3 234.7 C 19.3 234.7 19.35 238.04 19.3 238 Z M 22.4 238.3 L 22.4 241 L 21.4 241 L 21.4 234.7 L 24.7 234.7 L 24.7 235.5 L 22.4 235.5 L 22.4 237.5 L 24.7 237.5 L 24.7 238.3 L 22.4 238.3 Z M 28.2 235.4 C 27.5 235.4 27.1 235.7 27.1 236.3 C 27.1 236.8 27.7 237 28.3 237.2 C 29.2 237.5 30.3 237.9 30.3 239.1 C 30.3 240.6 29 241.1 28 241.1 C 27.1 241.1 26.4 240.8 25.7 240.1 C 25.7 240.1 26.4 239.5 26.4 239.5 C 27 240.1 27.4 240.3 28 240.3 C 28.6 240.3 29.3 240 29.3 239.2 C 29.3 238.6 28.6 238.3 27.9 238.1 C 27 237.8 26.1 237.4 26.1 236.3 C 26.1 235.1 27 234.6 28.1 234.6 C 28.8 234.6 29.5 234.8 30.1 235.3 C 30.1 235.3 29.5 236 29.5 236 C 29.2 235.7 28.6 235.4 28.2 235.4 Z M 39.7 241.2 C 39.7 241.2 38.57 240.2 38.6 240.2 C 38.1 240.8 37.4 241.1 36.6 241.1 C 35.5 241.1 34.5 240.2 34.5 239.1 C 34.5 238.4 34.9 237.8 35.5 237.5 C 35.2 237.1 35 236.7 35 236.2 C 35 235.2 35.9 234.6 36.8 234.6 C 37.6 234.6 38.2 235 38.4 235.8 C 38.4 235.8 37.6 236 37.6 236 C 37.5 235.6 37.2 235.4 36.7 235.4 C 36.3 235.4 35.9 235.7 35.9 236.2 C 35.9 236.7 36.2 237 36.8 237.5 C 36.85 237.54 36.3 238.2 36.3 238.2 C 36.3 238.2 36.13 238.02 36.1 238 C 35.7 238.2 35.4 238.6 35.4 239.1 C 35.4 239.8 36 240.3 36.7 240.3 C 37.2 240.3 37.7 240.1 38 239.7 C 37.95 239.65 37.2 239 37.2 239 L 37.8 238.4 L 40.2 240.6 L 39.7 241.2 Z M 47.5 239.7 L 44.9 239.7 L 44.4 241 L 43.4 241 L 45.9 234.7 L 46.7 234.7 L 49.1 241 L 48 241 L 47.5 239.7 Z M 45.2 238.9 L 47.2 238.9 L 46.2 236.2 L 46.2 236.2 L 45.2 238.9 Z M 53.4 240.3 C 53.9 240.3 54.3 240.1 54.8 239.8 C 54.8 239.8 55.3 240.5 55.3 240.5 C 54.7 240.9 54.1 241.1 53.4 241.1 C 51.5 241.1 50 239.8 50 237.9 C 50 236 51.5 234.6 53.4 234.6 C 54 234.6 54.6 234.8 55.1 235.1 C 55.1 235.1 54.7 235.9 54.7 235.9 C 54.3 235.6 53.8 235.4 53.4 235.4 C 52 235.4 51 236.5 51 237.9 C 51 239.3 52 240.3 53.4 240.3 Z M 59.5 240.3 C 60 240.3 60.4 240.1 60.9 239.8 C 60.9 239.8 61.4 240.5 61.4 240.5 C 60.8 240.9 60.2 241.1 59.5 241.1 C 57.6 241.1 56.1 239.8 56.1 237.9 C 56.1 236 57.6 234.6 59.5 234.6 C 60.1 234.6 60.7 234.8 61.2 235.1 C 61.2 235.1 60.8 235.9 60.8 235.9 C 60.4 235.6 60 235.4 59.5 235.4 C 58.1 235.4 57.1 236.5 57.1 237.9 C 57.1 239.3 58.1 240.3 59.5 240.3 Z M 62.9 241 L 62.9 234.7 L 66.8 234.7 L 66.8 235.5 L 63.9 235.5 L 63.9 237.3 L 66.8 237.3 L 66.8 238.2 L 63.9 238.2 L 63.9 240.2 L 66.8 240.2 L 66.8 241 L 62.9 241 Z M 72.9 241 L 69.6 236.5 L 69.6 241 L 68.6 241 L 68.6 234.7 L 69.4 234.7 L 72.8 239.2 L 72.8 234.7 L 73.7 234.7 L 73.7 241 L 72.9 241 Z M 77.7 235.5 L 77.7 241 L 76.7 241 L 76.7 235.5 L 75.2 235.5 L 75.2 234.7 L 79.3 234.7 L 79.3 235.5 L 77.7 235.5 Z " stroke="none" fill="#fff"/>  </g>  <g id="Polygon43006">    <path d="M 5.7 215.2 C 5.7 215.2 4.62 214.2 4.6 214.2 C 4.1 214.8 3.4 215.1 2.7 215.1 C 1.5 215.1 0.5 214.2 0.5 213.1 C 0.5 212.4 1 211.8 1.6 211.5 C 1.3 211.1 1 210.7 1 210.2 C 1 209.2 1.9 208.6 2.8 208.6 C 3.6 208.6 4.3 209 4.5 209.8 C 4.5 209.8 3.6 210 3.6 210 C 3.5 209.6 3.2 209.4 2.8 209.4 C 2.3 209.4 1.9 209.7 1.9 210.2 C 1.9 210.7 2.3 211 2.9 211.5 C 2.89 211.54 2.3 212.2 2.3 212.2 C 2.3 212.2 2.18 212.02 2.2 212 C 1.8 212.2 1.5 212.6 1.5 213.1 C 1.5 213.8 2.1 214.3 2.8 214.3 C 3.3 214.3 3.7 214.1 4 213.7 C 4 213.65 3.3 213 3.3 213 L 3.8 212.4 L 6.3 214.6 L 5.7 215.2 Z M 13.8 215 L 13.1 215 L 11.1 209.9 L 11.1 215 L 10.1 215 L 10.1 208.7 L 11.6 208.7 L 13.5 213.5 L 15.4 208.7 L 16.9 208.7 L 16.9 215 L 15.9 215 L 15.9 209.9 L 13.8 215 Z M 18.9 215 L 18.9 208.7 L 19.9 208.7 L 19.9 215 L 18.9 215 Z M 23.9 208.7 C 24.9 208.7 26.1 209.2 26.1 210.5 C 26.1 211.6 25.3 212.1 24.6 212.3 C 24.59 212.3 26.6 215 26.6 215 L 25.4 215 L 23.5 212.4 L 23 212.4 L 23 215 L 22 215 L 22 208.7 C 22 208.7 23.89 208.7 23.9 208.7 Z M 23 211.5 C 23 211.5 23.68 211.53 23.7 211.5 C 24.5 211.5 25.1 211.2 25.1 210.6 C 25.1 210 24.6 209.5 23.8 209.5 C 23.85 209.55 23 209.5 23 209.5 L 23 211.5 Z M 29.9 208.7 C 30.9 208.7 32.1 209.2 32.1 210.5 C 32.1 211.6 31.4 212.1 30.6 212.3 C 30.6 212.3 32.6 215 32.6 215 L 31.4 215 L 29.5 212.4 L 29 212.4 L 29 215 L 28 215 L 28 208.7 C 28 208.7 29.91 208.7 29.9 208.7 Z M 29 211.5 C 29 211.5 29.69 211.53 29.7 211.5 C 30.5 211.5 31.1 211.2 31.1 210.6 C 31.1 210 30.6 209.5 29.9 209.5 C 29.86 209.55 29 209.5 29 209.5 L 29 211.5 Z M 36.8 209.4 C 35.5 209.4 34.6 210.5 34.6 211.9 C 34.6 213.2 35.5 214.3 36.8 214.3 C 38.1 214.3 39.1 213.2 39.1 211.9 C 39.1 210.5 38.1 209.4 36.8 209.4 Z M 36.8 215.1 C 35 215.1 33.6 213.7 33.6 211.9 C 33.6 210 35 208.6 36.8 208.6 C 38.7 208.6 40.1 210 40.1 211.9 C 40.1 213.7 38.7 215.1 36.8 215.1 Z M 43.8 208.7 C 44.8 208.7 46 209.2 46 210.5 C 46 211.6 45.2 212.1 44.5 212.3 C 44.47 212.3 46.4 215 46.4 215 L 45.2 215 L 43.4 212.4 L 42.8 212.4 L 42.8 215 L 41.9 215 L 41.9 208.7 C 41.9 208.7 43.78 208.7 43.8 208.7 Z M 42.8 211.5 C 42.8 211.5 43.56 211.53 43.6 211.5 C 44.4 211.5 44.9 211.2 44.9 210.6 C 44.9 210 44.5 209.5 43.7 209.5 C 43.73 209.55 42.8 209.5 42.8 209.5 L 42.8 211.5 Z M 49.9 209.4 C 49.3 209.4 48.8 209.7 48.8 210.3 C 48.8 210.8 49.4 211 50.1 211.2 C 51 211.5 52 211.9 52 213.1 C 52 214.6 50.8 215.1 49.8 215.1 C 48.8 215.1 48.1 214.8 47.5 214.1 C 47.5 214.1 48.1 213.5 48.1 213.5 C 48.7 214.1 49.1 214.3 49.8 214.3 C 50.4 214.3 51 214 51 213.2 C 51 212.6 50.3 212.3 49.6 212.1 C 48.8 211.8 47.9 211.4 47.9 210.3 C 47.9 209.1 48.8 208.6 49.8 208.6 C 50.6 208.6 51.2 208.8 51.8 209.3 C 51.8 209.3 51.2 210 51.2 210 C 50.9 209.7 50.4 209.4 49.9 209.4 Z " stroke="none" fill="#fff"/>  </g>  <g id="Polygon43005">    <path d="M 5.7 200.3 L 5.8 200.3 L 7 195.7 L 8.1 195.7 L 6.3 202 L 5.3 202 L 4.1 197.4 L 4 197.4 L 2.7 202 L 1.8 202 L 0 195.7 L 1.1 195.7 L 2.3 200.3 L 2.3 200.3 L 3.6 195.7 L 4.5 195.7 L 5.7 200.3 Z M 12.7 200.7 L 10.1 200.7 L 9.6 202 L 8.6 202 L 11.1 195.7 L 11.9 195.7 L 14.3 202 L 13.2 202 L 12.7 200.7 Z M 10.4 199.9 L 12.4 199.9 L 11.4 197.2 L 11.4 197.2 L 10.4 199.9 Z M 15.7 202 L 15.7 195.7 L 16.7 195.7 L 16.7 201.2 L 19.4 201.2 L 19.4 202 L 15.7 202 Z M 20.7 202 L 20.7 195.7 L 21.7 195.7 L 21.7 201.2 L 24.4 201.2 L 24.4 202 L 20.7 202 Z M 31.8 200.7 L 29.2 200.7 L 28.8 202 L 27.7 202 L 30.2 195.7 L 31 195.7 L 33.4 202 L 32.3 202 L 31.8 200.7 Z M 29.5 199.9 L 31.5 199.9 L 30.5 197.2 L 30.5 197.2 L 29.5 199.9 Z M 36.7 195.7 C 37.7 195.7 38.9 196.2 38.9 197.5 C 38.9 198.6 38.2 199.1 37.4 199.3 C 37.43 199.3 39.4 202 39.4 202 L 38.2 202 L 36.4 199.4 L 35.8 199.4 L 35.8 202 L 34.8 202 L 34.8 195.7 C 34.8 195.7 36.74 195.7 36.7 195.7 Z M 35.8 198.5 C 35.8 198.5 36.52 198.53 36.5 198.5 C 37.3 198.5 37.9 198.2 37.9 197.6 C 37.9 197 37.4 196.5 36.7 196.5 C 36.69 196.55 35.8 196.5 35.8 196.5 L 35.8 198.5 Z M 42.7 196.5 L 42.7 202 L 41.8 202 L 41.8 196.5 L 40.2 196.5 L 40.2 195.7 L 44.3 195.7 L 44.3 196.5 L 42.7 196.5 Z " stroke="none" fill="#fff"/>  </g>  <g id="Polygon43004">    <path d="M 2.7 169.7 C 3.7 169.7 4.9 170.2 4.9 171.5 C 4.9 172.6 4.2 173.1 3.4 173.3 C 3.41 173.3 5.4 176 5.4 176 L 4.2 176 L 2.3 173.4 L 1.8 173.4 L 1.8 176 L 0.8 176 L 0.8 169.7 C 0.8 169.7 2.72 169.7 2.7 169.7 Z M 1.8 172.5 C 1.8 172.5 2.5 172.53 2.5 172.5 C 3.3 172.5 3.9 172.2 3.9 171.6 C 3.9 171 3.4 170.5 2.7 170.5 C 2.67 170.55 1.8 170.5 1.8 170.5 L 1.8 172.5 Z M 11.6 173 C 11.6 175 10.9 176.1 9.1 176.1 C 7.4 176.1 6.7 175 6.7 173 C 6.71 173.04 6.7 169.7 6.7 169.7 L 7.7 169.7 C 7.7 169.7 7.67 173.25 7.7 173.2 C 7.7 174.6 8.2 175.3 9.2 175.3 C 10.1 175.3 10.7 174.6 10.7 173.2 C 10.67 173.25 10.7 169.7 10.7 169.7 L 11.6 169.7 C 11.6 169.7 11.63 173.04 11.6 173 Z M 16.8 173.3 L 16.8 172.5 L 19.4 172.5 C 19.4 172.5 19.38 174.88 19.4 174.9 C 18.8 175.7 17.8 176.1 16.8 176.1 C 14.8 176.1 13.4 174.8 13.4 172.9 C 13.4 171 14.9 169.6 16.8 169.6 C 17.7 169.6 18.6 170 19.2 170.7 C 19.2 170.7 18.6 171.3 18.6 171.3 C 18.1 170.8 17.5 170.4 16.8 170.4 C 15.4 170.4 14.4 171.5 14.4 172.9 C 14.4 174.3 15.4 175.3 16.8 175.3 C 17.4 175.3 18 175 18.4 174.6 C 18.41 174.61 18.4 173.3 18.4 173.3 L 16.8 173.3 Z M 23.3 170.4 C 22.7 170.4 22.3 170.7 22.3 171.3 C 22.3 171.8 22.9 172 23.5 172.2 C 24.4 172.5 25.5 172.9 25.5 174.1 C 25.5 175.6 24.2 176.1 23.2 176.1 C 22.3 176.1 21.6 175.8 20.9 175.1 C 20.9 175.1 21.6 174.5 21.6 174.5 C 22.1 175.1 22.6 175.3 23.2 175.3 C 23.8 175.3 24.4 175 24.4 174.2 C 24.4 173.6 23.8 173.3 23.1 173.1 C 22.2 172.8 21.3 172.4 21.3 171.3 C 21.3 170.1 22.2 169.6 23.3 169.6 C 24 169.6 24.7 169.8 25.2 170.3 C 25.2 170.3 24.7 171 24.7 171 C 24.4 170.7 23.8 170.4 23.3 170.4 Z " stroke="none" fill="#fff"/>  </g>  <g id="Polygon43003">    <path d="M 0.8 150 L 0.8 143.7 L 1.8 143.7 L 1.8 149.2 L 4.5 149.2 L 4.5 150 L 0.8 150 Z M 5.8 150 L 5.8 143.7 L 6.8 143.7 L 6.8 150 L 5.8 150 Z M 12 147.3 L 12 146.5 L 14.5 146.5 C 14.5 146.5 14.54 148.88 14.5 148.9 C 13.9 149.7 13 150.1 11.9 150.1 C 10 150.1 8.5 148.8 8.5 146.9 C 8.5 145 10.1 143.6 11.9 143.6 C 12.9 143.6 13.8 144 14.4 144.7 C 14.4 144.7 13.7 145.3 13.7 145.3 C 13.3 144.8 12.6 144.4 11.9 144.4 C 10.6 144.4 9.6 145.5 9.6 146.9 C 9.6 148.3 10.5 149.3 11.9 149.3 C 12.5 149.3 13.1 149 13.6 148.6 C 13.58 148.61 13.6 147.3 13.6 147.3 L 12 147.3 Z M 20.6 150 L 20.6 147.2 L 17.5 147.2 L 17.5 150 L 16.5 150 L 16.5 143.7 L 17.5 143.7 L 17.5 146.3 L 20.6 146.3 L 20.6 143.7 L 21.6 143.7 L 21.6 150 L 20.6 150 Z M 25.6 144.5 L 25.6 150 L 24.6 150 L 24.6 144.5 L 23 144.5 L 23 143.7 L 27.1 143.7 L 27.1 144.5 L 25.6 144.5 Z M 28.5 150 L 28.5 143.7 L 29.5 143.7 L 29.5 150 L 28.5 150 Z M 35.9 150 L 32.6 145.5 L 32.6 150 L 31.6 150 L 31.6 143.7 L 32.4 143.7 L 35.8 148.2 L 35.8 143.7 L 36.7 143.7 L 36.7 150 L 35.9 150 Z M 42 147.3 L 42 146.5 L 44.5 146.5 C 44.5 146.5 44.52 148.88 44.5 148.9 C 43.9 149.7 42.9 150.1 41.9 150.1 C 40 150.1 38.5 148.8 38.5 146.9 C 38.5 145 40 143.6 41.9 143.6 C 42.9 143.6 43.8 144 44.4 144.7 C 44.4 144.7 43.7 145.3 43.7 145.3 C 43.3 144.8 42.6 144.4 41.9 144.4 C 40.5 144.4 39.5 145.5 39.5 146.9 C 39.5 148.3 40.5 149.3 41.9 149.3 C 42.5 149.3 43.1 149 43.6 148.6 C 43.56 148.61 43.6 147.3 43.6 147.3 L 42 147.3 Z " stroke="none" fill="#fff"/>  </g>  <g id="Polygon43002">    <path d="M 0.7 131.8 C 0.7 131.8 1.96 131.75 2 131.8 C 2.5 131.8 3 131.8 3.4 132.1 C 3.7 132.3 3.9 132.7 3.9 133.2 C 3.9 133.7 3.7 134 3.1 134.3 C 3.8 134.5 4.1 134.9 4.1 135.5 C 4.1 136.1 3.8 136.6 3.3 136.8 C 2.9 137 2.4 137 1.9 137 C 1.9 137 0.7 137 0.7 137 L 0.7 131.8 Z M 2.3 134.6 C 2.27 134.63 1.4 134.6 1.4 134.6 L 1.4 136.4 C 1.4 136.4 1.83 136.37 1.8 136.4 C 2.3 136.4 2.6 136.3 2.9 136.2 C 3.2 136.1 3.4 135.9 3.4 135.5 C 3.4 135 3 134.6 2.3 134.6 Z M 2.9 132.6 C 2.6 132.4 2.2 132.4 1.8 132.4 C 1.79 132.38 1.4 132.4 1.4 132.4 L 1.4 134 C 1.4 134 1.93 134 1.9 134 C 2.7 134 3.2 133.8 3.2 133.2 C 3.2 132.9 3.1 132.7 2.9 132.6 Z M 5.7 135.3 C 5.7 135.9 6.1 136.5 6.9 136.5 C 7.4 136.5 7.8 136.3 8 135.9 C 8 135.9 8.5 136.2 8.5 136.2 C 8.1 136.8 7.6 137.1 6.8 137.1 C 5.6 137.1 5 136.2 5 135.1 C 5 134 5.8 133.2 6.8 133.2 C 7.8 133.2 8.5 133.9 8.5 134.9 C 8.5 135 8.5 135.2 8.5 135.3 C 8.5 135.3 5.7 135.3 5.7 135.3 Z M 5.7 134.8 C 5.7 134.8 7.8 134.8 7.8 134.8 C 7.8 134.2 7.4 133.7 6.8 133.7 C 6.2 133.7 5.8 134.2 5.7 134.8 Z M 13.3 134 C 13.2 133.9 12.9 133.7 12.6 133.7 C 12.3 133.7 12 133.9 12 134.2 C 12 134.5 12.4 134.7 12.8 134.8 C 13.2 135 13.9 135.3 13.9 135.9 C 13.9 136.8 13.2 137.1 12.5 137.1 C 12 137.1 11.5 136.9 11.2 136.5 C 11.2 136.5 11.7 136.1 11.7 136.1 C 11.9 136.4 12.2 136.5 12.5 136.5 C 12.9 136.5 13.2 136.3 13.2 135.9 C 13.2 135.7 12.8 135.5 12.5 135.4 C 12 135.2 11.4 135 11.4 134.3 C 11.4 133.5 12 133.2 12.6 133.2 C 13 133.2 13.4 133.3 13.7 133.6 C 13.7 133.6 13.3 134 13.3 134 Z M 17.6 136.4 C 17.3 136.8 16.9 137.1 16.3 137.1 C 15.8 137.1 15.5 136.9 15.3 136.6 C 15 136.3 14.9 135.8 14.9 135.2 C 14.93 135.2 14.9 133.3 14.9 133.3 L 15.6 133.3 C 15.6 133.3 15.61 135.13 15.6 135.1 C 15.6 135.5 15.6 135.9 15.8 136.2 C 15.9 136.3 16.1 136.5 16.5 136.5 C 16.9 136.5 17.3 136.2 17.6 135.7 C 17.57 135.74 17.6 133.3 17.6 133.3 L 18.3 133.3 L 18.3 137 L 17.6 137 C 17.6 137 17.57 136.39 17.6 136.4 Z M 20.3 133.9 C 20.5 133.5 20.8 133.2 21.2 133.2 C 21.4 133.2 21.5 133.2 21.6 133.2 C 21.6 133.2 21.5 133.9 21.5 133.9 C 21.4 133.9 21.3 133.9 21.2 133.9 C 20.8 133.9 20.5 134.1 20.3 134.5 C 20.27 134.49 20.3 137 20.3 137 L 19.6 137 L 19.6 133.3 L 20.3 133.3 C 20.3 133.3 20.27 133.87 20.3 133.9 Z M 22.7 135.3 C 22.8 135.9 23.2 136.5 23.9 136.5 C 24.4 136.5 24.8 136.3 25 135.9 C 25 135.9 25.5 136.2 25.5 136.2 C 25.2 136.8 24.6 137.1 23.9 137.1 C 22.7 137.1 22 136.2 22 135.1 C 22 134 22.8 133.2 23.9 133.2 C 24.9 133.2 25.6 133.9 25.6 134.9 C 25.6 135 25.6 135.2 25.6 135.3 C 25.6 135.3 22.7 135.3 22.7 135.3 Z M 22.8 134.8 C 22.8 134.8 24.9 134.8 24.9 134.8 C 24.9 134.2 24.5 133.7 23.9 133.7 C 23.3 133.7 22.9 134.2 22.8 134.8 Z M 29.3 133.8 C 29.3 133.8 29.29 135.55 29.3 135.5 C 29.3 135.6 29.3 135.7 29.3 135.8 C 29.3 136.2 29.4 136.5 29.8 136.5 C 30 136.5 30.1 136.4 30.2 136.4 C 30.2 136.4 30.4 136.9 30.4 136.9 C 30.2 137 30 137.1 29.7 137.1 C 29.2 137.1 28.9 136.8 28.7 136.5 C 28.6 136.3 28.6 136 28.6 135.7 C 28.61 135.71 28.6 133.8 28.6 133.8 L 28.1 133.8 L 28.1 133.3 L 28.6 133.3 L 28.6 132.4 L 29.3 132.4 L 29.3 133.3 L 30.3 133.3 L 30.3 133.8 L 29.3 133.8 Z M 34.7 135.1 C 34.7 136.2 33.9 137.1 32.8 137.1 C 31.7 137.1 30.9 136.2 30.9 135.1 C 30.9 134 31.7 133.2 32.8 133.2 C 33.9 133.2 34.7 134 34.7 135.1 Z M 32.8 133.8 C 32.1 133.8 31.6 134.4 31.6 135.1 C 31.6 135.9 32.1 136.5 32.8 136.5 C 33.5 136.5 34.1 135.9 34.1 135.1 C 34.1 134.4 33.5 133.8 32.8 133.8 Z M 40.5 136.7 C 40.2 136.9 39.8 137.1 39.3 137.1 C 38.2 137.1 37.4 136.3 37.4 135.1 C 37.4 134 38.3 133.2 39.4 133.2 C 39.8 133.2 40.1 133.3 40.4 133.5 C 40.4 133.5 40.1 134 40.1 134 C 39.9 133.9 39.6 133.8 39.3 133.8 C 38.7 133.8 38.1 134.4 38.1 135.1 C 38.1 135.9 38.7 136.5 39.3 136.5 C 39.6 136.5 39.9 136.3 40.1 136.2 C 40.1 136.2 40.5 136.7 40.5 136.7 Z M 42 133.9 C 42.3 133.4 42.8 133.2 43.3 133.2 C 43.8 133.2 44.1 133.3 44.3 133.6 C 44.6 134 44.7 134.5 44.7 135 C 44.68 135.05 44.7 137 44.7 137 L 44 137 C 44 137 44 135.12 44 135.1 C 44 134.8 44 134.4 43.8 134.1 C 43.7 133.9 43.5 133.8 43.2 133.8 C 42.7 133.8 42.3 134.1 42 134.5 C 42.04 134.51 42 137 42 137 L 41.4 137 L 41.4 131.4 L 42 131.4 C 42 131.4 42.04 133.86 42 133.9 Z M 46.3 135.3 C 46.4 135.9 46.8 136.5 47.5 136.5 C 48 136.5 48.4 136.3 48.7 135.9 C 48.7 135.9 49.2 136.2 49.2 136.2 C 48.8 136.8 48.3 137.1 47.5 137.1 C 46.3 137.1 45.7 136.2 45.7 135.1 C 45.7 134 46.5 133.2 47.5 133.2 C 48.5 133.2 49.2 133.9 49.2 134.9 C 49.2 135 49.2 135.2 49.2 135.3 C 49.2 135.3 46.3 135.3 46.3 135.3 Z M 46.4 134.8 C 46.4 134.8 48.5 134.8 48.5 134.8 C 48.5 134.2 48.1 133.7 47.5 133.7 C 46.9 133.7 46.5 134.2 46.4 134.8 Z M 53 136.7 C 52.7 136.9 52.3 137.1 51.9 137.1 C 50.8 137.1 49.9 136.3 49.9 135.1 C 49.9 134 50.8 133.2 51.9 133.2 C 52.3 133.2 52.6 133.3 52.9 133.5 C 52.9 133.5 52.6 134 52.6 134 C 52.4 133.9 52.1 133.8 51.9 133.8 C 51.2 133.8 50.6 134.4 50.6 135.1 C 50.6 135.9 51.2 136.5 51.9 136.5 C 52.1 136.5 52.5 136.3 52.7 136.2 C 52.7 136.2 53 136.7 53 136.7 Z M 56.2 137 L 55.2 135.3 L 54.6 136 L 54.6 137 L 53.9 137 L 53.9 131.4 L 54.6 131.4 L 54.6 135.1 L 54.6 135.1 L 56.1 133.3 L 56.9 133.3 L 55.6 134.8 L 57.1 137 L 56.2 137 Z M 63.3 135.1 C 63.3 136.2 62.5 137.1 61.4 137.1 C 60.3 137.1 59.5 136.2 59.5 135.1 C 59.5 134 60.3 133.2 61.4 133.2 C 62.5 133.2 63.3 134 63.3 135.1 Z M 61.4 133.8 C 60.7 133.8 60.1 134.4 60.1 135.1 C 60.1 135.9 60.7 136.5 61.4 136.5 C 62.1 136.5 62.6 135.9 62.6 135.1 C 62.6 134.4 62.1 133.8 61.4 133.8 Z M 66.9 136.4 C 66.6 136.8 66.2 137.1 65.7 137.1 C 65.2 137.1 64.8 136.9 64.6 136.6 C 64.3 136.3 64.3 135.8 64.3 135.2 C 64.25 135.2 64.3 133.3 64.3 133.3 L 64.9 133.3 C 64.9 133.3 64.93 135.13 64.9 135.1 C 64.9 135.5 64.9 135.9 65.1 136.2 C 65.2 136.3 65.5 136.5 65.8 136.5 C 66.2 136.5 66.6 136.2 66.9 135.7 C 66.9 135.74 66.9 133.3 66.9 133.3 L 67.6 133.3 L 67.6 137 L 66.9 137 C 66.9 137 66.9 136.39 66.9 136.4 Z M 69.6 133.8 C 69.6 133.8 69.64 135.55 69.6 135.5 C 69.6 135.6 69.6 135.7 69.6 135.8 C 69.7 136.2 69.8 136.5 70.2 136.5 C 70.3 136.5 70.5 136.4 70.6 136.4 C 70.6 136.4 70.8 136.9 70.8 136.9 C 70.6 137 70.3 137.1 70.1 137.1 C 69.6 137.1 69.2 136.8 69.1 136.5 C 69 136.3 69 136 69 135.7 C 68.95 135.71 69 133.8 69 133.8 L 68.5 133.8 L 68.5 133.3 L 69 133.3 L 69 132.4 L 69.6 132.4 L 69.6 133.3 L 70.7 133.3 L 70.7 133.8 L 69.6 133.8 Z M 71.5 134.1 L 71.5 133.3 L 72.3 133.3 L 72.3 134.1 L 71.5 134.1 Z M 71.5 137 L 71.5 136.1 L 72.3 136.1 L 72.3 137 L 71.5 137 Z " stroke="none" fill="#9a9ea1"/>  </g>  <g id="Polygon43001">    <path d="M 2.8 92.4 C 2.2 92.4 1.8 92.7 1.8 93.3 C 1.8 93.8 2.4 94 3 94.2 C 3.9 94.5 4.9 94.9 4.9 96.1 C 4.9 97.6 3.7 98.1 2.7 98.1 C 1.8 98.1 1.1 97.8 0.4 97.1 C 0.4 97.1 1.1 96.5 1.1 96.5 C 1.6 97.1 2.1 97.3 2.7 97.3 C 3.3 97.3 3.9 97 3.9 96.2 C 3.9 95.6 3.3 95.3 2.6 95.1 C 1.7 94.8 0.8 94.4 0.8 93.3 C 0.8 92.1 1.7 91.6 2.7 91.6 C 3.5 91.6 4.1 91.8 4.7 92.3 C 4.7 92.3 4.1 93 4.1 93 C 3.8 92.7 3.3 92.4 2.8 92.4 Z M 6.2 98 L 6.2 91.7 L 10.1 91.7 L 10.1 92.5 L 7.2 92.5 L 7.2 94.3 L 10.1 94.3 L 10.1 95.2 L 7.2 95.2 L 7.2 97.2 L 10.1 97.2 L 10.1 98 L 6.2 98 Z M 15 96.7 L 12.4 96.7 L 11.9 98 L 10.9 98 L 13.3 91.7 L 14.2 91.7 L 16.6 98 L 15.5 98 L 15 96.7 Z M 12.7 95.9 L 14.7 95.9 L 13.7 93.2 L 13.7 93.2 L 12.7 95.9 Z M 19 92.5 L 19 98 L 18.1 98 L 18.1 92.5 L 16.5 92.5 L 16.5 91.7 L 20.6 91.7 L 20.6 92.5 L 19 92.5 Z M 21.6 98 L 21.6 91.7 L 22.5 91.7 L 22.5 98 L 21.6 98 Z M 28.4 98 L 25.1 93.5 L 25.1 98 L 24.2 98 L 24.2 91.7 L 25 91.7 L 28.3 96.2 L 28.3 91.7 L 29.3 91.7 L 29.3 98 L 28.4 98 Z M 34.1 95.3 L 34.1 94.5 L 36.6 94.5 C 36.6 94.5 36.64 96.88 36.6 96.9 C 36 97.7 35.1 98.1 34 98.1 C 32.1 98.1 30.6 96.8 30.6 94.9 C 30.6 93 32.2 91.6 34 91.6 C 35 91.6 35.9 92 36.5 92.7 C 36.5 92.7 35.8 93.3 35.8 93.3 C 35.4 92.8 34.7 92.4 34 92.4 C 32.7 92.4 31.7 93.5 31.7 94.9 C 31.7 96.3 32.6 97.3 34 97.3 C 34.6 97.3 35.2 97 35.7 96.6 C 35.68 96.61 35.7 95.3 35.7 95.3 L 34.1 95.3 Z " stroke="none" fill="#fff"/>  </g>  <g id="Polygon43000">    <path d="M 3.3 85.1 C 1.7 85.1 0.5 84 0.5 82.4 C 0.5 80.8 1.7 79.7 3.3 79.7 C 3.8 79.7 4.3 79.8 4.7 80.1 C 4.7 80.1 4.3 80.6 4.3 80.6 C 4 80.4 3.7 80.3 3.3 80.3 C 2.1 80.3 1.2 81.2 1.2 82.4 C 1.2 83.7 2.1 84.4 3.3 84.4 C 3.7 84.4 4.1 84.3 4.4 84.1 C 4.4 84.1 4.8 84.6 4.8 84.6 C 4.4 84.9 3.8 85.1 3.3 85.1 Z M 8.4 84.4 C 8.1 84.8 7.6 85.1 7.1 85.1 C 6.6 85.1 6.3 84.9 6.1 84.6 C 5.8 84.3 5.7 83.8 5.7 83.2 C 5.72 83.2 5.7 81.3 5.7 81.3 L 6.4 81.3 C 6.4 81.3 6.4 83.13 6.4 83.1 C 6.4 83.5 6.4 83.9 6.6 84.2 C 6.7 84.3 6.9 84.5 7.2 84.5 C 7.7 84.5 8.1 84.2 8.4 83.7 C 8.36 83.74 8.4 81.3 8.4 81.3 L 9 81.3 L 9 85 L 8.4 85 C 8.4 85 8.36 84.39 8.4 84.4 Z M 11.1 81.9 C 11.3 81.5 11.6 81.2 12 81.2 C 12.2 81.2 12.3 81.2 12.4 81.2 C 12.4 81.2 12.3 81.9 12.3 81.9 C 12.2 81.9 12.1 81.9 12 81.9 C 11.6 81.9 11.3 82.1 11.1 82.5 C 11.06 82.49 11.1 85 11.1 85 L 10.4 85 L 10.4 81.3 L 11.1 81.3 C 11.1 81.3 11.06 81.87 11.1 81.9 Z M 13.8 81.9 C 14 81.5 14.4 81.2 14.8 81.2 C 14.9 81.2 15 81.2 15.2 81.2 C 15.2 81.2 15.1 81.9 15.1 81.9 C 14.9 81.9 14.8 81.9 14.7 81.9 C 14.3 81.9 14 82.1 13.8 82.5 C 13.81 82.49 13.8 85 13.8 85 L 13.1 85 L 13.1 81.3 L 13.8 81.3 C 13.8 81.3 13.81 81.87 13.8 81.9 Z M 16.3 83.3 C 16.3 83.9 16.7 84.5 17.5 84.5 C 18 84.5 18.4 84.3 18.6 83.9 C 18.6 83.9 19.1 84.2 19.1 84.2 C 18.7 84.8 18.2 85.1 17.4 85.1 C 16.2 85.1 15.6 84.2 15.6 83.1 C 15.6 82 16.4 81.2 17.4 81.2 C 18.4 81.2 19.1 81.9 19.1 82.9 C 19.1 83 19.1 83.2 19.1 83.3 C 19.1 83.3 16.3 83.3 16.3 83.3 Z M 16.3 82.8 C 16.3 82.8 18.4 82.8 18.4 82.8 C 18.4 82.2 18 81.7 17.4 81.7 C 16.8 81.7 16.4 82.2 16.3 82.8 Z M 20.8 81.3 C 20.8 81.3 20.84 81.86 20.8 81.9 C 21.1 81.4 21.6 81.2 22.1 81.2 C 22.6 81.2 22.9 81.3 23.2 81.6 C 23.4 82 23.5 82.5 23.5 83 C 23.49 83.05 23.5 85 23.5 85 L 22.8 85 C 22.8 85 22.81 83.12 22.8 83.1 C 22.8 82.8 22.8 82.4 22.6 82.1 C 22.5 81.9 22.3 81.8 22 81.8 C 21.5 81.8 21.1 82.1 20.8 82.5 C 20.84 82.51 20.8 85 20.8 85 L 20.2 85 L 20.2 81.3 L 20.8 81.3 Z M 25.5 81.8 C 25.5 81.8 25.5 83.55 25.5 83.5 C 25.5 83.6 25.5 83.7 25.5 83.8 C 25.5 84.2 25.7 84.5 26 84.5 C 26.2 84.5 26.3 84.4 26.5 84.4 C 26.5 84.4 26.6 84.9 26.6 84.9 C 26.5 85 26.2 85.1 25.9 85.1 C 25.4 85.1 25.1 84.8 24.9 84.5 C 24.8 84.3 24.8 84 24.8 83.7 C 24.82 83.71 24.8 81.8 24.8 81.8 L 24.3 81.8 L 24.3 81.3 L 24.8 81.3 L 24.8 80.4 L 25.5 80.4 L 25.5 81.3 L 26.5 81.3 L 26.5 81.8 L 25.5 81.8 Z M 28.1 85 L 27.5 85 L 27.5 79.4 L 28.1 79.4 L 28.1 85 Z M 29.6 81.3 L 30.6 84.1 L 30.6 84.1 L 31.6 81.3 L 32.4 81.3 L 30.3 86.7 L 29.7 86.5 L 30.3 84.9 L 28.9 81.3 L 29.6 81.3 Z M 38 81.3 L 36.5 85 L 35.9 85 L 34.5 81.3 L 35.3 81.3 L 36.3 84.2 L 36.3 84.2 L 37.3 81.3 L 38 81.3 Z M 38.7 85 L 38.7 81.3 L 39.4 81.3 L 39.4 85 L 38.7 85 Z M 38.7 80.5 L 38.7 79.8 L 39.4 79.8 L 39.4 80.5 L 38.7 80.5 Z M 41.1 83.3 C 41.2 83.9 41.6 84.5 42.3 84.5 C 42.8 84.5 43.2 84.3 43.4 83.9 C 43.4 83.9 43.9 84.2 43.9 84.2 C 43.6 84.8 43.1 85.1 42.3 85.1 C 41.1 85.1 40.4 84.2 40.4 83.1 C 40.4 82 41.3 81.2 42.3 81.2 C 43.3 81.2 44 81.9 44 82.9 C 44 83 44 83.2 44 83.3 C 44 83.3 41.1 83.3 41.1 83.3 Z M 41.2 82.8 C 41.2 82.8 43.3 82.8 43.3 82.8 C 43.3 82.2 42.9 81.7 42.3 81.7 C 41.7 81.7 41.3 82.2 41.2 82.8 Z M 48.3 84.1 L 48.3 84.1 L 49.1 81.3 L 49.8 81.3 L 48.7 85 L 48 85 L 47.2 82.1 L 47.1 82.1 L 46.3 85 L 45.6 85 L 44.5 81.3 L 45.3 81.3 L 46 84.1 L 46 84.1 L 46.8 81.3 L 47.5 81.3 L 48.3 84.1 Z M 50.6 85 L 50.6 81.3 L 51.3 81.3 L 51.3 85 L 50.6 85 Z M 50.6 80.5 L 50.6 79.8 L 51.3 79.8 L 51.3 80.5 L 50.6 80.5 Z M 53.3 81.3 C 53.3 81.3 53.3 81.86 53.3 81.9 C 53.6 81.4 54 81.2 54.5 81.2 C 55 81.2 55.4 81.3 55.6 81.6 C 55.9 82 55.9 82.5 55.9 83 C 55.95 83.05 55.9 85 55.9 85 L 55.3 85 C 55.3 85 55.27 83.12 55.3 83.1 C 55.3 82.8 55.3 82.4 55.1 82.1 C 55 81.9 54.7 81.8 54.4 81.8 C 54 81.8 53.6 82.1 53.3 82.5 C 53.3 82.51 53.3 85 53.3 85 L 52.6 85 L 52.6 81.3 L 53.3 81.3 Z M 60.7 84.8 C 60.7 85.2 60.6 85.5 60.5 85.8 C 60.1 86.4 59.5 86.7 58.8 86.7 C 58.2 86.7 57.6 86.5 57.1 86.2 C 57.1 86.2 57.4 85.6 57.4 85.6 C 57.7 85.8 58.3 86 58.8 86 C 59.4 86 60 85.7 60 84.9 C 60 84.9 60 84.4 60 84.4 C 59.7 84.8 59.2 85 58.8 85 C 57.7 85 56.9 84.2 56.9 83.1 C 56.9 82.1 57.7 81.2 58.8 81.2 C 59.2 81.2 59.7 81.4 60 81.7 C 59.99 81.66 60 81.3 60 81.3 L 60.7 81.3 C 60.7 81.3 60.67 84.79 60.7 84.8 Z M 60 82.4 C 59.7 82 59.3 81.8 58.9 81.8 C 58 81.8 57.6 82.5 57.6 83.1 C 57.6 83.8 58.1 84.4 58.9 84.4 C 59.3 84.4 59.8 84.1 60 83.7 C 60 83.7 60 82.4 60 82.4 Z M 61.9 82.1 L 61.9 81.3 L 62.7 81.3 L 62.7 82.1 L 61.9 82.1 Z M 61.9 85 L 61.9 84.1 L 62.7 84.1 L 62.7 85 L 61.9 85 Z " stroke="none" fill="#9a9ea1"/>  </g>  <g id="Polygon42999">    <path d="M 1.6 57.6 L 1.6 61 L 0.8 61 L 0.8 57.6 L 0.4 57.6 L 0.4 57 L 0.8 57 C 0.8 57 0.82 56.42 0.8 56.4 C 0.8 56 0.9 55.6 1.1 55.4 C 1.3 55.1 1.6 54.9 2.1 54.9 C 2.3 54.9 2.5 54.9 2.7 55 C 2.7 55 2.6 55.6 2.6 55.6 C 2.5 55.6 2.4 55.6 2.2 55.6 C 2 55.6 1.9 55.6 1.8 55.7 C 1.6 55.9 1.6 56.1 1.6 56.5 C 1.55 56.49 1.6 57 1.6 57 L 2.6 57 L 2.6 57.6 L 1.6 57.6 Z M 3.4 61 L 3.4 57 L 4.1 57 L 4.1 61 L 3.4 61 Z M 3.4 56.2 L 3.4 55.4 L 4.1 55.4 L 4.1 56.2 L 3.4 56.2 Z M 6.2 57 C 6.2 57 6.17 57.66 6.2 57.7 C 6.5 57.2 6.9 56.9 7.5 56.9 C 8 56.9 8.4 57.1 8.6 57.4 C 8.9 57.8 9 58.3 9 58.9 C 8.99 58.92 9 61 9 61 L 8.3 61 C 8.3 61 8.26 59 8.3 59 C 8.3 58.6 8.2 58.2 8.1 57.9 C 7.9 57.7 7.7 57.6 7.4 57.6 C 6.9 57.6 6.5 57.9 6.2 58.3 C 6.17 58.34 6.2 61 6.2 61 L 5.4 61 L 5.4 57 L 6.2 57 Z M 10 59 C 10 57.9 10.7 56.9 12 56.9 C 12.4 56.9 12.9 57.1 13.2 57.4 C 13.22 57.44 13.2 55 13.2 55 L 14 55 L 14 61 L 13.2 61 C 13.2 61 13.22 60.46 13.2 60.5 C 12.9 60.9 12.4 61.1 12 61.1 C 10.8 61.1 10 60.2 10 59 Z M 13.2 59.7 C 13.2 59.7 13.2 58.2 13.2 58.2 C 12.9 57.8 12.5 57.6 12.1 57.6 C 11.1 57.6 10.7 58.3 10.7 59 C 10.7 59.8 11.2 60.4 12 60.4 C 12.5 60.4 13 60.2 13.2 59.7 Z M 21 59 C 21 60.2 20.2 61.1 19 61.1 C 17.8 61.1 17 60.2 17 59 C 17 57.8 17.8 56.9 19 56.9 C 20.2 56.9 21 57.8 21 59 Z M 19 57.6 C 18.2 57.6 17.7 58.2 17.7 59 C 17.7 59.8 18.2 60.4 19 60.4 C 19.8 60.4 20.3 59.8 20.3 59 C 20.3 58.2 19.8 57.6 19 57.6 Z M 24.8 60.3 C 24.5 60.8 24.1 61.1 23.5 61.1 C 23 61.1 22.6 60.9 22.4 60.6 C 22.1 60.2 22 59.7 22 59.1 C 22 59.08 22 57 22 57 L 22.7 57 C 22.7 57 22.73 59 22.7 59 C 22.7 59.4 22.7 59.8 22.9 60.1 C 23.1 60.3 23.3 60.4 23.6 60.4 C 24.1 60.4 24.5 60.1 24.8 59.7 C 24.82 59.66 24.8 57 24.8 57 L 25.6 57 L 25.6 61 L 24.8 61 C 24.8 61 24.82 60.34 24.8 60.3 Z M 27.7 57.6 C 27.7 57.6 27.66 59.45 27.7 59.4 C 27.7 59.6 27.7 59.6 27.7 59.8 C 27.7 60.2 27.8 60.4 28.2 60.4 C 28.4 60.4 28.6 60.4 28.7 60.3 C 28.7 60.3 28.9 60.9 28.9 60.9 C 28.7 61 28.4 61.1 28.1 61.1 C 27.6 61.1 27.2 60.8 27.1 60.5 C 27 60.2 26.9 59.9 26.9 59.6 C 26.94 59.62 26.9 57.6 26.9 57.6 L 26.4 57.6 L 26.4 57 L 26.9 57 L 26.9 56 L 27.7 56 L 27.7 57 L 28.8 57 L 28.8 57.6 L 27.7 57.6 Z M 32.4 57.7 C 32.7 57.2 33.2 56.9 33.7 56.9 C 34.3 56.9 34.6 57.1 34.9 57.4 C 35.1 57.8 35.2 58.3 35.2 58.9 C 35.22 58.92 35.2 61 35.2 61 L 34.5 61 C 34.5 61 34.49 59 34.5 59 C 34.5 58.6 34.5 58.2 34.3 57.9 C 34.2 57.7 33.9 57.6 33.6 57.6 C 33.1 57.6 32.7 57.9 32.4 58.3 C 32.39 58.34 32.4 61 32.4 61 L 31.7 61 L 31.7 55 L 32.4 55 C 32.4 55 32.39 57.66 32.4 57.7 Z M 40.3 59 C 40.3 60.2 39.4 61.1 38.2 61.1 C 37 61.1 36.2 60.2 36.2 59 C 36.2 57.8 37 56.9 38.2 56.9 C 39.4 56.9 40.3 57.8 40.3 59 Z M 38.2 57.6 C 37.5 57.6 36.9 58.2 36.9 59 C 36.9 59.8 37.5 60.4 38.2 60.4 C 39 60.4 39.5 59.8 39.5 59 C 39.5 58.2 39 57.6 38.2 57.6 Z M 44.8 60.1 L 44.8 60.1 L 45.6 57 L 46.3 57 L 45.2 61 L 44.4 61 L 43.5 57.9 L 43.5 57.9 L 42.6 61 L 41.8 61 L 40.7 57 L 41.5 57 L 42.3 60.1 L 42.3 60.1 L 43.2 57 L 43.9 57 L 44.8 60.1 Z M 46.9 61 L 46.9 60.1 L 47.8 60.1 L 47.8 61 L 46.9 61 Z " stroke="none" fill="#fff"/>  </g>  <g id="Polygon42998">    <path d="M 4.2 50 L 3.8 48.8 L 1.4 48.8 L 1 50 L 0.1 50 L 2.3 44.4 L 3 44.4 L 5.1 50 L 4.2 50 Z M 1.6 48.1 L 3.5 48.1 L 2.6 45.6 L 2.6 45.6 L 1.6 48.1 Z M 8.8 49.7 C 8.5 49.9 8 50.1 7.5 50.1 C 6.4 50.1 5.5 49.3 5.5 48 C 5.5 46.8 6.4 45.9 7.6 45.9 C 8 45.9 8.4 46 8.7 46.2 C 8.7 46.2 8.4 46.8 8.4 46.8 C 8.1 46.7 7.8 46.6 7.5 46.6 C 6.8 46.6 6.2 47.2 6.2 48 C 6.2 48.9 6.8 49.4 7.5 49.4 C 7.8 49.4 8.2 49.3 8.4 49.1 C 8.4 49.1 8.8 49.7 8.8 49.7 Z M 12.6 49.7 C 12.3 49.9 11.8 50.1 11.3 50.1 C 10.2 50.1 9.3 49.3 9.3 48 C 9.3 46.8 10.2 45.9 11.4 45.9 C 11.8 45.9 12.2 46 12.5 46.2 C 12.5 46.2 12.2 46.8 12.2 46.8 C 11.9 46.7 11.6 46.6 11.3 46.6 C 10.6 46.6 10 47.2 10 48 C 10 48.9 10.6 49.4 11.3 49.4 C 11.6 49.4 12 49.3 12.2 49.1 C 12.2 49.1 12.6 49.7 12.6 49.7 Z M 13.8 48.2 C 13.9 48.9 14.3 49.5 15.1 49.5 C 15.6 49.5 16 49.3 16.3 48.8 C 16.3 48.8 16.8 49.2 16.8 49.2 C 16.4 49.8 15.9 50.1 15.1 50.1 C 13.8 50.1 13.1 49.2 13.1 48 C 13.1 46.8 14 45.9 15.1 45.9 C 16.1 45.9 16.9 46.7 16.9 47.8 C 16.9 47.9 16.9 48.1 16.9 48.2 C 16.9 48.2 13.8 48.2 13.8 48.2 Z M 13.9 47.6 C 13.9 47.6 16.1 47.6 16.1 47.6 C 16.1 47 15.7 46.5 15.1 46.5 C 14.4 46.5 14 47 13.9 47.6 Z M 18.6 46 C 18.6 46 18.62 46.66 18.6 46.7 C 18.9 46.2 19.4 45.9 19.9 45.9 C 20.5 45.9 20.9 46.1 21.1 46.4 C 21.4 46.8 21.4 47.3 21.4 47.9 C 21.45 47.92 21.4 50 21.4 50 L 20.7 50 C 20.7 50 20.72 48 20.7 48 C 20.7 47.6 20.7 47.2 20.5 46.9 C 20.4 46.7 20.2 46.6 19.8 46.6 C 19.4 46.6 18.9 46.9 18.6 47.3 C 18.62 47.34 18.6 50 18.6 50 L 17.9 50 L 17.9 46 L 18.6 46 Z M 23.5 46.6 C 23.5 46.6 23.51 48.45 23.5 48.4 C 23.5 48.6 23.5 48.6 23.5 48.8 C 23.5 49.2 23.7 49.4 24.1 49.4 C 24.2 49.4 24.4 49.4 24.5 49.3 C 24.5 49.3 24.7 49.9 24.7 49.9 C 24.5 50 24.2 50.1 24 50.1 C 23.4 50.1 23.1 49.8 22.9 49.5 C 22.8 49.2 22.8 48.9 22.8 48.6 C 22.78 48.62 22.8 46.6 22.8 46.6 L 22.2 46.6 L 22.2 46 L 22.8 46 L 22.8 45 L 23.5 45 L 23.5 46 L 24.6 46 L 24.6 46.6 L 23.5 46.6 Z M 27.5 46.8 C 27.3 46.6 26.9 46.5 26.7 46.5 C 26.3 46.5 26.1 46.7 26.1 47 C 26.1 47.3 26.5 47.5 26.8 47.6 C 27.4 47.8 28 48.1 28 48.8 C 28 49.7 27.3 50.1 26.6 50.1 C 26 50.1 25.5 49.9 25.2 49.5 C 25.2 49.5 25.7 49.1 25.7 49.1 C 26 49.3 26.2 49.5 26.6 49.5 C 27 49.5 27.3 49.3 27.3 48.9 C 27.3 48.6 26.9 48.4 26.5 48.3 C 26 48 25.4 47.8 25.4 47.1 C 25.4 46.3 26 45.9 26.7 45.9 C 27.1 45.9 27.6 46.1 27.9 46.3 C 27.9 46.3 27.5 46.8 27.5 46.8 Z M 31.2 50 L 31.2 44.4 L 32 44.4 L 32 49.3 L 34.4 49.3 L 34.4 50 L 31.2 50 Z M 38.9 48 C 38.9 49.2 38 50.1 36.8 50.1 C 35.7 50.1 34.8 49.2 34.8 48 C 34.8 46.8 35.7 45.9 36.8 45.9 C 38 45.9 38.9 46.8 38.9 48 Z M 36.8 46.6 C 36.1 46.6 35.5 47.2 35.5 48 C 35.5 48.8 36.1 49.4 36.8 49.4 C 37.6 49.4 38.1 48.8 38.1 48 C 38.1 47.2 37.6 46.6 36.8 46.6 Z M 43.6 48 C 43.6 49.2 42.7 50.1 41.6 50.1 C 40.4 50.1 39.5 49.2 39.5 48 C 39.5 46.8 40.4 45.9 41.6 45.9 C 42.7 45.9 43.6 46.8 43.6 48 Z M 41.6 46.6 C 40.8 46.6 40.3 47.2 40.3 48 C 40.3 48.8 40.8 49.4 41.6 49.4 C 42.3 49.4 42.9 48.8 42.9 48 C 42.9 47.2 42.3 46.6 41.6 46.6 Z M 47.1 50 L 46 48.2 L 45.4 48.9 L 45.4 50 L 44.6 50 L 44.6 44 L 45.4 44 L 45.4 48 L 45.4 48 L 47 46 L 47.9 46 L 46.5 47.6 L 48 50 L 47.1 50 Z M 50.8 44.4 C 50.8 44.4 52.16 44.4 52.2 44.4 C 52.7 44.4 53.2 44.5 53.6 44.8 C 54 45 54.2 45.4 54.2 45.9 C 54.2 46.4 54 46.8 53.4 47.1 C 54.1 47.3 54.5 47.7 54.5 48.4 C 54.5 49 54.1 49.5 53.6 49.8 C 53.1 50 52.6 50 52.1 50 C 52.09 50 50.8 50 50.8 50 L 50.8 44.4 Z M 52.5 47.5 C 52.49 47.47 51.6 47.5 51.6 47.5 L 51.6 49.3 C 51.6 49.3 52.02 49.33 52 49.3 C 52.5 49.3 52.9 49.3 53.2 49.2 C 53.5 49 53.7 48.8 53.7 48.4 C 53.7 47.9 53.2 47.5 52.5 47.5 Z M 53.2 45.3 C 52.9 45.1 52.5 45.1 52 45.1 C 51.98 45.07 51.6 45.1 51.6 45.1 L 51.6 46.8 C 51.6 46.8 52.13 46.8 52.1 46.8 C 53 46.8 53.5 46.5 53.5 46 C 53.5 45.6 53.4 45.4 53.2 45.3 Z M 59.4 48 C 59.4 49.2 58.5 50.1 57.3 50.1 C 56.2 50.1 55.3 49.2 55.3 48 C 55.3 46.8 56.2 45.9 57.3 45.9 C 58.5 45.9 59.4 46.8 59.4 48 Z M 57.3 46.6 C 56.6 46.6 56 47.2 56 48 C 56 48.8 56.6 49.4 57.3 49.4 C 58.1 49.4 58.6 48.8 58.6 48 C 58.6 47.2 58.1 46.6 57.3 46.6 Z M 64.1 48 C 64.1 49.2 63.2 50.1 62.1 50.1 C 60.9 50.1 60 49.2 60 48 C 60 46.8 60.9 45.9 62.1 45.9 C 63.2 45.9 64.1 46.8 64.1 48 Z M 62.1 46.6 C 61.3 46.6 60.8 47.2 60.8 48 C 60.8 48.8 61.3 49.4 62.1 49.4 C 62.8 49.4 63.4 48.8 63.4 48 C 63.4 47.2 62.8 46.6 62.1 46.6 Z M 67.6 50 L 66.5 48.2 L 65.9 48.9 L 65.9 50 L 65.1 50 L 65.1 44 L 65.9 44 L 65.9 48 L 65.9 48 L 67.5 46 L 68.4 46 L 67 47.6 L 68.5 50 L 67.6 50 Z M 71.1 46.8 C 70.9 46.6 70.6 46.5 70.3 46.5 C 70 46.5 69.7 46.7 69.7 47 C 69.7 47.3 70.1 47.5 70.5 47.6 C 71 47.8 71.7 48.1 71.7 48.8 C 71.7 49.7 71 50.1 70.2 50.1 C 69.7 50.1 69.1 49.9 68.8 49.5 C 68.8 49.5 69.3 49.1 69.3 49.1 C 69.6 49.3 69.9 49.5 70.2 49.5 C 70.6 49.5 70.9 49.3 70.9 48.9 C 70.9 48.6 70.6 48.4 70.2 48.3 C 69.6 48 69 47.8 69 47.1 C 69 46.3 69.6 45.9 70.3 45.9 C 70.8 45.9 71.2 46.1 71.5 46.3 C 71.5 46.3 71.1 46.8 71.1 46.8 Z M 75.5 46.6 C 75.5 46.6 75.53 48.45 75.5 48.4 C 75.5 48.6 75.5 48.6 75.5 48.8 C 75.6 49.2 75.7 49.4 76.1 49.4 C 76.3 49.4 76.4 49.4 76.6 49.3 C 76.6 49.3 76.8 49.9 76.8 49.9 C 76.6 50 76.3 50.1 76 50.1 C 75.4 50.1 75.1 49.8 74.9 49.5 C 74.8 49.2 74.8 48.9 74.8 48.6 C 74.81 48.62 74.8 46.6 74.8 46.6 L 74.3 46.6 L 74.3 46 L 74.8 46 L 74.8 45 L 75.5 45 L 75.5 46 L 76.7 46 L 76.7 46.6 L 75.5 46.6 Z M 81.3 48 C 81.3 49.2 80.4 50.1 79.2 50.1 C 78.1 50.1 77.2 49.2 77.2 48 C 77.2 46.8 78.1 45.9 79.2 45.9 C 80.4 45.9 81.3 46.8 81.3 48 Z M 79.2 46.6 C 78.5 46.6 77.9 47.2 77.9 48 C 77.9 48.8 78.5 49.4 79.2 49.4 C 80 49.4 80.5 48.8 80.5 48 C 80.5 47.2 80 46.6 79.2 46.6 Z " stroke="none" fill="#fff"/>  </g>  <g id="Polygon42997">    <path d="M 3.6 38.7 C 3.3 38.9 2.9 39.1 2.4 39.1 C 1.2 39.1 0.3 38.3 0.3 37 C 0.3 35.8 1.3 34.9 2.4 34.9 C 2.8 34.9 3.2 35 3.6 35.2 C 3.6 35.2 3.2 35.8 3.2 35.8 C 3 35.7 2.7 35.6 2.4 35.6 C 1.7 35.6 1.1 36.2 1.1 37 C 1.1 37.9 1.7 38.4 2.4 38.4 C 2.7 38.4 3 38.3 3.2 38.1 C 3.2 38.1 3.6 38.7 3.6 38.7 Z M 8.2 37 C 8.2 38.2 7.3 39.1 6.2 39.1 C 5 39.1 4.1 38.2 4.1 37 C 4.1 35.8 5 34.9 6.2 34.9 C 7.3 34.9 8.2 35.8 8.2 37 Z M 6.2 35.6 C 5.4 35.6 4.9 36.2 4.9 37 C 4.9 37.8 5.4 38.4 6.2 38.4 C 6.9 38.4 7.5 37.8 7.5 37 C 7.5 36.2 6.9 35.6 6.2 35.6 Z M 10 39 L 9.2 39 L 9.2 33 L 10 33 L 10 39 Z M 12 39 L 11.3 39 L 11.3 33 L 12 33 L 12 39 Z M 13.8 37.2 C 13.8 37.9 14.3 38.5 15 38.5 C 15.6 38.5 16 38.3 16.2 37.8 C 16.2 37.8 16.8 38.2 16.8 38.2 C 16.4 38.8 15.8 39.1 15 39.1 C 13.7 39.1 13 38.2 13 37 C 13 35.8 13.9 34.9 15 34.9 C 16.1 34.9 16.8 35.7 16.8 36.8 C 16.8 36.9 16.8 37.1 16.8 37.2 C 16.8 37.2 13.8 37.2 13.8 37.2 Z M 13.8 36.6 C 13.8 36.6 16.1 36.6 16.1 36.6 C 16.1 36 15.6 35.5 15 35.5 C 14.4 35.5 14 36 13.8 36.6 Z M 20.8 38.7 C 20.5 38.9 20 39.1 19.6 39.1 C 18.4 39.1 17.5 38.3 17.5 37 C 17.5 35.8 18.4 34.9 19.6 34.9 C 20 34.9 20.4 35 20.7 35.2 C 20.7 35.2 20.4 35.8 20.4 35.8 C 20.2 35.7 19.9 35.6 19.6 35.6 C 18.8 35.6 18.3 36.2 18.3 37 C 18.3 37.9 18.9 38.4 19.6 38.4 C 19.8 38.4 20.2 38.3 20.4 38.1 C 20.4 38.1 20.8 38.7 20.8 38.7 Z M 22.5 35.6 C 22.5 35.6 22.54 37.45 22.5 37.4 C 22.5 37.6 22.5 37.6 22.5 37.8 C 22.6 38.2 22.7 38.4 23.1 38.4 C 23.3 38.4 23.4 38.4 23.6 38.3 C 23.6 38.3 23.8 38.9 23.8 38.9 C 23.6 39 23.3 39.1 23 39.1 C 22.4 39.1 22.1 38.8 21.9 38.5 C 21.8 38.2 21.8 37.9 21.8 37.6 C 21.81 37.62 21.8 35.6 21.8 35.6 L 21.3 35.6 L 21.3 35 L 21.8 35 L 21.8 34 L 22.5 34 L 22.5 35 L 23.7 35 L 23.7 35.6 L 22.5 35.6 Z M 24.5 39 L 24.5 35 L 25.3 35 L 25.3 39 L 24.5 39 Z M 24.5 34.2 L 24.5 33.4 L 25.3 33.4 L 25.3 34.2 L 24.5 34.2 Z M 30.4 37 C 30.4 38.2 29.5 39.1 28.3 39.1 C 27.1 39.1 26.3 38.2 26.3 37 C 26.3 35.8 27.1 34.9 28.3 34.9 C 29.5 34.9 30.4 35.8 30.4 37 Z M 28.3 35.6 C 27.6 35.6 27 36.2 27 37 C 27 37.8 27.6 38.4 28.3 38.4 C 29.1 38.4 29.6 37.8 29.6 37 C 29.6 36.2 29.1 35.6 28.3 35.6 Z M 32.1 35 C 32.1 35 32.09 35.66 32.1 35.7 C 32.4 35.2 32.9 34.9 33.4 34.9 C 34 34.9 34.3 35.1 34.6 35.4 C 34.8 35.8 34.9 36.3 34.9 36.9 C 34.91 36.92 34.9 39 34.9 39 L 34.2 39 C 34.2 39 34.18 37 34.2 37 C 34.2 36.6 34.2 36.2 34 35.9 C 33.8 35.7 33.6 35.6 33.3 35.6 C 32.8 35.6 32.4 35.9 32.1 36.3 C 32.09 36.34 32.1 39 32.1 39 L 31.4 39 L 31.4 35 L 32.1 35 Z M 42 37 C 42 38.2 41.1 39.1 39.9 39.1 C 38.7 39.1 37.9 38.2 37.9 37 C 37.9 35.8 38.7 34.9 39.9 34.9 C 41.1 34.9 42 35.8 42 37 Z M 39.9 35.6 C 39.2 35.6 38.6 36.2 38.6 37 C 38.6 37.8 39.2 38.4 39.9 38.4 C 40.7 38.4 41.2 37.8 41.2 37 C 41.2 36.2 40.7 35.6 39.9 35.6 Z M 45 33.7 C 44.9 33.6 44.7 33.6 44.5 33.6 C 44.3 33.6 44.2 33.6 44 33.7 C 43.9 33.9 43.8 34.1 43.8 34.5 C 43.84 34.5 43.8 35 43.8 35 L 44.9 35 L 44.9 35.6 L 43.8 35.6 L 43.8 39 L 43.1 39 L 43.1 35.6 L 42.7 35.6 L 42.7 35 L 43.1 35 C 43.1 35 43.11 34.42 43.1 34.4 C 43.1 34 43.2 33.6 43.4 33.4 C 43.6 33.1 43.9 32.9 44.4 32.9 C 44.7 32.9 45 33 45.2 33.1 C 45.2 33.1 45 33.7 45 33.7 Z M 47.4 39 C 47.4 39 47.45 38.32 47.4 38.3 C 48.1 37.7 48.8 36.9 49.3 36.1 C 49.5 35.8 49.8 35.4 49.8 35 C 49.8 34.5 49.4 34.3 48.9 34.3 C 48.5 34.3 48.1 34.6 48.1 35.1 C 48.1 35.1 47.4 34.9 47.4 34.9 C 47.4 34.1 48.2 33.6 49 33.6 C 49.8 33.6 50.6 34.2 50.6 35 C 50.6 35.5 50.3 36 50 36.5 C 49.6 37.1 49 37.7 48.5 38.3 C 48.45 38.33 50.8 38.3 50.8 38.3 L 50.8 39 L 47.4 39 Z M 55.2 36.3 C 55.2 38 54.5 39.1 53.3 39.1 C 52.1 39.1 51.5 38 51.5 36.3 C 51.5 34.6 52.1 33.6 53.3 33.6 C 54.5 33.6 55.2 34.6 55.2 36.3 Z M 52.2 36.3 C 52.2 37.7 52.6 38.4 53.3 38.4 C 54 38.4 54.4 37.7 54.4 36.3 C 54.4 35 54 34.3 53.3 34.3 C 52.6 34.3 52.2 35 52.2 36.3 Z M 56 39 C 56 39 56 38.32 56 38.3 C 56.6 37.7 57.4 36.9 57.9 36.1 C 58.1 35.8 58.4 35.4 58.4 35 C 58.4 34.5 57.9 34.3 57.5 34.3 C 57 34.3 56.7 34.6 56.6 35.1 C 56.6 35.1 55.9 34.9 55.9 34.9 C 56 34.1 56.8 33.6 57.5 33.6 C 58.4 33.6 59.1 34.2 59.1 35 C 59.1 35.5 58.9 36 58.6 36.5 C 58.1 37.1 57.6 37.7 57 38.3 C 57.01 38.33 59.4 38.3 59.4 38.3 L 59.4 39 L 56 39 Z M 60.1 39 C 60.1 39 60.07 38.32 60.1 38.3 C 60.7 37.7 61.4 36.9 61.9 36.1 C 62.2 35.8 62.4 35.4 62.4 35 C 62.4 34.5 62 34.3 61.6 34.3 C 61.1 34.3 60.7 34.6 60.7 35.1 C 60.7 35.1 60 34.9 60 34.9 C 60 34.1 60.8 33.6 61.6 33.6 C 62.4 33.6 63.2 34.2 63.2 35 C 63.2 35.5 62.9 36 62.6 36.5 C 62.2 37.1 61.6 37.7 61.1 38.3 C 61.08 38.33 63.4 38.3 63.4 38.3 L 63.4 39 L 60.1 39 Z M 70.2 39 L 70.2 36.5 L 67.2 36.5 L 67.2 39 L 66.4 39 L 66.4 33.4 L 67.2 33.4 L 67.2 35.8 L 70.2 35.8 L 70.2 33.4 L 70.9 33.4 L 70.9 39 L 70.2 39 Z M 76.1 37 C 76.1 38.2 75.2 39.1 74.1 39.1 C 72.9 39.1 72 38.2 72 37 C 72 35.8 72.9 34.9 74.1 34.9 C 75.2 34.9 76.1 35.8 76.1 37 Z M 74.1 35.6 C 73.3 35.6 72.8 36.2 72.8 37 C 72.8 37.8 73.3 38.4 74.1 38.4 C 74.8 38.4 75.4 37.8 75.4 37 C 75.4 36.2 74.8 35.6 74.1 35.6 Z M 82.4 39 C 82.4 39 82.45 37 82.4 37 C 82.4 36.6 82.4 36.2 82.3 35.9 C 82.1 35.7 81.9 35.6 81.6 35.6 C 81.2 35.6 80.8 35.8 80.5 36.2 C 80.5 36.4 80.5 36.7 80.5 36.9 C 80.51 36.92 80.5 39 80.5 39 L 79.8 39 C 79.8 39 79.78 37 79.8 37 C 79.8 36.6 79.8 36.2 79.6 35.9 C 79.4 35.7 79.3 35.6 79 35.6 C 78.5 35.6 78.1 35.9 77.8 36.3 C 77.85 36.31 77.8 39 77.8 39 L 77.1 39 L 77.1 35 L 77.8 35 C 77.8 35 77.85 35.61 77.8 35.6 C 78.1 35.2 78.6 34.9 79.1 34.9 C 79.6 34.9 80 35.1 80.2 35.5 C 80.3 35.5 80.3 35.6 80.3 35.6 C 80.7 35.2 81.2 34.9 81.7 34.9 C 82.2 34.9 82.6 35.1 82.8 35.4 C 83.1 35.7 83.2 36.3 83.2 36.9 C 83.17 36.92 83.2 39 83.2 39 L 82.4 39 Z M 84.9 37.2 C 84.9 37.9 85.4 38.5 86.2 38.5 C 86.7 38.5 87.1 38.3 87.3 37.8 C 87.3 37.8 87.9 38.2 87.9 38.2 C 87.5 38.8 86.9 39.1 86.1 39.1 C 84.8 39.1 84.1 38.2 84.1 37 C 84.1 35.8 85 34.9 86.1 34.9 C 87.2 34.9 87.9 35.7 87.9 36.8 C 87.9 36.9 87.9 37.1 87.9 37.2 C 87.9 37.2 84.9 37.2 84.9 37.2 Z M 84.9 36.6 C 84.9 36.6 87.2 36.6 87.2 36.6 C 87.2 36 86.7 35.5 86.1 35.5 C 85.5 35.5 85.1 36 84.9 36.6 Z " stroke="none" fill="#fff"/>  </g>  <g id="Polygon42996">    <path d="M 1.1 26.2 C 1.1 26.9 1.6 27.5 2.4 27.5 C 2.9 27.5 3.3 27.3 3.5 26.8 C 3.5 26.8 4.1 27.2 4.1 27.2 C 3.7 27.8 3.1 28.1 2.3 28.1 C 1 28.1 0.3 27.2 0.3 26 C 0.3 24.8 1.2 23.9 2.3 23.9 C 3.4 23.9 4.1 24.7 4.1 25.8 C 4.1 25.9 4.1 26.1 4.1 26.2 C 4.1 26.2 1.1 26.2 1.1 26.2 Z M 1.1 25.6 C 1.1 25.6 3.4 25.6 3.4 25.6 C 3.4 25 2.9 24.5 2.3 24.5 C 1.7 24.5 1.3 25 1.1 25.6 Z M 8.3 24 L 6.7 28 L 6.1 28 L 4.5 24 L 5.4 24 L 6.4 27.1 L 6.4 27.1 L 7.5 24 L 8.3 24 Z M 9.4 26.2 C 9.4 26.9 9.9 27.5 10.7 27.5 C 11.2 27.5 11.6 27.3 11.9 26.8 C 11.9 26.8 12.4 27.2 12.4 27.2 C 12 27.8 11.4 28.1 10.6 28.1 C 9.4 28.1 8.6 27.2 8.6 26 C 8.6 24.8 9.5 23.9 10.6 23.9 C 11.7 23.9 12.5 24.7 12.5 25.8 C 12.5 25.9 12.4 26.1 12.4 26.2 C 12.4 26.2 9.4 26.2 9.4 26.2 Z M 9.4 25.6 C 9.4 25.6 11.7 25.6 11.7 25.6 C 11.7 25 11.2 24.5 10.6 24.5 C 10 24.5 9.6 25 9.4 25.6 Z M 14.2 24.7 C 14.4 24.2 14.8 23.9 15.2 23.9 C 15.4 23.9 15.5 23.9 15.7 24 C 15.7 24 15.5 24.7 15.5 24.7 C 15.4 24.7 15.3 24.6 15.1 24.6 C 14.7 24.6 14.4 24.9 14.2 25.3 C 14.19 25.32 14.2 28 14.2 28 L 13.5 28 L 13.5 24 L 14.2 24 C 14.2 24 14.19 24.66 14.2 24.7 Z M 15.8 28 L 15.8 27.1 L 16.7 27.1 L 16.7 28 L 15.8 28 Z M 21.7 23 C 21.1 23 20.7 23.3 20.7 23.8 C 20.7 24.3 21.3 24.4 21.9 24.7 C 22.7 24.9 23.6 25.3 23.6 26.4 C 23.6 27.6 22.5 28.1 21.6 28.1 C 20.8 28.1 20.2 27.8 19.6 27.3 C 19.6 27.3 20.2 26.7 20.2 26.7 C 20.7 27.3 21.1 27.4 21.6 27.4 C 22.2 27.4 22.8 27.1 22.8 26.4 C 22.8 25.8 22.2 25.6 21.5 25.4 C 20.8 25.1 20 24.7 20 23.8 C 20 22.8 20.7 22.3 21.6 22.3 C 22.3 22.3 22.9 22.5 23.4 22.9 C 23.4 22.9 22.9 23.4 22.9 23.4 C 22.6 23.2 22.2 23 21.7 23 Z M 25.5 24.7 C 25.8 24.2 26.3 23.9 26.8 23.9 C 27.4 23.9 27.8 24.1 28 24.4 C 28.3 24.8 28.3 25.3 28.3 25.9 C 28.34 25.92 28.3 28 28.3 28 L 27.6 28 C 27.6 28 27.62 26 27.6 26 C 27.6 25.6 27.6 25.2 27.4 24.9 C 27.3 24.7 27.1 24.6 26.7 24.6 C 26.2 24.6 25.8 24.9 25.5 25.3 C 25.52 25.34 25.5 28 25.5 28 L 24.8 28 L 24.8 22 L 25.5 22 C 25.5 22 25.52 24.66 25.5 24.7 Z M 33.4 26 C 33.4 27.2 32.5 28.1 31.3 28.1 C 30.2 28.1 29.3 27.2 29.3 26 C 29.3 24.8 30.2 23.9 31.3 23.9 C 32.5 23.9 33.4 24.8 33.4 26 Z M 31.3 24.6 C 30.6 24.6 30 25.2 30 26 C 30 26.8 30.6 27.4 31.3 27.4 C 32.1 27.4 32.6 26.8 32.6 26 C 32.6 25.2 32.1 24.6 31.3 24.6 Z M 35.1 24 C 35.1 24 35.12 24.54 35.1 24.5 C 35.4 24.1 35.9 23.9 36.4 23.9 C 37.5 23.9 38.4 24.8 38.4 26 C 38.4 27.1 37.6 28.1 36.4 28.1 C 35.9 28.1 35.4 27.9 35.1 27.6 C 35.12 27.57 35.1 30 35.1 30 L 34.4 30 L 34.4 24 L 35.1 24 Z M 35.1 26.8 C 35.4 27.2 35.9 27.4 36.3 27.4 C 37.2 27.4 37.6 26.7 37.6 26 C 37.6 25.2 37.1 24.6 36.3 24.6 C 35.9 24.6 35.3 24.8 35.1 25.3 C 35.1 25.3 35.1 26.8 35.1 26.8 Z M 45.1 26 C 45.1 27.2 44.3 28.1 43.1 28.1 C 41.9 28.1 41.1 27.2 41.1 26 C 41.1 24.8 41.9 23.9 43.1 23.9 C 44.3 23.9 45.1 24.8 45.1 26 Z M 43.1 24.6 C 42.4 24.6 41.8 25.2 41.8 26 C 41.8 26.8 42.4 27.4 43.1 27.4 C 43.9 27.4 44.4 26.8 44.4 26 C 44.4 25.2 43.9 24.6 43.1 24.6 Z M 48.9 27.3 C 48.6 27.8 48.2 28.1 47.6 28.1 C 47.1 28.1 46.7 27.9 46.5 27.6 C 46.2 27.2 46.1 26.7 46.1 26.1 C 46.1 26.08 46.1 24 46.1 24 L 46.8 24 C 46.8 24 46.83 26 46.8 26 C 46.8 26.4 46.8 26.8 47 27.1 C 47.2 27.3 47.4 27.4 47.7 27.4 C 48.2 27.4 48.6 27.1 48.9 26.7 C 48.93 26.66 48.9 24 48.9 24 L 49.7 24 L 49.7 28 L 48.9 28 C 48.9 28 48.93 27.34 48.9 27.3 Z M 51.7 24.7 C 52 24.2 52.3 23.9 52.8 23.9 C 52.9 23.9 53 23.9 53.2 24 C 53.2 24 53.1 24.7 53.1 24.7 C 52.9 24.7 52.8 24.6 52.7 24.6 C 52.3 24.6 52 24.9 51.7 25.3 C 51.73 25.32 51.7 28 51.7 28 L 51 28 L 51 24 L 51.7 24 C 51.7 24 51.73 24.66 51.7 24.7 Z M 56.2 26.2 C 56.3 26.9 56.8 27.5 57.5 27.5 C 58.1 27.5 58.5 27.3 58.7 26.8 C 58.7 26.8 59.3 27.2 59.3 27.2 C 58.9 27.8 58.3 28.1 57.5 28.1 C 56.2 28.1 55.5 27.2 55.5 26 C 55.5 24.8 56.4 23.9 57.5 23.9 C 58.6 23.9 59.3 24.7 59.3 25.8 C 59.3 25.9 59.3 26.1 59.3 26.2 C 59.3 26.2 56.2 26.2 56.2 26.2 Z M 56.3 25.6 C 56.3 25.6 58.6 25.6 58.6 25.6 C 58.5 25 58.1 24.5 57.5 24.5 C 56.9 24.5 56.4 25 56.3 25.6 Z M 61.1 24 C 61.1 24 61.06 24.66 61.1 24.7 C 61.4 24.2 61.8 23.9 62.4 23.9 C 62.9 23.9 63.3 24.1 63.5 24.4 C 63.8 24.8 63.9 25.3 63.9 25.9 C 63.89 25.92 63.9 28 63.9 28 L 63.2 28 C 63.2 28 63.16 26 63.2 26 C 63.2 25.6 63.1 25.2 63 24.9 C 62.8 24.7 62.6 24.6 62.3 24.6 C 61.8 24.6 61.4 24.9 61.1 25.3 C 61.06 25.34 61.1 28 61.1 28 L 60.3 28 L 60.3 24 L 61.1 24 Z M 66 24.6 C 66 24.6 65.95 26.45 66 26.4 C 66 26.6 66 26.6 66 26.8 C 66 27.2 66.1 27.4 66.5 27.4 C 66.7 27.4 66.8 27.4 67 27.3 C 67 27.3 67.2 27.9 67.2 27.9 C 67 28 66.7 28.1 66.4 28.1 C 65.9 28.1 65.5 27.8 65.4 27.5 C 65.3 27.2 65.2 26.9 65.2 26.6 C 65.22 26.62 65.2 24.6 65.2 24.6 L 64.7 24.6 L 64.7 24 L 65.2 24 L 65.2 23 L 66 23 L 66 24 L 67.1 24 L 67.1 24.6 L 66 24.6 Z M 68 28 L 68 24 L 68.7 24 L 68.7 28 L 68 28 Z M 68 23.2 L 68 22.4 L 68.7 22.4 L 68.7 23.2 L 68 23.2 Z M 70.8 24.7 C 71 24.2 71.4 23.9 71.8 23.9 C 72 23.9 72.1 23.9 72.2 24 C 72.2 24 72.1 24.7 72.1 24.7 C 72 24.7 71.9 24.6 71.7 24.6 C 71.3 24.6 71 24.9 70.8 25.3 C 70.75 25.32 70.8 28 70.8 28 L 70 28 L 70 24 L 70.8 24 C 70.8 24 70.75 24.66 70.8 24.7 Z M 73.3 26.2 C 73.3 26.9 73.8 27.5 74.6 27.5 C 75.1 27.5 75.5 27.3 75.8 26.8 C 75.8 26.8 76.3 27.2 76.3 27.2 C 75.9 27.8 75.3 28.1 74.5 28.1 C 73.3 28.1 72.5 27.2 72.5 26 C 72.5 24.8 73.4 23.9 74.5 23.9 C 75.6 23.9 76.4 24.7 76.4 25.8 C 76.4 25.9 76.3 26.1 76.3 26.2 C 76.3 26.2 73.3 26.2 73.3 26.2 Z M 73.3 25.6 C 73.3 25.6 75.6 25.6 75.6 25.6 C 75.6 25 75.1 24.5 74.5 24.5 C 73.9 24.5 73.5 25 73.3 25.6 Z " stroke="none" fill="#fff"/>  </g>  <g id="Polygon42995">    <path d="M 1.4 17 L 0.7 17 L 0.7 11 L 1.4 11 L 1.4 17 Z M 6.5 15 C 6.5 16.2 5.6 17.1 4.4 17.1 C 3.3 17.1 2.4 16.2 2.4 15 C 2.4 13.8 3.3 12.9 4.4 12.9 C 5.6 12.9 6.5 13.8 6.5 15 Z M 4.4 13.6 C 3.7 13.6 3.2 14.2 3.2 15 C 3.2 15.8 3.7 16.4 4.4 16.4 C 5.2 16.4 5.7 15.8 5.7 15 C 5.7 14.2 5.2 13.6 4.4 13.6 Z M 10.6 13 L 9.1 17 L 8.4 17 L 6.9 13 L 7.7 13 L 8.8 16.1 L 8.8 16.1 L 9.8 13 L 10.6 13 Z M 11.7 15.2 C 11.8 15.9 12.2 16.5 13 16.5 C 13.5 16.5 14 16.3 14.2 15.8 C 14.2 15.8 14.7 16.2 14.7 16.2 C 14.3 16.8 13.8 17.1 13 17.1 C 11.7 17.1 11 16.2 11 15 C 11 13.8 11.9 12.9 13 12.9 C 14 12.9 14.8 13.7 14.8 14.8 C 14.8 14.9 14.8 15.1 14.8 15.2 C 14.8 15.2 11.7 15.2 11.7 15.2 Z M 11.8 14.6 C 11.8 14.6 14 14.6 14 14.6 C 14 14 13.6 13.5 13 13.5 C 12.3 13.5 11.9 14 11.8 14.6 Z M 17.8 17 L 17.8 13 L 18.5 13 L 18.5 17 L 17.8 17 Z M 17.8 12.2 L 17.8 11.4 L 18.5 11.4 L 18.5 12.2 L 17.8 12.2 Z M 21.8 13.8 C 21.6 13.6 21.3 13.5 21 13.5 C 20.7 13.5 20.4 13.7 20.4 14 C 20.4 14.3 20.8 14.5 21.2 14.6 C 21.7 14.8 22.4 15.1 22.4 15.8 C 22.4 16.7 21.7 17.1 20.9 17.1 C 20.4 17.1 19.9 16.9 19.6 16.5 C 19.6 16.5 20.1 16.1 20.1 16.1 C 20.3 16.3 20.6 16.5 20.9 16.5 C 21.3 16.5 21.7 16.3 21.7 15.9 C 21.7 15.6 21.3 15.4 20.9 15.3 C 20.4 15 19.7 14.8 19.7 14.1 C 19.7 13.3 20.4 12.9 21 12.9 C 21.5 12.9 21.9 13.1 22.3 13.3 C 22.3 13.3 21.8 13.8 21.8 13.8 Z M 25.9 15.2 C 25.9 15.9 26.4 16.5 27.2 16.5 C 27.7 16.5 28.1 16.3 28.4 15.8 C 28.4 15.8 28.9 16.2 28.9 16.2 C 28.5 16.8 27.9 17.1 27.1 17.1 C 25.9 17.1 25.2 16.2 25.2 15 C 25.2 13.8 26 12.9 27.1 12.9 C 28.2 12.9 29 13.7 29 14.8 C 29 14.9 28.9 15.1 28.9 15.2 C 28.9 15.2 25.9 15.2 25.9 15.2 Z M 25.9 14.6 C 25.9 14.6 28.2 14.6 28.2 14.6 C 28.2 14 27.7 13.5 27.1 13.5 C 26.5 13.5 26.1 14 25.9 14.6 Z M 32.3 17 C 32.3 17 32.34 16.58 32.3 16.6 C 32 16.9 31.7 17.1 31.1 17.1 C 30.4 17.1 29.7 16.7 29.7 15.9 C 29.7 14.9 30.6 14.6 31.5 14.6 C 31.7 14.6 32 14.6 32.3 14.6 C 32.3 14.6 32.3 14.5 32.3 14.5 C 32.3 13.9 32 13.5 31.4 13.5 C 30.9 13.5 30.4 13.7 30.1 13.9 C 30.1 13.9 29.9 13.3 29.9 13.3 C 30.3 13.1 30.9 12.9 31.5 12.9 C 32.6 12.9 33 13.5 33 14.6 C 33.04 14.57 33 17 33 17 L 32.3 17 Z M 32.3 15.2 C 32 15.1 31.8 15.1 31.6 15.1 C 31.1 15.1 30.4 15.2 30.4 15.8 C 30.4 16.3 30.8 16.5 31.2 16.5 C 31.6 16.5 32 16.3 32.3 16 C 32.3 16 32.3 15.2 32.3 15.2 Z M 36.3 13.8 C 36.1 13.6 35.8 13.5 35.5 13.5 C 35.1 13.5 34.9 13.7 34.9 14 C 34.9 14.3 35.3 14.5 35.7 14.6 C 36.2 14.8 36.8 15.1 36.8 15.8 C 36.8 16.7 36.1 17.1 35.4 17.1 C 34.8 17.1 34.3 16.9 34 16.5 C 34 16.5 34.5 16.1 34.5 16.1 C 34.8 16.3 35.1 16.5 35.4 16.5 C 35.8 16.5 36.1 16.3 36.1 15.9 C 36.1 15.6 35.7 15.4 35.3 15.3 C 34.8 15 34.2 14.8 34.2 14.1 C 34.2 13.3 34.8 12.9 35.5 12.9 C 35.9 12.9 36.4 13.1 36.7 13.3 C 36.7 13.3 36.3 13.8 36.3 13.8 Z M 37.9 17 L 37.9 13 L 38.7 13 L 38.7 17 L 37.9 17 Z M 37.9 12.2 L 37.9 11.4 L 38.7 11.4 L 38.7 12.2 L 37.9 12.2 Z M 40.4 15.2 C 40.5 15.9 40.9 16.5 41.7 16.5 C 42.2 16.5 42.6 16.3 42.9 15.8 C 42.9 15.8 43.4 16.2 43.4 16.2 C 43 16.8 42.5 17.1 41.7 17.1 C 40.4 17.1 39.7 16.2 39.7 15 C 39.7 13.8 40.6 12.9 41.7 12.9 C 42.7 12.9 43.5 13.7 43.5 14.8 C 43.5 14.9 43.5 15.1 43.5 15.2 C 43.5 15.2 40.4 15.2 40.4 15.2 Z M 40.5 14.6 C 40.5 14.6 42.7 14.6 42.7 14.6 C 42.7 14 42.3 13.5 41.7 13.5 C 41 13.5 40.6 14 40.5 14.6 Z M 45.2 13.7 C 45.5 13.2 45.8 12.9 46.3 12.9 C 46.4 12.9 46.5 12.9 46.7 13 C 46.7 13 46.6 13.7 46.6 13.7 C 46.4 13.7 46.3 13.6 46.2 13.6 C 45.8 13.6 45.5 13.9 45.2 14.3 C 45.22 14.32 45.2 17 45.2 17 L 44.5 17 L 44.5 13 L 45.2 13 C 45.2 13 45.22 13.66 45.2 13.7 Z M 50.1 13.6 C 50.1 13.6 50.12 15.45 50.1 15.4 C 50.1 15.6 50.1 15.6 50.1 15.8 C 50.2 16.2 50.3 16.4 50.7 16.4 C 50.8 16.4 51 16.4 51.1 16.3 C 51.1 16.3 51.3 16.9 51.3 16.9 C 51.1 17 50.9 17.1 50.6 17.1 C 50 17.1 49.7 16.8 49.5 16.5 C 49.4 16.2 49.4 15.9 49.4 15.6 C 49.39 15.62 49.4 13.6 49.4 13.6 L 48.9 13.6 L 48.9 13 L 49.4 13 L 49.4 12 L 50.1 12 L 50.1 13 L 51.2 13 L 51.2 13.6 L 50.1 13.6 Z M 52.8 13.7 C 53.1 13.2 53.6 12.9 54.2 12.9 C 54.7 12.9 55.1 13.1 55.3 13.4 C 55.6 13.8 55.7 14.3 55.7 14.9 C 55.67 14.92 55.7 17 55.7 17 L 54.9 17 C 54.9 17 54.94 15 54.9 15 C 54.9 14.6 54.9 14.2 54.7 13.9 C 54.6 13.7 54.4 13.6 54 13.6 C 53.6 13.6 53.1 13.9 52.8 14.3 C 52.85 14.34 52.8 17 52.8 17 L 52.1 17 L 52.1 11 L 52.8 11 C 52.8 11 52.85 13.66 52.8 13.7 Z M 59.3 17 C 59.3 17 59.34 16.58 59.3 16.6 C 59 16.9 58.7 17.1 58.1 17.1 C 57.4 17.1 56.7 16.7 56.7 15.9 C 56.7 14.9 57.6 14.6 58.5 14.6 C 58.7 14.6 59 14.6 59.3 14.6 C 59.3 14.6 59.3 14.5 59.3 14.5 C 59.3 13.9 59 13.5 58.4 13.5 C 57.9 13.5 57.4 13.7 57.1 13.9 C 57.1 13.9 56.9 13.3 56.9 13.3 C 57.3 13.1 57.9 12.9 58.5 12.9 C 59.6 12.9 60 13.5 60 14.6 C 60.04 14.57 60 17 60 17 L 59.3 17 Z M 59.3 15.2 C 59 15.1 58.8 15.1 58.6 15.1 C 58.1 15.1 57.4 15.2 57.4 15.8 C 57.4 16.3 57.8 16.5 58.2 16.5 C 58.6 16.5 59 16.3 59.3 16 C 59.3 16 59.3 15.2 59.3 15.2 Z M 62.1 13 C 62.1 13 62.06 13.66 62.1 13.7 C 62.4 13.2 62.8 12.9 63.4 12.9 C 63.9 12.9 64.3 13.1 64.5 13.4 C 64.8 13.8 64.9 14.3 64.9 14.9 C 64.89 14.92 64.9 17 64.9 17 L 64.2 17 C 64.2 17 64.16 15 64.2 15 C 64.2 14.6 64.1 14.2 64 13.9 C 63.8 13.7 63.6 13.6 63.3 13.6 C 62.8 13.6 62.4 13.9 62.1 14.3 C 62.06 14.34 62.1 17 62.1 17 L 61.3 17 L 61.3 13 L 62.1 13 Z " stroke="none" fill="#fff"/>  </g>  <g id="Polygon42994">    <path d="M 3.5 6.1 C 1.8 6.1 0.5 5 0.5 3.2 C 0.5 1.5 1.8 0.3 3.5 0.3 C 4 0.3 4.6 0.5 5 0.7 C 5 0.7 4.6 1.3 4.6 1.3 C 4.3 1.1 3.9 1 3.5 1 C 2.2 1 1.3 1.9 1.3 3.2 C 1.3 4.6 2.2 5.4 3.5 5.4 C 3.9 5.4 4.3 5.3 4.7 5 C 4.7 5 5.1 5.6 5.1 5.6 C 4.7 5.9 4.1 6.1 3.5 6.1 Z M 6.8 2.7 C 7 2.2 7.4 1.9 7.8 1.9 C 8 1.9 8.1 1.9 8.3 2 C 8.3 2 8.1 2.7 8.1 2.7 C 8 2.7 7.9 2.6 7.7 2.6 C 7.3 2.6 7 2.9 6.8 3.3 C 6.79 3.32 6.8 6 6.8 6 L 6.1 6 L 6.1 2 L 6.8 2 C 6.8 2 6.79 2.66 6.8 2.7 Z M 9.3 4.2 C 9.4 4.9 9.8 5.5 10.6 5.5 C 11.1 5.5 11.6 5.3 11.8 4.8 C 11.8 4.8 12.3 5.2 12.3 5.2 C 11.9 5.8 11.4 6.1 10.6 6.1 C 9.3 6.1 8.6 5.2 8.6 4 C 8.6 2.8 9.5 1.9 10.6 1.9 C 11.6 1.9 12.4 2.7 12.4 3.8 C 12.4 3.9 12.4 4.1 12.4 4.2 C 12.4 4.2 9.3 4.2 9.3 4.2 Z M 9.4 3.6 C 9.4 3.6 11.6 3.6 11.6 3.6 C 11.6 3 11.2 2.5 10.6 2.5 C 9.9 2.5 9.5 3 9.4 3.6 Z M 15.8 6 C 15.8 6 15.78 5.58 15.8 5.6 C 15.4 5.9 15.1 6.1 14.6 6.1 C 13.8 6.1 13.2 5.7 13.2 4.9 C 13.2 3.9 14.1 3.6 14.9 3.6 C 15.1 3.6 15.4 3.6 15.7 3.6 C 15.7 3.6 15.7 3.5 15.7 3.5 C 15.7 2.9 15.5 2.5 14.8 2.5 C 14.3 2.5 13.8 2.7 13.5 2.9 C 13.5 2.9 13.3 2.3 13.3 2.3 C 13.7 2.1 14.3 1.9 14.9 1.9 C 16 1.9 16.5 2.5 16.5 3.6 C 16.47 3.57 16.5 6 16.5 6 L 15.8 6 Z M 15.7 4.2 C 15.4 4.1 15.2 4.1 15 4.1 C 14.5 4.1 13.9 4.2 13.9 4.8 C 13.9 5.3 14.2 5.5 14.7 5.5 C 15.1 5.5 15.4 5.3 15.7 5 C 15.7 5 15.7 4.2 15.7 4.2 Z M 18.5 2.6 C 18.5 2.6 18.54 4.45 18.5 4.4 C 18.5 4.6 18.5 4.6 18.5 4.8 C 18.6 5.2 18.7 5.4 19.1 5.4 C 19.3 5.4 19.4 5.4 19.6 5.3 C 19.6 5.3 19.8 5.9 19.8 5.9 C 19.6 6 19.3 6.1 19 6.1 C 18.4 6.1 18.1 5.8 17.9 5.5 C 17.8 5.2 17.8 4.9 17.8 4.6 C 17.81 4.62 17.8 2.6 17.8 2.6 L 17.3 2.6 L 17.3 2 L 17.8 2 L 17.8 1 L 18.5 1 L 18.5 2 L 19.7 2 L 19.7 2.6 L 18.5 2.6 Z M 20.5 6 L 20.5 2 L 21.3 2 L 21.3 6 L 20.5 6 Z M 20.5 1.2 L 20.5 0.4 L 21.3 0.4 L 21.3 1.2 L 20.5 1.2 Z M 23.3 2 C 23.3 2 23.34 2.66 23.3 2.7 C 23.6 2.2 24.1 1.9 24.6 1.9 C 25.2 1.9 25.6 2.1 25.8 2.4 C 26.1 2.8 26.2 3.3 26.2 3.9 C 26.16 3.92 26.2 6 26.2 6 L 25.4 6 C 25.4 6 25.43 4 25.4 4 C 25.4 3.6 25.4 3.2 25.2 2.9 C 25.1 2.7 24.9 2.6 24.5 2.6 C 24.1 2.6 23.6 2.9 23.3 3.3 C 23.34 3.34 23.3 6 23.3 6 L 22.6 6 L 22.6 2 L 23.3 2 Z M 31.1 5.8 C 31.1 6.2 31.1 6.5 30.9 6.8 C 30.6 7.5 29.9 7.8 29.1 7.8 C 28.5 7.8 27.8 7.6 27.3 7.2 C 27.3 7.2 27.6 6.6 27.6 6.6 C 28 6.9 28.6 7.1 29.1 7.1 C 29.8 7.1 30.4 6.8 30.4 5.9 C 30.4 5.9 30.4 5.4 30.4 5.4 C 30.1 5.8 29.6 6 29.1 6 C 28 6 27.1 5.1 27.1 4 C 27.1 2.9 27.9 1.9 29.1 1.9 C 29.6 1.9 30.1 2.1 30.4 2.4 C 30.39 2.44 30.4 2 30.4 2 L 31.1 2 C 31.1 2 31.12 5.78 31.1 5.8 Z M 30.4 3.2 C 30.1 2.8 29.6 2.6 29.2 2.6 C 28.3 2.6 27.9 3.3 27.9 4 C 27.9 4.7 28.4 5.3 29.2 5.3 C 29.6 5.3 30.2 5.1 30.4 4.6 C 30.4 4.6 30.4 3.2 30.4 3.2 Z M 35.2 2.6 C 35.2 2.6 35.18 4.45 35.2 4.4 C 35.2 4.6 35.2 4.6 35.2 4.8 C 35.2 5.2 35.4 5.4 35.8 5.4 C 35.9 5.4 36.1 5.4 36.2 5.3 C 36.2 5.3 36.4 5.9 36.4 5.9 C 36.2 6 35.9 6.1 35.7 6.1 C 35.1 6.1 34.8 5.8 34.6 5.5 C 34.5 5.2 34.5 4.9 34.5 4.6 C 34.46 4.62 34.5 2.6 34.5 2.6 L 33.9 2.6 L 33.9 2 L 34.5 2 L 34.5 1 L 35.2 1 L 35.2 2 L 36.3 2 L 36.3 2.6 L 35.2 2.6 Z M 37.9 2.7 C 38.2 2.2 38.7 1.9 39.2 1.9 C 39.8 1.9 40.1 2.1 40.4 2.4 C 40.6 2.8 40.7 3.3 40.7 3.9 C 40.73 3.92 40.7 6 40.7 6 L 40 6 C 40 6 40.01 4 40 4 C 40 3.6 40 3.2 39.8 2.9 C 39.7 2.7 39.5 2.6 39.1 2.6 C 38.6 2.6 38.2 2.9 37.9 3.3 C 37.91 3.34 37.9 6 37.9 6 L 37.2 6 L 37.2 0 L 37.9 0 C 37.9 0 37.91 2.66 37.9 2.7 Z M 42.4 4.2 C 42.5 4.9 42.9 5.5 43.7 5.5 C 44.2 5.5 44.7 5.3 44.9 4.8 C 44.9 4.8 45.4 5.2 45.4 5.2 C 45 5.8 44.5 6.1 43.7 6.1 C 42.4 6.1 41.7 5.2 41.7 4 C 41.7 2.8 42.6 1.9 43.7 1.9 C 44.7 1.9 45.5 2.7 45.5 3.8 C 45.5 3.9 45.5 4.1 45.5 4.2 C 45.5 4.2 42.4 4.2 42.4 4.2 Z M 42.5 3.6 C 42.5 3.6 44.8 3.6 44.8 3.6 C 44.7 3 44.3 2.5 43.7 2.5 C 43 2.5 42.6 3 42.5 3.6 Z M 49.2 6 L 48.5 6 L 48.5 0 L 49.2 0 L 49.2 6 Z M 54.3 4 C 54.3 5.2 53.5 6.1 52.3 6.1 C 51.1 6.1 50.2 5.2 50.2 4 C 50.2 2.8 51.1 1.9 52.3 1.9 C 53.5 1.9 54.3 2.8 54.3 4 Z M 52.3 2.6 C 51.5 2.6 51 3.2 51 4 C 51 4.8 51.5 5.4 52.3 5.4 C 53 5.4 53.6 4.8 53.6 4 C 53.6 3.2 53 2.6 52.3 2.6 Z M 59.1 4 C 59.1 5.2 58.2 6.1 57 6.1 C 55.9 6.1 55 5.2 55 4 C 55 2.8 55.9 1.9 57 1.9 C 58.2 1.9 59.1 2.8 59.1 4 Z M 57 2.6 C 56.3 2.6 55.7 3.2 55.7 4 C 55.7 4.8 56.3 5.4 57 5.4 C 57.8 5.4 58.3 4.8 58.3 4 C 58.3 3.2 57.8 2.6 57 2.6 Z M 62.6 6 L 61.4 4.2 L 60.8 4.9 L 60.8 6 L 60.1 6 L 60.1 0 L 60.8 0 L 60.8 4 L 60.8 4 L 62.4 2 L 63.3 2 L 61.9 3.6 L 63.5 6 L 62.6 6 Z M 66.4 2 L 67.4 5 L 67.4 5 L 68.5 2 L 69.3 2 L 67 7.8 L 66.4 7.6 L 67 5.9 L 65.6 2 L 66.4 2 Z M 73.8 4 C 73.8 5.2 72.9 6.1 71.7 6.1 C 70.6 6.1 69.7 5.2 69.7 4 C 69.7 2.8 70.6 1.9 71.7 1.9 C 72.9 1.9 73.8 2.8 73.8 4 Z M 71.7 2.6 C 71 2.6 70.4 3.2 70.4 4 C 70.4 4.8 71 5.4 71.7 5.4 C 72.5 5.4 73 4.8 73 4 C 73 3.2 72.5 2.6 71.7 2.6 Z M 77.5 5.3 C 77.2 5.8 76.8 6.1 76.2 6.1 C 75.7 6.1 75.3 5.9 75.1 5.6 C 74.8 5.2 74.7 4.7 74.7 4.1 C 74.72 4.08 74.7 2 74.7 2 L 75.4 2 C 75.4 2 75.45 4 75.4 4 C 75.4 4.4 75.5 4.8 75.7 5.1 C 75.8 5.3 76 5.4 76.4 5.4 C 76.8 5.4 77.3 5.1 77.5 4.7 C 77.54 4.66 77.5 2 77.5 2 L 78.3 2 L 78.3 6 L 77.5 6 C 77.5 6 77.54 5.34 77.5 5.3 Z " stroke="none" fill="#fff"/>  </g></svg>