<?xml version="1.0" standalone="no"?><!DOCTYPE svg PUBLIC "-//W3C//DTD SVG 1.1//EN" "http://www.w3.org/Graphics/SVG/1.1/DTD/svg11.dtd"><svg xmlns="http://www.w3.org/2000/svg" version="1.1" width="123.5px" height="65.3px" viewBox="0 -1 123.5 65.3" style="top:-1px">  <desc>Comfort Makes a Comeback</desc>  <defs/>  <g id="Polygon39884">    <path d="M 5.6 54.5 C 6.3 54.5 7 54.3 7.6 53.8 C 7.6 53.8 8.4 54.8 8.4 54.8 C 7.6 55.4 6.6 55.7 5.6 55.7 C 2.9 55.7 0.7 53.9 0.7 51 C 0.7 48.3 2.9 46.3 5.6 46.3 C 6.6 46.3 7.4 46.6 8.2 47.1 C 8.2 47.1 7.5 48.1 7.5 48.1 C 6.9 47.8 6.3 47.6 5.6 47.6 C 3.7 47.6 2.2 49 2.2 51 C 2.2 53.1 3.6 54.5 5.6 54.5 Z M 14.3 47.6 C 12.4 47.6 11 49.1 11 51 C 11 53 12.4 54.5 14.3 54.5 C 16.1 54.5 17.5 53 17.5 51 C 17.5 49.1 16.1 47.6 14.3 47.6 Z M 14.3 55.7 C 11.6 55.7 9.6 53.6 9.6 51 C 9.6 48.4 11.6 46.3 14.3 46.3 C 16.9 46.3 19 48.4 19 51 C 19 53.6 16.9 55.7 14.3 55.7 Z M 26.9 55.6 L 25.9 55.6 L 22.9 48.1 L 22.9 55.6 L 21.6 55.6 L 21.6 46.5 L 23.7 46.5 L 26.4 53.4 L 29.1 46.5 L 31.3 46.5 L 31.3 55.6 L 29.9 55.6 L 29.9 48.1 L 26.9 55.6 Z M 34.3 55.6 L 34.3 46.5 L 39.9 46.5 L 39.9 47.7 L 35.7 47.7 L 35.7 50.3 L 39.9 50.3 L 39.9 51.5 L 35.7 51.5 L 35.7 54.4 L 39.9 54.4 L 39.9 55.6 L 34.3 55.6 Z M 42.5 46.5 C 42.5 46.5 44.72 46.47 44.7 46.5 C 45.6 46.5 46.5 46.6 47.2 47 C 47.8 47.5 48.1 48.2 48.1 49 C 48.1 49.8 47.7 50.4 46.8 50.8 C 47.9 51.2 48.5 51.9 48.5 53 C 48.5 54 47.9 54.8 47 55.2 C 46.3 55.5 45.4 55.6 44.6 55.6 C 44.6 55.57 42.5 55.6 42.5 55.6 L 42.5 46.5 Z M 43.9 54.4 C 43.9 54.4 44.51 54.37 44.5 54.4 C 45.2 54.4 45.9 54.3 46.3 54.1 C 46.7 53.9 47 53.6 47 53 C 47 52.1 46.4 51.5 45.2 51.5 C 45.24 51.52 43.9 51.5 43.9 51.5 L 43.9 54.4 Z M 43.9 50.3 C 43.9 50.3 44.69 50.31 44.7 50.3 C 46 50.3 46.7 49.9 46.7 49 C 46.7 48.5 46.6 48.2 46.3 48 C 45.8 47.7 45.2 47.7 44.5 47.7 C 44.46 47.68 43.9 47.7 43.9 47.7 L 43.9 50.3 Z M 56.2 53.7 L 52.4 53.7 L 51.8 55.6 L 50.2 55.6 L 53.8 46.5 L 55 46.5 L 58.4 55.6 L 56.8 55.6 L 56.2 53.7 Z M 52.9 52.5 L 55.7 52.5 L 54.3 48.6 L 54.3 48.6 L 52.9 52.5 Z M 64.7 54.5 C 65.4 54.5 66 54.3 66.6 53.8 C 66.6 53.8 67.4 54.8 67.4 54.8 C 66.6 55.4 65.6 55.7 64.6 55.7 C 61.9 55.7 59.8 53.9 59.8 51 C 59.8 48.3 62 46.3 64.7 46.3 C 65.6 46.3 66.4 46.6 67.2 47.1 C 67.2 47.1 66.5 48.1 66.5 48.1 C 66 47.8 65.3 47.6 64.7 47.6 C 62.7 47.6 61.3 49 61.3 51 C 61.3 53.1 62.6 54.5 64.7 54.5 Z M 73.3 50.1 L 76.5 55.6 L 74.9 55.6 L 72.4 51.2 L 71 52.8 L 71 55.6 L 69.6 55.6 L 69.6 46.5 L 71 46.5 L 71 50.9 L 74.7 46.5 L 76.4 46.5 L 73.3 50.1 Z " stroke="none" fill="#fff"/>  </g>  <g id="Polygon39883">    <path d="M 6.5 41.6 L 5.5 41.6 L 2.6 34.1 L 2.6 41.6 L 1.2 41.6 L 1.2 32.5 L 3.3 32.5 L 6 39.4 L 8.8 32.5 L 10.9 32.5 L 10.9 41.6 L 9.5 41.6 L 9.5 34.1 L 6.5 41.6 Z M 18.9 39.7 L 15.2 39.7 L 14.5 41.6 L 13 41.6 L 16.6 32.5 L 17.8 32.5 L 21.2 41.6 L 19.6 41.6 L 18.9 39.7 Z M 15.7 38.5 L 18.5 38.5 L 17.1 34.6 L 17.1 34.6 L 15.7 38.5 Z M 27 36.1 L 30.2 41.6 L 28.6 41.6 L 26.1 37.2 L 24.7 38.8 L 24.7 41.6 L 23.3 41.6 L 23.3 32.5 L 24.7 32.5 L 24.7 36.9 L 28.4 32.5 L 30.1 32.5 L 27 36.1 Z M 32.1 41.6 L 32.1 32.5 L 37.7 32.5 L 37.7 33.7 L 33.5 33.7 L 33.5 36.3 L 37.7 36.3 L 37.7 37.5 L 33.5 37.5 L 33.5 40.4 L 37.7 40.4 L 37.7 41.6 L 32.1 41.6 Z M 43.2 33.6 C 42.3 33.6 41.7 34 41.7 34.7 C 41.7 35.5 42.5 35.8 43.5 36.1 C 44.7 36.5 46.3 37.1 46.3 38.9 C 46.3 40.9 44.4 41.7 43 41.7 C 41.7 41.7 40.7 41.3 39.7 40.3 C 39.7 40.3 40.7 39.4 40.7 39.4 C 41.5 40.2 42.1 40.5 43 40.5 C 43.9 40.5 44.8 40.1 44.8 39 C 44.8 38.1 43.8 37.7 42.8 37.4 C 41.6 36.9 40.3 36.3 40.3 34.8 C 40.3 33.1 41.6 32.3 43.1 32.3 C 44.2 32.3 45.1 32.6 45.9 33.3 C 45.9 33.3 45.1 34.3 45.1 34.3 C 44.7 33.9 43.9 33.6 43.2 33.6 Z M 57.7 39.7 L 54 39.7 L 53.3 41.6 L 51.8 41.6 L 55.3 32.5 L 56.5 32.5 L 60 41.6 L 58.4 41.6 L 57.7 39.7 Z M 54.4 38.5 L 57.3 38.5 L 55.9 34.6 L 55.8 34.6 L 54.4 38.5 Z " stroke="none" fill="#fff"/>  </g>  <g id="Polygon39882">    <path d="M 5.6 26.5 C 6.3 26.5 7 26.3 7.6 25.8 C 7.6 25.8 8.4 26.8 8.4 26.8 C 7.6 27.4 6.6 27.7 5.6 27.7 C 2.9 27.7 0.7 25.9 0.7 23 C 0.7 20.3 2.9 18.3 5.6 18.3 C 6.6 18.3 7.4 18.6 8.2 19.1 C 8.2 19.1 7.5 20.1 7.5 20.1 C 6.9 19.8 6.3 19.6 5.6 19.6 C 3.7 19.6 2.2 21 2.2 23 C 2.2 25.1 3.6 26.5 5.6 26.5 Z M 14.3 19.6 C 12.4 19.6 11 21.1 11 23 C 11 25 12.4 26.5 14.3 26.5 C 16.1 26.5 17.5 25 17.5 23 C 17.5 21.1 16.1 19.6 14.3 19.6 Z M 14.3 27.7 C 11.6 27.7 9.6 25.6 9.6 23 C 9.6 20.4 11.6 18.3 14.3 18.3 C 16.9 18.3 19 20.4 19 23 C 19 25.6 16.9 27.7 14.3 27.7 Z M 26.9 27.6 L 25.9 27.6 L 22.9 20.1 L 22.9 27.6 L 21.6 27.6 L 21.6 18.5 L 23.7 18.5 L 26.4 25.4 L 29.1 18.5 L 31.3 18.5 L 31.3 27.6 L 29.9 27.6 L 29.9 20.1 L 26.9 27.6 Z M 35.7 23.7 L 35.7 27.6 L 34.3 27.6 L 34.3 18.5 L 39 18.5 L 39 19.7 L 35.7 19.7 L 35.7 22.5 L 39 22.5 L 39 23.7 L 35.7 23.7 Z M 45.7 19.6 C 43.8 19.6 42.5 21.1 42.5 23 C 42.5 25 43.8 26.5 45.7 26.5 C 47.6 26.5 48.9 25 48.9 23 C 48.9 21.1 47.6 19.6 45.7 19.6 Z M 45.7 27.7 C 43 27.7 41 25.6 41 23 C 41 20.4 43 18.3 45.7 18.3 C 48.3 18.3 50.4 20.4 50.4 23 C 50.4 25.6 48.3 27.7 45.7 27.7 Z M 55.7 18.5 C 57.1 18.5 58.9 19.2 58.9 21.1 C 58.9 22.6 57.8 23.4 56.7 23.7 C 56.71 23.67 59.6 27.6 59.6 27.6 L 57.8 27.6 L 55.1 23.8 L 54.4 23.8 L 54.4 27.6 L 53 27.6 L 53 18.5 C 53 18.5 55.7 18.47 55.7 18.5 Z M 54.4 22.6 C 54.4 22.6 55.39 22.56 55.4 22.6 C 56.5 22.6 57.4 22.1 57.4 21.2 C 57.4 20.3 56.7 19.7 55.6 19.7 C 55.64 19.69 54.4 19.7 54.4 19.7 L 54.4 22.6 Z M 64.3 19.7 L 64.3 27.6 L 62.9 27.6 L 62.9 19.7 L 60.7 19.7 L 60.7 18.5 L 66.6 18.5 L 66.6 19.7 L 64.3 19.7 Z " stroke="none" fill="#fff"/>  </g></svg>