<?xml version="1.0" standalone="no"?><!DOCTYPE svg PUBLIC "-//W3C//DTD SVG 1.1//EN" "http://www.w3.org/Graphics/SVG/1.1/DTD/svg11.dtd"><svg xmlns="http://www.w3.org/2000/svg" version="1.1" width="150px" height="23.8px" viewBox="0 -4 150 23.8" style="top:-4px">  <desc>Kambria A3000206</desc>  <defs/>  <g id="Polygon40503">    <path d="M 61.8 15 L 61.4 14 L 59.3 14 L 58.9 15 L 58.2 15 L 60.1 10.1 L 60.7 10.1 L 62.6 15 L 61.8 15 Z M 59.5 13.4 L 61.2 13.4 L 60.4 11.1 L 60.3 11.1 L 59.5 13.4 Z M 64.1 12.3 C 64.4 12.3 64.6 12.3 64.8 12.2 C 65.1 12.1 65.4 11.9 65.4 11.5 C 65.4 11.1 65.1 10.9 64.6 10.9 C 64.3 10.9 63.9 11 63.8 11.4 C 63.8 11.4 63.3 11.1 63.3 11.1 C 63.5 10.6 64 10.3 64.6 10.3 C 65.5 10.3 66 10.8 66 11.5 C 66 11.9 65.8 12.3 65.5 12.5 C 65.9 12.7 66.3 13.1 66.3 13.6 C 66.3 14.6 65.6 15.1 64.7 15.1 C 64.2 15.1 63.5 14.8 63.3 14.3 C 63.3 14.3 63.8 14 63.8 14 C 64 14.4 64.3 14.5 64.7 14.5 C 65.2 14.5 65.6 14.2 65.6 13.7 C 65.6 13.2 65.2 12.9 64.6 12.9 C 64.5 12.9 64.3 12.9 64.1 13 C 64.1 13 64.1 12.3 64.1 12.3 Z M 70.6 12.7 C 70.6 14.2 70.1 15.1 69 15.1 C 68 15.1 67.4 14.2 67.4 12.7 C 67.4 11.2 68 10.3 69 10.3 C 70.1 10.3 70.6 11.2 70.6 12.7 Z M 68 12.7 C 68 13.9 68.4 14.5 69 14.5 C 69.6 14.5 70 13.9 70 12.7 C 70 11.5 69.6 10.9 69 10.9 C 68.4 10.9 68 11.5 68 12.7 Z M 75 12.7 C 75 14.2 74.4 15.1 73.3 15.1 C 72.3 15.1 71.7 14.2 71.7 12.7 C 71.7 11.2 72.3 10.3 73.3 10.3 C 74.4 10.3 75 11.2 75 12.7 Z M 72.3 12.7 C 72.3 13.9 72.7 14.5 73.3 14.5 C 73.9 14.5 74.3 13.9 74.3 12.7 C 74.3 11.5 73.9 10.9 73.3 10.9 C 72.7 10.9 72.3 11.5 72.3 12.7 Z M 79.3 12.7 C 79.3 14.2 78.7 15.1 77.6 15.1 C 76.6 15.1 76 14.2 76 12.7 C 76 11.2 76.6 10.3 77.6 10.3 C 78.7 10.3 79.3 11.2 79.3 12.7 Z M 76.6 12.7 C 76.6 13.9 77 14.5 77.6 14.5 C 78.2 14.5 78.6 13.9 78.6 12.7 C 78.6 11.5 78.2 10.9 77.6 10.9 C 77 10.9 76.6 11.5 76.6 12.7 Z M 80.3 15 C 80.3 15 80.29 14.41 80.3 14.4 C 80.8 13.8 81.5 13.1 81.9 12.5 C 82.1 12.2 82.4 11.8 82.4 11.5 C 82.4 11.1 82 10.9 81.6 10.9 C 81.2 10.9 80.9 11.1 80.9 11.6 C 80.9 11.6 80.2 11.4 80.2 11.4 C 80.3 10.7 81 10.3 81.6 10.3 C 82.4 10.3 83 10.8 83 11.5 C 83 11.9 82.8 12.4 82.5 12.8 C 82.1 13.3 81.7 13.9 81.2 14.4 C 81.17 14.41 83.2 14.4 83.2 14.4 L 83.2 15 L 80.3 15 Z M 87.4 12.7 C 87.4 14.2 86.8 15.1 85.8 15.1 C 84.7 15.1 84.1 14.2 84.1 12.7 C 84.1 11.2 84.7 10.3 85.8 10.3 C 86.8 10.3 87.4 11.2 87.4 12.7 Z M 84.8 12.7 C 84.8 13.9 85.2 14.5 85.8 14.5 C 86.4 14.5 86.8 13.9 86.8 12.7 C 86.8 11.5 86.4 10.9 85.8 10.9 C 85.2 10.9 84.8 11.5 84.8 12.7 Z M 91 10.7 C 90.2 11.1 89.5 11.6 89.2 12.5 C 89.5 12.2 89.8 12.1 90.3 12.1 C 91.1 12.1 91.6 12.7 91.6 13.6 C 91.6 14.4 91 15.1 90.2 15.1 C 89.1 15.1 88.5 14.2 88.5 13.2 C 88.5 11.7 89.5 10.6 90.7 10.1 C 90.7 10.1 91 10.7 91 10.7 Z M 89.1 13.2 C 89.1 13.9 89.4 14.5 90.1 14.5 C 90.6 14.5 91 14.1 91 13.5 C 91 13 90.6 12.6 90.1 12.6 C 89.7 12.6 89.3 12.9 89.1 13.2 Z " stroke="none" fill="#535a5d"/>  </g>  <g id="Polygon40502">    <path d="M 58.9 2.6 L 60.9 6 L 59.7 6 L 58.2 3.4 L 57.5 4.3 L 57.5 6 L 56.5 6 L 56.5 0.4 L 57.5 0.4 L 57.5 2.9 L 59.6 0.4 L 60.8 0.4 L 58.9 2.6 Z M 63.8 0.4 L 64.6 0.4 L 66.8 6 L 65.6 6 L 65.2 4.9 L 63.1 4.9 L 62.7 6 L 61.6 6 L 63.8 0.4 Z M 63.4 4.1 L 64.9 4.1 L 64.2 1.9 L 64.2 1.9 L 63.4 4.1 Z M 71.4 6 L 70.7 6 L 69 1.6 L 69 6 L 68 6 L 68 0.4 L 69.5 0.4 L 71.1 4.5 L 72.7 0.4 L 74.2 0.4 L 74.2 6 L 73.2 6 L 73.2 1.6 L 71.4 6 Z M 75.9 0.4 C 75.9 0.4 77.34 0.4 77.3 0.4 C 77.9 0.4 78.4 0.5 78.8 0.8 C 79.3 1 79.5 1.5 79.5 2 C 79.5 2.4 79.2 2.8 78.7 3.1 C 79.3 3.3 79.7 3.7 79.7 4.4 C 79.7 5 79.3 5.5 78.7 5.8 C 78.3 6 77.8 6 77.3 6 C 77.26 6 75.9 6 75.9 6 L 75.9 0.4 Z M 76.9 5.2 C 76.9 5.2 77.25 5.15 77.2 5.2 C 77.6 5.2 78 5.1 78.3 5 C 78.5 4.9 78.7 4.7 78.7 4.4 C 78.7 3.9 78.3 3.5 77.7 3.5 C 77.66 3.54 76.9 3.5 76.9 3.5 L 76.9 5.2 Z M 76.9 2.7 C 76.9 2.7 77.32 2.74 77.3 2.7 C 78.1 2.7 78.5 2.5 78.5 2 C 78.5 1.7 78.4 1.5 78.2 1.4 C 78 1.3 77.6 1.2 77.2 1.2 C 77.2 1.25 76.9 1.2 76.9 1.2 L 76.9 2.7 Z M 83 0.4 C 83.9 0.4 85 0.9 85 2 C 85 3 84.3 3.4 83.7 3.6 C 83.69 3.62 85.4 6 85.4 6 L 84.2 6 L 82.6 3.7 L 82.2 3.7 L 82.2 6 L 81.2 6 L 81.2 0.4 C 81.2 0.4 82.98 0.4 83 0.4 Z M 82.8 2.9 C 83.4 2.9 83.9 2.6 83.9 2.1 C 83.9 1.6 83.5 1.2 83 1.2 C 82.95 1.25 82.2 1.2 82.2 1.2 L 82.2 2.9 C 82.2 2.9 82.79 2.86 82.8 2.9 Z M 86.6 6 L 86.6 0.4 L 87.6 0.4 L 87.6 6 L 86.6 6 Z M 91.1 0.4 L 91.9 0.4 L 94 6 L 92.9 6 L 92.5 4.9 L 90.4 4.9 L 90 6 L 88.9 6 L 91.1 0.4 Z M 90.7 4.1 L 92.2 4.1 L 91.5 1.9 L 91.4 1.9 L 90.7 4.1 Z " stroke="none" fill="#535a5d"/>  </g></svg>