<?xml version="1.0" standalone="no"?><!DOCTYPE svg PUBLIC "-//W3C//DTD SVG 1.1//EN" "http://www.w3.org/Graphics/SVG/1.1/DTD/svg11.dtd"><svg xmlns="http://www.w3.org/2000/svg" version="1.1" width="209.1px" height="22px" viewBox="0 -1 209.1 22" style="top:-1px">  <desc>Accent Seating 2022</desc>  <defs/>  <g id="Polygon43259">    <path d="M 48.4 6.4 L 49.3 6.4 L 51.4 11.9 L 50.2 11.9 L 49.8 10.8 L 47.7 10.8 L 47.3 11.9 L 46.2 11.9 L 48.4 6.4 Z M 48 10 L 49.5 10 L 48.8 7.9 L 48.8 7.9 L 48 10 Z M 56.5 11.2 C 57 11.2 57.4 11 57.7 10.7 C 57.7 10.7 58.3 11.5 58.3 11.5 C 57.8 11.8 57.2 12 56.5 12 C 54.8 12 53.5 10.9 53.5 9.1 C 53.5 7.5 54.9 6.3 56.5 6.3 C 57.1 6.3 57.7 6.4 58.2 6.7 C 58.2 6.7 57.7 7.5 57.7 7.5 C 57.4 7.3 57 7.1 56.5 7.1 C 55.4 7.1 54.6 8 54.6 9.1 C 54.6 10.4 55.4 11.2 56.5 11.2 Z M 63.4 11.2 C 63.8 11.2 64.2 11 64.6 10.7 C 64.6 10.7 65.1 11.5 65.1 11.5 C 64.6 11.8 64 12 63.3 12 C 61.7 12 60.4 10.9 60.4 9.1 C 60.4 7.5 61.7 6.3 63.4 6.3 C 64 6.3 64.5 6.4 65 6.7 C 65 6.7 64.5 7.5 64.5 7.5 C 64.2 7.3 63.8 7.1 63.4 7.1 C 62.3 7.1 61.4 8 61.4 9.1 C 61.4 10.4 62.2 11.2 63.4 11.2 Z M 67.8 11.9 L 67.8 6.4 L 71.3 6.4 L 71.3 7.2 L 68.8 7.2 L 68.8 8.6 L 71.3 8.6 L 71.3 9.5 L 68.8 9.5 L 68.8 11.1 L 71.3 11.1 L 71.3 11.9 L 67.8 11.9 Z M 78 11.9 L 75.3 8.2 L 75.3 11.9 L 74.3 11.9 L 74.3 6.4 L 75.1 6.4 L 77.9 10.1 L 77.9 6.4 L 78.9 6.4 L 78.9 11.9 L 78 11.9 Z M 83.8 7.2 L 83.8 11.9 L 82.9 11.9 L 82.9 7.2 L 81.5 7.2 L 81.5 6.4 L 85.2 6.4 L 85.2 7.2 L 83.8 7.2 Z M 93.5 7.1 C 93 7.1 92.6 7.3 92.6 7.8 C 92.6 8.2 93.2 8.4 93.6 8.5 C 94.5 8.8 95.4 9.2 95.4 10.3 C 95.4 11.5 94.3 12 93.3 12 C 92.5 12 91.8 11.7 91.2 11.2 C 91.2 11.2 91.9 10.5 91.9 10.5 C 92.4 11 92.8 11.2 93.3 11.2 C 93.8 11.2 94.3 11 94.3 10.4 C 94.3 9.8 93.8 9.6 93.2 9.4 C 92.4 9.1 91.6 8.8 91.6 7.8 C 91.6 6.7 92.5 6.3 93.4 6.3 C 94.1 6.3 94.7 6.5 95.2 6.9 C 95.2 6.9 94.6 7.6 94.6 7.6 C 94.3 7.3 93.9 7.1 93.5 7.1 Z M 98.2 11.9 L 98.2 6.4 L 101.7 6.4 L 101.7 7.2 L 99.2 7.2 L 99.2 8.6 L 101.7 8.6 L 101.7 9.5 L 99.2 9.5 L 99.2 11.1 L 101.7 11.1 L 101.7 11.9 L 98.2 11.9 Z M 106.5 6.4 L 107.3 6.4 L 109.4 11.9 L 108.3 11.9 L 107.9 10.8 L 105.7 10.8 L 105.3 11.9 L 104.2 11.9 L 106.5 6.4 Z M 106 10 L 107.6 10 L 106.8 7.9 L 106.8 7.9 L 106 10 Z M 113.4 7.2 L 113.4 11.9 L 112.4 11.9 L 112.4 7.2 L 111.1 7.2 L 111.1 6.4 L 114.8 6.4 L 114.8 7.2 L 113.4 7.2 Z M 117.4 11.9 L 117.4 6.4 L 118.4 6.4 L 118.4 11.9 L 117.4 11.9 Z M 125.3 11.9 L 122.5 8.2 L 122.5 11.9 L 121.5 11.9 L 121.5 6.4 L 122.4 6.4 L 125.2 10.1 L 125.2 6.4 L 126.2 6.4 L 126.2 11.9 L 125.3 11.9 Z M 132.1 9.6 L 132.1 8.8 L 134.5 8.8 C 134.5 8.8 134.48 10.93 134.5 10.9 C 133.9 11.7 133 12 132.1 12 C 130.4 12 129.1 10.9 129.1 9.1 C 129.1 7.5 130.4 6.3 132.1 6.3 C 133 6.3 133.8 6.6 134.4 7.3 C 134.4 7.3 133.7 7.9 133.7 7.9 C 133.3 7.5 132.7 7.1 132.1 7.1 C 131 7.1 130.1 8 130.1 9.1 C 130.1 10.4 130.9 11.2 132.1 11.2 C 132.6 11.2 133.1 11 133.5 10.6 C 133.48 10.63 133.5 9.6 133.5 9.6 L 132.1 9.6 Z M 144.6 11.9 L 141.1 11.9 C 141.1 11.9 141.09 11.17 141.1 11.2 C 141.7 10.5 142.4 9.7 142.9 9 C 143.1 8.7 143.4 8.3 143.4 8 C 143.4 7.6 143 7.4 142.6 7.4 C 142.2 7.4 141.9 7.7 141.9 8.1 C 141.9 8.1 141 8 141 8 C 141 7.1 141.8 6.5 142.7 6.5 C 143.5 6.5 144.3 7.1 144.3 8 C 144.3 8.5 144.1 9 143.8 9.5 C 143.4 10 142.9 10.6 142.4 11.1 C 142.4 11.12 144.6 11.1 144.6 11.1 L 144.6 11.9 Z M 150.8 9.3 C 150.8 11 150.1 12 148.9 12 C 147.7 12 147 11 147 9.3 C 147 7.6 147.7 6.5 148.9 6.5 C 150.1 6.5 150.8 7.6 150.8 9.3 Z M 147.9 9.3 C 147.9 10.6 148.3 11.2 148.9 11.2 C 149.5 11.2 149.8 10.6 149.8 9.3 C 149.8 8 149.5 7.4 148.9 7.4 C 148.3 7.4 147.9 8 147.9 9.3 Z M 156.9 11.9 L 153.4 11.9 C 153.4 11.9 153.37 11.17 153.4 11.2 C 154 10.5 154.7 9.7 155.2 9 C 155.4 8.7 155.6 8.3 155.6 8 C 155.6 7.6 155.3 7.4 154.9 7.4 C 154.5 7.4 154.2 7.7 154.2 8.1 C 154.2 8.1 153.3 8 153.3 8 C 153.3 7.1 154.1 6.5 155 6.5 C 155.8 6.5 156.6 7.1 156.6 8 C 156.6 8.5 156.4 9 156.1 9.5 C 155.7 10 155.2 10.6 154.7 11.1 C 154.68 11.12 156.9 11.1 156.9 11.1 L 156.9 11.9 Z M 162.8 11.9 L 159.3 11.9 C 159.3 11.9 159.32 11.17 159.3 11.2 C 159.9 10.5 160.7 9.7 161.1 9 C 161.3 8.7 161.6 8.3 161.6 8 C 161.6 7.6 161.3 7.4 160.9 7.4 C 160.5 7.4 160.2 7.7 160.2 8.1 C 160.2 8.1 159.2 8 159.2 8 C 159.3 7.1 160.1 6.5 160.9 6.5 C 161.8 6.5 162.6 7.1 162.6 8 C 162.6 8.5 162.3 9 162 9.5 C 161.6 10 161.1 10.6 160.6 11.1 C 160.62 11.12 162.8 11.1 162.8 11.1 L 162.8 11.9 Z " stroke="none" fill="#fff"/>  </g></svg>