<?xml version="1.0" standalone="no"?><!DOCTYPE svg PUBLIC "-//W3C//DTD SVG 1.1//EN" "http://www.w3.org/Graphics/SVG/1.1/DTD/svg11.dtd"><svg xmlns="http://www.w3.org/2000/svg" version="1.1" width="149px" height="26.8px" viewBox="0 -4 149 26.8" style="top:-4px">  <desc>Dericka A3000235</desc>  <defs/>  <g id="Polygon39162">    <path d="M 61.3 15 L 60.9 14 L 58.8 14 L 58.5 15 L 57.7 15 L 59.6 10.1 L 60.2 10.1 L 62.1 15 L 61.3 15 Z M 59.1 13.4 L 60.7 13.4 L 59.9 11.1 L 59.9 11.1 L 59.1 13.4 Z M 63.6 12.3 C 63.9 12.3 64.1 12.3 64.3 12.2 C 64.6 12.1 64.9 11.9 64.9 11.5 C 64.9 11.1 64.6 10.9 64.1 10.9 C 63.8 10.9 63.5 11 63.4 11.4 C 63.4 11.4 62.8 11.1 62.8 11.1 C 63 10.6 63.5 10.3 64.1 10.3 C 65 10.3 65.6 10.8 65.6 11.5 C 65.6 11.9 65.3 12.3 65 12.5 C 65.5 12.7 65.8 13.1 65.8 13.6 C 65.8 14.6 65.1 15.1 64.3 15.1 C 63.7 15.1 63.1 14.8 62.8 14.3 C 62.8 14.3 63.3 14 63.3 14 C 63.5 14.4 63.8 14.5 64.2 14.5 C 64.7 14.5 65.1 14.2 65.1 13.7 C 65.1 13.2 64.7 12.9 64.1 12.9 C 64 12.9 63.8 12.9 63.6 13 C 63.6 13 63.6 12.3 63.6 12.3 Z M 70.2 12.7 C 70.2 14.2 69.6 15.1 68.5 15.1 C 67.5 15.1 66.9 14.2 66.9 12.7 C 66.9 11.2 67.5 10.3 68.5 10.3 C 69.6 10.3 70.2 11.2 70.2 12.7 Z M 67.6 12.7 C 67.6 13.9 67.9 14.5 68.5 14.5 C 69.1 14.5 69.5 13.9 69.5 12.7 C 69.5 11.5 69.1 10.9 68.5 10.9 C 67.9 10.9 67.6 11.5 67.6 12.7 Z M 74.5 12.7 C 74.5 14.2 73.9 15.1 72.8 15.1 C 71.8 15.1 71.2 14.2 71.2 12.7 C 71.2 11.2 71.8 10.3 72.8 10.3 C 73.9 10.3 74.5 11.2 74.5 12.7 Z M 71.9 12.7 C 71.9 13.9 72.2 14.5 72.8 14.5 C 73.4 14.5 73.8 13.9 73.8 12.7 C 73.8 11.5 73.4 10.9 72.8 10.9 C 72.2 10.9 71.9 11.5 71.9 12.7 Z M 78.8 12.7 C 78.8 14.2 78.2 15.1 77.1 15.1 C 76.1 15.1 75.5 14.2 75.5 12.7 C 75.5 11.2 76.1 10.3 77.1 10.3 C 78.2 10.3 78.8 11.2 78.8 12.7 Z M 76.2 12.7 C 76.2 13.9 76.5 14.5 77.1 14.5 C 77.8 14.5 78.1 13.9 78.1 12.7 C 78.1 11.5 77.8 10.9 77.1 10.9 C 76.5 10.9 76.2 11.5 76.2 12.7 Z M 79.8 15 C 79.8 15 79.82 14.41 79.8 14.4 C 80.4 13.8 81 13.1 81.5 12.5 C 81.6 12.2 81.9 11.8 81.9 11.5 C 81.9 11.1 81.5 10.9 81.1 10.9 C 80.7 10.9 80.4 11.1 80.4 11.6 C 80.4 11.6 79.7 11.4 79.7 11.4 C 79.8 10.7 80.5 10.3 81.1 10.3 C 81.9 10.3 82.6 10.8 82.6 11.5 C 82.6 11.9 82.3 12.4 82.1 12.8 C 81.7 13.3 81.2 13.9 80.7 14.4 C 80.7 14.41 82.8 14.4 82.8 14.4 L 82.8 15 L 79.8 15 Z M 84.5 12.3 C 84.8 12.3 85 12.3 85.2 12.2 C 85.5 12.1 85.8 11.9 85.8 11.5 C 85.8 11.1 85.5 10.9 85 10.9 C 84.7 10.9 84.4 11 84.3 11.4 C 84.3 11.4 83.7 11.1 83.7 11.1 C 83.9 10.6 84.4 10.3 85 10.3 C 85.9 10.3 86.5 10.8 86.5 11.5 C 86.5 11.9 86.2 12.3 85.9 12.5 C 86.4 12.7 86.7 13.1 86.7 13.6 C 86.7 14.6 86 15.1 85.1 15.1 C 84.6 15.1 84 14.8 83.7 14.3 C 83.7 14.3 84.2 14 84.2 14 C 84.4 14.4 84.7 14.5 85.1 14.5 C 85.6 14.5 86 14.2 86 13.7 C 86 13.2 85.6 12.9 85 12.9 C 84.9 12.9 84.7 12.9 84.5 13 C 84.5 13 84.5 12.3 84.5 12.3 Z M 90.5 10.9 C 90.5 10.9 88.74 10.94 88.7 10.9 C 88.7 11.4 88.7 11.9 88.7 12.2 C 88.9 12.1 89.1 12.1 89.3 12.1 C 90.1 12.1 90.8 12.7 90.8 13.5 C 90.8 14.4 90.1 15.1 89.2 15.1 C 88.6 15.1 88 14.8 87.7 14.3 C 87.7 14.3 88.3 14 88.3 14 C 88.4 14.3 88.8 14.5 89.1 14.5 C 89.7 14.5 90.1 14.1 90.1 13.6 C 90.1 13 89.7 12.7 89.2 12.7 C 88.9 12.7 88.6 12.8 88.4 13 C 88.4 13 88 12.7 88 12.7 C 88 12 88.1 11 88.1 10.4 C 88.12 10.35 90.5 10.4 90.5 10.4 L 90.5 10.9 Z " stroke="none" fill="#535a5d"/>  </g>  <g id="Polygon39161">    <path d="M 56.9 0.4 C 56.9 0.4 58.49 0.4 58.5 0.4 C 59.9 0.4 61.5 1.2 61.5 3.2 C 61.5 5.2 59.9 6 58.4 6 C 58.41 6 56.9 6 56.9 6 L 56.9 0.4 Z M 57.9 5.2 C 57.9 5.2 58.08 5.15 58.1 5.2 C 59.5 5.2 60.5 4.7 60.5 3.2 C 60.5 1.9 59.7 1.2 58.4 1.2 C 58.36 1.25 57.9 1.2 57.9 1.2 L 57.9 5.2 Z M 63 6 L 63 0.4 L 66.5 0.4 L 66.5 1.2 L 64 1.2 L 64 2.7 L 66.5 2.7 L 66.5 3.5 L 64 3.5 L 64 5.2 L 66.5 5.2 L 66.5 6 L 63 6 Z M 69.8 0.4 C 70.7 0.4 71.8 0.9 71.8 2 C 71.8 3 71.2 3.4 70.5 3.6 C 70.52 3.62 72.3 6 72.3 6 L 71 6 L 69.4 3.7 L 69.1 3.7 L 69.1 6 L 68.1 6 L 68.1 0.4 C 68.1 0.4 69.81 0.4 69.8 0.4 Z M 69.6 2.9 C 70.3 2.9 70.8 2.6 70.8 2.1 C 70.8 1.6 70.4 1.2 69.8 1.2 C 69.79 1.25 69.1 1.2 69.1 1.2 L 69.1 2.9 C 69.1 2.9 69.63 2.86 69.6 2.9 Z M 73.5 6 L 73.5 0.4 L 74.5 0.4 L 74.5 6 L 73.5 6 Z M 79 5.2 C 79.4 5.2 79.8 5.1 80.2 4.8 C 80.2 4.8 80.7 5.5 80.7 5.5 C 80.2 5.9 79.6 6.1 79 6.1 C 77.3 6.1 76 4.9 76 3.2 C 76 1.6 77.3 0.3 79 0.3 C 79.6 0.3 80.1 0.5 80.6 0.8 C 80.6 0.8 80.1 1.6 80.1 1.6 C 79.8 1.3 79.4 1.2 79 1.2 C 77.9 1.2 77 2 77 3.2 C 77 4.4 77.8 5.2 79 5.2 Z M 84.4 2.6 L 86.4 6 L 85.2 6 L 83.7 3.4 L 83 4.3 L 83 6 L 82 6 L 82 0.4 L 83 0.4 L 83 2.9 L 85.1 0.4 L 86.3 0.4 L 84.4 2.6 Z M 89.3 0.4 L 90.1 0.4 L 92.3 6 L 91.1 6 L 90.7 4.9 L 88.6 4.9 L 88.2 6 L 87.1 6 L 89.3 0.4 Z M 88.9 4.1 L 90.4 4.1 L 89.7 1.9 L 89.7 1.9 L 88.9 4.1 Z " stroke="none" fill="#535a5d"/>  </g></svg>