<?xml version="1.0" standalone="no"?><!DOCTYPE svg PUBLIC "-//W3C//DTD SVG 1.1//EN" "http://www.w3.org/Graphics/SVG/1.1/DTD/svg11.dtd"><svg xmlns="http://www.w3.org/2000/svg" version="1.1" width="150px" height="23.8px" viewBox="0 -4 150 23.8" style="top:-4px">  <desc>Velburg A3000052</desc>  <defs/>  <g id="Polygon42202">    <path d="M 61.9 15 L 61.5 14 L 59.4 14 L 59.1 15 L 58.3 15 L 60.2 10.1 L 60.8 10.1 L 62.7 15 L 61.9 15 Z M 59.7 13.4 L 61.3 13.4 L 60.5 11.1 L 60.5 11.1 L 59.7 13.4 Z M 64.2 12.3 C 64.5 12.3 64.7 12.3 64.9 12.2 C 65.3 12.1 65.5 11.9 65.5 11.5 C 65.5 11.1 65.2 10.9 64.7 10.9 C 64.4 10.9 64.1 11 64 11.4 C 64 11.4 63.4 11.1 63.4 11.1 C 63.6 10.6 64.1 10.3 64.8 10.3 C 65.6 10.3 66.2 10.8 66.2 11.5 C 66.2 11.9 66 12.3 65.6 12.5 C 66.1 12.7 66.4 13.1 66.4 13.6 C 66.4 14.6 65.7 15.1 64.9 15.1 C 64.3 15.1 63.7 14.8 63.4 14.3 C 63.4 14.3 63.9 14 63.9 14 C 64.1 14.4 64.5 14.5 64.8 14.5 C 65.3 14.5 65.8 14.2 65.8 13.7 C 65.8 13.2 65.3 12.9 64.8 12.9 C 64.6 12.9 64.4 12.9 64.2 13 C 64.2 13 64.2 12.3 64.2 12.3 Z M 70.8 12.7 C 70.8 14.2 70.2 15.1 69.1 15.1 C 68.1 15.1 67.5 14.2 67.5 12.7 C 67.5 11.2 68.1 10.3 69.1 10.3 C 70.2 10.3 70.8 11.2 70.8 12.7 Z M 68.2 12.7 C 68.2 13.9 68.5 14.5 69.1 14.5 C 69.8 14.5 70.1 13.9 70.1 12.7 C 70.1 11.5 69.8 10.9 69.1 10.9 C 68.5 10.9 68.2 11.5 68.2 12.7 Z M 75.1 12.7 C 75.1 14.2 74.5 15.1 73.4 15.1 C 72.4 15.1 71.8 14.2 71.8 12.7 C 71.8 11.2 72.4 10.3 73.4 10.3 C 74.5 10.3 75.1 11.2 75.1 12.7 Z M 72.5 12.7 C 72.5 13.9 72.8 14.5 73.4 14.5 C 74.1 14.5 74.4 13.9 74.4 12.7 C 74.4 11.5 74.1 10.9 73.4 10.9 C 72.8 10.9 72.5 11.5 72.5 12.7 Z M 79.4 12.7 C 79.4 14.2 78.8 15.1 77.8 15.1 C 76.7 15.1 76.1 14.2 76.1 12.7 C 76.1 11.2 76.7 10.3 77.8 10.3 C 78.8 10.3 79.4 11.2 79.4 12.7 Z M 76.8 12.7 C 76.8 13.9 77.1 14.5 77.8 14.5 C 78.4 14.5 78.7 13.9 78.7 12.7 C 78.7 11.5 78.4 10.9 77.8 10.9 C 77.1 10.9 76.8 11.5 76.8 12.7 Z M 83.7 12.7 C 83.7 14.2 83.1 15.1 82.1 15.1 C 81 15.1 80.4 14.2 80.4 12.7 C 80.4 11.2 81 10.3 82.1 10.3 C 83.1 10.3 83.7 11.2 83.7 12.7 Z M 81.1 12.7 C 81.1 13.9 81.4 14.5 82.1 14.5 C 82.7 14.5 83 13.9 83 12.7 C 83 11.5 82.7 10.9 82.1 10.9 C 81.4 10.9 81.1 11.5 81.1 12.7 Z M 87.4 10.9 C 87.4 10.9 85.63 10.94 85.6 10.9 C 85.6 11.4 85.6 11.9 85.5 12.2 C 85.8 12.1 86 12.1 86.2 12.1 C 87 12.1 87.6 12.7 87.6 13.5 C 87.6 14.4 87 15.1 86.1 15.1 C 85.5 15.1 84.9 14.8 84.6 14.3 C 84.6 14.3 85.2 14 85.2 14 C 85.3 14.3 85.7 14.5 86 14.5 C 86.6 14.5 87 14.1 87 13.6 C 87 13 86.6 12.7 86 12.7 C 85.8 12.7 85.5 12.8 85.3 13 C 85.3 13 84.8 12.7 84.8 12.7 C 84.9 12 85 11 85 10.4 C 85 10.35 87.4 10.4 87.4 10.4 L 87.4 10.9 Z M 88.6 15 C 88.6 15 88.62 14.41 88.6 14.4 C 89.2 13.8 89.8 13.1 90.3 12.5 C 90.4 12.2 90.7 11.8 90.7 11.5 C 90.7 11.1 90.3 10.9 89.9 10.9 C 89.5 10.9 89.2 11.1 89.2 11.6 C 89.2 11.6 88.5 11.4 88.5 11.4 C 88.6 10.7 89.3 10.3 89.9 10.3 C 90.7 10.3 91.4 10.8 91.4 11.5 C 91.4 11.9 91.1 12.4 90.9 12.8 C 90.5 13.3 90 13.9 89.5 14.4 C 89.5 14.41 91.6 14.4 91.6 14.4 L 91.6 15 L 88.6 15 Z " stroke="none" fill="#535a5d"/>  </g>  <g id="Polygon42201">    <path d="M 58.9 6 L 58.1 6 L 56 0.4 L 57.1 0.4 L 58.5 4.5 L 58.6 4.5 L 60 0.4 L 61.1 0.4 L 58.9 6 Z M 62.3 6 L 62.3 0.4 L 65.7 0.4 L 65.7 1.2 L 63.2 1.2 L 63.2 2.7 L 65.7 2.7 L 65.7 3.5 L 63.2 3.5 L 63.2 5.2 L 65.7 5.2 L 65.7 6 L 62.3 6 Z M 67.3 6 L 67.3 0.4 L 68.3 0.4 L 68.3 5.2 L 70.6 5.2 L 70.6 6 L 67.3 6 Z M 71.7 0.4 C 71.7 0.4 73.16 0.4 73.2 0.4 C 73.7 0.4 74.3 0.5 74.7 0.8 C 75.1 1 75.3 1.5 75.3 2 C 75.3 2.4 75.1 2.8 74.5 3.1 C 75.2 3.3 75.5 3.7 75.5 4.4 C 75.5 5 75.2 5.5 74.6 5.8 C 74.1 6 73.6 6 73.1 6 C 73.09 6 71.7 6 71.7 6 L 71.7 0.4 Z M 72.7 5.2 C 72.7 5.2 73.08 5.15 73.1 5.2 C 73.5 5.2 73.8 5.1 74.1 5 C 74.3 4.9 74.5 4.7 74.5 4.4 C 74.5 3.9 74.1 3.5 73.5 3.5 C 73.49 3.54 72.7 3.5 72.7 3.5 L 72.7 5.2 Z M 72.7 2.7 C 72.7 2.7 73.15 2.74 73.1 2.7 C 73.9 2.7 74.3 2.5 74.3 2 C 74.3 1.7 74.2 1.5 74 1.4 C 73.8 1.3 73.4 1.2 73 1.2 C 73.03 1.25 72.7 1.2 72.7 1.2 L 72.7 2.7 Z M 81.5 3.4 C 81.5 5.1 80.8 6.1 79.3 6.1 C 77.7 6.1 77.1 5.1 77.1 3.4 C 77.05 3.37 77.1 0.4 77.1 0.4 L 78 0.4 C 78 0.4 78.04 3.54 78 3.5 C 78 4.7 78.5 5.2 79.3 5.2 C 80 5.2 80.5 4.7 80.5 3.5 C 80.5 3.54 80.5 0.4 80.5 0.4 L 81.5 0.4 C 81.5 0.4 81.49 3.37 81.5 3.4 Z M 85 0.4 C 85.8 0.4 86.9 0.9 86.9 2 C 86.9 3 86.3 3.4 85.7 3.6 C 85.67 3.62 87.4 6 87.4 6 L 86.2 6 L 84.6 3.7 L 84.2 3.7 L 84.2 6 L 83.2 6 L 83.2 0.4 C 83.2 0.4 84.96 0.4 85 0.4 Z M 84.8 2.9 C 85.4 2.9 85.9 2.6 85.9 2.1 C 85.9 1.6 85.5 1.2 84.9 1.2 C 84.93 1.25 84.2 1.2 84.2 1.2 L 84.2 2.9 C 84.2 2.9 84.77 2.86 84.8 2.9 Z M 91.1 3.7 L 91.1 2.8 L 93.5 2.8 C 93.5 2.8 93.52 4.98 93.5 5 C 92.9 5.7 92.1 6.1 91.1 6.1 C 89.4 6.1 88.1 4.9 88.1 3.2 C 88.1 1.6 89.5 0.3 91.1 0.3 C 92 0.3 92.8 0.7 93.4 1.4 C 93.4 1.4 92.7 2 92.7 2 C 92.3 1.5 91.8 1.2 91.1 1.2 C 90 1.2 89.2 2 89.2 3.2 C 89.2 4.4 90 5.2 91.1 5.2 C 91.6 5.2 92.1 5 92.5 4.7 C 92.52 4.68 92.5 3.7 92.5 3.7 L 91.1 3.7 Z " stroke="none" fill="#535a5d"/>  </g></svg>