<?xml version="1.0" standalone="no"?><!DOCTYPE svg PUBLIC "-//W3C//DTD SVG 1.1//EN" "http://www.w3.org/Graphics/SVG/1.1/DTD/svg11.dtd"><svg xmlns="http://www.w3.org/2000/svg" version="1.1" width="150px" height="23.8px" viewBox="0 -4 150 23.8" style="top:-4px">  <desc>Cimarosse A3000108</desc>  <defs/>  <g id="Polygon42100">    <path d="M 62.3 15 L 62 14 L 59.9 14 L 59.5 15 L 58.8 15 L 60.7 10.1 L 61.2 10.1 L 63.1 15 L 62.3 15 Z M 60.1 13.4 L 61.7 13.4 L 60.9 11.1 L 60.9 11.1 L 60.1 13.4 Z M 64.7 12.3 C 64.9 12.3 65.1 12.3 65.3 12.2 C 65.7 12.1 65.9 11.9 65.9 11.5 C 65.9 11.1 65.6 10.9 65.2 10.9 C 64.8 10.9 64.5 11 64.4 11.4 C 64.4 11.4 63.8 11.1 63.8 11.1 C 64 10.6 64.5 10.3 65.2 10.3 C 66 10.3 66.6 10.8 66.6 11.5 C 66.6 11.9 66.4 12.3 66 12.5 C 66.5 12.7 66.9 13.1 66.9 13.6 C 66.9 14.6 66.1 15.1 65.3 15.1 C 64.7 15.1 64.1 14.8 63.8 14.3 C 63.8 14.3 64.3 14 64.3 14 C 64.5 14.4 64.9 14.5 65.2 14.5 C 65.7 14.5 66.2 14.2 66.2 13.7 C 66.2 13.2 65.7 12.9 65.2 12.9 C 65 12.9 64.9 12.9 64.7 13 C 64.7 13 64.7 12.3 64.7 12.3 Z M 71.2 12.7 C 71.2 14.2 70.6 15.1 69.6 15.1 C 68.5 15.1 67.9 14.2 67.9 12.7 C 67.9 11.2 68.5 10.3 69.6 10.3 C 70.6 10.3 71.2 11.2 71.2 12.7 Z M 68.6 12.7 C 68.6 13.9 69 14.5 69.6 14.5 C 70.2 14.5 70.5 13.9 70.5 12.7 C 70.5 11.5 70.2 10.9 69.6 10.9 C 69 10.9 68.6 11.5 68.6 12.7 Z M 75.5 12.7 C 75.5 14.2 74.9 15.1 73.9 15.1 C 72.8 15.1 72.2 14.2 72.2 12.7 C 72.2 11.2 72.8 10.3 73.9 10.3 C 74.9 10.3 75.5 11.2 75.5 12.7 Z M 72.9 12.7 C 72.9 13.9 73.3 14.5 73.9 14.5 C 74.5 14.5 74.8 13.9 74.8 12.7 C 74.8 11.5 74.5 10.9 73.9 10.9 C 73.3 10.9 72.9 11.5 72.9 12.7 Z M 79.8 12.7 C 79.8 14.2 79.2 15.1 78.2 15.1 C 77.1 15.1 76.5 14.2 76.5 12.7 C 76.5 11.2 77.1 10.3 78.2 10.3 C 79.2 10.3 79.8 11.2 79.8 12.7 Z M 77.2 12.7 C 77.2 13.9 77.6 14.5 78.2 14.5 C 78.8 14.5 79.2 13.9 79.2 12.7 C 79.2 11.5 78.8 10.9 78.2 10.9 C 77.6 10.9 77.2 11.5 77.2 12.7 Z M 81.5 15 C 81.5 15 81.54 11.15 81.5 11.1 C 81.3 11.3 81 11.4 80.8 11.5 C 80.8 11.5 80.8 10.8 80.8 10.8 C 81.1 10.7 81.5 10.5 81.8 10.4 C 81.77 10.35 82.2 10.4 82.2 10.4 L 82.2 15 L 81.5 15 Z M 86.8 12.7 C 86.8 14.2 86.2 15.1 85.1 15.1 C 84.1 15.1 83.5 14.2 83.5 12.7 C 83.5 11.2 84.1 10.3 85.1 10.3 C 86.2 10.3 86.8 11.2 86.8 12.7 Z M 84.2 12.7 C 84.2 13.9 84.5 14.5 85.1 14.5 C 85.8 14.5 86.1 13.9 86.1 12.7 C 86.1 11.5 85.8 10.9 85.1 10.9 C 84.5 10.9 84.2 11.5 84.2 12.7 Z M 87.8 13.7 C 87.8 13.2 88.1 12.8 88.5 12.6 C 88.2 12.3 87.9 12 87.9 11.5 C 87.9 10.8 88.5 10.3 89.4 10.3 C 90.2 10.3 90.8 10.8 90.8 11.5 C 90.8 12 90.6 12.3 90.2 12.6 C 90.7 12.8 91 13.2 91 13.7 C 91 14.5 90.3 15.1 89.4 15.1 C 88.4 15.1 87.8 14.5 87.8 13.7 Z M 88.5 13.7 C 88.5 14.2 88.9 14.5 89.4 14.5 C 89.9 14.5 90.3 14.2 90.3 13.7 C 90.3 13.2 89.9 12.9 89.4 12.9 C 88.9 12.9 88.5 13.2 88.5 13.7 Z M 88.6 11.6 C 88.6 12 89 12.3 89.4 12.3 C 89.8 12.3 90.2 12 90.2 11.6 C 90.2 11.1 89.8 10.9 89.4 10.9 C 89 10.9 88.6 11.1 88.6 11.6 Z " stroke="none" fill="#535a5d"/>  </g>  <g id="Polygon42099">    <path d="M 53.7 5.2 C 54.1 5.2 54.5 5.1 54.9 4.8 C 54.9 4.8 55.5 5.5 55.5 5.5 C 54.9 5.9 54.3 6.1 53.7 6.1 C 52 6.1 50.7 4.9 50.7 3.2 C 50.7 1.6 52 0.3 53.7 0.3 C 54.3 0.3 54.8 0.5 55.3 0.8 C 55.3 0.8 54.9 1.6 54.9 1.6 C 54.5 1.3 54.1 1.2 53.7 1.2 C 52.6 1.2 51.7 2 51.7 3.2 C 51.7 4.4 52.5 5.2 53.7 5.2 Z M 56.7 6 L 56.7 0.4 L 57.7 0.4 L 57.7 6 L 56.7 6 Z M 62.9 6 L 62.2 6 L 60.5 1.6 L 60.5 6 L 59.5 6 L 59.5 0.4 L 61 0.4 L 62.6 4.5 L 64.2 0.4 L 65.7 0.4 L 65.7 6 L 64.7 6 L 64.7 1.6 L 62.9 6 Z M 69.1 0.4 L 70 0.4 L 72.1 6 L 70.9 6 L 70.6 4.9 L 68.4 4.9 L 68 6 L 66.9 6 L 69.1 0.4 Z M 68.7 4.1 L 70.3 4.1 L 69.5 1.9 L 69.5 1.9 L 68.7 4.1 Z M 75 0.4 C 75.9 0.4 77 0.9 77 2 C 77 3 76.4 3.4 75.7 3.6 C 75.75 3.62 77.5 6 77.5 6 L 76.3 6 L 74.7 3.7 L 74.3 3.7 L 74.3 6 L 73.3 6 L 73.3 0.4 C 73.3 0.4 75.04 0.4 75 0.4 Z M 74.9 2.9 C 75.5 2.9 76 2.6 76 2.1 C 76 1.6 75.6 1.2 75 1.2 C 75.01 1.25 74.3 1.2 74.3 1.2 L 74.3 2.9 C 74.3 2.9 74.85 2.86 74.9 2.9 Z M 81.1 1.2 C 80.1 1.2 79.3 2.1 79.3 3.2 C 79.3 4.3 80.1 5.2 81.1 5.2 C 82.2 5.2 83 4.3 83 3.2 C 83 2.1 82.2 1.2 81.1 1.2 Z M 81.1 6.1 C 79.5 6.1 78.2 4.8 78.2 3.2 C 78.2 1.6 79.5 0.3 81.1 0.3 C 82.8 0.3 84 1.6 84 3.2 C 84 4.8 82.8 6.1 81.1 6.1 Z M 87.1 1.2 C 86.7 1.2 86.3 1.4 86.3 1.8 C 86.3 2.3 86.9 2.4 87.3 2.6 C 88.1 2.9 89.1 3.2 89.1 4.4 C 89.1 5.6 87.9 6.1 87 6.1 C 86.2 6.1 85.5 5.8 84.9 5.2 C 84.9 5.2 85.6 4.6 85.6 4.6 C 86.1 5 86.4 5.2 87 5.2 C 87.5 5.2 88 5 88 4.4 C 88 3.9 87.4 3.7 86.9 3.5 C 86.1 3.2 85.3 2.8 85.3 1.9 C 85.3 0.8 86.2 0.3 87.1 0.3 C 87.8 0.3 88.3 0.5 88.9 0.9 C 88.9 0.9 88.3 1.6 88.3 1.6 C 88 1.4 87.6 1.2 87.1 1.2 Z M 92.4 1.2 C 91.9 1.2 91.6 1.4 91.6 1.8 C 91.6 2.3 92.1 2.4 92.6 2.6 C 93.4 2.9 94.3 3.2 94.3 4.4 C 94.3 5.6 93.2 6.1 92.3 6.1 C 91.4 6.1 90.8 5.8 90.2 5.2 C 90.2 5.2 90.9 4.6 90.9 4.6 C 91.3 5 91.7 5.2 92.3 5.2 C 92.8 5.2 93.3 5 93.3 4.4 C 93.3 3.9 92.7 3.7 92.1 3.5 C 91.4 3.2 90.6 2.8 90.6 1.9 C 90.6 0.8 91.4 0.3 92.3 0.3 C 93 0.3 93.6 0.5 94.2 0.9 C 94.2 0.9 93.6 1.6 93.6 1.6 C 93.3 1.4 92.8 1.2 92.4 1.2 Z M 95.8 6 L 95.8 0.4 L 99.3 0.4 L 99.3 1.2 L 96.8 1.2 L 96.8 2.7 L 99.3 2.7 L 99.3 3.5 L 96.8 3.5 L 96.8 5.2 L 99.3 5.2 L 99.3 6 L 95.8 6 Z " stroke="none" fill="#535a5d"/>  </g></svg>