<?xml version="1.0" standalone="no"?><!DOCTYPE svg PUBLIC "-//W3C//DTD SVG 1.1//EN" "http://www.w3.org/Graphics/SVG/1.1/DTD/svg11.dtd"><svg xmlns="http://www.w3.org/2000/svg" version="1.1" width="150px" height="23.8px" viewBox="0 -4 150 23.8" style="top:-4px">  <desc>Oslember A3000198</desc>  <defs/>  <g id="Polygon41066">    <path d="M 62.4 15 L 62 14 L 59.9 14 L 59.6 15 L 58.8 15 L 60.7 10.1 L 61.3 10.1 L 63.2 15 L 62.4 15 Z M 60.2 13.4 L 61.8 13.4 L 61 11.1 L 61 11.1 L 60.2 13.4 Z M 64.7 12.3 C 65 12.3 65.2 12.3 65.4 12.2 C 65.7 12.1 66 11.9 66 11.5 C 66 11.1 65.7 10.9 65.2 10.9 C 64.9 10.9 64.6 11 64.5 11.4 C 64.5 11.4 63.9 11.1 63.9 11.1 C 64.1 10.6 64.6 10.3 65.2 10.3 C 66.1 10.3 66.7 10.8 66.7 11.5 C 66.7 11.9 66.4 12.3 66.1 12.5 C 66.6 12.7 66.9 13.1 66.9 13.6 C 66.9 14.6 66.2 15.1 65.4 15.1 C 64.8 15.1 64.2 14.8 63.9 14.3 C 63.9 14.3 64.4 14 64.4 14 C 64.6 14.4 64.9 14.5 65.3 14.5 C 65.8 14.5 66.2 14.2 66.2 13.7 C 66.2 13.2 65.8 12.9 65.2 12.9 C 65.1 12.9 64.9 12.9 64.7 13 C 64.7 13 64.7 12.3 64.7 12.3 Z M 71.3 12.7 C 71.3 14.2 70.7 15.1 69.6 15.1 C 68.6 15.1 68 14.2 68 12.7 C 68 11.2 68.6 10.3 69.6 10.3 C 70.7 10.3 71.3 11.2 71.3 12.7 Z M 68.7 12.7 C 68.7 13.9 69 14.5 69.6 14.5 C 70.2 14.5 70.6 13.9 70.6 12.7 C 70.6 11.5 70.2 10.9 69.6 10.9 C 69 10.9 68.7 11.5 68.7 12.7 Z M 75.6 12.7 C 75.6 14.2 75 15.1 73.9 15.1 C 72.9 15.1 72.3 14.2 72.3 12.7 C 72.3 11.2 72.9 10.3 73.9 10.3 C 75 10.3 75.6 11.2 75.6 12.7 Z M 73 12.7 C 73 13.9 73.3 14.5 73.9 14.5 C 74.5 14.5 74.9 13.9 74.9 12.7 C 74.9 11.5 74.5 10.9 73.9 10.9 C 73.3 10.9 73 11.5 73 12.7 Z M 79.9 12.7 C 79.9 14.2 79.3 15.1 78.2 15.1 C 77.2 15.1 76.6 14.2 76.6 12.7 C 76.6 11.2 77.2 10.3 78.2 10.3 C 79.3 10.3 79.9 11.2 79.9 12.7 Z M 77.3 12.7 C 77.3 13.9 77.6 14.5 78.2 14.5 C 78.9 14.5 79.2 13.9 79.2 12.7 C 79.2 11.5 78.9 10.9 78.2 10.9 C 77.6 10.9 77.3 11.5 77.3 12.7 Z M 81.6 15 C 81.6 15 81.59 11.15 81.6 11.1 C 81.4 11.3 81.1 11.4 80.9 11.5 C 80.9 11.5 80.9 10.8 80.9 10.8 C 81.2 10.7 81.5 10.5 81.8 10.4 C 81.83 10.35 82.3 10.4 82.3 10.4 L 82.3 15 L 81.6 15 Z M 84.2 14.7 C 85 14.3 85.7 13.8 86 12.9 C 85.7 13.1 85.3 13.3 84.9 13.3 C 84.1 13.3 83.5 12.6 83.5 11.8 C 83.5 10.9 84.2 10.3 85 10.3 C 86.1 10.3 86.7 11.1 86.7 12.1 C 86.7 13.6 85.7 14.7 84.4 15.3 C 84.4 15.3 84.2 14.7 84.2 14.7 Z M 86.1 12.1 C 86.1 11.5 85.8 10.9 85.1 10.9 C 84.5 10.9 84.2 11.3 84.2 11.8 C 84.2 12.3 84.5 12.7 85.1 12.7 C 85.5 12.7 85.9 12.5 86.1 12.1 Z M 87.7 13.7 C 87.7 13.2 88 12.8 88.5 12.6 C 88.1 12.3 87.9 12 87.9 11.5 C 87.9 10.8 88.5 10.3 89.3 10.3 C 90.2 10.3 90.8 10.8 90.8 11.5 C 90.8 12 90.5 12.3 90.2 12.6 C 90.6 12.8 90.9 13.2 90.9 13.7 C 90.9 14.5 90.3 15.1 89.3 15.1 C 88.4 15.1 87.7 14.5 87.7 13.7 Z M 88.4 13.7 C 88.4 14.2 88.8 14.5 89.3 14.5 C 89.8 14.5 90.2 14.2 90.2 13.7 C 90.2 13.2 89.8 12.9 89.3 12.9 C 88.8 12.9 88.4 13.2 88.4 13.7 Z M 88.5 11.6 C 88.5 12 88.9 12.3 89.3 12.3 C 89.7 12.3 90.1 12 90.1 11.6 C 90.1 11.1 89.7 10.9 89.3 10.9 C 88.9 10.9 88.5 11.1 88.5 11.6 Z " stroke="none" fill="#535a5d"/>  </g>  <g id="Polygon41065">    <path d="M 55.9 1.2 C 54.8 1.2 54.1 2.1 54.1 3.2 C 54.1 4.3 54.8 5.2 55.9 5.2 C 57 5.2 57.8 4.3 57.8 3.2 C 57.8 2.1 57 1.2 55.9 1.2 Z M 55.9 6.1 C 54.3 6.1 53 4.8 53 3.2 C 53 1.6 54.3 0.3 55.9 0.3 C 57.6 0.3 58.8 1.6 58.8 3.2 C 58.8 4.8 57.6 6.1 55.9 6.1 Z M 61.9 1.2 C 61.5 1.2 61.1 1.4 61.1 1.8 C 61.1 2.3 61.6 2.4 62.1 2.6 C 62.9 2.9 63.8 3.2 63.8 4.4 C 63.8 5.6 62.7 6.1 61.8 6.1 C 60.9 6.1 60.3 5.8 59.7 5.2 C 59.7 5.2 60.4 4.6 60.4 4.6 C 60.9 5 61.2 5.2 61.8 5.2 C 62.3 5.2 62.8 5 62.8 4.4 C 62.8 3.9 62.2 3.7 61.6 3.5 C 60.9 3.2 60.1 2.8 60.1 1.9 C 60.1 0.8 60.9 0.3 61.9 0.3 C 62.6 0.3 63.1 0.5 63.7 0.9 C 63.7 0.9 63.1 1.6 63.1 1.6 C 62.8 1.4 62.4 1.2 61.9 1.2 Z M 65.3 6 L 65.3 0.4 L 66.3 0.4 L 66.3 5.2 L 68.6 5.2 L 68.6 6 L 65.3 6 Z M 69.7 6 L 69.7 0.4 L 73.2 0.4 L 73.2 1.2 L 70.7 1.2 L 70.7 2.7 L 73.2 2.7 L 73.2 3.5 L 70.7 3.5 L 70.7 5.2 L 73.2 5.2 L 73.2 6 L 69.7 6 Z M 78.2 6 L 77.5 6 L 75.8 1.6 L 75.8 6 L 74.8 6 L 74.8 0.4 L 76.3 0.4 L 77.9 4.5 L 79.5 0.4 L 81 0.4 L 81 6 L 80 6 L 80 1.6 L 78.2 6 Z M 82.7 0.4 C 82.7 0.4 84.15 0.4 84.1 0.4 C 84.7 0.4 85.2 0.5 85.7 0.8 C 86.1 1 86.3 1.5 86.3 2 C 86.3 2.4 86 2.8 85.5 3.1 C 86.1 3.3 86.5 3.7 86.5 4.4 C 86.5 5 86.1 5.5 85.5 5.8 C 85.1 6 84.6 6 84.1 6 C 84.08 6 82.7 6 82.7 6 L 82.7 0.4 Z M 83.7 5.2 C 83.7 5.2 84.06 5.15 84.1 5.2 C 84.5 5.2 84.8 5.1 85.1 5 C 85.3 4.9 85.5 4.7 85.5 4.4 C 85.5 3.9 85.1 3.5 84.5 3.5 C 84.48 3.54 83.7 3.5 83.7 3.5 L 83.7 5.2 Z M 83.7 2.7 C 83.7 2.7 84.13 2.74 84.1 2.7 C 84.9 2.7 85.3 2.5 85.3 2 C 85.3 1.7 85.2 1.5 85 1.4 C 84.8 1.3 84.4 1.2 84 1.2 C 84.01 1.25 83.7 1.2 83.7 1.2 L 83.7 2.7 Z M 88.1 6 L 88.1 0.4 L 91.6 0.4 L 91.6 1.2 L 89.1 1.2 L 89.1 2.7 L 91.6 2.7 L 91.6 3.5 L 89.1 3.5 L 89.1 5.2 L 91.6 5.2 L 91.6 6 L 88.1 6 Z M 94.8 0.4 C 95.7 0.4 96.8 0.9 96.8 2 C 96.8 3 96.2 3.4 95.5 3.6 C 95.54 3.62 97.3 6 97.3 6 L 96 6 L 94.4 3.7 L 94.1 3.7 L 94.1 6 L 93.1 6 L 93.1 0.4 C 93.1 0.4 94.83 0.4 94.8 0.4 Z M 94.6 2.9 C 95.3 2.9 95.8 2.6 95.8 2.1 C 95.8 1.6 95.4 1.2 94.8 1.2 C 94.8 1.25 94.1 1.2 94.1 1.2 L 94.1 2.9 C 94.1 2.9 94.64 2.86 94.6 2.9 Z " stroke="none" fill="#535a5d"/>  </g></svg>