<?xml version="1.0" standalone="no"?><!DOCTYPE svg PUBLIC "-//W3C//DTD SVG 1.1//EN" "http://www.w3.org/Graphics/SVG/1.1/DTD/svg11.dtd"><svg xmlns="http://www.w3.org/2000/svg" version="1.1" width="114.1px" height="23.8px" viewBox="0 -4 114.1 23.8" style="top:-4px">  <desc>Gloriann A3000106</desc>  <defs/>  <g id="Polygon41894">    <path d="M 44.4 15 L 44 14 L 42 14 L 41.6 15 L 40.8 15 L 42.7 10.1 L 43.3 10.1 L 45.2 15 L 44.4 15 Z M 42.2 13.4 L 43.8 13.4 L 43 11.1 L 43 11.1 L 42.2 13.4 Z M 46.7 12.3 C 47 12.3 47.2 12.3 47.4 12.2 C 47.8 12.1 48 11.9 48 11.5 C 48 11.1 47.7 10.9 47.3 10.9 C 46.9 10.9 46.6 11 46.5 11.4 C 46.5 11.4 45.9 11.1 45.9 11.1 C 46.1 10.6 46.6 10.3 47.3 10.3 C 48.1 10.3 48.7 10.8 48.7 11.5 C 48.7 11.9 48.5 12.3 48.1 12.5 C 48.6 12.7 48.9 13.1 48.9 13.6 C 48.9 14.6 48.2 15.1 47.4 15.1 C 46.8 15.1 46.2 14.8 45.9 14.3 C 45.9 14.3 46.4 14 46.4 14 C 46.6 14.4 47 14.5 47.3 14.5 C 47.8 14.5 48.3 14.2 48.3 13.7 C 48.3 13.2 47.8 12.9 47.3 12.9 C 47.1 12.9 47 12.9 46.7 13 C 46.7 13 46.7 12.3 46.7 12.3 Z M 53.3 12.7 C 53.3 14.2 52.7 15.1 51.7 15.1 C 50.6 15.1 50 14.2 50 12.7 C 50 11.2 50.6 10.3 51.7 10.3 C 52.7 10.3 53.3 11.2 53.3 12.7 Z M 50.7 12.7 C 50.7 13.9 51 14.5 51.7 14.5 C 52.3 14.5 52.6 13.9 52.6 12.7 C 52.6 11.5 52.3 10.9 51.7 10.9 C 51 10.9 50.7 11.5 50.7 12.7 Z M 57.6 12.7 C 57.6 14.2 57 15.1 56 15.1 C 54.9 15.1 54.3 14.2 54.3 12.7 C 54.3 11.2 54.9 10.3 56 10.3 C 57 10.3 57.6 11.2 57.6 12.7 Z M 55 12.7 C 55 13.9 55.3 14.5 56 14.5 C 56.6 14.5 56.9 13.9 56.9 12.7 C 56.9 11.5 56.6 10.9 56 10.9 C 55.3 10.9 55 11.5 55 12.7 Z M 61.9 12.7 C 61.9 14.2 61.3 15.1 60.3 15.1 C 59.2 15.1 58.6 14.2 58.6 12.7 C 58.6 11.2 59.2 10.3 60.3 10.3 C 61.3 10.3 61.9 11.2 61.9 12.7 Z M 59.3 12.7 C 59.3 13.9 59.7 14.5 60.3 14.5 C 60.9 14.5 61.2 13.9 61.2 12.7 C 61.2 11.5 60.9 10.9 60.3 10.9 C 59.7 10.9 59.3 11.5 59.3 12.7 Z M 63.6 15 C 63.6 15 63.63 11.15 63.6 11.1 C 63.4 11.3 63.1 11.4 62.9 11.5 C 62.9 11.5 62.9 10.8 62.9 10.8 C 63.2 10.7 63.6 10.5 63.9 10.4 C 63.86 10.35 64.3 10.4 64.3 10.4 L 64.3 15 L 63.6 15 Z M 68.9 12.7 C 68.9 14.2 68.3 15.1 67.2 15.1 C 66.2 15.1 65.6 14.2 65.6 12.7 C 65.6 11.2 66.2 10.3 67.2 10.3 C 68.3 10.3 68.9 11.2 68.9 12.7 Z M 66.3 12.7 C 66.3 13.9 66.6 14.5 67.2 14.5 C 67.8 14.5 68.2 13.9 68.2 12.7 C 68.2 11.5 67.8 10.9 67.2 10.9 C 66.6 10.9 66.3 11.5 66.3 12.7 Z M 72.4 10.7 C 71.6 11.1 70.9 11.6 70.6 12.5 C 70.9 12.2 71.3 12.1 71.7 12.1 C 72.5 12.1 73.1 12.7 73.1 13.6 C 73.1 14.4 72.4 15.1 71.6 15.1 C 70.5 15.1 69.9 14.2 69.9 13.2 C 69.9 11.7 70.9 10.6 72.2 10.1 C 72.2 10.1 72.4 10.7 72.4 10.7 Z M 70.5 13.2 C 70.5 13.9 70.8 14.5 71.5 14.5 C 72.1 14.5 72.4 14.1 72.4 13.5 C 72.4 13 72.1 12.6 71.6 12.6 C 71.1 12.6 70.7 12.9 70.5 13.2 Z " stroke="none" fill="#535a5d"/>  </g>  <g id="Polygon41893">    <path d="M 38.2 3.7 L 38.2 2.8 L 40.6 2.8 C 40.6 2.8 40.6 4.98 40.6 5 C 40 5.7 39.2 6.1 38.2 6.1 C 36.5 6.1 35.2 4.9 35.2 3.2 C 35.2 1.6 36.6 0.3 38.2 0.3 C 39.1 0.3 39.9 0.7 40.5 1.4 C 40.5 1.4 39.8 2 39.8 2 C 39.4 1.5 38.9 1.2 38.2 1.2 C 37.1 1.2 36.3 2 36.3 3.2 C 36.3 4.4 37.1 5.2 38.2 5.2 C 38.7 5.2 39.2 5 39.6 4.7 C 39.6 4.68 39.6 3.7 39.6 3.7 L 38.2 3.7 Z M 42.2 6 L 42.2 0.4 L 43.2 0.4 L 43.2 5.2 L 45.6 5.2 L 45.6 6 L 42.2 6 Z M 49.1 1.2 C 48 1.2 47.3 2.1 47.3 3.2 C 47.3 4.3 48 5.2 49.1 5.2 C 50.2 5.2 51 4.3 51 3.2 C 51 2.1 50.2 1.2 49.1 1.2 Z M 49.1 6.1 C 47.5 6.1 46.2 4.8 46.2 3.2 C 46.2 1.6 47.5 0.3 49.1 0.3 C 50.8 0.3 52 1.6 52 3.2 C 52 4.8 50.8 6.1 49.1 6.1 Z M 55.3 0.4 C 56.2 0.4 57.3 0.9 57.3 2 C 57.3 3 56.6 3.4 56 3.6 C 55.98 3.62 57.7 6 57.7 6 L 56.5 6 L 54.9 3.7 L 54.5 3.7 L 54.5 6 L 53.5 6 L 53.5 0.4 C 53.5 0.4 55.27 0.4 55.3 0.4 Z M 55.1 2.9 C 55.7 2.9 56.2 2.6 56.2 2.1 C 56.2 1.6 55.8 1.2 55.2 1.2 C 55.24 1.25 54.5 1.2 54.5 1.2 L 54.5 2.9 C 54.5 2.9 55.08 2.86 55.1 2.9 Z M 58.9 6 L 58.9 0.4 L 59.9 0.4 L 59.9 6 L 58.9 6 Z M 63.4 0.4 L 64.2 0.4 L 66.3 6 L 65.2 6 L 64.8 4.9 L 62.7 4.9 L 62.3 6 L 61.2 6 L 63.4 0.4 Z M 63 4.1 L 64.5 4.1 L 63.7 1.9 L 63.7 1.9 L 63 4.1 Z M 71.3 6 L 68.6 2.2 L 68.6 6 L 67.6 6 L 67.6 0.4 L 68.4 0.4 L 71.2 4.2 L 71.2 0.4 L 72.2 0.4 L 72.2 6 L 71.3 6 Z M 77.7 6 L 75 2.2 L 75 6 L 74 6 L 74 0.4 L 74.8 0.4 L 77.6 4.2 L 77.6 0.4 L 78.6 0.4 L 78.6 6 L 77.7 6 Z " stroke="none" fill="#535a5d"/>  </g></svg>