<?xml version="1.0" standalone="no"?><!DOCTYPE svg PUBLIC "-//W3C//DTD SVG 1.1//EN" "http://www.w3.org/Graphics/SVG/1.1/DTD/svg11.dtd"><svg xmlns="http://www.w3.org/2000/svg" version="1.1" width="105.4px" height="78px" viewBox="0 -1 105.4 78" style="top:-1px">  <desc>Complete the look - with cozy poufs and pillows from our huge selection</desc>  <defs/>  <g id="Polygon39577">    <path d="M 10.3 58 C 10.2 57.9 10 57.9 9.8 57.9 C 9.6 57.9 9.5 57.9 9.4 58 C 9.2 58.1 9.1 58.4 9.1 58.8 C 9.15 58.77 9.1 59.3 9.1 59.3 L 10.2 59.3 L 10.2 59.9 L 9.1 59.9 L 9.1 63.3 L 8.4 63.3 L 8.4 59.9 L 8 59.9 L 8 59.3 L 8.4 59.3 C 8.4 59.3 8.42 58.7 8.4 58.7 C 8.4 58.3 8.5 57.9 8.7 57.7 C 8.9 57.4 9.2 57.2 9.7 57.2 C 10 57.2 10.3 57.3 10.5 57.4 C 10.5 57.4 10.3 58 10.3 58 Z M 11.7 59.9 C 11.9 59.5 12.3 59.2 12.7 59.2 C 12.9 59.2 13 59.2 13.2 59.2 C 13.2 59.2 13 60 13 60 C 12.9 59.9 12.8 59.9 12.6 59.9 C 12.2 59.9 11.9 60.2 11.7 60.6 C 11.69 60.6 11.7 63.3 11.7 63.3 L 11 63.3 L 11 59.3 L 11.7 59.3 C 11.7 59.3 11.69 59.94 11.7 59.9 Z M 17.6 61.3 C 17.6 62.4 16.7 63.4 15.5 63.4 C 14.4 63.4 13.5 62.4 13.5 61.3 C 13.5 60.1 14.4 59.2 15.5 59.2 C 16.7 59.2 17.6 60.1 17.6 61.3 Z M 15.5 59.9 C 14.8 59.9 14.2 60.5 14.2 61.3 C 14.2 62.1 14.8 62.7 15.5 62.7 C 16.3 62.7 16.8 62.1 16.8 61.3 C 16.8 60.5 16.3 59.9 15.5 59.9 Z M 23.9 63.3 C 23.9 63.3 23.9 61.28 23.9 61.3 C 23.9 60.9 23.9 60.5 23.7 60.2 C 23.6 60 23.4 59.9 23 59.9 C 22.6 59.9 22.2 60.1 21.9 60.5 C 21.9 60.7 22 61 22 61.2 C 21.96 61.2 22 63.3 22 63.3 L 21.2 63.3 C 21.2 63.3 21.24 61.28 21.2 61.3 C 21.2 60.9 21.2 60.4 21 60.1 C 20.9 60 20.7 59.9 20.4 59.9 C 20 59.9 19.6 60.2 19.3 60.6 C 19.3 60.59 19.3 63.3 19.3 63.3 L 18.6 63.3 L 18.6 59.3 L 19.3 59.3 C 19.3 59.3 19.3 59.88 19.3 59.9 C 19.6 59.5 20.1 59.2 20.6 59.2 C 21 59.2 21.4 59.3 21.7 59.7 C 21.7 59.8 21.7 59.9 21.8 59.9 C 22.1 59.4 22.6 59.2 23.2 59.2 C 23.7 59.2 24 59.4 24.3 59.7 C 24.5 60 24.6 60.6 24.6 61.2 C 24.63 61.2 24.6 63.3 24.6 63.3 L 23.9 63.3 Z M 31.7 61.3 C 31.7 62.4 30.8 63.4 29.6 63.4 C 28.5 63.4 27.6 62.4 27.6 61.3 C 27.6 60.1 28.5 59.2 29.6 59.2 C 30.8 59.2 31.7 60.1 31.7 61.3 Z M 29.6 59.9 C 28.9 59.9 28.3 60.5 28.3 61.3 C 28.3 62.1 28.9 62.7 29.6 62.7 C 30.4 62.7 30.9 62.1 30.9 61.3 C 30.9 60.5 30.4 59.9 29.6 59.9 Z M 35.5 62.6 C 35.2 63.1 34.7 63.4 34.1 63.4 C 33.6 63.4 33.2 63.2 33 62.9 C 32.7 62.5 32.6 62 32.6 61.4 C 32.63 61.36 32.6 59.3 32.6 59.3 L 33.4 59.3 C 33.4 59.3 33.36 61.28 33.4 61.3 C 33.4 61.7 33.4 62.1 33.6 62.4 C 33.7 62.6 33.9 62.7 34.3 62.7 C 34.7 62.7 35.2 62.4 35.5 61.9 C 35.45 61.93 35.5 59.3 35.5 59.3 L 36.2 59.3 L 36.2 63.3 L 35.5 63.3 C 35.5 63.3 35.45 62.62 35.5 62.6 Z M 38.3 59.9 C 38.5 59.5 38.9 59.2 39.3 59.2 C 39.5 59.2 39.6 59.2 39.7 59.2 C 39.7 59.2 39.6 60 39.6 60 C 39.5 59.9 39.4 59.9 39.2 59.9 C 38.8 59.9 38.5 60.2 38.3 60.6 C 38.25 60.6 38.3 63.3 38.3 63.3 L 37.5 63.3 L 37.5 59.3 L 38.3 59.3 C 38.3 59.3 38.25 59.94 38.3 59.9 Z M 43.1 59.9 C 43.4 59.5 43.9 59.2 44.4 59.2 C 45 59.2 45.3 59.4 45.6 59.7 C 45.8 60.1 45.9 60.6 45.9 61.2 C 45.93 61.2 45.9 63.3 45.9 63.3 L 45.2 63.3 C 45.2 63.3 45.2 61.28 45.2 61.3 C 45.2 60.9 45.2 60.5 45 60.2 C 44.9 60 44.7 59.9 44.3 59.9 C 43.8 59.9 43.4 60.2 43.1 60.6 C 43.11 60.62 43.1 63.3 43.1 63.3 L 42.4 63.3 L 42.4 57.3 L 43.1 57.3 C 43.1 57.3 43.11 59.93 43.1 59.9 Z M 50 62.6 C 49.7 63.1 49.2 63.4 48.7 63.4 C 48.1 63.4 47.8 63.2 47.5 62.9 C 47.3 62.5 47.2 62 47.2 61.4 C 47.18 61.36 47.2 59.3 47.2 59.3 L 47.9 59.3 C 47.9 59.3 47.91 61.28 47.9 61.3 C 47.9 61.7 47.9 62.1 48.1 62.4 C 48.2 62.6 48.5 62.7 48.8 62.7 C 49.3 62.7 49.7 62.4 50 61.9 C 50 61.93 50 59.3 50 59.3 L 50.7 59.3 L 50.7 63.3 L 50 63.3 C 50 63.3 50 62.62 50 62.6 Z M 55.7 63.1 C 55.7 63.5 55.7 63.8 55.5 64.1 C 55.2 64.8 54.5 65.1 53.7 65.1 C 53.1 65.1 52.4 64.9 52 64.5 C 52 64.5 52.2 63.9 52.2 63.9 C 52.6 64.2 53.2 64.4 53.7 64.4 C 54.4 64.4 55 64.1 55 63.2 C 55 63.2 55 62.6 55 62.6 C 54.7 63.1 54.2 63.3 53.7 63.3 C 52.6 63.3 51.7 62.4 51.7 61.2 C 51.7 60.2 52.5 59.2 53.8 59.2 C 54.2 59.2 54.7 59.4 55 59.7 C 55.01 59.72 55 59.3 55 59.3 L 55.7 59.3 C 55.7 59.3 55.74 63.05 55.7 63.1 Z M 55 60.5 C 54.7 60.1 54.3 59.9 53.9 59.9 C 52.9 59.9 52.5 60.6 52.5 61.2 C 52.5 62 53 62.6 53.8 62.6 C 54.3 62.6 54.8 62.3 55 61.9 C 55 61.9 55 60.5 55 60.5 Z M 57.4 61.5 C 57.5 62.1 57.9 62.7 58.7 62.7 C 59.2 62.7 59.7 62.6 59.9 62.1 C 59.9 62.1 60.4 62.4 60.4 62.4 C 60 63.1 59.5 63.4 58.7 63.4 C 57.4 63.4 56.7 62.4 56.7 61.3 C 56.7 60.1 57.6 59.2 58.7 59.2 C 59.7 59.2 60.5 60 60.5 61 C 60.5 61.2 60.5 61.4 60.5 61.5 C 60.5 61.5 57.4 61.5 57.4 61.5 Z M 57.5 60.9 C 57.5 60.9 59.8 60.9 59.8 60.9 C 59.7 60.3 59.3 59.8 58.7 59.8 C 58 59.8 57.6 60.3 57.5 60.9 Z M 65.5 60.1 C 65.3 59.9 64.9 59.8 64.7 59.8 C 64.3 59.8 64.1 60 64.1 60.3 C 64.1 60.6 64.5 60.8 64.8 60.9 C 65.4 61.1 66 61.4 66 62.1 C 66 63 65.3 63.4 64.6 63.4 C 64 63.4 63.5 63.2 63.2 62.7 C 63.2 62.7 63.7 62.3 63.7 62.3 C 64 62.6 64.3 62.8 64.6 62.8 C 65 62.8 65.3 62.6 65.3 62.1 C 65.3 61.8 64.9 61.7 64.5 61.5 C 64 61.3 63.4 61.1 63.4 60.4 C 63.4 59.6 64 59.2 64.7 59.2 C 65.1 59.2 65.6 59.3 65.9 59.6 C 65.9 59.6 65.5 60.1 65.5 60.1 Z M 67.5 61.5 C 67.6 62.1 68 62.7 68.8 62.7 C 69.3 62.7 69.8 62.6 70 62.1 C 70 62.1 70.5 62.4 70.5 62.4 C 70.1 63.1 69.6 63.4 68.8 63.4 C 67.5 63.4 66.8 62.4 66.8 61.3 C 66.8 60.1 67.7 59.2 68.8 59.2 C 69.8 59.2 70.6 60 70.6 61 C 70.6 61.2 70.6 61.4 70.6 61.5 C 70.6 61.5 67.5 61.5 67.5 61.5 Z M 67.6 60.9 C 67.6 60.9 69.8 60.9 69.8 60.9 C 69.8 60.3 69.4 59.8 68.8 59.8 C 68.1 59.8 67.7 60.3 67.6 60.9 Z M 72.3 63.3 L 71.6 63.3 L 71.6 57.3 L 72.3 57.3 L 72.3 63.3 Z M 74.1 61.5 C 74.1 62.1 74.6 62.7 75.4 62.7 C 75.9 62.7 76.3 62.6 76.5 62.1 C 76.5 62.1 77.1 62.4 77.1 62.4 C 76.7 63.1 76.1 63.4 75.3 63.4 C 74.1 63.4 73.3 62.4 73.3 61.3 C 73.3 60.1 74.2 59.2 75.3 59.2 C 76.4 59.2 77.1 60 77.1 61 C 77.1 61.2 77.1 61.4 77.1 61.5 C 77.1 61.5 74.1 61.5 74.1 61.5 Z M 74.1 60.9 C 74.1 60.9 76.4 60.9 76.4 60.9 C 76.4 60.3 75.9 59.8 75.3 59.8 C 74.7 59.8 74.3 60.3 74.1 60.9 Z M 81.1 63 C 80.8 63.2 80.3 63.4 79.9 63.4 C 78.7 63.4 77.8 62.5 77.8 61.3 C 77.8 60.1 78.7 59.2 79.9 59.2 C 80.3 59.2 80.7 59.3 81 59.5 C 81 59.5 80.7 60.1 80.7 60.1 C 80.5 60 80.2 59.9 79.9 59.9 C 79.2 59.9 78.6 60.5 78.6 61.3 C 78.6 62.1 79.2 62.7 79.9 62.7 C 80.1 62.7 80.5 62.6 80.7 62.4 C 80.7 62.4 81.1 63 81.1 63 Z M 82.8 59.9 C 82.8 59.9 82.84 61.72 82.8 61.7 C 82.8 61.8 82.8 61.9 82.9 62 C 82.9 62.5 83 62.7 83.4 62.7 C 83.6 62.7 83.7 62.7 83.9 62.6 C 83.9 62.6 84.1 63.2 84.1 63.2 C 83.9 63.3 83.6 63.4 83.3 63.4 C 82.8 63.4 82.4 63.1 82.2 62.7 C 82.1 62.5 82.1 62.2 82.1 61.9 C 82.12 61.9 82.1 59.9 82.1 59.9 L 81.6 59.9 L 81.6 59.3 L 82.1 59.3 L 82.1 58.3 L 82.8 58.3 L 82.8 59.3 L 84 59.3 L 84 59.9 L 82.8 59.9 Z M 84.8 63.3 L 84.8 59.3 L 85.6 59.3 L 85.6 63.3 L 84.8 63.3 Z M 84.8 58.5 L 84.8 57.7 L 85.6 57.7 L 85.6 58.5 L 84.8 58.5 Z M 90.7 61.3 C 90.7 62.4 89.8 63.4 88.6 63.4 C 87.5 63.4 86.6 62.4 86.6 61.3 C 86.6 60.1 87.5 59.2 88.6 59.2 C 89.8 59.2 90.7 60.1 90.7 61.3 Z M 88.6 59.9 C 87.9 59.9 87.3 60.5 87.3 61.3 C 87.3 62.1 87.9 62.7 88.6 62.7 C 89.4 62.7 89.9 62.1 89.9 61.3 C 89.9 60.5 89.4 59.9 88.6 59.9 Z M 92.4 59.3 C 92.4 59.3 92.39 59.93 92.4 59.9 C 92.7 59.5 93.2 59.2 93.7 59.2 C 94.3 59.2 94.6 59.4 94.9 59.7 C 95.1 60.1 95.2 60.6 95.2 61.2 C 95.22 61.2 95.2 63.3 95.2 63.3 L 94.5 63.3 C 94.5 63.3 94.49 61.28 94.5 61.3 C 94.5 60.9 94.5 60.5 94.3 60.2 C 94.2 60 93.9 59.9 93.6 59.9 C 93.1 59.9 92.7 60.2 92.4 60.6 C 92.39 60.62 92.4 63.3 92.4 63.3 L 91.7 63.3 L 91.7 59.3 L 92.4 59.3 Z M 96.4 63.3 L 96.4 62.3 L 97.3 62.3 L 97.3 63.3 L 96.4 63.3 Z " stroke="none" fill="#946822"/>  </g>  <g id="Polygon39576">    <path d="M 6.9 51.4 L 6.9 51.4 L 7.7 48.3 L 8.4 48.3 L 7.3 52.3 L 6.5 52.3 L 5.6 49.2 L 5.6 49.2 L 4.7 52.3 L 3.9 52.3 L 2.8 48.3 L 3.6 48.3 L 4.4 51.4 L 4.4 51.4 L 5.3 48.3 L 6 48.3 L 6.9 51.4 Z M 9.2 52.3 L 9.2 48.3 L 10 48.3 L 10 52.3 L 9.2 52.3 Z M 9.2 47.5 L 9.2 46.7 L 10 46.7 L 10 47.5 L 9.2 47.5 Z M 12.1 48.9 C 12.1 48.9 12.07 50.72 12.1 50.7 C 12.1 50.8 12.1 50.9 12.1 51 C 12.1 51.5 12.2 51.7 12.6 51.7 C 12.8 51.7 13 51.7 13.1 51.6 C 13.1 51.6 13.3 52.2 13.3 52.2 C 13.1 52.3 12.8 52.4 12.5 52.4 C 12 52.4 11.6 52.1 11.5 51.7 C 11.4 51.5 11.3 51.2 11.3 50.9 C 11.34 50.9 11.3 48.9 11.3 48.9 L 10.8 48.9 L 10.8 48.3 L 11.3 48.3 L 11.3 47.3 L 12.1 47.3 L 12.1 48.3 L 13.2 48.3 L 13.2 48.9 L 12.1 48.9 Z M 14.8 48.9 C 15.1 48.5 15.6 48.2 16.1 48.2 C 16.7 48.2 17 48.4 17.3 48.7 C 17.5 49.1 17.6 49.6 17.6 50.2 C 17.62 50.2 17.6 52.3 17.6 52.3 L 16.9 52.3 C 16.9 52.3 16.89 50.28 16.9 50.3 C 16.9 49.9 16.9 49.5 16.7 49.2 C 16.6 49 16.3 48.9 16 48.9 C 15.5 48.9 15.1 49.2 14.8 49.6 C 14.8 49.62 14.8 52.3 14.8 52.3 L 14.1 52.3 L 14.1 46.3 L 14.8 46.3 C 14.8 46.3 14.8 48.93 14.8 48.9 Z M 23.9 52 C 23.6 52.2 23.1 52.4 22.6 52.4 C 21.5 52.4 20.6 51.5 20.6 50.3 C 20.6 49.1 21.5 48.2 22.7 48.2 C 23.1 48.2 23.5 48.3 23.8 48.5 C 23.8 48.5 23.5 49.1 23.5 49.1 C 23.2 49 22.9 48.9 22.6 48.9 C 21.9 48.9 21.3 49.5 21.3 50.3 C 21.3 51.1 21.9 51.7 22.6 51.7 C 22.9 51.7 23.3 51.6 23.5 51.4 C 23.5 51.4 23.9 52 23.9 52 Z M 28.5 50.3 C 28.5 51.4 27.6 52.4 26.4 52.4 C 25.3 52.4 24.4 51.4 24.4 50.3 C 24.4 49.1 25.3 48.2 26.4 48.2 C 27.6 48.2 28.5 49.1 28.5 50.3 Z M 26.4 48.9 C 25.7 48.9 25.1 49.5 25.1 50.3 C 25.1 51.1 25.7 51.7 26.4 51.7 C 27.2 51.7 27.7 51.1 27.7 50.3 C 27.7 49.5 27.2 48.9 26.4 48.9 Z M 31 48.9 L 29.1 48.9 L 29.1 48.3 L 31.9 48.3 L 31.9 48.6 L 30.2 51.6 L 32.1 51.6 L 32.1 52.3 L 29.2 52.3 L 29.2 51.9 L 31 48.9 Z M 33.2 48.3 L 34.2 51.3 L 34.3 51.3 L 35.3 48.3 L 36.1 48.3 L 33.9 54.1 L 33.2 53.8 L 33.9 52.2 L 32.4 48.3 L 33.2 48.3 Z M 39.6 48.3 C 39.6 48.3 39.56 48.81 39.6 48.8 C 39.9 48.4 40.4 48.2 40.8 48.2 C 42 48.2 42.8 49.1 42.8 50.3 C 42.8 51.3 42 52.4 40.8 52.4 C 40.3 52.4 39.9 52.2 39.6 51.8 C 39.56 51.84 39.6 54.3 39.6 54.3 L 38.8 54.3 L 38.8 48.3 L 39.6 48.3 Z M 39.6 51.1 C 39.8 51.5 40.3 51.7 40.7 51.7 C 41.7 51.7 42.1 51 42.1 50.3 C 42.1 49.5 41.6 48.9 40.7 48.9 C 40.3 48.9 39.8 49.1 39.6 49.6 C 39.6 49.6 39.6 51.1 39.6 51.1 Z M 47.6 50.3 C 47.6 51.4 46.7 52.4 45.5 52.4 C 44.4 52.4 43.5 51.4 43.5 50.3 C 43.5 49.1 44.4 48.2 45.5 48.2 C 46.7 48.2 47.6 49.1 47.6 50.3 Z M 45.5 48.9 C 44.8 48.9 44.3 49.5 44.3 50.3 C 44.3 51.1 44.8 51.7 45.5 51.7 C 46.3 51.7 46.8 51.1 46.8 50.3 C 46.8 49.5 46.3 48.9 45.5 48.9 Z M 51.4 51.6 C 51.1 52.1 50.6 52.4 50.1 52.4 C 49.5 52.4 49.1 52.2 48.9 51.9 C 48.6 51.5 48.5 51 48.5 50.4 C 48.55 50.36 48.5 48.3 48.5 48.3 L 49.3 48.3 C 49.3 48.3 49.28 50.28 49.3 50.3 C 49.3 50.7 49.3 51.1 49.5 51.4 C 49.6 51.6 49.8 51.7 50.2 51.7 C 50.6 51.7 51.1 51.4 51.4 50.9 C 51.37 50.93 51.4 48.3 51.4 48.3 L 52.1 48.3 L 52.1 52.3 L 51.4 52.3 C 51.4 52.3 51.37 51.62 51.4 51.6 Z M 55.5 47 C 55.3 46.9 55.2 46.9 55 46.9 C 54.8 46.9 54.6 46.9 54.5 47 C 54.3 47.1 54.3 47.4 54.3 47.8 C 54.32 47.77 54.3 48.3 54.3 48.3 L 55.4 48.3 L 55.4 48.9 L 54.3 48.9 L 54.3 52.3 L 53.6 52.3 L 53.6 48.9 L 53.1 48.9 L 53.1 48.3 L 53.6 48.3 C 53.6 48.3 53.6 47.7 53.6 47.7 C 53.6 47.3 53.7 46.9 53.8 46.7 C 54 46.4 54.4 46.2 54.9 46.2 C 55.2 46.2 55.5 46.3 55.7 46.4 C 55.7 46.4 55.5 47 55.5 47 Z M 58.1 49.1 C 57.9 48.9 57.6 48.8 57.3 48.8 C 56.9 48.8 56.7 49 56.7 49.3 C 56.7 49.6 57.1 49.8 57.5 49.9 C 58 50.1 58.6 50.4 58.6 51.1 C 58.6 52 57.9 52.4 57.2 52.4 C 56.6 52.4 56.1 52.2 55.8 51.7 C 55.8 51.7 56.3 51.3 56.3 51.3 C 56.6 51.6 56.9 51.8 57.2 51.8 C 57.6 51.8 57.9 51.6 57.9 51.1 C 57.9 50.8 57.5 50.7 57.1 50.5 C 56.6 50.3 56 50.1 56 49.4 C 56 48.6 56.6 48.2 57.3 48.2 C 57.7 48.2 58.2 48.3 58.5 48.6 C 58.5 48.6 58.1 49.1 58.1 49.1 Z M 64.1 52.3 C 64.1 52.3 64.12 51.85 64.1 51.9 C 63.8 52.2 63.4 52.4 62.9 52.4 C 62.2 52.4 61.5 52 61.5 51.2 C 61.5 50.1 62.4 49.8 63.3 49.8 C 63.5 49.8 63.7 49.8 64.1 49.9 C 64.1 49.9 64.1 49.8 64.1 49.8 C 64.1 49.2 63.8 48.8 63.1 48.8 C 62.7 48.8 62.2 49 61.9 49.2 C 61.9 49.2 61.7 48.6 61.7 48.6 C 62.1 48.4 62.7 48.2 63.2 48.2 C 64.4 48.2 64.8 48.8 64.8 49.8 C 64.82 49.84 64.8 52.3 64.8 52.3 L 64.1 52.3 Z M 64.1 50.5 C 63.8 50.4 63.6 50.4 63.4 50.4 C 62.9 50.4 62.2 50.5 62.2 51.1 C 62.2 51.6 62.6 51.8 63 51.8 C 63.4 51.8 63.8 51.6 64.1 51.3 C 64.1 51.3 64.1 50.5 64.1 50.5 Z M 66.8 48.3 C 66.8 48.3 66.84 48.93 66.8 48.9 C 67.1 48.5 67.6 48.2 68.1 48.2 C 68.7 48.2 69.1 48.4 69.3 48.7 C 69.6 49.1 69.7 49.6 69.7 50.2 C 69.67 50.2 69.7 52.3 69.7 52.3 L 68.9 52.3 C 68.9 52.3 68.94 50.28 68.9 50.3 C 68.9 49.9 68.9 49.5 68.7 49.2 C 68.6 49 68.4 48.9 68 48.9 C 67.6 48.9 67.1 49.2 66.8 49.6 C 66.84 49.62 66.8 52.3 66.8 52.3 L 66.1 52.3 L 66.1 48.3 L 66.8 48.3 Z M 70.6 50.3 C 70.6 49.2 71.4 48.2 72.6 48.2 C 73.1 48.2 73.6 48.4 73.9 48.7 C 73.9 48.72 73.9 46.3 73.9 46.3 L 74.6 46.3 L 74.6 52.3 L 73.9 52.3 C 73.9 52.3 73.9 51.74 73.9 51.7 C 73.6 52.2 73.1 52.4 72.6 52.4 C 71.5 52.4 70.6 51.4 70.6 50.3 Z M 73.9 50.9 C 73.9 50.9 73.9 49.5 73.9 49.5 C 73.6 49.1 73.1 48.9 72.7 48.9 C 71.8 48.9 71.4 49.6 71.4 50.3 C 71.4 51 71.9 51.7 72.7 51.7 C 73.2 51.7 73.7 51.4 73.9 50.9 Z M 78.7 48.3 C 78.7 48.3 78.7 48.81 78.7 48.8 C 79 48.4 79.5 48.2 80 48.2 C 81.1 48.2 82 49.1 82 50.3 C 82 51.3 81.2 52.4 80 52.4 C 79.5 52.4 79 52.2 78.7 51.8 C 78.7 51.84 78.7 54.3 78.7 54.3 L 78 54.3 L 78 48.3 L 78.7 48.3 Z M 78.7 51.1 C 79 51.5 79.4 51.7 79.9 51.7 C 80.8 51.7 81.2 51 81.2 50.3 C 81.2 49.5 80.7 48.9 79.9 48.9 C 79.4 48.9 78.9 49.1 78.7 49.6 C 78.7 49.6 78.7 51.1 78.7 51.1 Z M 83 52.3 L 83 48.3 L 83.7 48.3 L 83.7 52.3 L 83 52.3 Z M 83 47.5 L 83 46.7 L 83.7 46.7 L 83.7 47.5 L 83 47.5 Z M 85.8 52.3 L 85.1 52.3 L 85.1 46.3 L 85.8 46.3 L 85.8 52.3 Z M 87.9 52.3 L 87.1 52.3 L 87.1 46.3 L 87.9 46.3 L 87.9 52.3 Z M 92.9 50.3 C 92.9 51.4 92.1 52.4 90.9 52.4 C 89.7 52.4 88.9 51.4 88.9 50.3 C 88.9 49.1 89.7 48.2 90.9 48.2 C 92.1 48.2 92.9 49.1 92.9 50.3 Z M 90.9 48.9 C 90.1 48.9 89.6 49.5 89.6 50.3 C 89.6 51.1 90.1 51.7 90.9 51.7 C 91.7 51.7 92.2 51.1 92.2 50.3 C 92.2 49.5 91.7 48.9 90.9 48.9 Z M 97.4 51.4 L 97.5 51.4 L 98.3 48.3 L 99 48.3 L 97.9 52.3 L 97.1 52.3 L 96.2 49.2 L 96.2 49.2 L 95.3 52.3 L 94.5 52.3 L 93.4 48.3 L 94.2 48.3 L 94.9 51.4 L 95 51.4 L 95.8 48.3 L 96.6 48.3 L 97.4 51.4 Z M 101.8 49.1 C 101.6 48.9 101.2 48.8 101 48.8 C 100.6 48.8 100.4 49 100.4 49.3 C 100.4 49.6 100.8 49.8 101.1 49.9 C 101.7 50.1 102.3 50.4 102.3 51.1 C 102.3 52 101.6 52.4 100.9 52.4 C 100.3 52.4 99.8 52.2 99.5 51.7 C 99.5 51.7 100 51.3 100 51.3 C 100.3 51.6 100.5 51.8 100.9 51.8 C 101.3 51.8 101.6 51.6 101.6 51.1 C 101.6 50.8 101.2 50.7 100.8 50.5 C 100.3 50.3 99.7 50.1 99.7 49.4 C 99.7 48.6 100.3 48.2 101 48.2 C 101.4 48.2 101.9 48.3 102.2 48.6 C 102.2 48.6 101.8 49.1 101.8 49.1 Z " stroke="none" fill="#946822"/>  </g>  <g id="Polygon39574">    <path d="M 39.4 30.3 L 39.4 23.3 L 40.4 23.3 L 40.4 29.3 L 43.4 29.3 L 43.4 30.3 L 39.4 30.3 Z M 47.6 24.1 C 46.2 24.1 45.2 25.3 45.2 26.8 C 45.2 28.3 46.2 29.4 47.6 29.4 C 49.1 29.4 50.1 28.3 50.1 26.8 C 50.1 25.3 49.1 24.1 47.6 24.1 Z M 47.6 30.4 C 45.6 30.4 44 28.8 44 26.8 C 44 24.8 45.6 23.2 47.6 23.2 C 49.7 23.2 51.3 24.8 51.3 26.8 C 51.3 28.8 49.7 30.4 47.6 30.4 Z M 56.3 24.1 C 54.8 24.1 53.8 25.3 53.8 26.8 C 53.8 28.3 54.8 29.4 56.3 29.4 C 57.7 29.4 58.8 28.3 58.8 26.8 C 58.8 25.3 57.7 24.1 56.3 24.1 Z M 56.3 30.4 C 54.2 30.4 52.7 28.8 52.7 26.8 C 52.7 24.8 54.2 23.2 56.3 23.2 C 58.3 23.2 59.9 24.8 59.9 26.8 C 59.9 28.8 58.3 30.4 56.3 30.4 Z M 64.5 26.1 L 66.9 30.3 L 65.7 30.3 L 63.7 26.9 L 62.7 28.2 L 62.7 30.3 L 61.6 30.3 L 61.6 23.3 L 62.7 23.3 L 62.7 26.7 L 65.5 23.3 L 66.8 23.3 L 64.5 26.1 Z " stroke="none" fill="#946822"/>  </g>  <g id="Polygon39573">    <path d="M 19.7 17.4 C 20.3 17.4 20.8 17.3 21.2 16.9 C 21.2 16.9 21.8 17.7 21.8 17.7 C 21.2 18.2 20.5 18.4 19.7 18.4 C 17.6 18.4 16 17 16 14.8 C 16 12.7 17.6 11.2 19.7 11.2 C 20.4 11.2 21.1 11.4 21.7 11.7 C 21.7 11.7 21.1 12.6 21.1 12.6 C 20.7 12.3 20.2 12.1 19.7 12.1 C 18.2 12.1 17.1 13.2 17.1 14.8 C 17.1 16.4 18.2 17.4 19.7 17.4 Z M 26.1 12.1 C 24.7 12.1 23.6 13.3 23.6 14.8 C 23.6 16.3 24.7 17.4 26.1 17.4 C 27.6 17.4 28.6 16.3 28.6 14.8 C 28.6 13.3 27.6 12.1 26.1 12.1 Z M 26.1 18.4 C 24.1 18.4 22.5 16.8 22.5 14.8 C 22.5 12.8 24.1 11.2 26.1 11.2 C 28.2 11.2 29.7 12.8 29.7 14.8 C 29.7 16.8 28.2 18.4 26.1 18.4 Z M 35.6 18.3 L 34.8 18.3 L 32.5 12.6 L 32.5 18.3 L 31.5 18.3 L 31.5 11.3 L 33.1 11.3 L 35.2 16.6 L 37.3 11.3 L 39 11.3 L 39 18.3 L 37.9 18.3 L 37.9 12.6 L 35.6 18.3 Z M 43.1 11.3 C 44.3 11.3 45.7 11.8 45.7 13.4 C 45.7 14.9 44.3 15.5 43.1 15.5 C 43.15 15.52 42.1 15.5 42.1 15.5 L 42.1 18.3 L 41 18.3 L 41 11.3 C 41 11.3 43.15 11.28 43.1 11.3 Z M 42.1 14.6 C 42.1 14.6 42.91 14.58 42.9 14.6 C 43.8 14.6 44.5 14.3 44.5 13.4 C 44.5 12.7 43.9 12.2 43.1 12.2 C 43.1 12.22 42.1 12.2 42.1 12.2 L 42.1 14.6 Z M 47 18.3 L 47 11.3 L 48.1 11.3 L 48.1 17.3 L 51.1 17.3 L 51.1 18.3 L 47 18.3 Z M 52.3 18.3 L 52.3 11.3 L 56.6 11.3 L 56.6 12.2 L 53.4 12.2 L 53.4 14.2 L 56.6 14.2 L 56.6 15.1 L 53.4 15.1 L 53.4 17.3 L 56.6 17.3 L 56.6 18.3 L 52.3 18.3 Z M 60.4 12.2 L 60.4 18.3 L 59.3 18.3 L 59.3 12.2 L 57.6 12.2 L 57.6 11.3 L 62.1 11.3 L 62.1 12.2 L 60.4 12.2 Z M 63.5 18.3 L 63.5 11.3 L 67.7 11.3 L 67.7 12.2 L 64.5 12.2 L 64.5 14.2 L 67.7 14.2 L 67.7 15.1 L 64.5 15.1 L 64.5 17.3 L 67.7 17.3 L 67.7 18.3 L 63.5 18.3 Z M 74.3 12.2 L 74.3 18.3 L 73.3 18.3 L 73.3 12.2 L 71.5 12.2 L 71.5 11.3 L 76.1 11.3 L 76.1 12.2 L 74.3 12.2 Z M 82 18.3 L 82 15.1 L 78.5 15.1 L 78.5 18.3 L 77.4 18.3 L 77.4 11.3 L 78.5 11.3 L 78.5 14.2 L 82 14.2 L 82 11.3 L 83.1 11.3 L 83.1 18.3 L 82 18.3 Z M 85.2 18.3 L 85.2 11.3 L 89.4 11.3 L 89.4 12.2 L 86.2 12.2 L 86.2 14.2 L 89.4 14.2 L 89.4 15.1 L 86.2 15.1 L 86.2 17.3 L 89.4 17.3 L 89.4 18.3 L 85.2 18.3 Z " stroke="none" fill="#946822"/>  </g>  <g id="Rectangle39575">    <path d="M 51.7 39.4 L 51.7 38.7 L 53.8 38.7 L 53.8 39.4 L 51.7 39.4 Z " stroke="none" fill="#946822"/>  </g></svg>