<?xml version="1.0" standalone="no"?><!DOCTYPE svg PUBLIC "-//W3C//DTD SVG 1.1//EN" "http://www.w3.org/Graphics/SVG/1.1/DTD/svg11.dtd"><svg xmlns="http://www.w3.org/2000/svg" version="1.1" width="51px" height="13.8px" viewBox="0 -3 51 13.8" style="top:-3px">  <desc>A2000317</desc>  <defs/>  <g id="Polygon42455">    <path d="M 13.2 5.2 L 12.9 4.2 L 10.8 4.2 L 10.4 5.2 L 9.7 5.2 L 11.6 0.4 L 12.1 0.4 L 14 5.2 L 13.2 5.2 Z M 11 3.6 L 12.6 3.6 L 11.8 1.4 L 11.8 1.4 L 11 3.6 Z M 14.9 5.2 C 14.9 5.2 14.88 4.66 14.9 4.7 C 15.4 4.1 16.1 3.4 16.5 2.7 C 16.7 2.5 16.9 2.1 16.9 1.8 C 16.9 1.3 16.6 1.1 16.2 1.1 C 15.8 1.1 15.5 1.4 15.4 1.8 C 15.4 1.8 14.8 1.7 14.8 1.7 C 14.8 1 15.5 0.5 16.2 0.5 C 16.9 0.5 17.6 1 17.6 1.8 C 17.6 2.2 17.4 2.7 17.1 3 C 16.7 3.6 16.2 4.2 15.8 4.7 C 15.76 4.66 17.8 4.7 17.8 4.7 L 17.8 5.2 L 14.9 5.2 Z M 22 2.9 C 22 4.4 21.4 5.3 20.4 5.3 C 19.3 5.3 18.7 4.4 18.7 2.9 C 18.7 1.4 19.3 0.5 20.4 0.5 C 21.4 0.5 22 1.4 22 2.9 Z M 19.4 2.9 C 19.4 4.1 19.8 4.7 20.4 4.7 C 21 4.7 21.4 4.1 21.4 2.9 C 21.4 1.7 21 1.1 20.4 1.1 C 19.8 1.1 19.4 1.7 19.4 2.9 Z M 26.3 2.9 C 26.3 4.4 25.7 5.3 24.7 5.3 C 23.6 5.3 23 4.4 23 2.9 C 23 1.4 23.6 0.5 24.7 0.5 C 25.7 0.5 26.3 1.4 26.3 2.9 Z M 23.7 2.9 C 23.7 4.1 24.1 4.7 24.7 4.7 C 25.3 4.7 25.7 4.1 25.7 2.9 C 25.7 1.7 25.3 1.1 24.7 1.1 C 24.1 1.1 23.7 1.7 23.7 2.9 Z M 30.6 2.9 C 30.6 4.4 30 5.3 29 5.3 C 27.9 5.3 27.3 4.4 27.3 2.9 C 27.3 1.4 27.9 0.5 29 0.5 C 30 0.5 30.6 1.4 30.6 2.9 Z M 28 2.9 C 28 4.1 28.4 4.7 29 4.7 C 29.6 4.7 30 4.1 30 2.9 C 30 1.7 29.6 1.1 29 1.1 C 28.4 1.1 28 1.7 28 2.9 Z M 32.3 2.5 C 32.6 2.5 32.8 2.5 33 2.5 C 33.4 2.4 33.6 2.1 33.6 1.8 C 33.6 1.4 33.3 1.1 32.9 1.1 C 32.5 1.1 32.2 1.3 32.1 1.6 C 32.1 1.6 31.5 1.4 31.5 1.4 C 31.7 0.9 32.2 0.5 32.9 0.5 C 33.7 0.5 34.3 1 34.3 1.8 C 34.3 2.2 34.1 2.6 33.7 2.8 C 34.2 2.9 34.5 3.4 34.5 3.9 C 34.5 4.8 33.8 5.3 33 5.3 C 32.4 5.3 31.8 5.1 31.5 4.6 C 31.5 4.6 32 4.3 32 4.3 C 32.2 4.6 32.6 4.7 32.9 4.7 C 33.4 4.7 33.9 4.5 33.9 4 C 33.9 3.5 33.4 3.2 32.9 3.2 C 32.7 3.2 32.6 3.2 32.3 3.2 C 32.3 3.2 32.3 2.5 32.3 2.5 Z M 36.3 5.2 C 36.3 5.2 36.33 1.4 36.3 1.4 C 36.1 1.5 35.8 1.6 35.6 1.7 C 35.6 1.7 35.6 1.1 35.6 1.1 C 35.9 1 36.3 0.8 36.6 0.6 C 36.56 0.6 37 0.6 37 0.6 L 37 5.2 L 36.3 5.2 Z M 41 1.1 C 40.5 2.3 39.6 4.2 39.1 5.4 C 39.1 5.4 38.5 5.1 38.5 5.1 C 39.1 3.7 39.9 2 40.3 1.2 C 40.3 1.2 38.1 1.2 38.1 1.2 L 38.1 0.6 L 41 0.6 C 41 0.6 41.03 1.08 41 1.1 Z " stroke="none" fill="#535a5d"/>  </g></svg>