<?xml version="1.0" standalone="no"?><!DOCTYPE svg PUBLIC "-//W3C//DTD SVG 1.1//EN" "http://www.w3.org/Graphics/SVG/1.1/DTD/svg11.dtd"><svg xmlns="http://www.w3.org/2000/svg" version="1.1" width="150px" height="23.8px" viewBox="0 -4 150 23.8" style="top:-4px">  <desc>Triptis A3000183</desc>  <defs/>  <g id="Polygon40755">    <path d="M 62.5 15 L 62.1 14 L 60 14 L 59.6 15 L 58.9 15 L 60.8 10.1 L 61.4 10.1 L 63.2 15 L 62.5 15 Z M 60.2 13.4 L 61.9 13.4 L 61 11.1 L 61 11.1 L 60.2 13.4 Z M 64.8 12.3 C 65.1 12.3 65.2 12.3 65.4 12.2 C 65.8 12.1 66.1 11.9 66.1 11.5 C 66.1 11.1 65.7 10.9 65.3 10.9 C 64.9 10.9 64.6 11 64.5 11.4 C 64.5 11.4 64 11.1 64 11.1 C 64.1 10.6 64.6 10.3 65.3 10.3 C 66.1 10.3 66.7 10.8 66.7 11.5 C 66.7 11.9 66.5 12.3 66.1 12.5 C 66.6 12.7 67 13.1 67 13.6 C 67 14.6 66.3 15.1 65.4 15.1 C 64.8 15.1 64.2 14.8 63.9 14.3 C 63.9 14.3 64.4 14 64.4 14 C 64.6 14.4 65 14.5 65.4 14.5 C 65.8 14.5 66.3 14.2 66.3 13.7 C 66.3 13.2 65.8 12.9 65.3 12.9 C 65.1 12.9 65 12.9 64.8 13 C 64.8 13 64.8 12.3 64.8 12.3 Z M 71.3 12.7 C 71.3 14.2 70.7 15.1 69.7 15.1 C 68.6 15.1 68 14.2 68 12.7 C 68 11.2 68.6 10.3 69.7 10.3 C 70.7 10.3 71.3 11.2 71.3 12.7 Z M 68.7 12.7 C 68.7 13.9 69.1 14.5 69.7 14.5 C 70.3 14.5 70.7 13.9 70.7 12.7 C 70.7 11.5 70.3 10.9 69.7 10.9 C 69.1 10.9 68.7 11.5 68.7 12.7 Z M 75.6 12.7 C 75.6 14.2 75 15.1 74 15.1 C 72.9 15.1 72.3 14.2 72.3 12.7 C 72.3 11.2 72.9 10.3 74 10.3 C 75 10.3 75.6 11.2 75.6 12.7 Z M 73 12.7 C 73 13.9 73.4 14.5 74 14.5 C 74.6 14.5 75 13.9 75 12.7 C 75 11.5 74.6 10.9 74 10.9 C 73.4 10.9 73 11.5 73 12.7 Z M 79.9 12.7 C 79.9 14.2 79.3 15.1 78.3 15.1 C 77.2 15.1 76.6 14.2 76.6 12.7 C 76.6 11.2 77.2 10.3 78.3 10.3 C 79.3 10.3 79.9 11.2 79.9 12.7 Z M 77.3 12.7 C 77.3 13.9 77.7 14.5 78.3 14.5 C 78.9 14.5 79.3 13.9 79.3 12.7 C 79.3 11.5 78.9 10.9 78.3 10.9 C 77.7 10.9 77.3 11.5 77.3 12.7 Z M 81.6 15 C 81.6 15 81.65 11.15 81.6 11.1 C 81.4 11.3 81.1 11.4 80.9 11.5 C 80.9 11.5 80.9 10.8 80.9 10.8 C 81.2 10.7 81.6 10.5 81.9 10.4 C 81.88 10.35 82.3 10.4 82.3 10.4 L 82.3 15 L 81.6 15 Z M 83.7 13.7 C 83.7 13.2 84 12.8 84.4 12.6 C 84.1 12.3 83.9 12 83.9 11.5 C 83.9 10.8 84.4 10.3 85.3 10.3 C 86.1 10.3 86.7 10.8 86.7 11.5 C 86.7 12 86.5 12.3 86.1 12.6 C 86.6 12.8 86.9 13.2 86.9 13.7 C 86.9 14.5 86.2 15.1 85.3 15.1 C 84.3 15.1 83.7 14.5 83.7 13.7 Z M 84.4 13.7 C 84.4 14.2 84.8 14.5 85.3 14.5 C 85.8 14.5 86.2 14.2 86.2 13.7 C 86.2 13.2 85.8 12.9 85.3 12.9 C 84.8 12.9 84.4 13.2 84.4 13.7 Z M 84.5 11.6 C 84.5 12 84.9 12.3 85.3 12.3 C 85.7 12.3 86.1 12 86.1 11.6 C 86.1 11.1 85.7 10.9 85.3 10.9 C 84.9 10.9 84.5 11.1 84.5 11.6 Z M 88.7 12.3 C 89 12.3 89.2 12.3 89.3 12.2 C 89.7 12.1 90 11.9 90 11.5 C 90 11.1 89.6 10.9 89.2 10.9 C 88.8 10.9 88.5 11 88.4 11.4 C 88.4 11.4 87.9 11.1 87.9 11.1 C 88.1 10.6 88.5 10.3 89.2 10.3 C 90.1 10.3 90.6 10.8 90.6 11.5 C 90.6 11.9 90.4 12.3 90.1 12.5 C 90.5 12.7 90.9 13.1 90.9 13.6 C 90.9 14.6 90.2 15.1 89.3 15.1 C 88.7 15.1 88.1 14.8 87.8 14.3 C 87.8 14.3 88.4 14 88.4 14 C 88.6 14.4 88.9 14.5 89.3 14.5 C 89.8 14.5 90.2 14.2 90.2 13.7 C 90.2 13.2 89.8 12.9 89.2 12.9 C 89.1 12.9 88.9 12.9 88.7 13 C 88.7 13 88.7 12.3 88.7 12.3 Z " stroke="none" fill="#535a5d"/>  </g>  <g id="Polygon40754">    <path d="M 62.7 1.2 L 62.7 6 L 61.7 6 L 61.7 1.2 L 60.3 1.2 L 60.3 0.4 L 64.1 0.4 L 64.1 1.2 L 62.7 1.2 Z M 67 0.4 C 67.9 0.4 69 0.9 69 2 C 69 3 68.3 3.4 67.7 3.6 C 67.69 3.62 69.4 6 69.4 6 L 68.2 6 L 66.6 3.7 L 66.2 3.7 L 66.2 6 L 65.3 6 L 65.3 0.4 C 65.3 0.4 66.98 0.4 67 0.4 Z M 66.8 2.9 C 67.4 2.9 67.9 2.6 67.9 2.1 C 67.9 1.6 67.5 1.2 67 1.2 C 66.96 1.25 66.2 1.2 66.2 1.2 L 66.2 2.9 C 66.2 2.9 66.8 2.86 66.8 2.9 Z M 70.7 6 L 70.7 0.4 L 71.6 0.4 L 71.6 6 L 70.7 6 Z M 75.1 0.4 C 76.1 0.4 77.2 0.9 77.2 2.1 C 77.2 3.4 76.1 3.8 75.1 3.8 C 75.14 3.83 74.4 3.8 74.4 3.8 L 74.4 6 L 73.4 6 L 73.4 0.4 C 73.4 0.4 75.14 0.4 75.1 0.4 Z M 74.4 3 C 74.4 3 74.96 2.98 75 3 C 75.6 3 76.1 2.8 76.1 2.1 C 76.1 1.6 75.7 1.2 75.1 1.2 C 75.12 1.25 74.4 1.2 74.4 1.2 L 74.4 3 Z M 80.3 1.2 L 80.3 6 L 79.3 6 L 79.3 1.2 L 77.9 1.2 L 77.9 0.4 L 81.6 0.4 L 81.6 1.2 L 80.3 1.2 Z M 82.8 6 L 82.8 0.4 L 83.8 0.4 L 83.8 6 L 82.8 6 Z M 87.4 1.2 C 87 1.2 86.6 1.4 86.6 1.8 C 86.6 2.3 87.1 2.4 87.6 2.6 C 88.4 2.9 89.3 3.2 89.3 4.4 C 89.3 5.6 88.2 6.1 87.3 6.1 C 86.5 6.1 85.8 5.8 85.2 5.2 C 85.2 5.2 85.9 4.6 85.9 4.6 C 86.4 5 86.7 5.2 87.3 5.2 C 87.8 5.2 88.3 5 88.3 4.4 C 88.3 3.9 87.7 3.7 87.1 3.5 C 86.4 3.2 85.6 2.8 85.6 1.9 C 85.6 0.8 86.5 0.3 87.4 0.3 C 88.1 0.3 88.6 0.5 89.2 0.9 C 89.2 0.9 88.6 1.6 88.6 1.6 C 88.3 1.4 87.9 1.2 87.4 1.2 Z " stroke="none" fill="#535a5d"/>  </g></svg>