<?xml version="1.0" standalone="no"?><!DOCTYPE svg PUBLIC "-//W3C//DTD SVG 1.1//EN" "http://www.w3.org/Graphics/SVG/1.1/DTD/svg11.dtd"><svg xmlns="http://www.w3.org/2000/svg" version="1.1" width="150px" height="23.8px" viewBox="0 -4 150 23.8" style="top:-4px">  <desc>Tirolo A3000126</desc>  <defs/>  <g id="Polygon42304">    <path d="M 62.6 15 L 62.2 14 L 60.1 14 L 59.7 15 L 59 15 L 60.9 10.1 L 61.5 10.1 L 63.4 15 L 62.6 15 Z M 60.3 13.4 L 62 13.4 L 61.2 11.1 L 61.2 11.1 L 60.3 13.4 Z M 64.9 12.3 C 65.2 12.3 65.4 12.3 65.6 12.2 C 65.9 12.1 66.2 11.9 66.2 11.5 C 66.2 11.1 65.9 10.9 65.4 10.9 C 65.1 10.9 64.8 11 64.6 11.4 C 64.6 11.4 64.1 11.1 64.1 11.1 C 64.3 10.6 64.8 10.3 65.4 10.3 C 66.3 10.3 66.9 10.8 66.9 11.5 C 66.9 11.9 66.6 12.3 66.3 12.5 C 66.8 12.7 67.1 13.1 67.1 13.6 C 67.1 14.6 66.4 15.1 65.5 15.1 C 65 15.1 64.3 14.8 64.1 14.3 C 64.1 14.3 64.6 14 64.6 14 C 64.8 14.4 65.1 14.5 65.5 14.5 C 66 14.5 66.4 14.2 66.4 13.7 C 66.4 13.2 66 12.9 65.4 12.9 C 65.3 12.9 65.1 12.9 64.9 13 C 64.9 13 64.9 12.3 64.9 12.3 Z M 71.5 12.7 C 71.5 14.2 70.9 15.1 69.8 15.1 C 68.8 15.1 68.2 14.2 68.2 12.7 C 68.2 11.2 68.8 10.3 69.8 10.3 C 70.9 10.3 71.5 11.2 71.5 12.7 Z M 68.8 12.7 C 68.8 13.9 69.2 14.5 69.8 14.5 C 70.4 14.5 70.8 13.9 70.8 12.7 C 70.8 11.5 70.4 10.9 69.8 10.9 C 69.2 10.9 68.8 11.5 68.8 12.7 Z M 75.8 12.7 C 75.8 14.2 75.2 15.1 74.1 15.1 C 73.1 15.1 72.5 14.2 72.5 12.7 C 72.5 11.2 73.1 10.3 74.1 10.3 C 75.2 10.3 75.8 11.2 75.8 12.7 Z M 73.1 12.7 C 73.1 13.9 73.5 14.5 74.1 14.5 C 74.7 14.5 75.1 13.9 75.1 12.7 C 75.1 11.5 74.7 10.9 74.1 10.9 C 73.5 10.9 73.1 11.5 73.1 12.7 Z M 80.1 12.7 C 80.1 14.2 79.5 15.1 78.4 15.1 C 77.4 15.1 76.8 14.2 76.8 12.7 C 76.8 11.2 77.4 10.3 78.4 10.3 C 79.5 10.3 80.1 11.2 80.1 12.7 Z M 77.4 12.7 C 77.4 13.9 77.8 14.5 78.4 14.5 C 79 14.5 79.4 13.9 79.4 12.7 C 79.4 11.5 79 10.9 78.4 10.9 C 77.8 10.9 77.4 11.5 77.4 12.7 Z M 81.8 15 C 81.8 15 81.78 11.15 81.8 11.1 C 81.6 11.3 81.3 11.4 81.1 11.5 C 81.1 11.5 81.1 10.8 81.1 10.8 C 81.4 10.7 81.7 10.5 82 10.4 C 82.01 10.35 82.4 10.4 82.4 10.4 L 82.4 15 L 81.8 15 Z M 83.9 15 C 83.9 15 83.86 14.41 83.9 14.4 C 84.4 13.8 85.1 13.1 85.5 12.5 C 85.7 12.2 85.9 11.8 85.9 11.5 C 85.9 11.1 85.5 10.9 85.2 10.9 C 84.8 10.9 84.4 11.1 84.4 11.6 C 84.4 11.6 83.8 11.4 83.8 11.4 C 83.8 10.7 84.5 10.3 85.2 10.3 C 85.9 10.3 86.6 10.8 86.6 11.5 C 86.6 11.9 86.4 12.4 86.1 12.8 C 85.7 13.3 85.2 13.9 84.7 14.4 C 84.74 14.41 86.8 14.4 86.8 14.4 L 86.8 15 L 83.9 15 Z M 90.2 10.7 C 89.3 11.1 88.7 11.6 88.4 12.5 C 88.7 12.2 89 12.1 89.5 12.1 C 90.3 12.1 90.8 12.7 90.8 13.6 C 90.8 14.4 90.2 15.1 89.3 15.1 C 88.3 15.1 87.6 14.2 87.6 13.2 C 87.6 11.7 88.7 10.6 89.9 10.1 C 89.9 10.1 90.2 10.7 90.2 10.7 Z M 88.3 13.2 C 88.3 13.9 88.6 14.5 89.3 14.5 C 89.8 14.5 90.2 14.1 90.2 13.5 C 90.2 13 89.8 12.6 89.3 12.6 C 88.9 12.6 88.5 12.9 88.3 13.2 Z " stroke="none" fill="#535a5d"/>  </g>  <g id="Polygon42303">    <path d="M 62.3 1.2 L 62.3 6 L 61.4 6 L 61.4 1.2 L 60 1.2 L 60 0.4 L 63.7 0.4 L 63.7 1.2 L 62.3 1.2 Z M 64.9 6 L 64.9 0.4 L 65.9 0.4 L 65.9 6 L 64.9 6 Z M 69.4 0.4 C 70.3 0.4 71.4 0.9 71.4 2 C 71.4 3 70.7 3.4 70.1 3.6 C 70.09 3.62 71.8 6 71.8 6 L 70.6 6 L 69 3.7 L 68.6 3.7 L 68.6 6 L 67.7 6 L 67.7 0.4 C 67.7 0.4 69.38 0.4 69.4 0.4 Z M 69.2 2.9 C 69.8 2.9 70.3 2.6 70.3 2.1 C 70.3 1.6 69.9 1.2 69.4 1.2 C 69.36 1.25 68.6 1.2 68.6 1.2 L 68.6 2.9 C 68.6 2.9 69.2 2.86 69.2 2.9 Z M 75.5 1.2 C 74.4 1.2 73.6 2.1 73.6 3.2 C 73.6 4.3 74.4 5.2 75.5 5.2 C 76.5 5.2 77.3 4.3 77.3 3.2 C 77.3 2.1 76.5 1.2 75.5 1.2 Z M 75.5 6.1 C 73.8 6.1 72.6 4.8 72.6 3.2 C 72.6 1.6 73.8 0.3 75.5 0.3 C 77.1 0.3 78.4 1.6 78.4 3.2 C 78.4 4.8 77.1 6.1 75.5 6.1 Z M 79.9 6 L 79.9 0.4 L 80.9 0.4 L 80.9 5.2 L 83.2 5.2 L 83.2 6 L 79.9 6 Z M 86.8 1.2 C 85.7 1.2 84.9 2.1 84.9 3.2 C 84.9 4.3 85.7 5.2 86.8 5.2 C 87.8 5.2 88.6 4.3 88.6 3.2 C 88.6 2.1 87.8 1.2 86.8 1.2 Z M 86.8 6.1 C 85.1 6.1 83.9 4.8 83.9 3.2 C 83.9 1.6 85.1 0.3 86.8 0.3 C 88.4 0.3 89.7 1.6 89.7 3.2 C 89.7 4.8 88.4 6.1 86.8 6.1 Z " stroke="none" fill="#535a5d"/>  </g></svg>