<?xml version="1.0" standalone="no"?><!DOCTYPE svg PUBLIC "-//W3C//DTD SVG 1.1//EN" "http://www.w3.org/Graphics/SVG/1.1/DTD/svg11.dtd"><svg xmlns="http://www.w3.org/2000/svg" version="1.1" width="486px" height="184px" viewBox="0 -1 486 184" style="top:-1px">  <desc>Global style takes flight Boho vibes elevate curated spaces Celebrate your unique style in this pattern paradise,</desc>  <defs/>  <g id="Polygon41223">    <path d="M 168.9 155.9 C 169.2 155.4 169.5 155.1 170 155.1 C 170.1 155.1 170.3 155.1 170.4 155.1 C 170.4 155.1 170.3 155.9 170.3 155.9 C 170.2 155.9 170 155.8 169.9 155.8 C 169.5 155.8 169.2 156.1 168.9 156.5 C 168.94 156.51 168.9 159.2 168.9 159.2 L 168.2 159.2 L 168.2 155.2 L 168.9 155.2 C 168.9 155.2 168.94 155.85 168.9 155.9 Z M 173.8 158.5 C 173.6 159 173.1 159.3 172.5 159.3 C 172 159.3 171.6 159.1 171.4 158.8 C 171.1 158.4 171 157.9 171 157.3 C 171.03 157.27 171 155.2 171 155.2 L 171.8 155.2 C 171.8 155.2 171.75 157.19 171.8 157.2 C 171.8 157.6 171.8 158 172 158.3 C 172.1 158.5 172.3 158.6 172.7 158.6 C 173.1 158.6 173.6 158.3 173.8 157.8 C 173.85 157.85 173.8 155.2 173.8 155.2 L 174.6 155.2 L 174.6 159.2 L 173.8 159.2 C 173.8 159.2 173.85 158.53 173.8 158.5 Z M 177.9 156 C 177.7 155.8 177.4 155.7 177.1 155.7 C 176.7 155.7 176.5 155.9 176.5 156.2 C 176.5 156.5 176.9 156.7 177.2 156.8 C 177.8 157 178.4 157.3 178.4 158 C 178.4 158.9 177.7 159.3 177 159.3 C 176.4 159.3 175.9 159.1 175.6 158.7 C 175.6 158.7 176.1 158.3 176.1 158.3 C 176.4 158.5 176.7 158.7 177 158.7 C 177.4 158.7 177.7 158.5 177.7 158.1 C 177.7 157.8 177.3 157.6 176.9 157.4 C 176.4 157.2 175.8 157 175.8 156.3 C 175.8 155.5 176.4 155.1 177.1 155.1 C 177.5 155.1 178 155.2 178.3 155.5 C 178.3 155.5 177.9 156 177.9 156 Z M 180.3 155.8 C 180.3 155.8 180.3 157.64 180.3 157.6 C 180.3 157.7 180.3 157.8 180.3 158 C 180.3 158.4 180.5 158.6 180.9 158.6 C 181 158.6 181.2 158.6 181.3 158.5 C 181.3 158.5 181.5 159.1 181.5 159.1 C 181.3 159.2 181 159.3 180.8 159.3 C 180.2 159.3 179.9 159 179.7 158.6 C 179.6 158.4 179.6 158.1 179.6 157.8 C 179.57 157.81 179.6 155.8 179.6 155.8 L 179 155.8 L 179 155.2 L 179.6 155.2 L 179.6 154.2 L 180.3 154.2 L 180.3 155.2 L 181.4 155.2 L 181.4 155.8 L 180.3 155.8 Z M 182.3 159.2 L 182.3 155.2 L 183 155.2 L 183 159.2 L 182.3 159.2 Z M 182.3 154.4 L 182.3 153.6 L 183 153.6 L 183 154.4 L 182.3 154.4 Z M 187.3 158.9 C 187 159.1 186.6 159.3 186.1 159.3 C 184.9 159.3 184 158.5 184 157.2 C 184 156 185 155.1 186.1 155.1 C 186.5 155.1 186.9 155.2 187.2 155.4 C 187.2 155.4 186.9 156 186.9 156 C 186.7 155.9 186.4 155.8 186.1 155.8 C 185.4 155.8 184.8 156.4 184.8 157.2 C 184.8 158.1 185.4 158.6 186.1 158.6 C 186.4 158.6 186.7 158.5 186.9 158.3 C 186.9 158.3 187.3 158.9 187.3 158.9 Z M 192.2 153.9 C 192.1 153.8 191.9 153.8 191.7 153.8 C 191.5 153.8 191.4 153.8 191.3 153.9 C 191.1 154 191 154.3 191 154.7 C 191.05 154.69 191 155.2 191 155.2 L 192.1 155.2 L 192.1 155.8 L 191 155.8 L 191 159.2 L 190.3 159.2 L 190.3 155.8 L 189.9 155.8 L 189.9 155.2 L 190.3 155.2 C 190.3 155.2 190.32 154.61 190.3 154.6 C 190.3 154.2 190.4 153.8 190.6 153.6 C 190.8 153.3 191.1 153.1 191.6 153.1 C 191.9 153.1 192.2 153.2 192.4 153.3 C 192.4 153.3 192.2 153.9 192.2 153.9 Z M 195.2 159.2 C 195.2 159.2 195.24 158.77 195.2 158.8 C 194.9 159.1 194.6 159.3 194 159.3 C 193.3 159.3 192.6 158.9 192.6 158.1 C 192.6 157.1 193.5 156.7 194.4 156.7 C 194.6 156.7 194.9 156.8 195.2 156.8 C 195.2 156.8 195.2 156.7 195.2 156.7 C 195.2 156.1 194.9 155.7 194.3 155.7 C 193.8 155.7 193.3 155.9 193 156.1 C 193 156.1 192.8 155.5 192.8 155.5 C 193.2 155.3 193.8 155.1 194.4 155.1 C 195.5 155.1 195.9 155.7 195.9 156.8 C 195.94 156.76 195.9 159.2 195.9 159.2 L 195.2 159.2 Z M 195.2 157.4 C 194.9 157.3 194.7 157.3 194.5 157.3 C 194 157.3 193.3 157.4 193.3 158 C 193.3 158.5 193.7 158.7 194.1 158.7 C 194.5 158.7 194.9 158.5 195.2 158.2 C 195.2 158.2 195.2 157.4 195.2 157.4 Z M 198 153.2 C 198 153.2 197.96 155.73 198 155.7 C 198.2 155.3 198.8 155.1 199.2 155.1 C 200.4 155.1 201.2 156 201.2 157.2 C 201.2 158.3 200.4 159.3 199.2 159.3 C 198.7 159.3 198.3 159.1 198 158.8 C 197.96 158.76 198 159.2 198 159.2 L 197.2 159.2 L 197.2 153.2 L 198 153.2 Z M 198 158 C 198.2 158.4 198.7 158.6 199.1 158.6 C 200 158.6 200.5 157.9 200.5 157.2 C 200.5 156.4 200 155.8 199.1 155.8 C 198.7 155.8 198.2 156 198 156.5 C 198 156.5 198 158 198 158 Z M 203 155.9 C 203.2 155.4 203.6 155.1 204 155.1 C 204.2 155.1 204.3 155.1 204.4 155.1 C 204.4 155.1 204.3 155.9 204.3 155.9 C 204.2 155.9 204.1 155.8 203.9 155.8 C 203.5 155.8 203.2 156.1 203 156.5 C 202.97 156.51 203 159.2 203 159.2 L 202.2 159.2 L 202.2 155.2 L 203 155.2 C 203 155.2 202.97 155.85 203 155.9 Z M 205.1 159.2 L 205.1 155.2 L 205.8 155.2 L 205.8 159.2 L 205.1 159.2 Z M 205.1 154.4 L 205.1 153.6 L 205.8 153.6 L 205.8 154.4 L 205.1 154.4 Z M 210.1 158.9 C 209.8 159.1 209.4 159.3 208.9 159.3 C 207.7 159.3 206.8 158.5 206.8 157.2 C 206.8 156 207.8 155.1 208.9 155.1 C 209.3 155.1 209.7 155.2 210 155.4 C 210 155.4 209.7 156 209.7 156 C 209.5 155.9 209.2 155.8 208.9 155.8 C 208.2 155.8 207.6 156.4 207.6 157.2 C 207.6 158.1 208.2 158.6 208.9 158.6 C 209.2 158.6 209.5 158.5 209.7 158.3 C 209.7 158.3 210.1 158.9 210.1 158.9 Z M 212.9 156 C 212.7 155.8 212.4 155.7 212.1 155.7 C 211.8 155.7 211.5 155.9 211.5 156.2 C 211.5 156.5 211.9 156.7 212.3 156.8 C 212.8 157 213.5 157.3 213.5 158 C 213.5 158.9 212.8 159.3 212 159.3 C 211.5 159.3 211 159.1 210.6 158.7 C 210.6 158.7 211.2 158.3 211.2 158.3 C 211.4 158.5 211.7 158.7 212 158.7 C 212.4 158.7 212.7 158.5 212.7 158.1 C 212.7 157.8 212.4 157.6 212 157.4 C 211.4 157.2 210.8 157 210.8 156.3 C 210.8 155.5 211.5 155.1 212.1 155.1 C 212.6 155.1 213 155.2 213.4 155.5 C 213.4 155.5 212.9 156 212.9 156 Z M 219.5 158.9 C 219.2 159.1 218.8 159.3 218.3 159.3 C 217.1 159.3 216.2 158.5 216.2 157.2 C 216.2 156 217.2 155.1 218.3 155.1 C 218.8 155.1 219.1 155.2 219.5 155.4 C 219.5 155.4 219.1 156 219.1 156 C 218.9 155.9 218.6 155.8 218.3 155.8 C 217.6 155.8 217 156.4 217 157.2 C 217 158.1 217.6 158.6 218.3 158.6 C 218.6 158.6 218.9 158.5 219.2 158.3 C 219.2 158.3 219.5 158.9 219.5 158.9 Z M 224.1 157.2 C 224.1 158.4 223.2 159.3 222.1 159.3 C 220.9 159.3 220 158.4 220 157.2 C 220 156 220.9 155.1 222.1 155.1 C 223.2 155.1 224.1 156 224.1 157.2 Z M 222.1 155.8 C 221.3 155.8 220.8 156.4 220.8 157.2 C 220.8 158 221.3 158.6 222.1 158.6 C 222.8 158.6 223.4 158 223.4 157.2 C 223.4 156.4 222.8 155.8 222.1 155.8 Z M 225.3 157.3 L 225.3 156.6 L 227.3 156.6 L 227.3 157.3 L 225.3 157.3 Z M 229.2 157.4 C 229.2 158.1 229.7 158.7 230.5 158.7 C 231 158.7 231.4 158.5 231.7 158 C 231.7 158 232.2 158.4 232.2 158.4 C 231.8 159 231.3 159.3 230.5 159.3 C 229.2 159.3 228.5 158.4 228.5 157.2 C 228.5 156 229.3 155.1 230.5 155.1 C 231.5 155.1 232.3 155.9 232.3 157 C 232.3 157.1 232.3 157.3 232.2 157.4 C 232.2 157.4 229.2 157.4 229.2 157.4 Z M 229.3 156.8 C 229.3 156.8 231.5 156.8 231.5 156.8 C 231.5 156.2 231.1 155.7 230.5 155.7 C 229.8 155.7 229.4 156.2 229.3 156.8 Z M 234.9 157.1 L 236.4 159.2 L 235.5 159.2 L 234.5 157.7 L 233.5 159.2 L 232.6 159.2 L 234 157.2 L 232.6 155.2 L 233.6 155.2 L 234.5 156.6 L 235.5 155.2 L 236.4 155.2 L 234.9 157.1 Z M 237.1 159.2 L 237.1 155.2 L 237.8 155.2 L 237.8 159.2 L 237.1 159.2 Z M 237.1 154.4 L 237.1 153.6 L 237.8 153.6 L 237.8 154.4 L 237.1 154.4 Z M 241.1 156 C 241 155.8 240.6 155.7 240.3 155.7 C 240 155.7 239.7 155.9 239.7 156.2 C 239.7 156.5 240.1 156.7 240.5 156.8 C 241 157 241.7 157.3 241.7 158 C 241.7 158.9 241 159.3 240.2 159.3 C 239.7 159.3 239.2 159.1 238.9 158.7 C 238.9 158.7 239.4 158.3 239.4 158.3 C 239.6 158.5 239.9 158.7 240.2 158.7 C 240.6 158.7 241 158.5 241 158.1 C 241 157.8 240.6 157.6 240.2 157.4 C 239.7 157.2 239 157 239 156.3 C 239 155.5 239.7 155.1 240.3 155.1 C 240.8 155.1 241.2 155.2 241.6 155.5 C 241.6 155.5 241.1 156 241.1 156 Z M 243.6 155.8 C 243.6 155.8 243.56 157.64 243.6 157.6 C 243.6 157.7 243.6 157.8 243.6 158 C 243.6 158.4 243.7 158.6 244.1 158.6 C 244.3 158.6 244.4 158.6 244.6 158.5 C 244.6 158.5 244.8 159.1 244.8 159.1 C 244.6 159.2 244.3 159.3 244 159.3 C 243.5 159.3 243.1 159 243 158.6 C 242.9 158.4 242.8 158.1 242.8 157.8 C 242.83 157.81 242.8 155.8 242.8 155.8 L 242.3 155.8 L 242.3 155.2 L 242.8 155.2 L 242.8 154.2 L 243.6 154.2 L 243.6 155.2 L 244.7 155.2 L 244.7 155.8 L 243.6 155.8 Z M 247.6 159.2 L 247.6 155.2 L 248.3 155.2 L 248.3 159.2 L 247.6 159.2 Z M 247.6 154.4 L 247.6 153.6 L 248.3 153.6 L 248.3 154.4 L 247.6 154.4 Z M 250.4 155.2 C 250.4 155.2 250.36 155.85 250.4 155.8 C 250.7 155.4 251.1 155.1 251.7 155.1 C 252.2 155.1 252.6 155.3 252.8 155.6 C 253.1 156 253.2 156.5 253.2 157.1 C 253.18 157.11 253.2 159.2 253.2 159.2 L 252.5 159.2 C 252.5 159.2 252.46 157.19 252.5 157.2 C 252.5 156.8 252.4 156.4 252.2 156.1 C 252.1 155.9 251.9 155.8 251.6 155.8 C 251.1 155.8 250.6 156.1 250.4 156.5 C 250.36 156.53 250.4 159.2 250.4 159.2 L 249.6 159.2 L 249.6 155.2 L 250.4 155.2 Z M 257.2 155.2 C 257.2 155.2 257.21 155.73 257.2 155.7 C 257.5 155.3 258 155.1 258.5 155.1 C 259.6 155.1 260.5 156 260.5 157.2 C 260.5 158.3 259.7 159.3 258.5 159.3 C 258 159.3 257.5 159.1 257.2 158.8 C 257.21 158.76 257.2 161.2 257.2 161.2 L 256.5 161.2 L 256.5 155.2 L 257.2 155.2 Z M 257.2 158 C 257.5 158.4 258 158.6 258.4 158.6 C 259.3 158.6 259.7 157.9 259.7 157.2 C 259.7 156.4 259.2 155.8 258.4 155.8 C 258 155.8 257.4 156 257.2 156.5 C 257.2 156.5 257.2 158 257.2 158 Z M 261.9 157.4 C 261.9 158.1 262.4 158.7 263.2 158.7 C 263.7 158.7 264.1 158.5 264.4 158 C 264.4 158 264.9 158.4 264.9 158.4 C 264.5 159 263.9 159.3 263.1 159.3 C 261.9 159.3 261.2 158.4 261.2 157.2 C 261.2 156 262 155.1 263.1 155.1 C 264.2 155.1 265 155.9 265 157 C 265 157.1 264.9 157.3 264.9 157.4 C 264.9 157.4 261.9 157.4 261.9 157.4 Z M 261.9 156.8 C 261.9 156.8 264.2 156.8 264.2 156.8 C 264.2 156.2 263.7 155.7 263.1 155.7 C 262.5 155.7 262.1 156.2 261.9 156.8 Z M 266.7 155.9 C 266.9 155.4 267.3 155.1 267.7 155.1 C 267.9 155.1 268 155.1 268.2 155.1 C 268.2 155.1 268 155.9 268 155.9 C 267.9 155.9 267.8 155.8 267.6 155.8 C 267.2 155.8 266.9 156.1 266.7 156.5 C 266.69 156.51 266.7 159.2 266.7 159.2 L 266 159.2 L 266 155.2 L 266.7 155.2 C 266.7 155.2 266.69 155.85 266.7 155.9 Z M 270.9 153.9 C 270.7 153.8 270.6 153.8 270.4 153.8 C 270.2 153.8 270 153.8 269.9 153.9 C 269.7 154 269.7 154.3 269.7 154.7 C 269.7 154.69 269.7 155.2 269.7 155.2 L 270.8 155.2 L 270.8 155.8 L 269.7 155.8 L 269.7 159.2 L 269 159.2 L 269 155.8 L 268.5 155.8 L 268.5 155.2 L 269 155.2 C 269 155.2 268.98 154.61 269 154.6 C 269 154.2 269 153.8 269.2 153.6 C 269.4 153.3 269.8 153.1 270.3 153.1 C 270.6 153.1 270.8 153.2 271.1 153.3 C 271.1 153.3 270.9 153.9 270.9 153.9 Z M 271.9 157.4 C 272 158.1 272.4 158.7 273.2 158.7 C 273.7 158.7 274.2 158.5 274.4 158 C 274.4 158 274.9 158.4 274.9 158.4 C 274.5 159 274 159.3 273.2 159.3 C 271.9 159.3 271.2 158.4 271.2 157.2 C 271.2 156 272.1 155.1 273.2 155.1 C 274.2 155.1 275 155.9 275 157 C 275 157.1 275 157.3 275 157.4 C 275 157.4 271.9 157.4 271.9 157.4 Z M 272 156.8 C 272 156.8 274.2 156.8 274.2 156.8 C 274.2 156.2 273.8 155.7 273.2 155.7 C 272.5 155.7 272.1 156.2 272 156.8 Z M 278.9 158.9 C 278.6 159.1 278.2 159.3 277.7 159.3 C 276.6 159.3 275.7 158.5 275.7 157.2 C 275.7 156 276.6 155.1 277.8 155.1 C 278.2 155.1 278.6 155.2 278.9 155.4 C 278.9 155.4 278.5 156 278.5 156 C 278.3 155.9 278 155.8 277.7 155.8 C 277 155.8 276.4 156.4 276.4 157.2 C 276.4 158.1 277 158.6 277.7 158.6 C 278 158.6 278.4 158.5 278.6 158.3 C 278.6 158.3 278.9 158.9 278.9 158.9 Z M 280.7 155.8 C 280.7 155.8 280.69 157.64 280.7 157.6 C 280.7 157.7 280.7 157.8 280.7 158 C 280.7 158.4 280.9 158.6 281.3 158.6 C 281.4 158.6 281.6 158.6 281.7 158.5 C 281.7 158.5 281.9 159.1 281.9 159.1 C 281.7 159.2 281.4 159.3 281.2 159.3 C 280.6 159.3 280.3 159 280.1 158.6 C 280 158.4 280 158.1 280 157.8 C 279.96 157.81 280 155.8 280 155.8 L 279.4 155.8 L 279.4 155.2 L 280 155.2 L 280 154.2 L 280.7 154.2 L 280.7 155.2 L 281.8 155.2 L 281.8 155.8 L 280.7 155.8 Z M 285.4 155.8 C 285.7 155.4 286.2 155.1 286.7 155.1 C 287.3 155.1 287.6 155.3 287.9 155.6 C 288.2 156 288.2 156.5 288.2 157.1 C 288.24 157.11 288.2 159.2 288.2 159.2 L 287.5 159.2 C 287.5 159.2 287.51 157.19 287.5 157.2 C 287.5 156.8 287.5 156.4 287.3 156.1 C 287.2 155.9 287 155.8 286.6 155.8 C 286.1 155.8 285.7 156.1 285.4 156.5 C 285.41 156.53 285.4 159.2 285.4 159.2 L 284.7 159.2 L 284.7 153.2 L 285.4 153.2 C 285.4 153.2 285.41 155.85 285.4 155.8 Z M 291.9 159.2 C 291.9 159.2 291.91 158.77 291.9 158.8 C 291.6 159.1 291.2 159.3 290.7 159.3 C 290 159.3 289.3 158.9 289.3 158.1 C 289.3 157.1 290.2 156.7 291.1 156.7 C 291.3 156.7 291.5 156.8 291.9 156.8 C 291.9 156.8 291.9 156.7 291.9 156.7 C 291.9 156.1 291.6 155.7 290.9 155.7 C 290.5 155.7 290 155.9 289.7 156.1 C 289.7 156.1 289.4 155.5 289.4 155.5 C 289.9 155.3 290.5 155.1 291 155.1 C 292.2 155.1 292.6 155.7 292.6 156.8 C 292.61 156.76 292.6 159.2 292.6 159.2 L 291.9 159.2 Z M 291.9 157.4 C 291.6 157.3 291.4 157.3 291.2 157.3 C 290.7 157.3 290 157.4 290 158 C 290 158.5 290.4 158.7 290.8 158.7 C 291.2 158.7 291.6 158.5 291.9 158.2 C 291.9 158.2 291.9 157.4 291.9 157.4 Z M 294.6 155.9 C 294.9 155.4 295.2 155.1 295.7 155.1 C 295.8 155.1 295.9 155.1 296.1 155.1 C 296.1 155.1 296 155.9 296 155.9 C 295.8 155.9 295.7 155.8 295.6 155.8 C 295.2 155.8 294.9 156.1 294.6 156.5 C 294.63 156.51 294.6 159.2 294.6 159.2 L 293.9 159.2 L 293.9 155.2 L 294.6 155.2 C 294.6 155.2 294.63 155.85 294.6 155.9 Z M 302.1 159.2 C 302.1 159.2 302.09 157.19 302.1 157.2 C 302.1 156.8 302.1 156.4 301.9 156.1 C 301.8 155.9 301.6 155.8 301.2 155.8 C 300.8 155.8 300.4 156 300.1 156.4 C 300.1 156.6 300.2 156.9 300.2 157.1 C 300.15 157.11 300.2 159.2 300.2 159.2 L 299.4 159.2 C 299.4 159.2 299.42 157.19 299.4 157.2 C 299.4 156.8 299.4 156.3 299.2 156 C 299.1 155.9 298.9 155.8 298.6 155.8 C 298.2 155.8 297.8 156.1 297.5 156.5 C 297.49 156.5 297.5 159.2 297.5 159.2 L 296.8 159.2 L 296.8 155.2 L 297.5 155.2 C 297.5 155.2 297.49 155.8 297.5 155.8 C 297.8 155.4 298.3 155.1 298.7 155.1 C 299.2 155.1 299.6 155.3 299.9 155.6 C 299.9 155.7 299.9 155.8 300 155.8 C 300.3 155.3 300.8 155.1 301.3 155.1 C 301.9 155.1 302.2 155.3 302.4 155.6 C 302.7 155.9 302.8 156.5 302.8 157.1 C 302.81 157.11 302.8 159.2 302.8 159.2 L 302.1 159.2 Z M 307.9 157.2 C 307.9 158.4 307 159.3 305.8 159.3 C 304.6 159.3 303.8 158.4 303.8 157.2 C 303.8 156 304.6 155.1 305.8 155.1 C 307 155.1 307.9 156 307.9 157.2 Z M 305.8 155.8 C 305.1 155.8 304.5 156.4 304.5 157.2 C 304.5 158 305.1 158.6 305.8 158.6 C 306.6 158.6 307.1 158 307.1 157.2 C 307.1 156.4 306.6 155.8 305.8 155.8 Z M 309.6 155.2 C 309.6 155.2 309.59 155.85 309.6 155.8 C 309.9 155.4 310.4 155.1 310.9 155.1 C 311.5 155.1 311.8 155.3 312.1 155.6 C 312.3 156 312.4 156.5 312.4 157.1 C 312.41 157.11 312.4 159.2 312.4 159.2 L 311.7 159.2 C 311.7 159.2 311.69 157.19 311.7 157.2 C 311.7 156.8 311.7 156.4 311.5 156.1 C 311.4 155.9 311.1 155.8 310.8 155.8 C 310.3 155.8 309.9 156.1 309.6 156.5 C 309.59 156.53 309.6 159.2 309.6 159.2 L 308.9 159.2 L 308.9 155.2 L 309.6 155.2 Z M 313.9 155.2 L 314.9 158.2 L 315 158.2 L 316 155.2 L 316.8 155.2 L 314.6 161 L 313.9 160.7 L 314.6 159.1 L 313.1 155.2 L 313.9 155.2 Z M 317 159.2 L 317 158.3 L 317.9 158.3 L 317.9 159.2 L 317 159.2 Z " stroke="none" fill="#535a5d"/>  </g>  <g id="Polygon41222">    <path d="M 111.4 148.3 C 109.7 148.3 108.3 147.2 108.3 145.4 C 108.3 143.7 109.7 142.5 111.4 142.5 C 111.9 142.5 112.4 142.7 112.9 142.9 C 112.9 142.9 112.5 143.5 112.5 143.5 C 112.2 143.3 111.8 143.2 111.4 143.2 C 110.1 143.2 109.2 144.1 109.2 145.4 C 109.2 146.8 110.1 147.6 111.4 147.6 C 111.8 147.6 112.2 147.5 112.6 147.2 C 112.6 147.2 113 147.8 113 147.8 C 112.5 148.1 112 148.3 111.4 148.3 Z M 114.2 146.4 C 114.2 147.1 114.7 147.7 115.5 147.7 C 116 147.7 116.4 147.5 116.7 147 C 116.7 147 117.2 147.4 117.2 147.4 C 116.8 148 116.3 148.3 115.5 148.3 C 114.2 148.3 113.5 147.4 113.5 146.2 C 113.5 145 114.3 144.1 115.5 144.1 C 116.5 144.1 117.3 144.9 117.3 146 C 117.3 146.1 117.3 146.3 117.2 146.4 C 117.2 146.4 114.2 146.4 114.2 146.4 Z M 114.3 145.8 C 114.3 145.8 116.5 145.8 116.5 145.8 C 116.5 145.2 116.1 144.7 115.5 144.7 C 114.8 144.7 114.4 145.2 114.3 145.8 Z M 119 148.2 L 118.3 148.2 L 118.3 142.2 L 119 142.2 L 119 148.2 Z M 120.8 146.4 C 120.8 147.1 121.3 147.7 122 147.7 C 122.6 147.7 123 147.5 123.2 147 C 123.2 147 123.8 147.4 123.8 147.4 C 123.4 148 122.8 148.3 122 148.3 C 120.7 148.3 120 147.4 120 146.2 C 120 145 120.9 144.1 122 144.1 C 123.1 144.1 123.8 144.9 123.8 146 C 123.8 146.1 123.8 146.3 123.8 146.4 C 123.8 146.4 120.8 146.4 120.8 146.4 Z M 120.8 145.8 C 120.8 145.8 123.1 145.8 123.1 145.8 C 123.1 145.2 122.6 144.7 122 144.7 C 121.4 144.7 121 145.2 120.8 145.8 Z M 125.6 142.2 C 125.6 142.2 125.57 144.73 125.6 144.7 C 125.9 144.3 126.4 144.1 126.8 144.1 C 128 144.1 128.8 145 128.8 146.2 C 128.8 147.3 128.1 148.3 126.8 148.3 C 126.4 148.3 125.9 148.1 125.6 147.8 C 125.57 147.76 125.6 148.2 125.6 148.2 L 124.8 148.2 L 124.8 142.2 L 125.6 142.2 Z M 125.6 147 C 125.8 147.4 126.3 147.6 126.7 147.6 C 127.7 147.6 128.1 146.9 128.1 146.2 C 128.1 145.4 127.6 144.8 126.7 144.8 C 126.3 144.8 125.8 145 125.6 145.5 C 125.6 145.5 125.6 147 125.6 147 Z M 130.6 144.9 C 130.8 144.4 131.2 144.1 131.6 144.1 C 131.8 144.1 131.9 144.1 132 144.1 C 132 144.1 131.9 144.9 131.9 144.9 C 131.8 144.9 131.7 144.8 131.5 144.8 C 131.1 144.8 130.8 145.1 130.6 145.5 C 130.58 145.51 130.6 148.2 130.6 148.2 L 129.9 148.2 L 129.9 144.2 L 130.6 144.2 C 130.6 144.2 130.58 144.85 130.6 144.9 Z M 135.1 148.2 C 135.1 148.2 135.08 147.77 135.1 147.8 C 134.8 148.1 134.4 148.3 133.9 148.3 C 133.1 148.3 132.5 147.9 132.5 147.1 C 132.5 146.1 133.4 145.7 134.2 145.7 C 134.5 145.7 134.7 145.8 135.1 145.8 C 135.1 145.8 135.1 145.7 135.1 145.7 C 135.1 145.1 134.8 144.7 134.1 144.7 C 133.6 144.7 133.2 144.9 132.8 145.1 C 132.8 145.1 132.6 144.5 132.6 144.5 C 133 144.3 133.6 144.1 134.2 144.1 C 135.4 144.1 135.8 144.7 135.8 145.8 C 135.78 145.76 135.8 148.2 135.8 148.2 L 135.1 148.2 Z M 135.1 146.4 C 134.8 146.3 134.5 146.3 134.3 146.3 C 133.8 146.3 133.2 146.4 133.2 147 C 133.2 147.5 133.5 147.7 134 147.7 C 134.4 147.7 134.7 147.5 135.1 147.2 C 135.1 147.2 135.1 146.4 135.1 146.4 Z M 137.8 144.8 C 137.8 144.8 137.84 146.64 137.8 146.6 C 137.8 146.7 137.8 146.8 137.8 147 C 137.9 147.4 138 147.6 138.4 147.6 C 138.6 147.6 138.7 147.6 138.9 147.5 C 138.9 147.5 139.1 148.1 139.1 148.1 C 138.9 148.2 138.6 148.3 138.3 148.3 C 137.8 148.3 137.4 148 137.2 147.6 C 137.1 147.4 137.1 147.1 137.1 146.8 C 137.11 146.81 137.1 144.8 137.1 144.8 L 136.6 144.8 L 136.6 144.2 L 137.1 144.2 L 137.1 143.2 L 137.8 143.2 L 137.8 144.2 L 139 144.2 L 139 144.8 L 137.8 144.8 Z M 140.2 146.4 C 140.3 147.1 140.8 147.7 141.5 147.7 C 142.1 147.7 142.5 147.5 142.7 147 C 142.7 147 143.2 147.4 143.2 147.4 C 142.8 148 142.3 148.3 141.5 148.3 C 140.2 148.3 139.5 147.4 139.5 146.2 C 139.5 145 140.4 144.1 141.5 144.1 C 142.5 144.1 143.3 144.9 143.3 146 C 143.3 146.1 143.3 146.3 143.3 146.4 C 143.3 146.4 140.2 146.4 140.2 146.4 Z M 140.3 145.8 C 140.3 145.8 142.6 145.8 142.6 145.8 C 142.5 145.2 142.1 144.7 141.5 144.7 C 140.8 144.7 140.4 145.2 140.3 145.8 Z M 146.5 144.2 L 147.5 147.2 L 147.6 147.2 L 148.6 144.2 L 149.4 144.2 L 147.2 150 L 146.5 149.7 L 147.2 148.1 L 145.7 144.2 L 146.5 144.2 Z M 153.9 146.2 C 153.9 147.4 153 148.3 151.8 148.3 C 150.7 148.3 149.8 147.4 149.8 146.2 C 149.8 145 150.7 144.1 151.8 144.1 C 153 144.1 153.9 145 153.9 146.2 Z M 151.8 144.8 C 151.1 144.8 150.5 145.4 150.5 146.2 C 150.5 147 151.1 147.6 151.8 147.6 C 152.6 147.6 153.1 147 153.1 146.2 C 153.1 145.4 152.6 144.8 151.8 144.8 Z M 157.7 147.5 C 157.4 148 156.9 148.3 156.4 148.3 C 155.8 148.3 155.4 148.1 155.2 147.8 C 154.9 147.4 154.8 146.9 154.8 146.3 C 154.84 146.27 154.8 144.2 154.8 144.2 L 155.6 144.2 C 155.6 144.2 155.57 146.19 155.6 146.2 C 155.6 146.6 155.6 147 155.8 147.3 C 155.9 147.5 156.1 147.6 156.5 147.6 C 156.9 147.6 157.4 147.3 157.7 146.8 C 157.67 146.85 157.7 144.2 157.7 144.2 L 158.4 144.2 L 158.4 148.2 L 157.7 148.2 C 157.7 148.2 157.67 147.53 157.7 147.5 Z M 160.5 144.9 C 160.7 144.4 161.1 144.1 161.5 144.1 C 161.7 144.1 161.8 144.1 161.9 144.1 C 161.9 144.1 161.8 144.9 161.8 144.9 C 161.7 144.9 161.6 144.8 161.4 144.8 C 161 144.8 160.7 145.1 160.5 145.5 C 160.46 145.51 160.5 148.2 160.5 148.2 L 159.7 148.2 L 159.7 144.2 L 160.5 144.2 C 160.5 144.2 160.46 144.85 160.5 144.9 Z M 167.4 147.5 C 167.1 148 166.6 148.3 166.1 148.3 C 165.5 148.3 165.1 148.1 164.9 147.8 C 164.6 147.4 164.5 146.9 164.5 146.3 C 164.55 146.27 164.5 144.2 164.5 144.2 L 165.3 144.2 C 165.3 144.2 165.27 146.19 165.3 146.2 C 165.3 146.6 165.3 147 165.5 147.3 C 165.6 147.5 165.8 147.6 166.2 147.6 C 166.6 147.6 167.1 147.3 167.4 146.8 C 167.37 146.85 167.4 144.2 167.4 144.2 L 168.1 144.2 L 168.1 148.2 L 167.4 148.2 C 167.4 148.2 167.37 147.53 167.4 147.5 Z M 170.2 144.2 C 170.2 144.2 170.17 144.85 170.2 144.8 C 170.5 144.4 170.9 144.1 171.5 144.1 C 172 144.1 172.4 144.3 172.6 144.6 C 172.9 145 173 145.5 173 146.1 C 172.99 146.11 173 148.2 173 148.2 L 172.3 148.2 C 172.3 148.2 172.27 146.19 172.3 146.2 C 172.3 145.8 172.2 145.4 172.1 145.1 C 171.9 144.9 171.7 144.8 171.4 144.8 C 170.9 144.8 170.5 145.1 170.2 145.5 C 170.17 145.53 170.2 148.2 170.2 148.2 L 169.4 148.2 L 169.4 144.2 L 170.2 144.2 Z M 174.3 148.2 L 174.3 144.2 L 175 144.2 L 175 148.2 L 174.3 148.2 Z M 174.3 143.4 L 174.3 142.6 L 175 142.6 L 175 143.4 L 174.3 143.4 Z M 180 150.2 L 179.3 150.2 C 179.3 150.2 179.3 147.65 179.3 147.7 C 179 148.1 178.5 148.3 178 148.3 C 176.9 148.3 176 147.4 176 146.2 C 176 145.1 176.8 144.1 178 144.1 C 178.5 144.1 179 144.3 179.3 144.6 C 179.3 144.63 179.3 144.2 179.3 144.2 L 180 144.2 L 180 150.2 Z M 179.3 145.4 C 179 145 178.5 144.8 178.1 144.8 C 177.2 144.8 176.8 145.5 176.8 146.2 C 176.8 146.9 177.3 147.6 178.1 147.6 C 178.6 147.6 179.1 147.4 179.3 146.9 C 179.3 146.9 179.3 145.4 179.3 145.4 Z M 184.1 147.5 C 183.8 148 183.4 148.3 182.8 148.3 C 182.3 148.3 181.9 148.1 181.7 147.8 C 181.4 147.4 181.3 146.9 181.3 146.3 C 181.32 146.27 181.3 144.2 181.3 144.2 L 182 144.2 C 182 144.2 182.05 146.19 182 146.2 C 182 146.6 182.1 147 182.3 147.3 C 182.4 147.5 182.6 147.6 183 147.6 C 183.4 147.6 183.9 147.3 184.1 146.8 C 184.15 146.85 184.1 144.2 184.1 144.2 L 184.9 144.2 L 184.9 148.2 L 184.1 148.2 C 184.1 148.2 184.15 147.53 184.1 147.5 Z M 186.6 146.4 C 186.7 147.1 187.1 147.7 187.9 147.7 C 188.4 147.7 188.8 147.5 189.1 147 C 189.1 147 189.6 147.4 189.6 147.4 C 189.2 148 188.7 148.3 187.9 148.3 C 186.6 148.3 185.9 147.4 185.9 146.2 C 185.9 145 186.8 144.1 187.9 144.1 C 188.9 144.1 189.7 144.9 189.7 146 C 189.7 146.1 189.7 146.3 189.7 146.4 C 189.7 146.4 186.6 146.4 186.6 146.4 Z M 186.7 145.8 C 186.7 145.8 188.9 145.8 188.9 145.8 C 188.9 145.2 188.5 144.7 187.9 144.7 C 187.2 144.7 186.8 145.2 186.7 145.8 Z M 194.6 145 C 194.5 144.8 194.1 144.7 193.9 144.7 C 193.5 144.7 193.3 144.9 193.3 145.2 C 193.3 145.5 193.6 145.7 194 145.8 C 194.5 146 195.2 146.3 195.2 147 C 195.2 147.9 194.5 148.3 193.7 148.3 C 193.2 148.3 192.7 148.1 192.4 147.7 C 192.4 147.7 192.9 147.3 192.9 147.3 C 193.1 147.5 193.4 147.7 193.8 147.7 C 194.1 147.7 194.5 147.5 194.5 147.1 C 194.5 146.8 194.1 146.6 193.7 146.4 C 193.2 146.2 192.6 146 192.6 145.3 C 192.6 144.5 193.2 144.1 193.8 144.1 C 194.3 144.1 194.8 144.2 195.1 144.5 C 195.1 144.5 194.6 145 194.6 145 Z M 197.1 144.8 C 197.1 144.8 197.07 146.64 197.1 146.6 C 197.1 146.7 197.1 146.8 197.1 147 C 197.1 147.4 197.2 147.6 197.6 147.6 C 197.8 147.6 198 147.6 198.1 147.5 C 198.1 147.5 198.3 148.1 198.3 148.1 C 198.1 148.2 197.8 148.3 197.5 148.3 C 197 148.3 196.6 148 196.5 147.6 C 196.4 147.4 196.3 147.1 196.3 146.8 C 196.35 146.81 196.3 144.8 196.3 144.8 L 195.8 144.8 L 195.8 144.2 L 196.3 144.2 L 196.3 143.2 L 197.1 143.2 L 197.1 144.2 L 198.2 144.2 L 198.2 144.8 L 197.1 144.8 Z M 199.4 144.2 L 200.4 147.2 L 200.4 147.2 L 201.5 144.2 L 202.3 144.2 L 200 150 L 199.4 149.7 L 200 148.1 L 198.6 144.2 L 199.4 144.2 Z M 203.7 148.2 L 203 148.2 L 203 142.2 L 203.7 142.2 L 203.7 148.2 Z M 205.5 146.4 C 205.5 147.1 206 147.7 206.8 147.7 C 207.3 147.7 207.7 147.5 208 147 C 208 147 208.5 147.4 208.5 147.4 C 208.1 148 207.5 148.3 206.7 148.3 C 205.5 148.3 204.7 147.4 204.7 146.2 C 204.7 145 205.6 144.1 206.7 144.1 C 207.8 144.1 208.6 144.9 208.6 146 C 208.6 146.1 208.5 146.3 208.5 146.4 C 208.5 146.4 205.5 146.4 205.5 146.4 Z M 205.5 145.8 C 205.5 145.8 207.8 145.8 207.8 145.8 C 207.8 145.2 207.3 144.7 206.7 144.7 C 206.1 144.7 205.7 145.2 205.5 145.8 Z M 211.6 148.2 L 211.6 144.2 L 212.3 144.2 L 212.3 148.2 L 211.6 148.2 Z M 211.6 143.4 L 211.6 142.6 L 212.3 142.6 L 212.3 143.4 L 211.6 143.4 Z M 214.4 144.2 C 214.4 144.2 214.36 144.85 214.4 144.8 C 214.7 144.4 215.1 144.1 215.7 144.1 C 216.2 144.1 216.6 144.3 216.8 144.6 C 217.1 145 217.2 145.5 217.2 146.1 C 217.18 146.11 217.2 148.2 217.2 148.2 L 216.5 148.2 C 216.5 148.2 216.46 146.19 216.5 146.2 C 216.5 145.8 216.4 145.4 216.2 145.1 C 216.1 144.9 215.9 144.8 215.6 144.8 C 215.1 144.8 214.6 145.1 214.4 145.5 C 214.36 145.53 214.4 148.2 214.4 148.2 L 213.6 148.2 L 213.6 144.2 L 214.4 144.2 Z M 221.2 144.8 C 221.2 144.8 221.25 146.64 221.2 146.6 C 221.2 146.7 221.2 146.8 221.3 147 C 221.3 147.4 221.4 147.6 221.8 147.6 C 222 147.6 222.1 147.6 222.3 147.5 C 222.3 147.5 222.5 148.1 222.5 148.1 C 222.3 148.2 222 148.3 221.7 148.3 C 221.2 148.3 220.8 148 220.6 147.6 C 220.6 147.4 220.5 147.1 220.5 146.8 C 220.52 146.81 220.5 144.8 220.5 144.8 L 220 144.8 L 220 144.2 L 220.5 144.2 L 220.5 143.2 L 221.2 143.2 L 221.2 144.2 L 222.4 144.2 L 222.4 144.8 L 221.2 144.8 Z M 224 144.8 C 224.3 144.4 224.7 144.1 225.3 144.1 C 225.8 144.1 226.2 144.3 226.4 144.6 C 226.7 145 226.8 145.5 226.8 146.1 C 226.8 146.11 226.8 148.2 226.8 148.2 L 226.1 148.2 C 226.1 148.2 226.07 146.19 226.1 146.2 C 226.1 145.8 226.1 145.4 225.9 145.1 C 225.7 144.9 225.5 144.8 225.2 144.8 C 224.7 144.8 224.3 145.1 224 145.5 C 223.98 145.53 224 148.2 224 148.2 L 223.2 148.2 L 223.2 142.2 L 224 142.2 C 224 142.2 223.98 144.85 224 144.8 Z M 228.1 148.2 L 228.1 144.2 L 228.8 144.2 L 228.8 148.2 L 228.1 148.2 Z M 228.1 143.4 L 228.1 142.6 L 228.8 142.6 L 228.8 143.4 L 228.1 143.4 Z M 232.1 145 C 231.9 144.8 231.6 144.7 231.3 144.7 C 231 144.7 230.7 144.9 230.7 145.2 C 230.7 145.5 231.1 145.7 231.5 145.8 C 232 146 232.7 146.3 232.7 147 C 232.7 147.9 232 148.3 231.2 148.3 C 230.7 148.3 230.2 148.1 229.8 147.7 C 229.8 147.7 230.4 147.3 230.4 147.3 C 230.6 147.5 230.9 147.7 231.2 147.7 C 231.6 147.7 231.9 147.5 231.9 147.1 C 231.9 146.8 231.6 146.6 231.2 146.4 C 230.6 146.2 230 146 230 145.3 C 230 144.5 230.7 144.1 231.3 144.1 C 231.8 144.1 232.2 144.2 232.6 144.5 C 232.6 144.5 232.1 145 232.1 145 Z M 236.5 144.2 C 236.5 144.2 236.5 144.73 236.5 144.7 C 236.8 144.3 237.3 144.1 237.8 144.1 C 238.9 144.1 239.8 145 239.8 146.2 C 239.8 147.3 239 148.3 237.8 148.3 C 237.3 148.3 236.8 148.1 236.5 147.8 C 236.5 147.76 236.5 150.2 236.5 150.2 L 235.8 150.2 L 235.8 144.2 L 236.5 144.2 Z M 236.5 147 C 236.8 147.4 237.2 147.6 237.7 147.6 C 238.6 147.6 239 146.9 239 146.2 C 239 145.4 238.5 144.8 237.7 144.8 C 237.2 144.8 236.7 145 236.5 145.5 C 236.5 145.5 236.5 147 236.5 147 Z M 243.2 148.2 C 243.2 148.2 243.16 147.77 243.2 147.8 C 242.8 148.1 242.5 148.3 242 148.3 C 241.2 148.3 240.5 147.9 240.5 147.1 C 240.5 146.1 241.4 145.7 242.3 145.7 C 242.5 145.7 242.8 145.8 243.1 145.8 C 243.1 145.8 243.1 145.7 243.1 145.7 C 243.1 145.1 242.8 144.7 242.2 144.7 C 241.7 144.7 241.2 144.9 240.9 145.1 C 240.9 145.1 240.7 144.5 240.7 144.5 C 241.1 144.3 241.7 144.1 242.3 144.1 C 243.4 144.1 243.9 144.7 243.9 145.8 C 243.86 145.76 243.9 148.2 243.9 148.2 L 243.2 148.2 Z M 243.1 146.4 C 242.8 146.3 242.6 146.3 242.4 146.3 C 241.9 146.3 241.3 146.4 241.3 147 C 241.3 147.5 241.6 147.7 242 147.7 C 242.5 147.7 242.8 147.5 243.1 147.2 C 243.1 147.2 243.1 146.4 243.1 146.4 Z M 248.7 144.8 C 248.7 144.8 248.69 146.64 248.7 146.6 C 248.7 146.7 248.7 146.8 248.7 147 C 248.7 147.4 248.9 147.6 249.3 147.6 C 249.4 147.6 249.6 147.6 249.7 147.5 C 249.7 147.5 249.9 148.1 249.9 148.1 C 249.7 148.2 249.4 148.3 249.2 148.3 C 248.6 148.3 248.3 148 248.1 147.6 C 248 147.4 248 147.1 248 146.8 C 247.96 146.81 248 144.8 248 144.8 L 247.4 144.8 L 247.4 144.2 L 248 144.2 L 248 143.2 L 248.7 143.2 L 248.7 144.2 L 249.8 144.2 L 249.8 144.8 L 248.7 144.8 Z M 245.9 144.8 C 245.9 144.8 245.92 146.64 245.9 146.6 C 245.9 146.7 245.9 146.8 245.9 147 C 246 147.4 246.1 147.6 246.5 147.6 C 246.6 147.6 246.8 147.6 246.9 147.5 C 246.9 147.5 247.1 148.1 247.1 148.1 C 246.9 148.2 246.7 148.3 246.4 148.3 C 245.8 148.3 245.5 148 245.3 147.6 C 245.2 147.4 245.2 147.1 245.2 146.8 C 245.19 146.81 245.2 144.8 245.2 144.8 L 244.7 144.8 L 244.7 144.2 L 245.2 144.2 L 245.2 143.2 L 245.9 143.2 L 245.9 144.2 L 247 144.2 L 247 144.8 L 245.9 144.8 Z M 251.1 146.4 C 251.1 147.1 251.6 147.7 252.4 147.7 C 252.9 147.7 253.3 147.5 253.6 147 C 253.6 147 254.1 147.4 254.1 147.4 C 253.7 148 253.1 148.3 252.3 148.3 C 251.1 148.3 250.4 147.4 250.4 146.2 C 250.4 145 251.2 144.1 252.3 144.1 C 253.4 144.1 254.2 144.9 254.2 146 C 254.2 146.1 254.1 146.3 254.1 146.4 C 254.1 146.4 251.1 146.4 251.1 146.4 Z M 251.1 145.8 C 251.1 145.8 253.4 145.8 253.4 145.8 C 253.4 145.2 252.9 144.7 252.3 144.7 C 251.7 144.7 251.3 145.2 251.1 145.8 Z M 255.9 144.9 C 256.1 144.4 256.5 144.1 256.9 144.1 C 257.1 144.1 257.2 144.1 257.4 144.1 C 257.4 144.1 257.2 144.9 257.2 144.9 C 257.1 144.9 257 144.8 256.8 144.8 C 256.4 144.8 256.1 145.1 255.9 145.5 C 255.9 145.51 255.9 148.2 255.9 148.2 L 255.2 148.2 L 255.2 144.2 L 255.9 144.2 C 255.9 144.2 255.9 144.85 255.9 144.9 Z M 258.8 144.2 C 258.8 144.2 258.75 144.85 258.8 144.8 C 259 144.4 259.5 144.1 260.1 144.1 C 260.6 144.1 261 144.3 261.2 144.6 C 261.5 145 261.6 145.5 261.6 146.1 C 261.58 146.11 261.6 148.2 261.6 148.2 L 260.8 148.2 C 260.8 148.2 260.85 146.19 260.8 146.2 C 260.8 145.8 260.8 145.4 260.6 145.1 C 260.5 144.9 260.3 144.8 259.9 144.8 C 259.5 144.8 259 145.1 258.8 145.5 C 258.75 145.53 258.8 148.2 258.8 148.2 L 258 148.2 L 258 144.2 L 258.8 144.2 Z M 265.6 144.2 C 265.6 144.2 265.6 144.73 265.6 144.7 C 265.9 144.3 266.4 144.1 266.9 144.1 C 268 144.1 268.9 145 268.9 146.2 C 268.9 147.3 268.1 148.3 266.9 148.3 C 266.4 148.3 265.9 148.1 265.6 147.8 C 265.6 147.76 265.6 150.2 265.6 150.2 L 264.9 150.2 L 264.9 144.2 L 265.6 144.2 Z M 265.6 147 C 265.9 147.4 266.3 147.6 266.8 147.6 C 267.7 147.6 268.1 146.9 268.1 146.2 C 268.1 145.4 267.6 144.8 266.8 144.8 C 266.3 144.8 265.8 145 265.6 145.5 C 265.6 145.5 265.6 147 265.6 147 Z M 272.3 148.2 C 272.3 148.2 272.26 147.77 272.3 147.8 C 271.9 148.1 271.6 148.3 271.1 148.3 C 270.3 148.3 269.6 147.9 269.6 147.1 C 269.6 146.1 270.5 145.7 271.4 145.7 C 271.6 145.7 271.9 145.8 272.2 145.8 C 272.2 145.8 272.2 145.7 272.2 145.7 C 272.2 145.1 271.9 144.7 271.3 144.7 C 270.8 144.7 270.3 144.9 270 145.1 C 270 145.1 269.8 144.5 269.8 144.5 C 270.2 144.3 270.8 144.1 271.4 144.1 C 272.5 144.1 273 144.7 273 145.8 C 272.95 145.76 273 148.2 273 148.2 L 272.3 148.2 Z M 272.2 146.4 C 271.9 146.3 271.7 146.3 271.5 146.3 C 271 146.3 270.4 146.4 270.4 147 C 270.4 147.5 270.7 147.7 271.1 147.7 C 271.6 147.7 271.9 147.5 272.2 147.2 C 272.2 147.2 272.2 146.4 272.2 146.4 Z M 275 144.9 C 275.2 144.4 275.6 144.1 276 144.1 C 276.2 144.1 276.3 144.1 276.4 144.1 C 276.4 144.1 276.3 144.9 276.3 144.9 C 276.2 144.9 276.1 144.8 275.9 144.8 C 275.5 144.8 275.2 145.1 275 145.5 C 274.98 145.51 275 148.2 275 148.2 L 274.2 148.2 L 274.2 144.2 L 275 144.2 C 275 144.2 274.98 144.85 275 144.9 Z M 279.5 148.2 C 279.5 148.2 279.48 147.77 279.5 147.8 C 279.2 148.1 278.8 148.3 278.3 148.3 C 277.5 148.3 276.9 147.9 276.9 147.1 C 276.9 146.1 277.8 145.7 278.6 145.7 C 278.8 145.7 279.1 145.8 279.4 145.8 C 279.4 145.8 279.4 145.7 279.4 145.7 C 279.4 145.1 279.2 144.7 278.5 144.7 C 278 144.7 277.6 144.9 277.2 145.1 C 277.2 145.1 277 144.5 277 144.5 C 277.4 144.3 278 144.1 278.6 144.1 C 279.8 144.1 280.2 144.7 280.2 145.8 C 280.17 145.76 280.2 148.2 280.2 148.2 L 279.5 148.2 Z M 279.4 146.4 C 279.2 146.3 278.9 146.3 278.7 146.3 C 278.2 146.3 277.6 146.4 277.6 147 C 277.6 147.5 277.9 147.7 278.4 147.7 C 278.8 147.7 279.1 147.5 279.4 147.2 C 279.4 147.2 279.4 146.4 279.4 146.4 Z M 281.1 146.2 C 281.1 145.1 281.9 144.1 283.2 144.1 C 283.6 144.1 284.1 144.3 284.4 144.6 C 284.41 144.63 284.4 142.2 284.4 142.2 L 285.1 142.2 L 285.1 148.2 L 284.4 148.2 C 284.4 148.2 284.41 147.65 284.4 147.7 C 284.1 148.1 283.6 148.3 283.1 148.3 C 282 148.3 281.1 147.4 281.1 146.2 Z M 284.4 146.9 C 284.4 146.9 284.4 145.4 284.4 145.4 C 284.1 145 283.7 144.8 283.2 144.8 C 282.3 144.8 281.9 145.5 281.9 146.2 C 281.9 146.9 282.4 147.6 283.2 147.6 C 283.7 147.6 284.2 147.4 284.4 146.9 Z M 286.5 148.2 L 286.5 144.2 L 287.2 144.2 L 287.2 148.2 L 286.5 148.2 Z M 286.5 143.4 L 286.5 142.6 L 287.2 142.6 L 287.2 143.4 L 286.5 143.4 Z M 290.5 145 C 290.3 144.8 290 144.7 289.7 144.7 C 289.3 144.7 289.1 144.9 289.1 145.2 C 289.1 145.5 289.5 145.7 289.9 145.8 C 290.4 146 291 146.3 291 147 C 291 147.9 290.4 148.3 289.6 148.3 C 289.1 148.3 288.5 148.1 288.2 147.7 C 288.2 147.7 288.7 147.3 288.7 147.3 C 289 147.5 289.3 147.7 289.6 147.7 C 290 147.7 290.3 147.5 290.3 147.1 C 290.3 146.8 290 146.6 289.6 146.4 C 289 146.2 288.4 146 288.4 145.3 C 288.4 144.5 289 144.1 289.7 144.1 C 290.2 144.1 290.6 144.2 290.9 144.5 C 290.9 144.5 290.5 145 290.5 145 Z M 292.6 146.4 C 292.6 147.1 293.1 147.7 293.8 147.7 C 294.4 147.7 294.8 147.5 295 147 C 295 147 295.6 147.4 295.6 147.4 C 295.2 148 294.6 148.3 293.8 148.3 C 292.5 148.3 291.8 147.4 291.8 146.2 C 291.8 145 292.7 144.1 293.8 144.1 C 294.9 144.1 295.6 144.9 295.6 146 C 295.6 146.1 295.6 146.3 295.6 146.4 C 295.6 146.4 292.6 146.4 292.6 146.4 Z M 292.6 145.8 C 292.6 145.8 294.9 145.8 294.9 145.8 C 294.8 145.2 294.4 144.7 293.8 144.7 C 293.2 144.7 292.8 145.2 292.6 145.8 Z M 297 149.3 L 296.3 149.3 L 296.7 147.3 L 297.5 147.3 L 297 149.3 Z M 304.1 147.3 L 304.2 147.3 L 305 144.2 L 305.7 144.2 L 304.6 148.2 L 303.8 148.2 L 302.9 145.1 L 302.9 145.1 L 302 148.2 L 301.2 148.2 L 300.1 144.2 L 300.9 144.2 L 301.6 147.3 L 301.6 147.3 L 302.5 144.2 L 303.3 144.2 L 304.1 147.3 Z M 307.2 144.8 C 307.5 144.4 308 144.1 308.5 144.1 C 309.1 144.1 309.5 144.3 309.7 144.6 C 310 145 310.1 145.5 310.1 146.1 C 310.05 146.11 310.1 148.2 310.1 148.2 L 309.3 148.2 C 309.3 148.2 309.33 146.19 309.3 146.2 C 309.3 145.8 309.3 145.4 309.1 145.1 C 309 144.9 308.8 144.8 308.4 144.8 C 308 144.8 307.5 145.1 307.2 145.5 C 307.23 145.53 307.2 148.2 307.2 148.2 L 306.5 148.2 L 306.5 142.2 L 307.2 142.2 C 307.2 142.2 307.23 144.85 307.2 144.8 Z M 311.7 146.4 C 311.8 147.1 312.3 147.7 313 147.7 C 313.6 147.7 314 147.5 314.2 147 C 314.2 147 314.8 147.4 314.8 147.4 C 314.4 148 313.8 148.3 313 148.3 C 311.7 148.3 311 147.4 311 146.2 C 311 145 311.9 144.1 313 144.1 C 314.1 144.1 314.8 144.9 314.8 146 C 314.8 146.1 314.8 146.3 314.8 146.4 C 314.8 146.4 311.7 146.4 311.7 146.4 Z M 311.8 145.8 C 311.8 145.8 314.1 145.8 314.1 145.8 C 314 145.2 313.6 144.7 313 144.7 C 312.4 144.7 311.9 145.2 311.8 145.8 Z M 316.6 144.9 C 316.8 144.4 317.2 144.1 317.6 144.1 C 317.8 144.1 317.9 144.1 318 144.1 C 318 144.1 317.9 144.9 317.9 144.9 C 317.8 144.9 317.7 144.8 317.5 144.8 C 317.1 144.8 316.8 145.1 316.6 145.5 C 316.56 145.51 316.6 148.2 316.6 148.2 L 315.8 148.2 L 315.8 144.2 L 316.6 144.2 C 316.6 144.2 316.56 144.85 316.6 144.9 Z M 319.1 146.4 C 319.1 147.1 319.6 147.7 320.4 147.7 C 320.9 147.7 321.3 147.5 321.6 147 C 321.6 147 322.1 147.4 322.1 147.4 C 321.7 148 321.1 148.3 320.3 148.3 C 319.1 148.3 318.4 147.4 318.4 146.2 C 318.4 145 319.2 144.1 320.3 144.1 C 321.4 144.1 322.2 144.9 322.2 146 C 322.2 146.1 322.1 146.3 322.1 146.4 C 322.1 146.4 319.1 146.4 319.1 146.4 Z M 319.1 145.8 C 319.1 145.8 321.4 145.8 321.4 145.8 C 321.4 145.2 320.9 144.7 320.3 144.7 C 319.7 144.7 319.3 145.2 319.1 145.8 Z M 325.9 144.9 C 326.1 144.4 326.5 144.1 326.9 144.1 C 327.1 144.1 327.2 144.1 327.4 144.1 C 327.4 144.1 327.2 144.9 327.2 144.9 C 327.1 144.9 327 144.8 326.8 144.8 C 326.4 144.8 326.1 145.1 325.9 145.5 C 325.89 145.51 325.9 148.2 325.9 148.2 L 325.2 148.2 L 325.2 144.2 L 325.9 144.2 C 325.9 144.2 325.89 144.85 325.9 144.9 Z M 328 148.2 L 328 144.2 L 328.8 144.2 L 328.8 148.2 L 328 148.2 Z M 328 143.4 L 328 142.6 L 328.8 142.6 L 328.8 143.4 L 328 143.4 Z M 333 147.9 C 332.7 148.1 332.3 148.3 331.8 148.3 C 330.7 148.3 329.8 147.5 329.8 146.2 C 329.8 145 330.7 144.1 331.8 144.1 C 332.3 144.1 332.7 144.2 333 144.4 C 333 144.4 332.6 145 332.6 145 C 332.4 144.9 332.1 144.8 331.8 144.8 C 331.1 144.8 330.5 145.4 330.5 146.2 C 330.5 147.1 331.1 147.6 331.8 147.6 C 332.1 147.6 332.5 147.5 332.7 147.3 C 332.7 147.3 333 147.9 333 147.9 Z M 334.6 144.8 C 334.9 144.4 335.4 144.1 335.9 144.1 C 336.5 144.1 336.9 144.3 337.1 144.6 C 337.4 145 337.4 145.5 337.4 146.1 C 337.45 146.11 337.4 148.2 337.4 148.2 L 336.7 148.2 C 336.7 148.2 336.72 146.19 336.7 146.2 C 336.7 145.8 336.7 145.4 336.5 145.1 C 336.4 144.9 336.2 144.8 335.8 144.8 C 335.4 144.8 334.9 145.1 334.6 145.5 C 334.62 145.53 334.6 148.2 334.6 148.2 L 333.9 148.2 L 333.9 142.2 L 334.6 142.2 C 334.6 142.2 334.62 144.85 334.6 144.8 Z M 343.7 147.9 C 343.4 148.1 342.9 148.3 342.5 148.3 C 341.3 148.3 340.4 147.5 340.4 146.2 C 340.4 145 341.3 144.1 342.5 144.1 C 342.9 144.1 343.3 144.2 343.6 144.4 C 343.6 144.4 343.3 145 343.3 145 C 343.1 144.9 342.7 144.8 342.5 144.8 C 341.7 144.8 341.1 145.4 341.1 146.2 C 341.1 147.1 341.8 147.6 342.5 147.6 C 342.7 147.6 343.1 147.5 343.3 147.3 C 343.3 147.3 343.7 147.9 343.7 147.9 Z M 348.3 146.2 C 348.3 147.4 347.4 148.3 346.2 148.3 C 345.1 148.3 344.2 147.4 344.2 146.2 C 344.2 145 345.1 144.1 346.2 144.1 C 347.4 144.1 348.3 145 348.3 146.2 Z M 346.2 144.8 C 345.5 144.8 344.9 145.4 344.9 146.2 C 344.9 147 345.5 147.6 346.2 147.6 C 347 147.6 347.5 147 347.5 146.2 C 347.5 145.4 347 144.8 346.2 144.8 Z M 350 148.2 L 349.3 148.2 L 349.3 142.2 L 350 142.2 L 350 148.2 Z M 355.1 146.2 C 355.1 147.4 354.2 148.3 353.1 148.3 C 351.9 148.3 351 147.4 351 146.2 C 351 145 351.9 144.1 353.1 144.1 C 354.2 144.1 355.1 145 355.1 146.2 Z M 353.1 144.8 C 352.3 144.8 351.8 145.4 351.8 146.2 C 351.8 147 352.3 147.6 353.1 147.6 C 353.8 147.6 354.4 147 354.4 146.2 C 354.4 145.4 353.8 144.8 353.1 144.8 Z M 356.8 144.9 C 357.1 144.4 357.4 144.1 357.9 144.1 C 358 144.1 358.2 144.1 358.3 144.1 C 358.3 144.1 358.2 144.9 358.2 144.9 C 358.1 144.9 357.9 144.8 357.8 144.8 C 357.4 144.8 357.1 145.1 356.8 145.5 C 356.85 145.51 356.8 148.2 356.8 148.2 L 356.1 148.2 L 356.1 144.2 L 356.8 144.2 C 356.8 144.2 356.85 144.85 356.8 144.9 Z M 360.9 145 C 360.7 144.8 360.4 144.7 360.1 144.7 C 359.8 144.7 359.5 144.9 359.5 145.2 C 359.5 145.5 359.9 145.7 360.3 145.8 C 360.8 146 361.5 146.3 361.5 147 C 361.5 147.9 360.8 148.3 360 148.3 C 359.5 148.3 359 148.1 358.6 147.7 C 358.6 147.7 359.2 147.3 359.2 147.3 C 359.4 147.5 359.7 147.7 360 147.7 C 360.4 147.7 360.8 147.5 360.8 147.1 C 360.8 146.8 360.4 146.6 360 146.4 C 359.5 146.2 358.8 146 358.8 145.3 C 358.8 144.5 359.5 144.1 360.1 144.1 C 360.6 144.1 361 144.2 361.4 144.5 C 361.4 144.5 360.9 145 360.9 145 Z M 367 148.2 C 367 148.2 366.96 147.77 367 147.8 C 366.6 148.1 366.3 148.3 365.8 148.3 C 365 148.3 364.3 147.9 364.3 147.1 C 364.3 146.1 365.2 145.7 366.1 145.7 C 366.3 145.7 366.6 145.8 366.9 145.8 C 366.9 145.8 366.9 145.7 366.9 145.7 C 366.9 145.1 366.6 144.7 366 144.7 C 365.5 144.7 365 144.9 364.7 145.1 C 364.7 145.1 364.5 144.5 364.5 144.5 C 364.9 144.3 365.5 144.1 366.1 144.1 C 367.2 144.1 367.7 144.7 367.7 145.8 C 367.65 145.76 367.7 148.2 367.7 148.2 L 367 148.2 Z M 366.9 146.4 C 366.6 146.3 366.4 146.3 366.2 146.3 C 365.7 146.3 365.1 146.4 365.1 147 C 365.1 147.5 365.4 147.7 365.8 147.7 C 366.3 147.7 366.6 147.5 366.9 147.2 C 366.9 147.2 366.9 146.4 366.9 146.4 Z M 369.7 144.2 C 369.7 144.2 369.68 144.85 369.7 144.8 C 370 144.4 370.4 144.1 371 144.1 C 371.5 144.1 371.9 144.3 372.1 144.6 C 372.4 145 372.5 145.5 372.5 146.1 C 372.5 146.11 372.5 148.2 372.5 148.2 L 371.8 148.2 C 371.8 148.2 371.77 146.19 371.8 146.2 C 371.8 145.8 371.8 145.4 371.6 145.1 C 371.4 144.9 371.2 144.8 370.9 144.8 C 370.4 144.8 370 145.1 369.7 145.5 C 369.68 145.53 369.7 148.2 369.7 148.2 L 369 148.2 L 369 144.2 L 369.7 144.2 Z M 373.5 146.2 C 373.5 145.1 374.3 144.1 375.5 144.1 C 375.9 144.1 376.4 144.3 376.7 144.6 C 376.73 144.63 376.7 142.2 376.7 142.2 L 377.5 142.2 L 377.5 148.2 L 376.7 148.2 C 376.7 148.2 376.73 147.65 376.7 147.7 C 376.4 148.1 375.9 148.3 375.5 148.3 C 374.3 148.3 373.5 147.4 373.5 146.2 Z M 376.7 146.9 C 376.7 146.9 376.7 145.4 376.7 145.4 C 376.5 145 376 144.8 375.6 144.8 C 374.6 144.8 374.2 145.5 374.2 146.2 C 374.2 146.9 374.7 147.6 375.6 147.6 C 376 147.6 376.5 147.4 376.7 146.9 Z " stroke="none" fill="#535a5d"/>  </g>  <g id="Polygon41221">    <path d="M 111.3 100.1 C 111.3 100.1 113.55 100.09 113.6 100.1 C 114.4 100.1 115.3 100.2 116 100.7 C 116.6 101.1 117 101.8 117 102.6 C 117 103.4 116.6 104.1 115.6 104.4 C 116.8 104.8 117.3 105.5 117.3 106.6 C 117.3 107.6 116.8 108.4 115.8 108.8 C 115.1 109.1 114.3 109.2 113.4 109.2 C 113.44 109.19 111.3 109.2 111.3 109.2 L 111.3 100.1 Z M 112.7 108 C 112.7 108 113.35 107.98 113.3 108 C 114.1 108 114.7 108 115.2 107.7 C 115.6 107.5 115.9 107.2 115.9 106.6 C 115.9 105.7 115.2 105.1 114.1 105.1 C 114.07 105.13 112.7 105.1 112.7 105.1 L 112.7 108 Z M 112.7 103.9 C 112.7 103.9 113.53 103.93 113.5 103.9 C 114.8 103.9 115.6 103.5 115.6 102.6 C 115.6 102.1 115.4 101.8 115.1 101.6 C 114.7 101.3 114 101.3 113.3 101.3 C 113.29 101.3 112.7 101.3 112.7 101.3 L 112.7 103.9 Z M 124.1 101.2 C 122.3 101.2 120.9 102.7 120.9 104.6 C 120.9 106.6 122.3 108.1 124.1 108.1 C 126 108.1 127.3 106.6 127.3 104.6 C 127.3 102.7 126 101.2 124.1 101.2 Z M 124.1 109.3 C 121.5 109.3 119.4 107.2 119.4 104.6 C 119.4 102 121.5 99.9 124.1 99.9 C 126.8 99.9 128.8 102 128.8 104.6 C 128.8 107.2 126.8 109.3 124.1 109.3 Z M 137.4 109.2 L 137.4 105.1 L 132.8 105.1 L 132.8 109.2 L 131.4 109.2 L 131.4 100.1 L 132.8 100.1 L 132.8 103.9 L 137.4 103.9 L 137.4 100.1 L 138.8 100.1 L 138.8 109.2 L 137.4 109.2 Z M 146.1 101.2 C 144.2 101.2 142.8 102.7 142.8 104.6 C 142.8 106.6 144.2 108.1 146.1 108.1 C 147.9 108.1 149.3 106.6 149.3 104.6 C 149.3 102.7 147.9 101.2 146.1 101.2 Z M 146.1 109.3 C 143.4 109.3 141.3 107.2 141.3 104.6 C 141.3 102 143.4 99.9 146.1 99.9 C 148.7 99.9 150.8 102 150.8 104.6 C 150.8 107.2 148.7 109.3 146.1 109.3 Z M 160.8 109.2 L 159.6 109.2 L 156.1 100.1 L 157.7 100.1 L 160.2 107.1 L 160.3 107.1 L 162.8 100.1 L 164.3 100.1 L 160.8 109.2 Z M 166.3 109.2 L 166.3 100.1 L 167.7 100.1 L 167.7 109.2 L 166.3 109.2 Z M 170.7 100.1 C 170.7 100.1 172.94 100.09 172.9 100.1 C 173.8 100.1 174.7 100.2 175.4 100.7 C 176 101.1 176.4 101.8 176.4 102.6 C 176.4 103.4 176 104.1 175 104.4 C 176.1 104.8 176.7 105.5 176.7 106.6 C 176.7 107.6 176.1 108.4 175.2 108.8 C 174.5 109.1 173.6 109.2 172.8 109.2 C 172.82 109.19 170.7 109.2 170.7 109.2 L 170.7 100.1 Z M 172.1 108 C 172.1 108 172.73 107.98 172.7 108 C 173.4 108 174.1 108 174.6 107.7 C 175 107.5 175.3 107.2 175.3 106.6 C 175.3 105.7 174.6 105.1 173.5 105.1 C 173.46 105.13 172.1 105.1 172.1 105.1 L 172.1 108 Z M 172.1 103.9 C 172.1 103.9 172.91 103.93 172.9 103.9 C 174.2 103.9 175 103.5 175 102.6 C 175 102.1 174.8 101.8 174.5 101.6 C 174 101.3 173.4 101.3 172.7 101.3 C 172.68 101.3 172.1 101.3 172.1 101.3 L 172.1 103.9 Z M 179.4 109.2 L 179.4 100.1 L 184.9 100.1 L 184.9 101.3 L 180.8 101.3 L 180.8 103.9 L 184.9 103.9 L 184.9 105.1 L 180.8 105.1 L 180.8 108 L 184.9 108 L 184.9 109.2 L 179.4 109.2 Z M 190.5 101.2 C 189.6 101.2 188.9 101.6 188.9 102.3 C 188.9 103.1 189.8 103.4 190.7 103.7 C 192 104.1 193.5 104.7 193.5 106.5 C 193.5 108.5 191.7 109.3 190.3 109.3 C 188.9 109.3 187.9 108.9 186.9 107.9 C 186.9 107.9 187.9 107 187.9 107 C 188.7 107.8 189.4 108.1 190.3 108.1 C 191.2 108.1 192 107.7 192 106.6 C 192 105.7 191.1 105.4 190.1 105 C 188.8 104.6 187.6 104 187.6 102.5 C 187.6 100.7 188.8 99.9 190.3 99.9 C 191.4 99.9 192.4 100.3 193.2 100.9 C 193.2 100.9 192.4 101.9 192.4 101.9 C 191.9 101.5 191.2 101.2 190.5 101.2 Z M 200 109.2 L 200 100.1 L 205.6 100.1 L 205.6 101.3 L 201.4 101.3 L 201.4 103.9 L 205.6 103.9 L 205.6 105.1 L 201.4 105.1 L 201.4 108 L 205.6 108 L 205.6 109.2 L 200 109.2 Z M 208.2 109.2 L 208.2 100.1 L 209.6 100.1 L 209.6 108 L 213.5 108 L 213.5 109.2 L 208.2 109.2 Z M 215.4 109.2 L 215.4 100.1 L 221 100.1 L 221 101.3 L 216.8 101.3 L 216.8 103.9 L 221 103.9 L 221 105.1 L 216.8 105.1 L 216.8 108 L 221 108 L 221 109.2 L 215.4 109.2 Z M 227.3 109.2 L 226.1 109.2 L 222.7 100.1 L 224.3 100.1 L 226.8 107.1 L 226.8 107.1 L 229.4 100.1 L 230.9 100.1 L 227.3 109.2 Z M 237.4 107.3 L 233.6 107.3 L 232.9 109.2 L 231.4 109.2 L 235 100.1 L 236.2 100.1 L 239.6 109.2 L 238 109.2 L 237.4 107.3 Z M 234.1 106.1 L 236.9 106.1 L 235.5 102.2 L 235.5 102.2 L 234.1 106.1 Z M 243.8 101.3 L 243.8 109.2 L 242.4 109.2 L 242.4 101.3 L 240.2 101.3 L 240.2 100.1 L 246.1 100.1 L 246.1 101.3 L 243.8 101.3 Z M 248.2 109.2 L 248.2 100.1 L 253.7 100.1 L 253.7 101.3 L 249.5 101.3 L 249.5 103.9 L 253.7 103.9 L 253.7 105.1 L 249.5 105.1 L 249.5 108 L 253.7 108 L 253.7 109.2 L 248.2 109.2 Z M 264.7 108.1 C 265.4 108.1 266.1 107.9 266.7 107.4 C 266.7 107.4 267.4 108.5 267.4 108.5 C 266.6 109 265.7 109.3 264.7 109.3 C 261.9 109.3 259.8 107.5 259.8 104.6 C 259.8 102 262 99.9 264.7 99.9 C 265.6 99.9 266.5 100.2 267.2 100.7 C 267.2 100.7 266.5 101.8 266.5 101.8 C 266 101.4 265.4 101.2 264.7 101.2 C 262.7 101.2 261.3 102.6 261.3 104.6 C 261.3 106.8 262.7 108.1 264.7 108.1 Z M 276.7 104.9 C 276.7 107.8 275.6 109.3 273.1 109.3 C 270.7 109.3 269.6 107.8 269.6 104.9 C 269.6 104.91 269.6 100.1 269.6 100.1 L 271 100.1 C 271 100.1 270.99 105.21 271 105.2 C 271 107.2 271.8 108.1 273.2 108.1 C 274.5 108.1 275.3 107.2 275.3 105.2 C 275.32 105.21 275.3 100.1 275.3 100.1 L 276.7 100.1 C 276.7 100.1 276.71 104.91 276.7 104.9 Z M 282.4 100.1 C 283.8 100.1 285.6 100.8 285.6 102.7 C 285.6 104.3 284.5 105 283.4 105.3 C 283.42 105.29 286.3 109.2 286.3 109.2 L 284.5 109.2 L 281.9 105.4 L 281.1 105.4 L 281.1 109.2 L 279.7 109.2 L 279.7 100.1 C 279.7 100.1 282.42 100.09 282.4 100.1 Z M 281.1 104.2 C 281.1 104.2 282.11 104.17 282.1 104.2 C 283.3 104.2 284.1 103.8 284.1 102.8 C 284.1 101.9 283.4 101.3 282.4 101.3 C 282.36 101.31 281.1 101.3 281.1 101.3 L 281.1 104.2 Z M 293.6 107.3 L 289.8 107.3 L 289.2 109.2 L 287.6 109.2 L 291.2 100.1 L 292.4 100.1 L 295.9 109.2 L 294.2 109.2 L 293.6 107.3 Z M 290.3 106.1 L 293.1 106.1 L 291.7 102.2 L 291.7 102.2 L 290.3 106.1 Z M 300 101.3 L 300 109.2 L 298.7 109.2 L 298.7 101.3 L 296.4 101.3 L 296.4 100.1 L 302.3 100.1 L 302.3 101.3 L 300 101.3 Z M 304.4 109.2 L 304.4 100.1 L 309.9 100.1 L 309.9 101.3 L 305.8 101.3 L 305.8 103.9 L 309.9 103.9 L 309.9 105.1 L 305.8 105.1 L 305.8 108 L 309.9 108 L 309.9 109.2 L 304.4 109.2 Z M 312.6 100.1 C 312.6 100.1 315.05 100.09 315.1 100.1 C 317.4 100.1 320 101.3 320 104.6 C 320 108 317.4 109.2 314.9 109.2 C 314.93 109.19 312.6 109.2 312.6 109.2 L 312.6 100.1 Z M 314.8 101.3 C 314.83 101.31 313.9 101.3 313.9 101.3 L 313.9 108 C 313.9 108 314.32 107.97 314.3 108 C 316.8 108 318.5 107.2 318.5 104.7 C 318.5 102.5 317.1 101.3 314.8 101.3 Z M 329.3 101.2 C 328.5 101.2 327.8 101.6 327.8 102.3 C 327.8 103.1 328.7 103.4 329.6 103.7 C 330.9 104.1 332.4 104.7 332.4 106.5 C 332.4 108.5 330.6 109.3 329.2 109.3 C 327.8 109.3 326.8 108.9 325.8 107.9 C 325.8 107.9 326.8 107 326.8 107 C 327.6 107.8 328.2 108.1 329.2 108.1 C 330.1 108.1 330.9 107.7 330.9 106.6 C 330.9 105.7 330 105.4 329 105 C 327.7 104.6 326.4 104 326.4 102.5 C 326.4 100.7 327.7 99.9 329.2 99.9 C 330.3 99.9 331.2 100.3 332.1 100.9 C 332.1 100.9 331.2 101.9 331.2 101.9 C 330.8 101.5 330.1 101.2 329.3 101.2 Z M 337.6 100.1 C 339.1 100.1 340.9 100.8 340.9 102.8 C 340.9 104.9 339.1 105.6 337.6 105.6 C 337.63 105.6 336.3 105.6 336.3 105.6 L 336.3 109.2 L 334.9 109.2 L 334.9 100.1 C 334.9 100.1 337.63 100.09 337.6 100.1 Z M 336.3 104.4 C 336.3 104.4 337.32 104.38 337.3 104.4 C 338.5 104.4 339.4 104 339.4 102.9 C 339.4 101.9 338.7 101.3 337.6 101.3 C 337.57 101.31 336.3 101.3 336.3 101.3 L 336.3 104.4 Z M 347.5 107.3 L 343.7 107.3 L 343.1 109.2 L 341.5 109.2 L 345.1 100.1 L 346.3 100.1 L 349.7 109.2 L 348.1 109.2 L 347.5 107.3 Z M 344.2 106.1 L 347 106.1 L 345.6 102.2 L 345.6 102.2 L 344.2 106.1 Z M 356 108.1 C 356.7 108.1 357.3 107.9 358 107.4 C 358 107.4 358.7 108.5 358.7 108.5 C 357.9 109 356.9 109.3 355.9 109.3 C 353.2 109.3 351.1 107.5 351.1 104.6 C 351.1 102 353.3 99.9 356 99.9 C 356.9 99.9 357.7 100.2 358.5 100.7 C 358.5 100.7 357.8 101.8 357.8 101.8 C 357.3 101.4 356.6 101.2 356 101.2 C 354 101.2 352.6 102.6 352.6 104.6 C 352.6 106.8 353.9 108.1 356 108.1 Z M 360.9 109.2 L 360.9 100.1 L 366.5 100.1 L 366.5 101.3 L 362.3 101.3 L 362.3 103.9 L 366.5 103.9 L 366.5 105.1 L 362.3 105.1 L 362.3 108 L 366.5 108 L 366.5 109.2 L 360.9 109.2 Z M 372 101.2 C 371.1 101.2 370.5 101.6 370.5 102.3 C 370.5 103.1 371.3 103.4 372.3 103.7 C 373.6 104.1 375.1 104.7 375.1 106.5 C 375.1 108.5 373.3 109.3 371.8 109.3 C 370.5 109.3 369.5 108.9 368.5 107.9 C 368.5 107.9 369.5 107 369.5 107 C 370.3 107.8 370.9 108.1 371.8 108.1 C 372.7 108.1 373.6 107.7 373.6 106.6 C 373.6 105.7 372.7 105.4 371.6 105 C 370.4 104.6 369.1 104 369.1 102.5 C 369.1 100.7 370.4 99.9 371.9 99.9 C 373 99.9 373.9 100.3 374.8 100.9 C 374.8 100.9 373.9 101.9 373.9 101.9 C 373.5 101.5 372.7 101.2 372 101.2 Z " stroke="none" fill="#535a5d"/>  </g>  <g id="Polygon41220">    <path d="M 110.1 27.9 C 109.9 27.7 109.7 27.4 109.4 27.2 C 109.1 27 108.7 26.8 108.4 26.6 C 108 26.4 107.6 26.3 107.2 26.1 C 106.7 26 106.2 26 105.7 26 C 104.9 26 104.1 26.1 103.4 26.3 C 102.7 26.6 102.1 27 101.6 27.5 C 101 28 100.6 28.7 100.3 29.5 C 100 30.3 99.9 31.3 99.9 32.4 C 99.9 33.4 100 34.2 100.3 35 C 100.5 35.8 100.9 36.5 101.4 37 C 102 37.6 102.6 38 103.3 38.3 C 104.1 38.6 104.9 38.7 105.8 38.7 C 106.1 38.7 106.4 38.7 106.7 38.7 C 107 38.6 107.3 38.6 107.6 38.5 C 107.9 38.5 108.2 38.4 108.4 38.3 C 108.6 38.3 108.9 38.2 109 38.1 C 109 37.7 109.1 37.3 109.1 36.9 C 109.1 36.5 109.1 36.1 109.1 35.6 C 109.1 35.2 109.1 34.7 109 34.2 C 109 33.8 109 33.3 109 32.9 C 109.3 33 109.6 33 109.9 33 C 110.1 33 110.2 33 110.4 33 C 110.5 33 110.7 32.9 110.8 32.9 C 110.8 33.2 110.7 33.7 110.7 34.4 C 110.7 35 110.7 35.9 110.7 37 C 110.7 37.2 110.7 37.5 110.7 37.8 C 110.7 38.1 110.7 38.3 110.7 38.6 C 110.5 38.7 110.1 38.8 109.7 38.9 C 109.3 39 108.8 39.1 108.3 39.2 C 107.9 39.3 107.4 39.3 106.9 39.4 C 106.4 39.5 106 39.5 105.6 39.5 C 104.4 39.5 103.4 39.3 102.4 39.1 C 101.5 38.8 100.7 38.3 100 37.7 C 99.3 37.1 98.8 36.4 98.5 35.5 C 98.1 34.6 97.9 33.6 97.9 32.4 C 97.9 31.3 98.1 30.2 98.5 29.4 C 98.8 28.5 99.4 27.7 100.1 27.1 C 100.7 26.5 101.6 26 102.5 25.7 C 103.5 25.4 104.6 25.2 105.7 25.2 C 106.4 25.2 107 25.3 107.5 25.3 C 108.1 25.4 108.5 25.5 108.9 25.6 C 109.3 25.7 109.7 25.9 110 26 C 110.3 26.1 110.6 26.3 110.8 26.4 C 110.7 26.6 110.6 26.8 110.5 27.1 C 110.5 27.4 110.4 27.7 110.4 27.9 C 110.37 27.93 110.1 27.9 110.1 27.9 C 110.1 27.9 110.13 27.93 110.1 27.9 Z M 115.2 30.7 C 115.2 29.8 115.2 28.9 115.2 28.1 C 115.1 27.2 115.1 26.4 115.1 25.5 C 115.2 25.5 115.4 25.5 115.6 25.6 C 115.7 25.6 115.9 25.6 116.1 25.6 C 116.2 25.6 116.4 25.6 116.5 25.6 C 116.7 25.5 116.9 25.5 117 25.5 C 117 26.4 117 27.2 116.9 28.1 C 116.9 28.9 116.9 29.8 116.9 30.7 C 116.9 32.3 116.9 33.8 116.9 35 C 116.9 36.3 116.9 37.4 116.9 38.3 C 117.9 38.3 118.8 38.3 119.7 38.3 C 120.5 38.3 121.5 38.2 122.5 38.1 C 122.4 38.3 122.4 38.5 122.4 38.7 C 122.4 38.8 122.4 39 122.5 39.2 C 121.8 39.2 121.2 39.2 120.6 39.2 C 120 39.2 119.4 39.2 118.8 39.2 C 118.1 39.2 117.5 39.2 116.9 39.2 C 116.3 39.2 115.7 39.2 115.1 39.2 C 115.1 38.4 115.1 37.6 115.2 36.7 C 115.2 35.9 115.2 35 115.2 34.1 C 115.23 34.11 115.2 30.7 115.2 30.7 C 115.2 30.7 115.23 30.67 115.2 30.7 Z M 125.1 32.4 C 125.1 31.3 125.3 30.2 125.7 29.4 C 126 28.5 126.5 27.7 127.2 27.1 C 127.9 26.5 128.7 26 129.6 25.7 C 130.5 25.4 131.5 25.2 132.6 25.2 C 133.7 25.2 134.7 25.4 135.6 25.7 C 136.6 26 137.3 26.5 138 27.1 C 138.7 27.7 139.2 28.5 139.5 29.4 C 139.9 30.2 140.1 31.3 140.1 32.4 C 140.1 33.5 139.9 34.5 139.5 35.4 C 139.2 36.3 138.7 37.1 138 37.7 C 137.3 38.3 136.6 38.7 135.6 39 C 134.7 39.3 133.7 39.5 132.6 39.5 C 131.5 39.5 130.5 39.3 129.6 39 C 128.7 38.7 127.9 38.3 127.2 37.7 C 126.5 37.1 126 36.3 125.7 35.4 C 125.3 34.5 125.1 33.5 125.1 32.4 Z M 138.1 32.4 C 138.1 31.3 138 30.3 137.7 29.5 C 137.4 28.7 137 28 136.5 27.5 C 136 27 135.5 26.6 134.8 26.3 C 134.1 26.1 133.4 26 132.6 26 C 131.8 26 131.1 26.1 130.4 26.3 C 129.7 26.6 129.2 27 128.7 27.5 C 128.2 28 127.8 28.7 127.5 29.5 C 127.2 30.3 127.1 31.3 127.1 32.4 C 127.1 33.5 127.2 34.5 127.5 35.3 C 127.8 36.1 128.2 36.7 128.7 37.3 C 129.2 37.8 129.7 38.2 130.4 38.4 C 131.1 38.7 131.8 38.8 132.6 38.8 C 133.4 38.8 134.1 38.7 134.8 38.4 C 135.5 38.2 136 37.8 136.5 37.3 C 137 36.7 137.4 36.1 137.7 35.3 C 138 34.5 138.1 33.5 138.1 32.4 Z M 145.5 34.4 C 145.5 35.1 145.5 35.8 145.6 36.4 C 145.6 37.1 145.6 37.8 145.6 38.4 C 145.9 38.5 146.2 38.5 146.5 38.5 C 146.9 38.5 147.2 38.5 147.6 38.5 C 148 38.5 148.4 38.5 148.8 38.3 C 149.2 38.2 149.6 38 149.9 37.7 C 150.2 37.4 150.4 37 150.6 36.6 C 150.7 36.2 150.8 35.7 150.8 35.2 C 150.8 34.6 150.7 34.1 150.5 33.8 C 150.3 33.4 150 33.1 149.6 32.9 C 149.2 32.7 148.8 32.6 148.2 32.5 C 147.7 32.4 147.1 32.4 146.4 32.4 C 146.43 32.37 145.5 32.4 145.5 32.4 C 145.5 32.4 145.53 34.41 145.5 34.4 Z M 146.6 31.6 C 147.1 31.6 147.5 31.6 148 31.5 C 148.5 31.4 148.9 31.2 149.2 31 C 149.6 30.8 149.9 30.5 150.1 30.1 C 150.3 29.8 150.4 29.3 150.4 28.7 C 150.4 28.2 150.3 27.8 150.1 27.4 C 149.9 27.1 149.7 26.9 149.4 26.7 C 149.1 26.5 148.7 26.4 148.3 26.3 C 147.9 26.3 147.6 26.2 147.2 26.2 C 146.8 26.2 146.5 26.2 146.3 26.3 C 146 26.3 145.8 26.3 145.6 26.3 C 145.6 27 145.6 27.6 145.6 28.2 C 145.5 28.9 145.5 29.5 145.5 30.1 C 145.53 30.13 145.5 31.6 145.5 31.6 C 145.5 31.6 146.61 31.63 146.6 31.6 Z M 143.9 30.6 C 143.9 29.8 143.9 28.9 143.8 28 C 143.8 27.2 143.8 26.3 143.7 25.5 C 144.1 25.5 144.4 25.5 144.8 25.6 C 145.1 25.6 145.5 25.6 145.8 25.6 C 146.2 25.6 146.5 25.6 146.9 25.5 C 147.3 25.5 147.6 25.5 148 25.5 C 148.5 25.5 149.1 25.5 149.6 25.6 C 150.1 25.7 150.5 25.9 150.9 26.1 C 151.3 26.3 151.6 26.6 151.8 27 C 152.1 27.3 152.2 27.8 152.2 28.4 C 152.2 29.4 151.9 30.1 151.3 30.7 C 150.6 31.2 149.8 31.6 148.8 31.9 C 148.8 31.9 148.8 31.9 148.8 31.9 C 150 32 151 32.2 151.6 32.8 C 152.3 33.3 152.7 34.1 152.7 35.3 C 152.7 36 152.5 36.6 152.2 37.1 C 151.9 37.7 151.5 38.1 151 38.4 C 150.5 38.7 150 38.9 149.4 39 C 148.8 39.2 148.2 39.2 147.6 39.2 C 147.3 39.2 147 39.2 146.6 39.2 C 146.3 39.2 146 39.2 145.7 39.2 C 145.3 39.2 145 39.2 144.7 39.2 C 144.4 39.2 144 39.2 143.7 39.2 C 143.8 38.4 143.8 37.5 143.8 36.7 C 143.9 35.8 143.9 35 143.9 34.1 C 143.9 34.1 143.9 30.6 143.9 30.6 Z M 158.6 33 C 158.9 33 159.3 33 159.6 33 C 160 33 160.4 33 160.7 33 C 161.1 33 161.5 33 161.8 33 C 162.2 33 162.6 33 163 33 C 162.95 33.01 160.7 27.9 160.7 27.9 C 160.7 27.9 158.55 33.01 158.6 33 Z M 167.4 39.2 C 167.2 39.2 167 39.2 166.9 39.2 C 166.7 39.2 166.5 39.2 166.4 39.2 C 166.2 39.2 166 39.2 165.8 39.2 C 165.7 39.2 165.5 39.2 165.3 39.2 C 165.2 38.9 165.1 38.6 164.9 38.1 C 164.8 37.7 164.6 37.2 164.4 36.8 C 164.2 36.3 164 35.8 163.8 35.3 C 163.6 34.8 163.4 34.4 163.2 33.9 C 162.8 33.9 162.4 33.9 161.9 33.9 C 161.5 33.9 161.1 33.9 160.6 33.9 C 160.2 33.9 159.8 33.9 159.4 33.9 C 159 33.9 158.6 33.9 158.2 33.9 C 157.7 35 157.4 36 157 36.9 C 156.7 37.8 156.4 38.6 156.2 39.2 C 156 39.2 155.8 39.2 155.5 39.2 C 155.2 39.2 155 39.2 154.8 39.2 C 155.8 36.9 156.9 34.6 157.9 32.3 C 158.9 30 160 27.6 161 25.2 C 161 25.2 161.4 25.2 161.4 25.2 C 161.7 26 162.1 26.8 162.4 27.7 C 162.8 28.6 163.2 29.5 163.6 30.5 C 164 31.4 164.3 32.3 164.7 33.2 C 165.1 34.1 165.5 35 165.8 35.7 C 166.2 36.5 166.5 37.2 166.7 37.8 C 167 38.4 167.2 38.9 167.4 39.2 Z M 170.7 30.7 C 170.7 29.8 170.7 28.9 170.7 28.1 C 170.6 27.2 170.6 26.4 170.5 25.5 C 170.7 25.5 170.9 25.5 171 25.6 C 171.2 25.6 171.4 25.6 171.5 25.6 C 171.7 25.6 171.8 25.6 172 25.6 C 172.2 25.5 172.3 25.5 172.5 25.5 C 172.5 26.4 172.4 27.2 172.4 28.1 C 172.4 28.9 172.3 29.8 172.3 30.7 C 172.3 32.3 172.4 33.8 172.4 35 C 172.4 36.3 172.4 37.4 172.4 38.3 C 173.4 38.3 174.3 38.3 175.1 38.3 C 176 38.3 176.9 38.2 177.9 38.1 C 177.9 38.3 177.8 38.5 177.8 38.7 C 177.8 38.8 177.9 39 177.9 39.2 C 177.3 39.2 176.7 39.2 176.1 39.2 C 175.5 39.2 174.9 39.2 174.2 39.2 C 173.6 39.2 173 39.2 172.4 39.2 C 171.8 39.2 171.2 39.2 170.5 39.2 C 170.6 38.4 170.6 37.6 170.7 36.7 C 170.7 35.9 170.7 35 170.7 34.1 C 170.71 34.11 170.7 30.7 170.7 30.7 C 170.7 30.7 170.71 30.67 170.7 30.7 Z M 187.8 36.6 C 187.9 36.9 188.1 37.1 188.3 37.4 C 188.4 37.6 188.7 37.8 188.9 38 C 189.2 38.2 189.5 38.4 189.8 38.5 C 190.2 38.6 190.6 38.7 191 38.7 C 191.4 38.7 191.8 38.6 192.2 38.5 C 192.5 38.3 192.8 38.1 193.1 37.9 C 193.3 37.6 193.5 37.3 193.6 36.9 C 193.8 36.6 193.8 36.2 193.8 35.8 C 193.8 35.2 193.7 34.7 193.4 34.3 C 193.1 34 192.7 33.7 192.2 33.4 C 191.7 33.2 191.2 33 190.7 32.8 C 190.2 32.6 189.7 32.3 189.2 32 C 188.7 31.7 188.3 31.4 188 30.9 C 187.7 30.4 187.5 29.8 187.5 29 C 187.5 28.4 187.6 27.9 187.8 27.5 C 188 27 188.3 26.6 188.7 26.3 C 189.1 26 189.6 25.7 190.1 25.5 C 190.6 25.3 191.2 25.2 191.9 25.2 C 192.5 25.2 193.1 25.3 193.5 25.5 C 194 25.6 194.4 25.8 194.8 26.2 C 194.7 26.4 194.6 26.6 194.5 26.9 C 194.5 27.1 194.4 27.5 194.3 27.8 C 194.3 27.8 194.1 27.8 194.1 27.8 C 194 27.7 193.9 27.5 193.8 27.2 C 193.7 27 193.5 26.8 193.3 26.6 C 193.1 26.4 192.9 26.3 192.6 26.2 C 192.4 26 192.1 26 191.7 26 C 191.3 26 191 26 190.7 26.1 C 190.3 26.3 190.1 26.4 189.8 26.7 C 189.6 26.9 189.4 27.1 189.3 27.4 C 189.2 27.8 189.1 28.1 189.1 28.4 C 189.1 29.1 189.3 29.6 189.6 29.9 C 189.9 30.3 190.3 30.6 190.7 30.8 C 191.2 31.1 191.7 31.3 192.3 31.5 C 192.8 31.7 193.3 31.9 193.8 32.2 C 194.2 32.5 194.6 32.8 194.9 33.3 C 195.3 33.7 195.4 34.3 195.4 35 C 195.4 35.7 195.3 36.2 195.1 36.8 C 194.9 37.3 194.5 37.8 194.1 38.2 C 193.7 38.6 193.2 38.9 192.6 39.2 C 192 39.4 191.3 39.5 190.5 39.5 C 189.7 39.5 189 39.4 188.5 39.2 C 188 38.9 187.6 38.7 187.2 38.4 C 187.3 38.1 187.4 37.8 187.5 37.6 C 187.5 37.3 187.5 37 187.6 36.6 C 187.59 36.63 187.8 36.6 187.8 36.6 C 187.8 36.6 187.83 36.63 187.8 36.6 Z M 202 30.7 C 202 29.3 202 27.9 202 26.5 C 201.6 26.5 201.3 26.5 200.9 26.5 C 200.5 26.5 200.1 26.6 199.8 26.6 C 199.4 26.6 199 26.6 198.7 26.6 C 198.3 26.7 198 26.7 197.7 26.7 C 197.8 26.5 197.8 26.3 197.8 26.1 C 197.8 26 197.8 25.8 197.7 25.5 C 198.6 25.5 199.4 25.5 200.3 25.6 C 201.1 25.6 202 25.6 202.9 25.6 C 203.7 25.6 204.6 25.6 205.4 25.6 C 206.3 25.5 207.1 25.5 208 25.5 C 208 25.8 207.9 26 207.9 26.1 C 207.9 26.3 208 26.5 208 26.7 C 207.7 26.7 207.4 26.7 207.1 26.6 C 206.7 26.6 206.4 26.6 206 26.6 C 205.6 26.6 205.2 26.5 204.8 26.5 C 204.5 26.5 204.1 26.5 203.7 26.5 C 203.7 27.9 203.7 29.3 203.7 30.7 C 203.7 30.7 203.7 34.1 203.7 34.1 C 203.7 35 203.7 35.9 203.7 36.7 C 203.8 37.6 203.8 38.4 203.8 39.2 C 203.5 39.2 203.2 39.2 202.9 39.2 C 202.5 39.2 202.2 39.2 201.9 39.2 C 201.9 38.4 202 37.6 202 36.7 C 202 35.9 202 35 202 34.1 C 202.05 34.11 202 30.7 202 30.7 C 202 30.7 202.05 30.67 202 30.7 Z M 214.7 33.6 C 214.6 33.4 214.4 33.1 214.1 32.6 C 213.9 32.2 213.6 31.7 213.3 31.2 C 213 30.7 212.6 30.1 212.3 29.5 C 211.9 28.9 211.6 28.4 211.3 27.9 C 211 27.3 210.7 26.9 210.4 26.4 C 210.2 26 210 25.7 209.9 25.5 C 210.1 25.5 210.2 25.5 210.4 25.6 C 210.6 25.6 210.8 25.6 211 25.6 C 211.2 25.6 211.3 25.6 211.5 25.6 C 211.7 25.5 211.9 25.5 212.1 25.5 C 212.7 26.6 213.3 27.8 213.9 28.9 C 214.5 30 215.2 31.2 215.9 32.4 C 216.2 31.9 216.5 31.4 216.8 30.8 C 217.2 30.3 217.5 29.7 217.8 29.1 C 218.2 28.5 218.5 27.9 218.8 27.3 C 219.1 26.7 219.4 26.1 219.6 25.5 C 220 25.6 220.2 25.6 220.4 25.6 C 220.6 25.6 220.9 25.6 221.2 25.5 C 220.6 26.5 220 27.3 219.5 28.1 C 219 28.9 218.5 29.6 218.1 30.3 C 217.8 30.9 217.4 31.5 217.1 32 C 216.8 32.5 216.6 33 216.4 33.4 C 216.4 33.9 216.4 34.4 216.4 35 C 216.4 35.5 216.4 36.1 216.4 36.6 C 216.4 37.2 216.4 37.7 216.5 38.1 C 216.5 38.6 216.5 38.9 216.5 39.2 C 216.2 39.2 215.9 39.2 215.5 39.2 C 215.2 39.2 214.9 39.2 214.6 39.2 C 214.6 38.5 214.7 37.7 214.7 36.7 C 214.7 35.7 214.7 34.7 214.7 33.6 Z M 224.6 30.7 C 224.6 29.8 224.6 28.9 224.6 28.1 C 224.5 27.2 224.5 26.4 224.4 25.5 C 224.6 25.5 224.8 25.5 224.9 25.6 C 225.1 25.6 225.3 25.6 225.4 25.6 C 225.6 25.6 225.7 25.6 225.9 25.6 C 226.1 25.5 226.2 25.5 226.4 25.5 C 226.4 26.4 226.3 27.2 226.3 28.1 C 226.3 28.9 226.2 29.8 226.2 30.7 C 226.2 32.3 226.3 33.8 226.3 35 C 226.3 36.3 226.3 37.4 226.3 38.3 C 227.3 38.3 228.2 38.3 229 38.3 C 229.9 38.3 230.8 38.2 231.8 38.1 C 231.8 38.3 231.7 38.5 231.7 38.7 C 231.7 38.8 231.8 39 231.8 39.2 C 231.2 39.2 230.6 39.2 230 39.2 C 229.4 39.2 228.8 39.2 228.1 39.2 C 227.5 39.2 226.9 39.2 226.3 39.2 C 225.7 39.2 225.1 39.2 224.4 39.2 C 224.5 38.4 224.5 37.6 224.6 36.7 C 224.6 35.9 224.6 35 224.6 34.1 C 224.61 34.11 224.6 30.7 224.6 30.7 C 224.6 30.7 224.61 30.67 224.6 30.7 Z M 235.6 30.6 C 235.6 29.8 235.6 28.9 235.6 28 C 235.5 27.2 235.5 26.3 235.4 25.5 C 236 25.5 236.6 25.5 237.2 25.6 C 237.8 25.6 238.4 25.6 239 25.6 C 239.6 25.6 240.2 25.6 240.8 25.6 C 241.4 25.5 242 25.5 242.6 25.5 C 242.5 25.7 242.5 25.9 242.5 26.1 C 242.5 26.3 242.5 26.5 242.6 26.7 C 242.2 26.7 241.8 26.6 241.4 26.6 C 241.1 26.6 240.7 26.6 240.3 26.5 C 239.9 26.5 239.5 26.5 239 26.5 C 238.5 26.4 238 26.4 237.3 26.4 C 237.3 26.9 237.3 27.3 237.3 27.6 C 237.3 28 237.2 28.5 237.2 29 C 237.2 29.5 237.3 30 237.3 30.5 C 237.3 31 237.3 31.4 237.3 31.6 C 237.9 31.6 238.4 31.6 238.8 31.6 C 239.3 31.6 239.7 31.6 240.1 31.5 C 240.5 31.5 240.9 31.5 241.2 31.5 C 241.5 31.5 241.8 31.4 242.1 31.4 C 242.1 31.6 242.1 31.8 242.1 32 C 242.1 32.2 242.1 32.4 242.1 32.6 C 241.8 32.6 241.4 32.6 240.9 32.5 C 240.5 32.5 240 32.5 239.5 32.5 C 239.1 32.5 238.6 32.5 238.2 32.5 C 237.8 32.5 237.5 32.4 237.3 32.4 C 237.3 32.6 237.3 32.7 237.3 32.8 C 237.3 33 237.2 33.2 237.2 33.4 C 237.25 33.37 237.2 34.1 237.2 34.1 C 237.2 34.1 237.25 35.35 237.2 35.3 C 237.2 36.1 237.3 36.7 237.3 37.2 C 237.3 37.7 237.3 38.1 237.3 38.3 C 237.7 38.3 238.2 38.3 238.7 38.3 C 239.2 38.3 239.7 38.3 240.2 38.3 C 240.7 38.3 241.1 38.3 241.6 38.2 C 242 38.2 242.4 38.2 242.7 38.1 C 242.7 38.2 242.6 38.3 242.6 38.4 C 242.6 38.5 242.6 38.6 242.6 38.7 C 242.6 38.9 242.6 39.1 242.7 39.2 C 242.1 39.2 241.5 39.2 240.9 39.2 C 240.3 39.2 239.7 39.2 239.1 39.2 C 238.5 39.2 237.9 39.2 237.3 39.2 C 236.7 39.2 236.1 39.2 235.4 39.2 C 235.5 38.4 235.5 37.5 235.6 36.7 C 235.6 35.8 235.6 35 235.6 34.1 C 235.61 34.09 235.6 30.6 235.6 30.6 C 235.6 30.6 235.61 30.65 235.6 30.6 Z M 254.5 30.7 C 254.5 29.3 254.4 27.9 254.4 26.5 C 254.1 26.5 253.7 26.5 253.3 26.5 C 252.9 26.5 252.6 26.6 252.2 26.6 C 251.8 26.6 251.4 26.6 251.1 26.6 C 250.7 26.7 250.4 26.7 250.1 26.7 C 250.2 26.5 250.2 26.3 250.2 26.1 C 250.2 26 250.2 25.8 250.1 25.5 C 251 25.5 251.9 25.5 252.7 25.6 C 253.5 25.6 254.4 25.6 255.3 25.6 C 256.2 25.6 257 25.6 257.9 25.6 C 258.7 25.5 259.6 25.5 260.4 25.5 C 260.4 25.8 260.3 26 260.3 26.1 C 260.3 26.3 260.4 26.5 260.4 26.7 C 260.2 26.7 259.9 26.7 259.5 26.6 C 259.1 26.6 258.8 26.6 258.4 26.6 C 258 26.6 257.6 26.5 257.3 26.5 C 256.9 26.5 256.5 26.5 256.2 26.5 C 256.1 27.9 256.1 29.3 256.1 30.7 C 256.1 30.7 256.1 34.1 256.1 34.1 C 256.1 35 256.1 35.9 256.2 36.7 C 256.2 37.6 256.2 38.4 256.3 39.2 C 256 39.2 255.6 39.2 255.3 39.2 C 254.9 39.2 254.6 39.2 254.3 39.2 C 254.3 38.4 254.4 37.6 254.4 36.7 C 254.5 35.9 254.5 35 254.5 34.1 C 254.47 34.11 254.5 30.7 254.5 30.7 C 254.5 30.7 254.47 30.67 254.5 30.7 Z M 264.5 33 C 264.9 33 265.2 33 265.6 33 C 266 33 266.3 33 266.7 33 C 267 33 267.4 33 267.8 33 C 268.2 33 268.5 33 268.9 33 C 268.91 33.01 266.7 27.9 266.7 27.9 C 266.7 27.9 264.51 33.01 264.5 33 Z M 273.4 39.2 C 273.2 39.2 273 39.2 272.8 39.2 C 272.7 39.2 272.5 39.2 272.3 39.2 C 272.1 39.2 271.9 39.2 271.8 39.2 C 271.6 39.2 271.4 39.2 271.3 39.2 C 271.2 38.9 271 38.6 270.9 38.1 C 270.7 37.7 270.5 37.2 270.3 36.8 C 270.1 36.3 270 35.8 269.8 35.3 C 269.6 34.8 269.4 34.4 269.2 33.9 C 268.8 33.9 268.3 33.9 267.9 33.9 C 267.5 33.9 267 33.9 266.6 33.9 C 266.2 33.9 265.8 33.9 265.4 33.9 C 265 33.9 264.5 33.9 264.1 33.9 C 263.7 35 263.3 36 263 36.9 C 262.6 37.8 262.4 38.6 262.2 39.2 C 262 39.2 261.7 39.2 261.5 39.2 C 261.2 39.2 260.9 39.2 260.7 39.2 C 261.8 36.9 262.8 34.6 263.9 32.3 C 264.9 30 265.9 27.6 267 25.2 C 267 25.2 267.4 25.2 267.4 25.2 C 267.7 26 268 26.8 268.4 27.7 C 268.8 28.6 269.1 29.5 269.5 30.5 C 269.9 31.4 270.3 32.3 270.7 33.2 C 271.1 34.1 271.4 35 271.8 35.7 C 272.1 36.5 272.4 37.2 272.7 37.8 C 273 38.4 273.2 38.9 273.4 39.2 Z M 277.5 39.2 C 277.1 39.2 276.8 39.2 276.5 39.2 C 276.6 38.4 276.6 37.6 276.6 36.7 C 276.7 35.9 276.7 35 276.7 34.1 C 276.7 34.1 276.7 30.7 276.7 30.7 C 276.7 29.8 276.7 28.9 276.6 28.1 C 276.6 27.2 276.6 26.4 276.5 25.5 C 276.7 25.5 276.9 25.5 277 25.6 C 277.2 25.6 277.3 25.6 277.5 25.6 C 277.7 25.6 277.8 25.6 278 25.6 C 278.1 25.5 278.3 25.5 278.5 25.5 C 278.4 26.4 278.4 27.2 278.4 28.1 C 278.3 28.9 278.3 29.8 278.3 30.7 C 278.3 30.7 278.3 31.8 278.3 31.8 C 278.3 31.9 278.4 31.9 278.4 31.9 C 278.5 31.9 278.6 31.9 278.7 31.7 C 279.2 31.3 279.7 30.9 280.2 30.4 C 280.7 29.9 281.2 29.4 281.7 28.8 C 282.3 28.3 282.8 27.7 283.3 27.1 C 283.8 26.6 284.3 26 284.7 25.5 C 284.9 25.5 285 25.5 285.2 25.6 C 285.3 25.6 285.4 25.6 285.6 25.6 C 285.7 25.6 285.9 25.6 286 25.6 C 286.2 25.5 286.4 25.5 286.5 25.5 C 286 25.9 285.5 26.4 284.9 26.9 C 284.3 27.5 283.8 28 283.2 28.6 C 282.6 29.2 282 29.7 281.5 30.3 C 280.9 30.8 280.5 31.3 280.1 31.7 C 281.2 32.9 282.3 34.2 283.4 35.4 C 284.5 36.7 285.6 38 286.7 39.2 C 286.5 39.2 286.3 39.2 286.1 39.2 C 285.9 39.2 285.7 39.2 285.5 39.2 C 285.3 39.2 285.2 39.2 285 39.2 C 284.8 39.2 284.6 39.2 284.4 39.2 C 284 38.7 283.4 38.1 282.8 37.3 C 282.3 36.6 281.7 36 281.1 35.3 C 280.6 34.6 280.1 34 279.6 33.5 C 279.2 33 278.9 32.6 278.7 32.4 C 278.5 32.3 278.5 32.2 278.4 32.2 C 278.3 32.2 278.3 32.3 278.3 32.4 C 278.3 32.4 278.3 34.1 278.3 34.1 C 278.3 35 278.3 35.9 278.4 36.7 C 278.4 37.6 278.4 38.4 278.5 39.2 C 278.2 39.2 277.8 39.2 277.5 39.2 C 277.5 39.2 277.5 39.2 277.5 39.2 Z M 289.9 30.6 C 289.9 29.8 289.9 28.9 289.8 28 C 289.8 27.2 289.8 26.3 289.7 25.5 C 290.3 25.5 290.9 25.5 291.5 25.6 C 292.1 25.6 292.7 25.6 293.3 25.6 C 293.9 25.6 294.5 25.6 295.1 25.6 C 295.7 25.5 296.3 25.5 296.9 25.5 C 296.8 25.7 296.8 25.9 296.8 26.1 C 296.8 26.3 296.8 26.5 296.9 26.7 C 296.4 26.7 296.1 26.6 295.7 26.6 C 295.3 26.6 295 26.6 294.6 26.5 C 294.2 26.5 293.8 26.5 293.3 26.5 C 292.8 26.4 292.3 26.4 291.6 26.4 C 291.6 26.9 291.6 27.3 291.6 27.6 C 291.5 28 291.5 28.5 291.5 29 C 291.5 29.5 291.5 30 291.5 30.5 C 291.5 31 291.5 31.4 291.5 31.6 C 292.1 31.6 292.7 31.6 293.1 31.6 C 293.6 31.6 294 31.6 294.4 31.5 C 294.8 31.5 295.2 31.5 295.5 31.5 C 295.8 31.5 296.1 31.4 296.4 31.4 C 296.4 31.6 296.3 31.8 296.3 32 C 296.3 32.2 296.4 32.4 296.4 32.6 C 296.1 32.6 295.7 32.6 295.2 32.5 C 294.7 32.5 294.3 32.5 293.8 32.5 C 293.4 32.5 292.9 32.5 292.5 32.5 C 292.1 32.5 291.8 32.4 291.5 32.4 C 291.5 32.6 291.5 32.7 291.5 32.8 C 291.5 33 291.5 33.2 291.5 33.4 C 291.53 33.37 291.5 34.1 291.5 34.1 C 291.5 34.1 291.53 35.35 291.5 35.3 C 291.5 36.1 291.5 36.7 291.5 37.2 C 291.5 37.7 291.6 38.1 291.6 38.3 C 292 38.3 292.5 38.3 293 38.3 C 293.5 38.3 294 38.3 294.5 38.3 C 294.9 38.3 295.4 38.3 295.8 38.2 C 296.3 38.2 296.6 38.2 297 38.1 C 296.9 38.2 296.9 38.3 296.9 38.4 C 296.9 38.5 296.9 38.6 296.9 38.7 C 296.9 38.9 296.9 39.1 297 39.2 C 296.4 39.2 295.8 39.2 295.2 39.2 C 294.6 39.2 294 39.2 293.4 39.2 C 292.8 39.2 292.1 39.2 291.5 39.2 C 290.9 39.2 290.3 39.2 289.7 39.2 C 289.8 38.4 289.8 37.5 289.8 36.7 C 289.9 35.8 289.9 35 289.9 34.1 C 289.89 34.09 289.9 30.6 289.9 30.6 C 289.9 30.6 289.89 30.65 289.9 30.6 Z M 300.4 36.6 C 300.6 36.9 300.7 37.1 300.9 37.4 C 301.1 37.6 301.3 37.8 301.5 38 C 301.8 38.2 302.1 38.4 302.4 38.5 C 302.8 38.6 303.2 38.7 303.6 38.7 C 304 38.7 304.4 38.6 304.8 38.5 C 305.2 38.3 305.5 38.1 305.7 37.9 C 305.9 37.6 306.1 37.3 306.3 36.9 C 306.4 36.6 306.5 36.2 306.5 35.8 C 306.5 35.2 306.3 34.7 306 34.3 C 305.7 34 305.3 33.7 304.8 33.4 C 304.4 33.2 303.9 33 303.3 32.8 C 302.8 32.6 302.3 32.3 301.8 32 C 301.3 31.7 301 31.4 300.6 30.9 C 300.3 30.4 300.2 29.8 300.2 29 C 300.2 28.4 300.3 27.9 300.5 27.5 C 300.7 27 301 26.6 301.3 26.3 C 301.7 26 302.2 25.7 302.7 25.5 C 303.2 25.3 303.8 25.2 304.5 25.2 C 305.1 25.2 305.7 25.3 306.2 25.5 C 306.6 25.6 307.1 25.8 307.5 26.2 C 307.3 26.4 307.2 26.6 307.2 26.9 C 307.1 27.1 307 27.5 306.9 27.8 C 306.9 27.8 306.7 27.8 306.7 27.8 C 306.6 27.7 306.5 27.5 306.4 27.2 C 306.3 27 306.2 26.8 306 26.6 C 305.8 26.4 305.5 26.3 305.3 26.2 C 305 26 304.7 26 304.3 26 C 303.9 26 303.6 26 303.3 26.1 C 303 26.3 302.7 26.4 302.5 26.7 C 302.2 26.9 302 27.1 301.9 27.4 C 301.8 27.8 301.7 28.1 301.7 28.4 C 301.7 29.1 301.9 29.6 302.2 29.9 C 302.5 30.3 302.9 30.6 303.4 30.8 C 303.8 31.1 304.3 31.3 304.9 31.5 C 305.4 31.7 305.9 31.9 306.4 32.2 C 306.9 32.5 307.2 32.8 307.6 33.3 C 307.9 33.7 308 34.3 308 35 C 308 35.7 307.9 36.2 307.7 36.8 C 307.5 37.3 307.2 37.8 306.7 38.2 C 306.3 38.6 305.8 38.9 305.2 39.2 C 304.6 39.4 303.9 39.5 303.1 39.5 C 302.3 39.5 301.6 39.4 301.1 39.2 C 300.6 38.9 300.2 38.7 299.8 38.4 C 299.9 38.1 300 37.8 300.1 37.6 C 300.1 37.3 300.2 37 300.2 36.6 C 300.21 36.63 300.4 36.6 300.4 36.6 C 300.4 36.6 300.45 36.63 300.4 36.6 Z M 318.4 30.7 C 318.4 29.8 318.4 28.9 318.4 28.1 C 318.4 27.2 318.3 26.4 318.3 25.5 C 318.9 25.5 319.5 25.5 320.1 25.6 C 320.7 25.6 321.3 25.6 321.9 25.6 C 322.5 25.6 323.1 25.6 323.7 25.6 C 324.3 25.5 325 25.5 325.7 25.5 C 325.6 25.7 325.6 25.9 325.6 26.1 C 325.6 26.3 325.6 26.5 325.7 26.7 C 325.3 26.6 324.9 26.6 324.4 26.6 C 323.9 26.5 323.4 26.5 322.8 26.5 C 322.3 26.5 321.8 26.5 321.3 26.4 C 320.8 26.4 320.4 26.4 320.1 26.4 C 320.1 26.9 320.1 27.3 320.1 27.8 C 320.1 28.2 320.1 28.6 320.1 29 C 320.1 29.5 320.1 29.9 320.1 30.3 C 320.1 30.7 320.1 31.1 320.1 31.6 C 321 31.6 321.8 31.6 322.7 31.5 C 323.6 31.5 324.4 31.4 325.2 31.4 C 325.2 31.6 325.2 31.8 325.2 32 C 325.2 32.2 325.2 32.4 325.2 32.6 C 324.9 32.5 324.5 32.5 324.1 32.5 C 323.7 32.5 323.3 32.4 322.8 32.4 C 322.4 32.4 321.9 32.4 321.4 32.4 C 321 32.4 320.5 32.4 320.1 32.4 C 320.1 32.4 320.1 34.1 320.1 34.1 C 320.1 35 320.1 35.9 320.1 36.7 C 320.2 37.6 320.2 38.4 320.2 39.2 C 319.9 39.2 319.6 39.2 319.3 39.2 C 318.9 39.2 318.6 39.2 318.3 39.2 C 318.3 38.4 318.4 37.6 318.4 36.7 C 318.4 35.9 318.4 35 318.4 34.1 C 318.45 34.11 318.4 30.7 318.4 30.7 C 318.4 30.7 318.45 30.67 318.4 30.7 Z M 329.4 30.7 C 329.4 29.8 329.4 28.9 329.4 28.1 C 329.4 27.2 329.3 26.4 329.3 25.5 C 329.5 25.5 329.6 25.5 329.8 25.6 C 329.9 25.6 330.1 25.6 330.3 25.6 C 330.4 25.6 330.6 25.6 330.7 25.6 C 330.9 25.5 331.1 25.5 331.2 25.5 C 331.2 26.4 331.2 27.2 331.1 28.1 C 331.1 28.9 331.1 29.8 331.1 30.7 C 331.1 32.3 331.1 33.8 331.1 35 C 331.1 36.3 331.1 37.4 331.1 38.3 C 332.1 38.3 333 38.3 333.9 38.3 C 334.7 38.3 335.7 38.2 336.7 38.1 C 336.6 38.3 336.6 38.5 336.6 38.7 C 336.6 38.8 336.6 39 336.7 39.2 C 336.1 39.2 335.4 39.2 334.8 39.2 C 334.2 39.2 333.6 39.2 333 39.2 C 332.3 39.2 331.7 39.2 331.1 39.2 C 330.5 39.2 329.9 39.2 329.3 39.2 C 329.3 38.4 329.4 37.6 329.4 36.7 C 329.4 35.9 329.4 35 329.4 34.1 C 329.45 34.11 329.4 30.7 329.4 30.7 C 329.4 30.7 329.45 30.67 329.4 30.7 Z M 340.4 30.7 C 340.4 29.8 340.4 28.9 340.4 28.1 C 340.4 27.2 340.3 26.4 340.3 25.5 C 340.5 25.5 340.6 25.5 340.8 25.6 C 340.9 25.6 341.1 25.6 341.3 25.6 C 341.4 25.6 341.6 25.6 341.7 25.6 C 341.9 25.5 342.1 25.5 342.2 25.5 C 342.2 26.4 342.2 27.2 342.1 28.1 C 342.1 28.9 342.1 29.8 342.1 30.7 C 342.1 30.7 342.1 34.1 342.1 34.1 C 342.1 35 342.1 35.9 342.1 36.7 C 342.2 37.6 342.2 38.4 342.2 39.2 C 341.9 39.2 341.6 39.2 341.3 39.2 C 340.9 39.2 340.6 39.2 340.3 39.2 C 340.3 38.4 340.4 37.6 340.4 36.7 C 340.4 35.9 340.4 35 340.4 34.1 C 340.45 34.11 340.4 30.7 340.4 30.7 C 340.4 30.7 340.45 30.67 340.4 30.7 Z M 358.5 27.9 C 358.3 27.7 358 27.4 357.7 27.2 C 357.4 27 357.1 26.8 356.7 26.6 C 356.4 26.4 355.9 26.3 355.5 26.1 C 355.1 26 354.6 26 354.1 26 C 353.2 26 352.5 26.1 351.8 26.3 C 351 26.6 350.4 27 349.9 27.5 C 349.4 28 349 28.7 348.7 29.5 C 348.4 30.3 348.2 31.3 348.2 32.4 C 348.2 33.4 348.3 34.2 348.6 35 C 348.9 35.8 349.3 36.5 349.8 37 C 350.3 37.6 350.9 38 351.7 38.3 C 352.4 38.6 353.2 38.7 354.2 38.7 C 354.4 38.7 354.7 38.7 355 38.7 C 355.4 38.6 355.7 38.6 355.9 38.5 C 356.2 38.5 356.5 38.4 356.7 38.3 C 357 38.3 357.2 38.2 357.4 38.1 C 357.4 37.7 357.4 37.3 357.4 36.9 C 357.4 36.5 357.4 36.1 357.4 35.6 C 357.4 35.2 357.4 34.7 357.4 34.2 C 357.4 33.8 357.3 33.3 357.3 32.9 C 357.6 33 358 33 358.3 33 C 358.4 33 358.6 33 358.7 33 C 358.9 33 359 32.9 359.1 32.9 C 359.1 33.2 359.1 33.7 359.1 34.4 C 359.1 35 359 35.9 359 37 C 359 37.2 359.1 37.5 359.1 37.8 C 359.1 38.1 359.1 38.3 359.1 38.6 C 358.8 38.7 358.4 38.8 358 38.9 C 357.6 39 357.2 39.1 356.7 39.2 C 356.2 39.3 355.7 39.3 355.3 39.4 C 354.8 39.5 354.4 39.5 354 39.5 C 352.8 39.5 351.7 39.3 350.8 39.1 C 349.8 38.8 349 38.3 348.3 37.7 C 347.7 37.1 347.1 36.4 346.8 35.5 C 346.4 34.6 346.2 33.6 346.2 32.4 C 346.2 31.3 346.4 30.2 346.8 29.4 C 347.2 28.5 347.7 27.7 348.4 27.1 C 349.1 26.5 349.9 26 350.9 25.7 C 351.8 25.4 352.9 25.2 354.1 25.2 C 354.7 25.2 355.4 25.3 355.9 25.3 C 356.4 25.4 356.9 25.5 357.3 25.6 C 357.7 25.7 358 25.9 358.3 26 C 358.7 26.1 358.9 26.3 359.2 26.4 C 359.1 26.6 359 26.8 358.9 27.1 C 358.8 27.4 358.7 27.7 358.7 27.9 C 358.71 27.93 358.5 27.9 358.5 27.9 C 358.5 27.9 358.47 27.93 358.5 27.9 Z M 373.6 30.7 C 373.6 29.8 373.6 28.9 373.5 28.1 C 373.5 27.2 373.4 26.4 373.4 25.5 C 373.6 25.5 373.7 25.5 373.9 25.6 C 374.1 25.6 374.2 25.6 374.4 25.6 C 374.5 25.6 374.7 25.6 374.9 25.6 C 375 25.5 375.2 25.5 375.4 25.5 C 375.3 26.4 375.3 27.2 375.3 28.1 C 375.2 28.9 375.2 29.8 375.2 30.7 C 375.2 30.7 375.2 34.1 375.2 34.1 C 375.2 35 375.2 35.9 375.3 36.7 C 375.3 37.6 375.3 38.4 375.4 39.2 C 375.1 39.2 374.7 39.2 374.4 39.2 C 374 39.2 373.7 39.2 373.4 39.2 C 373.4 38.4 373.5 37.6 373.5 36.7 C 373.6 35.9 373.6 35 373.6 34.1 C 373.6 34.1 373.6 32.3 373.6 32.3 C 372.8 32.3 372.2 32.3 371.5 32.3 C 370.8 32.3 370.1 32.3 369.4 32.3 C 368.7 32.3 368 32.3 367.3 32.3 C 366.6 32.3 365.9 32.3 365.2 32.3 C 365.2 32.3 365.2 34.1 365.2 34.1 C 365.2 35 365.2 35.9 365.3 36.7 C 365.3 37.6 365.3 38.4 365.4 39.2 C 365.1 39.2 364.7 39.2 364.4 39.2 C 364 39.2 363.7 39.2 363.4 39.2 C 363.4 38.4 363.5 37.6 363.5 36.7 C 363.6 35.9 363.6 35 363.6 34.1 C 363.6 34.1 363.6 30.7 363.6 30.7 C 363.6 29.8 363.6 28.9 363.5 28.1 C 363.5 27.2 363.4 26.4 363.4 25.5 C 363.6 25.5 363.7 25.5 363.9 25.6 C 364.1 25.6 364.2 25.6 364.4 25.6 C 364.5 25.6 364.7 25.6 364.9 25.6 C 365 25.5 365.2 25.5 365.4 25.5 C 365.3 26.4 365.3 27.2 365.3 28.1 C 365.2 28.9 365.2 29.8 365.2 30.7 C 365.2 30.7 365.2 31.4 365.2 31.4 C 365.9 31.4 366.6 31.4 367.3 31.4 C 368 31.4 368.7 31.4 369.4 31.4 C 370.1 31.4 370.8 31.4 371.5 31.4 C 372.2 31.4 372.8 31.4 373.6 31.4 C 373.57 31.37 373.6 30.7 373.6 30.7 C 373.6 30.7 373.57 30.67 373.6 30.7 Z M 382.9 30.7 C 382.9 29.3 382.9 27.9 382.8 26.5 C 382.5 26.5 382.1 26.5 381.8 26.5 C 381.4 26.5 381 26.6 380.6 26.6 C 380.2 26.6 379.9 26.6 379.5 26.6 C 379.2 26.7 378.8 26.7 378.6 26.7 C 378.6 26.5 378.7 26.3 378.7 26.1 C 378.7 26 378.6 25.8 378.6 25.5 C 379.4 25.5 380.3 25.5 381.1 25.6 C 382 25.6 382.8 25.6 383.7 25.6 C 384.6 25.6 385.5 25.6 386.3 25.6 C 387.1 25.5 388 25.5 388.9 25.5 C 388.8 25.8 388.8 26 388.8 26.1 C 388.8 26.3 388.8 26.5 388.9 26.7 C 388.6 26.7 388.3 26.7 387.9 26.6 C 387.6 26.6 387.2 26.6 386.8 26.6 C 386.5 26.6 386.1 26.5 385.7 26.5 C 385.3 26.5 385 26.5 384.6 26.5 C 384.6 27.9 384.5 29.3 384.5 30.7 C 384.5 30.7 384.5 34.1 384.5 34.1 C 384.5 35 384.6 35.9 384.6 36.7 C 384.6 37.6 384.7 38.4 384.7 39.2 C 384.4 39.2 384.1 39.2 383.7 39.2 C 383.4 39.2 383.1 39.2 382.7 39.2 C 382.8 38.4 382.8 37.6 382.9 36.7 C 382.9 35.9 382.9 35 382.9 34.1 C 382.91 34.11 382.9 30.7 382.9 30.7 C 382.9 30.7 382.91 30.67 382.9 30.7 Z " stroke="none" fill="#535a5d"/>  </g></svg>