<?xml version="1.0" standalone="no"?><!DOCTYPE svg PUBLIC "-//W3C//DTD SVG 1.1//EN" "http://www.w3.org/Graphics/SVG/1.1/DTD/svg11.dtd"><svg xmlns="http://www.w3.org/2000/svg" version="1.1" width="150px" height="23.8px" viewBox="0 -4 150 23.8" style="top:-4px">  <desc>Grona A3000250</desc>  <defs/>  <g id="Polygon39730">    <path d="M 61.9 15 L 61.5 14 L 59.4 14 L 59.1 15 L 58.3 15 L 60.2 10.1 L 60.8 10.1 L 62.7 15 L 61.9 15 Z M 59.7 13.4 L 61.3 13.4 L 60.5 11.1 L 60.5 11.1 L 59.7 13.4 Z M 64.2 12.3 C 64.5 12.3 64.7 12.3 64.9 12.2 C 65.2 12.1 65.5 11.9 65.5 11.5 C 65.5 11.1 65.2 10.9 64.7 10.9 C 64.4 10.9 64.1 11 64 11.4 C 64 11.4 63.4 11.1 63.4 11.1 C 63.6 10.6 64.1 10.3 64.7 10.3 C 65.6 10.3 66.2 10.8 66.2 11.5 C 66.2 11.9 65.9 12.3 65.6 12.5 C 66.1 12.7 66.4 13.1 66.4 13.6 C 66.4 14.6 65.7 15.1 64.9 15.1 C 64.3 15.1 63.7 14.8 63.4 14.3 C 63.4 14.3 63.9 14 63.9 14 C 64.1 14.4 64.4 14.5 64.8 14.5 C 65.3 14.5 65.7 14.2 65.7 13.7 C 65.7 13.2 65.3 12.9 64.8 12.9 C 64.6 12.9 64.4 12.9 64.2 13 C 64.2 13 64.2 12.3 64.2 12.3 Z M 70.8 12.7 C 70.8 14.2 70.2 15.1 69.1 15.1 C 68.1 15.1 67.5 14.2 67.5 12.7 C 67.5 11.2 68.1 10.3 69.1 10.3 C 70.2 10.3 70.8 11.2 70.8 12.7 Z M 68.2 12.7 C 68.2 13.9 68.5 14.5 69.1 14.5 C 69.7 14.5 70.1 13.9 70.1 12.7 C 70.1 11.5 69.7 10.9 69.1 10.9 C 68.5 10.9 68.2 11.5 68.2 12.7 Z M 75.1 12.7 C 75.1 14.2 74.5 15.1 73.4 15.1 C 72.4 15.1 71.8 14.2 71.8 12.7 C 71.8 11.2 72.4 10.3 73.4 10.3 C 74.5 10.3 75.1 11.2 75.1 12.7 Z M 72.5 12.7 C 72.5 13.9 72.8 14.5 73.4 14.5 C 74.1 14.5 74.4 13.9 74.4 12.7 C 74.4 11.5 74.1 10.9 73.4 10.9 C 72.8 10.9 72.5 11.5 72.5 12.7 Z M 79.4 12.7 C 79.4 14.2 78.8 15.1 77.7 15.1 C 76.7 15.1 76.1 14.2 76.1 12.7 C 76.1 11.2 76.7 10.3 77.7 10.3 C 78.8 10.3 79.4 11.2 79.4 12.7 Z M 76.8 12.7 C 76.8 13.9 77.1 14.5 77.7 14.5 C 78.4 14.5 78.7 13.9 78.7 12.7 C 78.7 11.5 78.4 10.9 77.7 10.9 C 77.1 10.9 76.8 11.5 76.8 12.7 Z M 80.4 15 C 80.4 15 80.42 14.41 80.4 14.4 C 81 13.8 81.6 13.1 82.1 12.5 C 82.2 12.2 82.5 11.8 82.5 11.5 C 82.5 11.1 82.1 10.9 81.7 10.9 C 81.3 10.9 81 11.1 81 11.6 C 81 11.6 80.3 11.4 80.3 11.4 C 80.4 10.7 81.1 10.3 81.8 10.3 C 82.5 10.3 83.2 10.8 83.2 11.5 C 83.2 11.9 82.9 12.4 82.7 12.8 C 82.3 13.3 81.8 13.9 81.3 14.4 C 81.3 14.41 83.4 14.4 83.4 14.4 L 83.4 15 L 80.4 15 Z M 87 10.9 C 87 10.9 85.24 10.94 85.2 10.9 C 85.2 11.4 85.2 11.9 85.2 12.2 C 85.4 12.1 85.6 12.1 85.8 12.1 C 86.6 12.1 87.3 12.7 87.3 13.5 C 87.3 14.4 86.6 15.1 85.7 15.1 C 85.1 15.1 84.5 14.8 84.2 14.3 C 84.2 14.3 84.8 14 84.8 14 C 84.9 14.3 85.3 14.5 85.6 14.5 C 86.2 14.5 86.6 14.1 86.6 13.6 C 86.6 13 86.2 12.7 85.7 12.7 C 85.4 12.7 85.1 12.8 84.9 13 C 84.9 13 84.5 12.7 84.5 12.7 C 84.5 12 84.6 11 84.6 10.4 C 84.62 10.35 87 10.4 87 10.4 L 87 10.9 Z M 91.5 12.7 C 91.5 14.2 90.9 15.1 89.9 15.1 C 88.8 15.1 88.2 14.2 88.2 12.7 C 88.2 11.2 88.8 10.3 89.9 10.3 C 90.9 10.3 91.5 11.2 91.5 12.7 Z M 88.9 12.7 C 88.9 13.9 89.2 14.5 89.9 14.5 C 90.5 14.5 90.8 13.9 90.8 12.7 C 90.8 11.5 90.5 10.9 89.9 10.9 C 89.2 10.9 88.9 11.5 88.9 12.7 Z " stroke="none" fill="#535a5d"/>  </g>  <g id="Polygon39729">    <path d="M 63 3.7 L 63 2.8 L 65.4 2.8 C 65.4 2.8 65.38 4.98 65.4 5 C 64.8 5.7 63.9 6.1 63 6.1 C 61.3 6.1 60 4.9 60 3.2 C 60 1.6 61.3 0.3 63 0.3 C 63.9 0.3 64.7 0.7 65.3 1.4 C 65.3 1.4 64.6 2 64.6 2 C 64.2 1.5 63.6 1.2 63 1.2 C 61.9 1.2 61.1 2 61.1 3.2 C 61.1 4.4 61.8 5.2 63 5.2 C 63.5 5.2 64 5 64.4 4.7 C 64.39 4.68 64.4 3.7 64.4 3.7 L 63 3.7 Z M 68.8 0.4 C 69.6 0.4 70.7 0.9 70.7 2 C 70.7 3 70.1 3.4 69.5 3.6 C 69.47 3.62 71.2 6 71.2 6 L 70 6 L 68.4 3.7 L 68 3.7 L 68 6 L 67 6 L 67 0.4 C 67 0.4 68.76 0.4 68.8 0.4 Z M 68.6 2.9 C 69.2 2.9 69.7 2.6 69.7 2.1 C 69.7 1.6 69.3 1.2 68.7 1.2 C 68.73 1.25 68 1.2 68 1.2 L 68 2.9 C 68 2.9 68.57 2.86 68.6 2.9 Z M 74.8 1.2 C 73.8 1.2 73 2.1 73 3.2 C 73 4.3 73.8 5.2 74.8 5.2 C 75.9 5.2 76.7 4.3 76.7 3.2 C 76.7 2.1 75.9 1.2 74.8 1.2 Z M 74.8 6.1 C 73.2 6.1 71.9 4.8 71.9 3.2 C 71.9 1.6 73.2 0.3 74.8 0.3 C 76.5 0.3 77.8 1.6 77.8 3.2 C 77.8 4.8 76.5 6.1 74.8 6.1 Z M 83 6 L 80.3 2.2 L 80.3 6 L 79.3 6 L 79.3 0.4 L 80.1 0.4 L 82.9 4.2 L 82.9 0.4 L 83.9 0.4 L 83.9 6 L 83 6 Z M 87.4 0.4 L 88.2 0.4 L 90.3 6 L 89.2 6 L 88.8 4.9 L 86.6 4.9 L 86.2 6 L 85.1 6 L 87.4 0.4 Z M 86.9 4.1 L 88.5 4.1 L 87.7 1.9 L 87.7 1.9 L 86.9 4.1 Z " stroke="none" fill="#535a5d"/>  </g></svg>