<?xml version="1.0" standalone="no"?><!DOCTYPE svg PUBLIC "-//W3C//DTD SVG 1.1//EN" "http://www.w3.org/Graphics/SVG/1.1/DTD/svg11.dtd"><svg xmlns="http://www.w3.org/2000/svg" version="1.1" width="150px" height="23.8px" viewBox="0 -4 150 23.8" style="top:-4px">  <desc>Copeland A3000226</desc>  <defs/>  <g id="Polygon42151">    <path d="M 62 15 L 61.6 14 L 59.5 14 L 59.2 15 L 58.4 15 L 60.3 10.1 L 60.9 10.1 L 62.8 15 L 62 15 Z M 59.8 13.4 L 61.4 13.4 L 60.6 11.1 L 60.6 11.1 L 59.8 13.4 Z M 64.3 12.3 C 64.6 12.3 64.8 12.3 65 12.2 C 65.3 12.1 65.6 11.9 65.6 11.5 C 65.6 11.1 65.3 10.9 64.8 10.9 C 64.5 10.9 64.2 11 64.1 11.4 C 64.1 11.4 63.5 11.1 63.5 11.1 C 63.7 10.6 64.2 10.3 64.8 10.3 C 65.7 10.3 66.3 10.8 66.3 11.5 C 66.3 11.9 66 12.3 65.7 12.5 C 66.2 12.7 66.5 13.1 66.5 13.6 C 66.5 14.6 65.8 15.1 65 15.1 C 64.4 15.1 63.8 14.8 63.5 14.3 C 63.5 14.3 64 14 64 14 C 64.2 14.4 64.5 14.5 64.9 14.5 C 65.4 14.5 65.8 14.2 65.8 13.7 C 65.8 13.2 65.4 12.9 64.9 12.9 C 64.7 12.9 64.5 12.9 64.3 13 C 64.3 13 64.3 12.3 64.3 12.3 Z M 70.9 12.7 C 70.9 14.2 70.3 15.1 69.2 15.1 C 68.2 15.1 67.6 14.2 67.6 12.7 C 67.6 11.2 68.2 10.3 69.2 10.3 C 70.3 10.3 70.9 11.2 70.9 12.7 Z M 68.3 12.7 C 68.3 13.9 68.6 14.5 69.2 14.5 C 69.8 14.5 70.2 13.9 70.2 12.7 C 70.2 11.5 69.8 10.9 69.2 10.9 C 68.6 10.9 68.3 11.5 68.3 12.7 Z M 75.2 12.7 C 75.2 14.2 74.6 15.1 73.5 15.1 C 72.5 15.1 71.9 14.2 71.9 12.7 C 71.9 11.2 72.5 10.3 73.5 10.3 C 74.6 10.3 75.2 11.2 75.2 12.7 Z M 72.6 12.7 C 72.6 13.9 72.9 14.5 73.5 14.5 C 74.2 14.5 74.5 13.9 74.5 12.7 C 74.5 11.5 74.2 10.9 73.5 10.9 C 72.9 10.9 72.6 11.5 72.6 12.7 Z M 79.5 12.7 C 79.5 14.2 78.9 15.1 77.8 15.1 C 76.8 15.1 76.2 14.2 76.2 12.7 C 76.2 11.2 76.8 10.3 77.8 10.3 C 78.9 10.3 79.5 11.2 79.5 12.7 Z M 76.9 12.7 C 76.9 13.9 77.2 14.5 77.8 14.5 C 78.5 14.5 78.8 13.9 78.8 12.7 C 78.8 11.5 78.5 10.9 77.8 10.9 C 77.2 10.9 76.9 11.5 76.9 12.7 Z M 80.5 15 C 80.5 15 80.52 14.41 80.5 14.4 C 81.1 13.8 81.7 13.1 82.2 12.5 C 82.4 12.2 82.6 11.8 82.6 11.5 C 82.6 11.1 82.2 10.9 81.8 10.9 C 81.4 10.9 81.1 11.1 81.1 11.6 C 81.1 11.6 80.4 11.4 80.4 11.4 C 80.5 10.7 81.2 10.3 81.9 10.3 C 82.6 10.3 83.3 10.8 83.3 11.5 C 83.3 11.9 83 12.4 82.8 12.8 C 82.4 13.3 81.9 13.9 81.4 14.4 C 81.4 14.41 83.5 14.4 83.5 14.4 L 83.5 15 L 80.5 15 Z M 84.4 15 C 84.4 15 84.44 14.41 84.4 14.4 C 85 13.8 85.6 13.1 86.1 12.5 C 86.3 12.2 86.5 11.8 86.5 11.5 C 86.5 11.1 86.1 10.9 85.7 10.9 C 85.4 10.9 85 11.1 85 11.6 C 85 11.6 84.4 11.4 84.4 11.4 C 84.4 10.7 85.1 10.3 85.8 10.3 C 86.5 10.3 87.2 10.8 87.2 11.5 C 87.2 11.9 86.9 12.4 86.7 12.8 C 86.3 13.3 85.8 13.9 85.3 14.4 C 85.32 14.41 87.4 14.4 87.4 14.4 L 87.4 15 L 84.4 15 Z M 90.8 10.7 C 89.9 11.1 89.2 11.6 89 12.5 C 89.3 12.2 89.6 12.1 90 12.1 C 90.9 12.1 91.4 12.7 91.4 13.6 C 91.4 14.4 90.8 15.1 89.9 15.1 C 88.9 15.1 88.2 14.2 88.2 13.2 C 88.2 11.7 89.3 10.6 90.5 10.1 C 90.5 10.1 90.8 10.7 90.8 10.7 Z M 88.9 13.2 C 88.9 13.9 89.2 14.5 89.9 14.5 C 90.4 14.5 90.7 14.1 90.7 13.5 C 90.7 13 90.4 12.6 89.9 12.6 C 89.5 12.6 89.1 12.9 88.9 13.2 Z " stroke="none" fill="#535a5d"/>  </g>  <g id="Polygon42150">    <path d="M 55.8 5.2 C 56.2 5.2 56.6 5.1 57 4.8 C 57 4.8 57.6 5.5 57.6 5.5 C 57 5.9 56.4 6.1 55.8 6.1 C 54.1 6.1 52.8 4.9 52.8 3.2 C 52.8 1.6 54.1 0.3 55.8 0.3 C 56.4 0.3 56.9 0.5 57.4 0.8 C 57.4 0.8 57 1.6 57 1.6 C 56.6 1.3 56.2 1.2 55.8 1.2 C 54.7 1.2 53.8 2 53.8 3.2 C 53.8 4.4 54.6 5.2 55.8 5.2 Z M 61.1 1.2 C 60.1 1.2 59.3 2.1 59.3 3.2 C 59.3 4.3 60.1 5.2 61.1 5.2 C 62.2 5.2 63 4.3 63 3.2 C 63 2.1 62.2 1.2 61.1 1.2 Z M 61.1 6.1 C 59.5 6.1 58.2 4.8 58.2 3.2 C 58.2 1.6 59.5 0.3 61.1 0.3 C 62.8 0.3 64 1.6 64 3.2 C 64 4.8 62.8 6.1 61.1 6.1 Z M 67.3 0.4 C 68.2 0.4 69.3 0.9 69.3 2.1 C 69.3 3.4 68.2 3.8 67.3 3.8 C 67.3 3.83 66.6 3.8 66.6 3.8 L 66.6 6 L 65.6 6 L 65.6 0.4 C 65.6 0.4 67.3 0.4 67.3 0.4 Z M 66.6 3 C 66.6 3 67.11 2.98 67.1 3 C 67.8 3 68.3 2.8 68.3 2.1 C 68.3 1.6 67.9 1.2 67.3 1.2 C 67.27 1.25 66.6 1.2 66.6 1.2 L 66.6 3 Z M 70.6 6 L 70.6 0.4 L 74.1 0.4 L 74.1 1.2 L 71.6 1.2 L 71.6 2.7 L 74.1 2.7 L 74.1 3.5 L 71.6 3.5 L 71.6 5.2 L 74.1 5.2 L 74.1 6 L 70.6 6 Z M 75.6 6 L 75.6 0.4 L 76.6 0.4 L 76.6 5.2 L 79 5.2 L 79 6 L 75.6 6 Z M 82 0.4 L 82.8 0.4 L 84.9 6 L 83.8 6 L 83.4 4.9 L 81.3 4.9 L 80.9 6 L 79.8 6 L 82 0.4 Z M 81.6 4.1 L 83.1 4.1 L 82.4 1.9 L 82.3 1.9 L 81.6 4.1 Z M 89.9 6 L 87.2 2.2 L 87.2 6 L 86.2 6 L 86.2 0.4 L 87 0.4 L 89.8 4.2 L 89.8 0.4 L 90.8 0.4 L 90.8 6 L 89.9 6 Z M 92.6 0.4 C 92.6 0.4 94.16 0.4 94.2 0.4 C 95.6 0.4 97.2 1.2 97.2 3.2 C 97.2 5.2 95.6 6 94.1 6 C 94.08 6 92.6 6 92.6 6 L 92.6 0.4 Z M 93.6 5.2 C 93.6 5.2 93.75 5.15 93.8 5.2 C 95.2 5.2 96.2 4.7 96.2 3.2 C 96.2 1.9 95.4 1.2 94 1.2 C 94.02 1.25 93.6 1.2 93.6 1.2 L 93.6 5.2 Z " stroke="none" fill="#535a5d"/>  </g></svg>