<?xml version="1.0" standalone="no"?><!DOCTYPE svg PUBLIC "-//W3C//DTD SVG 1.1//EN" "http://www.w3.org/Graphics/SVG/1.1/DTD/svg11.dtd"><svg xmlns="http://www.w3.org/2000/svg" version="1.1" width="150px" height="23.8px" viewBox="0 -4 150 23.8" style="top:-4px">  <desc>Avila A3000255</desc>  <defs/>  <g id="Polygon40964">    <path d="M 62.1 15 L 61.7 14 L 59.6 14 L 59.2 15 L 58.5 15 L 60.4 10.1 L 61 10.1 L 62.9 15 L 62.1 15 Z M 59.8 13.4 L 61.5 13.4 L 60.7 11.1 L 60.7 11.1 L 59.8 13.4 Z M 64.4 12.3 C 64.7 12.3 64.9 12.3 65.1 12.2 C 65.4 12.1 65.7 11.9 65.7 11.5 C 65.7 11.1 65.4 10.9 64.9 10.9 C 64.6 10.9 64.3 11 64.1 11.4 C 64.1 11.4 63.6 11.1 63.6 11.1 C 63.8 10.6 64.3 10.3 64.9 10.3 C 65.8 10.3 66.4 10.8 66.4 11.5 C 66.4 11.9 66.1 12.3 65.8 12.5 C 66.3 12.7 66.6 13.1 66.6 13.6 C 66.6 14.6 65.9 15.1 65 15.1 C 64.5 15.1 63.8 14.8 63.6 14.3 C 63.6 14.3 64.1 14 64.1 14 C 64.3 14.4 64.6 14.5 65 14.5 C 65.5 14.5 65.9 14.2 65.9 13.7 C 65.9 13.2 65.5 12.9 64.9 12.9 C 64.8 12.9 64.6 12.9 64.4 13 C 64.4 13 64.4 12.3 64.4 12.3 Z M 71 12.7 C 71 14.2 70.4 15.1 69.3 15.1 C 68.3 15.1 67.7 14.2 67.7 12.7 C 67.7 11.2 68.3 10.3 69.3 10.3 C 70.4 10.3 71 11.2 71 12.7 Z M 68.3 12.7 C 68.3 13.9 68.7 14.5 69.3 14.5 C 69.9 14.5 70.3 13.9 70.3 12.7 C 70.3 11.5 69.9 10.9 69.3 10.9 C 68.7 10.9 68.3 11.5 68.3 12.7 Z M 75.3 12.7 C 75.3 14.2 74.7 15.1 73.6 15.1 C 72.6 15.1 72 14.2 72 12.7 C 72 11.2 72.6 10.3 73.6 10.3 C 74.7 10.3 75.3 11.2 75.3 12.7 Z M 72.6 12.7 C 72.6 13.9 73 14.5 73.6 14.5 C 74.2 14.5 74.6 13.9 74.6 12.7 C 74.6 11.5 74.2 10.9 73.6 10.9 C 73 10.9 72.6 11.5 72.6 12.7 Z M 79.6 12.7 C 79.6 14.2 79 15.1 77.9 15.1 C 76.9 15.1 76.3 14.2 76.3 12.7 C 76.3 11.2 76.9 10.3 77.9 10.3 C 79 10.3 79.6 11.2 79.6 12.7 Z M 76.9 12.7 C 76.9 13.9 77.3 14.5 77.9 14.5 C 78.5 14.5 78.9 13.9 78.9 12.7 C 78.9 11.5 78.5 10.9 77.9 10.9 C 77.3 10.9 76.9 11.5 76.9 12.7 Z M 80.6 15 C 80.6 15 80.6 14.41 80.6 14.4 C 81.1 13.8 81.8 13.1 82.2 12.5 C 82.4 12.2 82.7 11.8 82.7 11.5 C 82.7 11.1 82.3 10.9 81.9 10.9 C 81.5 10.9 81.2 11.1 81.2 11.6 C 81.2 11.6 80.5 11.4 80.5 11.4 C 80.6 10.7 81.3 10.3 81.9 10.3 C 82.7 10.3 83.3 10.8 83.3 11.5 C 83.3 11.9 83.1 12.4 82.8 12.8 C 82.4 13.3 82 13.9 81.5 14.4 C 81.48 14.41 83.6 14.4 83.6 14.4 L 83.6 15 L 80.6 15 Z M 87.2 10.9 C 87.2 10.9 85.42 10.94 85.4 10.9 C 85.4 11.4 85.4 11.9 85.3 12.2 C 85.5 12.1 85.8 12.1 86 12.1 C 86.8 12.1 87.4 12.7 87.4 13.5 C 87.4 14.4 86.8 15.1 85.9 15.1 C 85.3 15.1 84.7 14.8 84.4 14.3 C 84.4 14.3 84.9 14 84.9 14 C 85.1 14.3 85.5 14.5 85.8 14.5 C 86.4 14.5 86.8 14.1 86.8 13.6 C 86.8 13 86.4 12.7 85.8 12.7 C 85.6 12.7 85.3 12.8 85.1 13 C 85.1 13 84.6 12.7 84.6 12.7 C 84.7 12 84.8 11 84.8 10.4 C 84.8 10.35 87.2 10.4 87.2 10.4 L 87.2 10.9 Z M 91.1 10.9 C 91.1 10.9 89.37 10.94 89.4 10.9 C 89.3 11.4 89.3 11.9 89.3 12.2 C 89.5 12.1 89.7 12.1 90 12.1 C 90.7 12.1 91.4 12.7 91.4 13.5 C 91.4 14.4 90.8 15.1 89.8 15.1 C 89.3 15.1 88.6 14.8 88.4 14.3 C 88.4 14.3 88.9 14 88.9 14 C 89.1 14.3 89.4 14.5 89.8 14.5 C 90.4 14.5 90.7 14.1 90.7 13.6 C 90.7 13 90.3 12.7 89.8 12.7 C 89.5 12.7 89.3 12.8 89.1 13 C 89.1 13 88.6 12.7 88.6 12.7 C 88.7 12 88.7 11 88.7 10.4 C 88.75 10.35 91.1 10.4 91.1 10.4 L 91.1 10.9 Z " stroke="none" fill="#535a5d"/>  </g>  <g id="Polygon40963">    <path d="M 65.3 0.4 L 66.1 0.4 L 68.3 6 L 67.1 6 L 66.7 4.9 L 64.6 4.9 L 64.2 6 L 63.1 6 L 65.3 0.4 Z M 64.9 4.1 L 66.4 4.1 L 65.7 1.9 L 65.7 1.9 L 64.9 4.1 Z M 71.5 6 L 70.7 6 L 68.6 0.4 L 69.7 0.4 L 71.2 4.5 L 71.2 4.5 L 72.7 0.4 L 73.7 0.4 L 71.5 6 Z M 74.9 6 L 74.9 0.4 L 75.9 0.4 L 75.9 6 L 74.9 6 Z M 77.6 6 L 77.6 0.4 L 78.6 0.4 L 78.6 5.2 L 81 5.2 L 81 6 L 77.6 6 Z M 84 0.4 L 84.8 0.4 L 86.9 6 L 85.8 6 L 85.4 4.9 L 83.2 4.9 L 82.8 6 L 81.7 6 L 84 0.4 Z M 83.5 4.1 L 85.1 4.1 L 84.3 1.9 L 84.3 1.9 L 83.5 4.1 Z " stroke="none" fill="#535a5d"/>  </g></svg>