<?xml version="1.0" standalone="no"?><!DOCTYPE svg PUBLIC "-//W3C//DTD SVG 1.1//EN" "http://www.w3.org/Graphics/SVG/1.1/DTD/svg11.dtd"><svg xmlns="http://www.w3.org/2000/svg" version="1.1" width="51px" height="13.8px" viewBox="0 -3 51 13.8" style="top:-3px">  <desc>A1000769</desc>  <defs/>  <g id="Polygon42602">    <path d="M 13.2 5.2 L 12.8 4.2 L 10.8 4.2 L 10.4 5.2 L 9.6 5.2 L 11.5 0.4 L 12.1 0.4 L 14 5.2 L 13.2 5.2 Z M 11 3.6 L 12.6 3.6 L 11.8 1.4 L 11.8 1.4 L 11 3.6 Z M 15.5 5.2 C 15.5 5.2 15.54 1.4 15.5 1.4 C 15.3 1.5 15 1.6 14.8 1.7 C 14.8 1.7 14.8 1.1 14.8 1.1 C 15.1 1 15.5 0.8 15.8 0.6 C 15.77 0.6 16.2 0.6 16.2 0.6 L 16.2 5.2 L 15.5 5.2 Z M 20.8 2.9 C 20.8 4.4 20.2 5.3 19.1 5.3 C 18.1 5.3 17.5 4.4 17.5 2.9 C 17.5 1.4 18.1 0.5 19.1 0.5 C 20.2 0.5 20.8 1.4 20.8 2.9 Z M 18.2 2.9 C 18.2 4.1 18.5 4.7 19.1 4.7 C 19.8 4.7 20.1 4.1 20.1 2.9 C 20.1 1.7 19.8 1.1 19.1 1.1 C 18.5 1.1 18.2 1.7 18.2 2.9 Z M 25.1 2.9 C 25.1 4.4 24.5 5.3 23.4 5.3 C 22.4 5.3 21.8 4.4 21.8 2.9 C 21.8 1.4 22.4 0.5 23.4 0.5 C 24.5 0.5 25.1 1.4 25.1 2.9 Z M 22.5 2.9 C 22.5 4.1 22.8 4.7 23.4 4.7 C 24.1 4.7 24.4 4.1 24.4 2.9 C 24.4 1.7 24.1 1.1 23.4 1.1 C 22.8 1.1 22.5 1.7 22.5 2.9 Z M 29.4 2.9 C 29.4 4.4 28.8 5.3 27.7 5.3 C 26.7 5.3 26.1 4.4 26.1 2.9 C 26.1 1.4 26.7 0.5 27.7 0.5 C 28.8 0.5 29.4 1.4 29.4 2.9 Z M 26.8 2.9 C 26.8 4.1 27.1 4.7 27.7 4.7 C 28.4 4.7 28.7 4.1 28.7 2.9 C 28.7 1.7 28.4 1.1 27.7 1.1 C 27.1 1.1 26.8 1.7 26.8 2.9 Z M 33 1.1 C 32.4 2.3 31.6 4.2 31.1 5.4 C 31.1 5.4 30.5 5.1 30.5 5.1 C 31.1 3.7 31.9 2 32.3 1.2 C 32.28 1.2 30.1 1.2 30.1 1.2 L 30.1 0.6 L 33 0.6 C 33 0.6 33.01 1.08 33 1.1 Z M 36.3 0.9 C 35.4 1.3 34.7 1.8 34.5 2.7 C 34.8 2.5 35.1 2.3 35.5 2.3 C 36.3 2.3 36.9 3 36.9 3.8 C 36.9 4.7 36.3 5.3 35.4 5.3 C 34.3 5.3 33.7 4.5 33.7 3.5 C 33.7 2 34.7 0.9 36 0.4 C 36 0.4 36.3 0.9 36.3 0.9 Z M 34.4 3.5 C 34.4 4.1 34.6 4.7 35.4 4.7 C 35.9 4.7 36.2 4.3 36.2 3.8 C 36.2 3.3 35.9 2.9 35.4 2.9 C 35 2.9 34.6 3.1 34.4 3.5 Z M 38.4 4.9 C 39.2 4.5 39.9 4 40.1 3.1 C 39.9 3.4 39.5 3.5 39.1 3.5 C 38.3 3.5 37.7 2.9 37.7 2 C 37.7 1.2 38.4 0.5 39.2 0.5 C 40.3 0.5 40.9 1.4 40.9 2.4 C 40.9 3.9 39.9 5 38.6 5.5 C 38.6 5.5 38.4 4.9 38.4 4.9 Z M 40.2 2.4 C 40.2 1.7 40 1.1 39.3 1.1 C 38.7 1.1 38.4 1.5 38.4 2.1 C 38.4 2.6 38.7 3 39.2 3 C 39.6 3 40 2.7 40.2 2.4 Z " stroke="none" fill="#535a5d"/>  </g></svg>