<?xml version="1.0" standalone="no"?><!DOCTYPE svg PUBLIC "-//W3C//DTD SVG 1.1//EN" "http://www.w3.org/Graphics/SVG/1.1/DTD/svg11.dtd"><svg xmlns="http://www.w3.org/2000/svg" version="1.1" width="150px" height="26.8px" viewBox="0 -4 150 26.8" style="top:-4px">  <desc>Zossen A3000145</desc>  <defs/>  <g id="Polygon39368">    <path d="M 62.5 15 L 62.1 14 L 60 14 L 59.6 15 L 58.9 15 L 60.8 10.1 L 61.4 10.1 L 63.2 15 L 62.5 15 Z M 60.2 13.4 L 61.8 13.4 L 61 11.1 L 61 11.1 L 60.2 13.4 Z M 64.8 12.3 C 65.1 12.3 65.2 12.3 65.4 12.2 C 65.8 12.1 66.1 11.9 66.1 11.5 C 66.1 11.1 65.7 10.9 65.3 10.9 C 64.9 10.9 64.6 11 64.5 11.4 C 64.5 11.4 64 11.1 64 11.1 C 64.1 10.6 64.6 10.3 65.3 10.3 C 66.1 10.3 66.7 10.8 66.7 11.5 C 66.7 11.9 66.5 12.3 66.1 12.5 C 66.6 12.7 67 13.1 67 13.6 C 67 14.6 66.3 15.1 65.4 15.1 C 64.8 15.1 64.2 14.8 63.9 14.3 C 63.9 14.3 64.4 14 64.4 14 C 64.6 14.4 65 14.5 65.4 14.5 C 65.8 14.5 66.3 14.2 66.3 13.7 C 66.3 13.2 65.8 12.9 65.3 12.9 C 65.1 12.9 65 12.9 64.8 13 C 64.8 13 64.8 12.3 64.8 12.3 Z M 71.3 12.7 C 71.3 14.2 70.7 15.1 69.7 15.1 C 68.6 15.1 68 14.2 68 12.7 C 68 11.2 68.6 10.3 69.7 10.3 C 70.7 10.3 71.3 11.2 71.3 12.7 Z M 68.7 12.7 C 68.7 13.9 69.1 14.5 69.7 14.5 C 70.3 14.5 70.6 13.9 70.6 12.7 C 70.6 11.5 70.3 10.9 69.7 10.9 C 69.1 10.9 68.7 11.5 68.7 12.7 Z M 75.6 12.7 C 75.6 14.2 75 15.1 74 15.1 C 72.9 15.1 72.3 14.2 72.3 12.7 C 72.3 11.2 72.9 10.3 74 10.3 C 75 10.3 75.6 11.2 75.6 12.7 Z M 73 12.7 C 73 13.9 73.4 14.5 74 14.5 C 74.6 14.5 75 13.9 75 12.7 C 75 11.5 74.6 10.9 74 10.9 C 73.4 10.9 73 11.5 73 12.7 Z M 79.9 12.7 C 79.9 14.2 79.3 15.1 78.3 15.1 C 77.2 15.1 76.6 14.2 76.6 12.7 C 76.6 11.2 77.2 10.3 78.3 10.3 C 79.3 10.3 79.9 11.2 79.9 12.7 Z M 77.3 12.7 C 77.3 13.9 77.7 14.5 78.3 14.5 C 78.9 14.5 79.3 13.9 79.3 12.7 C 79.3 11.5 78.9 10.9 78.3 10.9 C 77.7 10.9 77.3 11.5 77.3 12.7 Z M 81.6 15 C 81.6 15 81.65 11.15 81.6 11.1 C 81.4 11.3 81.1 11.4 80.9 11.5 C 80.9 11.5 80.9 10.8 80.9 10.8 C 81.2 10.7 81.6 10.5 81.9 10.4 C 81.88 10.35 82.3 10.4 82.3 10.4 L 82.3 15 L 81.6 15 Z M 85.6 15 L 85.6 13.8 L 83.5 13.8 C 83.5 13.8 83.5 13.12 83.5 13.1 C 84.1 12.4 84.9 11.2 85.6 10.4 C 85.57 10.35 86.2 10.4 86.2 10.4 L 86.2 13.2 L 86.9 13.2 L 86.9 13.8 L 86.2 13.8 L 86.2 15 L 85.6 15 Z M 85.6 13.2 C 85.6 13.2 85.6 11.28 85.6 11.3 C 85.2 11.9 84.5 12.8 84.2 13.2 C 84.2 13.24 85.6 13.2 85.6 13.2 Z M 90.5 10.9 C 90.5 10.9 88.76 10.94 88.8 10.9 C 88.7 11.4 88.7 11.9 88.7 12.2 C 88.9 12.1 89.1 12.1 89.4 12.1 C 90.1 12.1 90.8 12.7 90.8 13.5 C 90.8 14.4 90.1 15.1 89.2 15.1 C 88.7 15.1 88 14.8 87.8 14.3 C 87.8 14.3 88.3 14 88.3 14 C 88.5 14.3 88.8 14.5 89.2 14.5 C 89.8 14.5 90.1 14.1 90.1 13.6 C 90.1 13 89.7 12.7 89.2 12.7 C 88.9 12.7 88.7 12.8 88.5 13 C 88.5 13 88 12.7 88 12.7 C 88.1 12 88.1 11 88.1 10.4 C 88.14 10.35 90.5 10.4 90.5 10.4 L 90.5 10.9 Z " stroke="none" fill="#535a5d"/>  </g>  <g id="Polygon39367">    <path d="M 60 5.2 L 62.7 5.2 L 62.7 6 L 58.7 6 L 58.7 5.5 L 61.2 1.2 L 58.8 1.2 L 58.8 0.4 L 62.5 0.4 L 62.5 0.9 L 60 5.2 Z M 66.3 1.2 C 65.3 1.2 64.5 2.1 64.5 3.2 C 64.5 4.3 65.3 5.2 66.3 5.2 C 67.4 5.2 68.2 4.3 68.2 3.2 C 68.2 2.1 67.4 1.2 66.3 1.2 Z M 66.3 6.1 C 64.7 6.1 63.4 4.8 63.4 3.2 C 63.4 1.6 64.7 0.3 66.3 0.3 C 68 0.3 69.3 1.6 69.3 3.2 C 69.3 4.8 68 6.1 66.3 6.1 Z M 72.4 1.2 C 71.9 1.2 71.5 1.4 71.5 1.8 C 71.5 2.3 72.1 2.4 72.5 2.6 C 73.3 2.9 74.3 3.2 74.3 4.4 C 74.3 5.6 73.2 6.1 72.2 6.1 C 71.4 6.1 70.7 5.8 70.1 5.2 C 70.1 5.2 70.8 4.6 70.8 4.6 C 71.3 5 71.7 5.2 72.2 5.2 C 72.7 5.2 73.2 5 73.2 4.4 C 73.2 3.9 72.7 3.7 72.1 3.5 C 71.3 3.2 70.5 2.8 70.5 1.9 C 70.5 0.8 71.4 0.3 72.3 0.3 C 73 0.3 73.6 0.5 74.1 0.9 C 74.1 0.9 73.5 1.6 73.5 1.6 C 73.2 1.4 72.8 1.2 72.4 1.2 Z M 77.6 1.2 C 77.2 1.2 76.8 1.4 76.8 1.8 C 76.8 2.3 77.3 2.4 77.8 2.6 C 78.6 2.9 79.5 3.2 79.5 4.4 C 79.5 5.6 78.4 6.1 77.5 6.1 C 76.6 6.1 76 5.8 75.4 5.2 C 75.4 5.2 76.1 4.6 76.1 4.6 C 76.6 5 76.9 5.2 77.5 5.2 C 78 5.2 78.5 5 78.5 4.4 C 78.5 3.9 77.9 3.7 77.3 3.5 C 76.6 3.2 75.8 2.8 75.8 1.9 C 75.8 0.8 76.6 0.3 77.6 0.3 C 78.3 0.3 78.8 0.5 79.4 0.9 C 79.4 0.9 78.8 1.6 78.8 1.6 C 78.5 1.4 78.1 1.2 77.6 1.2 Z M 81 6 L 81 0.4 L 84.5 0.4 L 84.5 1.2 L 82 1.2 L 82 2.7 L 84.5 2.7 L 84.5 3.5 L 82 3.5 L 82 5.2 L 84.5 5.2 L 84.5 6 L 81 6 Z M 89.8 6 L 87 2.2 L 87 6 L 86 6 L 86 0.4 L 86.9 0.4 L 89.7 4.2 L 89.7 0.4 L 90.7 0.4 L 90.7 6 L 89.8 6 Z " stroke="none" fill="#535a5d"/>  </g></svg>