<?xml version="1.0" standalone="no"?><!DOCTYPE svg PUBLIC "-//W3C//DTD SVG 1.1//EN" "http://www.w3.org/Graphics/SVG/1.1/DTD/svg11.dtd"><svg xmlns="http://www.w3.org/2000/svg" version="1.1" width="51px" height="13.8px" viewBox="0 -3 51 13.8" style="top:-3px">  <desc>A1000934</desc>  <defs/>  <g id="Polygon42700">    <path d="M 12.8 5.2 L 12.4 4.2 L 10.4 4.2 L 10 5.2 L 9.2 5.2 L 11.1 0.4 L 11.7 0.4 L 13.6 5.2 L 12.8 5.2 Z M 10.6 3.6 L 12.2 3.6 L 11.4 1.4 L 11.4 1.4 L 10.6 3.6 Z M 15.2 5.2 C 15.2 5.2 15.15 1.4 15.2 1.4 C 14.9 1.5 14.6 1.6 14.5 1.7 C 14.5 1.7 14.5 1.1 14.5 1.1 C 14.7 1 15.1 0.8 15.4 0.6 C 15.38 0.6 15.8 0.6 15.8 0.6 L 15.8 5.2 L 15.2 5.2 Z M 20.4 2.9 C 20.4 4.4 19.8 5.3 18.7 5.3 C 17.7 5.3 17.1 4.4 17.1 2.9 C 17.1 1.4 17.7 0.5 18.7 0.5 C 19.8 0.5 20.4 1.4 20.4 2.9 Z M 17.8 2.9 C 17.8 4.1 18.1 4.7 18.7 4.7 C 19.4 4.7 19.7 4.1 19.7 2.9 C 19.7 1.7 19.4 1.1 18.7 1.1 C 18.1 1.1 17.8 1.7 17.8 2.9 Z M 24.7 2.9 C 24.7 4.4 24.1 5.3 23.1 5.3 C 22 5.3 21.4 4.4 21.4 2.9 C 21.4 1.4 22 0.5 23.1 0.5 C 24.1 0.5 24.7 1.4 24.7 2.9 Z M 22.1 2.9 C 22.1 4.1 22.4 4.7 23.1 4.7 C 23.7 4.7 24 4.1 24 2.9 C 24 1.7 23.7 1.1 23.1 1.1 C 22.4 1.1 22.1 1.7 22.1 2.9 Z M 29 2.9 C 29 4.4 28.4 5.3 27.4 5.3 C 26.3 5.3 25.7 4.4 25.7 2.9 C 25.7 1.4 26.3 0.5 27.4 0.5 C 28.4 0.5 29 1.4 29 2.9 Z M 26.4 2.9 C 26.4 4.1 26.7 4.7 27.4 4.7 C 28 4.7 28.3 4.1 28.3 2.9 C 28.3 1.7 28 1.1 27.4 1.1 C 26.7 1.1 26.4 1.7 26.4 2.9 Z M 30.6 4.9 C 31.5 4.5 32.2 4 32.4 3.1 C 32.1 3.4 31.8 3.5 31.3 3.5 C 30.5 3.5 30 2.9 30 2 C 30 1.2 30.6 0.5 31.5 0.5 C 32.5 0.5 33.2 1.4 33.2 2.4 C 33.2 3.9 32.1 5 30.9 5.5 C 30.9 5.5 30.6 4.9 30.6 4.9 Z M 32.5 2.4 C 32.5 1.7 32.2 1.1 31.5 1.1 C 31 1.1 30.7 1.5 30.7 2.1 C 30.7 2.6 31 3 31.5 3 C 31.9 3 32.3 2.7 32.5 2.4 Z M 34.9 2.5 C 35.2 2.5 35.4 2.5 35.5 2.5 C 35.9 2.4 36.2 2.1 36.2 1.8 C 36.2 1.4 35.8 1.1 35.4 1.1 C 35 1.1 34.7 1.3 34.6 1.6 C 34.6 1.6 34.1 1.4 34.1 1.4 C 34.2 0.9 34.7 0.5 35.4 0.5 C 36.2 0.5 36.8 1 36.8 1.8 C 36.8 2.2 36.6 2.6 36.2 2.8 C 36.7 2.9 37.1 3.4 37.1 3.9 C 37.1 4.8 36.4 5.3 35.5 5.3 C 34.9 5.3 34.3 5.1 34 4.6 C 34 4.6 34.6 4.3 34.6 4.3 C 34.8 4.6 35.1 4.7 35.5 4.7 C 35.9 4.7 36.4 4.5 36.4 4 C 36.4 3.5 36 3.2 35.4 3.2 C 35.2 3.2 35.1 3.2 34.9 3.2 C 34.9 3.2 34.9 2.5 34.9 2.5 Z M 40.1 5.2 L 40.1 4.1 L 38 4.1 C 38 4.1 37.99 3.37 38 3.4 C 38.6 2.6 39.4 1.5 40.1 0.6 C 40.06 0.6 40.7 0.6 40.7 0.6 L 40.7 3.5 L 41.4 3.5 L 41.4 4.1 L 40.7 4.1 L 40.7 5.2 L 40.1 5.2 Z M 40.1 3.5 C 40.1 3.5 40.09 1.53 40.1 1.5 C 39.7 2.2 39 3 38.7 3.5 C 38.69 3.49 40.1 3.5 40.1 3.5 Z " stroke="none" fill="#535a5d"/>  </g></svg>