<?xml version="1.0" standalone="no"?><!DOCTYPE svg PUBLIC "-//W3C//DTD SVG 1.1//EN" "http://www.w3.org/Graphics/SVG/1.1/DTD/svg11.dtd"><svg xmlns="http://www.w3.org/2000/svg" version="1.1" width="51px" height="13.8px" viewBox="0 -3 51 13.8" style="top:-3px">  <desc>A3000308</desc>  <defs/>  <g id="Polygon43061">    <path d="M 12 5.2 L 11.7 4.2 L 9.6 4.2 L 9.2 5.2 L 8.5 5.2 L 10.4 0.4 L 11 0.4 L 12.8 5.2 L 12 5.2 Z M 9.8 3.6 L 11.4 3.6 L 10.6 1.4 L 10.6 1.4 L 9.8 3.6 Z M 14.4 2.5 C 14.7 2.5 14.8 2.5 15 2.5 C 15.4 2.4 15.6 2.1 15.6 1.8 C 15.6 1.4 15.3 1.1 14.9 1.1 C 14.5 1.1 14.2 1.3 14.1 1.6 C 14.1 1.6 13.5 1.4 13.5 1.4 C 13.7 0.9 14.2 0.5 14.9 0.5 C 15.7 0.5 16.3 1 16.3 1.8 C 16.3 2.2 16.1 2.6 15.7 2.8 C 16.2 2.9 16.6 3.4 16.6 3.9 C 16.6 4.8 15.9 5.3 15 5.3 C 14.4 5.3 13.8 5.1 13.5 4.6 C 13.5 4.6 14 4.3 14 4.3 C 14.2 4.6 14.6 4.7 15 4.7 C 15.4 4.7 15.9 4.5 15.9 4 C 15.9 3.5 15.4 3.2 14.9 3.2 C 14.7 3.2 14.6 3.2 14.4 3.2 C 14.4 3.2 14.4 2.5 14.4 2.5 Z M 20.9 2.9 C 20.9 4.4 20.3 5.3 19.3 5.3 C 18.2 5.3 17.6 4.4 17.6 2.9 C 17.6 1.4 18.2 0.5 19.3 0.5 C 20.3 0.5 20.9 1.4 20.9 2.9 Z M 18.3 2.9 C 18.3 4.1 18.7 4.7 19.3 4.7 C 19.9 4.7 20.2 4.1 20.2 2.9 C 20.2 1.7 19.9 1.1 19.3 1.1 C 18.7 1.1 18.3 1.7 18.3 2.9 Z M 25.2 2.9 C 25.2 4.4 24.6 5.3 23.6 5.3 C 22.5 5.3 21.9 4.4 21.9 2.9 C 21.9 1.4 22.5 0.5 23.6 0.5 C 24.6 0.5 25.2 1.4 25.2 2.9 Z M 22.6 2.9 C 22.6 4.1 23 4.7 23.6 4.7 C 24.2 4.7 24.6 4.1 24.6 2.9 C 24.6 1.7 24.2 1.1 23.6 1.1 C 23 1.1 22.6 1.7 22.6 2.9 Z M 29.5 2.9 C 29.5 4.4 28.9 5.3 27.9 5.3 C 26.8 5.3 26.2 4.4 26.2 2.9 C 26.2 1.4 26.8 0.5 27.9 0.5 C 28.9 0.5 29.5 1.4 29.5 2.9 Z M 26.9 2.9 C 26.9 4.1 27.3 4.7 27.9 4.7 C 28.5 4.7 28.9 4.1 28.9 2.9 C 28.9 1.7 28.5 1.1 27.9 1.1 C 27.3 1.1 26.9 1.7 26.9 2.9 Z M 31.2 2.5 C 31.5 2.5 31.7 2.5 31.9 2.5 C 32.3 2.4 32.5 2.1 32.5 1.8 C 32.5 1.4 32.2 1.1 31.7 1.1 C 31.4 1.1 31.1 1.3 31 1.6 C 31 1.6 30.4 1.4 30.4 1.4 C 30.6 0.9 31.1 0.5 31.8 0.5 C 32.6 0.5 33.2 1 33.2 1.8 C 33.2 2.2 33 2.6 32.6 2.8 C 33.1 2.9 33.4 3.4 33.4 3.9 C 33.4 4.8 32.7 5.3 31.9 5.3 C 31.3 5.3 30.7 5.1 30.4 4.6 C 30.4 4.6 30.9 4.3 30.9 4.3 C 31.1 4.6 31.5 4.7 31.8 4.7 C 32.3 4.7 32.8 4.5 32.8 4 C 32.8 3.5 32.3 3.2 31.8 3.2 C 31.6 3.2 31.5 3.2 31.2 3.2 C 31.2 3.2 31.2 2.5 31.2 2.5 Z M 37.8 2.9 C 37.8 4.4 37.2 5.3 36.2 5.3 C 35.1 5.3 34.5 4.4 34.5 2.9 C 34.5 1.4 35.1 0.5 36.2 0.5 C 37.2 0.5 37.8 1.4 37.8 2.9 Z M 35.2 2.9 C 35.2 4.1 35.5 4.7 36.2 4.7 C 36.8 4.7 37.1 4.1 37.1 2.9 C 37.1 1.7 36.8 1.1 36.2 1.1 C 35.5 1.1 35.2 1.7 35.2 2.9 Z M 38.8 4 C 38.8 3.4 39.1 3 39.5 2.8 C 39.2 2.6 39 2.3 39 1.8 C 39 1.1 39.5 0.5 40.4 0.5 C 41.3 0.5 41.8 1.1 41.8 1.8 C 41.8 2.3 41.6 2.6 41.2 2.8 C 41.7 3 42 3.4 42 4 C 42 4.7 41.3 5.3 40.4 5.3 C 39.5 5.3 38.8 4.7 38.8 4 Z M 39.5 3.9 C 39.5 4.4 39.9 4.7 40.4 4.7 C 40.9 4.7 41.3 4.4 41.3 3.9 C 41.3 3.5 40.9 3.1 40.4 3.1 C 39.9 3.1 39.5 3.5 39.5 3.9 Z M 39.6 1.8 C 39.6 2.2 40 2.5 40.4 2.5 C 40.8 2.5 41.2 2.2 41.2 1.8 C 41.2 1.4 40.8 1.1 40.4 1.1 C 40 1.1 39.6 1.4 39.6 1.8 Z " stroke="none" fill="#535a5d"/>  </g></svg>