<?xml version="1.0" standalone="no"?><!DOCTYPE svg PUBLIC "-//W3C//DTD SVG 1.1//EN" "http://www.w3.org/Graphics/SVG/1.1/DTD/svg11.dtd"><svg xmlns="http://www.w3.org/2000/svg" version="1.1" width="118px" height="22.8px" viewBox="0 -3 118 22.8" style="top:-3px">  <desc>See 2022 Pillows, Throws &amp; Top of Bed</desc>  <defs/>  <g id="Polygon39628">    <path d="M 19.4 10 L 19.4 14.2 L 18.7 14.2 L 18.7 10 L 17.5 10 L 17.5 9.4 L 20.6 9.4 L 20.6 10 L 19.4 10 Z M 25.1 14.2 L 25.1 12 L 22.5 12 L 22.5 14.2 L 21.8 14.2 L 21.8 9.4 L 22.5 9.4 L 22.5 11.4 L 25.1 11.4 L 25.1 9.4 L 25.7 9.4 L 25.7 14.2 L 25.1 14.2 Z M 30.1 14.2 L 28.6 12.2 L 28.1 12.2 L 28.1 14.2 L 27.4 14.2 L 27.4 9.4 C 27.4 9.4 28.87 9.35 28.9 9.4 C 29.6 9.4 30.5 9.7 30.5 10.8 C 30.5 11.6 29.9 12 29.3 12.1 C 29.34 12.14 30.9 14.2 30.9 14.2 L 30.1 14.2 Z M 28.8 10 C 28.83 9.95 28.1 10 28.1 10 L 28.1 11.6 C 28.1 11.6 28.69 11.58 28.7 11.6 C 29.3 11.6 29.8 11.3 29.8 10.8 C 29.8 10.3 29.4 10 28.8 10 Z M 34.2 9.9 C 33.2 9.9 32.4 10.7 32.4 11.8 C 32.4 12.9 33.2 13.7 34.2 13.7 C 35.3 13.7 36 12.9 36 11.8 C 36 10.7 35.3 9.9 34.2 9.9 Z M 34.2 14.3 C 32.8 14.3 31.7 13.2 31.7 11.8 C 31.7 10.4 32.8 9.3 34.2 9.3 C 35.7 9.3 36.7 10.4 36.7 11.8 C 36.7 13.2 35.7 14.3 34.2 14.3 Z M 42 13 L 42 13 L 43 9.4 L 43.8 9.4 L 42.4 14.2 L 41.7 14.2 L 40.7 10.5 L 40.7 10.5 L 39.6 14.2 L 39 14.2 L 37.6 9.4 L 38.4 9.4 L 39.3 13 L 39.4 13 L 40.4 9.4 L 41 9.4 L 42 13 Z M 46.3 9.9 C 45.8 9.9 45.4 10.1 45.4 10.5 C 45.4 11 45.9 11.1 46.5 11.3 C 47.2 11.6 47.9 11.9 47.9 12.8 C 47.9 13.9 47 14.3 46.2 14.3 C 45.5 14.3 45 14.1 44.5 13.6 C 44.5 13.6 44.9 13.2 44.9 13.2 C 45.4 13.6 45.7 13.7 46.2 13.7 C 46.7 13.7 47.2 13.5 47.2 12.9 C 47.2 12.3 46.7 12.2 46.1 12 C 45.5 11.7 44.8 11.4 44.8 10.6 C 44.8 9.7 45.4 9.3 46.2 9.3 C 46.8 9.3 47.3 9.4 47.8 9.8 C 47.8 9.8 47.3 10.3 47.3 10.3 C 47.1 10 46.7 9.9 46.3 9.9 Z M 55.3 14.4 C 55.3 14.4 54.45 13.61 54.5 13.6 C 54.1 14.1 53.5 14.3 52.9 14.3 C 52.1 14.3 51.3 13.6 51.3 12.8 C 51.3 12.2 51.6 11.7 52.1 11.5 C 51.9 11.2 51.7 10.9 51.7 10.5 C 51.7 9.7 52.4 9.3 53 9.3 C 53.6 9.3 54.1 9.6 54.3 10.1 C 54.3 10.1 53.7 10.3 53.7 10.3 C 53.6 10 53.4 9.9 53 9.9 C 52.6 9.9 52.3 10.1 52.3 10.5 C 52.3 10.9 52.6 11.2 53 11.6 C 53.04 11.55 52.7 12 52.7 12 C 52.7 12 52.54 11.89 52.5 11.9 C 52.2 12.1 51.9 12.4 51.9 12.8 C 51.9 13.3 52.4 13.7 53 13.7 C 53.4 13.7 53.8 13.6 54 13.2 C 54.03 13.23 53.5 12.7 53.5 12.7 L 53.8 12.3 L 55.7 13.9 L 55.3 14.4 Z M 60.1 10 L 60.1 14.2 L 59.4 14.2 L 59.4 10 L 58.2 10 L 58.2 9.4 L 61.3 9.4 L 61.3 10 L 60.1 10 Z M 64.6 9.9 C 63.6 9.9 62.8 10.7 62.8 11.8 C 62.8 12.9 63.6 13.7 64.6 13.7 C 65.7 13.7 66.4 12.9 66.4 11.8 C 66.4 10.7 65.7 9.9 64.6 9.9 Z M 64.6 14.3 C 63.2 14.3 62.1 13.2 62.1 11.8 C 62.1 10.4 63.2 9.3 64.6 9.3 C 66.1 9.3 67.1 10.4 67.1 11.8 C 67.1 13.2 66.1 14.3 64.6 14.3 Z M 70 12.3 C 70.04 12.29 69.3 12.3 69.3 12.3 L 69.3 14.2 L 68.6 14.2 L 68.6 9.4 C 68.6 9.4 70.04 9.35 70 9.4 C 70.8 9.4 71.8 9.7 71.8 10.8 C 71.8 11.9 70.8 12.3 70 12.3 Z M 70 10 C 70.01 9.95 69.3 10 69.3 10 L 69.3 11.7 C 69.3 11.7 69.87 11.69 69.9 11.7 C 70.5 11.7 71.1 11.5 71.1 10.8 C 71.1 10.3 70.6 10 70 10 Z M 77.4 9.9 C 76.3 9.9 75.6 10.7 75.6 11.8 C 75.6 12.9 76.3 13.7 77.4 13.7 C 78.4 13.7 79.2 12.9 79.2 11.8 C 79.2 10.7 78.4 9.9 77.4 9.9 Z M 77.4 14.3 C 75.9 14.3 74.9 13.2 74.9 11.8 C 74.9 10.4 75.9 9.3 77.4 9.3 C 78.8 9.3 79.9 10.4 79.9 11.8 C 79.9 13.2 78.8 14.3 77.4 14.3 Z M 82 12.2 L 82 14.2 L 81.3 14.2 L 81.3 9.4 L 83.8 9.4 L 83.8 10 L 82 10 L 82 11.6 L 83.8 11.6 L 83.8 12.2 L 82 12.2 Z M 87.2 9.4 C 87.2 9.4 88.41 9.35 88.4 9.4 C 88.9 9.4 89.4 9.4 89.7 9.7 C 90.1 9.9 90.2 10.2 90.2 10.7 C 90.2 11.1 90 11.5 89.5 11.7 C 90.1 11.9 90.4 12.3 90.4 12.9 C 90.4 13.4 90.1 13.8 89.6 14.1 C 89.3 14.2 88.8 14.2 88.3 14.2 C 88.35 14.25 87.2 14.2 87.2 14.2 L 87.2 9.4 Z M 88.7 12 C 88.7 12.04 87.9 12 87.9 12 L 87.9 13.7 C 87.9 13.7 88.28 13.66 88.3 13.7 C 88.7 13.7 89 13.6 89.3 13.5 C 89.6 13.4 89.7 13.2 89.7 12.9 C 89.7 12.4 89.4 12 88.7 12 Z M 89.3 10.1 C 89 10 88.7 9.9 88.2 9.9 C 88.25 9.94 87.9 9.9 87.9 9.9 L 87.9 11.5 C 87.9 11.5 88.38 11.45 88.4 11.5 C 89.1 11.5 89.6 11.2 89.6 10.7 C 89.6 10.4 89.5 10.2 89.3 10.1 Z M 91.9 14.2 L 91.9 9.4 L 94.8 9.4 L 94.8 10 L 92.5 10 L 92.5 11.4 L 94.8 11.4 L 94.8 12 L 92.5 12 L 92.5 13.6 L 94.8 13.6 L 94.8 14.2 L 91.9 14.2 Z M 96.3 9.4 C 96.3 9.4 97.6 9.35 97.6 9.4 C 98.8 9.4 100.2 10 100.2 11.8 C 100.2 13.6 98.9 14.2 97.5 14.2 C 97.53 14.25 96.3 14.2 96.3 14.2 L 96.3 9.4 Z M 97.5 10 C 97.47 9.95 96.9 10 96.9 10 L 96.9 13.6 C 96.9 13.6 97.18 13.65 97.2 13.6 C 98.6 13.6 99.5 13.2 99.5 11.8 C 99.5 10.6 98.8 10 97.5 10 Z " stroke="none" fill="#535a5d"/>  </g>  <g id="Polygon39627">    <path d="M 27.7 0.9 C 27.2 0.9 26.8 1.1 26.8 1.5 C 26.8 2 27.3 2.1 27.8 2.3 C 28.5 2.6 29.3 2.9 29.3 3.8 C 29.3 4.9 28.4 5.3 27.6 5.3 C 26.9 5.3 26.4 5.1 25.8 4.6 C 25.8 4.6 26.3 4.2 26.3 4.2 C 26.8 4.6 27.1 4.7 27.6 4.7 C 28.1 4.7 28.6 4.5 28.6 3.9 C 28.6 3.3 28.1 3.2 27.5 3 C 26.9 2.7 26.1 2.4 26.1 1.6 C 26.1 0.7 26.8 0.3 27.6 0.3 C 28.2 0.3 28.7 0.4 29.1 0.8 C 29.1 0.8 28.7 1.3 28.7 1.3 C 28.5 1 28.1 0.9 27.7 0.9 Z M 30.7 5.2 L 30.7 0.4 L 33.7 0.4 L 33.7 1 L 31.4 1 L 31.4 2.4 L 33.7 2.4 L 33.7 3 L 31.4 3 L 31.4 4.6 L 33.7 4.6 L 33.7 5.2 L 30.7 5.2 Z M 35.1 5.2 L 35.1 0.4 L 38.1 0.4 L 38.1 1 L 35.8 1 L 35.8 2.4 L 38.1 2.4 L 38.1 3 L 35.8 3 L 35.8 4.6 L 38.1 4.6 L 38.1 5.2 L 35.1 5.2 Z M 41.4 5.2 C 41.4 5.2 41.39 4.66 41.4 4.7 C 41.9 4.1 42.6 3.4 43 2.7 C 43.2 2.5 43.5 2.1 43.5 1.8 C 43.5 1.3 43.1 1.1 42.7 1.1 C 42.3 1.1 42 1.4 42 1.8 C 42 1.8 41.3 1.7 41.3 1.7 C 41.4 1 42.1 0.5 42.7 0.5 C 43.5 0.5 44.1 1 44.1 1.8 C 44.1 2.2 43.9 2.7 43.6 3 C 43.2 3.6 42.8 4.2 42.3 4.7 C 42.27 4.66 44.3 4.7 44.3 4.7 L 44.3 5.2 L 41.4 5.2 Z M 48.5 2.9 C 48.5 4.4 47.9 5.3 46.9 5.3 C 45.8 5.3 45.2 4.4 45.2 2.9 C 45.2 1.4 45.8 0.5 46.9 0.5 C 47.9 0.5 48.5 1.4 48.5 2.9 Z M 45.9 2.9 C 45.9 4.1 46.3 4.7 46.9 4.7 C 47.5 4.7 47.9 4.1 47.9 2.9 C 47.9 1.7 47.5 1.1 46.9 1.1 C 46.3 1.1 45.9 1.7 45.9 2.9 Z M 49.6 5.2 C 49.6 5.2 49.57 4.66 49.6 4.7 C 50.1 4.1 50.8 3.4 51.2 2.7 C 51.4 2.5 51.6 2.1 51.6 1.8 C 51.6 1.3 51.3 1.1 50.9 1.1 C 50.5 1.1 50.1 1.4 50.1 1.8 C 50.1 1.8 49.5 1.7 49.5 1.7 C 49.5 1 50.2 0.5 50.9 0.5 C 51.6 0.5 52.3 1 52.3 1.8 C 52.3 2.2 52.1 2.7 51.8 3 C 51.4 3.6 50.9 4.2 50.5 4.7 C 50.46 4.66 52.5 4.7 52.5 4.7 L 52.5 5.2 L 49.6 5.2 Z M 53.5 5.2 C 53.5 5.2 53.49 4.66 53.5 4.7 C 54 4.1 54.7 3.4 55.1 2.7 C 55.3 2.5 55.6 2.1 55.6 1.8 C 55.6 1.3 55.2 1.1 54.8 1.1 C 54.4 1.1 54.1 1.4 54.1 1.8 C 54.1 1.8 53.4 1.7 53.4 1.7 C 53.5 1 54.2 0.5 54.8 0.5 C 55.5 0.5 56.2 1 56.2 1.8 C 56.2 2.2 56 2.7 55.7 3 C 55.3 3.6 54.9 4.2 54.4 4.7 C 54.37 4.66 56.4 4.7 56.4 4.7 L 56.4 5.2 L 53.5 5.2 Z M 61.2 3.3 C 61.22 3.29 60.4 3.3 60.4 3.3 L 60.4 5.2 L 59.8 5.2 L 59.8 0.4 C 59.8 0.4 61.22 0.35 61.2 0.4 C 62 0.4 63 0.7 63 1.8 C 63 2.9 62 3.3 61.2 3.3 Z M 61.2 1 C 61.19 0.95 60.4 1 60.4 1 L 60.4 2.7 C 60.4 2.7 61.05 2.69 61 2.7 C 61.7 2.7 62.2 2.5 62.2 1.8 C 62.2 1.3 61.8 1 61.2 1 Z M 64.1 5.2 L 64.1 0.4 L 64.8 0.4 L 64.8 5.2 L 64.1 5.2 Z M 66.5 5.2 L 66.5 0.4 L 67.1 0.4 L 67.1 4.6 L 69.3 4.6 L 69.3 5.2 L 66.5 5.2 Z M 70.3 5.2 L 70.3 0.4 L 71 0.4 L 71 4.6 L 73.1 4.6 L 73.1 5.2 L 70.3 5.2 Z M 76.2 0.9 C 75.2 0.9 74.4 1.7 74.4 2.8 C 74.4 3.9 75.2 4.7 76.2 4.7 C 77.3 4.7 78 3.9 78 2.8 C 78 1.7 77.3 0.9 76.2 0.9 Z M 76.2 5.3 C 74.8 5.3 73.7 4.2 73.7 2.8 C 73.7 1.4 74.8 0.3 76.2 0.3 C 77.7 0.3 78.7 1.4 78.7 2.8 C 78.7 4.2 77.7 5.3 76.2 5.3 Z M 84 4 L 84 4 L 85 0.4 L 85.7 0.4 L 84.4 5.2 L 83.7 5.2 L 82.7 1.5 L 82.7 1.5 L 81.6 5.2 L 81 5.2 L 79.6 0.4 L 80.4 0.4 L 81.3 4 L 81.4 4 L 82.4 0.4 L 83 0.4 L 84 4 Z M 88.3 0.9 C 87.8 0.9 87.4 1.1 87.4 1.5 C 87.4 2 87.9 2.1 88.5 2.3 C 89.2 2.6 89.9 2.9 89.9 3.8 C 89.9 4.9 89 5.3 88.2 5.3 C 87.5 5.3 87 5.1 86.5 4.6 C 86.5 4.6 86.9 4.2 86.9 4.2 C 87.4 4.6 87.7 4.7 88.2 4.7 C 88.7 4.7 89.2 4.5 89.2 3.9 C 89.2 3.3 88.7 3.2 88.1 3 C 87.5 2.7 86.8 2.4 86.8 1.6 C 86.8 0.7 87.4 0.3 88.2 0.3 C 88.8 0.3 89.3 0.4 89.8 0.8 C 89.8 0.8 89.3 1.3 89.3 1.3 C 89.1 1 88.7 0.9 88.3 0.9 Z M 91.6 6.2 L 91 6.2 L 91.4 4.4 L 92.1 4.4 L 91.6 6.2 Z " stroke="none" fill="#535a5d"/>  </g></svg>