<?xml version="1.0" standalone="no"?><!DOCTYPE svg PUBLIC "-//W3C//DTD SVG 1.1//EN" "http://www.w3.org/Graphics/SVG/1.1/DTD/svg11.dtd"><svg xmlns="http://www.w3.org/2000/svg" version="1.1" width="51px" height="13.8px" viewBox="0 -3 51 13.8" style="top:-3px">  <desc>A2000108</desc>  <defs/>  <g id="Polygon42553">    <path d="M 12.7 5.2 L 12.4 4.2 L 10.3 4.2 L 9.9 5.2 L 9.2 5.2 L 11.1 0.4 L 11.6 0.4 L 13.5 5.2 L 12.7 5.2 Z M 10.5 3.6 L 12.1 3.6 L 11.3 1.4 L 11.3 1.4 L 10.5 3.6 Z M 14.4 5.2 C 14.4 5.2 14.38 4.66 14.4 4.7 C 14.9 4.1 15.6 3.4 16 2.7 C 16.2 2.5 16.4 2.1 16.4 1.8 C 16.4 1.3 16.1 1.1 15.7 1.1 C 15.3 1.1 15 1.4 15 1.8 C 15 1.8 14.3 1.7 14.3 1.7 C 14.4 1 15.1 0.5 15.7 0.5 C 16.4 0.5 17.1 1 17.1 1.8 C 17.1 2.2 16.9 2.7 16.6 3 C 16.2 3.6 15.7 4.2 15.3 4.7 C 15.27 4.66 17.3 4.7 17.3 4.7 L 17.3 5.2 L 14.4 5.2 Z M 21.5 2.9 C 21.5 4.4 20.9 5.3 19.9 5.3 C 18.8 5.3 18.2 4.4 18.2 2.9 C 18.2 1.4 18.8 0.5 19.9 0.5 C 20.9 0.5 21.5 1.4 21.5 2.9 Z M 18.9 2.9 C 18.9 4.1 19.3 4.7 19.9 4.7 C 20.5 4.7 20.9 4.1 20.9 2.9 C 20.9 1.7 20.5 1.1 19.9 1.1 C 19.3 1.1 18.9 1.7 18.9 2.9 Z M 25.8 2.9 C 25.8 4.4 25.2 5.3 24.2 5.3 C 23.1 5.3 22.5 4.4 22.5 2.9 C 22.5 1.4 23.1 0.5 24.2 0.5 C 25.2 0.5 25.8 1.4 25.8 2.9 Z M 23.2 2.9 C 23.2 4.1 23.6 4.7 24.2 4.7 C 24.8 4.7 25.2 4.1 25.2 2.9 C 25.2 1.7 24.8 1.1 24.2 1.1 C 23.6 1.1 23.2 1.7 23.2 2.9 Z M 30.1 2.9 C 30.1 4.4 29.5 5.3 28.5 5.3 C 27.4 5.3 26.9 4.4 26.9 2.9 C 26.9 1.4 27.4 0.5 28.5 0.5 C 29.5 0.5 30.1 1.4 30.1 2.9 Z M 27.5 2.9 C 27.5 4.1 27.9 4.7 28.5 4.7 C 29.1 4.7 29.5 4.1 29.5 2.9 C 29.5 1.7 29.1 1.1 28.5 1.1 C 27.9 1.1 27.5 1.7 27.5 2.9 Z M 31.9 5.2 C 31.9 5.2 31.86 1.4 31.9 1.4 C 31.6 1.5 31.4 1.6 31.2 1.7 C 31.2 1.7 31.2 1.1 31.2 1.1 C 31.4 1 31.8 0.8 32.1 0.6 C 32.09 0.6 32.5 0.6 32.5 0.6 L 32.5 5.2 L 31.9 5.2 Z M 37.1 2.9 C 37.1 4.4 36.5 5.3 35.5 5.3 C 34.4 5.3 33.8 4.4 33.8 2.9 C 33.8 1.4 34.4 0.5 35.5 0.5 C 36.5 0.5 37.1 1.4 37.1 2.9 Z M 34.5 2.9 C 34.5 4.1 34.8 4.7 35.5 4.7 C 36.1 4.7 36.4 4.1 36.4 2.9 C 36.4 1.7 36.1 1.1 35.5 1.1 C 34.8 1.1 34.5 1.7 34.5 2.9 Z M 38.1 4 C 38.1 3.4 38.4 3 38.8 2.8 C 38.5 2.6 38.3 2.3 38.3 1.8 C 38.3 1.1 38.8 0.5 39.7 0.5 C 40.6 0.5 41.1 1.1 41.1 1.8 C 41.1 2.3 40.9 2.6 40.5 2.8 C 41 3 41.3 3.4 41.3 4 C 41.3 4.7 40.6 5.3 39.7 5.3 C 38.8 5.3 38.1 4.7 38.1 4 Z M 38.8 3.9 C 38.8 4.4 39.2 4.7 39.7 4.7 C 40.2 4.7 40.6 4.4 40.6 3.9 C 40.6 3.5 40.2 3.1 39.7 3.1 C 39.2 3.1 38.8 3.5 38.8 3.9 Z M 38.9 1.8 C 38.9 2.2 39.3 2.5 39.7 2.5 C 40.1 2.5 40.5 2.2 40.5 1.8 C 40.5 1.4 40.1 1.1 39.7 1.1 C 39.3 1.1 38.9 1.4 38.9 1.8 Z " stroke="none" fill="#535a5d"/>  </g></svg>