<?xml version="1.0" standalone="no"?><!DOCTYPE svg PUBLIC "-//W3C//DTD SVG 1.1//EN" "http://www.w3.org/Graphics/SVG/1.1/DTD/svg11.dtd"><svg xmlns="http://www.w3.org/2000/svg" version="1.1" width="51px" height="13.8px" viewBox="0 -3 51 13.8" style="top:-3px">  <desc>A1000908</desc>  <defs/>  <g id="Polygon42798">    <path d="M 12.6 5.2 L 12.2 4.2 L 10.1 4.2 L 9.8 5.2 L 9 5.2 L 10.9 0.4 L 11.5 0.4 L 13.4 5.2 L 12.6 5.2 Z M 10.4 3.6 L 12 3.6 L 11.2 1.4 L 11.2 1.4 L 10.4 3.6 Z M 14.9 5.2 C 14.9 5.2 14.93 1.4 14.9 1.4 C 14.7 1.5 14.4 1.6 14.2 1.7 C 14.2 1.7 14.2 1.1 14.2 1.1 C 14.5 1 14.9 0.8 15.2 0.6 C 15.16 0.6 15.6 0.6 15.6 0.6 L 15.6 5.2 L 14.9 5.2 Z M 20.2 2.9 C 20.2 4.4 19.6 5.3 18.5 5.3 C 17.5 5.3 16.9 4.4 16.9 2.9 C 16.9 1.4 17.5 0.5 18.5 0.5 C 19.6 0.5 20.2 1.4 20.2 2.9 Z M 17.6 2.9 C 17.6 4.1 17.9 4.7 18.5 4.7 C 19.1 4.7 19.5 4.1 19.5 2.9 C 19.5 1.7 19.1 1.1 18.5 1.1 C 17.9 1.1 17.6 1.7 17.6 2.9 Z M 24.5 2.9 C 24.5 4.4 23.9 5.3 22.8 5.3 C 21.8 5.3 21.2 4.4 21.2 2.9 C 21.2 1.4 21.8 0.5 22.8 0.5 C 23.9 0.5 24.5 1.4 24.5 2.9 Z M 21.9 2.9 C 21.9 4.1 22.2 4.7 22.8 4.7 C 23.5 4.7 23.8 4.1 23.8 2.9 C 23.8 1.7 23.5 1.1 22.8 1.1 C 22.2 1.1 21.9 1.7 21.9 2.9 Z M 28.8 2.9 C 28.8 4.4 28.2 5.3 27.1 5.3 C 26.1 5.3 25.5 4.4 25.5 2.9 C 25.5 1.4 26.1 0.5 27.1 0.5 C 28.2 0.5 28.8 1.4 28.8 2.9 Z M 26.2 2.9 C 26.2 4.1 26.5 4.7 27.1 4.7 C 27.8 4.7 28.1 4.1 28.1 2.9 C 28.1 1.7 27.8 1.1 27.1 1.1 C 26.5 1.1 26.2 1.7 26.2 2.9 Z M 30.4 4.9 C 31.2 4.5 31.9 4 32.2 3.1 C 31.9 3.4 31.6 3.5 31.1 3.5 C 30.3 3.5 29.8 2.9 29.8 2 C 29.8 1.2 30.4 0.5 31.2 0.5 C 32.3 0.5 32.9 1.4 32.9 2.4 C 32.9 3.9 31.9 5 30.7 5.5 C 30.7 5.5 30.4 4.9 30.4 4.9 Z M 32.3 2.4 C 32.3 1.7 32 1.1 31.3 1.1 C 30.8 1.1 30.4 1.5 30.4 2.1 C 30.4 2.6 30.8 3 31.3 3 C 31.7 3 32.1 2.7 32.3 2.4 Z M 37.2 2.9 C 37.2 4.4 36.6 5.3 35.6 5.3 C 34.5 5.3 33.9 4.4 33.9 2.9 C 33.9 1.4 34.5 0.5 35.6 0.5 C 36.6 0.5 37.2 1.4 37.2 2.9 Z M 34.6 2.9 C 34.6 4.1 35 4.7 35.6 4.7 C 36.2 4.7 36.6 4.1 36.6 2.9 C 36.6 1.7 36.2 1.1 35.6 1.1 C 35 1.1 34.6 1.7 34.6 2.9 Z M 38.3 4 C 38.3 3.4 38.5 3 39 2.8 C 38.6 2.6 38.4 2.3 38.4 1.8 C 38.4 1.1 39 0.5 39.8 0.5 C 40.7 0.5 41.3 1.1 41.3 1.8 C 41.3 2.3 41 2.6 40.7 2.8 C 41.1 3 41.4 3.4 41.4 4 C 41.4 4.7 40.8 5.3 39.8 5.3 C 38.9 5.3 38.3 4.7 38.3 4 Z M 38.9 3.9 C 38.9 4.4 39.3 4.7 39.8 4.7 C 40.3 4.7 40.7 4.4 40.7 3.9 C 40.7 3.5 40.3 3.1 39.8 3.1 C 39.3 3.1 38.9 3.5 38.9 3.9 Z M 39 1.8 C 39 2.2 39.4 2.5 39.8 2.5 C 40.3 2.5 40.6 2.2 40.6 1.8 C 40.6 1.4 40.3 1.1 39.8 1.1 C 39.4 1.1 39 1.4 39 1.8 Z " stroke="none" fill="#535a5d"/>  </g></svg>