<?xml version="1.0" standalone="no"?><!DOCTYPE svg PUBLIC "-//W3C//DTD SVG 1.1//EN" "http://www.w3.org/Graphics/SVG/1.1/DTD/svg11.dtd"><svg xmlns="http://www.w3.org/2000/svg" version="1.1" width="119px" height="50px" viewBox="0 -4 119 50" style="top:-4px">  <desc>Comfortable and cool; we make relaxing look luxurious with these head-turning designs</desc>  <defs/>  <g id="Polygon39936">    <path d="M 1.4 24.6 C 1.4 24.6 1.44 26.45 1.4 26.4 C 1.4 26.6 1.4 26.6 1.4 26.8 C 1.5 27.2 1.6 27.4 2 27.4 C 2.2 27.4 2.3 27.4 2.5 27.3 C 2.5 27.3 2.7 27.9 2.7 27.9 C 2.5 28 2.2 28.1 1.9 28.1 C 1.4 28.1 1 27.8 0.8 27.5 C 0.7 27.2 0.7 26.9 0.7 26.6 C 0.71 26.62 0.7 24.6 0.7 24.6 L 0.2 24.6 L 0.2 24 L 0.7 24 L 0.7 23 L 1.4 23 L 1.4 24 L 2.6 24 L 2.6 24.6 L 1.4 24.6 Z M 4.2 24.7 C 4.5 24.2 4.9 23.9 5.5 23.9 C 6 23.9 6.4 24.1 6.6 24.4 C 6.9 24.8 7 25.3 7 25.9 C 6.99 25.92 7 28 7 28 L 6.3 28 C 6.3 28 6.26 26 6.3 26 C 6.3 25.6 6.2 25.2 6.1 24.9 C 5.9 24.7 5.7 24.6 5.4 24.6 C 4.9 24.6 4.5 24.9 4.2 25.3 C 4.17 25.34 4.2 28 4.2 28 L 3.4 28 L 3.4 22 L 4.2 22 C 4.2 22 4.17 24.66 4.2 24.7 Z M 8.7 26.2 C 8.7 26.9 9.2 27.5 10 27.5 C 10.5 27.5 10.9 27.3 11.2 26.8 C 11.2 26.8 11.7 27.2 11.7 27.2 C 11.3 27.8 10.7 28.1 9.9 28.1 C 8.7 28.1 8 27.2 8 26 C 8 24.8 8.8 23.9 9.9 23.9 C 11 23.9 11.8 24.7 11.8 25.8 C 11.8 25.9 11.7 26.1 11.7 26.2 C 11.7 26.2 8.7 26.2 8.7 26.2 Z M 8.7 25.6 C 8.7 25.6 11 25.6 11 25.6 C 11 25 10.5 24.5 9.9 24.5 C 9.3 24.5 8.9 25 8.7 25.6 Z M 14.7 24.8 C 14.5 24.6 14.2 24.5 13.9 24.5 C 13.6 24.5 13.3 24.7 13.3 25 C 13.3 25.3 13.7 25.5 14.1 25.6 C 14.6 25.8 15.3 26.1 15.3 26.8 C 15.3 27.7 14.6 28.1 13.8 28.1 C 13.3 28.1 12.8 27.9 12.4 27.5 C 12.4 27.5 13 27.1 13 27.1 C 13.2 27.3 13.5 27.5 13.8 27.5 C 14.2 27.5 14.5 27.3 14.5 26.9 C 14.5 26.6 14.2 26.4 13.8 26.3 C 13.2 26 12.6 25.8 12.6 25.1 C 12.6 24.3 13.3 23.9 13.9 23.9 C 14.4 23.9 14.8 24.1 15.2 24.3 C 15.2 24.3 14.7 24.8 14.7 24.8 Z M 16.8 26.2 C 16.8 26.9 17.3 27.5 18.1 27.5 C 18.6 27.5 19 27.3 19.2 26.8 C 19.2 26.8 19.8 27.2 19.8 27.2 C 19.4 27.8 18.8 28.1 18 28.1 C 16.8 28.1 16 27.2 16 26 C 16 24.8 16.9 23.9 18 23.9 C 19.1 23.9 19.8 24.7 19.8 25.8 C 19.8 25.9 19.8 26.1 19.8 26.2 C 19.8 26.2 16.8 26.2 16.8 26.2 Z M 16.8 25.6 C 16.8 25.6 19.1 25.6 19.1 25.6 C 19.1 25 18.6 24.5 18 24.5 C 17.4 24.5 17 25 16.8 25.6 Z M 23.6 24.7 C 23.9 24.2 24.4 23.9 24.9 23.9 C 25.4 23.9 25.8 24.1 26 24.4 C 26.3 24.8 26.4 25.3 26.4 25.9 C 26.41 25.92 26.4 28 26.4 28 L 25.7 28 C 25.7 28 25.68 26 25.7 26 C 25.7 25.6 25.7 25.2 25.5 24.9 C 25.3 24.7 25.1 24.6 24.8 24.6 C 24.3 24.6 23.9 24.9 23.6 25.3 C 23.58 25.34 23.6 28 23.6 28 L 22.9 28 L 22.9 22 L 23.6 22 C 23.6 22 23.58 24.66 23.6 24.7 Z M 28.1 26.2 C 28.1 26.9 28.6 27.5 29.4 27.5 C 29.9 27.5 30.3 27.3 30.6 26.8 C 30.6 26.8 31.1 27.2 31.1 27.2 C 30.7 27.8 30.2 28.1 29.4 28.1 C 28.1 28.1 27.4 27.2 27.4 26 C 27.4 24.8 28.2 23.9 29.4 23.9 C 30.4 23.9 31.2 24.7 31.2 25.8 C 31.2 25.9 31.2 26.1 31.1 26.2 C 31.1 26.2 28.1 26.2 28.1 26.2 Z M 28.2 25.6 C 28.2 25.6 30.4 25.6 30.4 25.6 C 30.4 25 30 24.5 29.4 24.5 C 28.7 24.5 28.3 25 28.2 25.6 Z M 34.6 28 C 34.6 28 34.56 27.58 34.6 27.6 C 34.2 27.9 33.9 28.1 33.4 28.1 C 32.6 28.1 31.9 27.7 31.9 26.9 C 31.9 25.9 32.8 25.6 33.7 25.6 C 33.9 25.6 34.2 25.6 34.5 25.6 C 34.5 25.6 34.5 25.5 34.5 25.5 C 34.5 24.9 34.2 24.5 33.6 24.5 C 33.1 24.5 32.6 24.7 32.3 24.9 C 32.3 24.9 32.1 24.3 32.1 24.3 C 32.5 24.1 33.1 23.9 33.7 23.9 C 34.8 23.9 35.3 24.5 35.3 25.6 C 35.26 25.57 35.3 28 35.3 28 L 34.6 28 Z M 34.5 26.2 C 34.2 26.1 34 26.1 33.8 26.1 C 33.3 26.1 32.7 26.2 32.7 26.8 C 32.7 27.3 33 27.5 33.4 27.5 C 33.9 27.5 34.2 27.3 34.5 27 C 34.5 27 34.5 26.2 34.5 26.2 Z M 36.2 26 C 36.2 24.9 37 23.9 38.2 23.9 C 38.7 23.9 39.2 24.1 39.5 24.4 C 39.49 24.44 39.5 22 39.5 22 L 40.2 22 L 40.2 28 L 39.5 28 C 39.5 28 39.49 27.46 39.5 27.5 C 39.2 27.9 38.7 28.1 38.2 28.1 C 37.1 28.1 36.2 27.2 36.2 26 Z M 39.5 26.7 C 39.5 26.7 39.5 25.2 39.5 25.2 C 39.2 24.8 38.7 24.6 38.3 24.6 C 37.4 24.6 37 25.3 37 26 C 37 26.8 37.5 27.4 38.3 27.4 C 38.7 27.4 39.3 27.2 39.5 26.7 Z M 41.7 26.1 L 41.7 25.4 L 43.8 25.4 L 43.8 26.1 L 41.7 26.1 Z M 46 24.6 C 46 24.6 46.01 26.45 46 26.4 C 46 26.6 46 26.6 46 26.8 C 46 27.2 46.2 27.4 46.6 27.4 C 46.7 27.4 46.9 27.4 47 27.3 C 47 27.3 47.2 27.9 47.2 27.9 C 47 28 46.7 28.1 46.5 28.1 C 45.9 28.1 45.6 27.8 45.4 27.5 C 45.3 27.2 45.3 26.9 45.3 26.6 C 45.28 26.62 45.3 24.6 45.3 24.6 L 44.7 24.6 L 44.7 24 L 45.3 24 L 45.3 23 L 46 23 L 46 24 L 47.1 24 L 47.1 24.6 L 46 24.6 Z M 50.8 27.3 C 50.5 27.8 50 28.1 49.5 28.1 C 48.9 28.1 48.6 27.9 48.3 27.6 C 48 27.2 48 26.7 48 26.1 C 47.96 26.08 48 24 48 24 L 48.7 24 C 48.7 24 48.69 26 48.7 26 C 48.7 26.4 48.7 26.8 48.9 27.1 C 49 27.3 49.2 27.4 49.6 27.4 C 50.1 27.4 50.5 27.1 50.8 26.7 C 50.78 26.66 50.8 24 50.8 24 L 51.5 24 L 51.5 28 L 50.8 28 C 50.8 28 50.78 27.34 50.8 27.3 Z M 53.6 24.7 C 53.8 24.2 54.2 23.9 54.6 23.9 C 54.8 23.9 54.9 23.9 55 24 C 55 24 54.9 24.7 54.9 24.7 C 54.8 24.7 54.7 24.6 54.5 24.6 C 54.1 24.6 53.8 24.9 53.6 25.3 C 53.58 25.32 53.6 28 53.6 28 L 52.9 28 L 52.9 24 L 53.6 24 C 53.6 24 53.58 24.66 53.6 24.7 Z M 56.4 24 C 56.4 24 56.44 24.66 56.4 24.7 C 56.7 24.2 57.2 23.9 57.7 23.9 C 58.3 23.9 58.7 24.1 58.9 24.4 C 59.2 24.8 59.3 25.3 59.3 25.9 C 59.26 25.92 59.3 28 59.3 28 L 58.5 28 C 58.5 28 58.54 26 58.5 26 C 58.5 25.6 58.5 25.2 58.3 24.9 C 58.2 24.7 58 24.6 57.6 24.6 C 57.2 24.6 56.7 24.9 56.4 25.3 C 56.44 25.34 56.4 28 56.4 28 L 55.7 28 L 55.7 24 L 56.4 24 Z M 60.6 28 L 60.6 24 L 61.3 24 L 61.3 28 L 60.6 28 Z M 60.6 23.2 L 60.6 22.4 L 61.3 22.4 L 61.3 23.2 L 60.6 23.2 Z M 63.4 24 C 63.4 24 63.36 24.66 63.4 24.7 C 63.7 24.2 64.1 23.9 64.7 23.9 C 65.2 23.9 65.6 24.1 65.8 24.4 C 66.1 24.8 66.2 25.3 66.2 25.9 C 66.18 25.92 66.2 28 66.2 28 L 65.5 28 C 65.5 28 65.46 26 65.5 26 C 65.5 25.6 65.4 25.2 65.2 24.9 C 65.1 24.7 64.9 24.6 64.6 24.6 C 64.1 24.6 63.6 24.9 63.4 25.3 C 63.36 25.34 63.4 28 63.4 28 L 62.6 28 L 62.6 24 L 63.4 24 Z M 71.1 27.8 C 71.1 28.2 71.1 28.5 70.9 28.8 C 70.6 29.5 69.9 29.8 69.1 29.8 C 68.5 29.8 67.8 29.6 67.4 29.2 C 67.4 29.2 67.6 28.6 67.6 28.6 C 68 28.9 68.6 29.1 69.1 29.1 C 69.8 29.1 70.4 28.8 70.4 27.9 C 70.4 27.9 70.4 27.4 70.4 27.4 C 70.1 27.8 69.6 28 69.1 28 C 68 28 67.1 27.1 67.1 26 C 67.1 24.9 67.9 23.9 69.2 23.9 C 69.6 23.9 70.1 24.1 70.4 24.4 C 70.42 24.44 70.4 24 70.4 24 L 71.1 24 C 71.1 24 71.14 27.78 71.1 27.8 Z M 70.4 25.2 C 70.1 24.8 69.7 24.6 69.3 24.6 C 68.3 24.6 67.9 25.3 67.9 26 C 67.9 26.7 68.4 27.3 69.2 27.3 C 69.7 27.3 70.2 27.1 70.4 26.6 C 70.4 26.6 70.4 25.2 70.4 25.2 Z M 74.1 26 C 74.1 24.9 74.9 23.9 76.1 23.9 C 76.6 23.9 77.1 24.1 77.4 24.4 C 77.38 24.44 77.4 22 77.4 22 L 78.1 22 L 78.1 28 L 77.4 28 C 77.4 28 77.38 27.46 77.4 27.5 C 77.1 27.9 76.6 28.1 76.1 28.1 C 75 28.1 74.1 27.2 74.1 26 Z M 77.4 26.7 C 77.4 26.7 77.4 25.2 77.4 25.2 C 77.1 24.8 76.6 24.6 76.2 24.6 C 75.3 24.6 74.8 25.3 74.8 26 C 74.8 26.8 75.4 27.4 76.2 27.4 C 76.6 27.4 77.2 27.2 77.4 26.7 Z M 79.8 26.2 C 79.9 26.9 80.4 27.5 81.1 27.5 C 81.7 27.5 82.1 27.3 82.3 26.8 C 82.3 26.8 82.8 27.2 82.8 27.2 C 82.4 27.8 81.9 28.1 81.1 28.1 C 79.8 28.1 79.1 27.2 79.1 26 C 79.1 24.8 80 23.9 81.1 23.9 C 82.2 23.9 82.9 24.7 82.9 25.8 C 82.9 25.9 82.9 26.1 82.9 26.2 C 82.9 26.2 79.8 26.2 79.8 26.2 Z M 79.9 25.6 C 79.9 25.6 82.2 25.6 82.2 25.6 C 82.1 25 81.7 24.5 81.1 24.5 C 80.5 24.5 80 25 79.9 25.6 Z M 85.9 24.8 C 85.7 24.6 85.4 24.5 85.1 24.5 C 84.7 24.5 84.5 24.7 84.5 25 C 84.5 25.3 84.9 25.5 85.3 25.6 C 85.8 25.8 86.4 26.1 86.4 26.8 C 86.4 27.7 85.7 28.1 85 28.1 C 84.4 28.1 83.9 27.9 83.6 27.5 C 83.6 27.5 84.1 27.1 84.1 27.1 C 84.4 27.3 84.7 27.5 85 27.5 C 85.4 27.5 85.7 27.3 85.7 26.9 C 85.7 26.6 85.3 26.4 84.9 26.3 C 84.4 26 83.8 25.8 83.8 25.1 C 83.8 24.3 84.4 23.9 85.1 23.9 C 85.5 23.9 86 24.1 86.3 24.3 C 86.3 24.3 85.9 24.8 85.9 24.8 Z M 87.5 28 L 87.5 24 L 88.3 24 L 88.3 28 L 87.5 28 Z M 87.5 23.2 L 87.5 22.4 L 88.3 22.4 L 88.3 23.2 L 87.5 23.2 Z M 93.3 27.8 C 93.3 28.2 93.2 28.5 93.1 28.8 C 92.7 29.5 92 29.8 91.3 29.8 C 90.6 29.8 90 29.6 89.5 29.2 C 89.5 29.2 89.8 28.6 89.8 28.6 C 90.1 28.9 90.7 29.1 91.2 29.1 C 91.9 29.1 92.5 28.8 92.5 27.9 C 92.5 27.9 92.5 27.4 92.5 27.4 C 92.3 27.8 91.7 28 91.3 28 C 90.1 28 89.3 27.1 89.3 26 C 89.3 24.9 90.1 23.9 91.3 23.9 C 91.8 23.9 92.2 24.1 92.5 24.4 C 92.54 24.44 92.5 24 92.5 24 L 93.3 24 C 93.3 24 93.27 27.78 93.3 27.8 Z M 92.5 25.2 C 92.3 24.8 91.8 24.6 91.4 24.6 C 90.5 24.6 90 25.3 90 26 C 90 26.7 90.5 27.3 91.4 27.3 C 91.8 27.3 92.3 27.1 92.5 26.6 C 92.5 26.6 92.5 25.2 92.5 25.2 Z M 95.3 24 C 95.3 24 95.29 24.66 95.3 24.7 C 95.6 24.2 96.1 23.9 96.6 23.9 C 97.2 23.9 97.5 24.1 97.8 24.4 C 98 24.8 98.1 25.3 98.1 25.9 C 98.12 25.92 98.1 28 98.1 28 L 97.4 28 C 97.4 28 97.39 26 97.4 26 C 97.4 25.6 97.4 25.2 97.2 24.9 C 97.1 24.7 96.8 24.6 96.5 24.6 C 96 24.6 95.6 24.9 95.3 25.3 C 95.29 25.34 95.3 28 95.3 28 L 94.6 28 L 94.6 24 L 95.3 24 Z M 101.4 24.8 C 101.2 24.6 100.8 24.5 100.6 24.5 C 100.2 24.5 100 24.7 100 25 C 100 25.3 100.4 25.5 100.7 25.6 C 101.3 25.8 101.9 26.1 101.9 26.8 C 101.9 27.7 101.2 28.1 100.5 28.1 C 99.9 28.1 99.4 27.9 99.1 27.5 C 99.1 27.5 99.6 27.1 99.6 27.1 C 99.9 27.3 100.2 27.5 100.5 27.5 C 100.9 27.5 101.2 27.3 101.2 26.9 C 101.2 26.6 100.8 26.4 100.4 26.3 C 99.9 26 99.3 25.8 99.3 25.1 C 99.3 24.3 99.9 23.9 100.6 23.9 C 101 23.9 101.5 24.1 101.8 24.3 C 101.8 24.3 101.4 24.8 101.4 24.8 Z M 102.9 28 L 102.9 27.1 L 103.8 27.1 L 103.8 28 L 102.9 28 Z " stroke="none" fill="#fff"/>  </g>  <g id="Polygon39935">    <path d="M 1.4 13.7 C 1.6 13.2 2 12.9 2.4 12.9 C 2.6 12.9 2.7 12.9 2.9 13 C 2.9 13 2.7 13.7 2.7 13.7 C 2.6 13.7 2.5 13.6 2.4 13.6 C 1.9 13.6 1.6 13.9 1.4 14.3 C 1.4 14.32 1.4 17 1.4 17 L 0.7 17 L 0.7 13 L 1.4 13 C 1.4 13 1.4 13.66 1.4 13.7 Z M 3.9 15.2 C 4 15.9 4.4 16.5 5.2 16.5 C 5.7 16.5 6.2 16.3 6.4 15.8 C 6.4 15.8 6.9 16.2 6.9 16.2 C 6.5 16.8 6 17.1 5.2 17.1 C 3.9 17.1 3.2 16.2 3.2 15 C 3.2 13.8 4.1 12.9 5.2 12.9 C 6.2 12.9 7 13.7 7 14.8 C 7 14.9 7 15.1 7 15.2 C 7 15.2 3.9 15.2 3.9 15.2 Z M 4 14.6 C 4 14.6 6.2 14.6 6.2 14.6 C 6.2 14 5.8 13.5 5.2 13.5 C 4.5 13.5 4.1 14 4 14.6 Z M 8.7 17 L 8 17 L 8 11 L 8.7 11 L 8.7 17 Z M 12.5 17 C 12.5 17 12.46 16.58 12.5 16.6 C 12.1 16.9 11.8 17.1 11.3 17.1 C 10.5 17.1 9.8 16.7 9.8 15.9 C 9.8 14.9 10.7 14.6 11.6 14.6 C 11.8 14.6 12.1 14.6 12.4 14.6 C 12.4 14.6 12.4 14.5 12.4 14.5 C 12.4 13.9 12.1 13.5 11.5 13.5 C 11 13.5 10.5 13.7 10.2 13.9 C 10.2 13.9 10 13.3 10 13.3 C 10.4 13.1 11 12.9 11.6 12.9 C 12.7 12.9 13.2 13.5 13.2 14.6 C 13.15 14.57 13.2 17 13.2 17 L 12.5 17 Z M 12.4 15.2 C 12.1 15.1 11.9 15.1 11.7 15.1 C 11.2 15.1 10.6 15.2 10.6 15.8 C 10.6 16.3 10.9 16.5 11.3 16.5 C 11.8 16.5 12.1 16.3 12.4 16 C 12.4 16 12.4 15.2 12.4 15.2 Z M 16.2 14.9 L 17.6 17 L 16.7 17 L 15.7 15.5 L 14.7 17 L 13.8 17 L 15.3 15 L 13.9 13 L 14.8 13 L 15.8 14.4 L 16.7 13 L 17.6 13 L 16.2 14.9 Z M 18.4 17 L 18.4 13 L 19.1 13 L 19.1 17 L 18.4 17 Z M 18.4 12.2 L 18.4 11.4 L 19.1 11.4 L 19.1 12.2 L 18.4 12.2 Z M 21.2 13 C 21.2 13 21.17 13.66 21.2 13.7 C 21.5 13.2 21.9 12.9 22.5 12.9 C 23 12.9 23.4 13.1 23.6 13.4 C 23.9 13.8 24 14.3 24 14.9 C 23.99 14.92 24 17 24 17 L 23.3 17 C 23.3 17 23.26 15 23.3 15 C 23.3 14.6 23.2 14.2 23.1 13.9 C 22.9 13.7 22.7 13.6 22.4 13.6 C 21.9 13.6 21.5 13.9 21.2 14.3 C 21.17 14.34 21.2 17 21.2 17 L 20.4 17 L 20.4 13 L 21.2 13 Z M 29 16.8 C 29 17.2 28.9 17.5 28.7 17.8 C 28.4 18.5 27.7 18.8 26.9 18.8 C 26.3 18.8 25.6 18.6 25.2 18.2 C 25.2 18.2 25.4 17.6 25.4 17.6 C 25.8 17.9 26.4 18.1 26.9 18.1 C 27.6 18.1 28.2 17.8 28.2 16.9 C 28.2 16.9 28.2 16.4 28.2 16.4 C 27.9 16.8 27.4 17 26.9 17 C 25.8 17 25 16.1 25 15 C 25 13.9 25.7 12.9 27 12.9 C 27.4 12.9 27.9 13.1 28.2 13.4 C 28.22 13.44 28.2 13 28.2 13 L 29 13 C 29 13 28.95 16.78 29 16.8 Z M 28.2 14.2 C 27.9 13.8 27.5 13.6 27.1 13.6 C 26.1 13.6 25.7 14.3 25.7 15 C 25.7 15.7 26.2 16.3 27 16.3 C 27.5 16.3 28 16.1 28.2 15.6 C 28.2 15.6 28.2 14.2 28.2 14.2 Z M 33 17 L 32.2 17 L 32.2 11 L 33 11 L 33 17 Z M 38.1 15 C 38.1 16.2 37.2 17.1 36 17.1 C 34.9 17.1 34 16.2 34 15 C 34 13.8 34.9 12.9 36 12.9 C 37.2 12.9 38.1 13.8 38.1 15 Z M 36 13.6 C 35.3 13.6 34.7 14.2 34.7 15 C 34.7 15.8 35.3 16.4 36 16.4 C 36.8 16.4 37.3 15.8 37.3 15 C 37.3 14.2 36.8 13.6 36 13.6 Z M 42.8 15 C 42.8 16.2 41.9 17.1 40.8 17.1 C 39.6 17.1 38.7 16.2 38.7 15 C 38.7 13.8 39.6 12.9 40.8 12.9 C 41.9 12.9 42.8 13.8 42.8 15 Z M 40.8 13.6 C 40 13.6 39.5 14.2 39.5 15 C 39.5 15.8 40 16.4 40.8 16.4 C 41.5 16.4 42.1 15.8 42.1 15 C 42.1 14.2 41.5 13.6 40.8 13.6 Z M 46.3 17 L 45.2 15.2 L 44.6 15.9 L 44.6 17 L 43.8 17 L 43.8 11 L 44.6 11 L 44.6 15 L 44.6 15 L 46.2 13 L 47.1 13 L 45.7 14.6 L 47.2 17 L 46.3 17 Z M 50.7 17 L 49.9 17 L 49.9 11 L 50.7 11 L 50.7 17 Z M 54.8 16.3 C 54.5 16.8 54 17.1 53.5 17.1 C 52.9 17.1 52.6 16.9 52.3 16.6 C 52 16.2 52 15.7 52 15.1 C 51.96 15.08 52 13 52 13 L 52.7 13 C 52.7 13 52.69 15 52.7 15 C 52.7 15.4 52.7 15.8 52.9 16.1 C 53 16.3 53.2 16.4 53.6 16.4 C 54.1 16.4 54.5 16.1 54.8 15.7 C 54.78 15.66 54.8 13 54.8 13 L 55.5 13 L 55.5 17 L 54.8 17 C 54.8 17 54.78 16.34 54.8 16.3 Z M 58.6 14.9 L 60.1 17 L 59.1 17 L 58.1 15.5 L 57.1 17 L 56.2 17 L 57.7 15 L 56.3 13 L 57.2 13 L 58.2 14.4 L 59.1 13 L 60 13 L 58.6 14.9 Z M 63.6 16.3 C 63.3 16.8 62.8 17.1 62.2 17.1 C 61.7 17.1 61.3 16.9 61.1 16.6 C 60.8 16.2 60.7 15.7 60.7 15.1 C 60.73 15.08 60.7 13 60.7 13 L 61.5 13 C 61.5 13 61.45 15 61.5 15 C 61.5 15.4 61.5 15.8 61.7 16.1 C 61.8 16.3 62 16.4 62.4 16.4 C 62.8 16.4 63.3 16.1 63.6 15.7 C 63.55 15.66 63.6 13 63.6 13 L 64.3 13 L 64.3 17 L 63.6 17 C 63.6 17 63.55 16.34 63.6 16.3 Z M 66.4 13.7 C 66.6 13.2 67 12.9 67.4 12.9 C 67.6 12.9 67.7 12.9 67.8 13 C 67.8 13 67.7 13.7 67.7 13.7 C 67.6 13.7 67.5 13.6 67.3 13.6 C 66.9 13.6 66.6 13.9 66.4 14.3 C 66.35 14.32 66.4 17 66.4 17 L 65.6 17 L 65.6 13 L 66.4 13 C 66.4 13 66.35 13.66 66.4 13.7 Z M 68.5 17 L 68.5 13 L 69.2 13 L 69.2 17 L 68.5 17 Z M 68.5 12.2 L 68.5 11.4 L 69.2 11.4 L 69.2 12.2 L 68.5 12.2 Z M 74.3 15 C 74.3 16.2 73.4 17.1 72.3 17.1 C 71.1 17.1 70.2 16.2 70.2 15 C 70.2 13.8 71.1 12.9 72.3 12.9 C 73.4 12.9 74.3 13.8 74.3 15 Z M 72.3 13.6 C 71.5 13.6 71 14.2 71 15 C 71 15.8 71.5 16.4 72.3 16.4 C 73 16.4 73.6 15.8 73.6 15 C 73.6 14.2 73 13.6 72.3 13.6 Z M 78.1 16.3 C 77.8 16.8 77.3 17.1 76.8 17.1 C 76.2 17.1 75.8 16.9 75.6 16.6 C 75.3 16.2 75.3 15.7 75.3 15.1 C 75.26 15.08 75.3 13 75.3 13 L 76 13 C 76 13 75.98 15 76 15 C 76 15.4 76 15.8 76.2 16.1 C 76.3 16.3 76.5 16.4 76.9 16.4 C 77.4 16.4 77.8 16.1 78.1 15.7 C 78.08 15.66 78.1 13 78.1 13 L 78.8 13 L 78.8 17 L 78.1 17 C 78.1 17 78.08 16.34 78.1 16.3 Z M 82.1 13.8 C 81.9 13.6 81.6 13.5 81.3 13.5 C 80.9 13.5 80.7 13.7 80.7 14 C 80.7 14.3 81.1 14.5 81.5 14.6 C 82 14.8 82.6 15.1 82.6 15.8 C 82.6 16.7 82 17.1 81.2 17.1 C 80.7 17.1 80.1 16.9 79.8 16.5 C 79.8 16.5 80.3 16.1 80.3 16.1 C 80.6 16.3 80.9 16.5 81.2 16.5 C 81.6 16.5 81.9 16.3 81.9 15.9 C 81.9 15.6 81.6 15.4 81.2 15.3 C 80.6 15 80 14.8 80 14.1 C 80 13.3 80.6 12.9 81.3 12.9 C 81.8 12.9 82.2 13.1 82.5 13.3 C 82.5 13.3 82.1 13.8 82.1 13.8 Z M 89.2 16.1 L 89.3 16.1 L 90.1 13 L 90.8 13 L 89.7 17 L 88.9 17 L 88 13.9 L 88 13.9 L 87.1 17 L 86.3 17 L 85.2 13 L 86 13 L 86.8 16.1 L 86.8 16.1 L 87.7 13 L 88.4 13 L 89.2 16.1 Z M 91.6 17 L 91.6 13 L 92.3 13 L 92.3 17 L 91.6 17 Z M 91.6 12.2 L 91.6 11.4 L 92.3 11.4 L 92.3 12.2 L 91.6 12.2 Z M 94.5 13.6 C 94.5 13.6 94.46 15.45 94.5 15.4 C 94.5 15.6 94.5 15.6 94.5 15.8 C 94.5 16.2 94.6 16.4 95 16.4 C 95.2 16.4 95.3 16.4 95.5 16.3 C 95.5 16.3 95.7 16.9 95.7 16.9 C 95.5 17 95.2 17.1 94.9 17.1 C 94.4 17.1 94 16.8 93.9 16.5 C 93.8 16.2 93.7 15.9 93.7 15.6 C 93.73 15.62 93.7 13.6 93.7 13.6 L 93.2 13.6 L 93.2 13 L 93.7 13 L 93.7 12 L 94.5 12 L 94.5 13 L 95.6 13 L 95.6 13.6 L 94.5 13.6 Z M 97.2 13.7 C 97.5 13.2 98 12.9 98.5 12.9 C 99.1 12.9 99.4 13.1 99.7 13.4 C 99.9 13.8 100 14.3 100 14.9 C 100.01 14.92 100 17 100 17 L 99.3 17 C 99.3 17 99.29 15 99.3 15 C 99.3 14.6 99.3 14.2 99.1 13.9 C 99 13.7 98.7 13.6 98.4 13.6 C 97.9 13.6 97.5 13.9 97.2 14.3 C 97.19 14.34 97.2 17 97.2 17 L 96.5 17 L 96.5 11 L 97.2 11 C 97.2 11 97.19 13.66 97.2 13.7 Z " stroke="none" fill="#fff"/>  </g>  <g id="Polygon39934">    <path d="M 3.5 6.1 C 1.8 6.1 0.5 5 0.5 3.2 C 0.5 1.5 1.8 0.3 3.5 0.3 C 4 0.3 4.6 0.5 5 0.7 C 5 0.7 4.6 1.3 4.6 1.3 C 4.3 1.1 3.9 1 3.5 1 C 2.2 1 1.3 1.9 1.3 3.2 C 1.3 4.6 2.2 5.4 3.5 5.4 C 3.9 5.4 4.3 5.3 4.7 5 C 4.7 5 5.1 5.6 5.1 5.6 C 4.7 5.9 4.1 6.1 3.5 6.1 Z M 9.7 4 C 9.7 5.2 8.8 6.1 7.6 6.1 C 6.5 6.1 5.6 5.2 5.6 4 C 5.6 2.8 6.5 1.9 7.6 1.9 C 8.8 1.9 9.7 2.8 9.7 4 Z M 7.6 2.6 C 6.9 2.6 6.4 3.2 6.4 4 C 6.4 4.8 6.9 5.4 7.6 5.4 C 8.4 5.4 8.9 4.8 8.9 4 C 8.9 3.2 8.4 2.6 7.6 2.6 Z M 16 6 C 16 6 16.02 4 16 4 C 16 3.6 16 3.2 15.8 2.9 C 15.7 2.7 15.5 2.6 15.1 2.6 C 14.8 2.6 14.3 2.8 14 3.2 C 14.1 3.4 14.1 3.7 14.1 3.9 C 14.09 3.92 14.1 6 14.1 6 L 13.4 6 C 13.4 6 13.36 4 13.4 4 C 13.4 3.6 13.4 3.2 13.1 2.9 C 13 2.7 12.8 2.6 12.5 2.6 C 12.1 2.6 11.7 2.9 11.4 3.3 C 11.42 3.31 11.4 6 11.4 6 L 10.7 6 L 10.7 2 L 11.4 2 C 11.4 2 11.42 2.61 11.4 2.6 C 11.7 2.2 12.2 1.9 12.7 1.9 C 13.1 1.9 13.5 2.1 13.8 2.5 C 13.8 2.5 13.9 2.6 13.9 2.6 C 14.2 2.2 14.7 1.9 15.3 1.9 C 15.8 1.9 16.2 2.1 16.4 2.4 C 16.7 2.7 16.8 3.3 16.8 3.9 C 16.75 3.92 16.8 6 16.8 6 L 16 6 Z M 20.1 0.7 C 19.9 0.6 19.8 0.6 19.6 0.6 C 19.4 0.6 19.2 0.6 19.1 0.7 C 19 0.9 18.9 1.1 18.9 1.5 C 18.93 1.5 18.9 2 18.9 2 L 20 2 L 20 2.6 L 18.9 2.6 L 18.9 6 L 18.2 6 L 18.2 2.6 L 17.7 2.6 L 17.7 2 L 18.2 2 C 18.2 2 18.2 1.42 18.2 1.4 C 18.2 1 18.3 0.6 18.4 0.4 C 18.6 0.1 19 -0.1 19.5 -0.1 C 19.8 -0.1 20.1 0 20.3 0.1 C 20.3 0.1 20.1 0.7 20.1 0.7 Z M 24.5 4 C 24.5 5.2 23.6 6.1 22.4 6.1 C 21.3 6.1 20.4 5.2 20.4 4 C 20.4 2.8 21.3 1.9 22.4 1.9 C 23.6 1.9 24.5 2.8 24.5 4 Z M 22.4 2.6 C 21.7 2.6 21.2 3.2 21.2 4 C 21.2 4.8 21.7 5.4 22.4 5.4 C 23.2 5.4 23.7 4.8 23.7 4 C 23.7 3.2 23.2 2.6 22.4 2.6 Z M 26.2 2.7 C 26.5 2.2 26.8 1.9 27.3 1.9 C 27.4 1.9 27.5 1.9 27.7 2 C 27.7 2 27.6 2.7 27.6 2.7 C 27.4 2.7 27.3 2.6 27.2 2.6 C 26.8 2.6 26.5 2.9 26.2 3.3 C 26.22 3.32 26.2 6 26.2 6 L 25.5 6 L 25.5 2 L 26.2 2 C 26.2 2 26.22 2.66 26.2 2.7 Z M 29.2 2.6 C 29.2 2.6 29.24 4.45 29.2 4.4 C 29.2 4.6 29.2 4.6 29.2 4.8 C 29.3 5.2 29.4 5.4 29.8 5.4 C 30 5.4 30.1 5.4 30.3 5.3 C 30.3 5.3 30.5 5.9 30.5 5.9 C 30.3 6 30 6.1 29.7 6.1 C 29.2 6.1 28.8 5.8 28.6 5.5 C 28.5 5.2 28.5 4.9 28.5 4.6 C 28.51 4.62 28.5 2.6 28.5 2.6 L 28 2.6 L 28 2 L 28.5 2 L 28.5 1 L 29.2 1 L 29.2 2 L 30.4 2 L 30.4 2.6 L 29.2 2.6 Z M 33.6 6 C 33.6 6 33.62 5.58 33.6 5.6 C 33.3 5.9 32.9 6.1 32.4 6.1 C 31.7 6.1 31 5.7 31 4.9 C 31 3.9 31.9 3.6 32.8 3.6 C 33 3.6 33.2 3.6 33.6 3.6 C 33.6 3.6 33.6 3.5 33.6 3.5 C 33.6 2.9 33.3 2.5 32.6 2.5 C 32.2 2.5 31.7 2.7 31.4 2.9 C 31.4 2.9 31.2 2.3 31.2 2.3 C 31.6 2.1 32.2 1.9 32.7 1.9 C 33.9 1.9 34.3 2.5 34.3 3.6 C 34.31 3.57 34.3 6 34.3 6 L 33.6 6 Z M 33.6 4.2 C 33.3 4.1 33.1 4.1 32.9 4.1 C 32.4 4.1 31.7 4.2 31.7 4.8 C 31.7 5.3 32.1 5.5 32.5 5.5 C 32.9 5.5 33.3 5.3 33.6 5 C 33.6 5 33.6 4.2 33.6 4.2 Z M 36.3 0 C 36.3 0 36.34 2.54 36.3 2.5 C 36.6 2.1 37.1 1.9 37.6 1.9 C 38.8 1.9 39.6 2.8 39.6 4 C 39.6 5.1 38.8 6.1 37.6 6.1 C 37.1 6.1 36.7 5.9 36.3 5.6 C 36.34 5.57 36.3 6 36.3 6 L 35.6 6 L 35.6 0 L 36.3 0 Z M 36.3 4.8 C 36.6 5.2 37.1 5.4 37.5 5.4 C 38.4 5.4 38.9 4.7 38.9 4 C 38.9 3.2 38.3 2.6 37.5 2.6 C 37.1 2.6 36.5 2.8 36.3 3.3 C 36.3 3.3 36.3 4.8 36.3 4.8 Z M 41.3 6 L 40.6 6 L 40.6 0 L 41.3 0 L 41.3 6 Z M 43.1 4.2 C 43.1 4.9 43.6 5.5 44.4 5.5 C 44.9 5.5 45.3 5.3 45.6 4.8 C 45.6 4.8 46.1 5.2 46.1 5.2 C 45.7 5.8 45.1 6.1 44.3 6.1 C 43.1 6.1 42.4 5.2 42.4 4 C 42.4 2.8 43.2 1.9 44.3 1.9 C 45.4 1.9 46.2 2.7 46.2 3.8 C 46.2 3.9 46.1 4.1 46.1 4.2 C 46.1 4.2 43.1 4.2 43.1 4.2 Z M 43.1 3.6 C 43.1 3.6 45.4 3.6 45.4 3.6 C 45.4 3 44.9 2.5 44.3 2.5 C 43.7 2.5 43.3 3 43.1 3.6 Z M 51.5 6 C 51.5 6 51.54 5.58 51.5 5.6 C 51.2 5.9 50.9 6.1 50.3 6.1 C 49.6 6.1 48.9 5.7 48.9 4.9 C 48.9 3.9 49.8 3.6 50.7 3.6 C 50.9 3.6 51.2 3.6 51.5 3.6 C 51.5 3.6 51.5 3.5 51.5 3.5 C 51.5 2.9 51.2 2.5 50.6 2.5 C 50.1 2.5 49.6 2.7 49.3 2.9 C 49.3 2.9 49.1 2.3 49.1 2.3 C 49.5 2.1 50.1 1.9 50.7 1.9 C 51.8 1.9 52.2 2.5 52.2 3.6 C 52.24 3.57 52.2 6 52.2 6 L 51.5 6 Z M 51.5 4.2 C 51.2 4.1 51 4.1 50.8 4.1 C 50.3 4.1 49.6 4.2 49.6 4.8 C 49.6 5.3 50 5.5 50.4 5.5 C 50.8 5.5 51.2 5.3 51.5 5 C 51.5 5 51.5 4.2 51.5 4.2 Z M 54.3 2 C 54.3 2 54.26 2.66 54.3 2.7 C 54.6 2.2 55 1.9 55.6 1.9 C 56.1 1.9 56.5 2.1 56.7 2.4 C 57 2.8 57.1 3.3 57.1 3.9 C 57.09 3.92 57.1 6 57.1 6 L 56.4 6 C 56.4 6 56.36 4 56.4 4 C 56.4 3.6 56.3 3.2 56.2 2.9 C 56 2.7 55.8 2.6 55.5 2.6 C 55 2.6 54.6 2.9 54.3 3.3 C 54.26 3.34 54.3 6 54.3 6 L 53.5 6 L 53.5 2 L 54.3 2 Z M 58 4 C 58 2.9 58.8 1.9 60.1 1.9 C 60.5 1.9 61 2.1 61.3 2.4 C 61.32 2.44 61.3 0 61.3 0 L 62 0 L 62 6 L 61.3 6 C 61.3 6 61.32 5.46 61.3 5.5 C 61 5.9 60.5 6.1 60 6.1 C 58.9 6.1 58 5.2 58 4 Z M 61.3 4.7 C 61.3 4.7 61.3 3.2 61.3 3.2 C 61 2.8 60.6 2.6 60.2 2.6 C 59.2 2.6 58.8 3.3 58.8 4 C 58.8 4.8 59.3 5.4 60.1 5.4 C 60.6 5.4 61.1 5.2 61.3 4.7 Z M 68.3 5.7 C 68 5.9 67.6 6.1 67.1 6.1 C 66 6.1 65.1 5.3 65.1 4 C 65.1 2.8 66 1.9 67.1 1.9 C 67.6 1.9 68 2 68.3 2.2 C 68.3 2.2 67.9 2.8 67.9 2.8 C 67.7 2.7 67.4 2.6 67.1 2.6 C 66.4 2.6 65.8 3.2 65.8 4 C 65.8 4.9 66.4 5.4 67.1 5.4 C 67.4 5.4 67.8 5.3 68 5.1 C 68 5.1 68.3 5.7 68.3 5.7 Z M 72.9 4 C 72.9 5.2 72.1 6.1 70.9 6.1 C 69.7 6.1 68.9 5.2 68.9 4 C 68.9 2.8 69.7 1.9 70.9 1.9 C 72.1 1.9 72.9 2.8 72.9 4 Z M 70.9 2.6 C 70.1 2.6 69.6 3.2 69.6 4 C 69.6 4.8 70.1 5.4 70.9 5.4 C 71.6 5.4 72.2 4.8 72.2 4 C 72.2 3.2 71.6 2.6 70.9 2.6 Z M 77.7 4 C 77.7 5.2 76.8 6.1 75.6 6.1 C 74.5 6.1 73.6 5.2 73.6 4 C 73.6 2.8 74.5 1.9 75.6 1.9 C 76.8 1.9 77.7 2.8 77.7 4 Z M 75.6 2.6 C 74.9 2.6 74.4 3.2 74.4 4 C 74.4 4.8 74.9 5.4 75.6 5.4 C 76.4 5.4 76.9 4.8 76.9 4 C 76.9 3.2 76.4 2.6 75.6 2.6 Z M 79.4 6 L 78.7 6 L 78.7 0 L 79.4 0 L 79.4 6 Z M 81.1 7.1 L 80.4 7.1 L 80.8 5.1 L 81.6 5.1 L 81.1 7.1 Z M 80.8 2.9 L 80.8 2 L 81.6 2 L 81.6 2.9 L 80.8 2.9 Z M 88.3 5.1 L 88.3 5.1 L 89.1 2 L 89.8 2 L 88.7 6 L 87.9 6 L 87 2.9 L 87 2.9 L 86.1 6 L 85.3 6 L 84.2 2 L 85 2 L 85.8 5.1 L 85.8 5.1 L 86.7 2 L 87.4 2 L 88.3 5.1 Z M 91 4.2 C 91.1 4.9 91.5 5.5 92.3 5.5 C 92.8 5.5 93.3 5.3 93.5 4.8 C 93.5 4.8 94 5.2 94 5.2 C 93.6 5.8 93.1 6.1 92.3 6.1 C 91 6.1 90.3 5.2 90.3 4 C 90.3 2.8 91.2 1.9 92.3 1.9 C 93.3 1.9 94.1 2.7 94.1 3.8 C 94.1 3.9 94.1 4.1 94.1 4.2 C 94.1 4.2 91 4.2 91 4.2 Z M 91.1 3.6 C 91.1 3.6 93.4 3.6 93.4 3.6 C 93.3 3 92.9 2.5 92.3 2.5 C 91.6 2.5 91.2 3 91.1 3.6 Z M 102.4 6 C 102.4 6 102.44 4 102.4 4 C 102.4 3.6 102.4 3.2 102.2 2.9 C 102.1 2.7 101.9 2.6 101.6 2.6 C 101.2 2.6 100.8 2.8 100.5 3.2 C 100.5 3.4 100.5 3.7 100.5 3.9 C 100.5 3.92 100.5 6 100.5 6 L 99.8 6 C 99.8 6 99.78 4 99.8 4 C 99.8 3.6 99.8 3.2 99.6 2.9 C 99.4 2.7 99.2 2.6 98.9 2.6 C 98.5 2.6 98.1 2.9 97.8 3.3 C 97.84 3.31 97.8 6 97.8 6 L 97.1 6 L 97.1 2 L 97.8 2 C 97.8 2 97.84 2.61 97.8 2.6 C 98.1 2.2 98.6 1.9 99.1 1.9 C 99.6 1.9 100 2.1 100.2 2.5 C 100.2 2.5 100.3 2.6 100.3 2.6 C 100.6 2.2 101.2 1.9 101.7 1.9 C 102.2 1.9 102.6 2.1 102.8 2.4 C 103.1 2.7 103.2 3.3 103.2 3.9 C 103.17 3.92 103.2 6 103.2 6 L 102.4 6 Z M 106.8 6 C 106.8 6 106.84 5.58 106.8 5.6 C 106.5 5.9 106.2 6.1 105.6 6.1 C 104.9 6.1 104.2 5.7 104.2 4.9 C 104.2 3.9 105.1 3.6 106 3.6 C 106.2 3.6 106.5 3.6 106.8 3.6 C 106.8 3.6 106.8 3.5 106.8 3.5 C 106.8 2.9 106.5 2.5 105.9 2.5 C 105.4 2.5 104.9 2.7 104.6 2.9 C 104.6 2.9 104.4 2.3 104.4 2.3 C 104.8 2.1 105.4 1.9 106 1.9 C 107.1 1.9 107.5 2.5 107.5 3.6 C 107.53 3.57 107.5 6 107.5 6 L 106.8 6 Z M 106.8 4.2 C 106.5 4.1 106.3 4.1 106.1 4.1 C 105.6 4.1 104.9 4.2 104.9 4.8 C 104.9 5.3 105.3 5.5 105.7 5.5 C 106.1 5.5 106.5 5.3 106.8 5 C 106.8 5 106.8 4.2 106.8 4.2 Z M 111.3 6 L 110.2 4.2 L 109.6 4.9 L 109.6 6 L 108.8 6 L 108.8 0 L 109.6 0 L 109.6 4 L 109.6 4 L 111.2 2 L 112.1 2 L 110.7 3.6 L 112.2 6 L 111.3 6 Z M 113.2 4.2 C 113.3 4.9 113.7 5.5 114.5 5.5 C 115 5.5 115.5 5.3 115.7 4.8 C 115.7 4.8 116.2 5.2 116.2 5.2 C 115.8 5.8 115.3 6.1 114.5 6.1 C 113.2 6.1 112.5 5.2 112.5 4 C 112.5 2.8 113.4 1.9 114.5 1.9 C 115.5 1.9 116.3 2.7 116.3 3.8 C 116.3 3.9 116.3 4.1 116.3 4.2 C 116.3 4.2 113.2 4.2 113.2 4.2 Z M 113.3 3.6 C 113.3 3.6 115.5 3.6 115.5 3.6 C 115.5 3 115.1 2.5 114.5 2.5 C 113.8 2.5 113.4 3 113.3 3.6 Z " stroke="none" fill="#fff"/>  </g></svg>