<?xml version="1.0" standalone="no"?><!DOCTYPE svg PUBLIC "-//W3C//DTD SVG 1.1//EN" "http://www.w3.org/Graphics/SVG/1.1/DTD/svg11.dtd"><svg xmlns="http://www.w3.org/2000/svg" version="1.1" width="150px" height="23.8px" viewBox="0 -4 150 23.8" style="top:-4px">  <desc>Kambria A3000207</desc>  <defs/>  <g id="Polygon40554">    <path d="M 62.1 15 L 61.7 14 L 59.7 14 L 59.3 15 L 58.6 15 L 60.4 10.1 L 61 10.1 L 62.9 15 L 62.1 15 Z M 59.9 13.4 L 61.5 13.4 L 60.7 11.1 L 60.7 11.1 L 59.9 13.4 Z M 64.4 12.3 C 64.7 12.3 64.9 12.3 65.1 12.2 C 65.5 12.1 65.7 11.9 65.7 11.5 C 65.7 11.1 65.4 10.9 65 10.9 C 64.6 10.9 64.3 11 64.2 11.4 C 64.2 11.4 63.6 11.1 63.6 11.1 C 63.8 10.6 64.3 10.3 65 10.3 C 65.8 10.3 66.4 10.8 66.4 11.5 C 66.4 11.9 66.2 12.3 65.8 12.5 C 66.3 12.7 66.6 13.1 66.6 13.6 C 66.6 14.6 65.9 15.1 65.1 15.1 C 64.5 15.1 63.9 14.8 63.6 14.3 C 63.6 14.3 64.1 14 64.1 14 C 64.3 14.4 64.7 14.5 65 14.5 C 65.5 14.5 66 14.2 66 13.7 C 66 13.2 65.5 12.9 65 12.9 C 64.8 12.9 64.7 12.9 64.4 13 C 64.4 13 64.4 12.3 64.4 12.3 Z M 71 12.7 C 71 14.2 70.4 15.1 69.4 15.1 C 68.3 15.1 67.7 14.2 67.7 12.7 C 67.7 11.2 68.3 10.3 69.4 10.3 C 70.4 10.3 71 11.2 71 12.7 Z M 68.4 12.7 C 68.4 13.9 68.7 14.5 69.4 14.5 C 70 14.5 70.3 13.9 70.3 12.7 C 70.3 11.5 70 10.9 69.4 10.9 C 68.7 10.9 68.4 11.5 68.4 12.7 Z M 75.3 12.7 C 75.3 14.2 74.7 15.1 73.7 15.1 C 72.6 15.1 72 14.2 72 12.7 C 72 11.2 72.6 10.3 73.7 10.3 C 74.7 10.3 75.3 11.2 75.3 12.7 Z M 72.7 12.7 C 72.7 13.9 73 14.5 73.7 14.5 C 74.3 14.5 74.6 13.9 74.6 12.7 C 74.6 11.5 74.3 10.9 73.7 10.9 C 73 10.9 72.7 11.5 72.7 12.7 Z M 79.6 12.7 C 79.6 14.2 79 15.1 78 15.1 C 76.9 15.1 76.3 14.2 76.3 12.7 C 76.3 11.2 76.9 10.3 78 10.3 C 79 10.3 79.6 11.2 79.6 12.7 Z M 77 12.7 C 77 13.9 77.4 14.5 78 14.5 C 78.6 14.5 78.9 13.9 78.9 12.7 C 78.9 11.5 78.6 10.9 78 10.9 C 77.4 10.9 77 11.5 77 12.7 Z M 80.6 15 C 80.6 15 80.65 14.41 80.6 14.4 C 81.2 13.8 81.8 13.1 82.3 12.5 C 82.5 12.2 82.7 11.8 82.7 11.5 C 82.7 11.1 82.3 10.9 82 10.9 C 81.6 10.9 81.2 11.1 81.2 11.6 C 81.2 11.6 80.6 11.4 80.6 11.4 C 80.6 10.7 81.3 10.3 82 10.3 C 82.7 10.3 83.4 10.8 83.4 11.5 C 83.4 11.9 83.2 12.4 82.9 12.8 C 82.5 13.3 82 13.9 81.5 14.4 C 81.53 14.41 83.6 14.4 83.6 14.4 L 83.6 15 L 80.6 15 Z M 87.8 12.7 C 87.8 14.2 87.2 15.1 86.2 15.1 C 85.1 15.1 84.5 14.2 84.5 12.7 C 84.5 11.2 85.1 10.3 86.2 10.3 C 87.2 10.3 87.8 11.2 87.8 12.7 Z M 85.2 12.7 C 85.2 13.9 85.5 14.5 86.2 14.5 C 86.8 14.5 87.1 13.9 87.1 12.7 C 87.1 11.5 86.8 10.9 86.2 10.9 C 85.5 10.9 85.2 11.5 85.2 12.7 Z M 91.4 10.8 C 90.8 12 90 13.9 89.5 15.2 C 89.5 15.2 88.9 14.9 88.9 14.9 C 89.5 13.4 90.3 11.8 90.7 11 C 90.69 10.95 88.5 11 88.5 11 L 88.5 10.4 L 91.4 10.4 C 91.4 10.4 91.41 10.83 91.4 10.8 Z " stroke="none" fill="#535a5d"/>  </g>  <g id="Polygon40553">    <path d="M 58.9 2.6 L 60.9 6 L 59.7 6 L 58.2 3.4 L 57.5 4.3 L 57.5 6 L 56.5 6 L 56.5 0.4 L 57.5 0.4 L 57.5 2.9 L 59.6 0.4 L 60.8 0.4 L 58.9 2.6 Z M 63.8 0.4 L 64.6 0.4 L 66.8 6 L 65.6 6 L 65.2 4.9 L 63.1 4.9 L 62.7 6 L 61.6 6 L 63.8 0.4 Z M 63.4 4.1 L 64.9 4.1 L 64.2 1.9 L 64.2 1.9 L 63.4 4.1 Z M 71.4 6 L 70.7 6 L 69 1.6 L 69 6 L 68 6 L 68 0.4 L 69.5 0.4 L 71.1 4.5 L 72.7 0.4 L 74.2 0.4 L 74.2 6 L 73.2 6 L 73.2 1.6 L 71.4 6 Z M 75.9 0.4 C 75.9 0.4 77.34 0.4 77.3 0.4 C 77.9 0.4 78.4 0.5 78.8 0.8 C 79.3 1 79.5 1.5 79.5 2 C 79.5 2.4 79.2 2.8 78.7 3.1 C 79.3 3.3 79.7 3.7 79.7 4.4 C 79.7 5 79.3 5.5 78.7 5.8 C 78.3 6 77.8 6 77.3 6 C 77.26 6 75.9 6 75.9 6 L 75.9 0.4 Z M 76.9 5.2 C 76.9 5.2 77.25 5.15 77.2 5.2 C 77.6 5.2 78 5.1 78.3 5 C 78.5 4.9 78.7 4.7 78.7 4.4 C 78.7 3.9 78.3 3.5 77.7 3.5 C 77.66 3.54 76.9 3.5 76.9 3.5 L 76.9 5.2 Z M 76.9 2.7 C 76.9 2.7 77.32 2.74 77.3 2.7 C 78.1 2.7 78.5 2.5 78.5 2 C 78.5 1.7 78.4 1.5 78.2 1.4 C 78 1.3 77.6 1.2 77.2 1.2 C 77.2 1.25 76.9 1.2 76.9 1.2 L 76.9 2.7 Z M 83 0.4 C 83.9 0.4 85 0.9 85 2 C 85 3 84.3 3.4 83.7 3.6 C 83.69 3.62 85.4 6 85.4 6 L 84.2 6 L 82.6 3.7 L 82.2 3.7 L 82.2 6 L 81.2 6 L 81.2 0.4 C 81.2 0.4 82.98 0.4 83 0.4 Z M 82.8 2.9 C 83.4 2.9 83.9 2.6 83.9 2.1 C 83.9 1.6 83.5 1.2 83 1.2 C 82.95 1.25 82.2 1.2 82.2 1.2 L 82.2 2.9 C 82.2 2.9 82.79 2.86 82.8 2.9 Z M 86.6 6 L 86.6 0.4 L 87.6 0.4 L 87.6 6 L 86.6 6 Z M 91.1 0.4 L 91.9 0.4 L 94 6 L 92.9 6 L 92.5 4.9 L 90.4 4.9 L 90 6 L 88.9 6 L 91.1 0.4 Z M 90.7 4.1 L 92.2 4.1 L 91.5 1.9 L 91.4 1.9 L 90.7 4.1 Z " stroke="none" fill="#535a5d"/>  </g></svg>