<?xml version="1.0" standalone="no"?><!DOCTYPE svg PUBLIC "-//W3C//DTD SVG 1.1//EN" "http://www.w3.org/Graphics/SVG/1.1/DTD/svg11.dtd"><svg xmlns="http://www.w3.org/2000/svg" version="1.1" width="119px" height="50px" viewBox="0 -4 119 50" style="top:-4px">  <desc>Give your room the update it deserves with these decade-bending selections</desc>  <defs/>  <g id="Polygon39317">    <path d="M 1.4 22 C 1.4 22 1.4 24.54 1.4 24.5 C 1.7 24.1 2.2 23.9 2.7 23.9 C 3.8 23.9 4.7 24.8 4.7 26 C 4.7 27.1 3.9 28.1 2.7 28.1 C 2.2 28.1 1.7 27.9 1.4 27.6 C 1.4 27.57 1.4 28 1.4 28 L 0.7 28 L 0.7 22 L 1.4 22 Z M 1.4 26.8 C 1.7 27.2 2.1 27.4 2.6 27.4 C 3.5 27.4 3.9 26.7 3.9 26 C 3.9 25.2 3.4 24.6 2.6 24.6 C 2.1 24.6 1.6 24.8 1.4 25.3 C 1.4 25.3 1.4 26.8 1.4 26.8 Z M 6.1 26.2 C 6.1 26.9 6.6 27.5 7.4 27.5 C 7.9 27.5 8.3 27.3 8.6 26.8 C 8.6 26.8 9.1 27.2 9.1 27.2 C 8.7 27.8 8.1 28.1 7.3 28.1 C 6.1 28.1 5.3 27.2 5.3 26 C 5.3 24.8 6.2 23.9 7.3 23.9 C 8.4 23.9 9.2 24.7 9.2 25.8 C 9.2 25.9 9.1 26.1 9.1 26.2 C 9.1 26.2 6.1 26.2 6.1 26.2 Z M 6.1 25.6 C 6.1 25.6 8.4 25.6 8.4 25.6 C 8.4 25 7.9 24.5 7.3 24.5 C 6.7 24.5 6.3 25 6.1 25.6 Z M 10.9 24 C 10.9 24 10.89 24.66 10.9 24.7 C 11.2 24.2 11.7 23.9 12.2 23.9 C 12.8 23.9 13.1 24.1 13.4 24.4 C 13.6 24.8 13.7 25.3 13.7 25.9 C 13.71 25.92 13.7 28 13.7 28 L 13 28 C 13 28 12.98 26 13 26 C 13 25.6 13 25.2 12.8 24.9 C 12.6 24.7 12.4 24.6 12.1 24.6 C 11.6 24.6 11.2 24.9 10.9 25.3 C 10.89 25.34 10.9 28 10.9 28 L 10.2 28 L 10.2 24 L 10.9 24 Z M 14.7 26 C 14.7 24.9 15.5 23.9 16.7 23.9 C 17.2 23.9 17.6 24.1 17.9 24.4 C 17.94 24.44 17.9 22 17.9 22 L 18.7 22 L 18.7 28 L 17.9 28 C 17.9 28 17.94 27.46 17.9 27.5 C 17.7 27.9 17.2 28.1 16.7 28.1 C 15.5 28.1 14.7 27.2 14.7 26 Z M 17.9 26.7 C 17.9 26.7 17.9 25.2 17.9 25.2 C 17.7 24.8 17.2 24.6 16.8 24.6 C 15.9 24.6 15.4 25.3 15.4 26 C 15.4 26.8 15.9 27.4 16.8 27.4 C 17.2 27.4 17.7 27.2 17.9 26.7 Z M 20 28 L 20 24 L 20.7 24 L 20.7 28 L 20 28 Z M 20 23.2 L 20 22.4 L 20.7 22.4 L 20.7 23.2 L 20 23.2 Z M 22.8 24 C 22.8 24 22.82 24.66 22.8 24.7 C 23.1 24.2 23.6 23.9 24.1 23.9 C 24.7 23.9 25 24.1 25.3 24.4 C 25.6 24.8 25.6 25.3 25.6 25.9 C 25.64 25.92 25.6 28 25.6 28 L 24.9 28 C 24.9 28 24.91 26 24.9 26 C 24.9 25.6 24.9 25.2 24.7 24.9 C 24.6 24.7 24.4 24.6 24 24.6 C 23.5 24.6 23.1 24.9 22.8 25.3 C 22.82 25.34 22.8 28 22.8 28 L 22.1 28 L 22.1 24 L 22.8 24 Z M 30.6 27.8 C 30.6 28.2 30.5 28.5 30.4 28.8 C 30 29.5 29.3 29.8 28.6 29.8 C 28 29.8 27.3 29.6 26.8 29.2 C 26.8 29.2 27.1 28.6 27.1 28.6 C 27.5 28.9 28.1 29.1 28.6 29.1 C 29.3 29.1 29.9 28.8 29.9 27.9 C 29.9 27.9 29.9 27.4 29.9 27.4 C 29.6 27.8 29.1 28 28.6 28 C 27.5 28 26.6 27.1 26.6 26 C 26.6 24.9 27.4 23.9 28.6 23.9 C 29.1 23.9 29.6 24.1 29.9 24.4 C 29.87 24.44 29.9 24 29.9 24 L 30.6 24 C 30.6 24 30.6 27.78 30.6 27.8 Z M 29.9 25.2 C 29.6 24.8 29.1 24.6 28.7 24.6 C 27.8 24.6 27.3 25.3 27.3 26 C 27.3 26.7 27.9 27.3 28.7 27.3 C 29.1 27.3 29.7 27.1 29.9 26.6 C 29.9 26.6 29.9 25.2 29.9 25.2 Z M 35.8 24.8 C 35.7 24.6 35.3 24.5 35.1 24.5 C 34.7 24.5 34.5 24.7 34.5 25 C 34.5 25.3 34.8 25.5 35.2 25.6 C 35.7 25.8 36.4 26.1 36.4 26.8 C 36.4 27.7 35.7 28.1 34.9 28.1 C 34.4 28.1 33.9 27.9 33.6 27.5 C 33.6 27.5 34.1 27.1 34.1 27.1 C 34.3 27.3 34.6 27.5 35 27.5 C 35.3 27.5 35.7 27.3 35.7 26.9 C 35.7 26.6 35.3 26.4 34.9 26.3 C 34.4 26 33.8 25.8 33.8 25.1 C 33.8 24.3 34.4 23.9 35 23.9 C 35.5 23.9 36 24.1 36.3 24.3 C 36.3 24.3 35.8 24.8 35.8 24.8 Z M 37.9 26.2 C 37.9 26.9 38.4 27.5 39.2 27.5 C 39.7 27.5 40.1 27.3 40.4 26.8 C 40.4 26.8 40.9 27.2 40.9 27.2 C 40.5 27.8 40 28.1 39.2 28.1 C 37.9 28.1 37.2 27.2 37.2 26 C 37.2 24.8 38 23.9 39.2 23.9 C 40.2 23.9 41 24.7 41 25.8 C 41 25.9 41 26.1 40.9 26.2 C 40.9 26.2 37.9 26.2 37.9 26.2 Z M 38 25.6 C 38 25.6 40.2 25.6 40.2 25.6 C 40.2 25 39.8 24.5 39.2 24.5 C 38.5 24.5 38.1 25 38 25.6 Z M 42.7 28 L 42 28 L 42 22 L 42.7 22 L 42.7 28 Z M 44.4 26.2 C 44.5 26.9 45 27.5 45.7 27.5 C 46.3 27.5 46.7 27.3 46.9 26.8 C 46.9 26.8 47.5 27.2 47.5 27.2 C 47.1 27.8 46.5 28.1 45.7 28.1 C 44.4 28.1 43.7 27.2 43.7 26 C 43.7 24.8 44.6 23.9 45.7 23.9 C 46.8 23.9 47.5 24.7 47.5 25.8 C 47.5 25.9 47.5 26.1 47.5 26.2 C 47.5 26.2 44.4 26.2 44.4 26.2 Z M 44.5 25.6 C 44.5 25.6 46.8 25.6 46.8 25.6 C 46.7 25 46.3 24.5 45.7 24.5 C 45.1 24.5 44.6 25 44.5 25.6 Z M 51.5 27.7 C 51.2 27.9 50.7 28.1 50.2 28.1 C 49.1 28.1 48.2 27.3 48.2 26 C 48.2 24.8 49.1 23.9 50.3 23.9 C 50.7 23.9 51.1 24 51.4 24.2 C 51.4 24.2 51.1 24.8 51.1 24.8 C 50.8 24.7 50.5 24.6 50.3 24.6 C 49.5 24.6 48.9 25.2 48.9 26 C 48.9 26.9 49.6 27.4 50.3 27.4 C 50.5 27.4 50.9 27.3 51.1 27.1 C 51.1 27.1 51.5 27.7 51.5 27.7 Z M 53.2 24.6 C 53.2 24.6 53.22 26.45 53.2 26.4 C 53.2 26.6 53.2 26.6 53.2 26.8 C 53.3 27.2 53.4 27.4 53.8 27.4 C 54 27.4 54.1 27.4 54.2 27.3 C 54.2 27.3 54.4 27.9 54.4 27.9 C 54.2 28 54 28.1 53.7 28.1 C 53.1 28.1 52.8 27.8 52.6 27.5 C 52.5 27.2 52.5 26.9 52.5 26.6 C 52.5 26.62 52.5 24.6 52.5 24.6 L 52 24.6 L 52 24 L 52.5 24 L 52.5 23 L 53.2 23 L 53.2 24 L 54.3 24 L 54.3 24.6 L 53.2 24.6 Z M 55.2 28 L 55.2 24 L 56 24 L 56 28 L 55.2 28 Z M 55.2 23.2 L 55.2 22.4 L 56 22.4 L 56 23.2 L 55.2 23.2 Z M 61 26 C 61 27.2 60.2 28.1 59 28.1 C 57.8 28.1 57 27.2 57 26 C 57 24.8 57.8 23.9 59 23.9 C 60.2 23.9 61 24.8 61 26 Z M 59 24.6 C 58.2 24.6 57.7 25.2 57.7 26 C 57.7 26.8 58.2 27.4 59 27.4 C 59.8 27.4 60.3 26.8 60.3 26 C 60.3 25.2 59.8 24.6 59 24.6 Z M 62.8 24 C 62.8 24 62.77 24.66 62.8 24.7 C 63.1 24.2 63.5 23.9 64.1 23.9 C 64.6 23.9 65 24.1 65.2 24.4 C 65.5 24.8 65.6 25.3 65.6 25.9 C 65.6 25.92 65.6 28 65.6 28 L 64.9 28 C 64.9 28 64.87 26 64.9 26 C 64.9 25.6 64.9 25.2 64.7 24.9 C 64.5 24.7 64.3 24.6 64 24.6 C 63.5 24.6 63.1 24.9 62.8 25.3 C 62.77 25.34 62.8 28 62.8 28 L 62 28 L 62 24 L 62.8 24 Z M 68.8 24.8 C 68.7 24.6 68.3 24.5 68.1 24.5 C 67.7 24.5 67.5 24.7 67.5 25 C 67.5 25.3 67.8 25.5 68.2 25.6 C 68.7 25.8 69.4 26.1 69.4 26.8 C 69.4 27.7 68.7 28.1 67.9 28.1 C 67.4 28.1 66.9 27.9 66.6 27.5 C 66.6 27.5 67.1 27.1 67.1 27.1 C 67.3 27.3 67.6 27.5 68 27.5 C 68.3 27.5 68.7 27.3 68.7 26.9 C 68.7 26.6 68.3 26.4 67.9 26.3 C 67.4 26 66.8 25.8 66.8 25.1 C 66.8 24.3 67.4 23.9 68 23.9 C 68.5 23.9 69 24.1 69.3 24.3 C 69.3 24.3 68.8 24.8 68.8 24.8 Z M 70.4 28 L 70.4 27.1 L 71.2 27.1 L 71.2 28 L 70.4 28 Z " stroke="none" fill="#fff"/>  </g>  <g id="Polygon39316">    <path d="M 0.3 15 C 0.3 13.9 1.1 12.9 2.4 12.9 C 2.8 12.9 3.3 13.1 3.6 13.4 C 3.61 13.44 3.6 11 3.6 11 L 4.3 11 L 4.3 17 L 3.6 17 C 3.6 17 3.61 16.46 3.6 16.5 C 3.3 16.9 2.8 17.1 2.3 17.1 C 1.2 17.1 0.3 16.2 0.3 15 Z M 3.6 15.7 C 3.6 15.7 3.6 14.2 3.6 14.2 C 3.3 13.8 2.9 13.6 2.4 13.6 C 1.5 13.6 1.1 14.3 1.1 15 C 1.1 15.8 1.6 16.4 2.4 16.4 C 2.9 16.4 3.4 16.2 3.6 15.7 Z M 6.1 15.2 C 6.1 15.9 6.6 16.5 7.4 16.5 C 7.9 16.5 8.3 16.3 8.6 15.8 C 8.6 15.8 9.1 16.2 9.1 16.2 C 8.7 16.8 8.1 17.1 7.3 17.1 C 6.1 17.1 5.3 16.2 5.3 15 C 5.3 13.8 6.2 12.9 7.3 12.9 C 8.4 12.9 9.2 13.7 9.2 14.8 C 9.2 14.9 9.1 15.1 9.1 15.2 C 9.1 15.2 6.1 15.2 6.1 15.2 Z M 6.1 14.6 C 6.1 14.6 8.4 14.6 8.4 14.6 C 8.4 14 7.9 13.5 7.3 13.5 C 6.7 13.5 6.3 14 6.1 14.6 Z M 12.1 13.8 C 11.9 13.6 11.6 13.5 11.3 13.5 C 11 13.5 10.7 13.7 10.7 14 C 10.7 14.3 11.1 14.5 11.5 14.6 C 12 14.8 12.7 15.1 12.7 15.8 C 12.7 16.7 12 17.1 11.2 17.1 C 10.7 17.1 10.1 16.9 9.8 16.5 C 9.8 16.5 10.3 16.1 10.3 16.1 C 10.6 16.3 10.9 16.5 11.2 16.5 C 11.6 16.5 11.9 16.3 11.9 15.9 C 11.9 15.6 11.6 15.4 11.2 15.3 C 10.6 15 10 14.8 10 14.1 C 10 13.3 10.6 12.9 11.3 12.9 C 11.8 12.9 12.2 13.1 12.5 13.3 C 12.5 13.3 12.1 13.8 12.1 13.8 Z M 14.2 15.2 C 14.2 15.9 14.7 16.5 15.4 16.5 C 16 16.5 16.4 16.3 16.6 15.8 C 16.6 15.8 17.2 16.2 17.2 16.2 C 16.8 16.8 16.2 17.1 15.4 17.1 C 14.1 17.1 13.4 16.2 13.4 15 C 13.4 13.8 14.3 12.9 15.4 12.9 C 16.5 12.9 17.2 13.7 17.2 14.8 C 17.2 14.9 17.2 15.1 17.2 15.2 C 17.2 15.2 14.2 15.2 14.2 15.2 Z M 14.2 14.6 C 14.2 14.6 16.5 14.6 16.5 14.6 C 16.5 14 16 13.5 15.4 13.5 C 14.8 13.5 14.4 14 14.2 14.6 Z M 19 13.7 C 19.2 13.2 19.6 12.9 20 12.9 C 20.2 12.9 20.3 12.9 20.4 13 C 20.4 13 20.3 13.7 20.3 13.7 C 20.2 13.7 20.1 13.6 19.9 13.6 C 19.5 13.6 19.2 13.9 19 14.3 C 18.98 14.32 19 17 19 17 L 18.2 17 L 18.2 13 L 19 13 C 19 13 18.98 13.66 19 13.7 Z M 24.4 13 L 22.8 17 L 22.2 17 L 20.7 13 L 21.5 13 L 22.5 16.1 L 22.5 16.1 L 23.6 13 L 24.4 13 Z M 25.5 15.2 C 25.5 15.9 26 16.5 26.8 16.5 C 27.3 16.5 27.7 16.3 28 15.8 C 28 15.8 28.5 16.2 28.5 16.2 C 28.1 16.8 27.6 17.1 26.7 17.1 C 25.5 17.1 24.8 16.2 24.8 15 C 24.8 13.8 25.6 12.9 26.7 12.9 C 27.8 12.9 28.6 13.7 28.6 14.8 C 28.6 14.9 28.6 15.1 28.5 15.2 C 28.5 15.2 25.5 15.2 25.5 15.2 Z M 25.5 14.6 C 25.5 14.6 27.8 14.6 27.8 14.6 C 27.8 14 27.4 13.5 26.8 13.5 C 26.1 13.5 25.7 14 25.5 14.6 Z M 31.5 13.8 C 31.3 13.6 31 13.5 30.7 13.5 C 30.4 13.5 30.1 13.7 30.1 14 C 30.1 14.3 30.5 14.5 30.9 14.6 C 31.4 14.8 32.1 15.1 32.1 15.8 C 32.1 16.7 31.4 17.1 30.6 17.1 C 30.1 17.1 29.6 16.9 29.2 16.5 C 29.2 16.5 29.8 16.1 29.8 16.1 C 30 16.3 30.3 16.5 30.6 16.5 C 31 16.5 31.4 16.3 31.4 15.9 C 31.4 15.6 31 15.4 30.6 15.3 C 30.1 15 29.4 14.8 29.4 14.1 C 29.4 13.3 30.1 12.9 30.7 12.9 C 31.2 12.9 31.6 13.1 32 13.3 C 32 13.3 31.5 13.8 31.5 13.8 Z M 38.7 16.1 L 38.7 16.1 L 39.5 13 L 40.2 13 L 39.1 17 L 38.3 17 L 37.5 13.9 L 37.4 13.9 L 36.6 17 L 35.7 17 L 34.6 13 L 35.4 13 L 36.2 16.1 L 36.2 16.1 L 37.1 13 L 37.9 13 L 38.7 16.1 Z M 41 17 L 41 13 L 41.8 13 L 41.8 17 L 41 17 Z M 41 12.2 L 41 11.4 L 41.8 11.4 L 41.8 12.2 L 41 12.2 Z M 43.9 13.6 C 43.9 13.6 43.89 15.45 43.9 15.4 C 43.9 15.6 43.9 15.6 43.9 15.8 C 43.9 16.2 44.1 16.4 44.5 16.4 C 44.6 16.4 44.8 16.4 44.9 16.3 C 44.9 16.3 45.1 16.9 45.1 16.9 C 44.9 17 44.6 17.1 44.4 17.1 C 43.8 17.1 43.5 16.8 43.3 16.5 C 43.2 16.2 43.2 15.9 43.2 15.6 C 43.16 15.62 43.2 13.6 43.2 13.6 L 42.6 13.6 L 42.6 13 L 43.2 13 L 43.2 12 L 43.9 12 L 43.9 13 L 45 13 L 45 13.6 L 43.9 13.6 Z M 46.6 13.7 C 46.9 13.2 47.4 12.9 47.9 12.9 C 48.5 12.9 48.8 13.1 49.1 13.4 C 49.4 13.8 49.4 14.3 49.4 14.9 C 49.44 14.92 49.4 17 49.4 17 L 48.7 17 C 48.7 17 48.71 15 48.7 15 C 48.7 14.6 48.7 14.2 48.5 13.9 C 48.4 13.7 48.2 13.6 47.8 13.6 C 47.3 13.6 46.9 13.9 46.6 14.3 C 46.61 14.34 46.6 17 46.6 17 L 45.9 17 L 45.9 11 L 46.6 11 C 46.6 11 46.61 13.66 46.6 13.7 Z M 53.5 13.6 C 53.5 13.6 53.5 15.45 53.5 15.4 C 53.5 15.6 53.5 15.6 53.5 15.8 C 53.5 16.2 53.7 16.4 54.1 16.4 C 54.2 16.4 54.4 16.4 54.5 16.3 C 54.5 16.3 54.7 16.9 54.7 16.9 C 54.5 17 54.2 17.1 54 17.1 C 53.4 17.1 53.1 16.8 52.9 16.5 C 52.8 16.2 52.8 15.9 52.8 15.6 C 52.78 15.62 52.8 13.6 52.8 13.6 L 52.2 13.6 L 52.2 13 L 52.8 13 L 52.8 12 L 53.5 12 L 53.5 13 L 54.6 13 L 54.6 13.6 L 53.5 13.6 Z M 56.2 13.7 C 56.5 13.2 57 12.9 57.5 12.9 C 58.1 12.9 58.5 13.1 58.7 13.4 C 59 13.8 59.1 14.3 59.1 14.9 C 59.05 14.92 59.1 17 59.1 17 L 58.3 17 C 58.3 17 58.33 15 58.3 15 C 58.3 14.6 58.3 14.2 58.1 13.9 C 58 13.7 57.8 13.6 57.4 13.6 C 57 13.6 56.5 13.9 56.2 14.3 C 56.23 14.34 56.2 17 56.2 17 L 55.5 17 L 55.5 11 L 56.2 11 C 56.2 11 56.23 13.66 56.2 13.7 Z M 60.7 15.2 C 60.8 15.9 61.3 16.5 62 16.5 C 62.6 16.5 63 16.3 63.2 15.8 C 63.2 15.8 63.8 16.2 63.8 16.2 C 63.4 16.8 62.8 17.1 62 17.1 C 60.7 17.1 60 16.2 60 15 C 60 13.8 60.9 12.9 62 12.9 C 63.1 12.9 63.8 13.7 63.8 14.8 C 63.8 14.9 63.8 15.1 63.8 15.2 C 63.8 15.2 60.7 15.2 60.7 15.2 Z M 60.8 14.6 C 60.8 14.6 63.1 14.6 63.1 14.6 C 63 14 62.6 13.5 62 13.5 C 61.4 13.5 60.9 14 60.8 14.6 Z M 66.8 13.8 C 66.6 13.6 66.3 13.5 66 13.5 C 65.6 13.5 65.4 13.7 65.4 14 C 65.4 14.3 65.8 14.5 66.2 14.6 C 66.7 14.8 67.3 15.1 67.3 15.8 C 67.3 16.7 66.6 17.1 65.9 17.1 C 65.3 17.1 64.8 16.9 64.5 16.5 C 64.5 16.5 65 16.1 65 16.1 C 65.3 16.3 65.6 16.5 65.9 16.5 C 66.3 16.5 66.6 16.3 66.6 15.9 C 66.6 15.6 66.2 15.4 65.8 15.3 C 65.3 15 64.7 14.8 64.7 14.1 C 64.7 13.3 65.3 12.9 66 12.9 C 66.4 12.9 66.9 13.1 67.2 13.3 C 67.2 13.3 66.8 13.8 66.8 13.8 Z M 68.8 15.2 C 68.9 15.9 69.4 16.5 70.1 16.5 C 70.6 16.5 71.1 16.3 71.3 15.8 C 71.3 15.8 71.8 16.2 71.8 16.2 C 71.4 16.8 70.9 17.1 70.1 17.1 C 68.8 17.1 68.1 16.2 68.1 15 C 68.1 13.8 69 12.9 70.1 12.9 C 71.1 12.9 71.9 13.7 71.9 14.8 C 71.9 14.9 71.9 15.1 71.9 15.2 C 71.9 15.2 68.8 15.2 68.8 15.2 Z M 68.9 14.6 C 68.9 14.6 71.2 14.6 71.2 14.6 C 71.1 14 70.7 13.5 70.1 13.5 C 69.4 13.5 69 14 68.9 14.6 Z M 74.6 15 C 74.6 13.9 75.4 12.9 76.6 12.9 C 77.1 12.9 77.5 13.1 77.9 13.4 C 77.86 13.44 77.9 11 77.9 11 L 78.6 11 L 78.6 17 L 77.9 17 C 77.9 17 77.86 16.46 77.9 16.5 C 77.6 16.9 77.1 17.1 76.6 17.1 C 75.4 17.1 74.6 16.2 74.6 15 Z M 77.9 15.7 C 77.9 15.7 77.9 14.2 77.9 14.2 C 77.6 13.8 77.1 13.6 76.7 13.6 C 75.8 13.6 75.3 14.3 75.3 15 C 75.3 15.8 75.8 16.4 76.7 16.4 C 77.1 16.4 77.6 16.2 77.9 15.7 Z M 80.3 15.2 C 80.4 15.9 80.8 16.5 81.6 16.5 C 82.1 16.5 82.6 16.3 82.8 15.8 C 82.8 15.8 83.3 16.2 83.3 16.2 C 82.9 16.8 82.4 17.1 81.6 17.1 C 80.3 17.1 79.6 16.2 79.6 15 C 79.6 13.8 80.5 12.9 81.6 12.9 C 82.6 12.9 83.4 13.7 83.4 14.8 C 83.4 14.9 83.4 15.1 83.4 15.2 C 83.4 15.2 80.3 15.2 80.3 15.2 Z M 80.4 14.6 C 80.4 14.6 82.6 14.6 82.6 14.6 C 82.6 14 82.2 13.5 81.6 13.5 C 80.9 13.5 80.5 14 80.4 14.6 Z M 87.3 16.7 C 87 16.9 86.6 17.1 86.1 17.1 C 85 17.1 84.1 16.3 84.1 15 C 84.1 13.8 85 12.9 86.2 12.9 C 86.6 12.9 87 13 87.3 13.2 C 87.3 13.2 86.9 13.8 86.9 13.8 C 86.7 13.7 86.4 13.6 86.1 13.6 C 85.4 13.6 84.8 14.2 84.8 15 C 84.8 15.9 85.4 16.4 86.1 16.4 C 86.4 16.4 86.8 16.3 87 16.1 C 87 16.1 87.3 16.7 87.3 16.7 Z M 90.6 17 C 90.6 17 90.58 16.58 90.6 16.6 C 90.3 16.9 89.9 17.1 89.4 17.1 C 88.6 17.1 88 16.7 88 15.9 C 88 14.9 88.9 14.6 89.8 14.6 C 90 14.6 90.2 14.6 90.6 14.6 C 90.6 14.6 90.6 14.5 90.6 14.5 C 90.6 13.9 90.3 13.5 89.6 13.5 C 89.1 13.5 88.7 13.7 88.3 13.9 C 88.3 13.9 88.1 13.3 88.1 13.3 C 88.5 13.1 89.1 12.9 89.7 12.9 C 90.9 12.9 91.3 13.5 91.3 14.6 C 91.28 14.57 91.3 17 91.3 17 L 90.6 17 Z M 90.6 15.2 C 90.3 15.1 90 15.1 89.8 15.1 C 89.3 15.1 88.7 15.2 88.7 15.8 C 88.7 16.3 89 16.5 89.5 16.5 C 89.9 16.5 90.2 16.3 90.6 16 C 90.6 16 90.6 15.2 90.6 15.2 Z M 92.2 15 C 92.2 13.9 93 12.9 94.3 12.9 C 94.7 12.9 95.2 13.1 95.5 13.4 C 95.51 13.44 95.5 11 95.5 11 L 96.2 11 L 96.2 17 L 95.5 17 C 95.5 17 95.51 16.46 95.5 16.5 C 95.2 16.9 94.7 17.1 94.2 17.1 C 93.1 17.1 92.2 16.2 92.2 15 Z M 95.5 15.7 C 95.5 15.7 95.5 14.2 95.5 14.2 C 95.2 13.8 94.8 13.6 94.4 13.6 C 93.4 13.6 93 14.3 93 15 C 93 15.8 93.5 16.4 94.3 16.4 C 94.8 16.4 95.3 16.2 95.5 15.7 Z M 98 15.2 C 98 15.9 98.5 16.5 99.3 16.5 C 99.8 16.5 100.2 16.3 100.5 15.8 C 100.5 15.8 101 16.2 101 16.2 C 100.6 16.8 100 17.1 99.2 17.1 C 98 17.1 97.2 16.2 97.2 15 C 97.2 13.8 98.1 12.9 99.2 12.9 C 100.3 12.9 101.1 13.7 101.1 14.8 C 101.1 14.9 101 15.1 101 15.2 C 101 15.2 98 15.2 98 15.2 Z M 98 14.6 C 98 14.6 100.3 14.6 100.3 14.6 C 100.3 14 99.8 13.5 99.2 13.5 C 98.6 13.5 98.2 14 98 14.6 Z M 102.2 15.1 L 102.2 14.4 L 104.3 14.4 L 104.3 15.1 L 102.2 15.1 Z " stroke="none" fill="#fff"/>  </g>  <g id="Polygon39315">    <path d="M 3.6 3.6 L 3.6 2.9 L 5.8 2.9 C 5.8 2.9 5.78 5.02 5.8 5 C 5.2 5.7 4.4 6.1 3.5 6.1 C 1.8 6.1 0.5 4.9 0.5 3.2 C 0.5 1.5 1.8 0.3 3.5 0.3 C 4.4 0.3 5.1 0.7 5.7 1.3 C 5.7 1.3 5.1 1.7 5.1 1.7 C 4.7 1.3 4.1 1 3.5 1 C 2.2 1 1.3 1.9 1.3 3.2 C 1.3 4.6 2.2 5.4 3.5 5.4 C 4.1 5.4 4.6 5.2 5 4.8 C 5.02 4.82 5 3.6 5 3.6 L 3.6 3.6 Z M 7.1 6 L 7.1 2 L 7.8 2 L 7.8 6 L 7.1 6 Z M 7.1 1.2 L 7.1 0.4 L 7.8 0.4 L 7.8 1.2 L 7.1 1.2 Z M 12.3 2 L 10.7 6 L 10.1 6 L 8.6 2 L 9.4 2 L 10.4 5.1 L 10.4 5.1 L 11.5 2 L 12.3 2 Z M 13.4 4.2 C 13.4 4.9 13.9 5.5 14.7 5.5 C 15.2 5.5 15.6 5.3 15.9 4.8 C 15.9 4.8 16.4 5.2 16.4 5.2 C 16 5.8 15.5 6.1 14.6 6.1 C 13.4 6.1 12.7 5.2 12.7 4 C 12.7 2.8 13.5 1.9 14.6 1.9 C 15.7 1.9 16.5 2.7 16.5 3.8 C 16.5 3.9 16.5 4.1 16.4 4.2 C 16.4 4.2 13.4 4.2 13.4 4.2 Z M 13.4 3.6 C 13.4 3.6 15.7 3.6 15.7 3.6 C 15.7 3 15.3 2.5 14.7 2.5 C 14 2.5 13.6 3 13.4 3.6 Z M 19.7 2 L 20.7 5 L 20.7 5 L 21.8 2 L 22.6 2 L 20.3 7.8 L 19.7 7.6 L 20.3 5.9 L 18.9 2 L 19.7 2 Z M 27 4 C 27 5.2 26.2 6.1 25 6.1 C 23.8 6.1 23 5.2 23 4 C 23 2.8 23.8 1.9 25 1.9 C 26.2 1.9 27 2.8 27 4 Z M 25 2.6 C 24.2 2.6 23.7 3.2 23.7 4 C 23.7 4.8 24.2 5.4 25 5.4 C 25.8 5.4 26.3 4.8 26.3 4 C 26.3 3.2 25.8 2.6 25 2.6 Z M 30.8 5.3 C 30.5 5.8 30.1 6.1 29.5 6.1 C 29 6.1 28.6 5.9 28.4 5.6 C 28.1 5.2 28 4.7 28 4.1 C 28 4.08 28 2 28 2 L 28.7 2 C 28.7 2 28.73 4 28.7 4 C 28.7 4.4 28.7 4.8 28.9 5.1 C 29.1 5.3 29.3 5.4 29.6 5.4 C 30.1 5.4 30.5 5.1 30.8 4.7 C 30.82 4.66 30.8 2 30.8 2 L 31.6 2 L 31.6 6 L 30.8 6 C 30.8 6 30.82 5.34 30.8 5.3 Z M 33.6 2.7 C 33.9 2.2 34.2 1.9 34.7 1.9 C 34.8 1.9 34.9 1.9 35.1 2 C 35.1 2 35 2.7 35 2.7 C 34.8 2.7 34.7 2.6 34.6 2.6 C 34.2 2.6 33.9 2.9 33.6 3.3 C 33.62 3.32 33.6 6 33.6 6 L 32.9 6 L 32.9 2 L 33.6 2 C 33.6 2 33.62 2.66 33.6 2.7 Z M 38.5 2.7 C 38.7 2.2 39.1 1.9 39.5 1.9 C 39.7 1.9 39.8 1.9 39.9 2 C 39.9 2 39.8 2.7 39.8 2.7 C 39.7 2.7 39.6 2.6 39.4 2.6 C 39 2.6 38.7 2.9 38.5 3.3 C 38.48 3.32 38.5 6 38.5 6 L 37.8 6 L 37.8 2 L 38.5 2 C 38.5 2 38.48 2.66 38.5 2.7 Z M 44.4 4 C 44.4 5.2 43.5 6.1 42.3 6.1 C 41.1 6.1 40.3 5.2 40.3 4 C 40.3 2.8 41.1 1.9 42.3 1.9 C 43.5 1.9 44.4 2.8 44.4 4 Z M 42.3 2.6 C 41.6 2.6 41 3.2 41 4 C 41 4.8 41.6 5.4 42.3 5.4 C 43.1 5.4 43.6 4.8 43.6 4 C 43.6 3.2 43.1 2.6 42.3 2.6 Z M 49.1 4 C 49.1 5.2 48.2 6.1 47.1 6.1 C 45.9 6.1 45 5.2 45 4 C 45 2.8 45.9 1.9 47.1 1.9 C 48.2 1.9 49.1 2.8 49.1 4 Z M 47.1 2.6 C 46.3 2.6 45.8 3.2 45.8 4 C 45.8 4.8 46.3 5.4 47.1 5.4 C 47.8 5.4 48.4 4.8 48.4 4 C 48.4 3.2 47.8 2.6 47.1 2.6 Z M 55.4 6 C 55.4 6 55.44 4 55.4 4 C 55.4 3.6 55.4 3.2 55.2 2.9 C 55.1 2.7 54.9 2.6 54.6 2.6 C 54.2 2.6 53.8 2.8 53.5 3.2 C 53.5 3.4 53.5 3.7 53.5 3.9 C 53.5 3.92 53.5 6 53.5 6 L 52.8 6 C 52.8 6 52.78 4 52.8 4 C 52.8 3.6 52.8 3.2 52.6 2.9 C 52.4 2.7 52.2 2.6 51.9 2.6 C 51.5 2.6 51.1 2.9 50.8 3.3 C 50.84 3.31 50.8 6 50.8 6 L 50.1 6 L 50.1 2 L 50.8 2 C 50.8 2 50.84 2.61 50.8 2.6 C 51.1 2.2 51.6 1.9 52.1 1.9 C 52.6 1.9 53 2.1 53.2 2.5 C 53.2 2.5 53.3 2.6 53.3 2.6 C 53.6 2.2 54.2 1.9 54.7 1.9 C 55.2 1.9 55.6 2.1 55.8 2.4 C 56.1 2.7 56.2 3.3 56.2 3.9 C 56.17 3.92 56.2 6 56.2 6 L 55.4 6 Z M 60.2 2.6 C 60.2 2.6 60.23 4.45 60.2 4.4 C 60.2 4.6 60.2 4.6 60.2 4.8 C 60.3 5.2 60.4 5.4 60.8 5.4 C 61 5.4 61.1 5.4 61.2 5.3 C 61.2 5.3 61.4 5.9 61.4 5.9 C 61.2 6 61 6.1 60.7 6.1 C 60.1 6.1 59.8 5.8 59.6 5.5 C 59.5 5.2 59.5 4.9 59.5 4.6 C 59.5 4.62 59.5 2.6 59.5 2.6 L 59 2.6 L 59 2 L 59.5 2 L 59.5 1 L 60.2 1 L 60.2 2 L 61.4 2 L 61.4 2.6 L 60.2 2.6 Z M 63 2.7 C 63.3 2.2 63.7 1.9 64.3 1.9 C 64.8 1.9 65.2 2.1 65.4 2.4 C 65.7 2.8 65.8 3.3 65.8 3.9 C 65.78 3.92 65.8 6 65.8 6 L 65.1 6 C 65.1 6 65.06 4 65.1 4 C 65.1 3.6 65 3.2 64.8 2.9 C 64.7 2.7 64.5 2.6 64.2 2.6 C 63.7 2.6 63.2 2.9 63 3.3 C 62.96 3.34 63 6 63 6 L 62.2 6 L 62.2 0 L 63 0 C 63 0 62.96 2.66 63 2.7 Z M 67.5 4.2 C 67.5 4.9 68 5.5 68.8 5.5 C 69.3 5.5 69.7 5.3 70 4.8 C 70 4.8 70.5 5.2 70.5 5.2 C 70.1 5.8 69.5 6.1 68.7 6.1 C 67.5 6.1 66.7 5.2 66.7 4 C 66.7 2.8 67.6 1.9 68.7 1.9 C 69.8 1.9 70.6 2.7 70.6 3.8 C 70.6 3.9 70.5 4.1 70.5 4.2 C 70.5 4.2 67.5 4.2 67.5 4.2 Z M 67.5 3.6 C 67.5 3.6 69.8 3.6 69.8 3.6 C 69.8 3 69.3 2.5 68.7 2.5 C 68.1 2.5 67.7 3 67.5 3.6 Z M 76.3 5.3 C 76 5.8 75.6 6.1 75 6.1 C 74.5 6.1 74.1 5.9 73.9 5.6 C 73.6 5.2 73.5 4.7 73.5 4.1 C 73.51 4.08 73.5 2 73.5 2 L 74.2 2 C 74.2 2 74.24 4 74.2 4 C 74.2 4.4 74.3 4.8 74.4 5.1 C 74.6 5.3 74.8 5.4 75.1 5.4 C 75.6 5.4 76 5.1 76.3 4.7 C 76.34 4.66 76.3 2 76.3 2 L 77.1 2 L 77.1 6 L 76.3 6 C 76.3 6 76.34 5.34 76.3 5.3 Z M 79.1 2 C 79.1 2 79.13 2.54 79.1 2.5 C 79.4 2.1 79.9 1.9 80.4 1.9 C 81.6 1.9 82.4 2.8 82.4 4 C 82.4 5.1 81.6 6.1 80.4 6.1 C 79.9 6.1 79.5 5.9 79.1 5.6 C 79.13 5.57 79.1 8 79.1 8 L 78.4 8 L 78.4 2 L 79.1 2 Z M 79.1 4.8 C 79.4 5.2 79.9 5.4 80.3 5.4 C 81.2 5.4 81.7 4.7 81.7 4 C 81.7 3.2 81.1 2.6 80.3 2.6 C 79.9 2.6 79.3 2.8 79.1 3.3 C 79.1 3.3 79.1 4.8 79.1 4.8 Z M 83.1 4 C 83.1 2.9 83.9 1.9 85.1 1.9 C 85.6 1.9 86 2.1 86.4 2.4 C 86.35 2.44 86.4 0 86.4 0 L 87.1 0 L 87.1 6 L 86.4 6 C 86.4 6 86.35 5.46 86.4 5.5 C 86.1 5.9 85.6 6.1 85.1 6.1 C 83.9 6.1 83.1 5.2 83.1 4 Z M 86.4 4.7 C 86.4 4.7 86.4 3.2 86.4 3.2 C 86.1 2.8 85.6 2.6 85.2 2.6 C 84.3 2.6 83.8 3.3 83.8 4 C 83.8 4.8 84.3 5.4 85.2 5.4 C 85.6 5.4 86.1 5.2 86.4 4.7 Z M 90.8 6 C 90.8 6 90.8 5.58 90.8 5.6 C 90.5 5.9 90.1 6.1 89.6 6.1 C 88.9 6.1 88.2 5.7 88.2 4.9 C 88.2 3.9 89.1 3.6 90 3.6 C 90.2 3.6 90.4 3.6 90.8 3.6 C 90.8 3.6 90.8 3.5 90.8 3.5 C 90.8 2.9 90.5 2.5 89.8 2.5 C 89.4 2.5 88.9 2.7 88.6 2.9 C 88.6 2.9 88.3 2.3 88.3 2.3 C 88.8 2.1 89.4 1.9 89.9 1.9 C 91.1 1.9 91.5 2.5 91.5 3.6 C 91.49 3.57 91.5 6 91.5 6 L 90.8 6 Z M 90.8 4.2 C 90.5 4.1 90.2 4.1 90 4.1 C 89.6 4.1 88.9 4.2 88.9 4.8 C 88.9 5.3 89.3 5.5 89.7 5.5 C 90.1 5.5 90.4 5.3 90.8 5 C 90.8 5 90.8 4.2 90.8 4.2 Z M 93.6 2.6 C 93.6 2.6 93.56 4.45 93.6 4.4 C 93.6 4.6 93.6 4.6 93.6 4.8 C 93.6 5.2 93.7 5.4 94.1 5.4 C 94.3 5.4 94.4 5.4 94.6 5.3 C 94.6 5.3 94.8 5.9 94.8 5.9 C 94.6 6 94.3 6.1 94 6.1 C 93.5 6.1 93.1 5.8 93 5.5 C 92.9 5.2 92.8 4.9 92.8 4.6 C 92.83 4.62 92.8 2.6 92.8 2.6 L 92.3 2.6 L 92.3 2 L 92.8 2 L 92.8 1 L 93.6 1 L 93.6 2 L 94.7 2 L 94.7 2.6 L 93.6 2.6 Z M 96 4.2 C 96 4.9 96.5 5.5 97.2 5.5 C 97.8 5.5 98.2 5.3 98.4 4.8 C 98.4 4.8 99 5.2 99 5.2 C 98.6 5.8 98 6.1 97.2 6.1 C 95.9 6.1 95.2 5.2 95.2 4 C 95.2 2.8 96.1 1.9 97.2 1.9 C 98.3 1.9 99 2.7 99 3.8 C 99 3.9 99 4.1 99 4.2 C 99 4.2 96 4.2 96 4.2 Z M 96 3.6 C 96 3.6 98.3 3.6 98.3 3.6 C 98.2 3 97.8 2.5 97.2 2.5 C 96.6 2.5 96.2 3 96 3.6 Z M 102 6 L 102 2 L 102.8 2 L 102.8 6 L 102 6 Z M 102 1.2 L 102 0.4 L 102.8 0.4 L 102.8 1.2 L 102 1.2 Z M 104.9 2.6 C 104.9 2.6 104.88 4.45 104.9 4.4 C 104.9 4.6 104.9 4.6 104.9 4.8 C 104.9 5.2 105 5.4 105.4 5.4 C 105.6 5.4 105.8 5.4 105.9 5.3 C 105.9 5.3 106.1 5.9 106.1 5.9 C 105.9 6 105.6 6.1 105.4 6.1 C 104.8 6.1 104.4 5.8 104.3 5.5 C 104.2 5.2 104.2 4.9 104.2 4.6 C 104.15 4.62 104.2 2.6 104.2 2.6 L 103.6 2.6 L 103.6 2 L 104.2 2 L 104.2 1 L 104.9 1 L 104.9 2 L 106 2 L 106 2.6 L 104.9 2.6 Z " stroke="none" fill="#fff"/>  </g></svg>