<?xml version="1.0" standalone="no"?><!DOCTYPE svg PUBLIC "-//W3C//DTD SVG 1.1//EN" "http://www.w3.org/Graphics/SVG/1.1/DTD/svg11.dtd"><svg xmlns="http://www.w3.org/2000/svg" version="1.1" width="486px" height="184px" viewBox="0 -1 486 184" style="top:-1px">  <desc>Cozy Charm in neutral hues Warmth and simplicity invite you in Stylish comfort is closer than you know with our sp</desc>  <defs/>  <g id="Polygon40808">    <path d="M 171 156 C 170.8 155.8 170.5 155.7 170.2 155.7 C 169.9 155.7 169.6 155.9 169.6 156.2 C 169.6 156.5 170 156.7 170.4 156.8 C 170.9 157 171.6 157.3 171.6 158 C 171.6 158.9 170.9 159.3 170.1 159.3 C 169.6 159.3 169.1 159.1 168.7 158.7 C 168.7 158.7 169.3 158.3 169.3 158.3 C 169.5 158.5 169.8 158.7 170.1 158.7 C 170.5 158.7 170.8 158.5 170.8 158.1 C 170.8 157.8 170.5 157.6 170.1 157.4 C 169.6 157.2 168.9 157 168.9 156.3 C 168.9 155.5 169.6 155.1 170.2 155.1 C 170.7 155.1 171.1 155.2 171.5 155.5 C 171.5 155.5 171 156 171 156 Z M 173.4 155.2 C 173.4 155.2 173.41 155.73 173.4 155.7 C 173.7 155.3 174.2 155.1 174.7 155.1 C 175.8 155.1 176.7 156 176.7 157.2 C 176.7 158.3 175.9 159.3 174.7 159.3 C 174.2 159.3 173.7 159.1 173.4 158.8 C 173.41 158.76 173.4 161.2 173.4 161.2 L 172.7 161.2 L 172.7 155.2 L 173.4 155.2 Z M 173.4 158 C 173.7 158.4 174.2 158.6 174.6 158.6 C 175.5 158.6 175.9 157.9 175.9 157.2 C 175.9 156.4 175.4 155.8 174.6 155.8 C 174.2 155.8 173.6 156 173.4 156.5 C 173.4 156.5 173.4 158 173.4 158 Z M 178.1 157.4 C 178.1 158.1 178.6 158.7 179.4 158.7 C 179.9 158.7 180.3 158.5 180.6 158 C 180.6 158 181.1 158.4 181.1 158.4 C 180.7 159 180.1 159.3 179.3 159.3 C 178.1 159.3 177.4 158.4 177.4 157.2 C 177.4 156 178.2 155.1 179.3 155.1 C 180.4 155.1 181.2 155.9 181.2 157 C 181.2 157.1 181.1 157.3 181.1 157.4 C 181.1 157.4 178.1 157.4 178.1 157.4 Z M 178.1 156.8 C 178.1 156.8 180.4 156.8 180.4 156.8 C 180.4 156.2 179.9 155.7 179.3 155.7 C 178.7 155.7 178.3 156.2 178.1 156.8 Z M 185.1 158.9 C 184.8 159.1 184.4 159.3 183.9 159.3 C 182.7 159.3 181.8 158.5 181.8 157.2 C 181.8 156 182.8 155.1 183.9 155.1 C 184.3 155.1 184.7 155.2 185 155.4 C 185 155.4 184.7 156 184.7 156 C 184.5 155.9 184.2 155.8 183.9 155.8 C 183.2 155.8 182.6 156.4 182.6 157.2 C 182.6 158.1 183.2 158.6 183.9 158.6 C 184.2 158.6 184.5 158.5 184.7 158.3 C 184.7 158.3 185.1 158.9 185.1 158.9 Z M 186.9 155.8 C 186.9 155.8 186.86 157.64 186.9 157.6 C 186.9 157.7 186.9 157.8 186.9 158 C 186.9 158.4 187 158.6 187.4 158.6 C 187.6 158.6 187.7 158.6 187.9 158.5 C 187.9 158.5 188.1 159.1 188.1 159.1 C 187.9 159.2 187.6 159.3 187.3 159.3 C 186.8 159.3 186.4 159 186.3 158.6 C 186.2 158.4 186.1 158.1 186.1 157.8 C 186.13 157.81 186.1 155.8 186.1 155.8 L 185.6 155.8 L 185.6 155.2 L 186.1 155.2 L 186.1 154.2 L 186.9 154.2 L 186.9 155.2 L 188 155.2 L 188 155.8 L 186.9 155.8 Z M 191.2 159.2 C 191.2 159.2 191.23 158.77 191.2 158.8 C 190.9 159.1 190.5 159.3 190 159.3 C 189.3 159.3 188.6 158.9 188.6 158.1 C 188.6 157.1 189.5 156.7 190.4 156.7 C 190.6 156.7 190.9 156.8 191.2 156.8 C 191.2 156.8 191.2 156.7 191.2 156.7 C 191.2 156.1 190.9 155.7 190.3 155.7 C 189.8 155.7 189.3 155.9 189 156.1 C 189 156.1 188.8 155.5 188.8 155.5 C 189.2 155.3 189.8 155.1 190.3 155.1 C 191.5 155.1 191.9 155.7 191.9 156.8 C 191.93 156.76 191.9 159.2 191.9 159.2 L 191.2 159.2 Z M 191.2 157.4 C 190.9 157.3 190.7 157.3 190.5 157.3 C 190 157.3 189.3 157.4 189.3 158 C 189.3 158.5 189.7 158.7 190.1 158.7 C 190.5 158.7 190.9 158.5 191.2 158.2 C 191.2 158.2 191.2 157.4 191.2 157.4 Z M 196.2 158.9 C 195.9 159.1 195.4 159.3 194.9 159.3 C 193.8 159.3 192.9 158.5 192.9 157.2 C 192.9 156 193.8 155.1 195 155.1 C 195.4 155.1 195.8 155.2 196.1 155.4 C 196.1 155.4 195.8 156 195.8 156 C 195.5 155.9 195.2 155.8 194.9 155.8 C 194.2 155.8 193.6 156.4 193.6 157.2 C 193.6 158.1 194.3 158.6 195 158.6 C 195.2 158.6 195.6 158.5 195.8 158.3 C 195.8 158.3 196.2 158.9 196.2 158.9 Z M 199.8 158.5 C 199.5 159 199 159.3 198.5 159.3 C 197.9 159.3 197.6 159.1 197.3 158.8 C 197.1 158.4 197 157.9 197 157.3 C 196.98 157.27 197 155.2 197 155.2 L 197.7 155.2 C 197.7 155.2 197.7 157.19 197.7 157.2 C 197.7 157.6 197.7 158 197.9 158.3 C 198 158.5 198.3 158.6 198.6 158.6 C 199.1 158.6 199.5 158.3 199.8 157.8 C 199.8 157.85 199.8 155.2 199.8 155.2 L 200.5 155.2 L 200.5 159.2 L 199.8 159.2 C 199.8 159.2 199.8 158.53 199.8 158.5 Z M 202.6 159.2 L 201.9 159.2 L 201.9 153.2 L 202.6 153.2 L 202.6 159.2 Z M 206.3 159.2 C 206.3 159.2 206.32 158.77 206.3 158.8 C 206 159.1 205.6 159.3 205.1 159.3 C 204.4 159.3 203.7 158.9 203.7 158.1 C 203.7 157.1 204.6 156.7 205.5 156.7 C 205.7 156.7 205.9 156.8 206.3 156.8 C 206.3 156.8 206.3 156.7 206.3 156.7 C 206.3 156.1 206 155.7 205.3 155.7 C 204.9 155.7 204.4 155.9 204.1 156.1 C 204.1 156.1 203.9 155.5 203.9 155.5 C 204.3 155.3 204.9 155.1 205.4 155.1 C 206.6 155.1 207 155.7 207 156.8 C 207.02 156.76 207 159.2 207 159.2 L 206.3 159.2 Z M 206.3 157.4 C 206 157.3 205.8 157.3 205.6 157.3 C 205.1 157.3 204.4 157.4 204.4 158 C 204.4 158.5 204.8 158.7 205.2 158.7 C 205.6 158.7 206 158.5 206.3 158.2 C 206.3 158.2 206.3 157.4 206.3 157.4 Z M 209 155.9 C 209.3 155.4 209.6 155.1 210.1 155.1 C 210.2 155.1 210.4 155.1 210.5 155.1 C 210.5 155.1 210.4 155.9 210.4 155.9 C 210.2 155.9 210.1 155.8 210 155.8 C 209.6 155.8 209.3 156.1 209 156.5 C 209.04 156.51 209 159.2 209 159.2 L 208.3 159.2 L 208.3 155.2 L 209 155.2 C 209 155.2 209.04 155.85 209 155.9 Z M 215.1 156 C 214.9 155.8 214.6 155.7 214.3 155.7 C 214 155.7 213.7 155.9 213.7 156.2 C 213.7 156.5 214.1 156.7 214.5 156.8 C 215 157 215.7 157.3 215.7 158 C 215.7 158.9 215 159.3 214.2 159.3 C 213.7 159.3 213.2 159.1 212.8 158.7 C 212.8 158.7 213.4 158.3 213.4 158.3 C 213.6 158.5 213.9 158.7 214.2 158.7 C 214.6 158.7 214.9 158.5 214.9 158.1 C 214.9 157.8 214.6 157.6 214.2 157.4 C 213.6 157.2 213 157 213 156.3 C 213 155.5 213.7 155.1 214.3 155.1 C 214.8 155.1 215.2 155.2 215.6 155.5 C 215.6 155.5 215.1 156 215.1 156 Z M 217.2 157.4 C 217.2 158.1 217.7 158.7 218.5 158.7 C 219 158.7 219.4 158.5 219.6 158 C 219.6 158 220.2 158.4 220.2 158.4 C 219.8 159 219.2 159.3 218.4 159.3 C 217.2 159.3 216.4 158.4 216.4 157.2 C 216.4 156 217.3 155.1 218.4 155.1 C 219.5 155.1 220.2 155.9 220.2 157 C 220.2 157.1 220.2 157.3 220.2 157.4 C 220.2 157.4 217.2 157.4 217.2 157.4 Z M 217.2 156.8 C 217.2 156.8 219.5 156.8 219.5 156.8 C 219.5 156.2 219 155.7 218.4 155.7 C 217.8 155.7 217.4 156.2 217.2 156.8 Z M 222 159.2 L 221.3 159.2 L 221.3 153.2 L 222 153.2 L 222 159.2 Z M 223.7 157.4 C 223.8 158.1 224.2 158.7 225 158.7 C 225.5 158.7 226 158.5 226.2 158 C 226.2 158 226.7 158.4 226.7 158.4 C 226.3 159 225.8 159.3 225 159.3 C 223.7 159.3 223 158.4 223 157.2 C 223 156 223.9 155.1 225 155.1 C 226 155.1 226.8 155.9 226.8 157 C 226.8 157.1 226.8 157.3 226.8 157.4 C 226.8 157.4 223.7 157.4 223.7 157.4 Z M 223.8 156.8 C 223.8 156.8 226 156.8 226 156.8 C 226 156.2 225.6 155.7 225 155.7 C 224.3 155.7 223.9 156.2 223.8 156.8 Z M 230.7 158.9 C 230.4 159.1 230 159.3 229.5 159.3 C 228.4 159.3 227.5 158.5 227.5 157.2 C 227.5 156 228.4 155.1 229.6 155.1 C 230 155.1 230.4 155.2 230.7 155.4 C 230.7 155.4 230.3 156 230.3 156 C 230.1 155.9 229.8 155.8 229.5 155.8 C 228.8 155.8 228.2 156.4 228.2 157.2 C 228.2 158.1 228.8 158.6 229.5 158.6 C 229.8 158.6 230.2 158.5 230.4 158.3 C 230.4 158.3 230.7 158.9 230.7 158.9 Z M 232.5 155.8 C 232.5 155.8 232.5 157.64 232.5 157.6 C 232.5 157.7 232.5 157.8 232.5 158 C 232.5 158.4 232.7 158.6 233.1 158.6 C 233.2 158.6 233.4 158.6 233.5 158.5 C 233.5 158.5 233.7 159.1 233.7 159.1 C 233.5 159.2 233.2 159.3 233 159.3 C 232.4 159.3 232.1 159 231.9 158.6 C 231.8 158.4 231.8 158.1 231.8 157.8 C 231.77 157.81 231.8 155.8 231.8 155.8 L 231.2 155.8 L 231.2 155.2 L 231.8 155.2 L 231.8 154.2 L 232.5 154.2 L 232.5 155.2 L 233.6 155.2 L 233.6 155.8 L 232.5 155.8 Z M 234.5 159.2 L 234.5 155.2 L 235.2 155.2 L 235.2 159.2 L 234.5 159.2 Z M 234.5 154.4 L 234.5 153.6 L 235.2 153.6 L 235.2 154.4 L 234.5 154.4 Z M 240.3 157.2 C 240.3 158.4 239.4 159.3 238.3 159.3 C 237.1 159.3 236.2 158.4 236.2 157.2 C 236.2 156 237.1 155.1 238.3 155.1 C 239.4 155.1 240.3 156 240.3 157.2 Z M 238.3 155.8 C 237.5 155.8 237 156.4 237 157.2 C 237 158 237.5 158.6 238.3 158.6 C 239 158.6 239.6 158 239.6 157.2 C 239.6 156.4 239 155.8 238.3 155.8 Z M 242 155.2 C 242 155.2 242.05 155.85 242 155.8 C 242.3 155.4 242.8 155.1 243.4 155.1 C 243.9 155.1 244.3 155.3 244.5 155.6 C 244.8 156 244.9 156.5 244.9 157.1 C 244.87 157.11 244.9 159.2 244.9 159.2 L 244.1 159.2 C 244.1 159.2 244.14 157.19 244.1 157.2 C 244.1 156.8 244.1 156.4 243.9 156.1 C 243.8 155.9 243.6 155.8 243.2 155.8 C 242.8 155.8 242.3 156.1 242 156.5 C 242.05 156.53 242 159.2 242 159.2 L 241.3 159.2 L 241.3 155.2 L 242 155.2 Z M 251.9 157.2 C 251.9 158.4 251 159.3 249.9 159.3 C 248.7 159.3 247.8 158.4 247.8 157.2 C 247.8 156 248.7 155.1 249.9 155.1 C 251 155.1 251.9 156 251.9 157.2 Z M 249.9 155.8 C 249.1 155.8 248.6 156.4 248.6 157.2 C 248.6 158 249.1 158.6 249.9 158.6 C 250.6 158.6 251.2 158 251.2 157.2 C 251.2 156.4 250.6 155.8 249.9 155.8 Z M 255 153.9 C 254.8 153.8 254.7 153.8 254.5 153.8 C 254.3 153.8 254.1 153.8 254 153.9 C 253.8 154 253.8 154.3 253.8 154.7 C 253.8 154.69 253.8 155.2 253.8 155.2 L 254.9 155.2 L 254.9 155.8 L 253.8 155.8 L 253.8 159.2 L 253.1 159.2 L 253.1 155.8 L 252.6 155.8 L 252.6 155.2 L 253.1 155.2 C 253.1 155.2 253.07 154.61 253.1 154.6 C 253.1 154.2 253.1 153.8 253.3 153.6 C 253.5 153.3 253.8 153.1 254.4 153.1 C 254.6 153.1 254.9 153.2 255.2 153.3 C 255.2 153.3 255 153.9 255 153.9 Z M 260.6 158.9 C 260.3 159.1 259.8 159.3 259.3 159.3 C 258.2 159.3 257.3 158.5 257.3 157.2 C 257.3 156 258.2 155.1 259.4 155.1 C 259.8 155.1 260.2 155.2 260.5 155.4 C 260.5 155.4 260.2 156 260.2 156 C 259.9 155.9 259.6 155.8 259.3 155.8 C 258.6 155.8 258 156.4 258 157.2 C 258 158.1 258.6 158.6 259.3 158.6 C 259.6 158.6 260 158.5 260.2 158.3 C 260.2 158.3 260.6 158.9 260.6 158.9 Z M 262.1 155.8 C 262.4 155.4 262.9 155.1 263.4 155.1 C 264 155.1 264.4 155.3 264.6 155.6 C 264.9 156 265 156.5 265 157.1 C 264.97 157.11 265 159.2 265 159.2 L 264.2 159.2 C 264.2 159.2 264.24 157.19 264.2 157.2 C 264.2 156.8 264.2 156.4 264 156.1 C 263.9 155.9 263.7 155.8 263.3 155.8 C 262.9 155.8 262.4 156.1 262.1 156.5 C 262.14 156.53 262.1 159.2 262.1 159.2 L 261.4 159.2 L 261.4 153.2 L 262.1 153.2 C 262.1 153.2 262.14 155.85 262.1 155.8 Z M 268.6 159.2 C 268.6 159.2 268.64 158.77 268.6 158.8 C 268.3 159.1 268 159.3 267.4 159.3 C 266.7 159.3 266 158.9 266 158.1 C 266 157.1 266.9 156.7 267.8 156.7 C 268 156.7 268.3 156.8 268.6 156.8 C 268.6 156.8 268.6 156.7 268.6 156.7 C 268.6 156.1 268.3 155.7 267.7 155.7 C 267.2 155.7 266.7 155.9 266.4 156.1 C 266.4 156.1 266.2 155.5 266.2 155.5 C 266.6 155.3 267.2 155.1 267.8 155.1 C 268.9 155.1 269.3 155.7 269.3 156.8 C 269.34 156.76 269.3 159.2 269.3 159.2 L 268.6 159.2 Z M 268.6 157.4 C 268.3 157.3 268.1 157.3 267.9 157.3 C 267.4 157.3 266.7 157.4 266.7 158 C 266.7 158.5 267.1 158.7 267.5 158.7 C 267.9 158.7 268.3 158.5 268.6 158.2 C 268.6 158.2 268.6 157.4 268.6 157.4 Z M 271.4 155.9 C 271.6 155.4 272 155.1 272.4 155.1 C 272.6 155.1 272.7 155.1 272.8 155.1 C 272.8 155.1 272.7 155.9 272.7 155.9 C 272.6 155.9 272.5 155.8 272.3 155.8 C 271.9 155.8 271.6 156.1 271.4 156.5 C 271.36 156.51 271.4 159.2 271.4 159.2 L 270.6 159.2 L 270.6 155.2 L 271.4 155.2 C 271.4 155.2 271.36 155.85 271.4 155.9 Z M 278.8 159.2 C 278.8 159.2 278.82 157.19 278.8 157.2 C 278.8 156.8 278.8 156.4 278.6 156.1 C 278.5 155.9 278.3 155.8 277.9 155.8 C 277.6 155.8 277.1 156 276.8 156.4 C 276.9 156.6 276.9 156.9 276.9 157.1 C 276.88 157.11 276.9 159.2 276.9 159.2 L 276.2 159.2 C 276.2 159.2 276.15 157.19 276.2 157.2 C 276.2 156.8 276.1 156.3 275.9 156 C 275.8 155.9 275.6 155.8 275.3 155.8 C 274.9 155.8 274.5 156.1 274.2 156.5 C 274.21 156.5 274.2 159.2 274.2 159.2 L 273.5 159.2 L 273.5 155.2 L 274.2 155.2 C 274.2 155.2 274.21 155.8 274.2 155.8 C 274.5 155.4 275 155.1 275.5 155.1 C 275.9 155.1 276.3 155.3 276.6 155.6 C 276.6 155.7 276.7 155.8 276.7 155.8 C 277 155.3 277.5 155.1 278.1 155.1 C 278.6 155.1 279 155.3 279.2 155.6 C 279.5 155.9 279.5 156.5 279.5 157.1 C 279.54 157.11 279.5 159.2 279.5 159.2 L 278.8 159.2 Z M 280.8 159.2 L 280.8 155.2 L 281.6 155.2 L 281.6 159.2 L 280.8 159.2 Z M 280.8 154.4 L 280.8 153.6 L 281.6 153.6 L 281.6 154.4 L 280.8 154.4 Z M 283.6 155.2 C 283.6 155.2 283.64 155.85 283.6 155.8 C 283.9 155.4 284.4 155.1 284.9 155.1 C 285.5 155.1 285.9 155.3 286.1 155.6 C 286.4 156 286.5 156.5 286.5 157.1 C 286.46 157.11 286.5 159.2 286.5 159.2 L 285.7 159.2 C 285.7 159.2 285.74 157.19 285.7 157.2 C 285.7 156.8 285.7 156.4 285.5 156.1 C 285.4 155.9 285.2 155.8 284.8 155.8 C 284.4 155.8 283.9 156.1 283.6 156.5 C 283.64 156.53 283.6 159.2 283.6 159.2 L 282.9 159.2 L 282.9 155.2 L 283.6 155.2 Z M 291.4 159 C 291.4 159.4 291.4 159.7 291.2 160 C 290.9 160.7 290.2 161 289.4 161 C 288.8 161 288.1 160.8 287.6 160.4 C 287.6 160.4 287.9 159.8 287.9 159.8 C 288.3 160.1 288.9 160.3 289.4 160.3 C 290.1 160.3 290.7 160 290.7 159.1 C 290.7 159.1 290.7 158.6 290.7 158.6 C 290.4 159 289.9 159.2 289.4 159.2 C 288.3 159.2 287.4 158.3 287.4 157.1 C 287.4 156.1 288.2 155.1 289.4 155.1 C 289.9 155.1 290.4 155.3 290.7 155.6 C 290.7 155.63 290.7 155.2 290.7 155.2 L 291.4 155.2 C 291.4 155.2 291.42 158.97 291.4 159 Z M 290.7 156.4 C 290.4 156 289.9 155.8 289.5 155.8 C 288.6 155.8 288.2 156.5 288.2 157.2 C 288.2 157.9 288.7 158.5 289.5 158.5 C 289.9 158.5 290.5 158.3 290.7 157.8 C 290.7 157.8 290.7 156.4 290.7 156.4 Z M 297.7 158.9 C 297.4 159.1 296.9 159.3 296.4 159.3 C 295.3 159.3 294.4 158.5 294.4 157.2 C 294.4 156 295.3 155.1 296.5 155.1 C 296.9 155.1 297.3 155.2 297.6 155.4 C 297.6 155.4 297.3 156 297.3 156 C 297 155.9 296.7 155.8 296.4 155.8 C 295.7 155.8 295.1 156.4 295.1 157.2 C 295.1 158.1 295.8 158.6 296.4 158.6 C 296.7 158.6 297.1 158.5 297.3 158.3 C 297.3 158.3 297.7 158.9 297.7 158.9 Z M 299.2 155.8 C 299.5 155.4 300 155.1 300.6 155.1 C 301.1 155.1 301.5 155.3 301.7 155.6 C 302 156 302.1 156.5 302.1 157.1 C 302.07 157.11 302.1 159.2 302.1 159.2 L 301.3 159.2 C 301.3 159.2 301.34 157.19 301.3 157.2 C 301.3 156.8 301.3 156.4 301.1 156.1 C 301 155.9 300.8 155.8 300.4 155.8 C 300 155.8 299.5 156.1 299.2 156.5 C 299.25 156.53 299.2 159.2 299.2 159.2 L 298.5 159.2 L 298.5 153.2 L 299.2 153.2 C 299.2 153.2 299.25 155.85 299.2 155.8 Z M 305.7 159.2 C 305.7 159.2 305.74 158.77 305.7 158.8 C 305.4 159.1 305.1 159.3 304.5 159.3 C 303.8 159.3 303.1 158.9 303.1 158.1 C 303.1 157.1 304 156.7 304.9 156.7 C 305.1 156.7 305.4 156.8 305.7 156.8 C 305.7 156.8 305.7 156.7 305.7 156.7 C 305.7 156.1 305.4 155.7 304.8 155.7 C 304.3 155.7 303.8 155.9 303.5 156.1 C 303.5 156.1 303.3 155.5 303.3 155.5 C 303.7 155.3 304.3 155.1 304.9 155.1 C 306 155.1 306.4 155.7 306.4 156.8 C 306.44 156.76 306.4 159.2 306.4 159.2 L 305.7 159.2 Z M 305.7 157.4 C 305.4 157.3 305.2 157.3 305 157.3 C 304.5 157.3 303.8 157.4 303.8 158 C 303.8 158.5 304.2 158.7 304.6 158.7 C 305 158.7 305.4 158.5 305.7 158.2 C 305.7 158.2 305.7 157.4 305.7 157.4 Z M 307.7 159.2 L 307.7 155.2 L 308.5 155.2 L 308.5 159.2 L 307.7 159.2 Z M 307.7 154.4 L 307.7 153.6 L 308.5 153.6 L 308.5 154.4 L 307.7 154.4 Z M 310.5 155.9 C 310.8 155.4 311.1 155.1 311.6 155.1 C 311.7 155.1 311.8 155.1 312 155.1 C 312 155.1 311.9 155.9 311.9 155.9 C 311.7 155.9 311.6 155.8 311.5 155.8 C 311.1 155.8 310.8 156.1 310.5 156.5 C 310.53 156.51 310.5 159.2 310.5 159.2 L 309.8 159.2 L 309.8 155.2 L 310.5 155.2 C 310.5 155.2 310.53 155.85 310.5 155.9 Z M 314.6 156 C 314.4 155.8 314.1 155.7 313.8 155.7 C 313.5 155.7 313.2 155.9 313.2 156.2 C 313.2 156.5 313.6 156.7 314 156.8 C 314.5 157 315.2 157.3 315.2 158 C 315.2 158.9 314.5 159.3 313.7 159.3 C 313.2 159.3 312.6 159.1 312.3 158.7 C 312.3 158.7 312.8 158.3 312.8 158.3 C 313.1 158.5 313.4 158.7 313.7 158.7 C 314.1 158.7 314.4 158.5 314.4 158.1 C 314.4 157.8 314.1 157.6 313.7 157.4 C 313.1 157.2 312.5 157 312.5 156.3 C 312.5 155.5 313.2 155.1 313.8 155.1 C 314.3 155.1 314.7 155.2 315 155.5 C 315 155.5 314.6 156 314.6 156 Z M 316.2 159.2 L 316.2 158.3 L 317 158.3 L 317 159.2 L 316.2 159.2 Z " stroke="none" fill="#535a5d"/>  </g>  <g id="Polygon40807">    <path d="M 158.3 143.2 C 157.7 143.2 157.3 143.5 157.3 144 C 157.3 144.4 157.9 144.6 158.5 144.8 C 159.3 145.1 160.2 145.5 160.2 146.5 C 160.2 147.8 159.1 148.3 158.2 148.3 C 157.4 148.3 156.8 148 156.2 147.4 C 156.2 147.4 156.7 146.9 156.7 146.9 C 157.3 147.5 157.7 147.6 158.2 147.6 C 158.8 147.6 159.4 147.3 159.4 146.6 C 159.4 146 158.8 145.8 158.1 145.6 C 157.4 145.3 156.5 144.9 156.5 144 C 156.5 143 157.3 142.5 158.2 142.5 C 158.9 142.5 159.5 142.7 160 143.1 C 160 143.1 159.5 143.6 159.5 143.6 C 159.2 143.4 158.8 143.2 158.3 143.2 Z M 162.1 144.8 C 162.1 144.8 162.14 146.64 162.1 146.6 C 162.1 146.7 162.1 146.8 162.1 147 C 162.2 147.4 162.3 147.6 162.7 147.6 C 162.9 147.6 163 147.6 163.2 147.5 C 163.2 147.5 163.4 148.1 163.4 148.1 C 163.2 148.2 162.9 148.3 162.6 148.3 C 162 148.3 161.7 148 161.5 147.6 C 161.4 147.4 161.4 147.1 161.4 146.8 C 161.41 146.81 161.4 144.8 161.4 144.8 L 160.9 144.8 L 160.9 144.2 L 161.4 144.2 L 161.4 143.2 L 162.1 143.2 L 162.1 144.2 L 163.3 144.2 L 163.3 144.8 L 162.1 144.8 Z M 164.4 144.2 L 165.5 147.2 L 165.5 147.2 L 166.6 144.2 L 167.4 144.2 L 165.1 150 L 164.5 149.7 L 165.1 148.1 L 163.6 144.2 L 164.4 144.2 Z M 168.8 148.2 L 168.1 148.2 L 168.1 142.2 L 168.8 142.2 L 168.8 148.2 Z M 170.1 148.2 L 170.1 144.2 L 170.9 144.2 L 170.9 148.2 L 170.1 148.2 Z M 170.1 143.4 L 170.1 142.6 L 170.9 142.6 L 170.9 143.4 L 170.1 143.4 Z M 174.2 145 C 174 144.8 173.6 144.7 173.4 144.7 C 173 144.7 172.8 144.9 172.8 145.2 C 172.8 145.5 173.2 145.7 173.5 145.8 C 174.1 146 174.7 146.3 174.7 147 C 174.7 147.9 174 148.3 173.3 148.3 C 172.7 148.3 172.2 148.1 171.9 147.7 C 171.9 147.7 172.4 147.3 172.4 147.3 C 172.7 147.5 173 147.7 173.3 147.7 C 173.7 147.7 174 147.5 174 147.1 C 174 146.8 173.6 146.6 173.2 146.4 C 172.7 146.2 172.1 146 172.1 145.3 C 172.1 144.5 172.7 144.1 173.4 144.1 C 173.8 144.1 174.3 144.2 174.6 144.5 C 174.6 144.5 174.2 145 174.2 145 Z M 176.6 144.8 C 176.8 144.4 177.3 144.1 177.9 144.1 C 178.4 144.1 178.8 144.3 179 144.6 C 179.3 145 179.4 145.5 179.4 146.1 C 179.38 146.11 179.4 148.2 179.4 148.2 L 178.6 148.2 C 178.6 148.2 178.65 146.19 178.6 146.2 C 178.6 145.8 178.6 145.4 178.4 145.1 C 178.3 144.9 178.1 144.8 177.7 144.8 C 177.3 144.8 176.8 145.1 176.6 145.5 C 176.55 145.53 176.6 148.2 176.6 148.2 L 175.8 148.2 L 175.8 142.2 L 176.6 142.2 C 176.6 142.2 176.55 144.85 176.6 144.8 Z M 185.6 147.9 C 185.3 148.1 184.9 148.3 184.4 148.3 C 183.2 148.3 182.3 147.5 182.3 146.2 C 182.3 145 183.3 144.1 184.4 144.1 C 184.8 144.1 185.2 144.2 185.6 144.4 C 185.6 144.4 185.2 145 185.2 145 C 185 144.9 184.7 144.8 184.4 144.8 C 183.7 144.8 183.1 145.4 183.1 146.2 C 183.1 147.1 183.7 147.6 184.4 147.6 C 184.7 147.6 185 147.5 185.2 147.3 C 185.2 147.3 185.6 147.9 185.6 147.9 Z M 190.2 146.2 C 190.2 147.4 189.3 148.3 188.2 148.3 C 187 148.3 186.1 147.4 186.1 146.2 C 186.1 145 187 144.1 188.2 144.1 C 189.3 144.1 190.2 145 190.2 146.2 Z M 188.2 144.8 C 187.4 144.8 186.9 145.4 186.9 146.2 C 186.9 147 187.4 147.6 188.2 147.6 C 188.9 147.6 189.5 147 189.5 146.2 C 189.5 145.4 188.9 144.8 188.2 144.8 Z M 196.6 148.2 C 196.6 148.2 196.55 146.19 196.6 146.2 C 196.6 145.8 196.5 145.4 196.4 145.1 C 196.2 144.9 196 144.8 195.7 144.8 C 195.3 144.8 194.9 145 194.6 145.4 C 194.6 145.6 194.6 145.9 194.6 146.1 C 194.62 146.11 194.6 148.2 194.6 148.2 L 193.9 148.2 C 193.9 148.2 193.89 146.19 193.9 146.2 C 193.9 145.8 193.9 145.3 193.7 145 C 193.6 144.9 193.4 144.8 193.1 144.8 C 192.6 144.8 192.2 145.1 192 145.5 C 191.95 145.5 192 148.2 192 148.2 L 191.2 148.2 L 191.2 144.2 L 192 144.2 C 192 144.2 191.95 144.8 192 144.8 C 192.2 144.4 192.7 144.1 193.2 144.1 C 193.7 144.1 194.1 144.3 194.3 144.6 C 194.4 144.7 194.4 144.8 194.4 144.8 C 194.8 144.3 195.3 144.1 195.8 144.1 C 196.3 144.1 196.7 144.3 196.9 144.6 C 197.2 144.9 197.3 145.5 197.3 146.1 C 197.28 146.11 197.3 148.2 197.3 148.2 L 196.6 148.2 Z M 200.6 142.9 C 200.5 142.8 200.3 142.8 200.1 142.8 C 199.9 142.8 199.8 142.8 199.7 142.9 C 199.5 143 199.5 143.3 199.5 143.7 C 199.46 143.69 199.5 144.2 199.5 144.2 L 200.5 144.2 L 200.5 144.8 L 199.5 144.8 L 199.5 148.2 L 198.7 148.2 L 198.7 144.8 L 198.3 144.8 L 198.3 144.2 L 198.7 144.2 C 198.7 144.2 198.73 143.61 198.7 143.6 C 198.7 143.2 198.8 142.8 199 142.6 C 199.2 142.3 199.5 142.1 200 142.1 C 200.3 142.1 200.6 142.2 200.8 142.3 C 200.8 142.3 200.6 142.9 200.6 142.9 Z M 205 146.2 C 205 147.4 204.1 148.3 203 148.3 C 201.8 148.3 200.9 147.4 200.9 146.2 C 200.9 145 201.8 144.1 203 144.1 C 204.1 144.1 205 145 205 146.2 Z M 203 144.8 C 202.2 144.8 201.7 145.4 201.7 146.2 C 201.7 147 202.2 147.6 203 147.6 C 203.7 147.6 204.3 147 204.3 146.2 C 204.3 145.4 203.7 144.8 203 144.8 Z M 206.8 144.9 C 207 144.4 207.4 144.1 207.8 144.1 C 208 144.1 208.1 144.1 208.2 144.1 C 208.2 144.1 208.1 144.9 208.1 144.9 C 208 144.9 207.9 144.8 207.7 144.8 C 207.3 144.8 207 145.1 206.8 145.5 C 206.75 145.51 206.8 148.2 206.8 148.2 L 206 148.2 L 206 144.2 L 206.8 144.2 C 206.8 144.2 206.75 144.85 206.8 144.9 Z M 209.8 144.8 C 209.8 144.8 209.77 146.64 209.8 146.6 C 209.8 146.7 209.8 146.8 209.8 147 C 209.8 147.4 209.9 147.6 210.3 147.6 C 210.5 147.6 210.7 147.6 210.8 147.5 C 210.8 147.5 211 148.1 211 148.1 C 210.8 148.2 210.5 148.3 210.2 148.3 C 209.7 148.3 209.3 148 209.2 147.6 C 209.1 147.4 209 147.1 209 146.8 C 209.04 146.81 209 144.8 209 144.8 L 208.5 144.8 L 208.5 144.2 L 209 144.2 L 209 143.2 L 209.8 143.2 L 209.8 144.2 L 210.9 144.2 L 210.9 144.8 L 209.8 144.8 Z M 213.8 148.2 L 213.8 144.2 L 214.5 144.2 L 214.5 148.2 L 213.8 148.2 Z M 213.8 143.4 L 213.8 142.6 L 214.5 142.6 L 214.5 143.4 L 213.8 143.4 Z M 217.8 145 C 217.6 144.8 217.3 144.7 217 144.7 C 216.6 144.7 216.4 144.9 216.4 145.2 C 216.4 145.5 216.8 145.7 217.2 145.8 C 217.7 146 218.3 146.3 218.3 147 C 218.3 147.9 217.6 148.3 216.9 148.3 C 216.3 148.3 215.8 148.1 215.5 147.7 C 215.5 147.7 216 147.3 216 147.3 C 216.3 147.5 216.6 147.7 216.9 147.7 C 217.3 147.7 217.6 147.5 217.6 147.1 C 217.6 146.8 217.2 146.6 216.8 146.4 C 216.3 146.2 215.7 146 215.7 145.3 C 215.7 144.5 216.3 144.1 217 144.1 C 217.4 144.1 217.9 144.2 218.2 144.5 C 218.2 144.5 217.8 145 217.8 145 Z M 224.4 147.9 C 224.1 148.1 223.6 148.3 223.2 148.3 C 222 148.3 221.1 147.5 221.1 146.2 C 221.1 145 222 144.1 223.2 144.1 C 223.6 144.1 224 144.2 224.3 144.4 C 224.3 144.4 224 145 224 145 C 223.8 144.9 223.5 144.8 223.2 144.8 C 222.4 144.8 221.9 145.4 221.9 146.2 C 221.9 147.1 222.5 147.6 223.2 147.6 C 223.4 147.6 223.8 147.5 224 147.3 C 224 147.3 224.4 147.9 224.4 147.9 Z M 226 148.2 L 225.2 148.2 L 225.2 142.2 L 226 142.2 L 226 148.2 Z M 231.1 146.2 C 231.1 147.4 230.2 148.3 229 148.3 C 227.9 148.3 227 147.4 227 146.2 C 227 145 227.9 144.1 229 144.1 C 230.2 144.1 231.1 145 231.1 146.2 Z M 229 144.8 C 228.3 144.8 227.7 145.4 227.7 146.2 C 227.7 147 228.3 147.6 229 147.6 C 229.8 147.6 230.3 147 230.3 146.2 C 230.3 145.4 229.8 144.8 229 144.8 Z M 234 145 C 233.8 144.8 233.5 144.7 233.2 144.7 C 232.9 144.7 232.6 144.9 232.6 145.2 C 232.6 145.5 233 145.7 233.4 145.8 C 233.9 146 234.6 146.3 234.6 147 C 234.6 147.9 233.9 148.3 233.1 148.3 C 232.6 148.3 232.1 148.1 231.7 147.7 C 231.7 147.7 232.3 147.3 232.3 147.3 C 232.5 147.5 232.8 147.7 233.1 147.7 C 233.5 147.7 233.8 147.5 233.8 147.1 C 233.8 146.8 233.5 146.6 233.1 146.4 C 232.6 146.2 231.9 146 231.9 145.3 C 231.9 144.5 232.6 144.1 233.2 144.1 C 233.7 144.1 234.1 144.2 234.5 144.5 C 234.5 144.5 234 145 234 145 Z M 236.1 146.4 C 236.1 147.1 236.6 147.7 237.4 147.7 C 237.9 147.7 238.3 147.5 238.6 147 C 238.6 147 239.1 147.4 239.1 147.4 C 238.7 148 238.1 148.3 237.3 148.3 C 236.1 148.3 235.3 147.4 235.3 146.2 C 235.3 145 236.2 144.1 237.3 144.1 C 238.4 144.1 239.2 144.9 239.2 146 C 239.2 146.1 239.1 146.3 239.1 146.4 C 239.1 146.4 236.1 146.4 236.1 146.4 Z M 236.1 145.8 C 236.1 145.8 238.4 145.8 238.4 145.8 C 238.4 145.2 237.9 144.7 237.3 144.7 C 236.7 144.7 236.3 145.2 236.1 145.8 Z M 240.9 144.9 C 241.1 144.4 241.5 144.1 241.9 144.1 C 242.1 144.1 242.2 144.1 242.4 144.1 C 242.4 144.1 242.2 144.9 242.2 144.9 C 242.1 144.9 242 144.8 241.8 144.8 C 241.4 144.8 241.1 145.1 240.9 145.5 C 240.89 145.51 240.9 148.2 240.9 148.2 L 240.2 148.2 L 240.2 144.2 L 240.9 144.2 C 240.9 144.2 240.89 144.85 240.9 144.9 Z M 245.8 144.8 C 245.8 144.8 245.78 146.64 245.8 146.6 C 245.8 146.7 245.8 146.8 245.8 147 C 245.8 147.4 246 147.6 246.4 147.6 C 246.5 147.6 246.7 147.6 246.8 147.5 C 246.8 147.5 247 148.1 247 148.1 C 246.8 148.2 246.5 148.3 246.3 148.3 C 245.7 148.3 245.4 148 245.2 147.6 C 245.1 147.4 245.1 147.1 245.1 146.8 C 245.06 146.81 245.1 144.8 245.1 144.8 L 244.5 144.8 L 244.5 144.2 L 245.1 144.2 L 245.1 143.2 L 245.8 143.2 L 245.8 144.2 L 246.9 144.2 L 246.9 144.8 L 245.8 144.8 Z M 248.5 144.8 C 248.8 144.4 249.3 144.1 249.8 144.1 C 250.4 144.1 250.7 144.3 251 144.6 C 251.2 145 251.3 145.5 251.3 146.1 C 251.34 146.11 251.3 148.2 251.3 148.2 L 250.6 148.2 C 250.6 148.2 250.61 146.19 250.6 146.2 C 250.6 145.8 250.6 145.4 250.4 145.1 C 250.3 144.9 250.1 144.8 249.7 144.8 C 249.2 144.8 248.8 145.1 248.5 145.5 C 248.51 145.53 248.5 148.2 248.5 148.2 L 247.8 148.2 L 247.8 142.2 L 248.5 142.2 C 248.5 142.2 248.51 144.85 248.5 144.8 Z M 255 148.2 C 255 148.2 255.01 147.77 255 147.8 C 254.7 148.1 254.3 148.3 253.8 148.3 C 253.1 148.3 252.4 147.9 252.4 147.1 C 252.4 146.1 253.3 145.7 254.2 145.7 C 254.4 145.7 254.6 145.8 255 145.8 C 255 145.8 255 145.7 255 145.7 C 255 145.1 254.7 144.7 254 144.7 C 253.6 144.7 253.1 144.9 252.8 145.1 C 252.8 145.1 252.5 144.5 252.5 144.5 C 253 144.3 253.6 144.1 254.1 144.1 C 255.3 144.1 255.7 144.7 255.7 145.8 C 255.7 145.76 255.7 148.2 255.7 148.2 L 255 148.2 Z M 255 146.4 C 254.7 146.3 254.5 146.3 254.3 146.3 C 253.8 146.3 253.1 146.4 253.1 147 C 253.1 147.5 253.5 147.7 253.9 147.7 C 254.3 147.7 254.7 147.5 255 147.2 C 255 147.2 255 146.4 255 146.4 Z M 257.7 144.2 C 257.7 144.2 257.73 144.85 257.7 144.8 C 258 144.4 258.5 144.1 259 144.1 C 259.6 144.1 260 144.3 260.2 144.6 C 260.5 145 260.6 145.5 260.6 146.1 C 260.55 146.11 260.6 148.2 260.6 148.2 L 259.8 148.2 C 259.8 148.2 259.82 146.19 259.8 146.2 C 259.8 145.8 259.8 145.4 259.6 145.1 C 259.5 144.9 259.3 144.8 258.9 144.8 C 258.5 144.8 258 145.1 257.7 145.5 C 257.73 145.53 257.7 148.2 257.7 148.2 L 257 148.2 L 257 144.2 L 257.7 144.2 Z M 264 144.2 L 265.1 147.2 L 265.1 147.2 L 266.2 144.2 L 266.9 144.2 L 264.7 150 L 264.1 149.7 L 264.7 148.1 L 263.2 144.2 L 264 144.2 Z M 271.4 146.2 C 271.4 147.4 270.5 148.3 269.4 148.3 C 268.2 148.3 267.3 147.4 267.3 146.2 C 267.3 145 268.2 144.1 269.4 144.1 C 270.5 144.1 271.4 145 271.4 146.2 Z M 269.4 144.8 C 268.6 144.8 268.1 145.4 268.1 146.2 C 268.1 147 268.6 147.6 269.4 147.6 C 270.1 147.6 270.7 147 270.7 146.2 C 270.7 145.4 270.1 144.8 269.4 144.8 Z M 275.2 147.5 C 274.9 148 274.4 148.3 273.9 148.3 C 273.3 148.3 273 148.1 272.7 147.8 C 272.5 147.4 272.4 146.9 272.4 146.3 C 272.37 146.27 272.4 144.2 272.4 144.2 L 273.1 144.2 C 273.1 144.2 273.09 146.19 273.1 146.2 C 273.1 146.6 273.1 147 273.3 147.3 C 273.4 147.5 273.6 147.6 274 147.6 C 274.5 147.6 274.9 147.3 275.2 146.8 C 275.19 146.85 275.2 144.2 275.2 144.2 L 275.9 144.2 L 275.9 148.2 L 275.2 148.2 C 275.2 148.2 275.19 147.53 275.2 147.5 Z M 281.8 148.2 L 280.6 146.4 L 280 147.1 L 280 148.2 L 279.3 148.2 L 279.3 142.2 L 280 142.2 L 280 146.2 L 280 146.2 L 281.6 144.2 L 282.5 144.2 L 281.1 145.8 L 282.7 148.2 L 281.8 148.2 Z M 284.1 144.2 C 284.1 144.2 284.1 144.85 284.1 144.8 C 284.4 144.4 284.9 144.1 285.4 144.1 C 286 144.1 286.3 144.3 286.6 144.6 C 286.8 145 286.9 145.5 286.9 146.1 C 286.93 146.11 286.9 148.2 286.9 148.2 L 286.2 148.2 C 286.2 148.2 286.2 146.19 286.2 146.2 C 286.2 145.8 286.2 145.4 286 145.1 C 285.9 144.9 285.6 144.8 285.3 144.8 C 284.8 144.8 284.4 145.1 284.1 145.5 C 284.1 145.53 284.1 148.2 284.1 148.2 L 283.4 148.2 L 283.4 144.2 L 284.1 144.2 Z M 292 146.2 C 292 147.4 291.1 148.3 289.9 148.3 C 288.8 148.3 287.9 147.4 287.9 146.2 C 287.9 145 288.8 144.1 289.9 144.1 C 291.1 144.1 292 145 292 146.2 Z M 289.9 144.8 C 289.2 144.8 288.6 145.4 288.6 146.2 C 288.6 147 289.2 147.6 289.9 147.6 C 290.7 147.6 291.2 147 291.2 146.2 C 291.2 145.4 290.7 144.8 289.9 144.8 Z M 296.5 147.3 L 296.5 147.3 L 297.3 144.2 L 298 144.2 L 296.9 148.2 L 296.1 148.2 L 295.2 145.1 L 295.2 145.1 L 294.4 148.2 L 293.5 148.2 L 292.4 144.2 L 293.2 144.2 L 294 147.3 L 294 147.3 L 294.9 144.2 L 295.7 144.2 L 296.5 147.3 Z M 304.3 147.3 L 304.4 147.3 L 305.2 144.2 L 305.9 144.2 L 304.8 148.2 L 304 148.2 L 303.1 145.1 L 303.1 145.1 L 302.2 148.2 L 301.4 148.2 L 300.3 144.2 L 301.1 144.2 L 301.8 147.3 L 301.8 147.3 L 302.7 144.2 L 303.5 144.2 L 304.3 147.3 Z M 306.7 148.2 L 306.7 144.2 L 307.4 144.2 L 307.4 148.2 L 306.7 148.2 Z M 306.7 143.4 L 306.7 142.6 L 307.4 142.6 L 307.4 143.4 L 306.7 143.4 Z M 309.5 144.8 C 309.5 144.8 309.54 146.64 309.5 146.6 C 309.5 146.7 309.5 146.8 309.6 147 C 309.6 147.4 309.7 147.6 310.1 147.6 C 310.3 147.6 310.4 147.6 310.6 147.5 C 310.6 147.5 310.8 148.1 310.8 148.1 C 310.6 148.2 310.3 148.3 310 148.3 C 309.5 148.3 309.1 148 308.9 147.6 C 308.8 147.4 308.8 147.1 308.8 146.8 C 308.82 146.81 308.8 144.8 308.8 144.8 L 308.3 144.8 L 308.3 144.2 L 308.8 144.2 L 308.8 143.2 L 309.5 143.2 L 309.5 144.2 L 310.7 144.2 L 310.7 144.8 L 309.5 144.8 Z M 312.3 144.8 C 312.6 144.4 313 144.1 313.6 144.1 C 314.1 144.1 314.5 144.3 314.7 144.6 C 315 145 315.1 145.5 315.1 146.1 C 315.09 146.11 315.1 148.2 315.1 148.2 L 314.4 148.2 C 314.4 148.2 314.37 146.19 314.4 146.2 C 314.4 145.8 314.4 145.4 314.2 145.1 C 314 144.9 313.8 144.8 313.5 144.8 C 313 144.8 312.6 145.1 312.3 145.5 C 312.27 145.53 312.3 148.2 312.3 148.2 L 311.5 148.2 L 311.5 142.2 L 312.3 142.2 C 312.3 142.2 312.27 144.85 312.3 144.8 Z M 322.1 146.2 C 322.1 147.4 321.3 148.3 320.1 148.3 C 318.9 148.3 318.1 147.4 318.1 146.2 C 318.1 145 318.9 144.1 320.1 144.1 C 321.3 144.1 322.1 145 322.1 146.2 Z M 320.1 144.8 C 319.3 144.8 318.8 145.4 318.8 146.2 C 318.8 147 319.3 147.6 320.1 147.6 C 320.8 147.6 321.4 147 321.4 146.2 C 321.4 145.4 320.8 144.8 320.1 144.8 Z M 325.9 147.5 C 325.6 148 325.2 148.3 324.6 148.3 C 324.1 148.3 323.7 148.1 323.5 147.8 C 323.2 147.4 323.1 146.9 323.1 146.3 C 323.1 146.27 323.1 144.2 323.1 144.2 L 323.8 144.2 C 323.8 144.2 323.82 146.19 323.8 146.2 C 323.8 146.6 323.8 147 324 147.3 C 324.2 147.5 324.4 147.6 324.7 147.6 C 325.2 147.6 325.6 147.3 325.9 146.8 C 325.92 146.85 325.9 144.2 325.9 144.2 L 326.6 144.2 L 326.6 148.2 L 325.9 148.2 C 325.9 148.2 325.92 147.53 325.9 147.5 Z M 328.7 144.9 C 329 144.4 329.3 144.1 329.8 144.1 C 329.9 144.1 330 144.1 330.2 144.1 C 330.2 144.1 330 144.9 330 144.9 C 329.9 144.9 329.8 144.8 329.7 144.8 C 329.3 144.8 329 145.1 328.7 145.5 C 328.72 145.51 328.7 148.2 328.7 148.2 L 328 148.2 L 328 144.2 L 328.7 144.2 C 328.7 144.2 328.72 144.85 328.7 144.9 Z " stroke="none" fill="#535a5d"/>  </g>  <g id="Polygon40806">    <path d="M 115.6 106.7 L 115.7 106.7 L 117.5 100.1 L 119 100.1 L 116.4 109.2 L 115 109.2 L 113.2 102.5 L 113.2 102.5 L 111.3 109.2 L 109.9 109.2 L 107.4 100.1 L 109 100.1 L 110.7 106.7 L 110.7 106.7 L 112.6 100.1 L 113.9 100.1 L 115.6 106.7 Z M 125.7 107.3 L 122 107.3 L 121.3 109.2 L 119.8 109.2 L 123.3 100.1 L 124.5 100.1 L 128 109.2 L 126.4 109.2 L 125.7 107.3 Z M 122.4 106.1 L 125.3 106.1 L 123.9 102.2 L 123.8 102.2 L 122.4 106.1 Z M 132.8 100.1 C 134.2 100.1 136 100.8 136 102.7 C 136 104.3 134.9 105 133.8 105.3 C 133.83 105.29 136.7 109.2 136.7 109.2 L 134.9 109.2 L 132.3 105.4 L 131.5 105.4 L 131.5 109.2 L 130.1 109.2 L 130.1 100.1 C 130.1 100.1 132.83 100.09 132.8 100.1 Z M 131.5 104.2 C 131.5 104.2 132.51 104.17 132.5 104.2 C 133.7 104.2 134.5 103.8 134.5 102.8 C 134.5 101.9 133.8 101.3 132.8 101.3 C 132.76 101.31 131.5 101.3 131.5 101.3 L 131.5 104.2 Z M 144.1 109.2 L 143.1 109.2 L 140.2 101.8 L 140.2 109.2 L 138.8 109.2 L 138.8 100.1 L 140.9 100.1 L 143.6 107 L 146.4 100.1 L 148.5 100.1 L 148.5 109.2 L 147.1 109.2 L 147.1 101.8 L 144.1 109.2 Z M 154.2 101.3 L 154.2 109.2 L 152.8 109.2 L 152.8 101.3 L 150.6 101.3 L 150.6 100.1 L 156.5 100.1 L 156.5 101.3 L 154.2 101.3 Z M 164.5 109.2 L 164.5 105.1 L 159.9 105.1 L 159.9 109.2 L 158.5 109.2 L 158.5 100.1 L 159.9 100.1 L 159.9 103.9 L 164.5 103.9 L 164.5 100.1 L 165.9 100.1 L 165.9 109.2 L 164.5 109.2 Z M 177.8 107.3 L 174 107.3 L 173.3 109.2 L 171.8 109.2 L 175.4 100.1 L 176.6 100.1 L 180 109.2 L 178.4 109.2 L 177.8 107.3 Z M 174.5 106.1 L 177.3 106.1 L 175.9 102.2 L 175.9 102.2 L 174.5 106.1 Z M 188.3 109.2 L 183.5 102.7 L 183.5 109.2 L 182.1 109.2 L 182.1 100.1 L 183.4 100.1 L 188.2 106.6 L 188.2 100.1 L 189.6 100.1 L 189.6 109.2 L 188.3 109.2 Z M 192.6 100.1 C 192.6 100.1 195.07 100.09 195.1 100.1 C 197.4 100.1 200 101.3 200 104.6 C 200 108 197.4 109.2 195 109.2 C 194.95 109.19 192.6 109.2 192.6 109.2 L 192.6 100.1 Z M 194.8 101.3 C 194.85 101.31 194 101.3 194 101.3 L 194 108 C 194 108 194.34 107.97 194.3 108 C 196.8 108 198.5 107.2 198.5 104.7 C 198.5 102.5 197.2 101.3 194.8 101.3 Z M 209.4 101.2 C 208.5 101.2 207.8 101.6 207.8 102.3 C 207.8 103.1 208.7 103.4 209.6 103.7 C 210.9 104.1 212.4 104.7 212.4 106.5 C 212.4 108.5 210.6 109.3 209.2 109.3 C 207.8 109.3 206.8 108.9 205.8 107.9 C 205.8 107.9 206.8 107 206.8 107 C 207.6 107.8 208.3 108.1 209.2 108.1 C 210.1 108.1 210.9 107.7 210.9 106.6 C 210.9 105.7 210 105.4 209 105 C 207.7 104.6 206.4 104 206.4 102.5 C 206.4 100.7 207.7 99.9 209.2 99.9 C 210.3 99.9 211.3 100.3 212.1 100.9 C 212.1 100.9 211.3 101.9 211.3 101.9 C 210.8 101.5 210.1 101.2 209.4 101.2 Z M 214.9 109.2 L 214.9 100.1 L 216.3 100.1 L 216.3 109.2 L 214.9 109.2 Z M 224.6 109.2 L 223.7 109.2 L 220.7 101.8 L 220.7 109.2 L 219.3 109.2 L 219.3 100.1 L 221.5 100.1 L 224.2 107 L 226.9 100.1 L 229 100.1 L 229 109.2 L 227.6 109.2 L 227.6 101.8 L 224.6 109.2 Z M 234.8 100.1 C 236.3 100.1 238.1 100.8 238.1 102.8 C 238.1 104.9 236.3 105.6 234.8 105.6 C 234.81 105.6 233.4 105.6 233.4 105.6 L 233.4 109.2 L 232.1 109.2 L 232.1 100.1 C 232.1 100.1 234.81 100.09 234.8 100.1 Z M 233.4 104.4 C 233.4 104.4 234.5 104.38 234.5 104.4 C 235.7 104.4 236.6 104 236.6 102.9 C 236.6 101.9 235.8 101.3 234.7 101.3 C 234.75 101.31 233.4 101.3 233.4 101.3 L 233.4 104.4 Z M 240.2 109.2 L 240.2 100.1 L 241.5 100.1 L 241.5 108 L 245.4 108 L 245.4 109.2 L 240.2 109.2 Z M 247.3 109.2 L 247.3 100.1 L 248.7 100.1 L 248.7 109.2 L 247.3 109.2 Z M 256.2 108.1 C 256.9 108.1 257.6 107.9 258.2 107.4 C 258.2 107.4 258.9 108.5 258.9 108.5 C 258.1 109 257.2 109.3 256.2 109.3 C 253.5 109.3 251.3 107.5 251.3 104.6 C 251.3 102 253.5 99.9 256.2 99.9 C 257.1 99.9 258 100.2 258.7 100.7 C 258.7 100.7 258.1 101.8 258.1 101.8 C 257.5 101.4 256.9 101.2 256.2 101.2 C 254.2 101.2 252.8 102.6 252.8 104.6 C 252.8 106.8 254.2 108.1 256.2 108.1 Z M 261.2 109.2 L 261.2 100.1 L 262.6 100.1 L 262.6 109.2 L 261.2 109.2 Z M 268.3 101.3 L 268.3 109.2 L 266.9 109.2 L 266.9 101.3 L 264.6 101.3 L 264.6 100.1 L 270.5 100.1 L 270.5 101.3 L 268.3 101.3 Z M 275 109.2 L 275 105.3 L 272.1 100.1 L 273.8 100.1 L 275.8 103.8 L 275.8 103.8 L 277.7 100.1 L 279.4 100.1 L 276.4 105.3 L 276.4 109.2 L 275 109.2 Z M 285.2 109.2 L 285.2 100.1 L 286.5 100.1 L 286.5 109.2 L 285.2 109.2 Z M 295.8 109.2 L 291 102.7 L 291 109.2 L 289.6 109.2 L 289.6 100.1 L 290.8 100.1 L 295.6 106.6 L 295.6 100.1 L 297 100.1 L 297 109.2 L 295.8 109.2 Z M 303.5 109.2 L 302.3 109.2 L 298.8 100.1 L 300.4 100.1 L 303 107.1 L 303 107.1 L 305.5 100.1 L 307 100.1 L 303.5 109.2 Z M 309 109.2 L 309 100.1 L 310.4 100.1 L 310.4 109.2 L 309 109.2 Z M 316.1 101.3 L 316.1 109.2 L 314.7 109.2 L 314.7 101.3 L 312.5 101.3 L 312.5 100.1 L 318.4 100.1 L 318.4 101.3 L 316.1 101.3 Z M 320.4 109.2 L 320.4 100.1 L 326 100.1 L 326 101.3 L 321.8 101.3 L 321.8 103.9 L 326 103.9 L 326 105.1 L 321.8 105.1 L 321.8 108 L 326 108 L 326 109.2 L 320.4 109.2 Z M 334.3 109.2 L 334.3 105.3 L 331.4 100.1 L 333.1 100.1 L 335.1 103.8 L 335.1 103.8 L 337 100.1 L 338.7 100.1 L 335.7 105.3 L 335.7 109.2 L 334.3 109.2 Z M 344.4 101.2 C 342.6 101.2 341.2 102.7 341.2 104.6 C 341.2 106.6 342.6 108.1 344.4 108.1 C 346.3 108.1 347.6 106.6 347.6 104.6 C 347.6 102.7 346.3 101.2 344.4 101.2 Z M 344.4 109.3 C 341.8 109.3 339.7 107.2 339.7 104.6 C 339.7 102 341.8 99.9 344.4 99.9 C 347.1 99.9 349.1 102 349.1 104.6 C 349.1 107.2 347.1 109.3 344.4 109.3 Z M 358.8 104.9 C 358.8 107.8 357.7 109.3 355.2 109.3 C 352.7 109.3 351.7 107.8 351.7 104.9 C 351.65 104.91 351.7 100.1 351.7 100.1 L 353 100.1 C 353 100.1 353.04 105.21 353 105.2 C 353 107.2 353.9 108.1 355.2 108.1 C 356.6 108.1 357.4 107.2 357.4 105.2 C 357.37 105.21 357.4 100.1 357.4 100.1 L 358.8 100.1 C 358.8 100.1 358.76 104.91 358.8 104.9 Z M 365.6 109.2 L 365.6 100.1 L 367 100.1 L 367 109.2 L 365.6 109.2 Z M 376.2 109.2 L 371.4 102.7 L 371.4 109.2 L 370 109.2 L 370 100.1 L 371.3 100.1 L 376.1 106.6 L 376.1 100.1 L 377.5 100.1 L 377.5 109.2 L 376.2 109.2 Z " stroke="none" fill="#535a5d"/>  </g>  <g id="Polygon40805">    <path d="M 88.3 38.4 C 88.2 38.5 88 38.6 87.8 38.8 C 87.5 38.9 87.2 39 86.8 39.1 C 86.4 39.2 86 39.3 85.6 39.4 C 85.1 39.4 84.7 39.5 84.2 39.5 C 83.1 39.5 82.1 39.3 81.2 39 C 80.3 38.7 79.6 38.3 78.9 37.7 C 78.3 37.1 77.8 36.3 77.4 35.4 C 77 34.5 76.9 33.5 76.9 32.4 C 76.9 31.3 77 30.2 77.4 29.4 C 77.8 28.5 78.3 27.7 79 27.1 C 79.6 26.5 80.4 26 81.3 25.7 C 82.2 25.4 83.3 25.2 84.4 25.2 C 85.2 25.2 86 25.3 86.8 25.5 C 87.5 25.7 88.1 25.9 88.7 26.1 C 88.6 26.3 88.5 26.6 88.4 26.9 C 88.4 27.2 88.3 27.5 88.3 27.7 C 88.3 27.7 88.2 27.7 88.2 27.7 C 88 27.6 87.8 27.4 87.6 27.2 C 87.4 27 87.1 26.8 86.8 26.6 C 86.4 26.4 86.1 26.3 85.7 26.2 C 85.3 26 84.8 26 84.4 26 C 83.6 26 82.8 26.1 82.2 26.3 C 81.5 26.6 80.9 27 80.4 27.5 C 79.9 28 79.5 28.7 79.2 29.5 C 79 30.3 78.8 31.3 78.8 32.4 C 78.8 33.5 79 34.5 79.2 35.3 C 79.5 36.1 79.9 36.7 80.4 37.3 C 80.9 37.8 81.5 38.2 82.2 38.4 C 82.8 38.7 83.6 38.8 84.4 38.8 C 84.8 38.8 85.3 38.7 85.7 38.6 C 86.1 38.5 86.5 38.4 86.8 38.2 C 87.2 38 87.5 37.9 87.7 37.7 C 88 37.5 88.2 37.3 88.4 37.1 C 88.42 37.15 88.5 37.2 88.5 37.2 L 88.3 38.4 C 88.3 38.4 88.32 38.41 88.3 38.4 Z M 91.2 32.4 C 91.2 31.3 91.4 30.2 91.8 29.4 C 92.1 28.5 92.6 27.7 93.3 27.1 C 94 26.5 94.7 26 95.7 25.7 C 96.6 25.4 97.6 25.2 98.7 25.2 C 99.8 25.2 100.8 25.4 101.7 25.7 C 102.6 26 103.4 26.5 104.1 27.1 C 104.8 27.7 105.3 28.5 105.6 29.4 C 106 30.2 106.2 31.3 106.2 32.4 C 106.2 33.5 106 34.5 105.6 35.4 C 105.3 36.3 104.8 37.1 104.1 37.7 C 103.4 38.3 102.6 38.7 101.7 39 C 100.8 39.3 99.8 39.5 98.7 39.5 C 97.6 39.5 96.6 39.3 95.7 39 C 94.7 38.7 94 38.3 93.3 37.7 C 92.6 37.1 92.1 36.3 91.8 35.4 C 91.4 34.5 91.2 33.5 91.2 32.4 Z M 104.2 32.4 C 104.2 31.3 104.1 30.3 103.8 29.5 C 103.5 28.7 103.1 28 102.6 27.5 C 102.1 27 101.5 26.6 100.9 26.3 C 100.2 26.1 99.5 26 98.7 26 C 97.9 26 97.2 26.1 96.5 26.3 C 95.8 26.6 95.3 27 94.8 27.5 C 94.3 28 93.9 28.7 93.6 29.5 C 93.3 30.3 93.2 31.3 93.2 32.4 C 93.2 33.5 93.3 34.5 93.6 35.3 C 93.9 36.1 94.3 36.7 94.8 37.3 C 95.3 37.8 95.8 38.2 96.5 38.4 C 97.2 38.7 97.9 38.8 98.7 38.8 C 99.5 38.8 100.2 38.7 100.9 38.4 C 101.5 38.2 102.1 37.8 102.6 37.3 C 103.1 36.7 103.5 36.1 103.8 35.3 C 104.1 34.5 104.2 33.5 104.2 32.4 Z M 108.5 38.9 C 109 38.2 109.6 37.5 110.1 36.6 C 110.7 35.8 111.3 35 111.9 34.1 C 112.5 33.3 113 32.5 113.6 31.7 C 114.2 30.9 114.7 30.1 115.1 29.4 C 115.6 28.8 116 28.2 116.4 27.6 C 116.7 27.1 117 26.7 117.1 26.5 C 116.9 26.5 116.7 26.4 116.4 26.4 C 116.2 26.4 116 26.4 115.7 26.4 C 115.3 26.4 114.7 26.4 114.1 26.4 C 113.6 26.5 113 26.5 112.4 26.5 C 111.8 26.6 111.2 26.6 110.7 26.6 C 110.1 26.7 109.7 26.7 109.3 26.7 C 109.4 26.5 109.4 26.3 109.4 26.1 C 109.4 25.9 109.4 25.7 109.3 25.5 C 110 25.5 111 25.6 112.4 25.6 C 113.8 25.6 115.6 25.6 117.6 25.6 C 118 25.6 118.4 25.6 118.7 25.6 C 119.1 25.5 119.4 25.5 119.8 25.5 C 119.8 25.5 119.8 25.8 119.8 25.8 C 119.5 26.1 119.1 26.6 118.7 27.2 C 118.2 27.9 117.7 28.6 117.1 29.4 C 116.5 30.2 115.9 31.1 115.3 32 C 114.6 32.9 114 33.8 113.5 34.6 C 112.9 35.4 112.4 36.2 112 36.8 C 111.6 37.5 111.2 38 111 38.3 C 111.4 38.3 111.7 38.3 111.9 38.3 C 112.2 38.3 112.4 38.3 112.7 38.3 C 113.2 38.3 113.8 38.3 114.5 38.3 C 115.1 38.3 115.8 38.3 116.5 38.2 C 117.1 38.2 117.8 38.1 118.4 38.1 C 119 38.1 119.4 38 119.8 38 C 119.8 38.1 119.7 38.2 119.7 38.3 C 119.7 38.4 119.7 38.5 119.7 38.6 C 119.7 38.8 119.7 39 119.8 39.2 C 119.3 39.2 118.9 39.2 118.5 39.2 C 118 39.2 117.7 39.2 117.3 39.2 C 116.9 39.2 116.5 39.2 116.2 39.2 C 115.8 39.2 115.5 39.2 115.1 39.2 C 114.6 39.2 114 39.2 113.3 39.2 C 112.6 39.2 112 39.2 111.4 39.2 C 110.7 39.2 110.2 39.2 109.6 39.2 C 109.1 39.2 108.7 39.2 108.5 39.2 C 108.48 39.23 108.5 38.9 108.5 38.9 C 108.5 38.9 108.48 38.95 108.5 38.9 Z M 126.5 33.6 C 126.4 33.4 126.2 33.1 126 32.6 C 125.7 32.2 125.4 31.7 125.1 31.2 C 124.8 30.7 124.4 30.1 124.1 29.5 C 123.8 28.9 123.4 28.4 123.1 27.9 C 122.8 27.3 122.5 26.9 122.3 26.4 C 122 26 121.8 25.7 121.7 25.5 C 121.9 25.5 122.1 25.5 122.2 25.6 C 122.4 25.6 122.6 25.6 122.8 25.6 C 123 25.6 123.2 25.6 123.3 25.6 C 123.5 25.5 123.7 25.5 123.9 25.5 C 124.5 26.6 125.1 27.8 125.7 28.9 C 126.3 30 127 31.2 127.7 32.4 C 128 31.9 128.3 31.4 128.6 30.8 C 129 30.3 129.3 29.7 129.6 29.1 C 130 28.5 130.3 27.9 130.6 27.3 C 130.9 26.7 131.2 26.1 131.5 25.5 C 131.8 25.6 132.1 25.6 132.2 25.6 C 132.4 25.6 132.7 25.6 133 25.5 C 132.4 26.5 131.8 27.3 131.3 28.1 C 130.8 28.9 130.3 29.6 130 30.3 C 129.6 30.9 129.2 31.5 128.9 32 C 128.6 32.5 128.4 33 128.2 33.4 C 128.2 33.9 128.2 34.4 128.2 35 C 128.2 35.5 128.2 36.1 128.2 36.6 C 128.2 37.2 128.3 37.7 128.3 38.1 C 128.3 38.6 128.3 38.9 128.3 39.2 C 128 39.2 127.7 39.2 127.4 39.2 C 127 39.2 126.7 39.2 126.4 39.2 C 126.5 38.5 126.5 37.7 126.5 36.7 C 126.5 35.7 126.5 34.7 126.5 33.6 Z M 153.3 38.4 C 153.2 38.5 153 38.6 152.8 38.8 C 152.5 38.9 152.2 39 151.8 39.1 C 151.4 39.2 151 39.3 150.6 39.4 C 150.1 39.4 149.7 39.5 149.2 39.5 C 148.1 39.5 147.1 39.3 146.2 39 C 145.3 38.7 144.6 38.3 143.9 37.7 C 143.3 37.1 142.8 36.3 142.4 35.4 C 142 34.5 141.9 33.5 141.9 32.4 C 141.9 31.3 142 30.2 142.4 29.4 C 142.8 28.5 143.3 27.7 144 27.1 C 144.6 26.5 145.4 26 146.3 25.7 C 147.2 25.4 148.3 25.2 149.4 25.2 C 150.2 25.2 151 25.3 151.8 25.5 C 152.5 25.7 153.1 25.9 153.7 26.1 C 153.6 26.3 153.5 26.6 153.4 26.9 C 153.4 27.2 153.3 27.5 153.3 27.7 C 153.3 27.7 153.2 27.7 153.2 27.7 C 153 27.6 152.8 27.4 152.6 27.2 C 152.4 27 152.1 26.8 151.8 26.6 C 151.4 26.4 151.1 26.3 150.7 26.2 C 150.3 26 149.8 26 149.4 26 C 148.6 26 147.8 26.1 147.2 26.3 C 146.5 26.6 145.9 27 145.4 27.5 C 144.9 28 144.5 28.7 144.2 29.5 C 144 30.3 143.8 31.3 143.8 32.4 C 143.8 33.5 144 34.5 144.2 35.3 C 144.5 36.1 144.9 36.7 145.4 37.3 C 145.9 37.8 146.5 38.2 147.2 38.4 C 147.8 38.7 148.6 38.8 149.4 38.8 C 149.8 38.8 150.3 38.7 150.7 38.6 C 151.1 38.5 151.5 38.4 151.8 38.2 C 152.2 38 152.5 37.9 152.7 37.7 C 153 37.5 153.2 37.3 153.4 37.1 C 153.42 37.15 153.5 37.2 153.5 37.2 L 153.3 38.4 C 153.3 38.4 153.32 38.41 153.3 38.4 Z M 167.3 30.7 C 167.3 29.8 167.3 28.9 167.3 28.1 C 167.2 27.2 167.2 26.4 167.2 25.5 C 167.3 25.5 167.5 25.5 167.7 25.6 C 167.8 25.6 168 25.6 168.1 25.6 C 168.3 25.6 168.5 25.6 168.6 25.6 C 168.8 25.5 168.9 25.5 169.1 25.5 C 169.1 26.4 169 27.2 169 28.1 C 169 28.9 169 29.8 169 30.7 C 169 30.7 169 34.1 169 34.1 C 169 35 169 35.9 169 36.7 C 169 37.6 169.1 38.4 169.1 39.2 C 168.8 39.2 168.5 39.2 168.1 39.2 C 167.8 39.2 167.5 39.2 167.2 39.2 C 167.2 38.4 167.2 37.6 167.3 36.7 C 167.3 35.9 167.3 35 167.3 34.1 C 167.3 34.1 167.3 32.3 167.3 32.3 C 166.6 32.3 165.9 32.3 165.2 32.3 C 164.6 32.3 163.9 32.3 163.1 32.3 C 162.4 32.3 161.7 32.3 161.1 32.3 C 160.4 32.3 159.7 32.3 159 32.3 C 159 32.3 159 34.1 159 34.1 C 159 35 159 35.9 159 36.7 C 159 37.6 159.1 38.4 159.1 39.2 C 158.8 39.2 158.5 39.2 158.1 39.2 C 157.8 39.2 157.5 39.2 157.2 39.2 C 157.2 38.4 157.2 37.6 157.3 36.7 C 157.3 35.9 157.3 35 157.3 34.1 C 157.3 34.1 157.3 30.7 157.3 30.7 C 157.3 29.8 157.3 28.9 157.3 28.1 C 157.2 27.2 157.2 26.4 157.2 25.5 C 157.3 25.5 157.5 25.5 157.7 25.6 C 157.8 25.6 158 25.6 158.1 25.6 C 158.3 25.6 158.5 25.6 158.6 25.6 C 158.8 25.5 158.9 25.5 159.1 25.5 C 159.1 26.4 159 27.2 159 28.1 C 159 28.9 159 29.8 159 30.7 C 159 30.7 159 31.4 159 31.4 C 159.7 31.4 160.4 31.4 161.1 31.4 C 161.7 31.4 162.4 31.4 163.1 31.4 C 163.9 31.4 164.6 31.4 165.2 31.4 C 165.9 31.4 166.6 31.4 167.3 31.4 C 167.32 31.37 167.3 30.7 167.3 30.7 C 167.3 30.7 167.32 30.67 167.3 30.7 Z M 176.1 33 C 176.4 33 176.8 33 177.1 33 C 177.5 33 177.9 33 178.2 33 C 178.6 33 179 33 179.3 33 C 179.7 33 180.1 33 180.5 33 C 180.46 33.01 178.2 27.9 178.2 27.9 C 178.2 27.9 176.06 33.01 176.1 33 Z M 184.9 39.2 C 184.7 39.2 184.6 39.2 184.4 39.2 C 184.2 39.2 184 39.2 183.9 39.2 C 183.7 39.2 183.5 39.2 183.3 39.2 C 183.2 39.2 183 39.2 182.8 39.2 C 182.7 38.9 182.6 38.6 182.4 38.1 C 182.3 37.7 182.1 37.2 181.9 36.8 C 181.7 36.3 181.5 35.8 181.3 35.3 C 181.1 34.8 180.9 34.4 180.7 33.9 C 180.3 33.9 179.9 33.9 179.4 33.9 C 179 33.9 178.6 33.9 178.1 33.9 C 177.7 33.9 177.3 33.9 176.9 33.9 C 176.5 33.9 176.1 33.9 175.7 33.9 C 175.3 35 174.9 36 174.5 36.9 C 174.2 37.8 173.9 38.6 173.7 39.2 C 173.5 39.2 173.3 39.2 173 39.2 C 172.7 39.2 172.5 39.2 172.3 39.2 C 173.3 36.9 174.4 34.6 175.4 32.3 C 176.4 30 177.5 27.6 178.5 25.2 C 178.5 25.2 178.9 25.2 178.9 25.2 C 179.2 26 179.6 26.8 179.9 27.7 C 180.3 28.6 180.7 29.5 181.1 30.5 C 181.5 31.4 181.9 32.3 182.2 33.2 C 182.6 34.1 183 35 183.3 35.7 C 183.7 36.5 184 37.2 184.3 37.8 C 184.5 38.4 184.7 38.9 184.9 39.2 Z M 188.2 30.7 C 188.2 29.8 188.2 28.9 188.2 28.1 C 188.1 27.2 188.1 26.4 188.1 25.5 C 188.4 25.5 188.8 25.5 189.2 25.6 C 189.6 25.6 190 25.6 190.3 25.6 C 190.7 25.6 191.1 25.6 191.5 25.5 C 191.9 25.5 192.2 25.5 192.6 25.5 C 193.2 25.5 193.7 25.5 194.2 25.6 C 194.7 25.8 195.2 25.9 195.5 26.2 C 195.9 26.4 196.2 26.7 196.4 27.1 C 196.7 27.5 196.8 28 196.8 28.6 C 196.8 29.3 196.6 29.8 196.3 30.3 C 196.1 30.8 195.7 31.1 195.3 31.4 C 194.9 31.7 194.4 32 194 32.1 C 193.5 32.3 193.1 32.4 192.7 32.5 C 192.8 32.7 193.1 32.9 193.3 33.3 C 193.6 33.7 193.9 34.1 194.3 34.5 C 194.6 34.9 195 35.4 195.4 35.9 C 195.7 36.3 196.1 36.8 196.4 37.2 C 196.8 37.7 197.1 38 197.4 38.4 C 197.7 38.8 198 39 198.2 39.2 C 198 39.2 197.8 39.2 197.6 39.2 C 197.4 39.2 197.2 39.2 197 39.2 C 196.8 39.2 196.6 39.2 196.4 39.2 C 196.2 39.2 196 39.2 195.8 39.2 C 195.6 38.9 195.3 38.5 194.9 38 C 194.5 37.4 194 36.8 193.5 36.2 C 193 35.5 192.5 34.9 192 34.3 C 191.5 33.6 191 33.1 190.6 32.6 C 190.62 32.65 189.9 32.6 189.9 32.6 C 189.9 32.6 189.86 34.11 189.9 34.1 C 189.9 35 189.9 35.9 189.9 36.7 C 189.9 37.6 190 38.4 190 39.2 C 189.7 39.2 189.4 39.2 189 39.2 C 188.7 39.2 188.4 39.2 188.1 39.2 C 188.1 38.4 188.1 37.6 188.2 36.7 C 188.2 35.9 188.2 35 188.2 34.1 C 188.2 34.1 188.2 30.7 188.2 30.7 Z M 189.9 31.8 C 190 31.8 190.2 31.9 190.5 31.9 C 190.7 31.9 190.9 31.9 191.2 31.9 C 191.6 31.9 192 31.9 192.5 31.8 C 192.9 31.7 193.3 31.5 193.7 31.3 C 194.1 31 194.4 30.7 194.6 30.3 C 194.9 29.9 195 29.4 195 28.8 C 195 28.3 194.9 27.9 194.7 27.6 C 194.5 27.2 194.3 26.9 194 26.7 C 193.7 26.5 193.3 26.4 193 26.3 C 192.6 26.3 192.3 26.2 191.9 26.2 C 191.5 26.2 191.1 26.2 190.8 26.3 C 190.5 26.3 190.2 26.3 190 26.3 C 190 27.1 189.9 27.8 189.9 28.5 C 189.9 29.2 189.9 29.9 189.9 30.7 C 189.9 30.7 189.9 31.8 189.9 31.8 Z M 202.7 25.2 C 203.6 27.1 204.6 29 205.5 30.7 C 206.4 32.5 207.4 34.4 208.5 36.2 C 208.6 36 208.8 35.6 209 35.2 C 209.3 34.7 209.6 34.1 209.9 33.5 C 210.3 32.9 210.6 32.3 211 31.5 C 211.4 30.8 211.8 30.1 212.1 29.4 C 212.5 28.6 212.9 27.9 213.3 27.2 C 213.7 26.5 214.1 25.8 214.4 25.2 C 214.4 25.2 214.7 25.2 214.7 25.2 C 214.8 26.5 214.9 27.7 215.1 28.9 C 215.2 30.1 215.3 31.3 215.5 32.5 C 215.6 33.6 215.7 34.8 215.9 35.9 C 216 37 216.1 38.1 216.3 39.2 C 216.1 39.2 216 39.2 215.8 39.2 C 215.7 39.2 215.5 39.2 215.4 39.2 C 215.2 39.2 215 39.2 214.9 39.2 C 214.7 39.2 214.6 39.2 214.4 39.2 C 214.3 37.5 214.1 35.7 214 34.1 C 213.8 32.4 213.7 30.7 213.4 29 C 213.4 29 213.4 29 213.4 29 C 212.5 30.6 211.6 32.3 210.7 34 C 209.8 35.6 209 37.4 208.2 39.2 C 208.2 39.2 208 39.2 208 39.2 C 207.2 37.5 206.3 35.8 205.5 34.1 C 204.6 32.5 203.7 30.7 202.8 29 C 202.8 29 202.8 29 202.8 29 C 202.7 29.8 202.6 30.7 202.5 31.7 C 202.4 32.6 202.3 33.6 202.2 34.5 C 202.1 35.5 202 36.3 201.9 37.2 C 201.9 38 201.8 38.7 201.8 39.2 C 201.6 39.2 201.4 39.2 201.1 39.2 C 200.9 39.2 200.7 39.2 200.4 39.2 C 200.6 38.1 200.8 37 201 35.8 C 201.2 34.6 201.3 33.4 201.5 32.2 C 201.7 31 201.9 29.8 202 28.6 C 202.1 27.4 202.3 26.3 202.4 25.2 C 202.38 25.23 202.7 25.2 202.7 25.2 C 202.7 25.2 202.72 25.23 202.7 25.2 Z M 226.8 30.7 C 226.8 29.8 226.8 28.9 226.7 28.1 C 226.7 27.2 226.7 26.4 226.6 25.5 C 226.8 25.5 227 25.5 227.1 25.6 C 227.3 25.6 227.4 25.6 227.6 25.6 C 227.8 25.6 227.9 25.6 228.1 25.6 C 228.2 25.5 228.4 25.5 228.6 25.5 C 228.5 26.4 228.5 27.2 228.5 28.1 C 228.4 28.9 228.4 29.8 228.4 30.7 C 228.4 30.7 228.4 34.1 228.4 34.1 C 228.4 35 228.4 35.9 228.5 36.7 C 228.5 37.6 228.5 38.4 228.6 39.2 C 228.3 39.2 227.9 39.2 227.6 39.2 C 227.3 39.2 226.9 39.2 226.6 39.2 C 226.7 38.4 226.7 37.6 226.7 36.7 C 226.8 35.9 226.8 35 226.8 34.1 C 226.78 34.11 226.8 30.7 226.8 30.7 C 226.8 30.7 226.78 30.67 226.8 30.7 Z M 244.6 39.5 C 243.1 37.7 241.4 35.9 239.7 34 C 238 32.2 236.2 30.3 234.5 28.5 C 234.5 28.9 234.5 29.4 234.5 30 C 234.4 30.6 234.4 31.5 234.4 32.5 C 234.4 32.8 234.4 33.2 234.4 33.6 C 234.5 34 234.5 34.4 234.5 34.9 C 234.5 35.3 234.5 35.8 234.5 36.3 C 234.5 36.7 234.5 37.2 234.5 37.6 C 234.6 38 234.6 38.3 234.6 38.6 C 234.6 38.9 234.6 39.1 234.6 39.2 C 234.4 39.2 234.2 39.2 233.9 39.2 C 233.7 39.2 233.4 39.2 233.2 39.2 C 233.2 39.1 233.2 38.8 233.3 38.5 C 233.3 38.1 233.3 37.7 233.4 37.2 C 233.4 36.7 233.4 36.2 233.4 35.6 C 233.5 35 233.5 34.4 233.5 33.8 C 233.5 33.2 233.6 32.6 233.6 32.1 C 233.6 31.5 233.6 31 233.6 30.6 C 233.6 29.3 233.6 28.2 233.6 27.3 C 233.6 26.4 233.6 25.7 233.5 25.2 C 233.5 25.2 233.9 25.2 233.9 25.2 C 234.7 26.1 235.5 27.1 236.5 28.1 C 237.4 29.1 238.3 30.1 239.2 31 C 240.1 32 241 32.9 241.8 33.8 C 242.6 34.7 243.4 35.4 244 36 C 244 36 244 33.3 244 33.3 C 244 31.9 244 30.6 243.9 29.2 C 243.9 27.9 243.9 26.7 243.8 25.5 C 244.1 25.6 244.3 25.6 244.5 25.6 C 244.7 25.6 244.9 25.6 245.1 25.5 C 245.1 25.8 245.1 26.2 245 26.8 C 245 27.4 245 28 244.9 28.7 C 244.9 29.4 244.9 30 244.9 30.6 C 244.8 31.3 244.8 31.8 244.8 32.2 C 244.8 32.5 244.8 32.9 244.8 33.4 C 244.8 33.8 244.8 34.3 244.8 34.8 C 244.8 35.3 244.8 35.8 244.8 36.3 C 244.9 36.8 244.9 37.3 244.9 37.7 C 244.9 38.1 244.9 38.5 244.9 38.8 C 244.9 39.1 244.9 39.3 244.9 39.5 C 244.88 39.49 244.6 39.5 244.6 39.5 C 244.6 39.5 244.6 39.49 244.6 39.5 Z M 267.7 39.5 C 266.2 37.7 264.6 35.9 262.8 34 C 261.1 32.2 259.4 30.3 257.6 28.5 C 257.6 28.9 257.6 29.4 257.6 30 C 257.6 30.6 257.6 31.5 257.6 32.5 C 257.6 32.8 257.6 33.2 257.6 33.6 C 257.6 34 257.6 34.4 257.6 34.9 C 257.6 35.3 257.6 35.8 257.6 36.3 C 257.6 36.7 257.6 37.2 257.7 37.6 C 257.7 38 257.7 38.3 257.7 38.6 C 257.7 38.9 257.7 39.1 257.7 39.2 C 257.5 39.2 257.3 39.2 257 39.2 C 256.8 39.2 256.5 39.2 256.3 39.2 C 256.3 39.1 256.4 38.8 256.4 38.5 C 256.4 38.1 256.5 37.7 256.5 37.2 C 256.5 36.7 256.5 36.2 256.6 35.6 C 256.6 35 256.6 34.4 256.6 33.8 C 256.7 33.2 256.7 32.6 256.7 32.1 C 256.7 31.5 256.7 31 256.7 30.6 C 256.7 29.3 256.7 28.2 256.7 27.3 C 256.7 26.4 256.7 25.7 256.7 25.2 C 256.7 25.2 257 25.2 257 25.2 C 257.8 26.1 258.7 27.1 259.6 28.1 C 260.5 29.1 261.4 30.1 262.3 31 C 263.3 32 264.1 32.9 264.9 33.8 C 265.8 34.7 266.5 35.4 267.1 36 C 267.1 36 267.1 33.3 267.1 33.3 C 267.1 31.9 267.1 30.6 267.1 29.2 C 267 27.9 267 26.7 266.9 25.5 C 267.2 25.6 267.4 25.6 267.6 25.6 C 267.8 25.6 268 25.6 268.3 25.5 C 268.2 25.8 268.2 26.2 268.2 26.8 C 268.1 27.4 268.1 28 268.1 28.7 C 268 29.4 268 30 268 30.6 C 268 31.3 267.9 31.8 267.9 32.2 C 267.9 32.5 267.9 32.9 267.9 33.4 C 267.9 33.8 267.9 34.3 267.9 34.8 C 268 35.3 268 35.8 268 36.3 C 268 36.8 268 37.3 268 37.7 C 268 38.1 268 38.5 268 38.8 C 268 39.1 268 39.3 268 39.5 C 268 39.49 267.7 39.5 267.7 39.5 C 267.7 39.5 267.72 39.49 267.7 39.5 Z M 273 30.6 C 273 29.8 273 28.9 273 28 C 272.9 27.2 272.9 26.3 272.9 25.5 C 273.5 25.5 274.1 25.5 274.6 25.6 C 275.2 25.6 275.8 25.6 276.4 25.6 C 277 25.6 277.6 25.6 278.2 25.6 C 278.8 25.5 279.4 25.5 280 25.5 C 280 25.7 279.9 25.9 279.9 26.1 C 279.9 26.3 280 26.5 280 26.7 C 279.6 26.7 279.2 26.6 278.8 26.6 C 278.5 26.6 278.1 26.6 277.7 26.5 C 277.3 26.5 276.9 26.5 276.4 26.5 C 276 26.4 275.4 26.4 274.7 26.4 C 274.7 26.9 274.7 27.3 274.7 27.6 C 274.7 28 274.7 28.5 274.7 29 C 274.7 29.5 274.7 30 274.7 30.5 C 274.7 31 274.7 31.4 274.7 31.6 C 275.3 31.6 275.8 31.6 276.3 31.6 C 276.7 31.6 277.2 31.6 277.5 31.5 C 277.9 31.5 278.3 31.5 278.6 31.5 C 278.9 31.5 279.2 31.4 279.5 31.4 C 279.5 31.6 279.5 31.8 279.5 32 C 279.5 32.2 279.5 32.4 279.5 32.6 C 279.2 32.6 278.8 32.6 278.3 32.5 C 277.9 32.5 277.4 32.5 276.9 32.5 C 276.5 32.5 276.1 32.5 275.6 32.5 C 275.2 32.5 274.9 32.4 274.7 32.4 C 274.7 32.6 274.7 32.7 274.7 32.8 C 274.7 33 274.7 33.2 274.7 33.4 C 274.66 33.37 274.7 34.1 274.7 34.1 C 274.7 34.1 274.66 35.35 274.7 35.3 C 274.7 36.1 274.7 36.7 274.7 37.2 C 274.7 37.7 274.7 38.1 274.7 38.3 C 275.1 38.3 275.6 38.3 276.1 38.3 C 276.6 38.3 277.1 38.3 277.6 38.3 C 278.1 38.3 278.5 38.3 279 38.2 C 279.4 38.2 279.8 38.2 280.1 38.1 C 280.1 38.2 280.1 38.3 280 38.4 C 280 38.5 280 38.6 280 38.7 C 280 38.9 280.1 39.1 280.1 39.2 C 279.5 39.2 278.9 39.2 278.3 39.2 C 277.7 39.2 277.1 39.2 276.5 39.2 C 275.9 39.2 275.3 39.2 274.7 39.2 C 274.1 39.2 273.5 39.2 272.9 39.2 C 272.9 38.4 272.9 37.5 273 36.7 C 273 35.8 273 35 273 34.1 C 273.02 34.09 273 30.6 273 30.6 C 273 30.6 273.02 30.65 273 30.6 Z M 294.4 32 C 294.4 30.1 294.4 28.6 294.4 27.6 C 294.4 26.6 294.4 25.9 294.3 25.5 C 294.5 25.5 294.6 25.5 294.7 25.6 C 294.9 25.6 295 25.6 295.1 25.6 C 295.3 25.6 295.5 25.6 295.7 25.5 C 295.7 26 295.7 26.5 295.6 27.2 C 295.6 27.8 295.5 28.5 295.5 29.2 C 295.5 30 295.5 30.7 295.4 31.5 C 295.4 32.3 295.4 33.1 295.4 33.8 C 295.4 34.7 295.2 35.5 295 36.2 C 294.7 36.9 294.3 37.5 293.9 38 C 293.4 38.5 292.8 38.9 292.1 39.1 C 291.4 39.4 290.6 39.5 289.7 39.5 C 287.7 39.5 286.2 39 285.3 38.1 C 284.4 37.2 284 35.8 284 33.8 C 284 33.2 284 32.6 284 32.2 C 284 31.7 284.1 31.2 284.1 30.7 C 284.1 29.5 284 28.6 284 27.7 C 284 26.8 284 26.1 283.9 25.5 C 284.1 25.5 284.3 25.5 284.5 25.6 C 284.6 25.6 284.8 25.6 285 25.6 C 285.1 25.6 285.3 25.6 285.4 25.6 C 285.5 25.5 285.7 25.5 285.8 25.5 C 285.8 25.8 285.8 26.2 285.8 26.6 C 285.7 27.1 285.7 27.6 285.7 28.2 C 285.7 28.8 285.6 29.5 285.6 30.2 C 285.6 30.9 285.6 31.6 285.6 32.3 C 285.6 32.8 285.6 33.3 285.6 33.8 C 285.6 34.2 285.7 34.7 285.8 35.2 C 285.8 35.6 286 36.1 286.1 36.5 C 286.3 36.9 286.6 37.3 286.9 37.6 C 287.3 37.9 287.7 38.2 288.2 38.3 C 288.7 38.5 289.3 38.6 290.1 38.6 C 290.8 38.6 291.4 38.5 291.9 38.3 C 292.4 38.1 292.8 37.8 293.1 37.4 C 293.5 37.1 293.7 36.7 293.9 36.2 C 294.1 35.8 294.2 35.3 294.3 34.8 C 294.4 34.3 294.4 33.8 294.4 33.3 C 294.4 32.9 294.4 32.4 294.4 32 Z M 303.4 30.7 C 303.4 29.3 303.3 27.9 303.3 26.5 C 303 26.5 302.6 26.5 302.2 26.5 C 301.8 26.5 301.4 26.6 301.1 26.6 C 300.7 26.6 300.3 26.6 300 26.6 C 299.6 26.7 299.3 26.7 299 26.7 C 299.1 26.5 299.1 26.3 299.1 26.1 C 299.1 26 299.1 25.8 299 25.5 C 299.9 25.5 300.8 25.5 301.6 25.6 C 302.4 25.6 303.3 25.6 304.2 25.6 C 305.1 25.6 305.9 25.6 306.8 25.6 C 307.6 25.5 308.5 25.5 309.3 25.5 C 309.3 25.8 309.2 26 309.2 26.1 C 309.2 26.3 309.3 26.5 309.3 26.7 C 309.1 26.7 308.7 26.7 308.4 26.6 C 308 26.6 307.7 26.6 307.3 26.6 C 306.9 26.6 306.5 26.5 306.1 26.5 C 305.8 26.5 305.4 26.5 305.1 26.5 C 305 27.9 305 29.3 305 30.7 C 305 30.7 305 34.1 305 34.1 C 305 35 305 35.9 305 36.7 C 305.1 37.6 305.1 38.4 305.2 39.2 C 304.9 39.2 304.5 39.2 304.2 39.2 C 303.8 39.2 303.5 39.2 303.2 39.2 C 303.2 38.4 303.3 37.6 303.3 36.7 C 303.3 35.9 303.4 35 303.4 34.1 C 303.36 34.11 303.4 30.7 303.4 30.7 C 303.4 30.7 303.36 30.67 303.4 30.7 Z M 312.7 30.7 C 312.7 29.8 312.7 28.9 312.6 28.1 C 312.6 27.2 312.6 26.4 312.5 25.5 C 312.9 25.5 313.3 25.5 313.7 25.6 C 314.1 25.6 314.4 25.6 314.8 25.6 C 315.2 25.6 315.6 25.6 316 25.5 C 316.3 25.5 316.7 25.5 317.1 25.5 C 317.7 25.5 318.2 25.5 318.7 25.6 C 319.2 25.8 319.6 25.9 320 26.2 C 320.4 26.4 320.7 26.7 320.9 27.1 C 321.1 27.5 321.3 28 321.3 28.6 C 321.3 29.3 321.1 29.8 320.8 30.3 C 320.5 30.8 320.2 31.1 319.8 31.4 C 319.4 31.7 318.9 32 318.4 32.1 C 318 32.3 317.5 32.4 317.2 32.5 C 317.3 32.7 317.5 32.9 317.8 33.3 C 318.1 33.7 318.4 34.1 318.8 34.5 C 319.1 34.9 319.5 35.4 319.8 35.9 C 320.2 36.3 320.6 36.8 320.9 37.2 C 321.3 37.7 321.6 38 321.9 38.4 C 322.2 38.8 322.5 39 322.6 39.2 C 322.4 39.2 322.2 39.2 322 39.2 C 321.8 39.2 321.6 39.2 321.4 39.2 C 321.3 39.2 321.1 39.2 320.9 39.2 C 320.7 39.2 320.5 39.2 320.3 39.2 C 320.1 38.9 319.8 38.5 319.4 38 C 319 37.4 318.5 36.8 318 36.2 C 317.5 35.5 317 34.9 316.5 34.3 C 316 33.6 315.5 33.1 315.1 32.6 C 315.1 32.65 314.3 32.6 314.3 32.6 C 314.3 32.6 314.34 34.11 314.3 34.1 C 314.3 35 314.4 35.9 314.4 36.7 C 314.4 37.6 314.5 38.4 314.5 39.2 C 314.2 39.2 313.9 39.2 313.5 39.2 C 313.2 39.2 312.8 39.2 312.5 39.2 C 312.6 38.4 312.6 37.6 312.6 36.7 C 312.7 35.9 312.7 35 312.7 34.1 C 312.7 34.1 312.7 30.7 312.7 30.7 Z M 314.3 31.8 C 314.5 31.8 314.7 31.9 314.9 31.9 C 315.2 31.9 315.4 31.9 315.7 31.9 C 316.1 31.9 316.5 31.9 317 31.8 C 317.4 31.7 317.8 31.5 318.2 31.3 C 318.6 31 318.9 30.7 319.1 30.3 C 319.4 29.9 319.5 29.4 319.5 28.8 C 319.5 28.3 319.4 27.9 319.2 27.6 C 319 27.2 318.8 26.9 318.5 26.7 C 318.2 26.5 317.8 26.4 317.5 26.3 C 317.1 26.3 316.7 26.2 316.4 26.2 C 315.9 26.2 315.5 26.2 315.2 26.3 C 314.9 26.3 314.7 26.3 314.5 26.3 C 314.4 27.1 314.4 27.8 314.4 28.5 C 314.4 29.2 314.3 29.9 314.3 30.7 C 314.3 30.7 314.3 31.8 314.3 31.8 Z M 328.1 33 C 328.4 33 328.8 33 329.2 33 C 329.6 33 329.9 33 330.3 33 C 330.6 33 331 33 331.4 33 C 331.8 33 332.1 33 332.5 33 C 332.5 33.01 330.3 27.9 330.3 27.9 C 330.3 27.9 328.1 33.01 328.1 33 Z M 337 39.2 C 336.8 39.2 336.6 39.2 336.4 39.2 C 336.3 39.2 336.1 39.2 335.9 39.2 C 335.7 39.2 335.5 39.2 335.4 39.2 C 335.2 39.2 335 39.2 334.8 39.2 C 334.7 38.9 334.6 38.6 334.5 38.1 C 334.3 37.7 334.1 37.2 333.9 36.8 C 333.7 36.3 333.5 35.8 333.3 35.3 C 333.1 34.8 333 34.4 332.8 33.9 C 332.4 33.9 331.9 33.9 331.5 33.9 C 331 33.9 330.6 33.9 330.2 33.9 C 329.7 33.9 329.3 33.9 328.9 33.9 C 328.5 33.9 328.1 33.9 327.7 33.9 C 327.3 35 326.9 36 326.6 36.9 C 326.2 37.8 326 38.6 325.8 39.2 C 325.6 39.2 325.3 39.2 325 39.2 C 324.8 39.2 324.5 39.2 324.3 39.2 C 325.4 36.9 326.4 34.6 327.5 32.3 C 328.5 30 329.5 27.6 330.6 25.2 C 330.6 25.2 330.9 25.2 330.9 25.2 C 331.3 26 331.6 26.8 332 27.7 C 332.4 28.6 332.7 29.5 333.1 30.5 C 333.5 31.4 333.9 32.3 334.3 33.2 C 334.7 34.1 335 35 335.4 35.7 C 335.7 36.5 336 37.2 336.3 37.8 C 336.6 38.4 336.8 38.9 337 39.2 Z M 340.3 30.7 C 340.3 29.8 340.2 28.9 340.2 28.1 C 340.2 27.2 340.1 26.4 340.1 25.5 C 340.3 25.5 340.4 25.5 340.6 25.6 C 340.8 25.6 340.9 25.6 341.1 25.6 C 341.2 25.6 341.4 25.6 341.6 25.6 C 341.7 25.5 341.9 25.5 342.1 25.5 C 342 26.4 342 27.2 341.9 28.1 C 341.9 28.9 341.9 29.8 341.9 30.7 C 341.9 32.3 341.9 33.8 341.9 35 C 341.9 36.3 341.9 37.4 342 38.3 C 342.9 38.3 343.8 38.3 344.7 38.3 C 345.5 38.3 346.5 38.2 347.5 38.1 C 347.4 38.3 347.4 38.5 347.4 38.7 C 347.4 38.8 347.4 39 347.5 39.2 C 346.9 39.2 346.3 39.2 345.6 39.2 C 345 39.2 344.4 39.2 343.8 39.2 C 343.2 39.2 342.5 39.2 341.9 39.2 C 341.4 39.2 340.7 39.2 340.1 39.2 C 340.1 38.4 340.2 37.6 340.2 36.7 C 340.2 35.9 340.3 35 340.3 34.1 C 340.26 34.11 340.3 30.7 340.3 30.7 C 340.3 30.7 340.26 30.67 340.3 30.7 Z M 367.8 30.7 C 367.8 29.8 367.8 28.9 367.8 28.1 C 367.7 27.2 367.7 26.4 367.7 25.5 C 367.8 25.5 368 25.5 368.2 25.6 C 368.3 25.6 368.5 25.6 368.6 25.6 C 368.8 25.6 369 25.6 369.1 25.6 C 369.3 25.5 369.4 25.5 369.6 25.5 C 369.6 26.4 369.5 27.2 369.5 28.1 C 369.5 28.9 369.5 29.8 369.5 30.7 C 369.5 30.7 369.5 34.1 369.5 34.1 C 369.5 35 369.5 35.9 369.5 36.7 C 369.5 37.6 369.6 38.4 369.6 39.2 C 369.3 39.2 369 39.2 368.6 39.2 C 368.3 39.2 368 39.2 367.7 39.2 C 367.7 38.4 367.7 37.6 367.8 36.7 C 367.8 35.9 367.8 35 367.8 34.1 C 367.8 34.1 367.8 32.3 367.8 32.3 C 367.1 32.3 366.4 32.3 365.7 32.3 C 365.1 32.3 364.4 32.3 363.6 32.3 C 362.9 32.3 362.2 32.3 361.5 32.3 C 360.9 32.3 360.2 32.3 359.5 32.3 C 359.5 32.3 359.5 34.1 359.5 34.1 C 359.5 35 359.5 35.9 359.5 36.7 C 359.5 37.6 359.6 38.4 359.6 39.2 C 359.3 39.2 359 39.2 358.6 39.2 C 358.3 39.2 358 39.2 357.7 39.2 C 357.7 38.4 357.7 37.6 357.8 36.7 C 357.8 35.9 357.8 35 357.8 34.1 C 357.8 34.1 357.8 30.7 357.8 30.7 C 357.8 29.8 357.8 28.9 357.8 28.1 C 357.7 27.2 357.7 26.4 357.7 25.5 C 357.8 25.5 358 25.5 358.2 25.6 C 358.3 25.6 358.5 25.6 358.6 25.6 C 358.8 25.6 359 25.6 359.1 25.6 C 359.3 25.5 359.4 25.5 359.6 25.5 C 359.6 26.4 359.5 27.2 359.5 28.1 C 359.5 28.9 359.5 29.8 359.5 30.7 C 359.5 30.7 359.5 31.4 359.5 31.4 C 360.2 31.4 360.9 31.4 361.5 31.4 C 362.2 31.4 362.9 31.4 363.6 31.4 C 364.4 31.4 365.1 31.4 365.7 31.4 C 366.4 31.4 367.1 31.4 367.8 31.4 C 367.82 31.37 367.8 30.7 367.8 30.7 C 367.8 30.7 367.82 30.67 367.8 30.7 Z M 384.8 32 C 384.8 30.1 384.8 28.6 384.8 27.6 C 384.8 26.6 384.7 25.9 384.7 25.5 C 384.8 25.5 385 25.5 385.1 25.6 C 385.2 25.6 385.4 25.6 385.5 25.6 C 385.7 25.6 385.9 25.6 386.1 25.5 C 386.1 26 386 26.5 386 27.2 C 385.9 27.8 385.9 28.5 385.9 29.2 C 385.9 30 385.8 30.7 385.8 31.5 C 385.8 32.3 385.8 33.1 385.7 33.8 C 385.7 34.7 385.6 35.5 385.3 36.2 C 385.1 36.9 384.7 37.5 384.2 38 C 383.7 38.5 383.1 38.9 382.4 39.1 C 381.7 39.4 380.9 39.5 380 39.5 C 378 39.5 376.6 39 375.7 38.1 C 374.8 37.2 374.3 35.8 374.3 33.8 C 374.3 33.2 374.3 32.6 374.4 32.2 C 374.4 31.7 374.4 31.2 374.4 30.7 C 374.4 29.5 374.4 28.6 374.4 27.7 C 374.4 26.8 374.3 26.1 374.3 25.5 C 374.5 25.5 374.6 25.5 374.8 25.6 C 375 25.6 375.2 25.6 375.3 25.6 C 375.5 25.6 375.6 25.6 375.8 25.6 C 375.9 25.5 376.1 25.5 376.2 25.5 C 376.2 25.8 376.1 26.2 376.1 26.6 C 376.1 27.1 376.1 27.6 376 28.2 C 376 28.8 376 29.5 376 30.2 C 376 30.9 376 31.6 376 32.3 C 376 32.8 376 33.3 376 33.8 C 376 34.2 376 34.7 376.1 35.2 C 376.2 35.6 376.3 36.1 376.5 36.5 C 376.7 36.9 376.9 37.3 377.3 37.6 C 377.6 37.9 378 38.2 378.5 38.3 C 379 38.5 379.7 38.6 380.4 38.6 C 381.2 38.6 381.8 38.5 382.3 38.3 C 382.8 38.1 383.2 37.8 383.5 37.4 C 383.8 37.1 384.1 36.7 384.2 36.2 C 384.4 35.8 384.6 35.3 384.6 34.8 C 384.7 34.3 384.8 33.8 384.8 33.3 C 384.8 32.9 384.8 32.4 384.8 32 Z M 390.9 30.6 C 390.9 29.8 390.9 28.9 390.9 28 C 390.9 27.2 390.8 26.3 390.8 25.5 C 391.4 25.5 392 25.5 392.6 25.6 C 393.2 25.6 393.8 25.6 394.4 25.6 C 395 25.6 395.6 25.6 396.1 25.6 C 396.7 25.5 397.3 25.5 397.9 25.5 C 397.9 25.7 397.9 25.9 397.9 26.1 C 397.9 26.3 397.9 26.5 397.9 26.7 C 397.5 26.7 397.1 26.6 396.7 26.6 C 396.4 26.6 396 26.6 395.6 26.5 C 395.2 26.5 394.8 26.5 394.3 26.5 C 393.9 26.4 393.3 26.4 392.7 26.4 C 392.6 26.9 392.6 27.3 392.6 27.6 C 392.6 28 392.6 28.5 392.6 29 C 392.6 29.5 392.6 30 392.6 30.5 C 392.6 31 392.6 31.4 392.6 31.6 C 393.2 31.6 393.7 31.6 394.2 31.6 C 394.6 31.6 395.1 31.6 395.5 31.5 C 395.8 31.5 396.2 31.5 396.5 31.5 C 396.9 31.5 397.2 31.4 397.5 31.4 C 397.4 31.6 397.4 31.8 397.4 32 C 397.4 32.2 397.4 32.4 397.5 32.6 C 397.1 32.6 396.7 32.6 396.2 32.5 C 395.8 32.5 395.3 32.5 394.9 32.5 C 394.4 32.5 394 32.5 393.6 32.5 C 393.2 32.5 392.8 32.4 392.6 32.4 C 392.6 32.6 392.6 32.7 392.6 32.8 C 392.6 33 392.6 33.2 392.6 33.4 C 392.58 33.37 392.6 34.1 392.6 34.1 C 392.6 34.1 392.58 35.35 392.6 35.3 C 392.6 36.1 392.6 36.7 392.6 37.2 C 392.6 37.7 392.6 38.1 392.6 38.3 C 393.1 38.3 393.5 38.3 394 38.3 C 394.5 38.3 395 38.3 395.5 38.3 C 396 38.3 396.5 38.3 396.9 38.2 C 397.3 38.2 397.7 38.2 398 38.1 C 398 38.2 398 38.3 398 38.4 C 398 38.5 398 38.6 398 38.7 C 398 38.9 398 39.1 398 39.2 C 397.4 39.2 396.8 39.2 396.2 39.2 C 395.6 39.2 395 39.2 394.4 39.2 C 393.8 39.2 393.2 39.2 392.6 39.2 C 392 39.2 391.4 39.2 390.8 39.2 C 390.8 38.4 390.9 37.5 390.9 36.7 C 390.9 35.8 390.9 35 390.9 34.1 C 390.94 34.09 390.9 30.6 390.9 30.6 C 390.9 30.6 390.94 30.65 390.9 30.6 Z M 401.5 36.6 C 401.6 36.9 401.7 37.1 401.9 37.4 C 402.1 37.6 402.3 37.8 402.6 38 C 402.8 38.2 403.2 38.4 403.5 38.5 C 403.8 38.6 404.2 38.7 404.7 38.7 C 405.1 38.7 405.5 38.6 405.8 38.5 C 406.2 38.3 406.5 38.1 406.7 37.9 C 407 37.6 407.2 37.3 407.3 36.9 C 407.5 36.6 407.5 36.2 407.5 35.8 C 407.5 35.2 407.4 34.7 407 34.3 C 406.7 34 406.3 33.7 405.9 33.4 C 405.4 33.2 404.9 33 404.4 32.8 C 403.8 32.6 403.3 32.3 402.9 32 C 402.4 31.7 402 31.4 401.7 30.9 C 401.4 30.4 401.2 29.8 401.2 29 C 401.2 28.4 401.3 27.9 401.5 27.5 C 401.7 27 402 26.6 402.4 26.3 C 402.8 26 403.2 25.7 403.8 25.5 C 404.3 25.3 404.9 25.2 405.6 25.2 C 406.2 25.2 406.8 25.3 407.2 25.5 C 407.7 25.6 408.1 25.8 408.5 26.2 C 408.4 26.4 408.3 26.6 408.2 26.9 C 408.1 27.1 408.1 27.5 408 27.8 C 408 27.8 407.7 27.8 407.7 27.8 C 407.7 27.7 407.6 27.5 407.5 27.2 C 407.4 27 407.2 26.8 407 26.6 C 406.8 26.4 406.6 26.3 406.3 26.2 C 406.1 26 405.7 26 405.4 26 C 405 26 404.6 26 404.3 26.1 C 404 26.3 403.7 26.4 403.5 26.7 C 403.3 26.9 403.1 27.1 403 27.4 C 402.8 27.8 402.8 28.1 402.8 28.4 C 402.8 29.1 402.9 29.6 403.2 29.9 C 403.6 30.3 404 30.6 404.4 30.8 C 404.9 31.1 405.4 31.3 405.9 31.5 C 406.5 31.7 407 31.9 407.4 32.2 C 407.9 32.5 408.3 32.8 408.6 33.3 C 408.9 33.7 409.1 34.3 409.1 35 C 409.1 35.7 409 36.2 408.7 36.8 C 408.5 37.3 408.2 37.8 407.8 38.2 C 407.4 38.6 406.9 38.9 406.2 39.2 C 405.6 39.4 405 39.5 404.2 39.5 C 403.4 39.5 402.7 39.4 402.2 39.2 C 401.7 38.9 401.2 38.7 400.9 38.4 C 401 38.1 401.1 37.8 401.1 37.6 C 401.2 37.3 401.2 37 401.3 36.6 C 401.26 36.63 401.5 36.6 401.5 36.6 C 401.5 36.6 401.5 36.63 401.5 36.6 Z " stroke="none" fill="#535a5d"/>  </g></svg>