<?xml version="1.0" standalone="no"?><!DOCTYPE svg PUBLIC "-//W3C//DTD SVG 1.1//EN" "http://www.w3.org/Graphics/SVG/1.1/DTD/svg11.dtd"><svg xmlns="http://www.w3.org/2000/svg" version="1.1" width="108px" height="23.8px" viewBox="0 -4 108 23.8" style="top:-4px">  <desc>Deaza A3000292</desc>  <defs/>  <g id="Polygon41688">    <path d="M 41 15 L 40.6 14 L 38.5 14 L 38.1 15 L 37.4 15 L 39.3 10.1 L 39.9 10.1 L 41.8 15 L 41 15 Z M 38.7 13.4 L 40.4 13.4 L 39.6 11.1 L 39.6 11.1 L 38.7 13.4 Z M 43.3 12.3 C 43.6 12.3 43.8 12.3 44 12.2 C 44.3 12.1 44.6 11.9 44.6 11.5 C 44.6 11.1 44.3 10.9 43.8 10.9 C 43.5 10.9 43.2 11 43 11.4 C 43 11.4 42.5 11.1 42.5 11.1 C 42.7 10.6 43.2 10.3 43.8 10.3 C 44.7 10.3 45.3 10.8 45.3 11.5 C 45.3 11.9 45 12.3 44.7 12.5 C 45.2 12.7 45.5 13.1 45.5 13.6 C 45.5 14.6 44.8 15.1 43.9 15.1 C 43.4 15.1 42.7 14.8 42.5 14.3 C 42.5 14.3 43 14 43 14 C 43.2 14.4 43.5 14.5 43.9 14.5 C 44.4 14.5 44.8 14.2 44.8 13.7 C 44.8 13.2 44.4 12.9 43.8 12.9 C 43.7 12.9 43.5 12.9 43.3 13 C 43.3 13 43.3 12.3 43.3 12.3 Z M 49.9 12.7 C 49.9 14.2 49.3 15.1 48.2 15.1 C 47.2 15.1 46.6 14.2 46.6 12.7 C 46.6 11.2 47.2 10.3 48.2 10.3 C 49.3 10.3 49.9 11.2 49.9 12.7 Z M 47.2 12.7 C 47.2 13.9 47.6 14.5 48.2 14.5 C 48.8 14.5 49.2 13.9 49.2 12.7 C 49.2 11.5 48.8 10.9 48.2 10.9 C 47.6 10.9 47.2 11.5 47.2 12.7 Z M 54.2 12.7 C 54.2 14.2 53.6 15.1 52.5 15.1 C 51.5 15.1 50.9 14.2 50.9 12.7 C 50.9 11.2 51.5 10.3 52.5 10.3 C 53.6 10.3 54.2 11.2 54.2 12.7 Z M 51.5 12.7 C 51.5 13.9 51.9 14.5 52.5 14.5 C 53.1 14.5 53.5 13.9 53.5 12.7 C 53.5 11.5 53.1 10.9 52.5 10.9 C 51.9 10.9 51.5 11.5 51.5 12.7 Z M 58.5 12.7 C 58.5 14.2 57.9 15.1 56.8 15.1 C 55.8 15.1 55.2 14.2 55.2 12.7 C 55.2 11.2 55.8 10.3 56.8 10.3 C 57.9 10.3 58.5 11.2 58.5 12.7 Z M 55.9 12.7 C 55.9 13.9 56.2 14.5 56.8 14.5 C 57.4 14.5 57.8 13.9 57.8 12.7 C 57.8 11.5 57.4 10.9 56.8 10.9 C 56.2 10.9 55.9 11.5 55.9 12.7 Z M 59.5 15 C 59.5 15 59.51 14.41 59.5 14.4 C 60 13.8 60.7 13.1 61.1 12.5 C 61.3 12.2 61.6 11.8 61.6 11.5 C 61.6 11.1 61.2 10.9 60.8 10.9 C 60.4 10.9 60.1 11.1 60.1 11.6 C 60.1 11.6 59.4 11.4 59.4 11.4 C 59.5 10.7 60.2 10.3 60.8 10.3 C 61.6 10.3 62.2 10.8 62.2 11.5 C 62.2 11.9 62 12.4 61.8 12.8 C 61.4 13.3 60.9 13.9 60.4 14.4 C 60.39 14.41 62.5 14.4 62.5 14.4 L 62.5 15 L 59.5 15 Z M 63.9 14.7 C 64.8 14.3 65.5 13.8 65.7 12.9 C 65.5 13.1 65.1 13.3 64.7 13.3 C 63.9 13.3 63.3 12.6 63.3 11.8 C 63.3 10.9 63.9 10.3 64.8 10.3 C 65.9 10.3 66.5 11.1 66.5 12.1 C 66.5 13.6 65.5 14.7 64.2 15.3 C 64.2 15.3 63.9 14.7 63.9 14.7 Z M 65.8 12.1 C 65.8 11.5 65.6 10.9 64.9 10.9 C 64.3 10.9 64 11.3 64 11.8 C 64 12.3 64.3 12.7 64.8 12.7 C 65.2 12.7 65.6 12.5 65.8 12.1 Z M 67.5 15 C 67.5 15 67.54 14.41 67.5 14.4 C 68.1 13.8 68.7 13.1 69.2 12.5 C 69.4 12.2 69.6 11.8 69.6 11.5 C 69.6 11.1 69.2 10.9 68.8 10.9 C 68.5 10.9 68.1 11.1 68.1 11.6 C 68.1 11.6 67.5 11.4 67.5 11.4 C 67.5 10.7 68.2 10.3 68.9 10.3 C 69.6 10.3 70.3 10.8 70.3 11.5 C 70.3 11.9 70.1 12.4 69.8 12.8 C 69.4 13.3 68.9 13.9 68.4 14.4 C 68.42 14.41 70.5 14.4 70.5 14.4 L 70.5 15 L 67.5 15 Z " stroke="none" fill="#535a5d"/>  </g>  <g id="Polygon41687">    <path d="M 40.9 0.4 C 40.9 0.4 42.52 0.4 42.5 0.4 C 44 0.4 45.6 1.2 45.6 3.2 C 45.6 5.2 44 6 42.4 6 C 42.44 6 40.9 6 40.9 6 L 40.9 0.4 Z M 41.9 5.2 C 41.9 5.2 42.11 5.15 42.1 5.2 C 43.5 5.2 44.5 4.7 44.5 3.2 C 44.5 1.9 43.7 1.2 42.4 1.2 C 42.38 1.25 41.9 1.2 41.9 1.2 L 41.9 5.2 Z M 47.1 6 L 47.1 0.4 L 50.6 0.4 L 50.6 1.2 L 48.1 1.2 L 48.1 2.7 L 50.6 2.7 L 50.6 3.5 L 48.1 3.5 L 48.1 5.2 L 50.6 5.2 L 50.6 6 L 47.1 6 Z M 53.9 0.4 L 54.7 0.4 L 56.8 6 L 55.7 6 L 55.3 4.9 L 53.2 4.9 L 52.8 6 L 51.7 6 L 53.9 0.4 Z M 53.5 4.1 L 55 4.1 L 54.2 1.9 L 54.2 1.9 L 53.5 4.1 Z M 59.1 5.2 L 61.7 5.2 L 61.7 6 L 57.7 6 L 57.7 5.5 L 60.2 1.2 L 57.8 1.2 L 57.8 0.4 L 61.5 0.4 L 61.5 0.9 L 59.1 5.2 Z M 64.7 0.4 L 65.5 0.4 L 67.6 6 L 66.5 6 L 66.1 4.9 L 64 4.9 L 63.6 6 L 62.5 6 L 64.7 0.4 Z M 64.3 4.1 L 65.8 4.1 L 65 1.9 L 65 1.9 L 64.3 4.1 Z " stroke="none" fill="#535a5d"/>  </g></svg>