<?xml version="1.0" standalone="no"?><!DOCTYPE svg PUBLIC "-//W3C//DTD SVG 1.1//EN" "http://www.w3.org/Graphics/SVG/1.1/DTD/svg11.dtd"><svg xmlns="http://www.w3.org/2000/svg" version="1.1" width="108px" height="23.8px" viewBox="0 -4 108 23.8" style="top:-4px">  <desc>Jassmyn A3000216</desc>  <defs/>  <g id="Polygon41274">    <path d="M 41.4 15 L 41.1 14 L 39 14 L 38.6 15 L 37.9 15 L 39.7 10.1 L 40.3 10.1 L 42.2 15 L 41.4 15 Z M 39.2 13.4 L 40.8 13.4 L 40 11.1 L 40 11.1 L 39.2 13.4 Z M 43.7 12.3 C 44 12.3 44.2 12.3 44.4 12.2 C 44.8 12.1 45 11.9 45 11.5 C 45 11.1 44.7 10.9 44.3 10.9 C 43.9 10.9 43.6 11 43.5 11.4 C 43.5 11.4 42.9 11.1 42.9 11.1 C 43.1 10.6 43.6 10.3 44.3 10.3 C 45.1 10.3 45.7 10.8 45.7 11.5 C 45.7 11.9 45.5 12.3 45.1 12.5 C 45.6 12.7 45.9 13.1 45.9 13.6 C 45.9 14.6 45.2 15.1 44.4 15.1 C 43.8 15.1 43.2 14.8 42.9 14.3 C 42.9 14.3 43.4 14 43.4 14 C 43.6 14.4 44 14.5 44.3 14.5 C 44.8 14.5 45.3 14.2 45.3 13.7 C 45.3 13.2 44.8 12.9 44.3 12.9 C 44.1 12.9 44 12.9 43.7 13 C 43.7 13 43.7 12.3 43.7 12.3 Z M 50.3 12.7 C 50.3 14.2 49.7 15.1 48.7 15.1 C 47.6 15.1 47 14.2 47 12.7 C 47 11.2 47.6 10.3 48.7 10.3 C 49.7 10.3 50.3 11.2 50.3 12.7 Z M 47.7 12.7 C 47.7 13.9 48 14.5 48.7 14.5 C 49.3 14.5 49.6 13.9 49.6 12.7 C 49.6 11.5 49.3 10.9 48.7 10.9 C 48 10.9 47.7 11.5 47.7 12.7 Z M 54.6 12.7 C 54.6 14.2 54 15.1 53 15.1 C 51.9 15.1 51.3 14.2 51.3 12.7 C 51.3 11.2 51.9 10.3 53 10.3 C 54 10.3 54.6 11.2 54.6 12.7 Z M 52 12.7 C 52 13.9 52.3 14.5 53 14.5 C 53.6 14.5 53.9 13.9 53.9 12.7 C 53.9 11.5 53.6 10.9 53 10.9 C 52.3 10.9 52 11.5 52 12.7 Z M 58.9 12.7 C 58.9 14.2 58.3 15.1 57.3 15.1 C 56.2 15.1 55.6 14.2 55.6 12.7 C 55.6 11.2 56.2 10.3 57.3 10.3 C 58.3 10.3 58.9 11.2 58.9 12.7 Z M 56.3 12.7 C 56.3 13.9 56.7 14.5 57.3 14.5 C 57.9 14.5 58.2 13.9 58.2 12.7 C 58.2 11.5 57.9 10.9 57.3 10.9 C 56.7 10.9 56.3 11.5 56.3 12.7 Z M 60 15 C 60 15 59.95 14.41 60 14.4 C 60.5 13.8 61.1 13.1 61.6 12.5 C 61.8 12.2 62 11.8 62 11.5 C 62 11.1 61.6 10.9 61.3 10.9 C 60.9 10.9 60.5 11.1 60.5 11.6 C 60.5 11.6 59.9 11.4 59.9 11.4 C 59.9 10.7 60.6 10.3 61.3 10.3 C 62 10.3 62.7 10.8 62.7 11.5 C 62.7 11.9 62.5 12.4 62.2 12.8 C 61.8 13.3 61.3 13.9 60.8 14.4 C 60.83 14.41 62.9 14.4 62.9 14.4 L 62.9 15 L 60 15 Z M 64.5 15 C 64.5 15 64.54 11.15 64.5 11.1 C 64.3 11.3 64 11.4 63.8 11.5 C 63.8 11.5 63.8 10.8 63.8 10.8 C 64.1 10.7 64.5 10.5 64.8 10.4 C 64.77 10.35 65.2 10.4 65.2 10.4 L 65.2 15 L 64.5 15 Z M 69.1 10.7 C 68.3 11.1 67.6 11.6 67.3 12.5 C 67.6 12.2 68 12.1 68.4 12.1 C 69.2 12.1 69.7 12.7 69.7 13.6 C 69.7 14.4 69.1 15.1 68.3 15.1 C 67.2 15.1 66.6 14.2 66.6 13.2 C 66.6 11.7 67.6 10.6 68.9 10.1 C 68.9 10.1 69.1 10.7 69.1 10.7 Z M 67.2 13.2 C 67.2 13.9 67.5 14.5 68.2 14.5 C 68.7 14.5 69.1 14.1 69.1 13.5 C 69.1 13 68.8 12.6 68.2 12.6 C 67.8 12.6 67.4 12.9 67.2 13.2 Z " stroke="none" fill="#535a5d"/>  </g>  <g id="Polygon41273">    <path d="M 36.7 4.5 C 36.7 5 36.6 5.4 36.3 5.7 C 36.1 6 35.8 6.1 35.3 6.1 C 35 6.1 34.6 6 34.3 5.9 C 34.3 5.9 34.6 5.1 34.6 5.1 C 34.8 5.2 34.9 5.2 35.1 5.2 C 35.4 5.2 35.5 5.2 35.6 5 C 35.7 4.9 35.7 4.7 35.7 4.4 C 35.67 4.42 35.7 0.4 35.7 0.4 L 36.7 0.4 C 36.7 0.4 36.66 4.54 36.7 4.5 Z M 40.1 0.4 L 40.9 0.4 L 43 6 L 41.9 6 L 41.5 4.9 L 39.3 4.9 L 38.9 6 L 37.8 6 L 40.1 0.4 Z M 39.6 4.1 L 41.2 4.1 L 40.4 1.9 L 40.4 1.9 L 39.6 4.1 Z M 46 1.2 C 45.6 1.2 45.2 1.4 45.2 1.8 C 45.2 2.3 45.8 2.4 46.2 2.6 C 47 2.9 48 3.2 48 4.4 C 48 5.6 46.8 6.1 45.9 6.1 C 45.1 6.1 44.4 5.8 43.8 5.2 C 43.8 5.2 44.5 4.6 44.5 4.6 C 45 5 45.3 5.2 45.9 5.2 C 46.4 5.2 46.9 5 46.9 4.4 C 46.9 3.9 46.3 3.7 45.8 3.5 C 45 3.2 44.2 2.8 44.2 1.9 C 44.2 0.8 45.1 0.3 46 0.3 C 46.7 0.3 47.3 0.5 47.8 0.9 C 47.8 0.9 47.2 1.6 47.2 1.6 C 46.9 1.4 46.5 1.2 46 1.2 Z M 51.3 1.2 C 50.9 1.2 50.5 1.4 50.5 1.8 C 50.5 2.3 51 2.4 51.5 2.6 C 52.3 2.9 53.2 3.2 53.2 4.4 C 53.2 5.6 52.1 6.1 51.2 6.1 C 50.3 6.1 49.7 5.8 49.1 5.2 C 49.1 5.2 49.8 4.6 49.8 4.6 C 50.3 5 50.6 5.2 51.2 5.2 C 51.7 5.2 52.2 5 52.2 4.4 C 52.2 3.9 51.6 3.7 51 3.5 C 50.3 3.2 49.5 2.8 49.5 1.9 C 49.5 0.8 50.3 0.3 51.3 0.3 C 52 0.3 52.5 0.5 53.1 0.9 C 53.1 0.9 52.5 1.6 52.5 1.6 C 52.2 1.4 51.7 1.2 51.3 1.2 Z M 58.1 6 L 57.4 6 L 55.7 1.6 L 55.7 6 L 54.7 6 L 54.7 0.4 L 56.2 0.4 L 57.8 4.5 L 59.4 0.4 L 60.9 0.4 L 60.9 6 L 59.9 6 L 59.9 1.6 L 58.1 6 Z M 63.8 6 L 63.8 3.6 L 62.1 0.4 L 63.3 0.4 L 64.4 2.6 L 64.4 2.6 L 65.5 0.4 L 66.7 0.4 L 64.8 3.7 L 64.8 6 L 63.8 6 Z M 71.6 6 L 68.9 2.2 L 68.9 6 L 67.9 6 L 67.9 0.4 L 68.7 0.4 L 71.5 4.2 L 71.5 0.4 L 72.5 0.4 L 72.5 6 L 71.6 6 Z " stroke="none" fill="#535a5d"/>  </g></svg>