<?xml version="1.0" standalone="no"?><!DOCTYPE svg PUBLIC "-//W3C//DTD SVG 1.1//EN" "http://www.w3.org/Graphics/SVG/1.1/DTD/svg11.dtd"><svg xmlns="http://www.w3.org/2000/svg" version="1.1" width="270px" height="26.5px" viewBox="0 -5 270 26.5" style="top:-5px">  <desc>Signature Design by Ashley</desc>  <defs/>  <g id="Polygon38855">    <path d="M 25 1.4 C 24.4 1.4 24 1.7 24 2.3 C 24 2.8 24.7 3 25.2 3.2 C 26.3 3.6 27.4 4 27.4 5.5 C 27.4 7 26 7.6 24.9 7.6 C 23.8 7.6 23 7.2 22.2 6.5 C 22.2 6.5 23.1 5.7 23.1 5.7 C 23.7 6.3 24.2 6.6 24.9 6.6 C 25.5 6.6 26.1 6.3 26.1 5.5 C 26.1 4.9 25.4 4.6 24.7 4.3 C 23.7 4 22.7 3.5 22.7 2.3 C 22.7 1 23.8 0.4 25 0.4 C 25.8 0.4 26.5 0.7 27.2 1.2 C 27.2 1.2 26.5 2 26.5 2 C 26.1 1.7 25.6 1.4 25 1.4 Z M 31.8 7.5 L 31.8 0.5 L 33.1 0.5 L 33.1 7.5 L 31.8 7.5 Z M 41.3 4.6 L 41.3 3.5 L 44.3 3.5 C 44.3 3.5 44.28 6.23 44.3 6.2 C 43.6 7.2 42.5 7.6 41.3 7.6 C 39.2 7.6 37.6 6.2 37.6 4 C 37.6 1.9 39.2 0.4 41.3 0.4 C 42.4 0.4 43.4 0.9 44.2 1.7 C 44.2 1.7 43.3 2.4 43.3 2.4 C 42.8 1.9 42.1 1.5 41.3 1.5 C 39.9 1.5 38.9 2.6 38.9 4 C 38.9 5.5 39.9 6.5 41.3 6.5 C 41.9 6.5 42.6 6.3 43 5.9 C 43.05 5.85 43 4.6 43 4.6 L 41.3 4.6 Z M 53.6 7.5 L 50.2 2.8 L 50.2 7.5 L 48.9 7.5 L 48.9 0.5 L 50 0.5 L 53.5 5.2 L 53.5 0.5 L 54.8 0.5 L 54.8 7.5 L 53.6 7.5 Z M 61.7 0.5 L 62.7 0.5 L 65.4 7.5 L 63.9 7.5 L 63.5 6.1 L 60.8 6.1 L 60.3 7.5 L 58.9 7.5 L 61.7 0.5 Z M 61.1 5.1 L 63.1 5.1 L 62.1 2.4 L 62.1 2.4 L 61.1 5.1 Z M 71.3 1.6 L 71.3 7.5 L 70 7.5 L 70 1.6 L 68.3 1.6 L 68.3 0.5 L 73 0.5 L 73 1.6 L 71.3 1.6 Z M 82.6 4.2 C 82.6 6.4 81.7 7.6 79.8 7.6 C 77.9 7.6 77 6.4 77 4.2 C 77.03 4.21 77 0.5 77 0.5 L 78.3 0.5 C 78.3 0.5 78.26 4.42 78.3 4.4 C 78.3 5.8 78.9 6.5 79.8 6.5 C 80.7 6.5 81.3 5.8 81.3 4.4 C 81.34 4.42 81.3 0.5 81.3 0.5 L 82.6 0.5 C 82.6 0.5 82.57 4.21 82.6 4.2 Z M 89.5 0.5 C 90.6 0.5 92 1.1 92 2.6 C 92 3.7 91.2 4.3 90.4 4.5 C 90.4 4.52 92.6 7.5 92.6 7.5 L 91 7.5 L 89 4.6 L 88.6 4.6 L 88.6 7.5 L 87.3 7.5 L 87.3 0.5 C 87.3 0.5 89.51 0.5 89.5 0.5 Z M 89.3 3.6 C 90.1 3.6 90.7 3.3 90.7 2.6 C 90.7 2 90.2 1.6 89.5 1.6 C 89.48 1.56 88.6 1.6 88.6 1.6 L 88.6 3.6 C 88.6 3.6 89.28 3.58 89.3 3.6 Z M 96.7 7.5 L 96.7 0.5 L 101.1 0.5 L 101.1 1.6 L 97.9 1.6 L 97.9 3.4 L 101.1 3.4 L 101.1 4.4 L 97.9 4.4 L 97.9 6.4 L 101.1 6.4 L 101.1 7.5 L 96.7 7.5 Z M 111.2 0.5 C 111.2 0.5 113.17 0.5 113.2 0.5 C 115 0.5 117 1.4 117 4 C 117 6.6 115 7.5 113.1 7.5 C 113.07 7.5 111.2 7.5 111.2 7.5 L 111.2 0.5 Z M 112.4 6.4 C 112.4 6.4 112.66 6.44 112.7 6.4 C 114.4 6.4 115.7 5.8 115.7 4.1 C 115.7 2.4 114.7 1.6 113 1.6 C 113 1.56 112.4 1.6 112.4 1.6 L 112.4 6.4 Z M 121.5 7.5 L 121.5 0.5 L 125.8 0.5 L 125.8 1.6 L 122.7 1.6 L 122.7 3.4 L 125.8 3.4 L 125.8 4.4 L 122.7 4.4 L 122.7 6.4 L 125.8 6.4 L 125.8 7.5 L 121.5 7.5 Z M 132.7 1.4 C 132.1 1.4 131.7 1.7 131.7 2.3 C 131.7 2.8 132.3 3 132.9 3.2 C 133.9 3.6 135.1 4 135.1 5.5 C 135.1 7 133.7 7.6 132.5 7.6 C 131.5 7.6 130.7 7.2 129.9 6.5 C 129.9 6.5 130.8 5.7 130.8 5.7 C 131.4 6.3 131.8 6.6 132.5 6.6 C 133.2 6.6 133.8 6.3 133.8 5.5 C 133.8 4.9 133.1 4.6 132.3 4.3 C 131.4 4 130.4 3.5 130.4 2.3 C 130.4 1 131.5 0.4 132.6 0.4 C 133.5 0.4 134.2 0.7 134.9 1.2 C 134.9 1.2 134.2 2 134.2 2 C 133.8 1.7 133.2 1.4 132.7 1.4 Z M 139.5 7.5 L 139.5 0.5 L 140.7 0.5 L 140.7 7.5 L 139.5 7.5 Z M 149 4.6 L 149 3.5 L 152 3.5 C 152 3.5 151.95 6.23 152 6.2 C 151.2 7.2 150.2 7.6 149 7.6 C 146.8 7.6 145.2 6.2 145.2 4 C 145.2 1.9 146.9 0.4 149 0.4 C 150.1 0.4 151.1 0.9 151.8 1.7 C 151.8 1.7 151 2.4 151 2.4 C 150.5 1.9 149.8 1.5 149 1.5 C 147.6 1.5 146.5 2.6 146.5 4 C 146.5 5.5 147.5 6.5 149 6.5 C 149.6 6.5 150.2 6.3 150.7 5.9 C 150.72 5.85 150.7 4.6 150.7 4.6 L 149 4.6 Z M 161.3 7.5 L 157.9 2.8 L 157.9 7.5 L 156.6 7.5 L 156.6 0.5 L 157.7 0.5 L 161.2 5.2 L 161.2 0.5 L 162.4 0.5 L 162.4 7.5 L 161.3 7.5 Z M 172.8 0.5 C 172.8 0.5 174.59 0.5 174.6 0.5 C 175.3 0.5 176 0.6 176.5 0.9 C 177 1.3 177.3 1.8 177.3 2.4 C 177.3 3.1 177 3.6 176.3 3.8 C 177.1 4.1 177.6 4.7 177.6 5.5 C 177.6 6.3 177.1 6.9 176.3 7.2 C 175.8 7.4 175.1 7.5 174.5 7.5 C 174.5 7.5 172.8 7.5 172.8 7.5 L 172.8 0.5 Z M 174.1 6.4 C 174.1 6.4 174.48 6.44 174.5 6.4 C 175 6.4 175.4 6.4 175.8 6.3 C 176.1 6.1 176.2 5.9 176.2 5.5 C 176.2 4.8 175.8 4.4 175 4.4 C 175 4.43 174.1 4.4 174.1 4.4 L 174.1 6.4 Z M 174.1 3.4 C 174.1 3.4 174.57 3.42 174.6 3.4 C 175.5 3.4 176 3.1 176 2.5 C 176 2.1 175.9 1.9 175.7 1.8 C 175.4 1.6 174.9 1.6 174.4 1.6 C 174.42 1.56 174.1 1.6 174.1 1.6 L 174.1 3.4 Z M 183.2 7.5 L 183.2 4.5 L 181 0.5 L 182.5 0.5 L 183.9 3.2 L 183.9 3.2 L 185.3 0.5 L 186.7 0.5 L 184.4 4.6 L 184.4 7.5 L 183.2 7.5 Z M 198.4 0.5 L 199.5 0.5 L 202.1 7.5 L 200.7 7.5 L 200.2 6.1 L 197.5 6.1 L 197 7.5 L 195.6 7.5 L 198.4 0.5 Z M 197.9 5.1 L 199.8 5.1 L 198.9 2.4 L 198.9 2.4 L 197.9 5.1 Z M 208.5 1.4 C 207.9 1.4 207.5 1.7 207.5 2.3 C 207.5 2.8 208.2 3 208.7 3.2 C 209.8 3.6 210.9 4 210.9 5.5 C 210.9 7 209.5 7.6 208.4 7.6 C 207.3 7.6 206.5 7.2 205.7 6.5 C 205.7 6.5 206.6 5.7 206.6 5.7 C 207.2 6.3 207.6 6.6 208.4 6.6 C 209 6.6 209.6 6.3 209.6 5.5 C 209.6 4.9 208.9 4.6 208.2 4.3 C 207.2 4 206.2 3.5 206.2 2.3 C 206.2 1 207.3 0.4 208.4 0.4 C 209.3 0.4 210 0.7 210.7 1.2 C 210.7 1.2 210 2 210 2 C 209.6 1.7 209.1 1.4 208.5 1.4 Z M 219.8 7.5 L 219.8 4.4 L 216.6 4.4 L 216.6 7.5 L 215.3 7.5 L 215.3 0.5 L 216.6 0.5 L 216.6 3.4 L 219.8 3.4 L 219.8 0.5 L 221.1 0.5 L 221.1 7.5 L 219.8 7.5 Z M 225.9 7.5 L 225.9 0.5 L 227.1 0.5 L 227.1 6.4 L 230.1 6.4 L 230.1 7.5 L 225.9 7.5 Z M 234 7.5 L 234 0.5 L 238.4 0.5 L 238.4 1.6 L 235.3 1.6 L 235.3 3.4 L 238.4 3.4 L 238.4 4.4 L 235.3 4.4 L 235.3 6.4 L 238.4 6.4 L 238.4 7.5 L 234 7.5 Z M 244.6 7.5 L 244.6 4.5 L 242.3 0.5 L 243.9 0.5 L 245.2 3.2 L 245.3 3.2 L 246.7 0.5 L 248.1 0.5 L 245.8 4.6 L 245.8 7.5 L 244.6 7.5 Z " stroke="none" fill="#fff"/>  </g></svg>