<?xml version="1.0" standalone="no"?><!DOCTYPE svg PUBLIC "-//W3C//DTD SVG 1.1//EN" "http://www.w3.org/Graphics/SVG/1.1/DTD/svg11.dtd"><svg xmlns="http://www.w3.org/2000/svg" version="1.1" width="150px" height="23.8px" viewBox="0 -4 150 23.8" style="top:-4px">  <desc>Brentlow A3000202</desc>  <defs/>  <g id="Polygon42253">    <path d="M 61.9 15 L 61.5 14 L 59.4 14 L 59.1 15 L 58.3 15 L 60.2 10.1 L 60.8 10.1 L 62.7 15 L 61.9 15 Z M 59.7 13.4 L 61.3 13.4 L 60.5 11.1 L 60.5 11.1 L 59.7 13.4 Z M 64.2 12.3 C 64.5 12.3 64.7 12.3 64.9 12.2 C 65.3 12.1 65.5 11.9 65.5 11.5 C 65.5 11.1 65.2 10.9 64.7 10.9 C 64.4 10.9 64.1 11 64 11.4 C 64 11.4 63.4 11.1 63.4 11.1 C 63.6 10.6 64.1 10.3 64.8 10.3 C 65.6 10.3 66.2 10.8 66.2 11.5 C 66.2 11.9 66 12.3 65.6 12.5 C 66.1 12.7 66.4 13.1 66.4 13.6 C 66.4 14.6 65.7 15.1 64.9 15.1 C 64.3 15.1 63.7 14.8 63.4 14.3 C 63.4 14.3 63.9 14 63.9 14 C 64.1 14.4 64.5 14.5 64.8 14.5 C 65.3 14.5 65.8 14.2 65.8 13.7 C 65.8 13.2 65.3 12.9 64.8 12.9 C 64.6 12.9 64.4 12.9 64.2 13 C 64.2 13 64.2 12.3 64.2 12.3 Z M 70.8 12.7 C 70.8 14.2 70.2 15.1 69.1 15.1 C 68.1 15.1 67.5 14.2 67.5 12.7 C 67.5 11.2 68.1 10.3 69.1 10.3 C 70.2 10.3 70.8 11.2 70.8 12.7 Z M 68.2 12.7 C 68.2 13.9 68.5 14.5 69.1 14.5 C 69.8 14.5 70.1 13.9 70.1 12.7 C 70.1 11.5 69.8 10.9 69.1 10.9 C 68.5 10.9 68.2 11.5 68.2 12.7 Z M 75.1 12.7 C 75.1 14.2 74.5 15.1 73.4 15.1 C 72.4 15.1 71.8 14.2 71.8 12.7 C 71.8 11.2 72.4 10.3 73.4 10.3 C 74.5 10.3 75.1 11.2 75.1 12.7 Z M 72.5 12.7 C 72.5 13.9 72.8 14.5 73.4 14.5 C 74.1 14.5 74.4 13.9 74.4 12.7 C 74.4 11.5 74.1 10.9 73.4 10.9 C 72.8 10.9 72.5 11.5 72.5 12.7 Z M 79.4 12.7 C 79.4 14.2 78.8 15.1 77.8 15.1 C 76.7 15.1 76.1 14.2 76.1 12.7 C 76.1 11.2 76.7 10.3 77.8 10.3 C 78.8 10.3 79.4 11.2 79.4 12.7 Z M 76.8 12.7 C 76.8 13.9 77.1 14.5 77.8 14.5 C 78.4 14.5 78.7 13.9 78.7 12.7 C 78.7 11.5 78.4 10.9 77.8 10.9 C 77.1 10.9 76.8 11.5 76.8 12.7 Z M 80.4 15 C 80.4 15 80.43 14.41 80.4 14.4 C 81 13.8 81.6 13.1 82.1 12.5 C 82.3 12.2 82.5 11.8 82.5 11.5 C 82.5 11.1 82.1 10.9 81.7 10.9 C 81.3 10.9 81 11.1 81 11.6 C 81 11.6 80.3 11.4 80.3 11.4 C 80.4 10.7 81.1 10.3 81.8 10.3 C 82.5 10.3 83.2 10.8 83.2 11.5 C 83.2 11.9 82.9 12.4 82.7 12.8 C 82.3 13.3 81.8 13.9 81.3 14.4 C 81.31 14.41 83.4 14.4 83.4 14.4 L 83.4 15 L 80.4 15 Z M 87.6 12.7 C 87.6 14.2 87 15.1 85.9 15.1 C 84.9 15.1 84.3 14.2 84.3 12.7 C 84.3 11.2 84.9 10.3 85.9 10.3 C 87 10.3 87.6 11.2 87.6 12.7 Z M 85 12.7 C 85 13.9 85.3 14.5 85.9 14.5 C 86.6 14.5 86.9 13.9 86.9 12.7 C 86.9 11.5 86.6 10.9 85.9 10.9 C 85.3 10.9 85 11.5 85 12.7 Z M 88.6 15 C 88.6 15 88.62 14.41 88.6 14.4 C 89.2 13.8 89.8 13.1 90.3 12.5 C 90.4 12.2 90.7 11.8 90.7 11.5 C 90.7 11.1 90.3 10.9 89.9 10.9 C 89.5 10.9 89.2 11.1 89.2 11.6 C 89.2 11.6 88.5 11.4 88.5 11.4 C 88.6 10.7 89.3 10.3 89.9 10.3 C 90.7 10.3 91.4 10.8 91.4 11.5 C 91.4 11.9 91.1 12.4 90.9 12.8 C 90.5 13.3 90 13.9 89.5 14.4 C 89.5 14.41 91.6 14.4 91.6 14.4 L 91.6 15 L 88.6 15 Z " stroke="none" fill="#535a5d"/>  </g>  <g id="Polygon42252">    <path d="M 53.1 0.4 C 53.1 0.4 54.48 0.4 54.5 0.4 C 55 0.4 55.6 0.5 56 0.8 C 56.4 1 56.6 1.5 56.6 2 C 56.6 2.4 56.4 2.8 55.8 3.1 C 56.5 3.3 56.8 3.7 56.8 4.4 C 56.8 5 56.5 5.5 55.9 5.8 C 55.5 6 54.9 6 54.4 6 C 54.4 6 53.1 6 53.1 6 L 53.1 0.4 Z M 54.1 5.2 C 54.1 5.2 54.39 5.15 54.4 5.2 C 54.8 5.2 55.1 5.1 55.4 5 C 55.7 4.9 55.8 4.7 55.8 4.4 C 55.8 3.9 55.5 3.5 54.8 3.5 C 54.8 3.54 54.1 3.5 54.1 3.5 L 54.1 5.2 Z M 54.1 2.7 C 54.1 2.7 54.46 2.74 54.5 2.7 C 55.2 2.7 55.6 2.5 55.6 2 C 55.6 1.7 55.5 1.5 55.3 1.4 C 55.1 1.3 54.7 1.2 54.3 1.2 C 54.34 1.25 54.1 1.2 54.1 1.2 L 54.1 2.7 Z M 60.1 0.4 C 61 0.4 62.1 0.9 62.1 2 C 62.1 3 61.5 3.4 60.8 3.6 C 60.83 3.62 62.6 6 62.6 6 L 61.3 6 L 59.7 3.7 L 59.4 3.7 L 59.4 6 L 58.4 6 L 58.4 0.4 C 58.4 0.4 60.12 0.4 60.1 0.4 Z M 59.9 2.9 C 60.6 2.9 61.1 2.6 61.1 2.1 C 61.1 1.6 60.7 1.2 60.1 1.2 C 60.09 1.25 59.4 1.2 59.4 1.2 L 59.4 2.9 C 59.4 2.9 59.93 2.86 59.9 2.9 Z M 63.8 6 L 63.8 0.4 L 67.3 0.4 L 67.3 1.2 L 64.8 1.2 L 64.8 2.7 L 67.3 2.7 L 67.3 3.5 L 64.8 3.5 L 64.8 5.2 L 67.3 5.2 L 67.3 6 L 63.8 6 Z M 72.6 6 L 69.8 2.2 L 69.8 6 L 68.8 6 L 68.8 0.4 L 69.7 0.4 L 72.5 4.2 L 72.5 0.4 L 73.5 0.4 L 73.5 6 L 72.6 6 Z M 77 1.2 L 77 6 L 76 6 L 76 1.2 L 74.7 1.2 L 74.7 0.4 L 78.4 0.4 L 78.4 1.2 L 77 1.2 Z M 79.6 6 L 79.6 0.4 L 80.6 0.4 L 80.6 5.2 L 82.9 5.2 L 82.9 6 L 79.6 6 Z M 86.4 1.2 C 85.4 1.2 84.6 2.1 84.6 3.2 C 84.6 4.3 85.4 5.2 86.4 5.2 C 87.5 5.2 88.3 4.3 88.3 3.2 C 88.3 2.1 87.5 1.2 86.4 1.2 Z M 86.4 6.1 C 84.8 6.1 83.5 4.8 83.5 3.2 C 83.5 1.6 84.8 0.3 86.4 0.3 C 88.1 0.3 89.3 1.6 89.3 3.2 C 89.3 4.8 88.1 6.1 86.4 6.1 Z M 95.4 4.2 L 95.5 4.2 L 96.5 0.4 L 97.6 0.4 L 96 6 L 95 6 L 93.9 2.1 L 93.9 2.1 L 92.8 6 L 91.9 6 L 90.3 0.4 L 91.4 0.4 L 92.4 4.2 L 92.4 4.2 L 93.5 0.4 L 94.4 0.4 L 95.4 4.2 Z " stroke="none" fill="#535a5d"/>  </g></svg>