<?xml version="1.0" standalone="no"?><!DOCTYPE svg PUBLIC "-//W3C//DTD SVG 1.1//EN" "http://www.w3.org/Graphics/SVG/1.1/DTD/svg11.dtd"><svg xmlns="http://www.w3.org/2000/svg" version="1.1" width="150px" height="23.8px" viewBox="0 -4 150 23.8" style="top:-4px">  <desc>Hansridge A3000230</desc>  <defs/>  <g id="Polygon40605">    <path d="M 61.8 15 L 61.4 14 L 59.4 14 L 59 15 L 58.2 15 L 60.1 10.1 L 60.7 10.1 L 62.6 15 L 61.8 15 Z M 59.6 13.4 L 61.2 13.4 L 60.4 11.1 L 60.4 11.1 L 59.6 13.4 Z M 64.1 12.3 C 64.4 12.3 64.6 12.3 64.8 12.2 C 65.2 12.1 65.4 11.9 65.4 11.5 C 65.4 11.1 65.1 10.9 64.6 10.9 C 64.3 10.9 64 11 63.9 11.4 C 63.9 11.4 63.3 11.1 63.3 11.1 C 63.5 10.6 64 10.3 64.7 10.3 C 65.5 10.3 66.1 10.8 66.1 11.5 C 66.1 11.9 65.9 12.3 65.5 12.5 C 66 12.7 66.3 13.1 66.3 13.6 C 66.3 14.6 65.6 15.1 64.8 15.1 C 64.2 15.1 63.6 14.8 63.3 14.3 C 63.3 14.3 63.8 14 63.8 14 C 64 14.4 64.4 14.5 64.7 14.5 C 65.2 14.5 65.7 14.2 65.7 13.7 C 65.7 13.2 65.2 12.9 64.7 12.9 C 64.5 12.9 64.4 12.9 64.1 13 C 64.1 13 64.1 12.3 64.1 12.3 Z M 70.7 12.7 C 70.7 14.2 70.1 15.1 69 15.1 C 68 15.1 67.4 14.2 67.4 12.7 C 67.4 11.2 68 10.3 69 10.3 C 70.1 10.3 70.7 11.2 70.7 12.7 Z M 68.1 12.7 C 68.1 13.9 68.4 14.5 69 14.5 C 69.7 14.5 70 13.9 70 12.7 C 70 11.5 69.7 10.9 69 10.9 C 68.4 10.9 68.1 11.5 68.1 12.7 Z M 75 12.7 C 75 14.2 74.4 15.1 73.4 15.1 C 72.3 15.1 71.7 14.2 71.7 12.7 C 71.7 11.2 72.3 10.3 73.4 10.3 C 74.4 10.3 75 11.2 75 12.7 Z M 72.4 12.7 C 72.4 13.9 72.7 14.5 73.4 14.5 C 74 14.5 74.3 13.9 74.3 12.7 C 74.3 11.5 74 10.9 73.4 10.9 C 72.7 10.9 72.4 11.5 72.4 12.7 Z M 79.3 12.7 C 79.3 14.2 78.7 15.1 77.7 15.1 C 76.6 15.1 76 14.2 76 12.7 C 76 11.2 76.6 10.3 77.7 10.3 C 78.7 10.3 79.3 11.2 79.3 12.7 Z M 76.7 12.7 C 76.7 13.9 77 14.5 77.7 14.5 C 78.3 14.5 78.6 13.9 78.6 12.7 C 78.6 11.5 78.3 10.9 77.7 10.9 C 77 10.9 76.7 11.5 76.7 12.7 Z M 80.3 15 C 80.3 15 80.34 14.41 80.3 14.4 C 80.9 13.8 81.5 13.1 82 12.5 C 82.2 12.2 82.4 11.8 82.4 11.5 C 82.4 11.1 82 10.9 81.6 10.9 C 81.3 10.9 80.9 11.1 80.9 11.6 C 80.9 11.6 80.3 11.4 80.3 11.4 C 80.3 10.7 81 10.3 81.7 10.3 C 82.4 10.3 83.1 10.8 83.1 11.5 C 83.1 11.9 82.9 12.4 82.6 12.8 C 82.2 13.3 81.7 13.9 81.2 14.4 C 81.22 14.41 83.3 14.4 83.3 14.4 L 83.3 15 L 80.3 15 Z M 85 12.3 C 85.3 12.3 85.5 12.3 85.7 12.2 C 86.1 12.1 86.3 11.9 86.3 11.5 C 86.3 11.1 86 10.9 85.5 10.9 C 85.2 10.9 84.9 11 84.8 11.4 C 84.8 11.4 84.2 11.1 84.2 11.1 C 84.4 10.6 84.9 10.3 85.6 10.3 C 86.4 10.3 87 10.8 87 11.5 C 87 11.9 86.8 12.3 86.4 12.5 C 86.9 12.7 87.2 13.1 87.2 13.6 C 87.2 14.6 86.5 15.1 85.7 15.1 C 85.1 15.1 84.5 14.8 84.2 14.3 C 84.2 14.3 84.7 14 84.7 14 C 84.9 14.4 85.3 14.5 85.6 14.5 C 86.1 14.5 86.6 14.2 86.6 13.7 C 86.6 13.2 86.1 12.9 85.6 12.9 C 85.4 12.9 85.2 12.9 85 13 C 85 13 85 12.3 85 12.3 Z M 91.6 12.7 C 91.6 14.2 91 15.1 89.9 15.1 C 88.9 15.1 88.3 14.2 88.3 12.7 C 88.3 11.2 88.9 10.3 89.9 10.3 C 91 10.3 91.6 11.2 91.6 12.7 Z M 89 12.7 C 89 13.9 89.3 14.5 89.9 14.5 C 90.6 14.5 90.9 13.9 90.9 12.7 C 90.9 11.5 90.6 10.9 89.9 10.9 C 89.3 10.9 89 11.5 89 12.7 Z " stroke="none" fill="#535a5d"/>  </g>  <g id="Polygon40604">    <path d="M 54.5 6 L 54.5 3.5 L 51.9 3.5 L 51.9 6 L 50.9 6 L 50.9 0.4 L 51.9 0.4 L 51.9 2.7 L 54.5 2.7 L 54.5 0.4 L 55.5 0.4 L 55.5 6 L 54.5 6 Z M 59 0.4 L 59.8 0.4 L 61.9 6 L 60.8 6 L 60.4 4.9 L 58.2 4.9 L 57.8 6 L 56.7 6 L 59 0.4 Z M 58.5 4.1 L 60.1 4.1 L 59.3 1.9 L 59.3 1.9 L 58.5 4.1 Z M 66.9 6 L 64.1 2.2 L 64.1 6 L 63.1 6 L 63.1 0.4 L 64 0.4 L 66.8 4.2 L 66.8 0.4 L 67.8 0.4 L 67.8 6 L 66.9 6 Z M 71.4 1.2 C 70.9 1.2 70.6 1.4 70.6 1.8 C 70.6 2.3 71.1 2.4 71.6 2.6 C 72.4 2.9 73.3 3.2 73.3 4.4 C 73.3 5.6 72.2 6.1 71.3 6.1 C 70.4 6.1 69.8 5.8 69.2 5.2 C 69.2 5.2 69.8 4.6 69.8 4.6 C 70.3 5 70.7 5.2 71.3 5.2 C 71.8 5.2 72.3 5 72.3 4.4 C 72.3 3.9 71.7 3.7 71.1 3.5 C 70.4 3.2 69.6 2.8 69.6 1.9 C 69.6 0.8 70.4 0.3 71.3 0.3 C 72 0.3 72.6 0.5 73.1 0.9 C 73.1 0.9 72.6 1.6 72.6 1.6 C 72.3 1.4 71.8 1.2 71.4 1.2 Z M 76.5 0.4 C 77.4 0.4 78.5 0.9 78.5 2 C 78.5 3 77.9 3.4 77.2 3.6 C 77.2 3.62 78.9 6 78.9 6 L 77.7 6 L 76.1 3.7 L 75.8 3.7 L 75.8 6 L 74.8 6 L 74.8 0.4 C 74.8 0.4 76.49 0.4 76.5 0.4 Z M 76.3 2.9 C 77 2.9 77.4 2.6 77.4 2.1 C 77.4 1.6 77 1.2 76.5 1.2 C 76.47 1.25 75.8 1.2 75.8 1.2 L 75.8 2.9 C 75.8 2.9 76.31 2.86 76.3 2.9 Z M 80.2 6 L 80.2 0.4 L 81.2 0.4 L 81.2 6 L 80.2 6 Z M 82.9 0.4 C 82.9 0.4 84.5 0.4 84.5 0.4 C 85.9 0.4 87.5 1.2 87.5 3.2 C 87.5 5.2 86 6 84.4 6 C 84.42 6 82.9 6 82.9 6 L 82.9 0.4 Z M 83.9 5.2 C 83.9 5.2 84.09 5.15 84.1 5.2 C 85.5 5.2 86.5 4.7 86.5 3.2 C 86.5 1.9 85.7 1.2 84.4 1.2 C 84.36 1.25 83.9 1.2 83.9 1.2 L 83.9 5.2 Z M 91.8 3.7 L 91.8 2.8 L 94.2 2.8 C 94.2 2.8 94.18 4.98 94.2 5 C 93.6 5.7 92.7 6.1 91.8 6.1 C 90.1 6.1 88.8 4.9 88.8 3.2 C 88.8 1.6 90.1 0.3 91.8 0.3 C 92.7 0.3 93.5 0.7 94.1 1.4 C 94.1 1.4 93.4 2 93.4 2 C 93 1.5 92.4 1.2 91.8 1.2 C 90.7 1.2 89.9 2 89.9 3.2 C 89.9 4.4 90.6 5.2 91.8 5.2 C 92.3 5.2 92.8 5 93.2 4.7 C 93.19 4.68 93.2 3.7 93.2 3.7 L 91.8 3.7 Z M 95.8 6 L 95.8 0.4 L 99.3 0.4 L 99.3 1.2 L 96.8 1.2 L 96.8 2.7 L 99.3 2.7 L 99.3 3.5 L 96.8 3.5 L 96.8 5.2 L 99.3 5.2 L 99.3 6 L 95.8 6 Z " stroke="none" fill="#535a5d"/>  </g></svg>