<?xml version="1.0" standalone="no"?><!DOCTYPE svg PUBLIC "-//W3C//DTD SVG 1.1//EN" "http://www.w3.org/Graphics/SVG/1.1/DTD/svg11.dtd"><svg xmlns="http://www.w3.org/2000/svg" version="1.1" width="486px" height="184px" viewBox="0 -1 486 184" style="top:-1px">  <desc>The Benchmark of modern style Modern Accent benches Sit or stow, the choice is yours with our assortment of breath</desc>  <defs/>  <g id="Polygon40195">    <path d="M 124.4 157.2 C 124.4 158.4 123.6 159.3 122.4 159.3 C 121.2 159.3 120.4 158.4 120.4 157.2 C 120.4 156 121.2 155.1 122.4 155.1 C 123.6 155.1 124.4 156 124.4 157.2 Z M 122.4 155.8 C 121.6 155.8 121.1 156.4 121.1 157.2 C 121.1 158 121.6 158.6 122.4 158.6 C 123.2 158.6 123.7 158 123.7 157.2 C 123.7 156.4 123.2 155.8 122.4 155.8 Z M 127.5 153.9 C 127.3 153.8 127.2 153.8 127 153.8 C 126.8 153.8 126.6 153.8 126.5 153.9 C 126.4 154 126.3 154.3 126.3 154.7 C 126.33 154.69 126.3 155.2 126.3 155.2 L 127.4 155.2 L 127.4 155.8 L 126.3 155.8 L 126.3 159.2 L 125.6 159.2 L 125.6 155.8 L 125.1 155.8 L 125.1 155.2 L 125.6 155.2 C 125.6 155.2 125.6 154.61 125.6 154.6 C 125.6 154.2 125.7 153.8 125.9 153.6 C 126 153.3 126.4 153.1 126.9 153.1 C 127.2 153.1 127.5 153.2 127.7 153.3 C 127.7 153.3 127.5 153.9 127.5 153.9 Z M 130.9 153.2 C 130.9 153.2 130.87 155.73 130.9 155.7 C 131.2 155.3 131.7 155.1 132.1 155.1 C 133.3 155.1 134.1 156 134.1 157.2 C 134.1 158.3 133.4 159.3 132.1 159.3 C 131.7 159.3 131.2 159.1 130.9 158.8 C 130.87 158.76 130.9 159.2 130.9 159.2 L 130.1 159.2 L 130.1 153.2 L 130.9 153.2 Z M 130.9 158 C 131.1 158.4 131.6 158.6 132 158.6 C 133 158.6 133.4 157.9 133.4 157.2 C 133.4 156.4 132.9 155.8 132 155.8 C 131.6 155.8 131.1 156 130.9 156.5 C 130.9 156.5 130.9 158 130.9 158 Z M 135.9 155.9 C 136.1 155.4 136.5 155.1 136.9 155.1 C 137.1 155.1 137.2 155.1 137.3 155.1 C 137.3 155.1 137.2 155.9 137.2 155.9 C 137.1 155.9 137 155.8 136.8 155.8 C 136.4 155.8 136.1 156.1 135.9 156.5 C 135.88 156.51 135.9 159.2 135.9 159.2 L 135.2 159.2 L 135.2 155.2 L 135.9 155.2 C 135.9 155.2 135.88 155.85 135.9 155.9 Z M 138.4 157.4 C 138.4 158.1 138.9 158.7 139.7 158.7 C 140.2 158.7 140.6 158.5 140.9 158 C 140.9 158 141.4 158.4 141.4 158.4 C 141 159 140.5 159.3 139.7 159.3 C 138.4 159.3 137.7 158.4 137.7 157.2 C 137.7 156 138.5 155.1 139.7 155.1 C 140.7 155.1 141.5 155.9 141.5 157 C 141.5 157.1 141.5 157.3 141.4 157.4 C 141.4 157.4 138.4 157.4 138.4 157.4 Z M 138.5 156.8 C 138.5 156.8 140.7 156.8 140.7 156.8 C 140.7 156.2 140.3 155.7 139.7 155.7 C 139 155.7 138.6 156.2 138.5 156.8 Z M 144.9 159.2 C 144.9 159.2 144.87 158.77 144.9 158.8 C 144.5 159.1 144.2 159.3 143.7 159.3 C 142.9 159.3 142.3 158.9 142.3 158.1 C 142.3 157.1 143.2 156.7 144 156.7 C 144.2 156.7 144.5 156.8 144.8 156.8 C 144.8 156.8 144.8 156.7 144.8 156.7 C 144.8 156.1 144.5 155.7 143.9 155.7 C 143.4 155.7 142.9 155.9 142.6 156.1 C 142.6 156.1 142.4 155.5 142.4 155.5 C 142.8 155.3 143.4 155.1 144 155.1 C 145.1 155.1 145.6 155.7 145.6 156.8 C 145.56 156.76 145.6 159.2 145.6 159.2 L 144.9 159.2 Z M 144.8 157.4 C 144.5 157.3 144.3 157.3 144.1 157.3 C 143.6 157.3 143 157.4 143 158 C 143 158.5 143.3 158.7 143.8 158.7 C 144.2 158.7 144.5 158.5 144.8 158.2 C 144.8 158.2 144.8 157.4 144.8 157.4 Z M 147.6 155.8 C 147.6 155.8 147.63 157.64 147.6 157.6 C 147.6 157.7 147.6 157.8 147.6 158 C 147.7 158.4 147.8 158.6 148.2 158.6 C 148.4 158.6 148.5 158.6 148.6 158.5 C 148.6 158.5 148.8 159.1 148.8 159.1 C 148.6 159.2 148.4 159.3 148.1 159.3 C 147.5 159.3 147.2 159 147 158.6 C 146.9 158.4 146.9 158.1 146.9 157.8 C 146.9 157.81 146.9 155.8 146.9 155.8 L 146.4 155.8 L 146.4 155.2 L 146.9 155.2 L 146.9 154.2 L 147.6 154.2 L 147.6 155.2 L 148.7 155.2 L 148.7 155.8 L 147.6 155.8 Z M 150.4 155.8 C 150.6 155.4 151.1 155.1 151.7 155.1 C 152.2 155.1 152.6 155.3 152.8 155.6 C 153.1 156 153.2 156.5 153.2 157.1 C 153.18 157.11 153.2 159.2 153.2 159.2 L 152.5 159.2 C 152.5 159.2 152.45 157.19 152.5 157.2 C 152.5 156.8 152.4 156.4 152.2 156.1 C 152.1 155.9 151.9 155.8 151.5 155.8 C 151.1 155.8 150.6 156.1 150.4 156.5 C 150.35 156.53 150.4 159.2 150.4 159.2 L 149.6 159.2 L 149.6 153.2 L 150.4 153.2 C 150.4 153.2 150.35 155.85 150.4 155.8 Z M 155.2 155.8 C 155.2 155.8 155.24 157.64 155.2 157.6 C 155.2 157.7 155.2 157.8 155.2 158 C 155.3 158.4 155.4 158.6 155.8 158.6 C 156 158.6 156.1 158.6 156.3 158.5 C 156.3 158.5 156.5 159.1 156.5 159.1 C 156.3 159.2 156 159.3 155.7 159.3 C 155.2 159.3 154.8 159 154.6 158.6 C 154.5 158.4 154.5 158.1 154.5 157.8 C 154.51 157.81 154.5 155.8 154.5 155.8 L 154 155.8 L 154 155.2 L 154.5 155.2 L 154.5 154.2 L 155.2 154.2 L 155.2 155.2 L 156.4 155.2 L 156.4 155.8 L 155.2 155.8 Z M 159.6 159.2 C 159.6 159.2 159.62 158.77 159.6 158.8 C 159.3 159.1 158.9 159.3 158.4 159.3 C 157.7 159.3 157 158.9 157 158.1 C 157 157.1 157.9 156.7 158.8 156.7 C 159 156.7 159.2 156.8 159.6 156.8 C 159.6 156.8 159.6 156.7 159.6 156.7 C 159.6 156.1 159.3 155.7 158.6 155.7 C 158.2 155.7 157.7 155.9 157.4 156.1 C 157.4 156.1 157.2 155.5 157.2 155.5 C 157.6 155.3 158.2 155.1 158.7 155.1 C 159.9 155.1 160.3 155.7 160.3 156.8 C 160.31 156.76 160.3 159.2 160.3 159.2 L 159.6 159.2 Z M 159.6 157.4 C 159.3 157.3 159.1 157.3 158.9 157.3 C 158.4 157.3 157.7 157.4 157.7 158 C 157.7 158.5 158.1 158.7 158.5 158.7 C 158.9 158.7 159.3 158.5 159.6 158.2 C 159.6 158.2 159.6 157.4 159.6 157.4 Z M 164.1 159.2 L 163 157.4 L 162.3 158.1 L 162.3 159.2 L 161.6 159.2 L 161.6 153.2 L 162.3 153.2 L 162.3 157.2 L 162.4 157.2 L 164 155.2 L 164.9 155.2 L 163.5 156.8 L 165 159.2 L 164.1 159.2 Z M 165.7 159.2 L 165.7 155.2 L 166.4 155.2 L 166.4 159.2 L 165.7 159.2 Z M 165.7 154.4 L 165.7 153.6 L 166.4 153.6 L 166.4 154.4 L 165.7 154.4 Z M 168.5 155.2 C 168.5 155.2 168.52 155.85 168.5 155.8 C 168.8 155.4 169.3 155.1 169.8 155.1 C 170.4 155.1 170.8 155.3 171 155.6 C 171.3 156 171.3 156.5 171.3 157.1 C 171.34 157.11 171.3 159.2 171.3 159.2 L 170.6 159.2 C 170.6 159.2 170.62 157.19 170.6 157.2 C 170.6 156.8 170.6 156.4 170.4 156.1 C 170.3 155.9 170.1 155.8 169.7 155.8 C 169.2 155.8 168.8 156.1 168.5 156.5 C 168.52 156.53 168.5 159.2 168.5 159.2 L 167.8 159.2 L 167.8 155.2 L 168.5 155.2 Z M 176.3 159 C 176.3 159.4 176.2 159.7 176.1 160 C 175.7 160.7 175 161 174.3 161 C 173.7 161 173 160.8 172.5 160.4 C 172.5 160.4 172.8 159.8 172.8 159.8 C 173.2 160.1 173.8 160.3 174.3 160.3 C 175 160.3 175.6 160 175.6 159.1 C 175.6 159.1 175.6 158.6 175.6 158.6 C 175.3 159 174.8 159.2 174.3 159.2 C 173.2 159.2 172.3 158.3 172.3 157.1 C 172.3 156.1 173.1 155.1 174.3 155.1 C 174.8 155.1 175.3 155.3 175.6 155.6 C 175.58 155.63 175.6 155.2 175.6 155.2 L 176.3 155.2 C 176.3 155.2 176.3 158.97 176.3 159 Z M 175.6 156.4 C 175.3 156 174.8 155.8 174.4 155.8 C 173.5 155.8 173 156.5 173 157.2 C 173 157.9 173.6 158.5 174.4 158.5 C 174.8 158.5 175.4 158.3 175.6 157.8 C 175.6 157.8 175.6 156.4 175.6 156.4 Z M 180.3 153.2 C 180.3 153.2 180.33 155.73 180.3 155.7 C 180.6 155.3 181.1 155.1 181.6 155.1 C 182.8 155.1 183.6 156 183.6 157.2 C 183.6 158.3 182.8 159.3 181.6 159.3 C 181.1 159.3 180.6 159.1 180.3 158.8 C 180.33 158.76 180.3 159.2 180.3 159.2 L 179.6 159.2 L 179.6 153.2 L 180.3 153.2 Z M 180.3 158 C 180.6 158.4 181.1 158.6 181.5 158.6 C 182.4 158.6 182.9 157.9 182.9 157.2 C 182.9 156.4 182.3 155.8 181.5 155.8 C 181.1 155.8 180.5 156 180.3 156.5 C 180.3 156.5 180.3 158 180.3 158 Z M 185 157.4 C 185 158.1 185.5 158.7 186.3 158.7 C 186.8 158.7 187.2 158.5 187.5 158 C 187.5 158 188 158.4 188 158.4 C 187.6 159 187.1 159.3 186.3 159.3 C 185 159.3 184.3 158.4 184.3 157.2 C 184.3 156 185.1 155.1 186.3 155.1 C 187.3 155.1 188.1 155.9 188.1 157 C 188.1 157.1 188.1 157.3 188 157.4 C 188 157.4 185 157.4 185 157.4 Z M 185.1 156.8 C 185.1 156.8 187.3 156.8 187.3 156.8 C 187.3 156.2 186.9 155.7 186.3 155.7 C 185.6 155.7 185.2 156.2 185.1 156.8 Z M 189.8 155.2 C 189.8 155.2 189.82 155.85 189.8 155.8 C 190.1 155.4 190.6 155.1 191.1 155.1 C 191.7 155.1 192 155.3 192.3 155.6 C 192.6 156 192.6 156.5 192.6 157.1 C 192.64 157.11 192.6 159.2 192.6 159.2 L 191.9 159.2 C 191.9 159.2 191.91 157.19 191.9 157.2 C 191.9 156.8 191.9 156.4 191.7 156.1 C 191.6 155.9 191.4 155.8 191 155.8 C 190.5 155.8 190.1 156.1 189.8 156.5 C 189.82 156.53 189.8 159.2 189.8 159.2 L 189.1 159.2 L 189.1 155.2 L 189.8 155.2 Z M 196.9 158.9 C 196.6 159.1 196.1 159.3 195.6 159.3 C 194.5 159.3 193.6 158.5 193.6 157.2 C 193.6 156 194.5 155.1 195.7 155.1 C 196.1 155.1 196.5 155.2 196.8 155.4 C 196.8 155.4 196.5 156 196.5 156 C 196.2 155.9 195.9 155.8 195.7 155.8 C 194.9 155.8 194.3 156.4 194.3 157.2 C 194.3 158.1 195 158.6 195.7 158.6 C 195.9 158.6 196.3 158.5 196.5 158.3 C 196.5 158.3 196.9 158.9 196.9 158.9 Z M 198.5 155.8 C 198.8 155.4 199.2 155.1 199.8 155.1 C 200.3 155.1 200.7 155.3 200.9 155.6 C 201.2 156 201.3 156.5 201.3 157.1 C 201.29 157.11 201.3 159.2 201.3 159.2 L 200.6 159.2 C 200.6 159.2 200.56 157.19 200.6 157.2 C 200.6 156.8 200.5 156.4 200.4 156.1 C 200.2 155.9 200 155.8 199.7 155.8 C 199.2 155.8 198.8 156.1 198.5 156.5 C 198.46 156.53 198.5 159.2 198.5 159.2 L 197.7 159.2 L 197.7 153.2 L 198.5 153.2 C 198.5 153.2 198.46 155.85 198.5 155.8 Z M 203 157.4 C 203 158.1 203.5 158.7 204.3 158.7 C 204.8 158.7 205.2 158.5 205.5 158 C 205.5 158 206 158.4 206 158.4 C 205.6 159 205 159.3 204.2 159.3 C 203 159.3 202.2 158.4 202.2 157.2 C 202.2 156 203.1 155.1 204.2 155.1 C 205.3 155.1 206.1 155.9 206.1 157 C 206.1 157.1 206 157.3 206 157.4 C 206 157.4 203 157.4 203 157.4 Z M 203 156.8 C 203 156.8 205.3 156.8 205.3 156.8 C 205.3 156.2 204.8 155.7 204.2 155.7 C 203.6 155.7 203.2 156.2 203 156.8 Z M 209 156 C 208.8 155.8 208.5 155.7 208.2 155.7 C 207.9 155.7 207.6 155.9 207.6 156.2 C 207.6 156.5 208 156.7 208.4 156.8 C 208.9 157 209.6 157.3 209.6 158 C 209.6 158.9 208.9 159.3 208.1 159.3 C 207.6 159.3 207 159.1 206.7 158.7 C 206.7 158.7 207.2 158.3 207.2 158.3 C 207.5 158.5 207.8 158.7 208.1 158.7 C 208.5 158.7 208.8 158.5 208.8 158.1 C 208.8 157.8 208.5 157.6 208.1 157.4 C 207.5 157.2 206.9 157 206.9 156.3 C 206.9 155.5 207.6 155.1 208.2 155.1 C 208.7 155.1 209.1 155.2 209.4 155.5 C 209.4 155.5 209 156 209 156 Z M 213.4 155.8 C 213.4 155.8 213.44 157.64 213.4 157.6 C 213.4 157.7 213.4 157.8 213.4 158 C 213.5 158.4 213.6 158.6 214 158.6 C 214.2 158.6 214.3 158.6 214.5 158.5 C 214.5 158.5 214.7 159.1 214.7 159.1 C 214.5 159.2 214.2 159.3 213.9 159.3 C 213.4 159.3 213 159 212.8 158.6 C 212.7 158.4 212.7 158.1 212.7 157.8 C 212.71 157.81 212.7 155.8 212.7 155.8 L 212.2 155.8 L 212.2 155.2 L 212.7 155.2 L 212.7 154.2 L 213.4 154.2 L 213.4 155.2 L 214.6 155.2 L 214.6 155.8 L 213.4 155.8 Z M 216.2 155.8 C 216.5 155.4 216.9 155.1 217.5 155.1 C 218 155.1 218.4 155.3 218.6 155.6 C 218.9 156 219 156.5 219 157.1 C 218.99 157.11 219 159.2 219 159.2 L 218.3 159.2 C 218.3 159.2 218.26 157.19 218.3 157.2 C 218.3 156.8 218.2 156.4 218.1 156.1 C 217.9 155.9 217.7 155.8 217.4 155.8 C 216.9 155.8 216.5 156.1 216.2 156.5 C 216.17 156.53 216.2 159.2 216.2 159.2 L 215.4 159.2 L 215.4 153.2 L 216.2 153.2 C 216.2 153.2 216.17 155.85 216.2 155.8 Z M 222.7 159.2 C 222.7 159.2 222.66 158.77 222.7 158.8 C 222.3 159.1 222 159.3 221.5 159.3 C 220.7 159.3 220 158.9 220 158.1 C 220 157.1 221 156.7 221.8 156.7 C 222 156.7 222.3 156.8 222.6 156.8 C 222.6 156.8 222.6 156.7 222.6 156.7 C 222.6 156.1 222.3 155.7 221.7 155.7 C 221.2 155.7 220.7 155.9 220.4 156.1 C 220.4 156.1 220.2 155.5 220.2 155.5 C 220.6 155.3 221.2 155.1 221.8 155.1 C 222.9 155.1 223.4 155.7 223.4 156.8 C 223.36 156.76 223.4 159.2 223.4 159.2 L 222.7 159.2 Z M 222.6 157.4 C 222.3 157.3 222.1 157.3 221.9 157.3 C 221.4 157.3 220.8 157.4 220.8 158 C 220.8 158.5 221.1 158.7 221.6 158.7 C 222 158.7 222.3 158.5 222.6 158.2 C 222.6 158.2 222.6 157.4 222.6 157.4 Z M 225.4 155.8 C 225.4 155.8 225.42 157.64 225.4 157.6 C 225.4 157.7 225.4 157.8 225.4 158 C 225.5 158.4 225.6 158.6 226 158.6 C 226.2 158.6 226.3 158.6 226.4 158.5 C 226.4 158.5 226.6 159.1 226.6 159.1 C 226.4 159.2 226.2 159.3 225.9 159.3 C 225.3 159.3 225 159 224.8 158.6 C 224.7 158.4 224.7 158.1 224.7 157.8 C 224.7 157.81 224.7 155.8 224.7 155.8 L 224.2 155.8 L 224.2 155.2 L 224.7 155.2 L 224.7 154.2 L 225.4 154.2 L 225.4 155.2 L 226.5 155.2 L 226.5 155.8 L 225.4 155.8 Z M 231.5 153.9 C 231.3 153.8 231.2 153.8 231 153.8 C 230.8 153.8 230.6 153.8 230.5 153.9 C 230.3 154 230.3 154.3 230.3 154.7 C 230.3 154.69 230.3 155.2 230.3 155.2 L 231.4 155.2 L 231.4 155.8 L 230.3 155.8 L 230.3 159.2 L 229.6 159.2 L 229.6 155.8 L 229.1 155.8 L 229.1 155.2 L 229.6 155.2 C 229.6 155.2 229.58 154.61 229.6 154.6 C 229.6 154.2 229.6 153.8 229.8 153.6 C 230 153.3 230.4 153.1 230.9 153.1 C 231.2 153.1 231.4 153.2 231.7 153.3 C 231.7 153.3 231.5 153.9 231.5 153.9 Z M 234.9 158.5 C 234.6 159 234.1 159.3 233.6 159.3 C 233 159.3 232.7 159.1 232.4 158.8 C 232.2 158.4 232.1 157.9 232.1 157.3 C 232.07 157.27 232.1 155.2 232.1 155.2 L 232.8 155.2 C 232.8 155.2 232.8 157.19 232.8 157.2 C 232.8 157.6 232.8 158 233 158.3 C 233.1 158.5 233.4 158.6 233.7 158.6 C 234.2 158.6 234.6 158.3 234.9 157.8 C 234.9 157.85 234.9 155.2 234.9 155.2 L 235.6 155.2 L 235.6 159.2 L 234.9 159.2 C 234.9 159.2 234.9 158.53 234.9 158.5 Z M 237.7 155.2 C 237.7 155.2 237.7 155.85 237.7 155.8 C 238 155.4 238.5 155.1 239 155.1 C 239.6 155.1 239.9 155.3 240.2 155.6 C 240.4 156 240.5 156.5 240.5 157.1 C 240.52 157.11 240.5 159.2 240.5 159.2 L 239.8 159.2 C 239.8 159.2 239.79 157.19 239.8 157.2 C 239.8 156.8 239.8 156.4 239.6 156.1 C 239.5 155.9 239.2 155.8 238.9 155.8 C 238.4 155.8 238 156.1 237.7 156.5 C 237.7 156.53 237.7 159.2 237.7 159.2 L 237 159.2 L 237 155.2 L 237.7 155.2 Z M 244.8 158.9 C 244.5 159.1 244 159.3 243.5 159.3 C 242.4 159.3 241.5 158.5 241.5 157.2 C 241.5 156 242.4 155.1 243.6 155.1 C 244 155.1 244.4 155.2 244.7 155.4 C 244.7 155.4 244.4 156 244.4 156 C 244.1 155.9 243.8 155.8 243.5 155.8 C 242.8 155.8 242.2 156.4 242.2 157.2 C 242.2 158.1 242.8 158.6 243.5 158.6 C 243.8 158.6 244.2 158.5 244.4 158.3 C 244.4 158.3 244.8 158.9 244.8 158.9 Z M 246.5 155.8 C 246.5 155.8 246.5 157.64 246.5 157.6 C 246.5 157.7 246.5 157.8 246.5 158 C 246.5 158.4 246.7 158.6 247.1 158.6 C 247.2 158.6 247.4 158.6 247.5 158.5 C 247.5 158.5 247.7 159.1 247.7 159.1 C 247.5 159.2 247.2 159.3 247 159.3 C 246.4 159.3 246.1 159 245.9 158.6 C 245.8 158.4 245.8 158.1 245.8 157.8 C 245.78 157.81 245.8 155.8 245.8 155.8 L 245.2 155.8 L 245.2 155.2 L 245.8 155.2 L 245.8 154.2 L 246.5 154.2 L 246.5 155.2 L 247.6 155.2 L 247.6 155.8 L 246.5 155.8 Z M 248.5 159.2 L 248.5 155.2 L 249.2 155.2 L 249.2 159.2 L 248.5 159.2 Z M 248.5 154.4 L 248.5 153.6 L 249.2 153.6 L 249.2 154.4 L 248.5 154.4 Z M 254.3 157.2 C 254.3 158.4 253.4 159.3 252.3 159.3 C 251.1 159.3 250.2 158.4 250.2 157.2 C 250.2 156 251.1 155.1 252.3 155.1 C 253.4 155.1 254.3 156 254.3 157.2 Z M 252.3 155.8 C 251.5 155.8 251 156.4 251 157.2 C 251 158 251.5 158.6 252.3 158.6 C 253 158.6 253.6 158 253.6 157.2 C 253.6 156.4 253 155.8 252.3 155.8 Z M 256.1 155.2 C 256.1 155.2 256.06 155.85 256.1 155.8 C 256.4 155.4 256.8 155.1 257.4 155.1 C 257.9 155.1 258.3 155.3 258.5 155.6 C 258.8 156 258.9 156.5 258.9 157.1 C 258.88 157.11 258.9 159.2 258.9 159.2 L 258.2 159.2 C 258.2 159.2 258.15 157.19 258.2 157.2 C 258.2 156.8 258.1 156.4 257.9 156.1 C 257.8 155.9 257.6 155.8 257.2 155.8 C 256.8 155.8 256.3 156.1 256.1 156.5 C 256.06 156.53 256.1 159.2 256.1 159.2 L 255.3 159.2 L 255.3 155.2 L 256.1 155.2 Z M 264.6 159.2 C 264.6 159.2 264.55 158.77 264.6 158.8 C 264.2 159.1 263.9 159.3 263.4 159.3 C 262.6 159.3 261.9 158.9 261.9 158.1 C 261.9 157.1 262.8 156.7 263.7 156.7 C 263.9 156.7 264.2 156.8 264.5 156.8 C 264.5 156.8 264.5 156.7 264.5 156.7 C 264.5 156.1 264.2 155.7 263.6 155.7 C 263.1 155.7 262.6 155.9 262.3 156.1 C 262.3 156.1 262.1 155.5 262.1 155.5 C 262.5 155.3 263.1 155.1 263.7 155.1 C 264.8 155.1 265.2 155.7 265.2 156.8 C 265.25 156.76 265.2 159.2 265.2 159.2 L 264.6 159.2 Z M 264.5 157.4 C 264.2 157.3 264 157.3 263.8 157.3 C 263.3 157.3 262.6 157.4 262.6 158 C 262.6 158.5 263 158.7 263.4 158.7 C 263.8 158.7 264.2 158.5 264.5 158.2 C 264.5 158.2 264.5 157.4 264.5 157.4 Z M 268.5 156 C 268.3 155.8 268 155.7 267.7 155.7 C 267.3 155.7 267.1 155.9 267.1 156.2 C 267.1 156.5 267.5 156.7 267.9 156.8 C 268.4 157 269 157.3 269 158 C 269 158.9 268.3 159.3 267.6 159.3 C 267 159.3 266.5 159.1 266.2 158.7 C 266.2 158.7 266.7 158.3 266.7 158.3 C 267 158.5 267.3 158.7 267.6 158.7 C 268 158.7 268.3 158.5 268.3 158.1 C 268.3 157.8 268 157.6 267.6 157.4 C 267 157.2 266.4 157 266.4 156.3 C 266.4 155.5 267 155.1 267.7 155.1 C 268.2 155.1 268.6 155.2 268.9 155.5 C 268.9 155.5 268.5 156 268.5 156 Z M 272.9 153.2 C 272.9 153.2 272.88 155.73 272.9 155.7 C 273.2 155.3 273.7 155.1 274.2 155.1 C 275.3 155.1 276.2 156 276.2 157.2 C 276.2 158.3 275.4 159.3 274.1 159.3 C 273.7 159.3 273.2 159.1 272.9 158.8 C 272.88 158.76 272.9 159.2 272.9 159.2 L 272.2 159.2 L 272.2 153.2 L 272.9 153.2 Z M 272.9 158 C 273.2 158.4 273.6 158.6 274 158.6 C 275 158.6 275.4 157.9 275.4 157.2 C 275.4 156.4 274.9 155.8 274.1 155.8 C 273.6 155.8 273.1 156 272.9 156.5 C 272.9 156.5 272.9 158 272.9 158 Z M 280.9 157.2 C 280.9 158.4 280 159.3 278.9 159.3 C 277.7 159.3 276.8 158.4 276.8 157.2 C 276.8 156 277.7 155.1 278.9 155.1 C 280 155.1 280.9 156 280.9 157.2 Z M 278.9 155.8 C 278.1 155.8 277.6 156.4 277.6 157.2 C 277.6 158 278.1 158.6 278.9 158.6 C 279.6 158.6 280.2 158 280.2 157.2 C 280.2 156.4 279.6 155.8 278.9 155.8 Z M 282.7 155.8 C 282.7 155.8 282.68 157.64 282.7 157.6 C 282.7 157.7 282.7 157.8 282.7 158 C 282.7 158.4 282.8 158.6 283.2 158.6 C 283.4 158.6 283.6 158.6 283.7 158.5 C 283.7 158.5 283.9 159.1 283.9 159.1 C 283.7 159.2 283.4 159.3 283.2 159.3 C 282.6 159.3 282.2 159 282.1 158.6 C 282 158.4 282 158.1 282 157.8 C 281.95 157.81 282 155.8 282 155.8 L 281.4 155.8 L 281.4 155.2 L 282 155.2 L 282 154.2 L 282.7 154.2 L 282.7 155.2 L 283.8 155.2 L 283.8 155.8 L 282.7 155.8 Z M 285.4 155.8 C 285.7 155.4 286.2 155.1 286.7 155.1 C 287.3 155.1 287.6 155.3 287.9 155.6 C 288.1 156 288.2 156.5 288.2 157.1 C 288.23 157.11 288.2 159.2 288.2 159.2 L 287.5 159.2 C 287.5 159.2 287.5 157.19 287.5 157.2 C 287.5 156.8 287.5 156.4 287.3 156.1 C 287.2 155.9 287 155.8 286.6 155.8 C 286.1 155.8 285.7 156.1 285.4 156.5 C 285.41 156.53 285.4 159.2 285.4 159.2 L 284.7 159.2 L 284.7 153.2 L 285.4 153.2 C 285.4 153.2 285.41 155.85 285.4 155.8 Z M 293.5 156 C 293.3 155.8 293 155.7 292.7 155.7 C 292.3 155.7 292.1 155.9 292.1 156.2 C 292.1 156.5 292.5 156.7 292.9 156.8 C 293.4 157 294 157.3 294 158 C 294 158.9 293.3 159.3 292.6 159.3 C 292 159.3 291.5 159.1 291.2 158.7 C 291.2 158.7 291.7 158.3 291.7 158.3 C 292 158.5 292.3 158.7 292.6 158.7 C 293 158.7 293.3 158.5 293.3 158.1 C 293.3 157.8 292.9 157.6 292.5 157.4 C 292 157.2 291.4 157 291.4 156.3 C 291.4 155.5 292 155.1 292.7 155.1 C 293.1 155.1 293.6 155.2 293.9 155.5 C 293.9 155.5 293.5 156 293.5 156 Z M 295.9 155.8 C 295.9 155.8 295.9 157.64 295.9 157.6 C 295.9 157.7 295.9 157.8 295.9 158 C 295.9 158.4 296.1 158.6 296.5 158.6 C 296.6 158.6 296.8 158.6 296.9 158.5 C 296.9 158.5 297.1 159.1 297.1 159.1 C 296.9 159.2 296.6 159.3 296.4 159.3 C 295.8 159.3 295.5 159 295.3 158.6 C 295.2 158.4 295.2 158.1 295.2 157.8 C 295.18 157.81 295.2 155.8 295.2 155.8 L 294.6 155.8 L 294.6 155.2 L 295.2 155.2 L 295.2 154.2 L 295.9 154.2 L 295.9 155.2 L 297 155.2 L 297 155.8 L 295.9 155.8 Z M 301.6 157.2 C 301.6 158.4 300.8 159.3 299.6 159.3 C 298.4 159.3 297.6 158.4 297.6 157.2 C 297.6 156 298.4 155.1 299.6 155.1 C 300.8 155.1 301.6 156 301.6 157.2 Z M 299.6 155.8 C 298.9 155.8 298.3 156.4 298.3 157.2 C 298.3 158 298.9 158.6 299.6 158.6 C 300.4 158.6 300.9 158 300.9 157.2 C 300.9 156.4 300.4 155.8 299.6 155.8 Z M 303.4 155.9 C 303.6 155.4 304 155.1 304.4 155.1 C 304.6 155.1 304.7 155.1 304.8 155.1 C 304.8 155.1 304.7 155.9 304.7 155.9 C 304.6 155.9 304.5 155.8 304.3 155.8 C 303.9 155.8 303.6 156.1 303.4 156.5 C 303.38 156.51 303.4 159.2 303.4 159.2 L 302.7 159.2 L 302.7 155.2 L 303.4 155.2 C 303.4 155.2 303.38 155.85 303.4 155.9 Z M 307.9 159.2 C 307.9 159.2 307.89 158.77 307.9 158.8 C 307.6 159.1 307.2 159.3 306.7 159.3 C 306 159.3 305.3 158.9 305.3 158.1 C 305.3 157.1 306.2 156.7 307.1 156.7 C 307.3 156.7 307.5 156.8 307.9 156.8 C 307.9 156.8 307.9 156.7 307.9 156.7 C 307.9 156.1 307.6 155.7 306.9 155.7 C 306.4 155.7 306 155.9 305.6 156.1 C 305.6 156.1 305.4 155.5 305.4 155.5 C 305.8 155.3 306.4 155.1 307 155.1 C 308.2 155.1 308.6 155.7 308.6 156.8 C 308.58 156.76 308.6 159.2 308.6 159.2 L 307.9 159.2 Z M 307.9 157.4 C 307.6 157.3 307.3 157.3 307.1 157.3 C 306.6 157.3 306 157.4 306 158 C 306 158.5 306.4 158.7 306.8 158.7 C 307.2 158.7 307.5 158.5 307.9 158.2 C 307.9 158.2 307.9 157.4 307.9 157.4 Z M 313.5 159 C 313.5 159.4 313.5 159.7 313.3 160 C 313 160.7 312.3 161 311.5 161 C 310.9 161 310.2 160.8 309.8 160.4 C 309.8 160.4 310 159.8 310 159.8 C 310.4 160.1 311 160.3 311.5 160.3 C 312.2 160.3 312.8 160 312.8 159.1 C 312.8 159.1 312.8 158.6 312.8 158.6 C 312.5 159 312 159.2 311.5 159.2 C 310.4 159.2 309.5 158.3 309.5 157.1 C 309.5 156.1 310.3 155.1 311.6 155.1 C 312 155.1 312.5 155.3 312.8 155.6 C 312.82 155.63 312.8 155.2 312.8 155.2 L 313.5 155.2 C 313.5 155.2 313.54 158.97 313.5 159 Z M 312.8 156.4 C 312.5 156 312.1 155.8 311.7 155.8 C 310.7 155.8 310.3 156.5 310.3 157.2 C 310.3 157.9 310.8 158.5 311.6 158.5 C 312.1 158.5 312.6 158.3 312.8 157.8 C 312.8 157.8 312.8 156.4 312.8 156.4 Z M 315.2 157.4 C 315.3 158.1 315.8 158.7 316.5 158.7 C 317 158.7 317.5 158.5 317.7 158 C 317.7 158 318.2 158.4 318.2 158.4 C 317.8 159 317.3 159.3 316.5 159.3 C 315.2 159.3 314.5 158.4 314.5 157.2 C 314.5 156 315.4 155.1 316.5 155.1 C 317.5 155.1 318.3 155.9 318.3 157 C 318.3 157.1 318.3 157.3 318.3 157.4 C 318.3 157.4 315.2 157.4 315.2 157.4 Z M 315.3 156.8 C 315.3 156.8 317.6 156.8 317.6 156.8 C 317.5 156.2 317.1 155.7 316.5 155.7 C 315.8 155.7 315.4 156.2 315.3 156.8 Z M 323.7 159.2 C 323.7 159.2 323.7 158.77 323.7 158.8 C 323.4 159.1 323 159.3 322.5 159.3 C 321.8 159.3 321.1 158.9 321.1 158.1 C 321.1 157.1 322 156.7 322.9 156.7 C 323.1 156.7 323.3 156.8 323.7 156.8 C 323.7 156.8 323.7 156.7 323.7 156.7 C 323.7 156.1 323.4 155.7 322.7 155.7 C 322.3 155.7 321.8 155.9 321.4 156.1 C 321.4 156.1 321.2 155.5 321.2 155.5 C 321.6 155.3 322.3 155.1 322.8 155.1 C 324 155.1 324.4 155.7 324.4 156.8 C 324.39 156.76 324.4 159.2 324.4 159.2 L 323.7 159.2 Z M 323.7 157.4 C 323.4 157.3 323.1 157.3 322.9 157.3 C 322.4 157.3 321.8 157.4 321.8 158 C 321.8 158.5 322.2 158.7 322.6 158.7 C 323 158.7 323.3 158.5 323.7 158.2 C 323.7 158.2 323.7 157.4 323.7 157.4 Z M 326.4 155.2 C 326.4 155.2 326.41 155.85 326.4 155.8 C 326.7 155.4 327.2 155.1 327.7 155.1 C 328.3 155.1 328.6 155.3 328.9 155.6 C 329.2 156 329.2 156.5 329.2 157.1 C 329.24 157.11 329.2 159.2 329.2 159.2 L 328.5 159.2 C 328.5 159.2 328.51 157.19 328.5 157.2 C 328.5 156.8 328.5 156.4 328.3 156.1 C 328.2 155.9 328 155.8 327.6 155.8 C 327.1 155.8 326.7 156.1 326.4 156.5 C 326.41 156.53 326.4 159.2 326.4 159.2 L 325.7 159.2 L 325.7 155.2 L 326.4 155.2 Z M 330.2 157.2 C 330.2 156.1 331 155.1 332.2 155.1 C 332.7 155.1 333.2 155.3 333.5 155.6 C 333.47 155.63 333.5 153.2 333.5 153.2 L 334.2 153.2 L 334.2 159.2 L 333.5 159.2 C 333.5 159.2 333.47 158.65 333.5 158.7 C 333.2 159.1 332.7 159.3 332.2 159.3 C 331 159.3 330.2 158.4 330.2 157.2 Z M 333.5 157.9 C 333.5 157.9 333.5 156.4 333.5 156.4 C 333.2 156 332.7 155.8 332.3 155.8 C 331.4 155.8 330.9 156.5 330.9 157.2 C 330.9 157.9 331.5 158.6 332.3 158.6 C 332.7 158.6 333.3 158.4 333.5 157.9 Z M 339.5 156 C 339.3 155.8 339 155.7 338.7 155.7 C 338.3 155.7 338.1 155.9 338.1 156.2 C 338.1 156.5 338.5 156.7 338.9 156.8 C 339.4 157 340 157.3 340 158 C 340 158.9 339.3 159.3 338.6 159.3 C 338 159.3 337.5 159.1 337.2 158.7 C 337.2 158.7 337.7 158.3 337.7 158.3 C 338 158.5 338.3 158.7 338.6 158.7 C 339 158.7 339.3 158.5 339.3 158.1 C 339.3 157.8 339 157.6 338.6 157.4 C 338 157.2 337.4 157 337.4 156.3 C 337.4 155.5 338 155.1 338.7 155.1 C 339.2 155.1 339.6 155.2 339.9 155.5 C 339.9 155.5 339.5 156 339.5 156 Z M 341.5 157.4 C 341.6 158.1 342.1 158.7 342.8 158.7 C 343.4 158.7 343.8 158.5 344 158 C 344 158 344.6 158.4 344.6 158.4 C 344.2 159 343.6 159.3 342.8 159.3 C 341.5 159.3 340.8 158.4 340.8 157.2 C 340.8 156 341.7 155.1 342.8 155.1 C 343.9 155.1 344.6 155.9 344.6 157 C 344.6 157.1 344.6 157.3 344.6 157.4 C 344.6 157.4 341.5 157.4 341.5 157.4 Z M 341.6 156.8 C 341.6 156.8 343.9 156.8 343.9 156.8 C 343.8 156.2 343.4 155.7 342.8 155.7 C 342.2 155.7 341.7 156.2 341.6 156.8 Z M 348 159.2 C 348 159.2 348.01 158.77 348 158.8 C 347.7 159.1 347.3 159.3 346.8 159.3 C 346.1 159.3 345.4 158.9 345.4 158.1 C 345.4 157.1 346.3 156.7 347.2 156.7 C 347.4 156.7 347.6 156.8 348 156.8 C 348 156.8 348 156.7 348 156.7 C 348 156.1 347.7 155.7 347 155.7 C 346.6 155.7 346.1 155.9 345.8 156.1 C 345.8 156.1 345.5 155.5 345.5 155.5 C 346 155.3 346.6 155.1 347.1 155.1 C 348.3 155.1 348.7 155.7 348.7 156.8 C 348.7 156.76 348.7 159.2 348.7 159.2 L 348 159.2 Z M 348 157.4 C 347.7 157.3 347.5 157.3 347.3 157.3 C 346.8 157.3 346.1 157.4 346.1 158 C 346.1 158.5 346.5 158.7 346.9 158.7 C 347.3 158.7 347.7 158.5 348 158.2 C 348 158.2 348 157.4 348 157.4 Z M 350.8 155.8 C 350.8 155.8 350.77 157.64 350.8 157.6 C 350.8 157.7 350.8 157.8 350.8 158 C 350.8 158.4 350.9 158.6 351.3 158.6 C 351.5 158.6 351.7 158.6 351.8 158.5 C 351.8 158.5 352 159.1 352 159.1 C 351.8 159.2 351.5 159.3 351.2 159.3 C 350.7 159.3 350.3 159 350.2 158.6 C 350.1 158.4 350 158.1 350 157.8 C 350.04 157.81 350 155.8 350 155.8 L 349.5 155.8 L 349.5 155.2 L 350 155.2 L 350 154.2 L 350.8 154.2 L 350.8 155.2 L 351.9 155.2 L 351.9 155.8 L 350.8 155.8 Z M 352.8 159.2 L 352.8 155.2 L 353.5 155.2 L 353.5 159.2 L 352.8 159.2 Z M 352.8 154.4 L 352.8 153.6 L 353.5 153.6 L 353.5 154.4 L 352.8 154.4 Z M 355.6 155.2 C 355.6 155.2 355.57 155.85 355.6 155.8 C 355.9 155.4 356.3 155.1 356.9 155.1 C 357.4 155.1 357.8 155.3 358 155.6 C 358.3 156 358.4 156.5 358.4 157.1 C 358.39 157.11 358.4 159.2 358.4 159.2 L 357.7 159.2 C 357.7 159.2 357.66 157.19 357.7 157.2 C 357.7 156.8 357.6 156.4 357.5 156.1 C 357.3 155.9 357.1 155.8 356.8 155.8 C 356.3 155.8 355.9 156.1 355.6 156.5 C 355.57 156.53 355.6 159.2 355.6 159.2 L 354.8 159.2 L 354.8 155.2 L 355.6 155.2 Z M 363.3 159 C 363.3 159.4 363.3 159.7 363.1 160 C 362.8 160.7 362.1 161 361.3 161 C 360.7 161 360 160.8 359.6 160.4 C 359.6 160.4 359.8 159.8 359.8 159.8 C 360.2 160.1 360.8 160.3 361.3 160.3 C 362 160.3 362.6 160 362.6 159.1 C 362.6 159.1 362.6 158.6 362.6 158.6 C 362.3 159 361.8 159.2 361.3 159.2 C 360.2 159.2 359.4 158.3 359.4 157.1 C 359.4 156.1 360.1 155.1 361.4 155.1 C 361.8 155.1 362.3 155.3 362.6 155.6 C 362.62 155.63 362.6 155.2 362.6 155.2 L 363.3 155.2 C 363.3 155.2 363.35 158.97 363.3 159 Z M 362.6 156.4 C 362.3 156 361.9 155.8 361.5 155.8 C 360.5 155.8 360.1 156.5 360.1 157.2 C 360.1 157.9 360.6 158.5 361.4 158.5 C 361.9 158.5 362.4 158.3 362.6 157.8 C 362.6 157.8 362.6 156.4 362.6 156.4 Z M 364.6 159.2 L 364.6 158.3 L 365.4 158.3 L 365.4 159.2 L 364.6 159.2 Z " stroke="none" fill="#535a5d"/>  </g>  <g id="Polygon40194">    <path d="M 152.9 143.2 C 152.3 143.2 151.9 143.5 151.9 144 C 151.9 144.4 152.5 144.6 153.1 144.8 C 153.9 145.1 154.8 145.5 154.8 146.5 C 154.8 147.8 153.7 148.3 152.8 148.3 C 152 148.3 151.4 148 150.8 147.4 C 150.8 147.4 151.3 146.9 151.3 146.9 C 151.9 147.5 152.3 147.6 152.8 147.6 C 153.4 147.6 154 147.3 154 146.6 C 154 146 153.4 145.8 152.7 145.6 C 152 145.3 151.1 144.9 151.1 144 C 151.1 143 151.9 142.5 152.8 142.5 C 153.5 142.5 154.1 142.7 154.6 143.1 C 154.6 143.1 154.1 143.6 154.1 143.6 C 153.8 143.4 153.4 143.2 152.9 143.2 Z M 156 148.2 L 156 144.2 L 156.7 144.2 L 156.7 148.2 L 156 148.2 Z M 156 143.4 L 156 142.6 L 156.7 142.6 L 156.7 143.4 L 156 143.4 Z M 158.8 144.8 C 158.8 144.8 158.82 146.64 158.8 146.6 C 158.8 146.7 158.8 146.8 158.8 147 C 158.8 147.4 159 147.6 159.4 147.6 C 159.5 147.6 159.7 147.6 159.8 147.5 C 159.8 147.5 160 148.1 160 148.1 C 159.8 148.2 159.6 148.3 159.3 148.3 C 158.7 148.3 158.4 148 158.2 147.6 C 158.1 147.4 158.1 147.1 158.1 146.8 C 158.09 146.81 158.1 144.8 158.1 144.8 L 157.6 144.8 L 157.6 144.2 L 158.1 144.2 L 158.1 143.2 L 158.8 143.2 L 158.8 144.2 L 159.9 144.2 L 159.9 144.8 L 158.8 144.8 Z M 166.6 146.2 C 166.6 147.4 165.7 148.3 164.5 148.3 C 163.4 148.3 162.5 147.4 162.5 146.2 C 162.5 145 163.4 144.1 164.5 144.1 C 165.7 144.1 166.6 145 166.6 146.2 Z M 164.5 144.8 C 163.8 144.8 163.2 145.4 163.2 146.2 C 163.2 147 163.8 147.6 164.5 147.6 C 165.3 147.6 165.8 147 165.8 146.2 C 165.8 145.4 165.3 144.8 164.5 144.8 Z M 168.3 144.9 C 168.5 144.4 168.9 144.1 169.3 144.1 C 169.5 144.1 169.6 144.1 169.8 144.1 C 169.8 144.1 169.6 144.9 169.6 144.9 C 169.5 144.9 169.4 144.8 169.2 144.8 C 168.8 144.8 168.5 145.1 168.3 145.5 C 168.3 145.51 168.3 148.2 168.3 148.2 L 167.6 148.2 L 167.6 144.2 L 168.3 144.2 C 168.3 144.2 168.3 144.85 168.3 144.9 Z M 174.4 145 C 174.2 144.8 173.9 144.7 173.6 144.7 C 173.2 144.7 173 144.9 173 145.2 C 173 145.5 173.4 145.7 173.8 145.8 C 174.3 146 174.9 146.3 174.9 147 C 174.9 147.9 174.2 148.3 173.5 148.3 C 172.9 148.3 172.4 148.1 172.1 147.7 C 172.1 147.7 172.6 147.3 172.6 147.3 C 172.9 147.5 173.2 147.7 173.5 147.7 C 173.9 147.7 174.2 147.5 174.2 147.1 C 174.2 146.8 173.8 146.6 173.4 146.4 C 172.9 146.2 172.3 146 172.3 145.3 C 172.3 144.5 172.9 144.1 173.6 144.1 C 174 144.1 174.5 144.2 174.8 144.5 C 174.8 144.5 174.4 145 174.4 145 Z M 176.8 144.8 C 176.8 144.8 176.8 146.64 176.8 146.6 C 176.8 146.7 176.8 146.8 176.8 147 C 176.8 147.4 177 147.6 177.4 147.6 C 177.5 147.6 177.7 147.6 177.8 147.5 C 177.8 147.5 178 148.1 178 148.1 C 177.8 148.2 177.5 148.3 177.3 148.3 C 176.7 148.3 176.4 148 176.2 147.6 C 176.1 147.4 176.1 147.1 176.1 146.8 C 176.07 146.81 176.1 144.8 176.1 144.8 L 175.5 144.8 L 175.5 144.2 L 176.1 144.2 L 176.1 143.2 L 176.8 143.2 L 176.8 144.2 L 177.9 144.2 L 177.9 144.8 L 176.8 144.8 Z M 182.5 146.2 C 182.5 147.4 181.7 148.3 180.5 148.3 C 179.3 148.3 178.5 147.4 178.5 146.2 C 178.5 145 179.3 144.1 180.5 144.1 C 181.7 144.1 182.5 145 182.5 146.2 Z M 180.5 144.8 C 179.8 144.8 179.2 145.4 179.2 146.2 C 179.2 147 179.8 147.6 180.5 147.6 C 181.3 147.6 181.8 147 181.8 146.2 C 181.8 145.4 181.3 144.8 180.5 144.8 Z M 187 147.3 L 187.1 147.3 L 187.9 144.2 L 188.6 144.2 L 187.5 148.2 L 186.7 148.2 L 185.8 145.1 L 185.8 145.1 L 184.9 148.2 L 184.1 148.2 L 183 144.2 L 183.8 144.2 L 184.5 147.3 L 184.6 147.3 L 185.4 144.2 L 186.2 144.2 L 187 147.3 Z M 189.6 149.3 L 188.9 149.3 L 189.3 147.3 L 190.1 147.3 L 189.6 149.3 Z M 194.1 144.8 C 194.1 144.8 194.06 146.64 194.1 146.6 C 194.1 146.7 194.1 146.8 194.1 147 C 194.1 147.4 194.2 147.6 194.6 147.6 C 194.8 147.6 195 147.6 195.1 147.5 C 195.1 147.5 195.3 148.1 195.3 148.1 C 195.1 148.2 194.8 148.3 194.5 148.3 C 194 148.3 193.6 148 193.5 147.6 C 193.4 147.4 193.3 147.1 193.3 146.8 C 193.34 146.81 193.3 144.8 193.3 144.8 L 192.8 144.8 L 192.8 144.2 L 193.3 144.2 L 193.3 143.2 L 194.1 143.2 L 194.1 144.2 L 195.2 144.2 L 195.2 144.8 L 194.1 144.8 Z M 196.8 144.8 C 197.1 144.4 197.6 144.1 198.1 144.1 C 198.7 144.1 199 144.3 199.3 144.6 C 199.5 145 199.6 145.5 199.6 146.1 C 199.62 146.11 199.6 148.2 199.6 148.2 L 198.9 148.2 C 198.9 148.2 198.89 146.19 198.9 146.2 C 198.9 145.8 198.9 145.4 198.7 145.1 C 198.6 144.9 198.3 144.8 198 144.8 C 197.5 144.8 197.1 145.1 196.8 145.5 C 196.79 145.53 196.8 148.2 196.8 148.2 L 196.1 148.2 L 196.1 142.2 L 196.8 142.2 C 196.8 142.2 196.79 144.85 196.8 144.8 Z M 201.3 146.4 C 201.4 147.1 201.8 147.7 202.6 147.7 C 203.1 147.7 203.5 147.5 203.8 147 C 203.8 147 204.3 147.4 204.3 147.4 C 203.9 148 203.4 148.3 202.6 148.3 C 201.3 148.3 200.6 147.4 200.6 146.2 C 200.6 145 201.4 144.1 202.6 144.1 C 203.6 144.1 204.4 144.9 204.4 146 C 204.4 146.1 204.4 146.3 204.4 146.4 C 204.4 146.4 201.3 146.4 201.3 146.4 Z M 201.4 145.8 C 201.4 145.8 203.6 145.8 203.6 145.8 C 203.6 145.2 203.2 144.7 202.6 144.7 C 201.9 144.7 201.5 145.2 201.4 145.8 Z M 210.3 147.9 C 210 148.1 209.6 148.3 209.1 148.3 C 208 148.3 207.1 147.5 207.1 146.2 C 207.1 145 208 144.1 209.1 144.1 C 209.6 144.1 210 144.2 210.3 144.4 C 210.3 144.4 209.9 145 209.9 145 C 209.7 144.9 209.4 144.8 209.1 144.8 C 208.4 144.8 207.8 145.4 207.8 146.2 C 207.8 147.1 208.4 147.6 209.1 147.6 C 209.4 147.6 209.8 147.5 210 147.3 C 210 147.3 210.3 147.9 210.3 147.9 Z M 211.9 144.8 C 212.2 144.4 212.7 144.1 213.2 144.1 C 213.8 144.1 214.2 144.3 214.4 144.6 C 214.7 145 214.7 145.5 214.7 146.1 C 214.74 146.11 214.7 148.2 214.7 148.2 L 214 148.2 C 214 148.2 214.02 146.19 214 146.2 C 214 145.8 214 145.4 213.8 145.1 C 213.7 144.9 213.5 144.8 213.1 144.8 C 212.6 144.8 212.2 145.1 211.9 145.5 C 211.92 145.53 211.9 148.2 211.9 148.2 L 211.2 148.2 L 211.2 142.2 L 211.9 142.2 C 211.9 142.2 211.92 144.85 211.9 144.8 Z M 219.8 146.2 C 219.8 147.4 218.9 148.3 217.7 148.3 C 216.6 148.3 215.7 147.4 215.7 146.2 C 215.7 145 216.6 144.1 217.7 144.1 C 218.9 144.1 219.8 145 219.8 146.2 Z M 217.7 144.8 C 217 144.8 216.4 145.4 216.4 146.2 C 216.4 147 217 147.6 217.7 147.6 C 218.5 147.6 219 147 219 146.2 C 219 145.4 218.5 144.8 217.7 144.8 Z M 220.8 148.2 L 220.8 144.2 L 221.5 144.2 L 221.5 148.2 L 220.8 148.2 Z M 220.8 143.4 L 220.8 142.6 L 221.5 142.6 L 221.5 143.4 L 220.8 143.4 Z M 225.8 147.9 C 225.5 148.1 225.1 148.3 224.6 148.3 C 223.4 148.3 222.5 147.5 222.5 146.2 C 222.5 145 223.4 144.1 224.6 144.1 C 225 144.1 225.4 144.2 225.7 144.4 C 225.7 144.4 225.4 145 225.4 145 C 225.2 144.9 224.9 144.8 224.6 144.8 C 223.9 144.8 223.3 145.4 223.3 146.2 C 223.3 147.1 223.9 147.6 224.6 147.6 C 224.9 147.6 225.2 147.5 225.4 147.3 C 225.4 147.3 225.8 147.9 225.8 147.9 Z M 227.1 146.4 C 227.1 147.1 227.6 147.7 228.3 147.7 C 228.9 147.7 229.3 147.5 229.5 147 C 229.5 147 230.1 147.4 230.1 147.4 C 229.7 148 229.1 148.3 228.3 148.3 C 227 148.3 226.3 147.4 226.3 146.2 C 226.3 145 227.2 144.1 228.3 144.1 C 229.4 144.1 230.1 144.9 230.1 146 C 230.1 146.1 230.1 146.3 230.1 146.4 C 230.1 146.4 227.1 146.4 227.1 146.4 Z M 227.1 145.8 C 227.1 145.8 229.4 145.8 229.4 145.8 C 229.4 145.2 228.9 144.7 228.3 144.7 C 227.7 144.7 227.3 145.2 227.1 145.8 Z M 233.1 148.2 L 233.1 144.2 L 233.9 144.2 L 233.9 148.2 L 233.1 148.2 Z M 233.1 143.4 L 233.1 142.6 L 233.9 142.6 L 233.9 143.4 L 233.1 143.4 Z M 237.2 145 C 237 144.8 236.6 144.7 236.4 144.7 C 236 144.7 235.8 144.9 235.8 145.2 C 235.8 145.5 236.2 145.7 236.5 145.8 C 237.1 146 237.7 146.3 237.7 147 C 237.7 147.9 237 148.3 236.3 148.3 C 235.7 148.3 235.2 148.1 234.9 147.7 C 234.9 147.7 235.4 147.3 235.4 147.3 C 235.7 147.5 236 147.7 236.3 147.7 C 236.7 147.7 237 147.5 237 147.1 C 237 146.8 236.6 146.6 236.2 146.4 C 235.7 146.2 235.1 146 235.1 145.3 C 235.1 144.5 235.7 144.1 236.4 144.1 C 236.8 144.1 237.3 144.2 237.6 144.5 C 237.6 144.5 237.2 145 237.2 145 Z M 241 144.2 L 242 147.2 L 242.1 147.2 L 243.1 144.2 L 243.9 144.2 L 241.7 150 L 241 149.7 L 241.7 148.1 L 240.2 144.2 L 241 144.2 Z M 248.4 146.2 C 248.4 147.4 247.5 148.3 246.3 148.3 C 245.2 148.3 244.3 147.4 244.3 146.2 C 244.3 145 245.2 144.1 246.3 144.1 C 247.5 144.1 248.4 145 248.4 146.2 Z M 246.3 144.8 C 245.6 144.8 245 145.4 245 146.2 C 245 147 245.6 147.6 246.3 147.6 C 247.1 147.6 247.6 147 247.6 146.2 C 247.6 145.4 247.1 144.8 246.3 144.8 Z M 252.2 147.5 C 251.9 148 251.4 148.3 250.9 148.3 C 250.3 148.3 249.9 148.1 249.7 147.8 C 249.4 147.4 249.3 146.9 249.3 146.3 C 249.34 146.27 249.3 144.2 249.3 144.2 L 250.1 144.2 C 250.1 144.2 250.07 146.19 250.1 146.2 C 250.1 146.6 250.1 147 250.3 147.3 C 250.4 147.5 250.6 147.6 251 147.6 C 251.4 147.6 251.9 147.3 252.2 146.8 C 252.17 146.85 252.2 144.2 252.2 144.2 L 252.9 144.2 L 252.9 148.2 L 252.2 148.2 C 252.2 148.2 252.17 147.53 252.2 147.5 Z M 255 144.9 C 255.2 144.4 255.6 144.1 256 144.1 C 256.2 144.1 256.3 144.1 256.4 144.1 C 256.4 144.1 256.3 144.9 256.3 144.9 C 256.2 144.9 256.1 144.8 255.9 144.8 C 255.5 144.8 255.2 145.1 255 145.5 C 254.97 145.51 255 148.2 255 148.2 L 254.2 148.2 L 254.2 144.2 L 255 144.2 C 255 144.2 254.97 144.85 255 144.9 Z M 259 145 C 258.9 144.8 258.5 144.7 258.3 144.7 C 257.9 144.7 257.7 144.9 257.7 145.2 C 257.7 145.5 258 145.7 258.4 145.8 C 258.9 146 259.6 146.3 259.6 147 C 259.6 147.9 258.9 148.3 258.1 148.3 C 257.6 148.3 257.1 148.1 256.8 147.7 C 256.8 147.7 257.3 147.3 257.3 147.3 C 257.5 147.5 257.8 147.7 258.2 147.7 C 258.5 147.7 258.9 147.5 258.9 147.1 C 258.9 146.8 258.5 146.6 258.1 146.4 C 257.6 146.2 257 146 257 145.3 C 257 144.5 257.6 144.1 258.2 144.1 C 258.7 144.1 259.2 144.2 259.5 144.5 C 259.5 144.5 259 145 259 145 Z M 266.2 147.3 L 266.2 147.3 L 267 144.2 L 267.8 144.2 L 266.6 148.2 L 265.8 148.2 L 265 145.1 L 265 145.1 L 264.1 148.2 L 263.3 148.2 L 262.2 144.2 L 262.9 144.2 L 263.7 147.3 L 263.7 147.3 L 264.6 144.2 L 265.4 144.2 L 266.2 147.3 Z M 268.6 148.2 L 268.6 144.2 L 269.3 144.2 L 269.3 148.2 L 268.6 148.2 Z M 268.6 143.4 L 268.6 142.6 L 269.3 142.6 L 269.3 143.4 L 268.6 143.4 Z M 271.4 144.8 C 271.4 144.8 271.41 146.64 271.4 146.6 C 271.4 146.7 271.4 146.8 271.4 147 C 271.4 147.4 271.6 147.6 272 147.6 C 272.1 147.6 272.3 147.6 272.4 147.5 C 272.4 147.5 272.6 148.1 272.6 148.1 C 272.4 148.2 272.1 148.3 271.9 148.3 C 271.3 148.3 271 148 270.8 147.6 C 270.7 147.4 270.7 147.1 270.7 146.8 C 270.68 146.81 270.7 144.8 270.7 144.8 L 270.1 144.8 L 270.1 144.2 L 270.7 144.2 L 270.7 143.2 L 271.4 143.2 L 271.4 144.2 L 272.5 144.2 L 272.5 144.8 L 271.4 144.8 Z M 274.1 144.8 C 274.4 144.4 274.9 144.1 275.4 144.1 C 276 144.1 276.4 144.3 276.6 144.6 C 276.9 145 277 145.5 277 146.1 C 276.96 146.11 277 148.2 277 148.2 L 276.2 148.2 C 276.2 148.2 276.23 146.19 276.2 146.2 C 276.2 145.8 276.2 145.4 276 145.1 C 275.9 144.9 275.7 144.8 275.3 144.8 C 274.9 144.8 274.4 145.1 274.1 145.5 C 274.13 145.53 274.1 148.2 274.1 148.2 L 273.4 148.2 L 273.4 142.2 L 274.1 142.2 C 274.1 142.2 274.13 144.85 274.1 144.8 Z M 284 146.2 C 284 147.4 283.1 148.3 282 148.3 C 280.8 148.3 279.9 147.4 279.9 146.2 C 279.9 145 280.8 144.1 282 144.1 C 283.1 144.1 284 145 284 146.2 Z M 282 144.8 C 281.2 144.8 280.7 145.4 280.7 146.2 C 280.7 147 281.2 147.6 282 147.6 C 282.7 147.6 283.3 147 283.3 146.2 C 283.3 145.4 282.7 144.8 282 144.8 Z M 287.8 147.5 C 287.5 148 287 148.3 286.5 148.3 C 285.9 148.3 285.6 148.1 285.3 147.8 C 285 147.4 285 146.9 285 146.3 C 284.96 146.27 285 144.2 285 144.2 L 285.7 144.2 C 285.7 144.2 285.69 146.19 285.7 146.2 C 285.7 146.6 285.7 147 285.9 147.3 C 286 147.5 286.2 147.6 286.6 147.6 C 287.1 147.6 287.5 147.3 287.8 146.8 C 287.78 146.85 287.8 144.2 287.8 144.2 L 288.5 144.2 L 288.5 148.2 L 287.8 148.2 C 287.8 148.2 287.78 147.53 287.8 147.5 Z M 290.6 144.9 C 290.8 144.4 291.2 144.1 291.6 144.1 C 291.8 144.1 291.9 144.1 292 144.1 C 292 144.1 291.9 144.9 291.9 144.9 C 291.8 144.9 291.7 144.8 291.5 144.8 C 291.1 144.8 290.8 145.1 290.6 145.5 C 290.58 145.51 290.6 148.2 290.6 148.2 L 289.9 148.2 L 289.9 144.2 L 290.6 144.2 C 290.6 144.2 290.58 144.85 290.6 144.9 Z M 297.1 148.2 C 297.1 148.2 297.09 147.77 297.1 147.8 C 296.8 148.1 296.4 148.3 295.9 148.3 C 295.2 148.3 294.5 147.9 294.5 147.1 C 294.5 146.1 295.4 145.7 296.3 145.7 C 296.5 145.7 296.7 145.8 297.1 145.8 C 297.1 145.8 297.1 145.7 297.1 145.7 C 297.1 145.1 296.8 144.7 296.1 144.7 C 295.6 144.7 295.2 144.9 294.8 145.1 C 294.8 145.1 294.6 144.5 294.6 144.5 C 295 144.3 295.6 144.1 296.2 144.1 C 297.4 144.1 297.8 144.7 297.8 145.8 C 297.78 145.76 297.8 148.2 297.8 148.2 L 297.1 148.2 Z M 297.1 146.4 C 296.8 146.3 296.5 146.3 296.3 146.3 C 295.8 146.3 295.2 146.4 295.2 147 C 295.2 147.5 295.6 147.7 296 147.7 C 296.4 147.7 296.7 147.5 297.1 147.2 C 297.1 147.2 297.1 146.4 297.1 146.4 Z M 301 145 C 300.8 144.8 300.5 144.7 300.2 144.7 C 299.9 144.7 299.6 144.9 299.6 145.2 C 299.6 145.5 300 145.7 300.4 145.8 C 300.9 146 301.6 146.3 301.6 147 C 301.6 147.9 300.9 148.3 300.1 148.3 C 299.6 148.3 299.1 148.1 298.8 147.7 C 298.8 147.7 299.3 147.3 299.3 147.3 C 299.5 147.5 299.8 147.7 300.1 147.7 C 300.5 147.7 300.9 147.5 300.9 147.1 C 300.9 146.8 300.5 146.6 300.1 146.4 C 299.6 146.2 298.9 146 298.9 145.3 C 298.9 144.5 299.6 144.1 300.2 144.1 C 300.7 144.1 301.1 144.2 301.5 144.5 C 301.5 144.5 301 145 301 145 Z M 304.6 145 C 304.5 144.8 304.1 144.7 303.8 144.7 C 303.5 144.7 303.2 144.9 303.2 145.2 C 303.2 145.5 303.6 145.7 304 145.8 C 304.5 146 305.2 146.3 305.2 147 C 305.2 147.9 304.5 148.3 303.7 148.3 C 303.2 148.3 302.7 148.1 302.4 147.7 C 302.4 147.7 302.9 147.3 302.9 147.3 C 303.1 147.5 303.4 147.7 303.7 147.7 C 304.1 147.7 304.5 147.5 304.5 147.1 C 304.5 146.8 304.1 146.6 303.7 146.4 C 303.2 146.2 302.6 146 302.6 145.3 C 302.6 144.5 303.2 144.1 303.8 144.1 C 304.3 144.1 304.8 144.2 305.1 144.5 C 305.1 144.5 304.6 145 304.6 145 Z M 310 146.2 C 310 147.4 309.2 148.3 308 148.3 C 306.8 148.3 306 147.4 306 146.2 C 306 145 306.8 144.1 308 144.1 C 309.2 144.1 310 145 310 146.2 Z M 308 144.8 C 307.2 144.8 306.7 145.4 306.7 146.2 C 306.7 147 307.2 147.6 308 147.6 C 308.8 147.6 309.3 147 309.3 146.2 C 309.3 145.4 308.8 144.8 308 144.8 Z M 311.8 144.9 C 312 144.4 312.4 144.1 312.8 144.1 C 313 144.1 313.1 144.1 313.2 144.1 C 313.2 144.1 313.1 144.9 313.1 144.9 C 313 144.9 312.9 144.8 312.7 144.8 C 312.3 144.8 312 145.1 311.8 145.5 C 311.77 145.51 311.8 148.2 311.8 148.2 L 311 148.2 L 311 144.2 L 311.8 144.2 C 311.8 144.2 311.77 144.85 311.8 144.9 Z M 314.8 144.8 C 314.8 144.8 314.79 146.64 314.8 146.6 C 314.8 146.7 314.8 146.8 314.8 147 C 314.8 147.4 315 147.6 315.4 147.6 C 315.5 147.6 315.7 147.6 315.8 147.5 C 315.8 147.5 316 148.1 316 148.1 C 315.8 148.2 315.5 148.3 315.3 148.3 C 314.7 148.3 314.4 148 314.2 147.6 C 314.1 147.4 314.1 147.1 314.1 146.8 C 314.06 146.81 314.1 144.8 314.1 144.8 L 313.5 144.8 L 313.5 144.2 L 314.1 144.2 L 314.1 143.2 L 314.8 143.2 L 314.8 144.2 L 315.9 144.2 L 315.9 144.8 L 314.8 144.8 Z M 322.1 148.2 C 322.1 148.2 322.12 146.19 322.1 146.2 C 322.1 145.8 322.1 145.4 321.9 145.1 C 321.8 144.9 321.6 144.8 321.2 144.8 C 320.9 144.8 320.4 145 320.1 145.4 C 320.2 145.6 320.2 145.9 320.2 146.1 C 320.18 146.11 320.2 148.2 320.2 148.2 L 319.5 148.2 C 319.5 148.2 319.46 146.19 319.5 146.2 C 319.5 145.8 319.4 145.3 319.2 145 C 319.1 144.9 318.9 144.8 318.6 144.8 C 318.2 144.8 317.8 145.1 317.5 145.5 C 317.52 145.5 317.5 148.2 317.5 148.2 L 316.8 148.2 L 316.8 144.2 L 317.5 144.2 C 317.5 144.2 317.52 144.8 317.5 144.8 C 317.8 144.4 318.3 144.1 318.8 144.1 C 319.2 144.1 319.6 144.3 319.9 144.6 C 319.9 144.7 320 144.8 320 144.8 C 320.3 144.3 320.8 144.1 321.4 144.1 C 321.9 144.1 322.3 144.3 322.5 144.6 C 322.8 144.9 322.8 145.5 322.8 146.1 C 322.85 146.11 322.8 148.2 322.8 148.2 L 322.1 148.2 Z M 324.5 146.4 C 324.6 147.1 325.1 147.7 325.8 147.7 C 326.4 147.7 326.8 147.5 327 147 C 327 147 327.5 147.4 327.5 147.4 C 327.1 148 326.6 148.3 325.8 148.3 C 324.5 148.3 323.8 147.4 323.8 146.2 C 323.8 145 324.7 144.1 325.8 144.1 C 326.8 144.1 327.6 144.9 327.6 146 C 327.6 146.1 327.6 146.3 327.6 146.4 C 327.6 146.4 324.5 146.4 324.5 146.4 Z M 324.6 145.8 C 324.6 145.8 326.9 145.8 326.9 145.8 C 326.8 145.2 326.4 144.7 325.8 144.7 C 325.2 144.7 324.7 145.2 324.6 145.8 Z M 329.4 144.2 C 329.4 144.2 329.35 144.85 329.4 144.8 C 329.6 144.4 330.1 144.1 330.7 144.1 C 331.2 144.1 331.6 144.3 331.8 144.6 C 332.1 145 332.2 145.5 332.2 146.1 C 332.17 146.11 332.2 148.2 332.2 148.2 L 331.4 148.2 C 331.4 148.2 331.45 146.19 331.4 146.2 C 331.4 145.8 331.4 145.4 331.2 145.1 C 331.1 144.9 330.9 144.8 330.5 144.8 C 330.1 144.8 329.6 145.1 329.4 145.5 C 329.35 145.53 329.4 148.2 329.4 148.2 L 328.6 148.2 L 328.6 144.2 L 329.4 144.2 Z M 334.2 144.8 C 334.2 144.8 334.24 146.64 334.2 146.6 C 334.2 146.7 334.2 146.8 334.2 147 C 334.3 147.4 334.4 147.6 334.8 147.6 C 335 147.6 335.1 147.6 335.3 147.5 C 335.3 147.5 335.5 148.1 335.5 148.1 C 335.3 148.2 335 148.3 334.7 148.3 C 334.2 148.3 333.8 148 333.6 147.6 C 333.5 147.4 333.5 147.1 333.5 146.8 C 333.51 146.81 333.5 144.8 333.5 144.8 L 333 144.8 L 333 144.2 L 333.5 144.2 L 333.5 143.2 L 334.2 143.2 L 334.2 144.2 L 335.4 144.2 L 335.4 144.8 L 334.2 144.8 Z " stroke="none" fill="#535a5d"/>  </g>  <g id="Polygon40193">    <path d="M 156.8 109.2 L 155.8 109.2 L 152.8 101.8 L 152.8 109.2 L 151.5 109.2 L 151.5 100.1 L 153.6 100.1 L 156.3 107 L 159 100.1 L 161.2 100.1 L 161.2 109.2 L 159.8 109.2 L 159.8 101.8 L 156.8 109.2 Z M 168.5 101.2 C 166.6 101.2 165.2 102.7 165.2 104.6 C 165.2 106.6 166.6 108.1 168.5 108.1 C 170.3 108.1 171.7 106.6 171.7 104.6 C 171.7 102.7 170.3 101.2 168.5 101.2 Z M 168.5 109.3 C 165.8 109.3 163.8 107.2 163.8 104.6 C 163.8 102 165.8 99.9 168.5 99.9 C 171.1 99.9 173.2 102 173.2 104.6 C 173.2 107.2 171.1 109.3 168.5 109.3 Z M 175.8 100.1 C 175.8 100.1 178.25 100.09 178.2 100.1 C 180.6 100.1 183.2 101.3 183.2 104.6 C 183.2 108 180.6 109.2 178.1 109.2 C 178.13 109.19 175.8 109.2 175.8 109.2 L 175.8 100.1 Z M 178 101.3 C 178.03 101.31 177.1 101.3 177.1 101.3 L 177.1 108 C 177.1 108 177.52 107.97 177.5 108 C 180 108 181.7 107.2 181.7 104.7 C 181.7 102.5 180.3 101.3 178 101.3 Z M 185.7 109.2 L 185.7 100.1 L 191.3 100.1 L 191.3 101.3 L 187.1 101.3 L 187.1 103.9 L 191.3 103.9 L 191.3 105.1 L 187.1 105.1 L 187.1 108 L 191.3 108 L 191.3 109.2 L 185.7 109.2 Z M 196.7 100.1 C 198.1 100.1 199.8 100.8 199.8 102.7 C 199.8 104.3 198.8 105 197.7 105.3 C 197.67 105.29 200.5 109.2 200.5 109.2 L 198.8 109.2 L 196.1 105.4 L 195.3 105.4 L 195.3 109.2 L 193.9 109.2 L 193.9 100.1 C 193.9 100.1 196.67 100.09 196.7 100.1 Z M 195.3 104.2 C 195.3 104.2 196.36 104.17 196.4 104.2 C 197.5 104.2 198.3 103.8 198.3 102.8 C 198.3 101.9 197.6 101.3 196.6 101.3 C 196.6 101.31 195.3 101.3 195.3 101.3 L 195.3 104.2 Z M 208.8 109.2 L 204 102.7 L 204 109.2 L 202.6 109.2 L 202.6 100.1 L 203.8 100.1 L 208.6 106.6 L 208.6 100.1 L 210 100.1 L 210 109.2 L 208.8 109.2 Z M 221.9 107.3 L 218.2 107.3 L 217.5 109.2 L 215.9 109.2 L 219.5 100.1 L 220.7 100.1 L 224.2 109.2 L 222.6 109.2 L 221.9 107.3 Z M 218.6 106.1 L 221.4 106.1 L 220 102.2 L 220 102.2 L 218.6 106.1 Z M 230.4 108.1 C 231.1 108.1 231.8 107.9 232.4 107.4 C 232.4 107.4 233.1 108.5 233.1 108.5 C 232.3 109 231.4 109.3 230.4 109.3 C 227.6 109.3 225.5 107.5 225.5 104.6 C 225.5 102 227.7 99.9 230.4 99.9 C 231.3 99.9 232.2 100.2 232.9 100.7 C 232.9 100.7 232.2 101.8 232.2 101.8 C 231.7 101.4 231.1 101.2 230.4 101.2 C 228.4 101.2 227 102.6 227 104.6 C 227 106.8 228.4 108.1 230.4 108.1 Z M 239.2 108.1 C 239.9 108.1 240.6 107.9 241.2 107.4 C 241.2 107.4 242 108.5 242 108.5 C 241.2 109 240.2 109.3 239.2 109.3 C 236.5 109.3 234.3 107.5 234.3 104.6 C 234.3 102 236.5 99.9 239.2 99.9 C 240.1 99.9 241 100.2 241.7 100.7 C 241.7 100.7 241.1 101.8 241.1 101.8 C 240.5 101.4 239.9 101.2 239.2 101.2 C 237.2 101.2 235.8 102.6 235.8 104.6 C 235.8 106.8 237.2 108.1 239.2 108.1 Z M 244.2 109.2 L 244.2 100.1 L 249.7 100.1 L 249.7 101.3 L 245.6 101.3 L 245.6 103.9 L 249.7 103.9 L 249.7 105.1 L 245.6 105.1 L 245.6 108 L 249.7 108 L 249.7 109.2 L 244.2 109.2 Z M 258.6 109.2 L 253.8 102.7 L 253.8 109.2 L 252.4 109.2 L 252.4 100.1 L 253.6 100.1 L 258.4 106.6 L 258.4 100.1 L 259.8 100.1 L 259.8 109.2 L 258.6 109.2 Z M 265.5 101.3 L 265.5 109.2 L 264.1 109.2 L 264.1 101.3 L 261.9 101.3 L 261.9 100.1 L 267.8 100.1 L 267.8 101.3 L 265.5 101.3 Z M 273.7 100.1 C 273.7 100.1 275.94 100.09 275.9 100.1 C 276.8 100.1 277.7 100.2 278.4 100.7 C 279 101.1 279.4 101.8 279.4 102.6 C 279.4 103.4 279 104.1 278 104.4 C 279.1 104.8 279.7 105.5 279.7 106.6 C 279.7 107.6 279.2 108.4 278.2 108.8 C 277.5 109.1 276.6 109.2 275.8 109.2 C 275.82 109.19 273.7 109.2 273.7 109.2 L 273.7 100.1 Z M 275.1 108 C 275.1 108 275.73 107.98 275.7 108 C 276.4 108 277.1 108 277.6 107.7 C 278 107.5 278.3 107.2 278.3 106.6 C 278.3 105.7 277.6 105.1 276.5 105.1 C 276.46 105.13 275.1 105.1 275.1 105.1 L 275.1 108 Z M 275.1 103.9 C 275.1 103.9 275.92 103.93 275.9 103.9 C 277.2 103.9 278 103.5 278 102.6 C 278 102.1 277.8 101.8 277.5 101.6 C 277 101.3 276.4 101.3 275.7 101.3 C 275.68 101.3 275.1 101.3 275.1 101.3 L 275.1 103.9 Z M 282.4 109.2 L 282.4 100.1 L 287.9 100.1 L 287.9 101.3 L 283.8 101.3 L 283.8 103.9 L 287.9 103.9 L 287.9 105.1 L 283.8 105.1 L 283.8 108 L 287.9 108 L 287.9 109.2 L 282.4 109.2 Z M 296.8 109.2 L 292 102.7 L 292 109.2 L 290.6 109.2 L 290.6 100.1 L 291.8 100.1 L 296.6 106.6 L 296.6 100.1 L 298 100.1 L 298 109.2 L 296.8 109.2 Z M 305.5 108.1 C 306.2 108.1 306.8 107.9 307.4 107.4 C 307.4 107.4 308.2 108.5 308.2 108.5 C 307.4 109 306.4 109.3 305.4 109.3 C 302.7 109.3 300.6 107.5 300.6 104.6 C 300.6 102 302.8 99.9 305.5 99.9 C 306.4 99.9 307.2 100.2 308 100.7 C 308 100.7 307.3 101.8 307.3 101.8 C 306.8 101.4 306.1 101.2 305.5 101.2 C 303.5 101.2 302 102.6 302 104.6 C 302 106.8 303.4 108.1 305.5 108.1 Z M 316.4 109.2 L 316.4 105.1 L 311.8 105.1 L 311.8 109.2 L 310.4 109.2 L 310.4 100.1 L 311.8 100.1 L 311.8 103.9 L 316.4 103.9 L 316.4 100.1 L 317.8 100.1 L 317.8 109.2 L 316.4 109.2 Z M 320.8 109.2 L 320.8 100.1 L 326.4 100.1 L 326.4 101.3 L 322.2 101.3 L 322.2 103.9 L 326.4 103.9 L 326.4 105.1 L 322.2 105.1 L 322.2 108 L 326.4 108 L 326.4 109.2 L 320.8 109.2 Z M 331.9 101.2 C 331 101.2 330.4 101.6 330.4 102.3 C 330.4 103.1 331.2 103.4 332.2 103.7 C 333.4 104.1 335 104.7 335 106.5 C 335 108.5 333.1 109.3 331.7 109.3 C 330.4 109.3 329.3 108.9 328.4 107.9 C 328.4 107.9 329.3 107 329.3 107 C 330.2 107.8 330.8 108.1 331.7 108.1 C 332.6 108.1 333.5 107.7 333.5 106.6 C 333.5 105.7 332.5 105.4 331.5 105 C 330.3 104.6 329 104 329 102.5 C 329 100.7 330.3 99.9 331.8 99.9 C 332.9 99.9 333.8 100.3 334.6 100.9 C 334.6 100.9 333.8 101.9 333.8 101.9 C 333.3 101.5 332.6 101.2 331.9 101.2 Z " stroke="none" fill="#535a5d"/>  </g>  <g id="Polygon40192">    <path d="M 59.3 30.7 C 59.3 29.3 59.3 27.9 59.2 26.5 C 58.9 26.5 58.5 26.5 58.1 26.5 C 57.7 26.5 57.4 26.6 57 26.6 C 56.6 26.6 56.2 26.6 55.9 26.6 C 55.5 26.7 55.2 26.7 54.9 26.7 C 55 26.5 55 26.3 55 26.1 C 55 26 55 25.8 54.9 25.5 C 55.8 25.5 56.7 25.5 57.5 25.6 C 58.4 25.6 59.2 25.6 60.1 25.6 C 61 25.6 61.8 25.6 62.7 25.6 C 63.5 25.5 64.4 25.5 65.3 25.5 C 65.2 25.8 65.2 26 65.2 26.1 C 65.2 26.3 65.2 26.5 65.3 26.7 C 65 26.7 64.7 26.7 64.3 26.6 C 63.9 26.6 63.6 26.6 63.2 26.6 C 62.8 26.6 62.4 26.5 62.1 26.5 C 61.7 26.5 61.3 26.5 61 26.5 C 60.9 27.9 60.9 29.3 60.9 30.7 C 60.9 30.7 60.9 34.1 60.9 34.1 C 60.9 35 60.9 35.9 61 36.7 C 61 37.6 61 38.4 61.1 39.2 C 60.8 39.2 60.4 39.2 60.1 39.2 C 59.7 39.2 59.4 39.2 59.1 39.2 C 59.2 38.4 59.2 37.6 59.2 36.7 C 59.3 35.9 59.3 35 59.3 34.1 C 59.27 34.11 59.3 30.7 59.3 30.7 C 59.3 30.7 59.27 30.67 59.3 30.7 Z M 78.6 30.7 C 78.6 29.8 78.6 28.9 78.6 28.1 C 78.5 27.2 78.5 26.4 78.5 25.5 C 78.6 25.5 78.8 25.5 79 25.6 C 79.1 25.6 79.3 25.6 79.4 25.6 C 79.6 25.6 79.8 25.6 79.9 25.6 C 80.1 25.5 80.2 25.5 80.4 25.5 C 80.4 26.4 80.3 27.2 80.3 28.1 C 80.3 28.9 80.3 29.8 80.3 30.7 C 80.3 30.7 80.3 34.1 80.3 34.1 C 80.3 35 80.3 35.9 80.3 36.7 C 80.3 37.6 80.4 38.4 80.4 39.2 C 80.1 39.2 79.8 39.2 79.4 39.2 C 79.1 39.2 78.8 39.2 78.5 39.2 C 78.5 38.4 78.5 37.6 78.6 36.7 C 78.6 35.9 78.6 35 78.6 34.1 C 78.6 34.1 78.6 32.3 78.6 32.3 C 77.9 32.3 77.2 32.3 76.5 32.3 C 75.8 32.3 75.2 32.3 74.4 32.3 C 73.7 32.3 73 32.3 72.3 32.3 C 71.7 32.3 71 32.3 70.3 32.3 C 70.3 32.3 70.3 34.1 70.3 34.1 C 70.3 35 70.3 35.9 70.3 36.7 C 70.3 37.6 70.4 38.4 70.4 39.2 C 70.1 39.2 69.8 39.2 69.4 39.2 C 69.1 39.2 68.8 39.2 68.5 39.2 C 68.5 38.4 68.5 37.6 68.6 36.7 C 68.6 35.9 68.6 35 68.6 34.1 C 68.6 34.1 68.6 30.7 68.6 30.7 C 68.6 29.8 68.6 28.9 68.6 28.1 C 68.5 27.2 68.5 26.4 68.5 25.5 C 68.6 25.5 68.8 25.5 69 25.6 C 69.1 25.6 69.3 25.6 69.4 25.6 C 69.6 25.6 69.8 25.6 69.9 25.6 C 70.1 25.5 70.2 25.5 70.4 25.5 C 70.4 26.4 70.3 27.2 70.3 28.1 C 70.3 28.9 70.3 29.8 70.3 30.7 C 70.3 30.7 70.3 31.4 70.3 31.4 C 71 31.4 71.7 31.4 72.3 31.4 C 73 31.4 73.7 31.4 74.4 31.4 C 75.2 31.4 75.8 31.4 76.5 31.4 C 77.2 31.4 77.9 31.4 78.6 31.4 C 78.61 31.37 78.6 30.7 78.6 30.7 C 78.6 30.7 78.61 30.67 78.6 30.7 Z M 85.2 30.6 C 85.2 29.8 85.2 28.9 85.1 28 C 85.1 27.2 85.1 26.3 85 25.5 C 85.6 25.5 86.2 25.5 86.8 25.6 C 87.4 25.6 88 25.6 88.6 25.6 C 89.2 25.6 89.8 25.6 90.4 25.6 C 91 25.5 91.6 25.5 92.2 25.5 C 92.1 25.7 92.1 25.9 92.1 26.1 C 92.1 26.3 92.1 26.5 92.2 26.7 C 91.7 26.7 91.3 26.6 91 26.6 C 90.6 26.6 90.3 26.6 89.9 26.5 C 89.5 26.5 89 26.5 88.6 26.5 C 88.1 26.4 87.5 26.4 86.9 26.4 C 86.9 26.9 86.9 27.3 86.8 27.6 C 86.8 28 86.8 28.5 86.8 29 C 86.8 29.5 86.8 30 86.8 30.5 C 86.8 31 86.8 31.4 86.8 31.6 C 87.4 31.6 87.9 31.6 88.4 31.6 C 88.9 31.6 89.3 31.6 89.7 31.5 C 90.1 31.5 90.4 31.5 90.8 31.5 C 91.1 31.5 91.4 31.4 91.7 31.4 C 91.7 31.6 91.6 31.8 91.6 32 C 91.6 32.2 91.7 32.4 91.7 32.6 C 91.3 32.6 90.9 32.6 90.5 32.5 C 90 32.5 89.6 32.5 89.1 32.5 C 88.6 32.5 88.2 32.5 87.8 32.5 C 87.4 32.5 87.1 32.4 86.8 32.4 C 86.8 32.6 86.8 32.7 86.8 32.8 C 86.8 33 86.8 33.2 86.8 33.4 C 86.81 33.37 86.8 34.1 86.8 34.1 C 86.8 34.1 86.81 35.35 86.8 35.3 C 86.8 36.1 86.8 36.7 86.8 37.2 C 86.8 37.7 86.8 38.1 86.9 38.3 C 87.3 38.3 87.8 38.3 88.3 38.3 C 88.8 38.3 89.3 38.3 89.7 38.3 C 90.2 38.3 90.7 38.3 91.1 38.2 C 91.6 38.2 91.9 38.2 92.3 38.1 C 92.2 38.2 92.2 38.3 92.2 38.4 C 92.2 38.5 92.2 38.6 92.2 38.7 C 92.2 38.9 92.2 39.1 92.3 39.2 C 91.7 39.2 91.1 39.2 90.5 39.2 C 89.9 39.2 89.3 39.2 88.7 39.2 C 88 39.2 87.4 39.2 86.8 39.2 C 86.2 39.2 85.6 39.2 85 39.2 C 85.1 38.4 85.1 37.5 85.1 36.7 C 85.2 35.8 85.2 35 85.2 34.1 C 85.17 34.09 85.2 30.6 85.2 30.6 C 85.2 30.6 85.17 30.65 85.2 30.6 Z M 104.4 34.4 C 104.4 35.1 104.4 35.8 104.4 36.4 C 104.4 37.1 104.5 37.8 104.5 38.4 C 104.7 38.5 105 38.5 105.4 38.5 C 105.7 38.5 106.1 38.5 106.5 38.5 C 106.9 38.5 107.3 38.5 107.7 38.3 C 108.1 38.2 108.4 38 108.7 37.7 C 109 37.4 109.2 37 109.4 36.6 C 109.6 36.2 109.7 35.7 109.7 35.2 C 109.7 34.6 109.6 34.1 109.4 33.8 C 109.2 33.4 108.9 33.1 108.5 32.9 C 108.1 32.7 107.6 32.6 107.1 32.5 C 106.5 32.4 105.9 32.4 105.3 32.4 C 105.27 32.37 104.4 32.4 104.4 32.4 C 104.4 32.4 104.37 34.41 104.4 34.4 Z M 105.5 31.6 C 105.9 31.6 106.4 31.6 106.8 31.5 C 107.3 31.4 107.7 31.2 108.1 31 C 108.4 30.8 108.7 30.5 108.9 30.1 C 109.2 29.8 109.3 29.3 109.3 28.7 C 109.3 28.2 109.2 27.8 109 27.4 C 108.8 27.1 108.5 26.9 108.2 26.7 C 107.9 26.5 107.6 26.4 107.2 26.3 C 106.8 26.3 106.4 26.2 106 26.2 C 105.7 26.2 105.4 26.2 105.1 26.3 C 104.9 26.3 104.7 26.3 104.5 26.3 C 104.5 27 104.4 27.6 104.4 28.2 C 104.4 28.9 104.4 29.5 104.4 30.1 C 104.37 30.13 104.4 31.6 104.4 31.6 C 104.4 31.6 105.45 31.63 105.5 31.6 Z M 102.7 30.6 C 102.7 29.8 102.7 28.9 102.7 28 C 102.6 27.2 102.6 26.3 102.6 25.5 C 102.9 25.5 103.3 25.5 103.6 25.6 C 104 25.6 104.3 25.6 104.7 25.6 C 105 25.6 105.4 25.6 105.8 25.5 C 106.1 25.5 106.5 25.5 106.8 25.5 C 107.4 25.5 107.9 25.5 108.4 25.6 C 108.9 25.7 109.4 25.9 109.8 26.1 C 110.2 26.3 110.5 26.6 110.7 27 C 110.9 27.3 111 27.8 111 28.4 C 111 29.4 110.7 30.1 110.1 30.7 C 109.5 31.2 108.7 31.6 107.7 31.9 C 107.7 31.9 107.7 31.9 107.7 31.9 C 108.9 32 109.8 32.2 110.5 32.8 C 111.2 33.3 111.5 34.1 111.5 35.3 C 111.5 36 111.4 36.6 111.1 37.1 C 110.7 37.7 110.3 38.1 109.9 38.4 C 109.4 38.7 108.8 38.9 108.2 39 C 107.6 39.2 107 39.2 106.5 39.2 C 106.1 39.2 105.8 39.2 105.5 39.2 C 105.2 39.2 104.8 39.2 104.5 39.2 C 104.2 39.2 103.9 39.2 103.5 39.2 C 103.2 39.2 102.9 39.2 102.6 39.2 C 102.6 38.4 102.6 37.5 102.7 36.7 C 102.7 35.8 102.7 35 102.7 34.1 C 102.7 34.1 102.7 30.6 102.7 30.6 Z M 116 30.6 C 116 29.8 115.9 28.9 115.9 28 C 115.9 27.2 115.8 26.3 115.8 25.5 C 116.4 25.5 117 25.5 117.6 25.6 C 118.2 25.6 118.8 25.6 119.4 25.6 C 120 25.6 120.6 25.6 121.2 25.6 C 121.7 25.5 122.3 25.5 122.9 25.5 C 122.9 25.7 122.9 25.9 122.9 26.1 C 122.9 26.3 122.9 26.5 122.9 26.7 C 122.5 26.7 122.1 26.6 121.8 26.6 C 121.4 26.6 121 26.6 120.6 26.5 C 120.2 26.5 119.8 26.5 119.4 26.5 C 118.9 26.4 118.3 26.4 117.7 26.4 C 117.7 26.9 117.6 27.3 117.6 27.6 C 117.6 28 117.6 28.5 117.6 29 C 117.6 29.5 117.6 30 117.6 30.5 C 117.6 31 117.6 31.4 117.6 31.6 C 118.2 31.6 118.7 31.6 119.2 31.6 C 119.7 31.6 120.1 31.6 120.5 31.5 C 120.9 31.5 121.2 31.5 121.5 31.5 C 121.9 31.5 122.2 31.4 122.5 31.4 C 122.4 31.6 122.4 31.8 122.4 32 C 122.4 32.2 122.4 32.4 122.5 32.6 C 122.1 32.6 121.7 32.6 121.3 32.5 C 120.8 32.5 120.3 32.5 119.9 32.5 C 119.4 32.5 119 32.5 118.6 32.5 C 118.2 32.5 117.9 32.4 117.6 32.4 C 117.6 32.6 117.6 32.7 117.6 32.8 C 117.6 33 117.6 33.2 117.6 33.4 C 117.59 33.37 117.6 34.1 117.6 34.1 C 117.6 34.1 117.59 35.35 117.6 35.3 C 117.6 36.1 117.6 36.7 117.6 37.2 C 117.6 37.7 117.6 38.1 117.6 38.3 C 118.1 38.3 118.5 38.3 119 38.3 C 119.5 38.3 120 38.3 120.5 38.3 C 121 38.3 121.5 38.3 121.9 38.2 C 122.3 38.2 122.7 38.2 123 38.1 C 123 38.2 123 38.3 123 38.4 C 123 38.5 123 38.6 123 38.7 C 123 38.9 123 39.1 123 39.2 C 122.4 39.2 121.8 39.2 121.2 39.2 C 120.6 39.2 120 39.2 119.4 39.2 C 118.8 39.2 118.2 39.2 117.6 39.2 C 117 39.2 116.4 39.2 115.8 39.2 C 115.8 38.4 115.9 37.5 115.9 36.7 C 115.9 35.8 116 35 116 34.1 C 115.95 34.09 116 30.6 116 30.6 C 116 30.6 115.95 30.65 116 30.6 Z M 138.2 39.5 C 136.7 37.7 135 35.9 133.3 34 C 131.6 32.2 129.8 30.3 128.1 28.5 C 128.1 28.9 128.1 29.4 128.1 30 C 128.1 30.6 128.1 31.5 128.1 32.5 C 128.1 32.8 128.1 33.2 128.1 33.6 C 128.1 34 128.1 34.4 128.1 34.9 C 128.1 35.3 128.1 35.8 128.1 36.3 C 128.1 36.7 128.1 37.2 128.2 37.6 C 128.2 38 128.2 38.3 128.2 38.6 C 128.2 38.9 128.2 39.1 128.2 39.2 C 128 39.2 127.8 39.2 127.5 39.2 C 127.3 39.2 127 39.2 126.8 39.2 C 126.8 39.1 126.8 38.8 126.9 38.5 C 126.9 38.1 126.9 37.7 127 37.2 C 127 36.7 127 36.2 127.1 35.6 C 127.1 35 127.1 34.4 127.1 33.8 C 127.2 33.2 127.2 32.6 127.2 32.1 C 127.2 31.5 127.2 31 127.2 30.6 C 127.2 29.3 127.2 28.2 127.2 27.3 C 127.2 26.4 127.2 25.7 127.2 25.2 C 127.2 25.2 127.5 25.2 127.5 25.2 C 128.3 26.1 129.2 27.1 130.1 28.1 C 131 29.1 131.9 30.1 132.8 31 C 133.8 32 134.6 32.9 135.4 33.8 C 136.3 34.7 137 35.4 137.6 36 C 137.6 36 137.6 33.3 137.6 33.3 C 137.6 31.9 137.6 30.6 137.6 29.2 C 137.5 27.9 137.5 26.7 137.4 25.5 C 137.7 25.6 137.9 25.6 138.1 25.6 C 138.3 25.6 138.5 25.6 138.8 25.5 C 138.7 25.8 138.7 26.2 138.7 26.8 C 138.6 27.4 138.6 28 138.6 28.7 C 138.5 29.4 138.5 30 138.5 30.6 C 138.4 31.3 138.4 31.8 138.4 32.2 C 138.4 32.5 138.4 32.9 138.4 33.4 C 138.4 33.8 138.4 34.3 138.4 34.8 C 138.4 35.3 138.5 35.8 138.5 36.3 C 138.5 36.8 138.5 37.3 138.5 37.7 C 138.5 38.1 138.5 38.5 138.5 38.8 C 138.5 39.1 138.5 39.3 138.5 39.5 C 138.49 39.49 138.2 39.5 138.2 39.5 C 138.2 39.5 138.21 39.49 138.2 39.5 Z M 153.9 38.4 C 153.7 38.5 153.5 38.6 153.3 38.8 C 153 38.9 152.7 39 152.3 39.1 C 152 39.2 151.6 39.3 151.1 39.4 C 150.7 39.4 150.2 39.5 149.7 39.5 C 148.6 39.5 147.7 39.3 146.8 39 C 145.9 38.7 145.1 38.3 144.5 37.7 C 143.8 37.1 143.3 36.3 142.9 35.4 C 142.6 34.5 142.4 33.5 142.4 32.4 C 142.4 31.3 142.6 30.2 142.9 29.4 C 143.3 28.5 143.8 27.7 144.5 27.1 C 145.1 26.5 145.9 26 146.9 25.7 C 147.8 25.4 148.8 25.2 149.9 25.2 C 150.8 25.2 151.6 25.3 152.3 25.5 C 153 25.7 153.7 25.9 154.2 26.1 C 154.1 26.3 154 26.6 154 26.9 C 153.9 27.2 153.9 27.5 153.8 27.7 C 153.8 27.7 153.7 27.7 153.7 27.7 C 153.6 27.6 153.4 27.4 153.1 27.2 C 152.9 27 152.6 26.8 152.3 26.6 C 152 26.4 151.6 26.3 151.2 26.2 C 150.8 26 150.4 26 149.9 26 C 149.1 26 148.4 26.1 147.7 26.3 C 147 26.6 146.4 27 145.9 27.5 C 145.4 28 145.1 28.7 144.8 29.5 C 144.5 30.3 144.4 31.3 144.4 32.4 C 144.4 33.5 144.5 34.5 144.8 35.3 C 145.1 36.1 145.4 36.7 145.9 37.3 C 146.4 37.8 147 38.2 147.7 38.4 C 148.4 38.7 149.1 38.8 149.9 38.8 C 150.4 38.8 150.8 38.7 151.2 38.6 C 151.6 38.5 152 38.4 152.3 38.2 C 152.7 38 153 37.9 153.3 37.7 C 153.5 37.5 153.8 37.3 154 37.1 C 153.95 37.15 154 37.2 154 37.2 L 153.9 38.4 C 153.9 38.4 153.85 38.41 153.9 38.4 Z M 167.9 30.7 C 167.9 29.8 167.8 28.9 167.8 28.1 C 167.8 27.2 167.7 26.4 167.7 25.5 C 167.9 25.5 168 25.5 168.2 25.6 C 168.4 25.6 168.5 25.6 168.7 25.6 C 168.8 25.6 169 25.6 169.2 25.6 C 169.3 25.5 169.5 25.5 169.7 25.5 C 169.6 26.4 169.6 27.2 169.5 28.1 C 169.5 28.9 169.5 29.8 169.5 30.7 C 169.5 30.7 169.5 34.1 169.5 34.1 C 169.5 35 169.5 35.9 169.5 36.7 C 169.6 37.6 169.6 38.4 169.7 39.2 C 169.3 39.2 169 39.2 168.7 39.2 C 168.3 39.2 168 39.2 167.7 39.2 C 167.7 38.4 167.8 37.6 167.8 36.7 C 167.8 35.9 167.9 35 167.9 34.1 C 167.9 34.1 167.9 32.3 167.9 32.3 C 167.1 32.3 166.4 32.3 165.8 32.3 C 165.1 32.3 164.4 32.3 163.7 32.3 C 163 32.3 162.3 32.3 161.6 32.3 C 160.9 32.3 160.2 32.3 159.5 32.3 C 159.5 32.3 159.5 34.1 159.5 34.1 C 159.5 35 159.5 35.9 159.5 36.7 C 159.6 37.6 159.6 38.4 159.7 39.2 C 159.3 39.2 159 39.2 158.7 39.2 C 158.3 39.2 158 39.2 157.7 39.2 C 157.7 38.4 157.8 37.6 157.8 36.7 C 157.8 35.9 157.9 35 157.9 34.1 C 157.9 34.1 157.9 30.7 157.9 30.7 C 157.9 29.8 157.8 28.9 157.8 28.1 C 157.8 27.2 157.7 26.4 157.7 25.5 C 157.9 25.5 158 25.5 158.2 25.6 C 158.4 25.6 158.5 25.6 158.7 25.6 C 158.8 25.6 159 25.6 159.2 25.6 C 159.3 25.5 159.5 25.5 159.7 25.5 C 159.6 26.4 159.6 27.2 159.5 28.1 C 159.5 28.9 159.5 29.8 159.5 30.7 C 159.5 30.7 159.5 31.4 159.5 31.4 C 160.2 31.4 160.9 31.4 161.6 31.4 C 162.3 31.4 163 31.4 163.7 31.4 C 164.4 31.4 165.1 31.4 165.8 31.4 C 166.4 31.4 167.1 31.4 167.9 31.4 C 167.85 31.37 167.9 30.7 167.9 30.7 C 167.9 30.7 167.85 30.67 167.9 30.7 Z M 175.7 25.2 C 176.6 27.1 177.5 29 178.5 30.7 C 179.4 32.5 180.4 34.4 181.4 36.2 C 181.6 36 181.8 35.6 182 35.2 C 182.3 34.7 182.6 34.1 182.9 33.5 C 183.2 32.9 183.6 32.3 184 31.5 C 184.3 30.8 184.7 30.1 185.1 29.4 C 185.5 28.6 185.9 27.9 186.3 27.2 C 186.7 26.5 187 25.8 187.4 25.2 C 187.4 25.2 187.6 25.2 187.6 25.2 C 187.8 26.5 187.9 27.7 188 28.9 C 188.2 30.1 188.3 31.3 188.4 32.5 C 188.6 33.6 188.7 34.8 188.8 35.9 C 189 37 189.1 38.1 189.3 39.2 C 189.1 39.2 189 39.2 188.8 39.2 C 188.6 39.2 188.5 39.2 188.3 39.2 C 188.2 39.2 188 39.2 187.9 39.2 C 187.7 39.2 187.6 39.2 187.4 39.2 C 187.2 37.5 187.1 35.7 187 34.1 C 186.8 32.4 186.6 30.7 186.4 29 C 186.4 29 186.4 29 186.4 29 C 185.5 30.6 184.5 32.3 183.7 34 C 182.8 35.6 181.9 37.4 181.1 39.2 C 181.1 39.2 181 39.2 181 39.2 C 180.2 37.5 179.3 35.8 178.4 34.1 C 177.6 32.5 176.7 30.7 175.8 29 C 175.8 29 175.8 29 175.8 29 C 175.7 29.8 175.6 30.7 175.5 31.7 C 175.3 32.6 175.2 33.6 175.2 34.5 C 175.1 35.5 175 36.3 174.9 37.2 C 174.8 38 174.8 38.7 174.8 39.2 C 174.6 39.2 174.4 39.2 174.1 39.2 C 173.9 39.2 173.6 39.2 173.4 39.2 C 173.6 38.1 173.8 37 174 35.8 C 174.1 34.6 174.3 33.4 174.5 32.2 C 174.7 31 174.8 29.8 175 28.6 C 175.1 27.4 175.2 26.3 175.4 25.2 C 175.35 25.23 175.7 25.2 175.7 25.2 C 175.7 25.2 175.69 25.23 175.7 25.2 Z M 195.4 33 C 195.7 33 196.1 33 196.5 33 C 196.8 33 197.2 33 197.5 33 C 197.9 33 198.3 33 198.7 33 C 199 33 199.4 33 199.8 33 C 199.77 33.01 197.6 27.9 197.6 27.9 C 197.6 27.9 195.37 33.01 195.4 33 Z M 204.2 39.2 C 204 39.2 203.9 39.2 203.7 39.2 C 203.5 39.2 203.4 39.2 203.2 39.2 C 203 39.2 202.8 39.2 202.6 39.2 C 202.5 39.2 202.3 39.2 202.1 39.2 C 202 38.9 201.9 38.6 201.7 38.1 C 201.6 37.7 201.4 37.2 201.2 36.8 C 201 36.3 200.8 35.8 200.6 35.3 C 200.4 34.8 200.2 34.4 200.1 33.9 C 199.6 33.9 199.2 33.9 198.8 33.9 C 198.3 33.9 197.9 33.9 197.4 33.9 C 197 33.9 196.6 33.9 196.2 33.9 C 195.8 33.9 195.4 33.9 195 33.9 C 194.6 35 194.2 36 193.8 36.9 C 193.5 37.8 193.2 38.6 193.1 39.2 C 192.8 39.2 192.6 39.2 192.3 39.2 C 192 39.2 191.8 39.2 191.6 39.2 C 192.7 36.9 193.7 34.6 194.7 32.3 C 195.8 30 196.8 27.6 197.8 25.2 C 197.8 25.2 198.2 25.2 198.2 25.2 C 198.5 26 198.9 26.8 199.3 27.7 C 199.6 28.6 200 29.5 200.4 30.5 C 200.8 31.4 201.2 32.3 201.6 33.2 C 201.9 34.1 202.3 35 202.6 35.7 C 203 36.5 203.3 37.2 203.6 37.8 C 203.8 38.4 204.1 38.9 204.2 39.2 Z M 207.5 30.7 C 207.5 29.8 207.5 28.9 207.5 28.1 C 207.4 27.2 207.4 26.4 207.4 25.5 C 207.8 25.5 208.1 25.5 208.5 25.6 C 208.9 25.6 209.3 25.6 209.7 25.6 C 210 25.6 210.4 25.6 210.8 25.5 C 211.2 25.5 211.5 25.5 211.9 25.5 C 212.5 25.5 213 25.5 213.5 25.6 C 214 25.8 214.5 25.9 214.9 26.2 C 215.2 26.4 215.5 26.7 215.8 27.1 C 216 27.5 216.1 28 216.1 28.6 C 216.1 29.3 215.9 29.8 215.7 30.3 C 215.4 30.8 215 31.1 214.6 31.4 C 214.2 31.7 213.8 32 213.3 32.1 C 212.8 32.3 212.4 32.4 212 32.5 C 212.2 32.7 212.4 32.9 212.7 33.3 C 212.9 33.7 213.2 34.1 213.6 34.5 C 213.9 34.9 214.3 35.4 214.7 35.9 C 215 36.3 215.4 36.8 215.8 37.2 C 216.1 37.7 216.4 38 216.7 38.4 C 217 38.8 217.3 39 217.5 39.2 C 217.3 39.2 217.1 39.2 216.9 39.2 C 216.7 39.2 216.5 39.2 216.3 39.2 C 216.1 39.2 215.9 39.2 215.7 39.2 C 215.5 39.2 215.3 39.2 215.1 39.2 C 214.9 38.9 214.6 38.5 214.2 38 C 213.8 37.4 213.3 36.8 212.9 36.2 C 212.4 35.5 211.9 34.9 211.3 34.3 C 210.8 33.6 210.4 33.1 209.9 32.6 C 209.93 32.65 209.2 32.6 209.2 32.6 C 209.2 32.6 209.17 34.11 209.2 34.1 C 209.2 35 209.2 35.9 209.2 36.7 C 209.3 37.6 209.3 38.4 209.3 39.2 C 209 39.2 208.7 39.2 208.4 39.2 C 208 39.2 207.7 39.2 207.4 39.2 C 207.4 38.4 207.4 37.6 207.5 36.7 C 207.5 35.9 207.5 35 207.5 34.1 C 207.5 34.1 207.5 30.7 207.5 30.7 Z M 209.2 31.8 C 209.4 31.8 209.6 31.9 209.8 31.9 C 210 31.9 210.2 31.9 210.5 31.9 C 210.9 31.9 211.4 31.9 211.8 31.8 C 212.2 31.7 212.7 31.5 213 31.3 C 213.4 31 213.7 30.7 214 30.3 C 214.2 29.9 214.3 29.4 214.3 28.8 C 214.3 28.3 214.2 27.9 214 27.6 C 213.8 27.2 213.6 26.9 213.3 26.7 C 213 26.5 212.7 26.4 212.3 26.3 C 211.9 26.3 211.6 26.2 211.2 26.2 C 210.8 26.2 210.4 26.2 210.1 26.3 C 209.8 26.3 209.5 26.3 209.3 26.3 C 209.3 27.1 209.2 27.8 209.2 28.5 C 209.2 29.2 209.2 29.9 209.2 30.7 C 209.2 30.7 209.2 31.8 209.2 31.8 Z M 221.6 39.2 C 221.2 39.2 220.9 39.2 220.6 39.2 C 220.6 38.4 220.7 37.6 220.7 36.7 C 220.7 35.9 220.8 35 220.8 34.1 C 220.8 34.1 220.8 30.7 220.8 30.7 C 220.8 29.8 220.7 28.9 220.7 28.1 C 220.7 27.2 220.6 26.4 220.6 25.5 C 220.8 25.5 220.9 25.5 221.1 25.6 C 221.3 25.6 221.4 25.6 221.6 25.6 C 221.7 25.6 221.9 25.6 222.1 25.6 C 222.2 25.5 222.4 25.5 222.6 25.5 C 222.5 26.4 222.5 27.2 222.4 28.1 C 222.4 28.9 222.4 29.8 222.4 30.7 C 222.4 30.7 222.4 31.8 222.4 31.8 C 222.4 31.9 222.4 31.9 222.5 31.9 C 222.6 31.9 222.7 31.9 222.8 31.7 C 223.3 31.3 223.7 30.9 224.3 30.4 C 224.8 29.9 225.3 29.4 225.8 28.8 C 226.3 28.3 226.8 27.7 227.4 27.1 C 227.9 26.6 228.3 26 228.8 25.5 C 229 25.5 229.1 25.5 229.2 25.6 C 229.4 25.6 229.5 25.6 229.6 25.6 C 229.8 25.6 230 25.6 230.1 25.6 C 230.3 25.5 230.4 25.5 230.6 25.5 C 230.1 25.9 229.6 26.4 229 26.9 C 228.4 27.5 227.8 28 227.2 28.6 C 226.6 29.2 226.1 29.7 225.5 30.3 C 225 30.8 224.6 31.3 224.2 31.7 C 225.3 32.9 226.4 34.2 227.5 35.4 C 228.6 36.7 229.7 38 230.8 39.2 C 230.6 39.2 230.4 39.2 230.2 39.2 C 230 39.2 229.8 39.2 229.6 39.2 C 229.4 39.2 229.2 39.2 229.1 39.2 C 228.9 39.2 228.7 39.2 228.5 39.2 C 228 38.7 227.5 38.1 226.9 37.3 C 226.3 36.6 225.8 36 225.2 35.3 C 224.7 34.6 224.2 34 223.7 33.5 C 223.3 33 222.9 32.6 222.7 32.4 C 222.6 32.3 222.5 32.2 222.5 32.2 C 222.4 32.2 222.4 32.3 222.4 32.4 C 222.4 32.4 222.4 34.1 222.4 34.1 C 222.4 35 222.4 35.9 222.4 36.7 C 222.5 37.6 222.5 38.4 222.6 39.2 C 222.2 39.2 221.9 39.2 221.6 39.2 C 221.6 39.2 221.6 39.2 221.6 39.2 Z M 239.4 32.4 C 239.4 31.3 239.6 30.2 240 29.4 C 240.3 28.5 240.8 27.7 241.5 27.1 C 242.2 26.5 242.9 26 243.9 25.7 C 244.8 25.4 245.8 25.2 246.9 25.2 C 248 25.2 249 25.4 249.9 25.7 C 250.8 26 251.6 26.5 252.3 27.1 C 253 27.7 253.5 28.5 253.8 29.4 C 254.2 30.2 254.4 31.3 254.4 32.4 C 254.4 33.5 254.2 34.5 253.8 35.4 C 253.5 36.3 253 37.1 252.3 37.7 C 251.6 38.3 250.8 38.7 249.9 39 C 249 39.3 248 39.5 246.9 39.5 C 245.8 39.5 244.8 39.3 243.9 39 C 242.9 38.7 242.2 38.3 241.5 37.7 C 240.8 37.1 240.3 36.3 240 35.4 C 239.6 34.5 239.4 33.5 239.4 32.4 Z M 252.4 32.4 C 252.4 31.3 252.3 30.3 252 29.5 C 251.7 28.7 251.3 28 250.8 27.5 C 250.3 27 249.8 26.6 249.1 26.3 C 248.4 26.1 247.7 26 246.9 26 C 246.1 26 245.4 26.1 244.7 26.3 C 244 26.6 243.5 27 243 27.5 C 242.5 28 242.1 28.7 241.8 29.5 C 241.5 30.3 241.4 31.3 241.4 32.4 C 241.4 33.5 241.5 34.5 241.8 35.3 C 242.1 36.1 242.5 36.7 243 37.3 C 243.5 37.8 244 38.2 244.7 38.4 C 245.4 38.7 246.1 38.8 246.9 38.8 C 247.7 38.8 248.4 38.7 249.1 38.4 C 249.8 38.2 250.3 37.8 250.8 37.3 C 251.3 36.7 251.7 36.1 252 35.3 C 252.3 34.5 252.4 33.5 252.4 32.4 Z M 258.2 30.7 C 258.2 29.8 258.2 28.9 258.1 28.1 C 258.1 27.2 258.1 26.4 258 25.5 C 258.6 25.5 259.2 25.5 259.8 25.6 C 260.4 25.6 261 25.6 261.6 25.6 C 262.2 25.6 262.8 25.6 263.4 25.6 C 264 25.5 264.7 25.5 265.4 25.5 C 265.4 25.7 265.4 25.9 265.4 26.1 C 265.4 26.3 265.4 26.5 265.4 26.7 C 265.1 26.6 264.6 26.6 264.1 26.6 C 263.6 26.5 263.1 26.5 262.6 26.5 C 262.1 26.5 261.5 26.5 261.1 26.4 C 260.6 26.4 260.2 26.4 259.8 26.4 C 259.8 26.9 259.8 27.3 259.8 27.8 C 259.8 28.2 259.8 28.6 259.8 29 C 259.8 29.5 259.8 29.9 259.8 30.3 C 259.8 30.7 259.8 31.1 259.8 31.6 C 260.7 31.6 261.6 31.6 262.4 31.5 C 263.3 31.5 264.1 31.4 265 31.4 C 264.9 31.6 264.9 31.8 264.9 32 C 264.9 32.2 264.9 32.4 265 32.6 C 264.7 32.5 264.3 32.5 263.9 32.5 C 263.4 32.5 263 32.4 262.5 32.4 C 262.1 32.4 261.6 32.4 261.2 32.4 C 260.7 32.4 260.3 32.4 259.8 32.4 C 259.8 32.4 259.8 34.1 259.8 34.1 C 259.8 35 259.8 35.9 259.9 36.7 C 259.9 37.6 259.9 38.4 260 39.2 C 259.7 39.2 259.4 39.2 259 39.2 C 258.7 39.2 258.3 39.2 258 39.2 C 258.1 38.4 258.1 37.6 258.1 36.7 C 258.2 35.9 258.2 35 258.2 34.1 C 258.19 34.11 258.2 30.7 258.2 30.7 C 258.2 30.7 258.19 30.67 258.2 30.7 Z M 277 25.2 C 277.9 27.1 278.9 29 279.8 30.7 C 280.8 32.5 281.7 34.4 282.8 36.2 C 282.9 36 283.1 35.6 283.3 35.2 C 283.6 34.7 283.9 34.1 284.2 33.5 C 284.6 32.9 284.9 32.3 285.3 31.5 C 285.7 30.8 286.1 30.1 286.5 29.4 C 286.9 28.6 287.2 27.9 287.6 27.2 C 288 26.5 288.4 25.8 288.7 25.2 C 288.7 25.2 289 25.2 289 25.2 C 289.1 26.5 289.3 27.7 289.4 28.9 C 289.5 30.1 289.6 31.3 289.8 32.5 C 289.9 33.6 290 34.8 290.2 35.9 C 290.3 37 290.4 38.1 290.6 39.2 C 290.4 39.2 290.3 39.2 290.1 39.2 C 290 39.2 289.8 39.2 289.7 39.2 C 289.5 39.2 289.4 39.2 289.2 39.2 C 289 39.2 288.9 39.2 288.7 39.2 C 288.6 37.5 288.4 35.7 288.3 34.1 C 288.1 32.4 288 30.7 287.7 29 C 287.7 29 287.7 29 287.7 29 C 286.8 30.6 285.9 32.3 285 34 C 284.1 35.6 283.3 37.4 282.5 39.2 C 282.5 39.2 282.3 39.2 282.3 39.2 C 281.5 37.5 280.7 35.8 279.8 34.1 C 278.9 32.5 278 30.7 277.1 29 C 277.1 29 277.1 29 277.1 29 C 277 29.8 276.9 30.7 276.8 31.7 C 276.7 32.6 276.6 33.6 276.5 34.5 C 276.4 35.5 276.3 36.3 276.2 37.2 C 276.2 38 276.1 38.7 276.1 39.2 C 275.9 39.2 275.7 39.2 275.4 39.2 C 275.2 39.2 275 39.2 274.7 39.2 C 274.9 38.1 275.1 37 275.3 35.8 C 275.5 34.6 275.7 33.4 275.8 32.2 C 276 31 276.2 29.8 276.3 28.6 C 276.5 27.4 276.6 26.3 276.7 25.2 C 276.69 25.23 277 25.2 277 25.2 C 277 25.2 277.03 25.23 277 25.2 Z M 293.4 32.4 C 293.4 31.3 293.6 30.2 294 29.4 C 294.3 28.5 294.8 27.7 295.5 27.1 C 296.2 26.5 296.9 26 297.9 25.7 C 298.8 25.4 299.8 25.2 300.9 25.2 C 302 25.2 303 25.4 303.9 25.7 C 304.8 26 305.6 26.5 306.3 27.1 C 307 27.7 307.5 28.5 307.8 29.4 C 308.2 30.2 308.4 31.3 308.4 32.4 C 308.4 33.5 308.2 34.5 307.8 35.4 C 307.5 36.3 307 37.1 306.3 37.7 C 305.6 38.3 304.8 38.7 303.9 39 C 303 39.3 302 39.5 300.9 39.5 C 299.8 39.5 298.8 39.3 297.9 39 C 296.9 38.7 296.2 38.3 295.5 37.7 C 294.8 37.1 294.3 36.3 294 35.4 C 293.6 34.5 293.4 33.5 293.4 32.4 Z M 306.4 32.4 C 306.4 31.3 306.3 30.3 306 29.5 C 305.7 28.7 305.3 28 304.8 27.5 C 304.3 27 303.8 26.6 303.1 26.3 C 302.4 26.1 301.7 26 300.9 26 C 300.1 26 299.4 26.1 298.7 26.3 C 298 26.6 297.5 27 297 27.5 C 296.5 28 296.1 28.7 295.8 29.5 C 295.5 30.3 295.4 31.3 295.4 32.4 C 295.4 33.5 295.5 34.5 295.8 35.3 C 296.1 36.1 296.5 36.7 297 37.3 C 297.5 37.8 298 38.2 298.7 38.4 C 299.4 38.7 300.1 38.8 300.9 38.8 C 301.7 38.8 302.4 38.7 303.1 38.4 C 303.8 38.2 304.3 37.8 304.8 37.3 C 305.3 36.7 305.7 36.1 306 35.3 C 306.3 34.5 306.4 33.5 306.4 32.4 Z M 312.2 30.7 C 312.2 29.8 312.2 28.9 312.1 28.1 C 312.1 27.2 312.1 26.4 312 25.5 C 312.5 25.5 313 25.5 313.5 25.6 C 314 25.6 314.5 25.6 315 25.6 C 315.6 25.6 316.1 25.6 316.6 25.5 C 317.1 25.5 317.6 25.5 318.1 25.5 C 319.2 25.5 320.2 25.6 321.1 25.9 C 321.9 26.3 322.6 26.7 323.1 27.3 C 323.7 27.8 324.1 28.5 324.3 29.3 C 324.5 30.2 324.7 31.1 324.7 32.1 C 324.7 33.4 324.4 34.6 324 35.5 C 323.5 36.4 322.9 37.1 322.2 37.7 C 321.5 38.2 320.7 38.6 319.9 38.9 C 319 39.1 318.2 39.2 317.4 39.2 C 316.9 39.2 316.5 39.2 316 39.2 C 315.6 39.2 315.2 39.2 314.7 39.2 C 314.3 39.2 313.8 39.2 313.4 39.2 C 312.9 39.2 312.5 39.2 312 39.2 C 312.1 38.4 312.1 37.6 312.1 36.7 C 312.2 35.9 312.2 35 312.2 34.1 C 312.2 34.1 312.2 30.7 312.2 30.7 Z M 313.8 34.1 C 313.8 35.5 313.9 37 313.9 38.3 C 314.2 38.4 314.6 38.5 315.1 38.5 C 315.6 38.5 316.1 38.5 316.6 38.5 C 317.3 38.5 318 38.5 318.8 38.3 C 319.5 38.1 320.2 37.8 320.7 37.3 C 321.3 36.8 321.8 36.2 322.2 35.3 C 322.5 34.5 322.7 33.4 322.7 32.1 C 322.7 30.9 322.6 30 322.3 29.2 C 322 28.5 321.6 27.9 321.1 27.5 C 320.6 27 320 26.7 319.3 26.6 C 318.6 26.4 317.9 26.3 317 26.3 C 316.4 26.3 315.9 26.3 315.3 26.4 C 314.8 26.4 314.4 26.5 313.9 26.5 C 313.9 27.2 313.9 27.8 313.9 28.5 C 313.8 29.2 313.8 29.9 313.8 30.7 C 313.8 30.7 313.8 34.1 313.8 34.1 Z M 328.7 30.6 C 328.7 29.8 328.7 28.9 328.7 28 C 328.7 27.2 328.6 26.3 328.6 25.5 C 329.2 25.5 329.8 25.5 330.4 25.6 C 331 25.6 331.6 25.6 332.2 25.6 C 332.8 25.6 333.4 25.6 333.9 25.6 C 334.5 25.5 335.1 25.5 335.7 25.5 C 335.7 25.7 335.7 25.9 335.7 26.1 C 335.7 26.3 335.7 26.5 335.7 26.7 C 335.3 26.7 334.9 26.6 334.6 26.6 C 334.2 26.6 333.8 26.6 333.4 26.5 C 333 26.5 332.6 26.5 332.1 26.5 C 331.7 26.4 331.1 26.4 330.5 26.4 C 330.5 26.9 330.4 27.3 330.4 27.6 C 330.4 28 330.4 28.5 330.4 29 C 330.4 29.5 330.4 30 330.4 30.5 C 330.4 31 330.4 31.4 330.4 31.6 C 331 31.6 331.5 31.6 332 31.6 C 332.5 31.6 332.9 31.6 333.3 31.5 C 333.7 31.5 334 31.5 334.3 31.5 C 334.7 31.5 335 31.4 335.3 31.4 C 335.2 31.6 335.2 31.8 335.2 32 C 335.2 32.2 335.2 32.4 335.3 32.6 C 334.9 32.6 334.5 32.6 334.1 32.5 C 333.6 32.5 333.1 32.5 332.7 32.5 C 332.2 32.5 331.8 32.5 331.4 32.5 C 331 32.5 330.6 32.4 330.4 32.4 C 330.4 32.6 330.4 32.7 330.4 32.8 C 330.4 33 330.4 33.2 330.4 33.4 C 330.39 33.37 330.4 34.1 330.4 34.1 C 330.4 34.1 330.39 35.35 330.4 35.3 C 330.4 36.1 330.4 36.7 330.4 37.2 C 330.4 37.7 330.4 38.1 330.4 38.3 C 330.9 38.3 331.3 38.3 331.8 38.3 C 332.3 38.3 332.8 38.3 333.3 38.3 C 333.8 38.3 334.3 38.3 334.7 38.2 C 335.1 38.2 335.5 38.2 335.8 38.1 C 335.8 38.2 335.8 38.3 335.8 38.4 C 335.8 38.5 335.8 38.6 335.8 38.7 C 335.8 38.9 335.8 39.1 335.8 39.2 C 335.2 39.2 334.6 39.2 334 39.2 C 333.4 39.2 332.8 39.2 332.2 39.2 C 331.6 39.2 331 39.2 330.4 39.2 C 329.8 39.2 329.2 39.2 328.6 39.2 C 328.6 38.4 328.7 37.5 328.7 36.7 C 328.7 35.8 328.7 35 328.7 34.1 C 328.75 34.09 328.7 30.6 328.7 30.6 C 328.7 30.6 328.75 30.65 328.7 30.6 Z M 339.7 30.7 C 339.7 29.8 339.7 28.9 339.7 28.1 C 339.7 27.2 339.6 26.4 339.6 25.5 C 340 25.5 340.4 25.5 340.7 25.6 C 341.1 25.6 341.5 25.6 341.9 25.6 C 342.3 25.6 342.6 25.6 343 25.5 C 343.4 25.5 343.8 25.5 344.1 25.5 C 344.7 25.5 345.2 25.5 345.7 25.6 C 346.3 25.8 346.7 25.9 347.1 26.2 C 347.5 26.4 347.8 26.7 348 27.1 C 348.2 27.5 348.3 28 348.3 28.6 C 348.3 29.3 348.2 29.8 347.9 30.3 C 347.6 30.8 347.2 31.1 346.8 31.4 C 346.4 31.7 346 32 345.5 32.1 C 345 32.3 344.6 32.4 344.2 32.5 C 344.4 32.7 344.6 32.9 344.9 33.3 C 345.1 33.7 345.5 34.1 345.8 34.5 C 346.2 34.9 346.5 35.4 346.9 35.9 C 347.3 36.3 347.6 36.8 348 37.2 C 348.3 37.7 348.6 38 348.9 38.4 C 349.3 38.8 349.5 39 349.7 39.2 C 349.5 39.2 349.3 39.2 349.1 39.2 C 348.9 39.2 348.7 39.2 348.5 39.2 C 348.3 39.2 348.1 39.2 347.9 39.2 C 347.7 39.2 347.5 39.2 347.3 39.2 C 347.1 38.9 346.8 38.5 346.4 38 C 346 37.4 345.6 36.8 345.1 36.2 C 344.6 35.5 344.1 34.9 343.6 34.3 C 343 33.6 342.6 33.1 342.1 32.6 C 342.15 32.65 341.4 32.6 341.4 32.6 C 341.4 32.6 341.39 34.11 341.4 34.1 C 341.4 35 341.4 35.9 341.4 36.7 C 341.5 37.6 341.5 38.4 341.5 39.2 C 341.2 39.2 340.9 39.2 340.6 39.2 C 340.2 39.2 339.9 39.2 339.6 39.2 C 339.6 38.4 339.7 37.6 339.7 36.7 C 339.7 35.9 339.7 35 339.7 34.1 C 339.7 34.1 339.7 30.7 339.7 30.7 Z M 341.4 31.8 C 341.6 31.8 341.8 31.9 342 31.9 C 342.2 31.9 342.5 31.9 342.7 31.9 C 343.1 31.9 343.6 31.9 344 31.8 C 344.5 31.7 344.9 31.5 345.2 31.3 C 345.6 31 345.9 30.7 346.2 30.3 C 346.4 29.9 346.5 29.4 346.5 28.8 C 346.5 28.3 346.5 27.9 346.3 27.6 C 346.1 27.2 345.8 26.9 345.5 26.7 C 345.2 26.5 344.9 26.4 344.5 26.3 C 344.1 26.3 343.8 26.2 343.4 26.2 C 343 26.2 342.6 26.2 342.3 26.3 C 342 26.3 341.7 26.3 341.5 26.3 C 341.5 27.1 341.5 27.8 341.4 28.5 C 341.4 29.2 341.4 29.9 341.4 30.7 C 341.4 30.7 341.4 31.8 341.4 31.8 Z M 364.2 39.5 C 362.7 37.7 361.1 35.9 359.3 34 C 357.6 32.2 355.9 30.3 354.1 28.5 C 354.1 28.9 354.1 29.4 354.1 30 C 354.1 30.6 354.1 31.5 354.1 32.5 C 354.1 32.8 354.1 33.2 354.1 33.6 C 354.1 34 354.1 34.4 354.1 34.9 C 354.1 35.3 354.1 35.8 354.1 36.3 C 354.1 36.7 354.2 37.2 354.2 37.6 C 354.2 38 354.2 38.3 354.2 38.6 C 354.2 38.9 354.2 39.1 354.2 39.2 C 354 39.2 353.8 39.2 353.5 39.2 C 353.3 39.2 353 39.2 352.8 39.2 C 352.8 39.1 352.9 38.8 352.9 38.5 C 352.9 38.1 353 37.7 353 37.2 C 353 36.7 353 36.2 353.1 35.6 C 353.1 35 353.1 34.4 353.2 33.8 C 353.2 33.2 353.2 32.6 353.2 32.1 C 353.2 31.5 353.2 31 353.2 30.6 C 353.2 29.3 353.2 28.2 353.2 27.3 C 353.2 26.4 353.2 25.7 353.2 25.2 C 353.2 25.2 353.5 25.2 353.5 25.2 C 354.3 26.1 355.2 27.1 356.1 28.1 C 357 29.1 357.9 30.1 358.9 31 C 359.8 32 360.6 32.9 361.5 33.8 C 362.3 34.7 363 35.4 363.6 36 C 363.6 36 363.6 33.3 363.6 33.3 C 363.6 31.9 363.6 30.6 363.6 29.2 C 363.6 27.9 363.5 26.7 363.4 25.5 C 363.7 25.6 363.9 25.6 364.1 25.6 C 364.3 25.6 364.5 25.6 364.8 25.5 C 364.7 25.8 364.7 26.2 364.7 26.8 C 364.6 27.4 364.6 28 364.6 28.7 C 364.5 29.4 364.5 30 364.5 30.6 C 364.5 31.3 364.4 31.8 364.4 32.2 C 364.4 32.5 364.4 32.9 364.4 33.4 C 364.4 33.8 364.5 34.3 364.5 34.8 C 364.5 35.3 364.5 35.8 364.5 36.3 C 364.5 36.8 364.5 37.3 364.5 37.7 C 364.5 38.1 364.5 38.5 364.5 38.8 C 364.5 39.1 364.5 39.3 364.5 39.5 C 364.51 39.49 364.2 39.5 364.2 39.5 C 364.2 39.5 364.23 39.49 364.2 39.5 Z M 375.6 36.6 C 375.8 36.9 375.9 37.1 376.1 37.4 C 376.3 37.6 376.5 37.8 376.7 38 C 377 38.2 377.3 38.4 377.6 38.5 C 378 38.6 378.4 38.7 378.8 38.7 C 379.2 38.7 379.6 38.6 380 38.5 C 380.4 38.3 380.7 38.1 380.9 37.9 C 381.1 37.6 381.3 37.3 381.5 36.9 C 381.6 36.6 381.7 36.2 381.7 35.8 C 381.7 35.2 381.5 34.7 381.2 34.3 C 380.9 34 380.5 33.7 380 33.4 C 379.6 33.2 379.1 33 378.5 32.8 C 378 32.6 377.5 32.3 377 32 C 376.5 31.7 376.2 31.4 375.8 30.9 C 375.5 30.4 375.4 29.8 375.4 29 C 375.4 28.4 375.5 27.9 375.7 27.5 C 375.9 27 376.2 26.6 376.5 26.3 C 376.9 26 377.4 25.7 377.9 25.5 C 378.4 25.3 379 25.2 379.7 25.2 C 380.3 25.2 380.9 25.3 381.4 25.5 C 381.8 25.6 382.3 25.8 382.7 26.2 C 382.5 26.4 382.4 26.6 382.4 26.9 C 382.3 27.1 382.2 27.5 382.1 27.8 C 382.1 27.8 381.9 27.8 381.9 27.8 C 381.8 27.7 381.7 27.5 381.6 27.2 C 381.5 27 381.4 26.8 381.2 26.6 C 381 26.4 380.7 26.3 380.5 26.2 C 380.2 26 379.9 26 379.5 26 C 379.1 26 378.8 26 378.5 26.1 C 378.2 26.3 377.9 26.4 377.7 26.7 C 377.4 26.9 377.2 27.1 377.1 27.4 C 377 27.8 376.9 28.1 376.9 28.4 C 376.9 29.1 377.1 29.6 377.4 29.9 C 377.7 30.3 378.1 30.6 378.6 30.8 C 379 31.1 379.5 31.3 380.1 31.5 C 380.6 31.7 381.1 31.9 381.6 32.2 C 382.1 32.5 382.4 32.8 382.8 33.3 C 383.1 33.7 383.2 34.3 383.2 35 C 383.2 35.7 383.1 36.2 382.9 36.8 C 382.7 37.3 382.4 37.8 381.9 38.2 C 381.5 38.6 381 38.9 380.4 39.2 C 379.8 39.4 379.1 39.5 378.3 39.5 C 377.5 39.5 376.8 39.4 376.3 39.2 C 375.8 38.9 375.4 38.7 375 38.4 C 375.1 38.1 375.2 37.8 375.3 37.6 C 375.3 37.3 375.4 37 375.4 36.6 C 375.41 36.63 375.6 36.6 375.6 36.6 C 375.6 36.6 375.65 36.63 375.6 36.6 Z M 389.9 30.7 C 389.9 29.3 389.8 27.9 389.8 26.5 C 389.5 26.5 389.1 26.5 388.7 26.5 C 388.3 26.5 388 26.6 387.6 26.6 C 387.2 26.6 386.8 26.6 386.5 26.6 C 386.1 26.7 385.8 26.7 385.5 26.7 C 385.6 26.5 385.6 26.3 385.6 26.1 C 385.6 26 385.6 25.8 385.5 25.5 C 386.4 25.5 387.3 25.5 388.1 25.6 C 388.9 25.6 389.8 25.6 390.7 25.6 C 391.6 25.6 392.4 25.6 393.3 25.6 C 394.1 25.5 395 25.5 395.8 25.5 C 395.8 25.8 395.7 26 395.7 26.1 C 395.7 26.3 395.8 26.5 395.8 26.7 C 395.6 26.7 395.3 26.7 394.9 26.6 C 394.5 26.6 394.2 26.6 393.8 26.6 C 393.4 26.6 393 26.5 392.7 26.5 C 392.3 26.5 391.9 26.5 391.6 26.5 C 391.5 27.9 391.5 29.3 391.5 30.7 C 391.5 30.7 391.5 34.1 391.5 34.1 C 391.5 35 391.5 35.9 391.6 36.7 C 391.6 37.6 391.6 38.4 391.7 39.2 C 391.4 39.2 391 39.2 390.7 39.2 C 390.3 39.2 390 39.2 389.7 39.2 C 389.7 38.4 389.8 37.6 389.8 36.7 C 389.9 35.9 389.9 35 389.9 34.1 C 389.87 34.11 389.9 30.7 389.9 30.7 C 389.9 30.7 389.87 30.67 389.9 30.7 Z M 402.5 33.6 C 402.4 33.4 402.2 33.1 402 32.6 C 401.7 32.2 401.4 31.7 401.1 31.2 C 400.8 30.7 400.5 30.1 400.1 29.5 C 399.8 28.9 399.4 28.4 399.1 27.9 C 398.8 27.3 398.5 26.9 398.3 26.4 C 398 26 397.8 25.7 397.7 25.5 C 397.9 25.5 398.1 25.5 398.2 25.6 C 398.4 25.6 398.6 25.6 398.8 25.6 C 399 25.6 399.2 25.6 399.3 25.6 C 399.5 25.5 399.7 25.5 399.9 25.5 C 400.5 26.6 401.1 27.8 401.7 28.9 C 402.3 30 403 31.2 403.7 32.4 C 404 31.9 404.3 31.4 404.6 30.8 C 405 30.3 405.3 29.7 405.6 29.1 C 406 28.5 406.3 27.9 406.6 27.3 C 406.9 26.7 407.2 26.1 407.5 25.5 C 407.8 25.6 408.1 25.6 408.2 25.6 C 408.4 25.6 408.7 25.6 409 25.5 C 408.4 26.5 407.8 27.3 407.3 28.1 C 406.8 28.9 406.4 29.6 406 30.3 C 405.6 30.9 405.2 31.5 404.9 32 C 404.7 32.5 404.4 33 404.2 33.4 C 404.2 33.9 404.2 34.4 404.2 35 C 404.2 35.5 404.2 36.1 404.2 36.6 C 404.2 37.2 404.3 37.7 404.3 38.1 C 404.3 38.6 404.3 38.9 404.3 39.2 C 404 39.2 403.7 39.2 403.4 39.2 C 403 39.2 402.7 39.2 402.4 39.2 C 402.5 38.5 402.5 37.7 402.5 36.7 C 402.5 35.7 402.5 34.7 402.5 33.6 Z M 412.4 30.7 C 412.4 29.8 412.4 28.9 412.4 28.1 C 412.3 27.2 412.3 26.4 412.3 25.5 C 412.4 25.5 412.6 25.5 412.8 25.6 C 412.9 25.6 413.1 25.6 413.2 25.6 C 413.4 25.6 413.6 25.6 413.7 25.6 C 413.9 25.5 414.1 25.5 414.2 25.5 C 414.2 26.4 414.2 27.2 414.1 28.1 C 414.1 28.9 414.1 29.8 414.1 30.7 C 414.1 32.3 414.1 33.8 414.1 35 C 414.1 36.3 414.1 37.4 414.1 38.3 C 415.1 38.3 416 38.3 416.8 38.3 C 417.7 38.3 418.6 38.2 419.6 38.1 C 419.6 38.3 419.5 38.5 419.5 38.7 C 419.5 38.8 419.6 39 419.6 39.2 C 419 39.2 418.4 39.2 417.8 39.2 C 417.2 39.2 416.6 39.2 416 39.2 C 415.3 39.2 414.7 39.2 414.1 39.2 C 413.5 39.2 412.9 39.2 412.3 39.2 C 412.3 38.4 412.3 37.6 412.4 36.7 C 412.4 35.9 412.4 35 412.4 34.1 C 412.43 34.11 412.4 30.7 412.4 30.7 C 412.4 30.7 412.43 30.67 412.4 30.7 Z M 423.4 30.6 C 423.4 29.8 423.4 28.9 423.4 28 C 423.3 27.2 423.3 26.3 423.3 25.5 C 423.9 25.5 424.5 25.5 425.1 25.6 C 425.7 25.6 426.2 25.6 426.8 25.6 C 427.4 25.6 428 25.6 428.6 25.6 C 429.2 25.5 429.8 25.5 430.4 25.5 C 430.4 25.7 430.3 25.9 430.3 26.1 C 430.3 26.3 430.4 26.5 430.4 26.7 C 430 26.7 429.6 26.6 429.2 26.6 C 428.9 26.6 428.5 26.6 428.1 26.5 C 427.7 26.5 427.3 26.5 426.8 26.5 C 426.4 26.4 425.8 26.4 425.1 26.4 C 425.1 26.9 425.1 27.3 425.1 27.6 C 425.1 28 425.1 28.5 425.1 29 C 425.1 29.5 425.1 30 425.1 30.5 C 425.1 31 425.1 31.4 425.1 31.6 C 425.7 31.6 426.2 31.6 426.7 31.6 C 427.1 31.6 427.6 31.6 427.9 31.5 C 428.3 31.5 428.7 31.5 429 31.5 C 429.3 31.5 429.7 31.4 429.9 31.4 C 429.9 31.6 429.9 31.8 429.9 32 C 429.9 32.2 429.9 32.4 429.9 32.6 C 429.6 32.6 429.2 32.6 428.7 32.5 C 428.3 32.5 427.8 32.5 427.4 32.5 C 426.9 32.5 426.5 32.5 426.1 32.5 C 425.7 32.5 425.3 32.4 425.1 32.4 C 425.1 32.6 425.1 32.7 425.1 32.8 C 425.1 33 425.1 33.2 425.1 33.4 C 425.07 33.37 425.1 34.1 425.1 34.1 C 425.1 34.1 425.07 35.35 425.1 35.3 C 425.1 36.1 425.1 36.7 425.1 37.2 C 425.1 37.7 425.1 38.1 425.1 38.3 C 425.5 38.3 426 38.3 426.5 38.3 C 427 38.3 427.5 38.3 428 38.3 C 428.5 38.3 428.9 38.3 429.4 38.2 C 429.8 38.2 430.2 38.2 430.5 38.1 C 430.5 38.2 430.5 38.3 430.5 38.4 C 430.5 38.5 430.4 38.6 430.4 38.7 C 430.4 38.9 430.5 39.1 430.5 39.2 C 429.9 39.2 429.3 39.2 428.7 39.2 C 428.1 39.2 427.5 39.2 426.9 39.2 C 426.3 39.2 425.7 39.2 425.1 39.2 C 424.5 39.2 423.9 39.2 423.3 39.2 C 423.3 38.4 423.3 37.5 423.4 36.7 C 423.4 35.8 423.4 35 423.4 34.1 C 423.43 34.09 423.4 30.6 423.4 30.6 C 423.4 30.6 423.43 30.65 423.4 30.6 Z " stroke="none" fill="#535a5d"/>  </g></svg>